<svg viewBox="0 0 1494.05 1047.24" xmlns="http://www.w3.org/2000/svg"><g transform="translate(-3.92 -209.91)"><path d="m1387.91 552.78c17 3.08 33.94 5 51.15.08 8-2.28 19.17-12.1 20.23-20.43a8.71 8.71 0 0 0 -3.36-8.45c-17.53-13.55-31.8-32.25-55.78-35.7-3.21-.46-3.94-3-5.21-5.2-3.47-8 .54-13.74 5.6-19.22 16.53 7.72 35.33 7.69 52 15.51 11.84 5.57 22.18 12.95 29.06 23.69 9 14 17.85 28.62 16.23 46.58-1.25 13.8-6.23 25.67-17.57 34.29-20 4.53-40.63 4.45-60.89 7.57-35.63 5.48-45.08 32.46-42.26 59.63 1 9.41 2.8 18.73 3.83 28.22 1.25-9.73 2.91-19.36 6-28.64 1.31-3.89 1.82-8.85 7.62-9.19 13.45 4.33 27.75 5.15 41 10.17 10 3.79 18.73 9.28 24 18.85 10.6 19.12 19.76 38.81 17.09 61.54-2.08 17.76-11.41 32-24.22 43.77-14.35 13.17-32.17 21.15-48.85 30.81-4.71-.8-4.07-5-4.76-8-1.47-6.45-2.13-13.08-5-21.49-5.59 16.62-17.49 15.11-29.85 13.1-6-1-12.38-1-17.7 2.36-11 6.93-23 8.62-35.69 7.77-12.54-.3-24.35-5-36.83-5.9-5.47-.39-11-.6-16.44-1.17-9.25-1-17-5.26-23.76-11.63-3.06 2.13-2.55 5.32-2.75 8-3.85 50.48-10.14 100.69-15.6 151-2 18.06 1.58 36.34 2 54.54.09 3.45 1.13 6.87-.29 10.26-3.19 3.89-4.37 0-5.62-1.72-12.74-17-22.29-17.42-40.4-4.59-18.56 13.14-23.74 28.19-16.34 54.12 1.28 4.47 3 8.74 1.56 13.47-4.19 7.57-11.71 11.16-18.86 14.68a248.1 248.1 0 0 0 -44.56 28.41c-32.4 25.71-70 37.18-110.4 42-29.41 3.55-58.85 3.66-88.34 3.36-9.8-.1-19.65-.81-28.67-5.46-3-15.2-9.12-29.86-8-45.79a4.58 4.58 0 0 1 1.8-2.16c2.8-1 5.08.47 7.36 1.71 9 4.93 18.48 4.72 27.8 1.58 24.4-8.21 41.45-33.3 40.49-58.94-.79-20.94-17-33.59-37.28-28.75-21 5-33.73 19.16-41.81 38.34-1.74 4.15-2 9.16-6.35 12-3.69-2-3.77-5.72-4.67-8.93-5.64-20-6.64-40.42-5.77-61 .52-12.45 0-24.91.22-37.37.66-30.64 5.36-60.51 17.69-88.85 1-2.39 1.84-4.89 3.43-7a5 5 0 0 1 2.68-2c2.17.23 2.59 2.06 3.21 3.63 5.38 13.45 14.39 19.29 29 18 15.92-1.56 28.92-8.49 38.54-21.24 10.19-13.59 5-28.53-11.23-33.23-11.12-3.23-21.13.06-31.13 4.3-5.09 2.16-9.21 6.07-14.47 7.87a3.22 3.22 0 0 1 -2.54-.47c-1.87-10 5.41-17 8.63-25.32 1.55-4 4.94-7.08 6.4-11.21a9.15 9.15 0 0 1 2.06-2.76c1.19-.95 1.53-2.39 2.11-3.69.64-.85 1.43-1.56 2.13-2.34 1.12-1.08.64-2.7 1.3-3.93.86-1.54 2.67-2.28 3.36-4a22.33 22.33 0 0 1 2-2.18c-.2-.21 1.25-.12.09-.52.16.47 0 .83-.64 1.08-.79.76-1.43 1.63-2.15 2.44-5.57 0-3.58-4-3.09-6.6.94-4.93 1.6-9.77-.5-14.47-2.35-5.28-5.81-9.44-12.26-9.36s-10.1 3.81-12.27 9.34a25.29 25.29 0 0 0 -.42 17c2 6.5 8 9.67 15.12 8.49 2.81-.47 5.38-2.29 8.42-1.5a2.93 2.93 0 0 1 1.77 2.93 9.73 9.73 0 0 1 -2.31 2.83c-1.23 1.14-1.14 3-2.4 4.16a10.47 10.47 0 0 0 -2.35 3 482.15 482.15 0 0 0 -40.25 81.56c-.82 2.17-1.92 4.24-4.28 5.41-3.51-.5-3.92-3.77-5.15-6.2-7.43-14.56-20.52-19.46-32.73-12.18s-15.56 26.55-6.84 38.39c7.51 10.2 18.66 12.95 29.89 7.37 2.52-1.25 4.75-3.3 7.56-3a5.12 5.12 0 0 1 2.33 5.66c-7.86 27.61-8.45 56.26-11 84.37-4.63.94-6-2.11-8.08-3.87-10.32-8.93-22.78-9.38-30.28-1s-6 22.35 2.61 30.64c6.53 6.28 24.06 8.89 31-2 1-1.63 2.13-3.47 4.43-4 2.71.92 2.84 3.44 3 5.63 2.3 26.39 9.46 51.77 15.9 77.3 2.35 9.3 3.29 18.8 4.61 28.25.36 2.62.37 5.22-1.48 7.43-2.12 1.41-4.42 1.23-6.69.6-23.35-6.57-46.89-12.55-69.72-20.87a12.56 12.56 0 0 1 -3.77-2.12c-3.25-3.62-2.75-8.12-2.67-12.4.44-24 .66-48 1-72a547.74 547.74 0 0 0 -7-93.34c-3.57-22.27-4.24-45-11-66.75a195.29 195.29 0 0 0 -11.64-29.93c-12.9-25.73-16.09-53.51-18.17-81.58 1.87-8.76 3-17.84 10.24-24.36 6.43 4.39 6.21 12.3 9.69 18.24 2.78 6.29 6.19 12.27 9 18.55 3.77 8.51 9.49 14.89 18.18 18.45 11 6.59 20.51 15.14 30.39 23.17a36.43 36.43 0 0 0 16.22 7.92c2.57.49 5.42.94 7.29-1.41 2.13-2.7.76-5.56-.55-8.17-2.25-4.46-5.56-7.56-11-6.85-6.88.9-11.56-2.26-15.56-7.47-7.05-9.2-14-18.51-21.42-27.42-9.86-11.82-8.21-26-6.53-39.17 2.12-16.65.16-32.29-5-47.89 1.22-10.73.69-21.22-4.16-31.13-4.37-10.32-5.67-22.42-16.84-28.77a61.38 61.38 0 0 1 -5.49-5.57c-4.72-5.7-4.29-11.84 1.08-16.93 1.93-1.83 4.35-2.83 6.65-4 18.23-9.56 24.89-24.24 20.18-44.58-1.63-7-4.5-13.8-4.22-21.2-1.34-7.57-7.16-10.79-13.29-13.73-14.91-7.14-16-9.59-13.35-25.42 1.12-6.81 2.55-13.8 1.94-20.69-1.27-14.64-11.21-23.35-23.23-29.23-20.53-10-38.17-5.11-50.49 14.17-5.75 9-12.88 11.8-22.72 10-.86-.16-1.72-.28-2.57-.48-25.76-6-38.85 15-37.46 35a197.34 197.34 0 0 0 3.32 24.09c3.67 18.73 22.11 26.45 38.93 21.67a42.54 42.54 0 0 0 17.94-10.55c7.95-7.69 17.2-13.79 26.28-19.94s19.66-4 29.58-2.49c5.25.79 4.19 5.43 2.15 9-2.87 5-6.79 9.38-9.91 14.27-2 3.18-4.35 6.18-5 10-6.52 17.51-3.85 32.43 10.83 45.25 9.6 8.39 7.46 16.07-4.37 20.27-6.71 1.74-13.27-2.62-20-.5-21.76-.26-37.77 11-52.06 25.83-8.42 8.77-17.65 16.8-24.14 27.27-8.61 11.26-15 23.79-20.72 36.65-6.72 15.3-10.5 31.34-9.26 48s-7.33 30.54-11.78 45.57a3.23 3.23 0 0 1 -2.66 2c-2.85-1-3.76-3.33-4.14-5.94-1.43-9.85-4.58-19.36-5.86-29.24 4.79-8.81 3.59-16.66-2.31-24.86-5-6.94-5.64-15.32-5.06-24.05 1.5-22.52 2.88-45.14-9-65.95-3-5.29-6.92-10-10-15.17-2.46-4.21-5.39-8.16-6.94-12.86-.8-10.21 7-14.68 13.42-20.09a28.21 28.21 0 0 1 7.55-1.76c28.22-3.67 42.86-21.1 48.52-47.67 10.42-23.57-14.9-54.1-37.11-54.94-13-.49-25.72-.23-34.32 11.9-7.61 10.16-15.82 19.92-18.21 33-1.36 7.44-2.33 14.77-.61 22.3a65 65 0 0 1 1.74 14.6c0 16.56-7 23.18-23.41 22.16-14.6-2.7-29.12-2.41-42.5 4.34-20.08 10.14-41.6 13.87-63.53 16.54-16.91 2.06-16.89 2.27-21.23 18.61-7.31 10.73-17.66 18.43-27.94 25.76-15.1 10.78-23 24.54-26.67 42.74-7.73 38.31-15.43 76.57-19.56 115.47a22.68 22.68 0 0 1 -3.55 9.7c-2.73 4.38-3.29 9.17-3.13 14.18s1.95 8.6 7 9.61 8.36-1.66 10.75-5.66a19.65 19.65 0 0 0 2.92-9.92c.05-18.27 7-35.09 11-52.52 3-13.26 6.47-26.41 9.08-39.76 2-10.1 6.59-18.38 15.55-24 12.72-8 24.09-18.06 37.57-24.93 6.49 1.67 12.92 3.12 18.84-1.86 1.05-.89 2.7-.31 3.84.75 1.6 4.31-.55 8-2.32 11.51-5.47 10.85-11.7 21.13-20.82 29.52-10.24 9.42-15.72 21.88-20.59 34.61-20.26 20-32.29 44.35-38.05 72-3.44 16.44-6.75 32.92-9.34 49.54a133.46 133.46 0 0 1 -7.64 27.59c-8.25 21.32-16.58 42.63-23.13 64.56-.66 2.23-1.35 4.44-3.05 6.15-8.58-.2-39.54-18.73-43.42-26 6.31-13.32 13.74-26.11 19.17-39.87 3.67-9.29 6.94-18.78 3.52-28.67-5.62-16.22-17.95-26.85-32.65-34.16-8-4-16.51 3.87-18.31 14.5-3.1 18.31-11.62 35.09-15.4 53.24-.23 1.13-1.37 1.82-2.39 2.43-3.35.37-5.16-1.64-6.63-4.22-2.29-6.46 1-12 3.52-17.35 5.41-11.58 7.81-23.44 6-36.18a52.8 52.8 0 0 1 .14-13c2.82-25.76-5.3-47.56-23.51-65.88-4-4-9.68-5.21-13.45-9.32-1.3-2-1.34-4.39-1.67-6.68-2-13.77-9.69-22.32-20.12-22.32-11.17 0-22.47 11.32-23.88 23.84-.44 3.91.71 8.23-2.78 11.54-4.44-.9-4.59-4.61-5.3-7.93-.15-5.54-2.59-10.67-3-15.92-.49 4.77 3.34 9.6.7 14.73-1.73 1.62-3.39.65-4.46-.61-10.38-12.23-23.28-22.1-32.73-35.18-1.44-2-3.75-3.85-1.85-6.79 8.68-7.89 20-10.88 30.12-16.07 29.59-15.19 62.32-22.67 91.92-38.15 42.92-22.44 81.18-50.68 116.16-84.07 38.6-36.85 72.36-77.8 106.6-118.52 25.14-29.89 53.89-56.37 86.87-77.77 43.26-28.07 88.46-52.58 137.63-68.51 30.41-9.84 62.2-14.5 93.64-20.23a333.31 333.31 0 0 1 70.66-5.26c26.93.85 53 6.92 79.28 12.18 28.66 5.74 57.14 12.31 82.82 26.84 27.68 15.66 54.58 32.43 77.16 55.48 24.51 25 49.89 49.21 75.1 73.54 9.54 9.2 21 16.33 29.51 26.67-1.54 1.78-3.57 1.84-5.59 1.39-31.79-7.16-64.54-5.81-96.6-10.77a153.76 153.76 0 0 1 -33.41-9.22c-14.26-5.66-28.71-10.82-42.68-17.28-14.57-6.74-30-10.63-46.27-10.3a81.91 81.91 0 0 1 -11.28-.59c-17.19-2-27.29 3.6-34.71 19.55a80.34 80.34 0 0 0 -7.43 32.77c-.19 9.84.74 19.73-.6 29.52-2.44 18-11.36 32.7-23.93 45.3a307 307 0 0 0 -24.4 27.11c-9 11.43-8.14 17 2.68 26.46 21 18.38 46.72 25 73.31 28.88 14.28 2.09 28.78 3.48 43.24.4 3.14-.67 6.23-1.25 9-2.85 10.51-6.52 21.27-12.57 33-16.7 3.1-1.09 6.26-3.49 9.65-.56 3.65 12.67.25 25.19-.52 37.81-1.8 29.42-6.58 58.6-6.66 88.15 0 12.09-.65 24.14-.44 36.27.35 20.87 6.33 39.79 14 58.65 14.81 36.44 39.82 63.84 72.7 85 11.64 7.49 22.19 8.74 33.92 1.71 3-1.79 6.07-3.37 9.21-4.86a27.69 27.69 0 0 1 2.52-1.21 18.81 18.81 0 0 1 2.56-1c20.83-8.35 42.87-8 64.74-9.17a61.61 61.61 0 0 0 31.73-10.54c.58-.57 1.21-1.11 1.82-1.64.86-.77 1.76-1.51 2.63-2.26.5-.51 1-1 1.57-1.48s.91-1.06 1.33-1.63c.14-.32.32-.63.46-.95a10.34 10.34 0 0 0 .14-5.49 17.25 17.25 0 0 0 -7.8-11.11c-6.06-4.08-10.93-9.45-16.29-14.31-23.66-21.43-30.75-48.71-28.17-79.35.62-7.41-1.58-15.11 2.08-22.23 3.73-4.1 8.92-7 10.47-12.84-1-3.19-5.37-2.34-6.19-5.51-.27-16.42 5-31.93 8.17-47.73 3.51-17.28 9.53-34 13.48-51.19 7.47-32.54 8.17-64.85-4.7-96.38-4.91-12-11.75-23.21-16.08-35.53-1.22-3.48-3.8-6.65-1.95-10.67 8.55.43 12.92 7.77 19.17 11.91 11.54 7.64 22.66 15.87 35.15 22 4.93 2.43 8.33 2 12.18-2.09 6.75-7.08 13.49-14.15 21.63-19.9 11.55-8.17 23.88-12.39 38-10.93 8.51 3.67 17.22 6.88 25.48 11.13 7.85 4.93 16.33 8.72 24.61 12.76 7.39 3.61 15.41 4.16 23.33-.34 11.15-6.31 22.75-11.54 35.98-11.32z" fill="#ccc4db"/><path d="m1092 963.17a23.26 23.26 0 0 0 -3.81 2c-17.57 13.63-32.71 8.92-50-2.92-43.8-30-68.53-71.79-79-122.43-3-14.62-2.46-30.22-1.54-45.61 1.08-17.84 2-35.69 3.32-53.54 1.94-27.3 6.53-54.42 6-81.9a19.34 19.34 0 0 1 -.7-6c.33-24.89 1.45-50-3.77-74.4-7.74-36.28-20.71-70.08-53.43-92.09a44.39 44.39 0 0 0 -25.35-7.83c-14.46.05-26.2 8-29.79 21.9a111.46 111.46 0 0 0 -.67 52.38c3.29 15 12.41 25.77 23.46 35.55 13.41 11.86 28 22.34 39.47 36.46 10.67 13.17 13.44 28.51 14.29 44.61.18 3.37-1.93 6-3.71 8.62-5.6 5.46-13.23 4.5-19.71 4.74-33.08 1.23-65-3.9-94.45-20.2a99.85 99.85 0 0 1 -18.68-14.05c-8.17-7.47-8.3-13.88-1.87-22.9 10.64-14.9 24.74-26.72 36.13-41a67.12 67.12 0 0 0 15.12-44.08c-.18-13.88-.53-27.72 3.38-41.3 2.53-8.76 6.84-16.39 12.05-23.78 5.84-8.3 14.67-9.2 23.14-9.23 22.35-.07 44.64 2 65.16 11.71 16.44 7.76 33.6 13.54 50.36 20.39 15.5 6.33 32.12 7.08 48.37 8.79 26 2.74 52.34 2.38 77.91 8.9 11.86 3.44 19.8 11.88 27 21.22 1.08.29 1.87.83 1.82 2.1l-.11.24c8 22.43 21.53 42.6 26.86 66.17 6.64 29.44 3.58 58.34-4.28 87-7.81 28.47-15.29 57-20 86.18a18.18 18.18 0 0 0 .09 3.45c1.45 6.43-.29 12.11-4.12 17.29-4 30.36-4.65 60.51 13.82 86.91a103.65 103.65 0 0 0 26.61 25.64c5.73 3.91 11.52 8 10.27 16.41-1.41 1.37.07 3.74-1.72 5a5.68 5.68 0 0 1 -1.64 1.81 11.9 11.9 0 0 0 -3.48 3.55c-12.23 5.41-25.14 6.69-38.15 5-15.87-2-30.7.18-43.9 9.3-5.81 4-13.36 3.83-18.55 8.79v-.12c-.92.02-1.5.77-2.2 1.27z" fill="#f90160"/><path d="m890.37 803.25c-1.54 10.1-9 17.57-12 27-1.21 3.73-4.2 6.86-3.73 11.16l.06.07c9.26-6.5 18.8-12.06 30.17-14.62 7.83-1.76 15-.75 22 1.77 13.13 4.7 17.94 16.62 12.44 29.61-7.7 18.2-35 31.89-54.27 27.61-12.16-2.7-20.33-8.79-22.08-22.12-28.36 65.94-24.68 133.91-14.55 202.41 4.45-9.1 7.63-18.29 13.32-26.46 9.58-13.75 22.43-22.27 38.72-25.62 17.31-3.56 35.22 10.26 36.82 28.24 2.5 28-15.38 55.86-42 65.18-12.91 4.52-24.93 2-36.24-5.15l-.16.16c-1 9.62 2.74 18.53 4.58 27.68 1.3 6.44 2.85 12.78 2.68 19.39 2.56 2.87 2.48 6.45 2.36 9.88-.19 5.89 2.56 7.31 8.07 6.85 22.52-1.88 44.86-5.08 67.23-8.2 38.42-5.36 76.89-11.3 115.79-9.36 29.13 1.46 58.38 2.36 87.24 7.44a22.22 22.22 0 0 1 4.14 1.26c2.84 1.23 5.54 3 8.9 2.26 9.56-.22 18.63 3.16 28.08 3.72 3.27 2.79 6.88 3 10.76 1.35 10.77 1 21.44 2.63 32.07 4.6 3.24 6.07-5.6 8.24-4.27 14.22 5 3.28 10.79 1.68 16.32.87 10.79-1.58 21.32-4.64 32 1.7 5.07 3 10.61-.53 15.57-3 4.51-.58 8.44.31 11.06 4.44.24 4.12-5.18 5.43-4.81 10 5.33 3 11 1.72 16.51.51 10.22-2.24 19.7-4.17 29.41 3.23 5.69 4.34 13.28.53 19.8-1.7 23.42 8.37 48 9.19 74.72 11-18.57 6.34-35.32 11.59-52.64 13.15-38.36 3.45-76.6 2.73-114.22-7.33-13.17-3.53-27-2-40.43-4.09-28.55-4.34-57.11-9.16-86.13-7.3-28.25 1.81-56.38 5.06-84.66 6.47-14.74.73-29.49.78-44.24 1.56-29.36 1.56-57.52 8.64-85.9 15-37.1 8.37-74 17.59-111.33 24.78-17.35 3.35-35.07 5.58-53.31 3-15.31-2.12-31.16 0-46.73-.66-12.63-.5-25.26-2.09-37.43-5.86-21-6.51-43.22-7-64.3-13.1-19.08-5.52-37.62-13.45-57.68-14.88-30.14-2.15-58.61-12.24-88.06-17.5-21.4-3.82-43.27-2.72-65-1.72-4.62.21-9.24.69-13.86.85-34.13 1.15-68.32 1.36-102.37 3.71-20.06 1.39-40.24 2.39-60.23 6.27-8.64 1.68-16.92 4.88-25.69 5.78-2.41-5.28 2.25-6.13 5.13-7.85 3.37-2 7.47-3.1 8.42-7.72a97.26 97.26 0 0 1 30.23-12.49c27-6.36 53.33-15.13 80.79-19.37a46.91 46.91 0 0 0 19.15-5.34c12.47-5.46 25.8-8.14 38.77-12 18.8-5.53 37.72-10.65 57.14-13.55 4.5-.68 9-2.37 13.64-.93 2.53 9.17 4.38 18.6 11.11 26 1.29 1.42.53 3.23-1.29 4.24a193.09 193.09 0 0 1 -53 8.55c-21.73.55-42.92 6.5-64.56 8.52-2.84.27-5.65 1.2-8.43.51 45.9-3.58 91.82-3.72 137.76-2.28 5.82 1 11.54 3.77 17.58 1a27.08 27.08 0 0 1 8.61 1.07c19.35 5.34 39.14 8 59.11 9.48 27.33 2 53.67 8.93 79.87 16.28s52.95 9.32 80 8.85a88.87 88.87 0 0 1 12.1.92c39.35 4.72 78.63 1.44 117.91-1.1 6.42-.41 12.46-2.65 18.61-4.3 8.15-2.18 16.49-4.11 24.82-4.12 34.19 0 66.13-10.29 98.15-20.42 10.86-3.43 21.92-5.2 33.41-3.61 10.83 1.5 21.32-1.6 31.84-3.35 11.79-2 23.38-2.85 35.41-1.39 15.41 1.87 30.93-.41 44.43-1-14.18 1.9-29.78-1.49-45.12-5.62-14.49-3.89-28.74-6.35-43.66-2.6-7.62 1.92-15.62 1.49-23.39.71-26.08-2.61-52-2.47-77.84 2.64-3.41.68-7 1.61-10.35.93-24.58-4.95-48.35 3.27-72.53 4.65-19.89 1.12-39.92 1.42-59.71 4.25a8 8 0 0 1 -6.61-1.16c-8-5.93-16.88-10.8-24.07-17.89a3.31 3.31 0 0 1 1.61-3.72c10.68-.93 21.36 0 31.93 1a259.93 259.93 0 0 0 27.74 1c8.89-.1 10.84-2.31 11.66-11.39.36-4-1.48-8.09.81-11.92-.83-19.69-4.91-38.86-10.63-57.57-5.87-19.18-7.71-38.9-10.72-58.91-4.24 5.66-8.41 11.6-16.67 12-7.49.37-14.73-.27-20.25-5.71-9.9-9.76-12.51-23.22-3.38-34.19 9.49-11.4 23-9.51 38.75 4.87 1.27-29.23 2.9-58.42 12-88.68-9.74 6.52-17.76 11.25-27.95 7.22-7.16-2.84-12.45-7.47-15.62-14.21-7.23-15.34-.83-33.9 13.39-39.77 14.65-6 27.6 1.73 35.44 21.93 3.88-9.26 7.49-18 11.17-26.65 9.24-21.82 19-43.37 34.66-61.56z" fill="#9d8cc0"/><path d="m1311.4 798.21c12.59.33 24.61-1 35.38-8.73 5.69-4.11 13-2.78 19.39-1.77 18.44 2.91 18.83 3 28.09-14.6 6.84 10.29 4.53 22.94 9.37 33.55a277 277 0 0 1 .24 58.78c-3.38 31.48-12.26 61.13-24.25 90.38-9.34 22.78-16.46 46.56-19.49 71.33-3.82 31.17-.66 62.39-1.28 93.58-.24 11.87 5.31 23 8.88 34.26 2.65 8.4 3 16.63-5.72 22.31-3.83 3.08-8.31 2.72-12.42 1.45-10.57-3.25-21.37-4-32.29-4-4-3.74-1.77-7.7.25-11 8.92-14.64 7.25-29.08.47-44-6-13.2-8.79-27.57-13.91-41.13-1.54-4.06-2.89-8.16-5-12-2.87-7-2.39-14.06-1.38-21.34 6.4-45.81 14.51-91.36 20.91-137.15 3.06-21.9-.95-43.84-3.93-65.59-1.61-11.75-3-23.51-4.32-35.28-.39-2.99-1.33-6.26 1.01-9.05z" fill="#4f3195"/><path d="m216.76 1204.88c1.56 3 1.49 4.31-2.53 5.83-4.18 1.57-10.41 1.71-11.36 8.23-6.79-1.19-11.89 4.78-18.5 4.35-2.07 0-3.06-1-2.87-3.07 15-6.4 19.57-18.44 17.08-33.47-2.14-12.94-6.26-25-9.63-37.49a11.85 11.85 0 0 1 -4-6.42c-4-15.12-9.2-30-9.89-45.82-5-8.73-5.38-19.58-12.52-27.34-3-2.67-6.55-4.67-9.23-7.75-5.63-6.45-12.1-11.61-20.72-13.59-3.17-.72-5.71-2.78-8.13-4.88-9.27-7.5-20.38-11.77-30.63-17.53-20.68-11.58-37.23-26.93-46.83-49.05-4.26-9.74-9-19.29-13.46-28.92-4.5-7.65-5.45-16.28-6.22-24.81-.62-7 4.14-10.11 10.55-7.2 4.38 2 8.9 4.22 10.47 9.47a3.39 3.39 0 0 1 -2.9 2.8c-4.89.87-7.93 3.06-7.32 8.67.66 6 3.44 10.38 8.92 12.78 2.73 1.2 5.14 0 6.8-2.35a10.38 10.38 0 0 0 1.1-10.65c-1.17-2.86-5.43-5-2.43-9 5.15-1.74 8.91 1.46 12.82 3.77 6 3.53 11.4 8 17.75 10.9 3 1.39 6.15 3.63 10.84 0-5-8.75-11.93-15.1-21.77-17.85-30.61-8.49-46.81-34.49-46.56-66 .22-29.65 7.33-58.59 6.2-88.18a22.44 22.44 0 0 1 5.43-16.09c1.34-4.85 4.4-6.2 9-4.44 4.46 8.45 11.29 14.92 17.88 21.62 7 7.12 13.81 14.42 20.7 21.63a7.35 7.35 0 0 1 3.12 4.37c5.21 17.65 8 36 14.82 53.19a7.17 7.17 0 0 1 0 5.88c-4.1 2.25-5.41-1.73-7.36-3.6a24.83 24.83 0 0 0 -19.7-7.24c-5.41.4-10.34 2.46-13 7.38-3.55 6.47-2.29 12.83 1.89 18.71 5.2 7.33 15.79 11.9 23.46 9.89 6.88-1.81 12-5.6 13.22-13.2.41-2.54.14-5.24 1.73-7.51 5.88-1.17 6.09 4.22 7.56 7.23 7.87 16.13 16.47 31.77 27.79 45.79 19.34 23.94 41 45.32 67.68 61.14 4.06 2.41 9 4.3 10.45 9.76.19 4-1.71 7.34-3.67 10.48-11.89 19-17.6 40.77-26.64 61-4.23 9.46-2.91 20.42.59 30.56.13 19.76 7.56 38.09 11.2 57.17a265.62 265.62 0 0 1 9.91 50.15c.52 6.03 4.81 8.1 8.91 10.7z" fill="#9887b9"/><path d="m1302.75 552.45c-8.38-3.31-17.76-4.62-24.2-11.9 8.48-5 16.28-10.63 21-20.26-4.54-3.21-9.48-5.71-13.15-9.45-16.1-16.42-20.21-36-14-57.91.94-3.31 2-6.59 2.93-9.88.25-.15.56-.49.74-.43 11.58 3.82 23.14.53 34.76.35 21.76-.34 43.81 17.75 43.17 35.93a10.13 10.13 0 0 1 -.69 4.23c-4 14.39-11.52 26.28-24.87 33.69a5.36 5.36 0 0 0 -2.87 6.4c1.81 8.67 3.43 17.53 11.94 22.71-.39 4.36-4 5.44-7.17 6.43-9.11 2.86-18.34 4.92-27.59.09z" fill="#e19054"/><path d="m48 926.73c-4.25-5.25-10-11.79-16-9.43-7.28 2.86-.43 10.73-.81 16.4-.31 4.65 3.23 9.18 2.32 14.26-7.35-3.27-9.93-10.41-12.59-16.91-11-26.93-17.22-54.53-17-84.16.21-24.45 3.21-47.77 13.13-69.83 4.15-9.22 9.79-18.46 20.16-22.84-3.95 10.54-2.1 21.66-3.37 32.43-3 25.14-4.2 50.36-6.22 75.55-1.93 24.09 18.87 55.25 42.64 59.27 11.14 1.88 18.25 9.31 25.06 17.25a6.21 6.21 0 0 1 .74 7.33c-1.38 2.32-4.2 1.8-6.37 1.44-5.82-1-10.51-4.48-15.49-7.39-7.37-4.31-13.55-11-22.78-11.68h-1a5.64 5.64 0 0 1 -1.82-.86z" fill="#ccc5dc"/><path d="m1353.34 483.13c-2.84-8.49-2.71-17.85-10.77-24.57-12.4-10.35-25.66-16.92-41.76-11.88-9.56 3-17.27-.4-25.45-3.63-8.88-9.23-10.49-20.87-8.86-32.56 1.25-8.9 5-17.46 10.85-26 9.16 10.3 18.59 19.89 31.27 24 13.38 4.33 25 11.33 36.58 18.88 8.61 5.63 12.41 14.09 13.2 23.87a135.85 135.85 0 0 1 -.13 20c-.27 4.35.22 9.41-4.93 11.89z" fill="#020202"/><path d="m175 1097q7 26.13 13.94 52.24c-22.12 5-43.73 12.25-66.47 14.45-3.16.31-5.73 2.47-8.09 4.62-7.8-6.13-15.56-12.28-17.73-22.79 23.46-20.45 52.35-32.11 78.35-48.52z" fill="#3c1e79"/><path d="m1394.54 641.52c-7.42 8.2-7.51 19-9.9 28.88-1.33 5.51-1.64 11.26-2.65 18.61-5.3-8.16-3.92-16-5.2-23.26-2.57-14.48-4.43-28.82.35-43.51 5.89-18.07 18-27.28 36.08-31.72 20.59-5 41.8-3.82 62.35-8.21a4.23 4.23 0 0 1 4.64 1.62c-12.41 9.47-27.46 12.66-41.76 17.74s-28.74 10.29-37.68 24.09c-3.17 4.9-6.1 9.73-6.23 15.76z" fill="#bcb3c7"/><path d="m1317.17 1173.87c10-2.9 19.86-1.8 29.43 1.84 5.07 1.93 10.28 1.08 15.41 1.59 2 7.44 1.6 14.91.33 22.39-6.52 7.39-17.24 7.48-24.61 1-5.57-4.9-12.73-3.31-18.91-1.5a60.33 60.33 0 0 1 -20.32 2.37c-2.11-.1-4.73.94-5.82-2.21s.5-5 2.56-6.69 4-3.18 6-4.77c2.91-7.38 8.81-11.4 15.93-14.02z" fill="#020202"/><path d="m96.66 1145.54 17.73 22.79a15.39 15.39 0 0 0 2.93 13.74 15.12 15.12 0 0 1 2.83 13c-1.89 7.76-7 10.31-14.08 6.56-9.32-4.92-15-13.1-19.37-22.36a18.44 18.44 0 0 1 -1.88-5.65c-.53-4.71-7.47-7.64-4.08-13.19 3.89-6.32 8.81-11.84 15.92-14.89z" fill="#020202"/><path d="m1302.75 552.45c12 .18 24.31 1.64 34.79-6.52 17.29-1.37 33.89 2.33 50.37 6.85a196.4 196.4 0 0 0 -41.54 16.22c-5.49 3-11.56.58-15.9-1.44-9.47-4.4-19.75-7.78-27.72-15.11z" fill="#bcb3c7"/><path d="m527.29 354.17c-6.91-8.25-4.58-16.17-.64-23.73 4.53-8.66 12.88-10.62 21.41-8.9s14.51 7.38 16.9 16.93z" fill="#3b1f79"/><path d="m1065.26 209.91c11.29 7.16 23.51 12.8 34 21.39-10.36 11.61-23.19 15-31.77 8.67-7.82-5.74-8.9-18.39-2.23-30.06z" fill="#f80362"/><path d="m1400.54 463.86c-1.42 6.54-6.34 12.05-5.6 19.22-4.85-.53-9.52-2.23-14.54-1.85a8.78 8.78 0 0 1 -8.67-4.75c-2.8-5.18-4.85-11.06-2.2-16.55 2.52-5.21 8.3-2.85 12.66-2.86 6.81-.07 12.81 3.05 18.35 6.79z" fill="#e19054"/><path d="m282.93 301.82c-7.44 6.4-16.27 11.2-24.73 16.5-5 3.15-6.71-1.38-8-4.68-3.09-7.68 2.28-18.13 10.38-21.94a16.28 16.28 0 0 1 22.35 10.12z" fill="#f80362"/><path d="m1420.15 926.85c11.25 3.28 17.18 12 14.54 20.9-2.29 7.79-14.89 15.64-26.85 10.3 1.41-11.44 7.29-21.18 12.31-31.2z" fill="#f80362"/><path d="m276 576.56c-4.14 8.49-10.45 14.91-15.68 22.06-3.29 4.5-6.68 3.5-9.86-.36-6.22-7.53-5.74-18 1.16-24.22s15.49-5.46 24.38 2.52z" fill="#f80362"/><path d="m124.41 1043.46c16.38 3.39 29.13 12 38.08 26.22-14.49-6.12-28.32-13.24-38.08-26.22z" fill="#ccc5dc"/><path d="m181.5 1220.22 2.87 3.06c-11.77 7.74-25.59 9.22-38.83 12.59 11.89-5.49 23.22-12.19 35.96-15.65z" fill="#b7abce"/><path d="m1152.51 539.28-1.82-2.1c1.24.15 1.99.73 1.82 2.1z" fill="#ccc4db"/><path d="m389 704.14c-2.53-.31-4.48 1.25-6 2.68-5.49 5-10.06 3.56-14.43-1.41a38.09 38.09 0 0 1 -7.29-19.77 128 128 0 0 0 -7.28-33.39c-.85-2.43-1.66-4.93-.4-7.5-2.44-13.59 3.23-20.09 16.6-21.12 22.38-1.73 44.39-5 65-15.34 14.35-7.25 30-10 46-5 3.52 1.48 4.87 4.75 6.47 7.83 2.4 4.61 4.36 9.46 7.46 13.69 8.08 11 12.73 12.55 25.91 8.36a12 12 0 0 1 3.82-.47c2.76.29 4.75 1.88 6.54 3.83 22.06 23.49 23.09 52.43 20.75 82-.8 10.17.2 19.21 6.67 27.58 7 9 6.57 12.44-.8 22.18-2.79 5.85-8.6 6.12-13.82 7.47-13.07 3.38-26 7.31-39.29 9.91-8.83 0-10.83-2-10.13-10.42.27-3.16 1.59-6.12 1.68-9.29 4.1-14.58 5.27-29.79 8.72-43.95-3 7.08-8.23 13.62-12.39 20.74-8.06 13.81-7.2 28.77-2.82 43.7.79 3.4.3 6.91.8 10.29 2.61 17.61-5 28.68-21.5 34.2-7.06 3-14.52 2.64-21.94 2.59-27.71 3.48-54.18-.26-78.11-15.24-12.61-7.89-20.07-20.2-24-34.55.93-7.21 6.85-10.6 11.87-14.14 16.52-11.6 31.41-24.6 41.61-42.37 2-3.54 4.26-7 5.16-10.92 4-17.6 11.78-33.11 24.41-46.15 2.6-2.68 4.5-6 7.27-9.26-13.37 4.64-21.61 14.74-30 24.7-5.3 6.34-9.1 14.06-16.54 18.54z" fill="#f80060"/><path d="m1311.4 798.21c2.85 24.25 6.06 48.47 9.14 72.69 3.66 28.71-2.13 56.15-6.54 84-4.1 25.82-8.5 51.6-11.37 77.62-1.32 11.94-5.74 23.68-1.29 35.8 2.22 5.2 2.26 10.57 1.46 16.08-1.69 11.69-3.47 23.36-5.63 35-1.71 9.13-3 18.06 1.17 27.07 2.49 5.38.57 10.13-4.77 13.18-4.65 2.36-9.49 2.31-14.3.73-7.53-2.48-15-4.27-22.73-.75a7.32 7.32 0 0 1 -5.91-.42c-4.52-3.15-4-7.33-2.16-11.6 1.8-4.12 2.92-8.18 1-12.57-15.25-35-24.31-71.85-31.58-109.18-1.28-6.14-4.07-12.11-2.23-18.63-2.66-16.58-.85-33.41-3.13-50.09-2.18-15.87 2-31.64 3.59-47.42 1.88-18.66 4.89-37.22 6.31-55.91 2-26.37 6.72-52.46 7.13-81.89 10.71 16.89 24.82 19.53 41 19.95 13.66.28 27.23 4.07 40.84 6.34z" fill="#3b1f79"/><path d="m347.16 782.59c3.76 13.66 10.92 25.35 22.69 33.16 23.29 15.45 49.48 18.32 76.64 15.62 2.24 3 0 5.4-1.16 7.9-12.09 25.44-25.4 50.3-36.91 76a105.09 105.09 0 0 0 -4.17 11.31c-17.36 30.73-33.22 62.28-50.52 93a61 61 0 0 0 -3.29 8c-6.8 14.26-15.59 27.37-23.72 40.86-1.3 2.17-2.43 4.66-5.42 5.1a3.37 3.37 0 0 1 -2.86-1.68c-5.36-11.48-11.4-22.66-15.24-34.8a2.87 2.87 0 0 1 1.54-2c8.9-1.6 18.28-.86 25-9.49 9.1-11.7 10.73-24.25 6-37.59-3.78-10.76-15.67-14.68-25.86-9.55-11.34 5.73-18.45 19.47-17.38 33.59.26 3.36 1.79 6.85-2.28 11.51-7.05-10.41-21.59-11.59-26.75-24.34 8.25-29.9 22.31-57.86 30.21-87.78 6.33-23.93 8.38-48.88 15.14-72.79 6.64-23.49 17.51-44.52 36.41-60.69 1.77 1.14.77 3.34 1.93 4.66z" fill="#3c1e79"/><path d="m777.43 1166.79.1 3.22c-3.4 7.14-10.61 5.66-16.45 7.16a30.15 30.15 0 0 1 -11.13.5c-10.14-1.59-6.71-10.09-8.21-16.1-6.86-19-8.48-39.15-12-58.87-.2-11.68-3.38-22.92-5.15-34.36-2.58-16.72-2.1-33.53-2-50.33.07-17-5-31.87-14.58-46.31-12.29-18.49-24.25-37.46-32.11-58.51.93-16.64 6.42-32.32 11.44-47.9 5.71-17.71 9.38-35.8 13-53.91 2.41-12 6.47-23.41 9.32-35.21 2.88-5.51 6.49-10.16 13.25-11 1.8 24.17 4.63 48.36 13.28 71 5.52 14.46 13.22 28 17.57 43.14 5.37 18.68 7 37.88 9.44 57q3.06 23.54 6 47.09a93.21 93.21 0 0 1 1 11.17c.09 39 .06 78 .17 117 0 3.37-1 7 1.42 10.06a8.12 8.12 0 0 1 2.54 6.16 193.6 193.6 0 0 0 3.1 39z" fill="#be2c64"/><path d="m926.74 677.94c4.48-27.67-6.12-48.94-26.79-66.87-13.89-12.05-29.48-22.37-40.37-37.72a58.19 58.19 0 0 1 -10.82-32.2c-.35-11.45-.61-22.93 1.1-34.54 4.36-29.76 32.51-38.38 57.53-24.27 22.72 12.81 35.74 33.84 45.83 56.95 16.06 36.76 16.16 75.71 15.37 114.71 0 1.76-.11 3.49-1.65 4.71-14.37 4.41-27.43 11.52-40.2 19.23z" fill="#be2b64"/><path d="m303.87 1036.27 17.36 37.51c6.45 7.62 7.39 17.41 9.88 26.46 6.23 22.54 11 45.46 15.81 68.34-5.77 2.36-11.53 4.79-17.92 4.87-5.45-4.4-4.5-10.79-4.74-16.56-.39-9.25-2.49-18.07-4.72-27.19-20.15 15.94-43.47 9.83-55.73-14.08-4.12-14.38-.94-25 9.26-30.12 11.22-5.62 22.43-1.45 35.79 2-11.6-30.88-26.41-56.47-52.3-74.45-6.28-9.33-17.07-12.2-25.92-17.81-5.33-3.37-10.81-6.43-15.3-10.94-12.92-9.07-26.63-17.2-38.59-27.39-28.92-24.67-52.85-53.5-68.49-88.61-1.44-3.23-2.08-7.38-6.24-8.84v-.36c-2.53-14.36-9.09-27.62-11.45-42.05-1.2-7.29-4.42-14.22-4.08-21.81-1.62-3.82.49-3.31 2.87-2.47.67 2.64.36 5.74 3.82 7.52-.36-8.7 0-16.91 5.27-24.14 7.35-10.15 17.55-14.47 27.55-11.29s16 12.68 15.88 25.2c0 1.45-.1 2.89-.16 4.34-.65 13.6-9.56 20.6-20.72 25.74-8.33 2-15.91.74-22.49-6 4.07 27 15.88 49.8 30.37 71.49 9.27 14.65 19.56 28.49 32 40.61 3.3 3.2 6.78 6.29 8.62 10.68l5.46 3.74c11.59 6.45 21 16 32.57 22.54 5.19 3 11.17 4.93 14.2 10.76 13.11 9.77 27.63 17.22 41.75 25.33 3.07 4.86 8.47 6.81 12.79 10.08 5 3.77 10.85 6.39 14.76 12.2-1-8.06-1.73-15.75.7-23.46 2.89-9.18 7.71-16.71 16.25-21.44 11.25-6.25 23.39-2.5 29.3 8.9 8.05 15.54 1.88 38.22-12.59 47.83-6.72 4.46-14 2.33-21 3z" fill="#f60262"/><path d="m722.92 765.12-12 9.82c-6.31 5.09-12.12 1.69-17.43-1.59a77.49 77.49 0 0 1 -22-20.69c-6.9-9.52-14.44-18-25.54-22.64-2.06-4.2-.57-8 1.3-11.76 9.15-9.67 22-14.55 30.85-24.93 8.44-10 13.84-21.2 18-33.25 1.27-3.65.25-7.44-.35-11.15a79.77 79.77 0 0 1 .85-11c1.09-9.29-1.07-16.78-10.05-21.16 7.07-4.12 14 1.78 21 .4 3.17.63 6.75-.53 9.46 2.12 11.39 7.89 17.51 21.31 29.89 28.26 4.49 2.52 8.32 6.15 12.31 9.46 5.39 10.43 7.22 21.33 4.44 32.86.62 5 .35 9.94-2.57 14.09-9.24 13.16-17.54 27.07-29.35 38.27-3.83 7.27-7.07 14.77-8.81 22.89z" fill="#3c1e79"/><path d="m699 553.39c1.67-8.59 8-14.46 12.45-21.46 1.93-3 5.26-5.55 4.5-9.22-23.6-7.72-39.08 6.32-54.66 19.79-10.32 8.92-21.05 15.68-35.74 13.75-13.17-1.74-23.18-9.46-25.93-22.75-2.49-12-5.23-24.08-3.58-36.6 2-15.57 16-32.41 37.59-27.26a87.77 87.77 0 0 0 10.23 1.46c6.58.81 10.54-1.72 13.73-7.77 5.75-10.88 14.62-18.76 27.11-21.11 21-3.94 49.3 11.68 51.65 33.8a63.9 63.9 0 0 1 -2.32 23.81c-3.07 11-.77 16.8 10 21 7.95 3.09 15.26 6.59 17.17 16-2.73 2.83-6.32 2.49-9.76 2.55-6.07.11-12.15-.06-18.22.09-9.58.22-18.14 3.1-25.38 9.64-2.39 2.26-4.63 5.41-8.84 4.28z" fill="#020202"/><path d="m686.53 616.72c8.11-.07 12 4 12.24 12.07.18 7.17.41 14.32-1.41 21.35-1.26 11.21-8.88 18.14-17 24.53-6.54 5.16-14.46 8-21.93 11.56-.72.47-1.47.88-2.22 1.3a23.5 23.5 0 0 1 -2.32 1.24c-7.19 4.27-14.21 8.83-21.34 13.19-17 10.4-23.52 27.91-29.44 45.47a252.7 252.7 0 0 0 -11.65 54 56.2 56.2 0 0 1 -4.91 18.32c-2.39 5-5.87 8.63-12.18 7.46-7.56-4.61-10.46-13.82-7.68-24.34 6.39-18.34 13.79-36.09 12.54-56.55-.85-13.92 3.25-28 10.14-40.67 1.71-1 3.23-2.47 5.12-3 11.27-3.34 14.1-12.27 15-22.44.27-3.1.09-6.25.5-9.36 15.09-22.37 33.31-41.19 58.56-52.2 5.87-2.55 12.01-1.09 17.98-1.93z" fill="#f8aa72"/><path d="m353.62 644.75c9.26 19.16 8.93 40.69 14.94 60.65-13.18 9.38-26.05 19.24-39.66 27.94-7.39 4.73-10.74 11.3-12.29 19-5.28 26.26-12 52.13-19 78-2.22 8.27-.3 17.23-3.53 25.62-2 5.27-5.93 8-10.51 9.39s-9-1.54-11.34-4.86c-3.68-5.25-3.45-13.14-.69-17.44 8.21-12.79 7.23-27.19 9.17-40.87q5.85-41.07 15-81.43c1-4.49 2.16-9 2.78-13.52 2.08-15.28 10-26.48 22.35-35.54 11.37-8.41 21.88-17.93 32.78-26.94z" fill="#ec985b"/><path d="m521.56 634.88c-14.42 7.78-22.62.44-31.48-14-3.43-5.58-5.93-11.74-8.85-17.64 17.38-.65 24.33-7.4 20.51-25.4-5.54-26.16.66-47.76 18.67-66.7 4.68-1.56 8.39.35 11.79 3.34s6.23 6.77 9.47 10c3 3 6.27 6.09 11.22 5.26 12.62-2.14 22.49 1.68 28.79 13.28 1.46 2.69 4.24 3.78 6.7 5.23 3.08 1.81 5.5 4.15 6.4 7.76-2.49 28.6-24 47.8-56.87 50.78-5.24 2.38-9.51-.07-13.66-2.81-4.5-3-8.57-6.58-14.18-10.71-.65 11.13.68 20 6.72 28 2.87 3.91 8.14 7.38 4.77 13.61z" fill="#ec985a"/><path d="m566.72 802.91c1 5.22 2.31 10.41 2.93 15.67a7.92 7.92 0 0 0 5.92 7.3c8.78 3.79 16.47 9.9 26 12.18 7.58 2.09 14.15.51 20.22-4.63 4.72-4 10.37-6.55 16.77-6.1 5.87.41 10.79 2.94 12.9 8.72 2 5.41-1 9.5-4.87 13-11.49 10.3-26.09 11.72-40.38 13.88a41.65 41.65 0 0 1 -7.82.08c-21.14.43-40.27-7-58.62-16.22-11.87-6-17.37-18.17-23.89-29-4.78-8-7.58-16.83-10.94-25.43-1.09-2.78-1.47-5.61.57-8.22a6.18 6.18 0 0 1 6.43-3.44c14.26.93 26.18-8.26 40-9.27 2.1-.15 4.08-2 6.12-3.11 4.29 8.59 4.69 18.16 6.69 27.31.54 2.43.25 5.1 1.97 7.28z" fill="#ec985a"/><path d="m1153 1159.79a38.14 38.14 0 0 0 3.72-12.19c1.36-8.73 2.11-17.73 6.49-25.77 9.24-17 6.2-33.35-2.72-49.35-1.55-2.77-3.29-5.44-4.94-8.15-1.85-10.11-6.42-19.36-6.42-30.23 0-17 8.33-28.91 21-37.5 20.16-13.62 32-12.9 45.45 10.55l3.66 16.47c-3.48 13.18-10.16 25.33-19.88 34-16.19 14.42-19.23 33-21.36 52.35-.64 5.84-1.6 11.44-4.22 16.7a139.57 139.57 0 0 0 -9.68 25.07c-1 3.58-1.82 7.4-5.37 9.61-3.11 4.19-4.01-.12-5.73-1.56z" fill="#f80362"/><path d="m221.76 973.94c-16.53-9.78-33.37-19.13-46.77-33.3 3.18-19.9 13.41-37.83 15.93-58 1.61-12.86 15.56-18.8 26.32-11.89 9.85 6.34 17.84 14.91 24.91 24 6.77 8.65 7.33 19.64 3.84 29.71-5.99 17.37-12.77 34.64-24.23 49.48z" fill="#9887b9"/><path d="m699 553.39c9.83-8.23 19.21-17.12 33.55-16.49 9.55.42 19.13 0 28.69 0-.59 7.73 2.85 14.66 4.43 21.95a52.4 52.4 0 0 1 0 22.3c-2.58 12.12-10.32 19.45-21.18 24.41-13.06 6-13.76 10.12-4.13 20.68a28.39 28.39 0 0 1 2.43 3.54c-5.18 2-9.3-1.09-13.59-3s-8.49-4.44-12.92-6.28l-8.8-3.37c10.49-4.4 11.57-9.72 2.47-17.38-15.35-12.94-18.47-28.27-10.95-46.36z" fill="#f8aa72"/><path d="m120.91 818.76c10.55-5 17.33-13.28 20.8-24.36 22.35 7.69 30.52 26.55 36.75 46.84 3 9.67 4.27 19.28 2.23 29.69-1.51 7.65.51 16 .52 24 0 11-4.68 20.65-9.12 30.31a28.43 28.43 0 0 0 -2.56 11.7c-16.56-14.55-31.21-30.69-41.69-50.28a39.63 39.63 0 0 1 -4.18-21 106.71 106.71 0 0 0 -3.66-33.56c-1.16-4.47-2.34-9.1.91-13.34z" fill="#9887b9"/><path d="m731.67 742.18c4.84-11.18 14.33-19.18 20.72-29.38 4.66-7.38 9.46-14.32 11.2-23 5.88 14.69 8.39 29.62 5.28 45.51-4.25 21.73 2.55 40.18 18.14 55.75 4.06 4 7.31 8.93 10.75 13.56 3.24 4.35 7 6.87 12.59 4.76 5.17-2 8.42 1.08 11 4.56 2.9 3.92 5.64 8.27 4.1 13.6-.87 3-3.47 3.52-6.25 3.51a30.85 30.85 0 0 1 -20.07-7c-10.57-8.9-21.34-17.51-32.47-25.67-4-4.22-7.95-8.76-9.59-14.2-3-10.07-10-16.58-17.73-22.72q-3.85-9.62-7.67-19.28z" fill="#f8aa72"/><path d="m347.16 782.59-1.89-4.59c2.24-14.07 10.29-25 20-34.56 11.29-11.2 19.38-24.08 23.79-39.31 9-12.73 18.24-25.28 29.77-35.95 6-5.58 13.27-8.53 22-11.66-8 14.05-20.14 23.17-26.6 36.57-2.15 4.47-4.26 9-5.33 13.62-5.2 22.87-19.35 39.21-36.66 54-8.42 7.22-19.6 11.37-25.08 21.88z" fill="#e20159"/><path d="m594.78 556c-4.51-6.68-15.92-6.12-16.94-17-.35-3.75-18.7-10.06-22.26-7.88-5.16 3.18-8.66 1.16-12.19-2.18a75.76 75.76 0 0 1 -6.55-6.86c-4.38-5.37-9.16-10-16.44-11 10-14.4 25.23-14 39.6-11.88 21.64 3.18 39.71 28.35 38 50-.19 2.99-1.82 4.73-3.22 6.8z" fill="#020202"/><path d="m1229.67 721.13c-2.13-2-.74-3.64-.14-5.06 11.43-26.72 7.3-54.51 5.46-82.07-.75-11.1 2.29-21.65 6.89-30.83 3.85-7.68 3.55-18 12.8-23.44 3.1 5.89-.94 11.21-.79 16.67.39 14.2-.1 28.41.19 42.62a116.27 116.27 0 0 1 -9.62 49.71c-3.35 7.65-5.16 16-8.13 23.79-1.28 3.38-1.69 8.06-6.66 8.61z" fill="#bcb3c7"/><path d="m900.81 787.59a5.26 5.26 0 0 1 -3.46 5.25l-.72-.1.1-.7-.49.52s-.7.15-.7.15c-2.4.91-4.79 1.88-7.21 2.73a15.4 15.4 0 0 1 -19.24-8.66c-3.84-9.15-1.08-23.06 5.78-27.88 4.82-3.38 10.5-4.4 15.5-1.28 7.15 4.44 10.23 11.49 9.2 20-.34 2.82-1.59 5.53-2 8.35-.53 3.28 1.61 2 3.15 1.55z" fill="#9d8cc0"/><path d="m1094.23 962a107.54 107.54 0 0 1 30.77-17.7c11.2-4.07 22.76-4.48 34.83-2.35 11.63 2.06 23.26-2.77 35-3.12-9 10.31-21.84 11.31-34 14.07-9.59 2.17-19.33.37-29 1-13.17.75-25.09 5.33-37.6 8.1z" fill="#be2c64"/><path d="m521.56 634.88c.47-6-4.28-9.3-7.24-13.26-7.29-9.73-7.27-20.38-6.48-32.8 10.75 6.72 17.61 17.23 30.06 18-4.89 5.94-13.42 9.38-13.07 18.95 1.27 2.88 2.27 5.76 0 8.63z" fill="#e19054"/><path d="m716.29 620.49c9.81.29 17.18 7.56 26.5 9.25 12 5.18 12 17.52 16.36 27.23-8.63-1.69-13.56-9.08-20.56-13.28-9.53-5.69-13.28-16.99-22.3-23.2z" fill="#30195e"/><path d="m987.22 454.42-21.29-18.1c6.94-7.4 15.38-9.14 21.18-4.94s6.15 13.62.11 23.04z" fill="#3c1e79"/><path d="m610 670.86c6.41 16.38-2.77 31.91-20.59 34.83 6.16-12.02 10.96-24.85 20.59-34.83z" fill="#ec985b"/><path d="m739.33 761.5c8 .48 12.91 7 15.34 12.41 3.74 8.31 9.23 15.77 12 24.51-8.35-2.49-13.53-8.38-17.17-16-3.38-6.96-6.79-13.94-10.17-20.92z" fill="#ec985b"/><path d="m1150.92 799.58q2.05-8.66 4.12-17.29l8.91.58c-2.78 7.42-5.9 13.46-13.03 16.71z" fill="#e19054"/><path d="m89.36 792.75c-1.56.13-2.86.55-2.87 2.47l-1.69-2.22q-1.55-10.93-3.1-21.88c5.63 6.25 5.63 14.28 7.66 21.63z" fill="#f80362"/><path d="m524.81 634.4c0-2.88 0-5.76 0-8.63l6.6 10.72z" fill="#ec985a"/><path d="m1199.9 933.52c0-1.85 0-3.73 1.72-5 .32 1.99.52 3.91-1.72 5z" fill="#be2c64"/><path d="m1194.79 938.87c0-2.36 1.17-3.49 3.48-3.55a4.89 4.89 0 0 1 -3.48 3.55z" fill="#be2c64"/><g fill="#9d8cc0"><path d="m893.8 798c.06 1.48-.25 2.78-1.71 3.53l-.15-.15c0-1.47.34-2.74 1.81-3.44z"/><path d="m897.35 792.84a3.38 3.38 0 0 1 -1.84 3.39c0-1.17 0-2.34 0-3.51l-.08.07a1.26 1.26 0 0 1 1.71-.1z"/><path d="m902.45 785.77c.23-.78.47-1.56.7-2.34l.7.45-1.37 1.92z"/></g><path d="m1198.24 935.35c.55-.6 1.1-1.2 1.64-1.81z" fill="#be2c64"/><path d="m1092 963.17 2.27-1.32z" fill="#be2c64"/><path d="m890.24 803.12 1.7-1.75.15.15-1.72 1.73z" fill="#9d8cc0"/><path d="m893.75 797.93 1.75-1.71-1.7 1.78z" fill="#9d8cc0"/><path d="m900.68 787.47 1.77-1.7-1.68 1.79z" fill="#9d8cc0"/><path d="m1070.67 856.61c-12.78-27.89-23-56.27-32.64-84.94-6.64-19.79-11.94-39.74-11.92-60.68 0-27.69 10.92-49 37.07-61.22 11.68-5.46 23-11.42 31.54-22 14.85-18.4 17.53-42.27 5.7-62.13-10.43-17.52-32.88-25.85-54.89-21.19-11.09 2.35-21.2 6.86-30.64 12.15-3.57-2.54-4.31-5.62-5.57-8.65 19.22-15.36 41.2-23.14 65.29-19.24 26.19 4.24 42.33 22.31 49.4 46.87 5.78 20.1 7.27 41.1-6.36 59.57a71.4 71.4 0 0 1 -28.65 23.23c-39.53 17.33-50.23 56.66-40.81 91.6 8.82 32.74 18 65.38 27.2 98 1.11 4.11 2.07 7.35-4.72 8.63z" fill="#fd79a6"/><path d="m1086.81 876.24c9.33 0 19.25 9.62 19.14 18.6-.13 10-9.66 19.72-19.27 19.68-10.86 0-19.46-7.54-18.59-18s4.91-21.06 18.72-20.28z" fill="#fd79a6"/><path d="m805 1187.39c5.26-2.72 10.91-3.09 16.72-3.26 30-.84 59.8-2.91 89.37-8.2 5.9-1 12.49-1.52 18.14 0 10.36 2.82 20.2.46 30-1.3 21.85-4 43.62-3.27 65.53-1.21 10.66 1 21.5 1.14 31.9-1.6 10.87-2.87 21.14-.88 31.5 1.86 19.52 5.17 39.19 9.33 59.56 9.37-20.06 3.11-39.93 6.82-60.42 3.14-12.1-2.17-24 2.41-36 3.78-9.06 1-17.75 3.13-27.28 1.59-12.07-2-23.76 2.41-35.46 5.94-28.62 8.66-57.07 18.37-87.61 18.11-11.57-.1-23 2.34-34 5.7a115.41 115.41 0 0 1 -33.25 4.64c-23.13.16-46.18 2.55-69.35 1.85a246.76 246.76 0 0 1 -34.36-3.34c-7.12-1.23-14.3.15-21.31.28-33.21.63-64.42-8.79-96-16.77a364.77 364.77 0 0 0 -66.47-10c-17.86-1.15-35.08-6.27-52.45-10.33-5.8-6.31-5.64-13.76-4.11-21.48 10.35-7.06 22.63-5 34-6.85 6.42-1 13.14-.61 19.69.12 5.9 1.51 9.65 6.17 13.8 10 9.54 8.86 20.13 16.35 30.4 24.26 4.22 3.24 9.16 6.15 13.88 1.11 4.33-4.62 2.62-9.58-.74-14.14-2.05-2.78-4.19-5.51-6.29-8.26-1.73-2.26-3.86-4.53-1.71-7.72 9.33-3.89 19.09-4.63 28.94-3.41 17 2.12 33.86 4.85 50.39 9.33 22.76 6.17 46.15 8.21 69.44 11 2.3.27 4.63.34 6.79 1.29 7.54 11 18.83 13.17 31 12.87 9-.23 18.2 1.31 26.62-1 1.85-3.47-.92-5.12-.86-7.37z" fill="#b7abce"/><path d="m1291.76 1158.23c.09 8.63 2.12 17.32-.91 25.83-4.43 7-13.25 7.89-17.31 4.44-9.74-8.29-19.09-3.46-28.35-1.91-7.23 1.22-14.19.54-21.54 1.12-3.19-8.91 3.08-12.1 8.25-15.88a47.54 47.54 0 0 0 19.12-13.57c11.24-4.48 22.28-3.82 33.23 1.06 2.63 1.17 5.02-.62 7.51-1.09z" fill="#020202"/><path d="m480.38 1187.38c-21.38-.22-42.71.63-64.16-1-23-1.78-45.89 5.23-69.11 3.12-3.34-.3-6.73 0-10.17-.77 42.68-12.62 87.59-10.6 130.67-20.28a30.13 30.13 0 0 1 12.77 18.93z" fill="#b7abce"/><path d="m1190.18 1165.86c6.22-10.47 6.5-22.48 8.71-34 .75-3.93-1.45-6.89-4-10-8.54-10.41-14.58-21.69-8.33-35.67 2.18-4.88 5.23-8.94 10.51-10.9 8.83-3.28 15.31-.22 17.16 9.06 1.58 7.92 1.82 16.31-4.5 22.51-4.33 4.25-5.57 9.28-4.36 14.22 3.37 13.62-1.55 25.41-6.64 37.35-1.13 2.64-2 5.38-3.07 8.07-1.4 1.06-1.61 4.08-4.31 3-1.49-.58-1.49-2.18-1.17-3.64z" fill="#f80362"/><path d="m480.38 1187.38-12.77-19c-4.28-6.45-11.15-11.29-11.55-20.15a16.32 16.32 0 0 1 1.1-7.33c4.56-2.36 6.5-7.29 10.26-10.44 4.1-1.78 6.72 1 9 3.4 5 5.13 11.44 9.09 13.73 16.47 0 5.48 2.21 11 .1 16.45l3.59 20.8c-4.61 7.88-8.97.42-13.46-.2z" fill="#020202"/><path d="m805 1187.39 6.82 3.87c-.6 5-3.16 7.08-8 6.87-13.44-.59-27 1.46-40.32-1.76-6.78-1.64-13.34-3.62-14.18-12.2-2-3.06-3.54-6.07 1-8.37 9.19-1.26 18.89-.13 27.14-5.79 10.54 3.76 17.24 13.43 27.54 17.38z" fill="#020202"/><path d="m874.65 841.49-.84.71.78-.78z" fill="#ccc4db"/><path d="m858.87 1102.5-.69-.87c.28.24.56.48.85.71z" fill="#ccc4db"/><path d="m265.21 1114c-10.51 2.35-19.58 8.14-29.33 12.29-13.47 5.74-26.63 12.2-39.93 18.34-3.86-17.28-9.76-34.1-11.6-51.82-.19-1.88.75-3.87 1.16-5.81 18-10 30.79-25.77 45.35-39.65 9.44-9 16.26-19.4 21.59-31.07 1.05-2.3 2.23-4.79 5.15-5.47 25.66 17.54 40.25 43.23 52.19 70.88 1.1 2.54 1.64 4.95-.69 7.14s-4.71 1.06-7.14-.08c-4.17-2-8.34-3.68-13.17-3.82-19.55-.57-28.25 10.07-23.58 29.07z" fill="#3c1e79"/><path d="m257.6 1010.77c-11.71 30.21-36.59 49.49-59 70.82-3.59 3.42-7.8 5.92-13.13 5.37-6.61-10.7-5.48-22.7-1.12-32.78 4.66-10.76 8.92-21.77 13.13-32.64 5-13 13-24.34 17.82-37.26 14.4 8.4 30.17 14.53 42.3 26.49z" fill="#ccc5dc"/><path d="m43.78 762.17c2.77 0 4.72.72 5.77 2.6 6.48 11.57 16.31 21 21.26 33.56 5.5 14-3.82 32.57-17.55 34.37-12.58 1.65-20.37-6.89-16.36-19 4.6-13.9 8.36-27.6 4.26-42.32-.76-2.72 0-3.87 2.62-9.21z" fill="#ccc5dc"/><path d="m102 859.08v.37c5 15.08-5.8 27.54-21.16 24.6-8.76-1.66-15.7-5.93-20.14-13.55-3.91-6.71-4-14 .77-20.31 5.54-7.23 13.71-8.44 22-6.43 8.39 2.05 15.31 6.65 18.53 15.32z" fill="#f70160"/><path d="m51.43 928.42c3.13 4.58 8.84 8 6.88 14.9-1.14 4-2.69 7.83-7 9.22-4.08 1.32-7.18-.68-10-3.6s-4.89-5.66-5.46-9.6c-1.55-10.68.3-12.63 12.15-12.61.93 1.1 2.58.77 3.56 1.79z" fill="#ccc5dc"/><path d="m203.09 990.5c-2 16.73-13.87 29.27-17.48 45.1-3.12-6.88.44-13.65.24-20.42-.18-5.86 1.86-11.93 3.67-17.67s5.07-9.95 13.57-7.01z" fill="#ccc5dc"/><path d="m67.3 944.12c4.26.63 6.49 3.2 6.73 7.49.21 3.67-1.18 6.44-5.26 6.22-4.34-.23-6.63-2.92-6.84-7.32-.18-3.75 1.29-6.07 5.37-6.39z" fill="#ccc5dc"/><path d="m51.52 928.48c-1.45-.09-2.89-.19-3.56-1.79 1.55-.13 2.89.16 3.56 1.79z" fill="#9887b9"/><path d="m545.85 1036.78c-7-8.52-16-14.65-24.54-21.32-11.78-4.57-18.51-15.33-27.81-22.94-26-21.22-53.67-39.94-81.67-58.28-3.36-2.2-7.06-4-8.9-7.93.38-8.7 5.09-15.88 8.63-23.35 11.39-24 23.25-47.74 34.93-71.59 7.69-.64 15.62.55 22.93-3 2.8.75 3.27 3.12 3.44 5.42.65 8.67 5.75 14.59 11.31 20.77q27.51 30.64 57.59 58.75c19.38 18.17 39 36.06 55.08 57.37 7.75 10.36 10 22.71 11.6 35s3.37 24.6 2.21 37.07a19.31 19.31 0 0 1 -.33 2.94c-2 8.28-1 16.71-1.22 25.08-.62 23.72-6.37 46.27-15.49 68.06-2.78 4.72-4.86 9.81-7.58 14.57a6.35 6.35 0 0 1 -5.69 1.06c-9.9-3.27-20.23-5.7-28.07-13.34-.59-2 .25-3.7 1.15-5.38 5.16-8.91 4.4-19 5.46-28.67.62-5.73-.15-11.56.41-17.33a17 17 0 0 1 .52-2.65c.31-1.27.61-2.55.81-3.85 2.93-18-3.06-33.14-14.77-46.46z" fill="#4f3195"/><path d="m594.13 969.56c-13.39-14.79-26.85-29.44-41.53-43-18.24-16.9-35.57-34.79-53.13-52.42-7.75-7.78-15-16.06-22.65-23.94-6-6.14-4.74-14.57-7.4-21.76 2.27-1.18 4.5-2.46 6.84-3.51 8.72-3.93 13.32-10 12.26-20.16-.65-6.23-.08-12.58-.06-18.88-.83-5.93 1.14-11.23 3.91-16.25 1.29-2.33 2.39-5.45 6.22-4.39 1.06 6.14-3.71 11.9-1.18 18.23 2.52 2.2 5.41.1 8.06.64 7.17 25.14 15.45 50.35 40.36 63.28 15.86 8.22 33.4 14 52.06 13.45 2.48 2.54 2.49 5.71 2.31 9-1.63 29.47-2.21 59-3.06 88.49-.14 3.86.57 8.14-3.01 11.22z" fill="#ccc4db"/><path d="m498.59 765.2c-7.79 4.72-6.11 14.08-10.13 20.64-6.95-12.68-4.82-36.52 4.45-47.28 5.47-6.35 8-14.5 13.7-20.95-1.47 16.13-2.96 32.15-8.02 47.59z" fill="#e20159"/><path d="m402.93 926.31c42 26.4 83.15 53.82 118.38 89.15-25.24-5.59-50.85-6-76.51-5.21-30.9.94-61.24 5.25-90.33 16.33a9.82 9.82 0 0 1 -5.89.7c7-18.38 18.38-34.52 27-52.09 8.2-16.77 16.97-33.29 27.35-48.88z" fill="#ccc5dc"/><path d="m594.13 969.56q1.88-54.37 3.76-108.76c15.63-.21 30.74-2.73 44.24-11.15 5-3.1 10.61-7.72 7.26-13.83-3.21-5.86-9.77-8.37-17.19-5.63-3.85 1.43-7.66 3.13-10.34 6-6.62 7-14 6.44-22 3.49-2.34-8.21-1.57-16.67.36-24.55 4.89-19.87 10.47-39.57 20.6-57.66 5.29-9.46 13-16.89 19.75-25.08 1.46-1.76 3.43-3.14 6-2.81 9.77 1.11 16 7.45 21.26 14.86a128.32 128.32 0 0 0 22.28 24.1c6.14 5.17 12.83 7.53 20.76 6.43 3.14 2.74.46 5.53-.35 7.88-6.62 19.08-9.22 39-13.71 58.6-3.92 17.05-9.89 33.62-14.39 50.55-1.75 6.59-5.27 12.87-4.52 20-7.82 17.64-15.16 35.5-23.43 53-5.92 12.48-10.18 25.71-15.69 38.4-5.66 13-12.15 25.55-22.45 35.65-2.19 2.15-4 5.13-7.88 4.32a275.9 275.9 0 0 0 -5.28-53.55c-1.49-7.49-6.07-13.5-9.04-20.26z" fill="#f70160"/><path d="m608.47 1043.35c11.88-9.33 19.83-21.78 25.83-35.21 11.27-25.23 21.43-51 32.51-76.29 3-6.89 5.05-14.55 11.11-19.83 8.59 21.49 20.48 41.31 33.35 60.29 8.12 12 13.3 24.41 13.46 38.3.3 27.68 0 55.3 7 82.39.77 3 0 6.32 0 9.5-3.16 2.1-5.49-.32-7.92-1.58-35.47-18.31-71.77-34.87-108.11-51.34-2.62-1.19-5.54-1.85-7.21-4.53a3.27 3.27 0 0 1 -.02-1.7z" fill="#ccc4db"/><path d="m591.26 1138.71c50 6 99.53 14.46 149.13 22.72a22.32 22.32 0 0 0 3.47 0c1.08 2 1.75 3.9.83 6.46-1.81 5 .48 7.65 5.7 7.9q-.48 4.18-1 8.37a396.77 396.77 0 0 1 -84.21-12.58c-14.75-3.87-29.83-6-44.88-8a55.57 55.57 0 0 0 -27.73 3.4c-7.75-1.62-9.41-6.67-7.66-13.63.38-5.64 3.66-10.01 6.35-14.64z" fill="#9d8cc0"/><path d="m120.91 818.76c4.78 22.37 5.49 45.16 6.94 67.86-13.8-18.94-24.49-39.31-29.27-62.48-1-5-2.43-9.84-3.11-15.46 6.53 8.93 15.33 11.32 25.44 10.08z" fill="#c2b6d3"/><path d="m303.87 1036.27-1.22-.83c1.18-.61 1.34-.07 1.07 1z" fill="#3c1e79"/><path d="m646.59 729.55c-17.28 16.45-29.59 35.69-36.59 58.68-5.14 16.87-9.24 33.79-10.12 51.42-9-3.09-17.74-6.45-24.28-13.77 6.84.26 8.43-5 10.22-9.88 4.48-12.29 4.08-25.47 6.92-38 4.12-18.24 8.54-36.36 17.19-53.19 5-9.68 10.64-18.72 20.32-24 8.45-4.65 15.71-11.44 25.27-14.08 4 11.7-.26 21.68-6.58 31.22q-1.2 5.76-2.35 11.6z" fill="#ccc4db"/><path d="m648.91 717.86c2.67-10.31 6.92-20.28 6.58-31.22l-.12.08a17.21 17.21 0 0 0 1.39-1.68c13.33-6.58 27.67-11.77 35.43-26 1.65-3 3.44-6 5.17-8.94 2.68 3.71 2.06 7.88.71 11.58-7.69 21.13-18.92 39.53-40.11 49.84-3.35 1.67-4.77 6.06-9.05 6.34z" fill="#30195e"/><path d="m726.73 514.66c-5.81-5-11.38-9.51-16.54-14.42-8.83-8.41-19.56-8.8-28.62-.9a310 310 0 0 1 -29.57 22.66 36.58 36.58 0 0 1 -24.59 6.39c-11-1-17.73-10.08-14.83-20.62 4.69-17 16.51-24.28 34.45-21.42 8.28 1.32 14.93-.69 20.38-8.05 12.85-17.37 38.59-18.62 52.61-3.08 4.41 4.88 6.93 10.48 6.73 17.28-.19 7.59-.02 15.23-.02 22.16z" fill="#484746"/><path d="m656.76 685c0 .93-.27 1.66-1.39 1.68z" fill="#ccc4db"/><path d="m206.81 895.3c-8.42.69-9.36-3.1-9.19-8.06.2-6.09 5.73-13.17 10.58-12.54 6.26.83 8.53 5.8 8.43 11.23-.14 7.48-6.18 8.71-9.82 9.37z" fill="#ccc5dc"/><path d="m152.3 867.25c1.29-7.85 2.14-16.5 4.26-24.82 1.72-6.75 1.18-12.46-3.1-17.88-2-2.52-4.56-5.44-.84-8.15 3.21-2.34 6 0 8.29 2.34 9.29 9.47 13.34 21.55 15.61 34.07 1.19 6.6 2.15 13.55.34 20.48-1.37 5.26.49 12.26-7.72 13.33-7 .92-14.93-5.19-16.49-12.62-.41-2-.23-4-.35-6.75z" fill="#ccc5dc"/><path d="m897.17 792.68c-.57 0-1.14 0-1.71.1.54-1.29 1.07-1.36 1.71-.1z" fill="#ccc4db"/><path d="m545.85 1036.78c17.67 11.91 18.44 29.74 16.94 48.37a17.21 17.21 0 0 1 -1.5 1.7l.16-.17c-7.88 12.86-21 20.46-31.35 30.78-8.41 8.37-18.49 14.74-28.49 21.09-2.55 2-4.22 4.68-6 7.34-1.53 2.29-2.89 5.34-6.7 3.64-6.39-7.21-12.43-14.83-21.5-19-2.76-2.51-.21-4 1.16-5.64 19.88-23.41 39.7-46.87 59.76-70.13 5.46-6.34 11.67-12.01 17.52-17.98z" fill="#f70160"/><path d="m584.93 1153.35c.8 5.53 3.07 10.23 7.66 13.63 3.61 4.45 7.13 9 10.84 13.34 4.78 5.61 4.38 11.34-.33 16.34s-9.94 4.52-15.27 0c-13.83-11.75-29.71-21.11-41.35-35.43-5.83-8.66-3.25-17.35 6.21-20.93 10.25 5.56 20.61 10.86 32.24 13.05z" fill="#020202"/><path d="m552.69 1140.29c-7.55 5.36-8.05 12.8-6.21 20.93-18.88.39-37.78.61-56.2 5.61-2.82-5.58-2.3-11.42-1.36-17.3 6.15-2 5.79-10.13 11.6-12.5 16.45-4.8 33.2-2.32 49.85-2a5.21 5.21 0 0 1 4.29 2.62z" fill="#9d8cc0"/><path d="m561.29 1086.85 1.51-1.7c-.15.85.38 2.36-1.51 1.7z" fill="#fdfbfc"/></g></svg>