<svg viewBox="0 0 1465.35 922.12" xmlns="http://www.w3.org/2000/svg"><g transform="translate(-22.76 -242.8)"><path d="m1485.49 1098.85c-12.9-1.27-24.71-6.68-37.12-9.85a550.42 550.42 0 0 0 -82.87-14.43c-39.09-3.79-77.38 1.1-115.77 7.18-14.78 2.33-29.92.57-44.91 1.28-26.83 1.26-53.51 3.21-80 7.45-52.11 8.33-100.15 28.91-148.63 48.38-23.68 9.51-48.31 14.36-74.3 11.82-14.75-1.44-29.71.16-44.61-2-17.94-2.57-35.17-7.22-52.35-12.81-21.75-7.09-43.64-15.17-66.6-16.07-29.47-1.16-59-1.7-88.55 2.36-36 4.94-72.17 9.27-107 19.34-28 8.08-56.53 12.07-84.92 17.32-9.5 1.76-19.58.23-29.38.63-8.53.36-17 1.31-25.55 2-2.09.17-3.42 1.15-3.43 3.43h-5.53a105.19 105.19 0 0 0 -31.29 0h-27.68a1.09 1.09 0 0 0 -1.85 0h-33.15c-6.53-4.33-14.18-1.82-21.26-3.12a164.82 164.82 0 0 1 -48.16-17.08c-31.2-16.69-64-29.57-97.68-39.69-35.37-10.61-71.13-20-107.55-26.48a18.52 18.52 0 0 1 -2.62-1.11c15-4.75 29.69-8.32 44.54-7.75 21.58.82 42.49-3.46 63.65-5.85 3.73-.14 5.08 3 7 5.22a24.27 24.27 0 0 0 9.49 6.94c7.32 3 10.85 1.12 12.18-6.7.55-3.26.19-6.81 3.52-9 8.73-4.12 18-3.69 26.94-2 29.07 5.49 58.52 8.1 87.73 12.49 6.86 1.65 13.86 1.35 20.83 1.46 16.18-.35 32.25 1.61 48.56.21 16.47-1.4 33-2 49.32-4.83 24.17-4.13 48.82-4.57 72.88-9.53a10.94 10.94 0 0 1 8.81 1.48c3.08 6.86-3.29 7.51-6.72 9.41-21.19 11.7-43.2 21.79-64.94 32.4-3.48 1.7-6.72 3.85-9.86 5.09 10.56-5 21.2-11 32.69-15.07 8.49-3 10.94-.88 8.88 7.84a45.52 45.52 0 0 0 -1.07 17.29c2.14 14 15.73 19.3 26.88 10.57 14.84-11.61 18.37-29 8.65-44.69-3.23-5.22-2.69-8.46 3-10.65 3.9-1.5 7.39-4.68 12.09-3.07 3.76 5.81 9.34 8.46 16 9.45a111.56 111.56 0 0 1 20.47 5.14c3.44 1.2 7 2.28 10.8 1.62 2.49-.44 4.91-1.43 5.48-4.19.53-2.52-1.49-3.93-3.37-4.93-6.32-3.35-11.27-8.4-16.56-13-1.8-1.56-4.09-2.9-3.73-5.88a6.92 6.92 0 0 1 3.09-3.31c22.18-10.94 45.3-18.66 70.25-19.72 3.31-.15 6.83 0 9.2 3.08 3.63 11.18 3.63 11.21 15.81 11.24h46.52c3.64 0 7.32-.17 10.77 1.35 3.86 2.59 2.19 5.94 1 9a33.7 33.7 0 0 0 -2.72 13.38c.3 11.78 8 16.58 18.58 11.17 8.87-4.53 14.39-12.25 17.89-21.34 5.23-13.61 8.8-15.41 23.49-11.88 18.75 4.51 37.2 10.25 56.38 13 9.4 1.36 18.83 2.48 28.22 3.89 7.66.11 15.33-.16 23 .16 9.62.39 12.36 4 9.75 13.85-3.22 12.12-7.8 23.83-12.4 37.63 5.19-5.6 8-10.59 11-15.46 2.11-3.48 4.28-5.49 8.85-2.82 12.66 7.4 31.16-2.31 33.75-17.42 2.43-14.23 2.56-14.89 17.41-15.53 22-1 43.9-4.14 65.9-5.18 20.08-.94 38.91-7 59.51-12.65-.33.11-2-1.28-1.36-.25.23.36.07.65-.51.76-9.81 2.06-19.52 5.39-29.76 2.54-2.31-1-3.91-2.87-5.49-4.74-1.65-4.38-6.78-7.52-4.76-13.23 2.55-2.42 5.62-1.88 8.67-1.57 26.43 2.63 52.91 4.95 78.67 12a134.35 134.35 0 0 0 42 .13c7.66-1.37 15.24.16 22.68 1.38 22.81 3.76 45.53-1.51 68.28-.09 4.85.3 9.75-.35 14.52.85 2.23.66 3.17 2.12 3.66 4.5 1.66 8.17 4 9.14 11.33 5.23 3.77-2 6.5-5.39 10.16-7.53a5.62 5.62 0 0 1 4.35-.66c8 3.08 16.62.47 24.76 2.35 4.29 3.3 8.62 1.9 13 .09 40.22 1.62 79.93 6.57 118.74 17.7 14.9 4.27 30.35 6.81 44.53 13.38 10.37 4.82 21.15 9 30.06 16.48z" fill="#c5c5c5"/><path d="m362.62 1164.93a55.16 55.16 0 0 1 31.29 0z" fill="#fefefe"/><path d="m333.16 1164.93c.62-1.8 1.23-1.09 1.85 0z" fill="#fefefe"/><path d="m857.39 305.16c10.79 15.33 17.28 32.83 24 50 4.06 10.47 8.15 21 12.49 31.31 10.56 25.21 22 50.18 27.1 77.18a525.17 525.17 0 0 1 8 56.91c1.12 14.22-3 28.32-5.92 42.25-1.76 8.4-3.32 16.57-2.62 25.2.54 6.59.59 13.3-2.5 20.55 9.33-1 17.46-3.66 26.06-2.48 3.65.5 5.06-3.8 6.39-6.87 4.13-9.52 6.41-19.61 9.13-29.56 4-2.36 6.27.95 8.55 3 8.9 8.13 19.46 10.58 33.45 9.89-14.94-3-26.25-8-33.39-19.57-1.67-2.7-4.59-3.95-6.64-6.17-.43-4.61 1-8.85 2.52-13.09 2.88-2 5.29-.46 7.47 1.22 5.47 4.21 11.83 6.13 18.68 7.21-10.85-2-16.15-11.24-23.78-17.44-.8-14.27 5.25-26.75 11.38-38.82a281.74 281.74 0 0 1 18.77-32.22c15.51-22.51 38.28-33 65.53-33.51 10.15-.2 8.91 7.88 9.69 14.32-.41 3-2.94 4.48-4.6 6.61-14.39 18.44-16.23 39.24-11.36 61.25.46 11.7-3.77 22.73-5 34.27-2.63 25.31-3.7 50.47-1.39 75.86 1.38 15.2-3.67 29.55-9.41 43.45-12.62 30.63-36.48 53.25-56.64 78.48-16.47 20.61-35.08 39.24-56.59 54.58-16.19 11.54-32.72 22.62-48.86 34.23-4.84 2.12-8.68 5.56-12.2 9.41-12.24 9.5-22.65 20.4-27.42 35.64-5.81 5.87-13.58 8.94-20.92 11.07-45.28 13.14-89.62 29.67-136.16 38.31-7.22 1.34-14.5 2.47-21.81 3.29-2.21.24-4.31-.2-5.43-2.53-.59-11.27-1.4-22.53-1.43-33.81-.09-34 0-67.94-.1-101.92 0-4.88 1-10.33-4-14.22-4.22 4.22-3 9.05-3 13.43-.12 42.24 0 84.47-.1 126.71 0 4.87.5 9.83-1.58 14.49-2.44 3.39-5.38 4.67-9.2 2.18-3.81-10.84-4.07-22.17-4.1-33.43-.16-54.19-.06-108.39-.08-162.58 0-4.59.32-9.22-.89-13.71-1-3.69-2.75-7.22-7.12-7.35s-6.18 3.41-7.32 7a30.38 30.38 0 0 0 -.93 9.11c0 46.54-.77 93.09.34 139.61.45 18.93 1.39 37.89 1.45 56.85 0 4 .19 8-1 11.86-3.79 6.19-8.55 10.26-16.44 7.33q-.16-60.12-.31-120.24c0-19.23-.46-38.49.19-57.7.77-22.6-2.73-43.85-12.69-64.55-13-27-20.95-55.64-22.37-85.81-.41-8.47-6-15.93-4.85-24.7 5.09-1.12 6.07 3.18 7.65 6.15 31.43 58.95 81.57 90 147 97.76 14.25 1.69 28.71.77 43-1.63 3-.5 6-1.49 9-.17 3.58 3.28.92 6.25-.82 8.85-4.25 6.33-7.3 13.36-12.12 19.36-4.15 5.16-5.69 10.92-.55 16.53 4.2 4.59 12.57 5.05 18.45.38a135.26 135.26 0 0 0 20.08-19.95c11.67-14.11 21.18-29.73 31.06-45.09 8.17-8.72 19.26-13.61 28.22-21.4 5.21-4.53 9.37-10.5 16.19-13.09 16.8-7.38 32.75-16.55 50.17-22.62 9.77-3.4 19.13-8 27.91-8.85 2.79-.94 1.29-2.54 1.83-1.44.18.37.06.66-.38.76-16.37 3.71-33.11 5.66-49.26 10.42a9.77 9.77 0 0 1 -8.81-1.39c-2.5-4.91 1.29-8.09 3.44-11.54a185.75 185.75 0 0 0 28.76-100.98c-.36-40.59-12.33-78.38-37.63-111.08-22.07-28.53-49.9-49-83.89-61.8-16.33-6.15-33.48-7-50-11.45-19.94-15-26.94-38.26-37.69-59.13a4 4 0 0 1 .66-5c4.92-1.78 7.91 1.95 11.56 3.94 15.67 8.57 31.76 12.85 48.94 4.2 17.08 6.11 34.75 10.13 52.34 14.41 4.35 1.06 8.81 2 12.29 5.22 6.39 8.59 6.59 9.75 4.64 26.93 5.89-3.24 7.28-13.85 16.92-10.08z" fill="#4a4941"/><path d="m275.66 849.14c8-7.24 9.36-17.91 13.75-27 7.77-16 15.5-32.08 27.12-45.87 1.09-1.3 1.42-3.24 2.1-4.89 5-3.52 10.13-2 14.76.29 12.17 5.92 25 7.23 38.24 6.61 15.45-.72 31 1.53 46.33-2.86a12.2 12.2 0 0 1 12.63 3.39c.05 5.2.81 10.5 0 15.57-3.18 20.1 7.16 34.32 19.91 47.67 15.75 16.51 30.76 33.47 49.86 46.81 16 11.14 21.92 29 22.52 48.75 1 31.13-2.22 62-3.76 93.06-.2 4 .1 7.94.17 11.91-6.83 6.67-14.72 10.86-24.56 10.57-12-28.58-20.1-58.15-22.25-89.17-.63-9.09-6.73-14.12-13.42-18.52-21.69-14.27-42.84-29.37-65.39-42.34-13.56-7.8-26.42-16.54-36.64-28.59-3.74-3.19-6.09 0-8.72 1.89-17.15 12.34-27.73 29.35-36.8 48.13-8.59 17.79-15.91 36.34-27.14 52.81a20.55 20.55 0 0 1 -1.25 2c-.59.95-1.19 1.91-1.72 2.9-.29.68-.63 1.34-1 2-.42 1-.84 2.11-1.3 3.16-3.18 4.78-8.4 7.37-12.23 11.47a100 100 0 0 1 -11.52 6c-17.89 9-37.12 14.5-55.8 21.41-12.32 4.4-23 11-31 21.72-2.89 3.92-6.58 7.28-11.9 7.84-10.87-8.17-20.95-17-26.22-30.09-.79-7.44 3.23-11.08 9.86-13.23a58.3 58.3 0 0 0 29.16-20.76c9.19-9.54 18.58-18.86 29-27a149.7 149.7 0 0 0 22.25-22.06c4-8.51 11.86-13.79 18.23-20.07 10.06-9.95 16.37-21.77 21.74-34.39 5.61-12.85 9.62-26.26 14.99-39.12z" fill="#eeedf0"/><path d="m747.42 323.16c84.66 6.54 149.52 64 168.41 141.12 12.83 52.38 4.25 102-24 148.11-1.75 2.85-3.33 5.8-5 8.7-4 11.25-11.89 19.32-21.63 25.8-13.1 12.32-27.57 22.86-42.5 32.8-17 12.4-35.65 20.27-57 20.73-31.7 5.68-62.92 4.71-93.7-5.42-47.76-15.66-83.81-45.11-107.53-89.49-1.59-3-1.49-7.44-6-8.45-2.34-7.53-4.57-15.09-7-22.57-6.83-20.67-10.7-41.78-10-63.61a19.81 19.81 0 0 1 -.09-3.61l.24-14.57c2.36-13.48 4.7-26.9 9.41-39.88 8.44-23.21 20.2-44.43 36.16-63.3 5.72-6 11.74-11.65 17.46-17.63 8.85-9 19.7-15.43 30-22.57a161.74 161.74 0 0 1 29.21-15c20.77-7.56 41.89-13.43 64.24-13.41 6.48.21 13.22-1.5 19.32 2.25z" fill="#040404"/><path d="m430.59 778.82c-9.55-4.05-18.32 2-27.52 2.1-15.93.23-31.87-.07-47.8.14-4.76.06-8.87-1.59-13.13-3.14-7.66-2.79-15-6.89-23.51-6.53-6.21-17.48-7.19-34.84 1.24-52-.95-5.48 3.55-14.34 10.18-20.07 4.24-.37 5.75-3.93 8-6.7 11-13.31 19.82-28.41 34.19-40.64a62.53 62.53 0 0 0 -14.87 11.33c-2.34 2.29-4.56 5-8.46 4.58-7.89-8-13.8-17-14.51-28.61 5.5-11.81 17.3-13.73 27.83-16.06 22.18-4.89 44.16-3.89 64.71 7.41 3 .07 5.52 1.4 8.15 2.53 7.2 5 15.4 8.83 19.58 17.24 17.63 14.33 26.44 33 27.47 55.52.15 3.16.48 6.15-3.61 7-8.42 3.11-12.33 9.56-15.2 17.84-3.38 9.73-8 19.13-15.89 26.4z" fill="#3f3e38"/><path d="m275.66 849.14c.18 10.32-5.5 18.91-8.37 28.33-8.22 26.91-24.08 48.37-46.44 65.24a813.26 813.26 0 0 1 -38.43-76.85c-5.52 11.39-14.63 16.41-25.84 15.66-14.62-1-27.11-7.12-35.59-19.6-10.51-15.48-2.26-31.91 16.49-33.15 10.7-.71 20.37 2.49 32.73 11.36-9.06-28.84-20.61-55.6-24.55-84.75-22.67 12.13-46-9.71-47.73-26.64-1.06-10.12 7.12-17.55 18.11-16.53 9.92.93 17.59 6.15 25.81 14.36-1.32-31.27 0-60.8 6.73-89.85-.62-.33-.21-2.06-1.68-1.21-11.18 4.85-19.85-.06-26.76-8-7.7-8.86-11.94-19.34-7.2-31.19 3.08-7.69 11.91-10.46 20.15-6.62 13.19 6.15 19.41 16.93 20.09 31.5 2.48-.73 1.66-5 5.31-4.74.29 12-6.2 23-5.45 36.24 4.74-4.79 8.16-9.44 13.64-11.81 6.67-2.88 13.42-3.75 18.66 1.71 4.93 5.15 4 11.74 1 17.89-7.39 15.37-23.68 19.76-34.54 9.33-6.67 14.19-2.47 67.27 9.06 114.41 3.34-.48 2.58-3.75 3.8-5.66 2.13-3.33 3.83-7 6.14-10.15 7.57-10.44 18.41-15.08 26.4-11.57s11.56 12 8.76 25.48c-4.35 20.89-21.12 34.32-34.62 31.56-1.67-1.1-.53 1.14-1.32 1.1 13.57 30.81 26.83 61.78 45.11 92.65-.16-13.49-.28-25.18 3.9-36.32 3.34-8.93 7.43-17.38 14-24.42 14.84-15.9 29.79-15.05 42.63 2.24z" fill="#3d3c38"/><path d="m1142 486.72c-1.09-8 6.9-17.28 16-18 10-.8 19 1.1 26.48 9.08 11.5 12.26 26.76 10 41.29 8.5 17-1.7 33.85-4.75 50.86-6.29 31.37-2.84 47.64 12.8 59.46 44.37a62.5 62.5 0 0 1 1 42c-2.11 6.67 0 13.93-2.23 20.84a45.69 45.69 0 0 1 -4.05 9.94c-4.73-3-2.67 4.73-6.13 3.86-6.12-1.49-8.07-10.24-16.11-9.22-2.19 6.87 2.51 10.61 6.32 14.81 2.71 3 7.76 4.31 7.23 9.73-15.2 20.48-35.7 31.43-60.89 34.75-20 2.63-33.48-8.57-45.06-21.59-7.4-8.32-15.14-16.73-21.14-26.33-3.56-6.16-4.57-13.1-5.79-19.92-.76-4.26-2-8.21-4.81-11.55-3.13-10.06-2.44-20.7-2.46-30.79-.06-23.57-13.39-36.79-31.66-47.47-3.06-1.85-6.86-2.84-8.31-6.72z" fill="#020202"/><path d="m495.29 1053.18 24-10.59c20.29-7 40.42-14.62 63.49-16.52-4.83-5-9.12-8.62-12.44-13-8.27-10.86-14.94-22.53-11.24-37 2.68-10.43 7.83-13.82 18.59-13.57 3.83.09 8 1.84 11.28-1.69 3.84.69 8.38.2 9.52 5.54 3.63 7.83 11.35 12.31 15.93 19.37 3.43 11.8 9.81 23.28 2.63 36.56 6.89.95 12.62.29 18.32.47 3.43-.13 6.86 0 10.29 0a37.87 37.87 0 0 1 10.31 1.51c28-.75 54.42 7 80.84 14.8 12.62 3.72 25.74 5.56 38.18 10a12.36 12.36 0 0 0 8 .53c.61-3.87-2.34-5.72-3.89-8.14-5.7-8.86-10-18.26-11.09-28.83-1.79-16.76 11.6-26.76 27.07-20.09 10.73 4.63 18.76 12.49 24.89 22.32 2.58 4.15 4.77 8.54 7.72 12.46 2.53 10.38 1.8 20.62-1.19 30.78-.34 7-7.32 7.32-11.06 10.92-22.19-2.5-44.2-5.71-65.78-11.94-11.71-3.38-23.58-7.72-36.63-6.31-3 12.13-7.48 23.25-17.56 31.25-6.66 5.27-14.13 8.8-21.8 4.14-8.2-5-6.05-14-4.82-21.69.75-4.66 3.22-9 4.91-13.53-.22-2.78 2.21-5 1.64-8.72a94.9 94.9 0 0 0 -23.94-3.31c-14-.18-28.06 0-42.09-.08-3.94 0-8 .3-11.38-2.4-29.22-.62-56 7.72-81.19 22-9.51 4.21-19 8.64-29.17 11l-17.63 6.72c14.73 13.39 13.25 28.48 4.38 43.67-6.75 11.55-19.55 16.79-28.54 12.8-9.58-4.24-14.2-17.31-10.61-30.27.89-3.19 2.05-6.31 3.7-11.31-18.59 4.54-33.5 14.77-50.32 19.93 13.6-10.43 29.21-17.16 44.34-24.76 15.38-7.74 31.31-14.44 45.69-24.08 4.36-5.12 9.64-8.65 16.65-8.94z" fill="#070708"/><path d="m1321.65 615.62c-2.33-4.86-8.06-5.81-11.22-10-3.81-5-6.93-9.81-4.9-17.19 9.88-1.92 13.92 5.9 19.25 11.65l3.09-8.17c2.37 1.22-.18 4.7 3 5.16v33.37c10.43-4.26 19.61-8.34 29.93-7.55 7 .53 13.6 2 16.76 9 3.39 7.49.12 13.41-5.33 18.82-14.7 14.62-34 16.52-51.93 4.42-5.63 15.86-11.27 31.56-16.78 47.3-7.34 20.95-14.36 42-22 62.87-4.52 12.42-6.58 25.16-7.82 38.25-2.54 26.8 1.12 53.41 2.28 80.06.59 13.74 2.71 27.66 8.19 41.61 3.94-7.07 6.85-14.17 12-19.83 1.44-1.58 2.56-3.59 4.27-4.75 6.09-4.13 12.85-9.3 20-3.81s5.55 13 2 20.76c-7.2 15.74-18.53 25.47-37.18 27.5 1.46 35.48 8.39 70.53 7 106.05-3.22 3.75-6.14 9.5-11 1.6-4.86-9.55-2.19-19.62-1.94-29.5.1-3.62 1.11-7.2 1-10.88-.1-5-2.25-7.89-7.53-8.44-11.68-1.22-20.29-7.67-27.41-16.52-2.3-4.13-3.63-8.44-2.53-13.21 6.84-12.93 12-14.07 23.55-5.31a35 35 0 0 1 10.12 11.48c-1.69-22.07-1.83-42.6-5.36-62.88-.71-4-2.65-5.29-6.66-5.87-16.81-2.42-34.33-21.89-35.28-38.63-.68-12.21 6.16-17.13 17.38-12.5 6.54 2.7 12.24 7.35 17.42 14.16 1.29-18.8-2.38-37.55-2-56.48a198.13 198.13 0 0 1 3.15-31.86c.93-5 .34-7.46-4.69-9.9-17.91-8.68-27.87-39.92-19-57.81 4.17-8.38 12.43-10.91 20.86-6.08 9.87 5.65 14.62 15.25 19.13 26.71 12.21-42.51 35.63-79.94 40.18-123.6z" fill="#fbf6ec"/><path d="m330.67 699-10.8 20.42c-4.15.49-6.11 3.37-8 6.71a191 191 0 0 0 -24.66 79.6c-.6 7.15-3.85 11.76-10.51 14.51-4.61 1.9-8 .18-10.43-3.1s-2.2-8.18 1.31-9.8c9.5-4.4 9.24-13.15 10.05-20.93 2.33-22.36 4.41-44.75 7.68-67a34.47 34.47 0 0 1 4-12c3.37-3.41 8-5.28 10.76-9.51 4.65-7.18 3.65-14.25.27-21.44 9-14.56 18.68-28.43 34.09-37.1 4 9.85 9.43 18.9 15 27.91a3.35 3.35 0 0 1 1.3 4.71c-6.39 9.2-11.47 19.42-20.06 27.02z" fill="#c7c2b9"/><path d="m508.05 573.76c11.05 30.84-21.78 65.15-53.36 60.27a105.83 105.83 0 0 1 -16.6-9.21c-3-11.5-7-22.84-5.57-35-1.51-4.72.87-8.29 3.75-11.47 10.07-11.14 22-17.64 37.53-13.38 11.37 3.09 23.77 2.25 34.25 8.79z" fill="#f8f7ec"/><path d="m596.44 966.64c-.22-2.65-1.25-3.89-4.16-2.81-2.68 1-2.91-1.19-3.3-3 .4-6 5.23-8.14 9.48-10.78 5.53-.15 9.76-3.57 14.48-5.77 5.54-7.52 13.07-10.1 22.14-8.88a11.84 11.84 0 0 0 7.32-2.08c3.84-2.89 7.9-5 13-3.86 17.61-3.05 35.5-5 52.77-9.42 20.81-5.28 41.06-12.73 61.63-19 14.21-4.3 28.8-7.45 42.76-12.42 8.66-3.08 17.5-6.48 25-12.18 9.32-11.83 18.67-23.64 27.85-35.58 2.86-3.81 5.25-8.2 10.86-8.53 2.49 2.73 1.44 5.82.6 8.68-7.6 25.79-22.19 46-46.92 58a1063.1 1063.1 0 0 1 -110.61 33.19c-20.18 4.8-40.78 7.91-61 12.61-5.15.47-9.91 2.5-14.89 3.67-2.65.45-5.21 1.33-7.83 1.92a85.52 85.52 0 0 0 -21.86 8.22c-5.9 2.38-10.27 8.1-17.32 8.02z" fill="#020202"/><path d="m1186.66 571.22c2.63.74 4 2.16 4 5.19 0 8.88 2.77 17.14 6.1 25.24 6.31 12.84 12 25.88 16.28 39.61 4.54 14.72 2.45 28.21-5.42 41.14-8.89.45-17.91 1.89-26-3.42-3.08-4.26-1.72-8.79-.59-13.2 3.39-13.32 5.92-26.83 9.65-40.08 3.33-11.83-3.51-24-14.46-26.86-6.66-1.77-12.13-.26-15.79 5.91-5.81 9.83-7.65 20.55-6.43 31.72.9 8.19 1.38 16.42 2.48 24.59.64 4.72 1.27 9.81-2.13 14.09a10.85 10.85 0 0 1 -10.49.42 4.9 4.9 0 0 1 -2.35-4.66c1.49-13.2-5.27-23.49-12.09-33.59-4.76-7.06-6.44-14.29-4.24-22.46 7.83-10.67 15.65-21.37 25.41-30.45 3.5-.11 4.73-3 5.36-5.43 1.57-6.15 5.55-9.47 11.29-11.22a4.2 4.2 0 0 1 2.77-.73c5.48 1.44 11.36 1.65 16.65 4.19z" fill="#eeedea"/><path d="m447.48 757.22c6.42-12.93 14.17-25.17 18.57-39.13 1.68-5.32 7.59-5.16 12.52-5.11.06 7.94.77 15.93.05 23.8-2 22.22 11.86 37.12 24.18 52.4 6.42 8 14.95 14.33 22.9 21 4.36 3.66 10 3.79 15.62 4s13.18-.93 12.72 8.63c-.31 6.32-8.26 12.23-15.32 11.34a22.35 22.35 0 0 1 -13.56-7c-14.63-15.5-33.35-25.38-50.63-37.23a64.9 64.9 0 0 1 -5.53-4.72c1.13-12.16-7.3-16.73-16.49-20.71z" fill="#c7c2b9"/><path d="m1186.66 571.22c-6.24.59-12.42.91-17.75-3.33.06-5.42 4.83-8.79 6-13.76-1.07-2.93-4.61-.54-6-2.76-7.5-2.23-15.12-4.12-22.48-6.77a18 18 0 0 1 -11.92-17.16c0-12.65 2.37-25.3 4-37.91.14-1.06 2.22-1.88 3.41-2.81 11.71 4 20.8 12.18 30.08 19.69 8.4 6.78 10.78 17.12 11.54 27.7.98 12.38 2.1 24.74 3.12 37.11z" fill="#f8f7ec"/><path d="m1150.51 584.41c-6.48 11.26-14.84 21-24.16 30-17-6.38-27.81-18.66-34.22-35.25 1.55-12 .95-13-10.47-17.28-4.24-2.57-5.79-7.06-7.6-11.19-6.24-14.26-12.74-28.42-18.3-43 .62-4.91-.18-10.66 6.87-11.87 6.08 7.62 8.26 17.14 11.95 25.81 14.57 34.19 42.03 52.22 75.93 62.78z" fill="#cccbc3"/><path d="m508.05 573.76c-11.87-2.06-23.81-3.78-35.59-6.25-17.55-3.67-33.82 5.17-39.94 22.27-2.63-7.86 2.24-22.88 9.76-32.82 15.48-20.45 43.9-26.56 67.24-14.69 7.34 3.73 11.91 10.14 11 18.35-.76 6.69-3.71 13.13-12.47 13.14z" fill="#040404"/><path d="m727.05 323.29c-22.3.31-43.25 7.07-64.27 13.47-4.28-1.79-5-5.89-6.1-9.64-4.4-15-1.95-29.41 3.67-43.56 8.28-9.68 10.74-10.14 19.7-1.54 7.71 7.39 14.79 15.46 22 23.34 3.07 3.33 6.12 5.06 10.13 1.58 8.69 2.06 14.82 8.83 14.87 16.35z" fill="#4a4941"/><path d="m1121.25 297.76c-1.54-.08-2.3.12-2.71-.17-17.54-12.2-35-24.43-53-36.95 7.64-14 20.29-17.62 34.59-17.83 12.21-.18 21.09 5.56 26.33 16.4 6.86 14.13 3.35 26.84-5.21 38.55z" fill="#4e4d47"/><path d="m130.53 1025.79a263 263 0 0 0 25.56 29c3.72 1.25 6.3 3.25 5.13 7.74.25 2.68.72 5.37.7 8 0 8.31-4.81 11-13.07 8.49s-12.85-9.02-17.85-15.17c-1.73-6.39-6.63-9.81-12-12.7-5.88-3.14-8.89-11.65-6.18-17.63 3.48-7.86 10.18-10.78 17.71-7.73z" fill="#070708"/><path d="m589 389.61c-7.69 12.37-17.35 23.41-23.9 36.57-9.8 19.7-17.47 40-20.28 62-.29 2.19-.3 4.36-3.25 4.57l-2.57-38.63c2.35-11 3.7-22.07 8.15-32.61 6.8-16.1 18.62-27.41 32.64-37 4 .18 7-1.32 8.76-5 3.66 3.26 2.45 6.67.45 10.1z" fill="#4a4941"/><path d="m727.05 323.29c-2.64-7.54-9.21-11.53-14.85-16.35-3.56-10.69-11-19.28-16.25-29-4.94-9.11-3.39-15.31 4.17-21.16 2.69.15 5.46-.47 8 .75a3.66 3.66 0 0 1 2.51 3c10.19 19 14.68 41.29 32.33 56 2.06 1.73 4.24 3.58 4.4 6.65z" fill="#3f3e38"/><path d="m397.7 391.24c-13.77-11.2-13.31-28.81-5.43-37.51 8.25-9.11 26.94-8.75 39 .82z" fill="#717068"/><path d="m230.42 344.56c-8.12 11.88-18.37 21.31-27.36 31.88-11.34-11.27-13.32-23.69-5.45-32.39 8.13-9 20.57-11.55 32.81.51z" fill="#fbf6ec"/><path d="m1062.63 495.84c-4.05 2.77-4.27 7.46-5.75 11.51 1.14 2.63.45 4.44-2.36 5.32-.86-.28-2.26-.32-2.5-.87-8-18.09 3-55.59 19.63-67.25 7.53 1.87 5.79 7.76 4.6 12.39-2.09 8.11-4.5 16.21-9.06 23.48-2.93 4.65-4.84 9.75-4.56 15.42z" fill="#040404"/><path d="m710.68 260.47-1.75-1.28c-1.71-1.37-4.86-1.69-3.76-5.12 17-2.78 32.58 3.32 48.3 8.17 6 1.85 11.83 4.25 17.74 6.41-1.82 8-9.19 6.22-14 6.75-13.63 1.49-26.38-2.19-37.83-10-2.77-1.86-5.8-3.3-8.7-4.93z" fill="#020202"/><path d="m579.82 384.55c-6.5 6.67-13.15 13.22-19.47 20.06-10.72 11.6-15.23 25.94-17.24 41.18-.44 3.41-.2 6.77-4.08 8.33-.8-24.78.48-49.18 19.8-67.82 5.59-5.39 13.87-2.04 20.99-1.75z" fill="#403f39"/><path d="m635.08 351.14-29.44 22c-6.73-2.22-3.91-7.71-3.79-11.95.24-8.14 6.53-14 9-21.29 5.07-5.47 11.42-7.47 18.73-6.91 3.88 5.45 7.9 10.83 5.5 18.15z" fill="#4a4941"/><path d="m635.08 351.14c-.57-6.42-5.41-11.55-5.52-18.11 6.09.69 11 4.5 17.88 6.76.9-19.67-2.09-40.22 12.92-56.23 1.25 5.24-.7 10.38-1.81 15.15-3.14 13.39-.81 25.77 4.23 38z" fill="#403f38"/><path d="m1356.71 751.07c11.56 10.94 13.87 19.5 8.11 27-5.41 7-15.83 8.69-24.61 3.65 5.37-9.98 10.79-19.97 16.5-30.65z" fill="#4e4d47"/><path d="m610.83 339.94c3.83 3.67-.25 5.93-1.67 8.48-4.36 7.84-8 15.7-3.52 24.76a106.84 106.84 0 0 1 -16.64 16.44c-.14-3.35-.29-6.7-.43-10 1.1-16.79 11.43-28.36 22.26-39.68z" fill="#3f3e38"/><path d="m961.39 556.88c2.35.22 5.35-.86 6.64 1.89 6.76 14.3 20.29 18.47 35.31 22.84-8.44 7.24-16.14 2.43-23.37 1.13-8.43-1.53-12.9-9.91-20.55-13q.99-6.45 1.97-12.86z" fill="#403f38"/><path d="m240.37 551a116.47 116.47 0 0 1 15.54 20.77c-6.48 7.17-13.53 7.68-19.45 1.58-7.25-7.45-6.2-14.3 3.91-22.35z" fill="#32312b"/><path d="m198.6 964.77c-8.51 10.26-17 20.53-29 27 1.77-17.34 8.72-23.77 29-27z" fill="#4a4941"/><path d="m857.39 305.16c-10 .51-11.51 10.65-19.07 16.8-.8-11.94 3.59-23.44-2.48-33.68 7.87 4.72 16.16 8.93 21.55 16.88z" fill="#3f3e38"/><path d="m300.35 676.41c7.89 3.73 5.94 11 4.5 16.54-1.93 7.36-6.49 13.77-15.53 14.41a82.67 82.67 0 0 1 11.03-30.95z" fill="#a9a8a0"/><path d="m966.28 534.78c1.52 0 2.46-4.56 4.54-.38 4.19 8.44 11.08 13.46 20.36 15.2 3.21.61 4.67 2.4 4.2 6.17-12.14-.13-21.47-7-31.47-12 1.16-2.88-.11-6.43 2.37-8.99z" fill="#403f38"/><path d="m452.51 764.49c14.12.73 21.33 9.78 16.49 20.7-8.67-4.38-13-12.19-16.49-20.7z" fill="#a9a8a0"/><path d="m438.09 624.82c6.85.69 12.65 3.28 16.6 9.21h-.05c-7.06 5.21-14.18 2.3-21.29.14-2.93.33-4.93-1-6.37-3.47 2.57-4.13 7.72-3.34 11.11-5.88z" fill="#cccbc3"/><path d="m433.35 634.13 21.29-.14q0 8.22.07 16.44c-6.16-6.69-14.33-10.76-21.36-16.3z" fill="#eeedea"/><path d="m1169 551.37c3.24.16 6.12-3.14 10.18-.64a56.14 56.14 0 0 1 -10.26 17.16c-.58 0-1.17-.08-1.75-.13z" fill="#cccbc3"/><path d="m705.17 254.07 3.76 5.12c-3.29.44-6-1-8.81-2.44 1.34-1.53 2.74-2.97 5.05-2.68z" fill="#4a4941"/><path d="m541.34 507.28c1.93 1.15 1.88 2.36.09 3.61-1.43-1.17-1.52-2.37-.09-3.61z" fill="#4a4941"/><path d="m1485.6 1098.73 2.51.81a5.88 5.88 0 0 1 -.52.68c-.72-.42-1.41-.9-2.1-1.37z" fill="#c5c5c5"/><path d="m977.47 1034.55c4.48-.77 8.64.78 12.88 1.77 1.79 3.6 6.76 4.85 7.11 9.52-1.62 2.67 1.12 3.57 2.12 5.18 11.47 1.38 22.7-3 35.72-1.52-47.11 20.45-96.69 15-144.26 22.39 7.21 20.88-12.64 33.31-29.7 35.74-4.85.69-6-5.87-9.54-9-6 9.68-10.93 19.85-20 27.07 3.71-19 13.7-36 15.45-56.6h-31.78c-.14-3 .62-5.12 4.23-5.3 3.08-.15 4.71-2.08 5-5.14 1.61-2.22 3.83-2.19 6.17-1.66 3.71 2.64 7.26 6.4 12 1.74 3.44-8.51-2.41-24.82-10.83-30-2.53-1.56-5.82-2.06-7.23-5.21-.45-5.39-3.61-11.45 3.72-14.88 7.64 1.3 11.33 8.84 18.14 11.47 9.94 8.32 12.51 20.17 15.15 31.92.65 2.91.34 6 1.33 8.91 4.36 9.86 4.36 9.86-2.27 23 6-5.11 7.92-10.45 7.39-16.69-.24-2.8-1-5.5 2.45-6.88 19.86-2.59 39.6-6.65 59.71-4.26 1.12.2-.46.41.73.12.43-.1.63-.27.6-.5s-.24-.28-.74-.31c-6-3.9-11-8.64-12.37-15.87-.86-4.44-.95-9 3.72-12 9.32-4.92 17.56-1.23 25.71 3.2 5.44 3.09 10.08 6.78 10.41 13.72-.22 2.21-1 4.52 1.15 6.31 4.91 2.51 10 1.45 15.1 1.34-.19-6.36-8.47-13.54 2.73-17.58z" fill="#040404"/><path d="m1246.69 986.74c9.12 7.4 17.45 15.78 30.92 15.06 5.52-.29 5.86 5.77 5.31 9.93-1.78 13.65-1.86 27.33-1.7 41-6.94 0-13.87.06-20.8 0-3 0-6.32.52-7-3.8 2.82-8 4.93-16-.1-24-4.66-12.3-9.14-24.64-6.63-38.19z" fill="#fcfcfc"/><path d="m278 1073.07c-.79-24.82-9.15-47.19-22.13-68.07-.4-.34-.52-.65-.34-.93s.33-.39.49-.39c2.76-3.74 6.82-5.24 11-6.48 11.59 22.25 23.8 44.2 30 68.83a34.38 34.38 0 0 1 1.3 8.89c-6.8-.82-13.88 1.87-20.32-1.85z" fill="#3d3c38"/><path d="m598 1036.51c27.87.64 56-2.8 84.33 4.12-2.9 3.77-4.69 7.84-8.56 10.39h-74c-2.93-4.85-.65-9.89-1.77-14.51z" fill="#4a4941"/><path d="m487.66 1069.46c8.8-6.12 18.34-10.28 29.17-11 10.64 4.71 16.94 15.38 28.16 19.2-2.13 8.5-7.16 12-14.36 9.74a300.85 300.85 0 0 0 -35.16-8.84c-4.87-.93-8.72-3.08-7.81-9.1z" fill="#11080b"/><path d="m1255.72 1025.14c2.86 8.29 7 16.69-2.26 23.84-4.7 3.67-9.15 7.73-14.19 10.88-3.54 2.21-8.2 3.52-11.84.23-3.8-3.44-.49-7.15.75-10.66 4-5.41 8.91-10.19 11.52-16.56 4.3-4.7 8.44-9.79 16.02-7.73z" fill="#070708"/><path d="m1117.33 1032.67c-.1 4.86 3.05 9.58.65 14.54-13.52 3.81-27 3-40.57 0-3.61-7.68 2-10.43 7.32-12.83 3-1.33 6.43-1.53 9.67-2.24 7.71-3.07 15.39-4.14 22.93.53z" fill="#020202"/><path d="m1011.57 1063.41c9.55-2.18 18.08-13.36 30-3.29-10.3 4.11-20.7-.12-30 3.29z" fill="#19191a"/><path d="m826.24 1131.61c.71-3.16 1.75-6 6-7 1.08 4.73-.51 7.49-4.55 9.08a1.51 1.51 0 0 1 -1.45-2.08z" fill="#040404"/><path d="m999.58 1051c-3.43-.61-4.12-2.34-2.13-5.18 1.77 1.32 1.63 3.39 2.13 5.18z" fill="#11080b"/><path d="m827.66 1133.65c-.89 1-1.69 3.26-3.22 1.71-1.84-1.87.62-2.74 1.8-3.75z" fill="#040404"/><path d="m635.08 935.42c-7.67 2.26-15.29 4.61-22.14 8.88-2.06-70.5-1.91-141-1.81-211.54 0-11.6 4.54-19.36 11.19-19.22s10.9 7.76 10.9 19.51q0 55 0 110c.03 30.81-.64 61.62 1.86 92.37z" fill="#403f38"/><path d="m798 756.52c-2.16-15.4 29.23-64.55 58.23-88.39 26-21.39 56.6-33 90-36l1.23 2.83c-10.08 4.6-19.9 9.89-30.29 13.63-18.49 6.66-34.16 17.26-48.55 30.4-22.41 20.57-40.4 44.81-58.62 68.91-3 3.97-5.91 7.71-12 8.62z" fill="#403f38"/><path d="m765.71 700.42c19.94-4.32 38.63-12.08 57-20.73-5.85 9.87-10.84 20.4-17.76 29.45-9.4 12.31-18.87 24.72-30.71 35-3.58 3.1-7.15 5.32-12.09 5.7-6.91.53-11.86-1.69-15-7.93s-.68-11.31 3-16c6.28-7.83 10.94-16.63 15.56-25.49z" fill="#403f38"/><path d="m655.36 929.48c-4.12 2-8.16 4.16-13 3.86q0-74.26.1-148.54c0-4.19-2-10.48 5-10.8 7.11-.34 7.76 5.85 7.79 11.09.15 26.59.07 53.18.08 79.78q-.01 32.3.03 64.61z" fill="#403f38"/><path d="m865.21 646.89 21.63-25.8c7.51.8 14.51-1.43 21.51-3.59a119 119 0 0 1 39.75-4.88c-14.17 5.36-28.2 11-42.31 16.25-12.12 4.49-22.85 11.33-34.48 16.52a14.59 14.59 0 0 1 -6.1 1.5z" fill="#403f38"/><path d="m865.41 840.92c-6.26 14.21-16 25.72-27.85 35.58 3.18-16.62 15.66-25.99 27.85-35.58z" fill="#eeedf0"/><path d="m356.76 872.6c-9.08 14.1-17.76 28.48-27.35 42.23-13.77 19.74-24.66 41.42-40.49 59.74-1.94 2.24-3.57 5.19-7.29 4.87q11.43-22.7 22.86-45.41c4.08-8.13 8.16-16.26 12.11-24.45 7.62-15.78 20-27.34 33.72-37.6 1.46-1.09 4.95-5.53 6.44.62z" fill="#c5c5c5"/><path d="m256 1003.68-.15 1.32c-.21 12.71-8.21 21.25-21.82 24-12.13 2.45-23.56-.23-34.95-3.8 1.37-2.86 4.21-3 6.78-3.77a283.15 283.15 0 0 0 46.63-17.7c.92-.46 2.3-.06 3.51-.05z" fill="#403f39"/><path d="m281.67 979.36a3.08 3.08 0 0 1 -1.89 3.77c-.07-1.61.31-2.99 1.89-3.77z" fill="#c5c5c5"/><path d="m279.85 983-2 2.21z" fill="#c5c5c5"/><path d="m737.08 342.07c78-5.36 174.65 68.31 165.37 181.79-5.81 71-69.39 170.17-192.38 159.91-73.22-6.11-152.26-72.6-149.35-170.36 3.2-107.24 93.34-176.3 176.36-171.34z" fill="#e1ddeb"/><path d="m330.67 699c3.8-8.76 10.05-16 15.44-23.69 1.75-2.52 4-4.64 3.3-8.09 8.74-6.67 15.79-15.64 26.46-19.89 1.82 3.2-.61 4.41-2 5.65-14.27 12.95-24.55 29.16-36.34 44.12-1.84 2.36-2.94 7.13-6.86 1.9z" fill="#3d3c38"/><path d="m146.9 635.51 1.63-1v2.25z" fill="#fefefe"/><path d="m170 815 .24-2.31 1.08 1.21a7.71 7.71 0 0 1 -1.32 1.1z" fill="#fefefe"/><path d="m1207.5 681.94c0-1.22-.33-2.65.18-3.64 12.37-24.35-.25-45.43-8.82-67-1.26-3.17-2.69-6.15-2.13-9.65 10.56 11.2 18.67 24.31 30 35.07 15.71 14.83 33 13.78 50.93 8.52 17.57-5.14 31.61-16.32 43.94-29.62 4.44 10.26-1.12 19.46-3.35 28.9-6.42 27.15-19.92 51.74-28.92 78-2.54 7.41-4 15.2-8.66 23.6-2.92-10.13-6-18.8-12.38-25.76-4.47-4.85-9.58-9.44-16.32-8-6.45 1.39-8.58 6.93-10.12 13.62-4 17.35 2.75 31 12.67 44 3.6 4.71 9.17 5.6 15.73 6.13-10.48 35-3.41 69.8-3 105.21-5.72-5.35-9.43-12.25-16.36-15.82-3-1.55-5.84-3.25-9.14-4.11-6.58-1.7-9.86.83-10.37 7.53-1.49 19.67 20 41.62 40.13 40.36 6.57 24.79 5.07 50.45 8.23 77.19-7-4.83-9-12-15.1-15.84-11.69-7.45-11.59-8-20.12 3.26-4.25-1.43-4.74-5.36-5.59-8.83-6.84-27.93-12.72-56.08-19.25-84.09-3.38-14.48.78-29.23 2.52-43.72 4.07-33.77 2.66-66.89-6.27-99.93-4.12-15.22-9.87-30.34-9.73-46.55.13-3.05-.93-6.14 1.3-8.83z" fill="#fcfcfc"/><path d="m1151.51 478.77c8-4.6 12.73-.74 17.59 1 11.9 4.37 21.37 13 32.21 19.22 11.52 6.65 23.53 9.47 36.54 10.14 19.78 1 39.53 2.85 58.76 7.86 9 2.33 17.37 6.65 23.43 13.7 14.37 16.72 4.38 42.82-18.67 49.75-23.22 7-51.7-2.8-66.73-22.51a71.47 71.47 0 0 0 -12.86-13c-11.75-9.09-20.6-20.59-29.14-32.49-10.3-14.34-20.75-28.59-41.13-33.67z" fill="#232322"/><path d="m828.53 1008.65c-4.09 5.17-1.13 11.19-2 16.74.57.9.32 1.53-.63 1.94-4.18-.77-4.24-4.83-5.82-7.55-6.62-11.37-14.94-20.93-27.62-25.64-13.36-5-23.82 3.84-22.1 18 1.83 15.14 9.36 27.41 19.7 39-6.59 3.27-12.17 1.54-18-.08-25.8-7.13-51.54-14.54-77.57-20.7-12.67-3-25.92-3.82-39.09-3.53a12.74 12.74 0 0 1 -2.61-9.51c2.79-21 .88-42.18 1.51-63.26.11-4-.18-8 2.93-11.23 19.32-5.46 39.3-7.89 58.76-12.51a1035.73 1035.73 0 0 0 106-31.18c2.81-1 5.52-2.83 8.79-2.09q-1.54 54-3 108a13.49 13.49 0 0 0 .75 3.6z" fill="#4a4941"/><path d="m613 957.23c6.46-5.24 14.3-7.07 22.16-8.82 2.88 2.91 2.83 6.68 2.85 10.33q.19 28 0 56c0 3.65 0 7.41-2.85 10.33h-22.41c10.51-14 1.63-26.48 0-39.3-3.87-9.53-4.54-19.05.25-28.54z" fill="#403f38"/><path d="m657.2 942.88c-.3 28 .86 56-1.83 84l-9.29-1.69c-2.79-2.25-3.93-5.26-4.48-8.73-3.34-21-1.85-42.11-1.81-63.19a9.44 9.44 0 0 1 2.59-6.7c4.96-1.14 9.41-4.35 14.82-3.69z" fill="#403f38"/><path d="m642.38 946.57c0 16.67-.38 33.36.21 50 .33 9.56 2.27 19.07 3.49 28.61l-11-.13v-76.64z" fill="#4a4941"/><path d="m825.89 1027.33.63-1.94c7.44-.7 12.17 3.4 14.7 9.56 2.81 6.85 4.6 14.12 6.7 21.25 1.53 5.16-2.18 3.45-4.62 3.35-3.89 1.42-7.69 1.71-11.27-.86h-7.36c3.08-10.37 2.25-20.86 1.22-31.36z" fill="#c4c4c4"/><path d="m613 957.23q-.09 14.26-.16 28.54c-6-5.91-13.27-10.73-16.35-19.13 5.41-3.21 10.27-7.47 16.51-9.41z" fill="#4a4941"/><g fill="#32312b"><path d="m453.13 1126.59c2.35-13.74 3.65-27.46 5-41.21a61 61 0 0 1 -5 41.21z"/><path d="m800.88 1032.53c7.89 4.56 9.6 12.22 10.07 20.52-6.86-5-8.31-12.8-10.32-20.32z"/><path d="m571.13 975.56c5.56 4.84 11.43 9.42 12 18.59l-14.27-16.6z"/><path d="m598.22 1019.84a87.24 87.24 0 0 1 -12-22.68c8.47 5.21 10.58 13.74 12 22.6z"/><path d="m690.21 1065.66q4.11-9.84 8.21-19.67l2.51 1.15c-2.67 6.61-1.58 15-10.53 18.69z"/><path d="m781.45 1006.37c5 .74 7.52 4.16 9.07 8.68-4.7-.88-7.33-4.26-9.07-8.68z"/><path d="m686.2 1072.63c-.62 5.51-3.23 6.93-7.08 8.15.11-4.93 3.18-5.9 7.08-8.15z"/><path d="m795.17 1023.53c-1.59-1.17-4-1.93-2.42-4.8 3.47.23 2.18 2.9 2.54 4.67z"/><path d="m690.4 1065.83c-.46 1.71.89 4.42-2.56 4.62-1.54-2.83.81-3.62 2.37-4.79z"/><path d="m795.29 1023.4c2.45 0 3.53 1.41 3.64 3.72l-.08.07c-2.46 0-3.54-1.36-3.68-3.66z"/><path d="m798.93 1027.12c2.14 1.28 1.9 3.4 2 5.41l-.24.2c-2-1.38-1.87-3.47-1.79-5.54z"/><path d="m598.29 1019.76.75.81-.82-.74z"/></g><path d="m1207.5 681.94c1.58 26.12 10.41 50.77 16 76.06 5.08 23.1 6.16 46.38 2.26 69-5.7 33.12-2.64 64.76 6.55 96.55 4.8 16.56 6.55 33.93 12.34 50.28-1.11 4.58 1.87 8.51 2.07 12.88 2.22 13 4.26 26 9 38.4-6.24.72-10.21 6.12-16 7.73-14-38.08-27.07-76.49-44-113.43-10-21.86-18.68-44.2-24.92-67.44-.69-2.55-.32-5.59-3.68-6.62a4.16 4.16 0 0 1 -1.4-2.31c-2.19-28.56-12.16-55.52-17.19-83.49.37-7.72 5.06-13.68 8.66-19.94a166 166 0 0 0 19.26-51.17c.71-3.62-.65-9 5.29-10.25 8.44 2.22 17.42.81 25.76 3.75z" fill="#403f39"/><path d="m1181.73 678.22c-2.08 8.15-4.09 16.31-6.23 24.44-4.44 16.85-12.43 32.11-21.17 47-1.65 2.81-2.61 6-3.88 9-1.59 9.69-7.4 17.82-10 27.21-1.7 6.06-9.22 7.91-14.45 4.82s-6.57-9.18-1.41-14.87c10.83-12 15.32-26.81 20.65-41.35 3.32-9.12 6-18.44 8.6-27.79 3-10.65-.15-21 .39-31.53.17-13.16-2-26.13-3.07-39.19-.9-11 .34-22 6.32-31.79 6.68-10.92 22.13-12.48 30-2.3 5.55 7.22 9.11 15.38 5.82 25.59a274.78 274.78 0 0 0 -11.57 50.76z" fill="#a9a8a0"/><path d="m1154.2 675.23c7 16.21 2.49 31.93-2.2 47.57-1.26 4.22-3.42 8.18-5.17 12.26-4.28 0-4.19-3.79-5.18-6.38-5-13.21-7.29-26.77-4.52-40.86a22.89 22.89 0 0 1 6-13.42z" fill="#403f39"/><path d="m1093 579.29a44.57 44.57 0 0 1 -10.79-18.7c12.71 1.83 16.09 7.68 10.79 18.7z" fill="#c7c2b9"/><path d="m1137.13 687.82c3.18 6.51.53 13.53 1.87 20.42a177.57 177.57 0 0 0 7.83 26.82c-4.43 13.79-7.8 28-18.19 39.13-2.79 3-6.7 6.06-5 11 1.19 3.41 4.19 5.11 7.95 5.07 4.72-.05 8-2.86 8.22-7 .57-9.61 5.77-16.89 10.65-24.46 5.4 22.58 11.07 45.11 16 67.79 1.32 6 .47 12.56.62 18.85-2.1 17.65-10.17 33.57-14.57 50.55-10.06 38.79-19.92 77.64-29.88 116.46-1.74 6.77-3.56 13.52-5.33 20.28l-22.93-.53c5.78-7.66 4.9-17 5.59-25.6 1.93-24.33 2.76-48.75 4.45-73.1 2.3-32.87 4.83-65.72 8.74-98.45 1.91-16.06 2-32.35 4.27-48.34 4.83-33.32 8.11-66.95 19.71-98.89z" fill="#32312b"/><path d="m934.85 1058.28c-22.19-1.84-44 2.93-66 4.07a5.84 5.84 0 0 1 -7.38 0c-3.32-10.33-2.73-21.76-9.08-31.26-2.27-3.41-3.84-7.28-5.73-10.93 6-4.72 13-2.43 19.15-1.84 18 1.73 35.92 4.69 53.85 7.28 1 .14 1.8 1.32 2.7 2-4.67 12.35-.93 20.62 12.35 27.27 1.53 1.07 1.48 2.21.14 3.41z" fill="#c4c4c4"/><path d="m957.09 1045.56c.36-7-6-9.85-9-14.78a124 124 0 0 1 29.39 3.77c-8.88 8.09-1.52 13.22 5.5 20.06-9.36 0-16.71.1-24.06-.07-2.08 0-1.38-2.22-1.74-3.53a47.2 47.2 0 0 0 -.09-5.45z" fill="#c4c4c4"/><path d="m861.48 1062.31h7.38c5.52 7.44.72 14-2.27 20.31-2.08 4.41-6.15 3.9-10.92 1.64 5.33-6.68 13.01-12.69 5.81-21.95z" fill="#070708"/><path d="m881.3 1073.54c1.72 9.52-5.62 20.33-19.12 27.61 5.96-9.48 16.71-15.72 19.12-27.61z" fill="#32312b"/><path d="m832 1058.69c3.8-.33 7.64-1.1 11.27.86-4.27 6.29-8.07 7.09-11.27-.86z" fill="#070708"/><path d="m947 1057.38-6.14-10.33c5.74 1.12 8.85 3.95 6.14 10.33z" fill="#232322"/><path d="m937.25 1042c-5.41-1.74-7.78-4.1-9.65-9.35 5.56 1.53 7.82 4 9.65 9.35z" fill="#232322"/><path d="m957.09 1045.56c1.86 1.79 2 3.61.08 5.45q-3.46-2.67-.08-5.45z" fill="#070708"/><path d="m984.71 1043.79c-1.13.51-1.89 1.17-2.4 1-.67-.21-1.13-1.06-1.68-1.64.63-.36 1.29-1 1.87-1s1.2.85 2.21 1.64z" fill="#11080b"/><path d="m934.85 1058.28-.13-3.43c1.43.16 3.37-.11 3.08 2.08-.08.57-1.92.91-2.95 1.35z" fill="#070708"/><path d="m988 1050.32c.08-.23.15-.65.24-.65a2.46 2.46 0 0 1 .79.24c-.09.23-.16.64-.25.65a2.34 2.34 0 0 1 -.78-.24z" fill="#11080b"/><path d="m715.52 506.59c3.9-18.29 11.44-33.66 20.27-50.44 7.49 19.29 14.84 36.74 15.54 56.21.23 6.49-1.9 11.67-7.36 14.53-6.78 3.54-15 4.76-21-.23-20.24-16.9-43.68-28.85-65.43-43.39-20.78-13.88-42.14-26.91-63.23-40.34-1.76-1.11-3.39-2.43-5.24-3.77l5.09-8.71z" fill="#060606"/><path d="m738.14 676c-8.55 0-16.36 2.14-24.24-2.71 4.17-10.79 6.27-22 13.11-31.61 4.89 11.14 10.61 21.51 11.13 34.32z" fill="#717068"/><path d="m859.21 507.56a129.63 129.63 0 0 1 33.12-12c1.27 1.38 2 1.78 2 2.26 2.72 22.83 6.28 26.49-19.73 16-4.16-1.64-8.32-3.37-15.39-6.26z" fill="#717068"/><path d="m744.54 358.36c-.2 5.7-7.11 12.88-12.32 12.8-5.36-.07-12.84-9-12.43-14.82s8.11-13.15 13.43-12.66c5.48.5 11.54 8.32 11.32 14.68z" fill="#070708"/><path d="m599.5 504.7c-10.42 4.45-19.37 11.75-31.38 12.06-2.39-7.26-.77-14.14-1.13-22.23 11.8 1.02 22.01 5.26 32.51 10.17z" fill="#717068"/><path d="m756.82 396.86c5.07 2.62 11.37-2.18 15.61 4.76-7.31 1.82-13.87.61-20.94.92v-28.86c6.37-1.72 13.14-.19 20.27-.87-1.09 10.12-17.26-1.78-15.28 11.43 5.13 2.16 10.7-.75 16.43 3.45-5.91 3.42-10.9 1.3-15.5 2.46-1.95 2.35-1.41 4.85-.59 6.71z" fill="#11080b"/><path d="m720.79 372.59c7.94 4.24 6.56 14.08 11.23 20.73 5.72-5.55 3.89-16.56 11.43-20.93l2.55 1.61c-3.22 8.39-6.5 16.76-9.62 25.19-.85 2.29-2 3.48-4.61 3.48-3 0-3.18-2.46-3.9-4.28-3.2-8.11-6.26-16.26-9.38-24.4z" fill="#19191a"/><path d="m692.43 396.86c4.39 2 10-1.42 14.21 5h-19.64v-28.2c3.37.77 3.37.77 5.43 23.2z" fill="#19191a"/><path d="m710.79 402.13v-28.71c3.64-1 5.05.33 4.93 3.49-.32 8.65.81 17.52-.71 26z" fill="#19191a"/></g></svg>