<svg viewBox="0 0 1498.53 1177.4" xmlns="http://www.w3.org/2000/svg"><g transform="translate(0 -122.43)"><path d="m1498.53 559.4c-5.47 23.55-17.59 41.71-41.32 50.21-9.27 3.32-18.55 6.9-28.12 9-27.3 6.13-50 19.39-69.62 39.43-23.56 24.07-34.25 53.46-39.09 85.62-3.59 23.84-2.56 47.79-.22 71.76 2.82 28.86 1.43 57.88 2.08 86.82.92 40.74-8.25 79.68-18.15 118.8-9 35.67-25.22 68.06-41.7 100.44-7.16 14.06-19 24.85-28.76 37.07-10.43 13-23.08 24-34.07 36.47-15.74 4.5-29.84-3.74-31.65-19.13-1.84-15.62-.55-31.35-.7-47 1-22.57 7.93-43.6 17.13-64a46.06 46.06 0 0 1 24.48-24.25c24.33-10.3 37.34-28.47 38.85-54.89.33-5.91 3.37-11.22 4.54-17 1.24-6.14.74-11.73-5.13-15.58s-11.84-5-18.27-1.23c-5.4 3.19-9.84 7.47-14.15 11.9a78.31 78.31 0 0 1 -15 12.4c-2.49 1.52-5.26 2.47-7.64 0s-1.88-5.21-.46-7.77c3.1-5.59 8.14-9.15 13.46-12.43 13.43-8.24 27.48-15.67 39-26.61 23.21-22.07 26.24-42.62 10.89-70.71-3.41-6.24-7.57-12-11.34-18-4.28-6.85-9.87-7.56-16.62-3.06a28.66 28.66 0 0 0 -6.64 6.41c-3 3.9-5.56 8.18-8.45 12.18-3.18 4.4-5.55 12.66-12.77 8.61-6.76-3.8-1.93-10.52 0-15.8 3.33-9.31 11-15.57 16.9-23 6.33-7.95 13.83-14.95 18.31-24.36 5-10.49 4.14-19.9-2.56-29.6-7.54-10.92-18-18.66-27.73-27.13-5.86-5.09-10.28-3.64-13.87 3.7-3.94 8-7 16.49-11.5 24.28-1.67 2.9-3.45 6.89-7.47 5.53-4.57-1.55-3.58-6.11-2.61-9.59 3.26-11.61 9.49-22.06 13.11-33.63 3.42-11 2.3-20.39-3.79-30-5.47-8.59-10.33-17.57-15.93-26.1-3.54-5.38-7.25-5.59-10.47.12-15.45 27.39-34.19 53-44.48 83.19-1 2.94-1.4 6-2.26 9-1.91 6.53.19 10.9 5.67 15 12.22 9.25 21.39 21.29 28.71 34.7 1.42 2.6 3.62 5.88.91 8.52-3.13 3.06-6.36.26-9.21-1.37-7.81-4.48-14.6-10.39-21.62-16-2.13-1.69-3.87-4-8.28-4.35-1.46 19-11.87 35.91-12.19 55.28-.17 10.46 3.81 18.35 13.28 23.63 11.32 6.32 22.24 13.15 31.51 22.62 7.69 7.86 11.72 17.26 15.23 27.18a16.92 16.92 0 0 1 .85 7.31c-.83 8.6-7.32 11.88-14.33 6.84a66.82 66.82 0 0 1 -16.08-16.57c-3.85-5.62-8.21-10.84-12.45-16.15a31.23 31.23 0 0 0 -14.13-10.17c-11.06-3.88-14.55-1-13.55 10.59 2.07 24 6.86 47.4 22 66.77 10.66 13.58 24.43 24.41 37.88 35.27 18.26 14.77 26.53 33.94 27.9 57.16a474.48 474.48 0 0 1 0 50.74q.33 24 0 48c-.13 9.78-1.89 11-11.66 10.48-10.18-.59-20.11-2.92-30.22-4.11a60.54 60.54 0 0 0 -28.15 3.12c-4.94 1.78-10.06 3.16-15.39 2.28-20.06-3.35-40.35-5.11-60.34-8.86-7.75-.47-15.56-.64-22.7-4.35-2.2-3-2.13-6.47-2.06-10 2.61-22.36 7.78-44.34 9.81-66.83 2.06-22.74 3.8-45.54 4.41-68.3.54-20.35 3.62-40.71 2-61-3.1-39.18-.77-78.38-1.65-117.55-.22-9.66 1.9-18.91 3.75-28.34 5.9-30.14 8.47-60.48 1.4-90.9-1.88-8.12-4.39-16.08-6.07-24.24-.58-6.68 4.5-11.48 5.83-17.54 5.25-16 2.75-32.38 2-48.63-.89-18.59-6.49-36.44-9.13-54.77-1.28-8.88-1.57-17.82-2.49-26.72-1-9.91 4.36-16.16 14-18.64 15.37-4 27.93-13.21 40-22.74 7.5-5.93 14.75-12.2 22.57-17.74s13.75-12.33 17.34-21.19a2.19 2.19 0 0 1 2.71-.66c-.45 6.05 3.29 4.51 6.46 3.4 11.05-3.86 22.19-7.5 33-11.88 48.11-19.46 97.7-34.52 149.11-40.67 45.5-5.44 91.66-7.8 135.42 12.11 14.79 6.73 27.35 16.47 39.63 26.7 4 3.34 7.67 7 11.87 10.23 13.69 10.43 16.8 25.72 18.31 41.67.57 6-1.89 12.28 1.81 17.94z" fill="#fefce2"/><path d="m91 963.4c-6.32-5.33-12.62-10.68-19-16-17.65-14.73-24.12-37-37.08-54.83-18.21-25.07-25.11-54.32-32.49-83.57-1.5-5.91 1.74-12.37-2.43-17.85v-11.15c3.26-9.8 1.93-20.49 6.6-30.11 10.27-21.16 22.89-40.43 41-55.89 16.8-14.38 33.29-29.12 49.85-43.76 2.28-2 4.79-4 4.8-7.55 2.71-.84 4.88.57 6.88 1.94 15.61 10.62 32.73 13.57 51.24 10.84 7.3-1.07 14.75-.73 22.16-1.57 25.68-2.9 41.17-17.9 50.3-40.9 2.17-5.46 3.77-11.12 5.68-16.67.85-2.46 1.07-5.72 4.9-5.77 3.07 2.22 3.63 5.58 4.06 9 3.41 26.8 13.93 51.15 26.79 74.47 7.77 14.08 14.9 28.75 12.7 44.61-2.36 17.1-1 34.53-7.64 51.46-14.84 37.94-25.11 77.41-35.42 116.81-3.28 12.55-5.74 25.24-8.11 38-4.1 22.07 1.53 40.26 19.4 54.31a12.92 12.92 0 0 1 4.14 4.92 15.69 15.69 0 0 1 -3 13.54c-5.54 2.8-11.28 2.18-17.05.94-4.2-1.83-4.91-6-6.52-9.63-8.21-18.21-24-21.21-38.55-7.34a63.16 63.16 0 0 0 -9.75 12.28c-1.8 2.87-3.51 5.87-7.19 6.8-10.27.57-20.35-.26-30-4-8.23-15-17.67-29.56-20.25-47a4.27 4.27 0 0 1 1.8-2.13q34.69-10.15 32.15-41.76c-.92-11.66-8.53-16.24-19.4-11.58-7.81 3.34-12.43 9.88-16.6 16.87-1.82 3-2.45 7.16-6.84 8-12.49-15.58-20.23-102.74-10.23-116.73 4.46-.24 7.26 4.08 11.71 4.48 10.83 1 24.47-11.84 23.74-22.71-.5-7.39-6.79-11.1-14.85-9.32-7.27 1.61-11.52 7.92-18.77 11.64-4.51-11 1.65-20.19 2.64-30.16-4.62-.07-4.64-3.91-5.23-7.42-1.58-9.22-5.69-17-13.73-22.14-5.48-3.51-11.56-5.34-17.38-1.21-6 4.22-7 10.54-5.46 17.4 3.91 16.94 14 24.62 32.67 24.94a4 4 0 0 1 2.13 1.92c3.07 9.74-1.47 18.87-2.57 28.22-1.91 16.3-1.68 32.6-1.79 48.93 0 4.25.5 8.67-2.3 12.42-4.45 1.11-7-2.14-9.86-4.18-4.87-3.44-10-6.21-16-6.76-10.77-1-17.66 7.22-14.87 17.59 4.22 16.07 20.02 26.67 36.66 23.57 7.55-1.4 10.33 1.44 11.5 7.9 4 21.94 11.61 42.78 19.14 63.66 1.51 4.16 4 8.52.74 13.8-8-1.61-14.45-7.7-22.86-8.44-4.16-.35-8.82.55-12.16-3.13z" fill="#fefbe2"/><path d="m385.89 400.1c40.42-25.72 84.24-38.93 132.44-35.28 17 1.28 32.17 8.25 46.07 17.73 20.32 13.86 42.46 25 61.19 41.26a130.32 130.32 0 0 1 15.22 15.95c22.75 27.64 49.7 49.24 85.19 58.77 11.91 3.19 23.17 8.41 34.18 14a21.25 21.25 0 0 0 10.64 2.47c-4.83 15.6-17.61 21-31.75 24.61-25.07.84-49.69-3.95-74.51-6.1s-49.63-5.12-74.43-7.76c-9.16-1-9.83-.13-12.74 13.51-13.83 9.7-11 21.06-3.23 32.92.67 4-.21 8-.67 12-1.1 9.51.57 11.92 9.78 12.92 24.59 2.67 49.21 5 73.8 7.67 38.73 4.16 77.5 8 116.22 12.22 16.86 1.85 33.87 2.51 50.52 6.15 4.08 3.71 1.79 7.88.69 11.85-2.17 7.91-5 15.68-4.85 24-1.28 13.87 1.12 26.8 9.67 38.21a10.43 10.43 0 0 1 2.17 6c-1.16 22.54-.46 45.09-.46 67.63 0 10.55-.42 21-2.57 31.33-8.4 40.2-14 80.92-23.56 120.93-7.12 29.67-5.23 60.2-1 90.27 6.72 48 15.18 95.72 25.74 143a26.83 26.83 0 0 1 .8 9.18c-4 11.31-13.08 17.41-23.2 22.33a80.31 80.31 0 0 1 -16.56 5.72c-37.42 4.69-74.55-1.38-111.8-3.1-7.7-.35-11.27-3.69-11-11.46.59-17.86-.86-35.73 1.49-53.62 1.59-12.09 6.3-21.63 15.88-29.16 9.95-7.83 19.6-16 29.5-24 9-7.22 12.21-15.92 8.23-27-1.55-4.32-1.89-9.05-4.41-13.52-6 1.43-8.52 6.78-12.43 10.44-2.2 2.06-4.61 5.29-7.76 2.51-2.85-2.5-1-5.75.88-8.31 3.16-4.22 7.32-7.53 10.8-11.46 14.9-16.85 18.14-28.55-5.48-49-5.88 1.68-6.59 9.79-13 10.86a4.77 4.77 0 0 1 -2.67-.56c-2.71-5.52 1.34-9.33 3.64-13.43 6.64-11.85 6.53-14.15-2.27-24.49-4.4-5.17-7.64-11.21-12.35-16.16-3.25-3.4-6.29-5.24-9.65-.28-.75 1.08-1.53 2.12-2.31 3.17-1 1.49-2.09 3-3.23 4.4-12.56 16.43-19.55 35.6-26.44 54.72-4.52 12.56-2.83 15.87 9.55 21.38 7.66 3.41 10.93 9.61 12.87 17 .72 2.71.93 5.76-2.07 7.38-2.59 1.4-4.79-.3-6.67-1.89-5.43-4.58-10.11-9.95-15.3-14.79-2.3-2.13-4.7-4.45-8.1-3s-4 4.58-3.76 7.79c1.35 19.5 2.71 38.58 21.05 51.71 13.93 10 23.25 23.61 24.85 41.57.69 7.82-1.79 15.24-1.52 23 .38 11.08.22 22.19 0 33.29-.07 3.87 1 9.19-3.41 10.66-5.12 1.68-11 1.67-14.88-3.78.19-12 1.42-24-1.74-35.88-1.38-5.15-2.77-10.29-7-13.8-12.49-10.32-16.21-24.24-16.79-39.55-.11-3.08 0-6.17-.05-9.26-.31-13.51-8.27-22.77-20.07-23.39-13.57-.71-23.13 7-24.47 21-1.38 14.34 4 26.42 16.34 34 11.83 7.2 23.21 15.39 36.63 19.75 10.29 3.34 15.72 10.81 16.36 21.32.54 8.78 2.68 17.79-1.76 26.29a7.17 7.17 0 0 1 -5.3 1.17c-25.65-5.16-51.37-10-76.42-17.73-10.47-14.31-23.92-25.55-37.71-36.49-9.51-7.56-16.56-17.4-23.54-27.19a152.12 152.12 0 0 0 -37.77-37.7c-15.25-10.48-28.24-23.88-43.27-34.7-2-1.46-3.82-3.15-4.28-5.81.76-11.25.83-22.58 4.63-33.4 2.37-2.24 5.47-2.72 8.45-3.46 15.92-4 23.84-13.69 24.84-30a116.1 116.1 0 0 0 -4.92-42c-12.44-39.68-17.05-80.64-20.88-121.74-1.7-18.24-6.09-35.79-12-53-1.2-3.49-2.81-6.88-2.21-10.73a9.19 9.19 0 0 1 1-2.83c.27-.41.56-.81.83-1.22a16.3 16.3 0 0 1 3.12-2.86c8.51-5.09 16.65-10.65 23.06-18.39 3.05-1.53 6.54-1.44 9.68-2.67a12.76 12.76 0 0 0 6.5-18.8c-3.14-5.23-7.22-4.76-11.61-1.68-4.74 3.33-7.87 8.57-13.31 11.08-19.9 5.59-20.72 5.8-25.66-13.39-4.72-18.31-8.14-37-11.77-55.57a3.69 3.69 0 0 1 1.9-2c1.94-.37 3.6.46 5.26 1.29 18.25 9.17 30.05 7.95 45.31-5.79 26.8-24.33 55.43-46.13 83.71-68.33 3.16-1.91 6.49-3.51 9.53-5.65 9.75-6.84 11.21-12.5 5.8-22.75-4.22-8-9.18-8.62-14.64-1.49-3.76 4.91-7.37 9.87-12.55 13.44-19 7.67-35.3 20.1-52.54 30.84-1.46.91-3 1.68-4.5 2.5-.74.46-1.5.86-2.27 1.26-9.13 5.92-18.31 10.7-29.09 3.41a35.21 35.21 0 0 1 -8.34-8.54c-.59-.65-1.14-1.33-1.67-2a37.92 37.92 0 0 1 -2.34-3.16c-14.55-21.86-28.81-43.86-48.39-61.86-9-8.29-18.55-14.28-31.38-12.84a3.06 3.06 0 0 1 -2.43-1.14c-1.27-5.71 2.18-9 6.15-12 11-3.42 20.21-10.28 29.85-16.25 7.08-4.39 10.35-10.81 10.58-19.26.25-8.92.7-17.78-1.11-26.61-.66-3.04-1.13-6.16 1.23-8.8z" fill="#fefce2"/><path d="m741.06 538.33c11.77-5.42 22.68-11.92 29.76-23.3 12.65-16.41 28.79-29.48 42.9-44.49 16-17 35.29-25.37 59-21.67a14.57 14.57 0 0 1 4.21 3c5.91 8.91 15.85 8.22 24.63 10.31 14.11 13.1 29.26 14.76 46.33 5.5 10-5.45 21.7-6.36 32.74-8.91 4.18-1 8.46-1.49 12.09-4 4.61-2.28 9.73-1 14.51-2.08 7.18-1.68 9.1-5.24 6.53-12.15a21.65 21.65 0 0 0 -4.27-7.07c-11.88-13-20.63-28.08-30.27-42.66a123.82 123.82 0 0 0 -26.29-29.23c-3.89-3.05-6.95-6.13-5.4-11.56 4.54-6.71 4.14-16.53 13-20.53a28.85 28.85 0 0 1 17.6 9.13 34.18 34.18 0 0 0 12.87 8.38c29 11.59 54.69 28.61 78.74 48.26 4.12 3.36 6.8 7.71 9.18 12.47 4.8 9.59 9.73 19.16 15.33 28.29 8.29 13.53 13.73 27.37 8.62 43.44a5.25 5.25 0 0 1 -1.3.25c-8.49 10.46-20.38 15.72-32.48 20.1-11 4-22.26 7.44-33.57 10.46-11 2.94-20.45 8.11-29.63 14.59-18.37 13-25 30.42-21.84 52.2 4 27.11 13.7 52.33 25.22 77 3.27 7 5.42 14.42 8.43 21.51 2.16 5.08 1.73 10.17-.09 15.23.3 6.05-4.3 9.88-6.67 14.73-.19 7.46-5.31 11.7-10.77 15.19-10.73 6.88-20.17 15.28-29.5 23.87-15.94 14.8-34.37 17-54.38 10.66-15.06-4.74-27.74-13.59-39.11-24.22a53.59 53.59 0 0 0 -25.92-13.55c-9.15-2-16.35-6.9-21.08-15.13-10.53-12.44-15.52-26.53-12.78-42.91 4-12.58 10.47-23.87 17.67-34.82 10.88-1.9 21.5.94 32.19 2 12.6 1.23 14.74-.16 15.66-12.76 1.13-15.4 3-30.72 4.56-46.08 1-9.86.84-10-9.26-11.62-11.29-1.82-22.81-1.86-34-4.55-5.49-4.32-1.7-9.69-1.4-14.54a40.32 40.32 0 0 1 4.11-14.5c-4.67 10.07-9.79 19.73-18.28 27.22-20 0-39.74-3.25-59.57-5.26-6.11-.61-12.31-.49-18.33-1.79-3.49-.74-7.46-.74-9.69-4.41z" fill="#fc0160"/><path d="m243 590.5c-5.4 14.08-8.3 29.07-17.62 41.67-8.64 11.7-19.6 19.62-33.62 22.26-21.4 4-43 6.68-64.74 1.59-9.61-2.25-17.06-7.88-24.78-13.3-12.24-13.36-25.47-25.72-32.66-43.03-10.72-25.89-17.19-51.42.77-76.78 9.35-13.19 23.18-21 37-28.38 15.23-8.19 32.13-11.36 48.92-15.14 16-3.61 32.43-7.92 47-15.27 16.52-8.37 27-24.38 35.22-40.61a198.9 198.9 0 0 1 57.34-69c15.06-11.57 33.05-18.51 53.17-15.71 15.82 2.22 27.79 15.82 27.61 31.43-1.45 4-5.1 3.89-8.42 4.47-17.18 2.95-28 14.33-29.44 31.91-1.48 18.5-4.9 36.7-8.41 54.85-2.41 12.45-8 24-14.68 34.83-12.08 11.71-23.16 24.71-39.1 31.89-5.85 2.63-9.32 8.07-12.27 13.51-6.45 11.92-13.16 23.73-16.29 37.17-.95 4.05-1.4 8.62-5 11.64z" fill="#010101"/><path d="m900.61 463.19c-10.73.9-20.26-.93-26.07-11.32 7.33-4.91 16.68-7.59 19.84-17.42-4.88-4.71-11.88-.49-16.48-4.71-5.29-4.53-12.62-4.62-18.26-8.28-13.83-9-19.67-23.09-24-38.1-.84-2.93-1.25-6-1.85-9 .18-.25.32-.68.54-.73 18.44-3.79 29.49-17.85 42.2-29.8 8.45-8 18.51-13.16 30.69-13.08 12.73.09 17.88 4.35 19.56 17 .92 7-.11 14.09.72 21.28 3.65-.44 4.17-4.92 7.62-4.87 7.15 5.73 7.55 9 2.55 15.87-9.55 13.16-17.8 27.19-27.23 40.45-7.38 10.37-5.14 19.4 5.17 29-1.39 8.52-6.36 13.1-15 13.71z" fill="#f9aa72"/><path d="m935.55 364.88c-4.35 2.45-3.28 9.56-10 10.85-2.3-7.39-.81-15-.72-22.32.25-20.72-10.89-24.08-28.84-18.53-14.58 4.51-23.36 16.52-33.7 26.39-8.12 7.74-17.09 12.87-28.5 13.09-15.2-1.11-20.18-12.19-23.2-24.52-2.66-10.83-1.94-21 7.13-29.55 18.9-17.76 40.64-30.48 66.76-30.89 20.73-.32 41.2 4.12 53.21 24.61-11.65 10-11.38 22.64.72 32.58a8.29 8.29 0 0 1 2.76 3.6c.76 5.9.49 11.42-5.62 14.69z" fill="#020202"/><path d="m313.64 496.24c15.52-27.07 19.42-57.16 22.27-87.39 2.14-22.75 12.83-34.16 35.78-36.59 1.7-.18 3.3-1.33 4.94-2 .48 10.77 6.1 19.94 9.26 29.88 2 12.36 3.69 24.69 2.3 37.3-.81 7.35-2.65 13.79-9.52 17.76-10.75 6.22-19.94 15.37-32.9 17.43-13.33 1-13.35 1-11.68 14.69.33 2.74.69 5.44-.22 8.15-7.27 9.41-15.82 9.74-20.23.77z" fill="#f7aa71"/><path d="m223.55 265.66-38.5 32.45c-10.45-12.66-9.44-32.85 1.4-40.7 10.99-7.94 27.97-4.53 37.1 8.25z" fill="#fee904"/><path d="m684.24 151.52c-1.7-14.54 8.79-27.76 22.38-29.06 8.41-.8 22.6 13.24 24.11 23.48.64 4.34-1.3 5.58-5 5.58z" fill="#fee904"/><path d="m939.84 349.75c-8.94-4.15-15.94-19-13.39-28.53 1.54-5.77 6.2-6.86 11.28-7.21 10.53.83 16.77 7.95 22.74 15.48-6.2 5.76-5.28 15.65-12.2 21-3 1.93-5.81 1.71-8.43-.74z" fill="#f7aa71"/><path d="m1099.6 194.28 24.25 26.06c-12.63 12.89-20.4 14-30.22 3.45-8.89-9.54-7-19.51 5.97-29.51z" fill="#fee904"/><path d="m40.65 419.12c5.45 9.79 3.86 19.15-3.64 25-6.75 5.24-18.12 4.67-24.53-1.37-4.22-4-5.19-7.7 1.44-10.28.85-.33 1.66-.78 2.49-1.19z" fill="#fa0462"/><path d="m515.89 323.06c2.6-10.8 9.69-14.87 18.24-15.43s14 4.92 16.7 12.92c1.06 3.07 1.17 6-.72 8.76-2.22 3.28-5.49 2.32-8.31 1.54-8.42-2.34-16.75-5.01-25.91-7.79z" fill="#fa0462"/><path d="m877.9 429.74c6.79.49 14.12-2.22 20.94 3.49-5.78 9.71-12.05 17.89-24.3 18.64a2.62 2.62 0 0 1 -1.85-3c9.87-4.17 8.68-11.34 5.21-19.13z" fill="#e29c6b"/><path d="m666.08 931.45c5.14-8 6.87-8.21 12.68-1.78 6.38 7.07 11.11 15.41 17.82 22.3 5.35 5.48 3.08 12 0 18-2.65 5.18-6.62 9.68-8.06 15.49a8.38 8.38 0 0 0 -.37 1.64l-.32.68s.61-.5.62-.52a.93.93 0 0 1 1.36-.71c6.66-3.28 8.14-11.42 15.08-16.18 6.86 8.38 15.06 15.6 18.57 25.92 3.91 11.46-2.7 20.24-9.56 28.38-3.57 4.23-7.89 7.83-11.88 11.71-2.17 2.11-4.66 4.07-3.19 8.83 8.21-5.44 12.13-15.06 22.31-19.09 2.26 10.79 4.76 21 6.42 31.42.72 4.48-2.62 8-5.58 11.25-8.56 9.43-18.71 17.3-29.05 24.24-14.84 10-21.76 23.06-22.17 40.07-.42 17.83-.09 35.68-.09 54.68 40.53 1.61 80.21 7.58 120.3 3.86-1.36 6.69-2.42 13.48-5.93 19.53-23 5.68-46.2 6.64-69.86 5-33.34-2.26-66.22-8.19-99.45-11.13-11.38-1-22.26-4.93-33.85-5.36-38.9-1.44-74.69 8.53-106.66 27.21 11.38-5.14 42.47-11.67 55.87-12.11 46-1.48 90.37 7 134 21.2 32.36 10.57 65.74 13.22 99.78 11 19.13-1.23 38.21-2.81 57.32-4.12 18.66-1.27 36.67-5.73 54.69-9.85 28.34-6.48 55.5-17 83-26.5a36.91 36.91 0 0 1 12-.86c9.84.76 19-.73 27.11-6.79a160.22 160.22 0 0 1 35.8-4.33c17.58-.3 35.13-2 52.73-1.18 5 .23 9.4-1.89 13.89-3.72-7.17 3.65-14.81 3.66-22.63 3.57-16.67-.22-33.32 1.52-50 1-4.19-.13-9.57 1-11.55-3.77-2-4.94.39-9.58 4.31-13.19 19.71 2.9 39.41 5.89 59.15 8.61 3.9.53 8 .7 11.83-1.11 16.86-8 34.21-4.52 51.51-2.13 6.36.87 12.69 1.93 21.26 3.24v-59.16c1.57-1.54 3.15-1.4 4.72 0 1 17.42-.65 34.86 1.07 52.31.7 7.12 3.49 10.44 9.87 11.85s12.46 2.79 18.69 4.19q36.32 11.88 73.5 20.6a34 34 0 0 1 9.15 3.46c-30.33-1.74-60.77-.67-90.49-8-5.91-1.46-11.86-3.41-18.14-2.73-13.35 2.13-26.68.49-39.56-2.33-21.6-4.72-42.54-1.22-63.26 3.59-23.75 5.51-46.84 13.61-70.24 20.52-10.37 3.07-20.71 6.1-31.33 8.22-14.65 2.92-28.8 7.76-41.59 15.27-21.94 12.89-46 17.69-70.69 20.14-24.88 2.46-49.85 3.88-74.55 8a116.12 116.12 0 0 1 -43.22-.83c-42.91-2.29-83-15.64-123.08-29.9-20.27-7.2-41.35-11.69-63.84-10-37.5 2.85-73.52 13.53-110.5 18.23-22.6 2.88-45.23 6.77-68.59 5.34-24.14-1.47-48.54-.8-72-6.68-16-4-31.47-10.63-46.35-18.2-18.9-9.61-38-18.82-57-28.26-1.57-.78-3.43-1.58-3.12-5.33h41.08c8.4 8.52 14.93 8.27 20.93-.83 5.75-2.44 11.54-4.51 17.77-1.63a4.39 4.39 0 0 1 1.46 4c-.41 2.1-1.53 4-1.92 6.11-2 10.74 1 15.19 11.9 15.83a245.61 245.61 0 0 0 34.77-.26c-1.94-6.28-6.66-8.2-10.24-11.12-3.95-3.23-9.35-4.9-11.17-10.43a6.63 6.63 0 0 1 1.47-5.75c10-3.95 20.72-2.1 31.06-4 13.62-2.52 27.36-4.58 41-7.09 6.33 4.76 4.59 12.21 6.21 18.54.13 3.07-1.1 6-.85 9.12.44 5.32 2.53 10.15 8.27 10.65a209.24 209.24 0 0 0 39.49-.1 4.63 4.63 0 0 0 3.8-3c-2.09-5.63-8-6.52-12.57-9.19-5.42-3.18-12.64-3.54-15.94-10.09-1.34-8.69-2.1-17.35.66-25.93a165.3 165.3 0 0 1 38.85-16.65c36.38-10.4 73.06-15 110.34-4.37 4.8 1.37 9.4 2.93 13.47 5.86 27 7.6 54.27 14.1 82 18.27 1-.88 1.91-.81 2.64.39 4.3 3.25 9.79.1 13.81 3.63 3.2-4.93 1.31-9.28 1.53-13.42.79-15.07-.2-30.13 1.57-45.26 2.62-22.45-10.42-37.74-26.79-50.67-11.87-9.39-22.9-41-19-55.17 2.08-7.57 7.87-9.44 14.06-4 5.56 4.87 10.54 10.41 15.81 15.62 1.7 1.68 3.25 3.7 6 4 1.46-10.08-3.18-18.29-12.13-21.83-13.57-5.38-15.26-7.49-10.81-21.25 6.81-21 14.44-41.83 28.71-59.33a1.72 1.72 0 0 1 2.19.68c1.62 2 3.2 5.44 6.07 2.09 2.5-2.92-.24-4.75-2.73-6.12a3.17 3.17 0 0 1 -1.43-2z" fill="#9e8dc0"/><path d="m256.55 1206.33c-.17 2.71-.34 5.42-.51 8.07-13.42 2.06-19-.23-20.31-8.25.77-17.46-8.16-32.35-13-48.29-1.67-5.45-4.9-10.42-8.37-17.56-1 10.17-4.55 16.7-11.68 21a39.39 39.39 0 0 1 -22.13 5.46c-16.46-.73-31.32-6.15-43-18.41-8.31-8.71-13.65-18.77-8.92-30.81s15.93-15.63 27.73-16.63c14.5-1.22 27.44 4.17 40.38 10.9-20.74-35.81-40.55-71.81-57.21-110.88-8.25 15.33-20.54 18.35-34.94 14.48-15.42-4.15-27.42-12.72-31.56-29.09-2.45-9.68 3.58-17 18-22.92 17.12.51 23.51 2.45 36.16 11.74-9.09-29.3-20.87-56.1-24.7-85.38-18.93 10.06-43.61-3.9-48-26.14-2.07-10.48 6.71-18.91 18-17.78 8.53.86 14 3.72 26.14 14-1.35-31 .19-60.81 6.76-90.11-.61-.3-.13-2.07-1.62-1.21-11.26 4.87-20.06 0-27-8.08-7.77-8.89-12.27-19.44-7.41-31.44 3.12-7.71 12.06-10.59 20.31-6.78 13.37 6.16 19.53 17.11 20.42 32.16l5.21-7.47c.26 14.46-6.1 25.57-5.55 38.6 4.9-4.56 8.53-9.52 14.26-11.86 6.42-2.62 12.93-3.39 18.12 1.64s4.38 11.77 1.6 18c-7.07 15.8-23.87 20.38-36.75 8.7-3.31 40.17-.2 78.63 10.9 117.58 3-5.39 5.4-10.22 8.32-14.68 8.26-12.61 20.23-18.08 29.09-13.59s11.47 18.72 6 32.46c-6.68 16.57-17.89 25-33 24.79-1.66-1-.46 1.11-1.21 1.09l20.32 45.47c9.77 12.47 15.65 27.13 23.06 40.92.52 1 .07 2.57 1.8 2.76.47 1.12.65-1.16-.1-.18-.3.41-.6.26-.71-.45-2.3-14-1.71-27.41 7.56-39.16 4-6.57 7.52-13.35 13.14-18.85 16.41-16 35.64-11.79 43.48 9.82.84 2.31 1.57 4.65 2.35 7 5.73 8.58 3.47 17.78 2.13 26.93a73.9 73.9 0 0 1 -15.89 36.95c-8 9.75-17.49 16.76-32.66 13.74 3.32 8 7.95 13.18 11.63 19 20 31.59 39.34 63.57 51.28 99.31 1.45 4.29 3.53 8.61 2.08 13.43z" fill="#fa0462"/><path d="m739.14 1280.92c45.08.4 89.37-8.34 134.12-11.91 17.67-1.41 34.8-7.21 50.58-16.36 17.18-10 36.16-14.84 55.49-19.4 25.39-6 50.23-14.33 75.21-22 19.8-6.06 40-10.87 60.64-9.94 19.53.88 38.94 4.58 58.4 7.05-25.64 14.07-51.57 27.41-78.51 39-55.31 23.79-113.92 34.67-172.47 45.71-36.73 6.93-74.18 7.89-111.4 5.68a209.11 209.11 0 0 1 -72.06-17.83z" fill="#fefbe2"/><path d="m830.18 702.35c9 7.56 18.62 13.33 30.71 15.41 8.22 1.42 14.32 8.06 20.44 13.72 11.44 10.58 24.33 18.62 39.52 22.75 19.15 5.2 35.85 1.15 50-12.87 8.53-8.48 17.35-16.59 28.17-22.13 5.84-3 8.2-8.94 12-13.69 10.66 27.1 15.36 55.13 10.52 84-8.54 50.54-9.54 101.46-7.11 152.36 2 42.24-1 84.22-2.7 126.26-1.33 32.8-6.41 65.34-13 97.56-2.9 2.83-6.65 2.77-10.25 2.68-10.58-.26-21.15.83-31.73.1-8.44-7.2-12.3-16.93-13.89-27.4a181 181 0 0 0 -9.48-37.46c-12.63-33.37-18.9-68.29-22.31-103.73-1.31-13.61 1.32-27.07 2.22-40.58 2-29.81 6.16-59.49 5.28-89.46-.07-1.79.72-3.64-.88-6.2a67.38 67.38 0 0 0 -27.16 36.77 171.07 171.07 0 0 0 -8.09 50.79c0 17.79-2 35.58-1.6 53.43.15 7.07 0 14.13 1.82 21.06-.15 11.91-4.68 22.89-7.6 34.15-7.65 29.53-7.68 59.71-8.83 89.81-.21 5.47 1 11.15-2.17 16.24-11.37 4.4-23.12 2.47-34.78 2-9.39-36.56-14.82-73.92-21.78-111-7.09-37.73-11.65-76-8.93-114.57 1.2-17.19 7.82-33.4 10.43-50.33 6.64-43 19.57-85 19.16-129-.15-16.95.13-33.89.21-50.84 0-3.36.01-6.76 1.81-9.83z" fill="#feea01"/><path d="m1169.93 1126.72h-4.72c-.79-15.64.14-31.26-.65-47-1.18-23.29-8.8-42.37-27.1-57.23-10.77-8.75-21.14-18-31.26-27.55-16.53-15.56-22.91-36.18-27.24-57.55a182.43 182.43 0 0 1 -3.06-23.77c-.43-6.25 1.53-10.67 9.58-9.72 9.88 1.17 17.44 5.72 23.49 13.28 7.32 9.16 14.43 18.5 22.08 27.37 3.23 3.75 7.25 9.24 13 6 6.81-3.8 3.33-10.3 1.68-15.79-5-16.51-16.27-28-30.27-37.15-4.12-2.7-8.47-5.07-12.7-7.62-14.52-8.73-18.7-17.89-15.73-34.51 1.74-9.69 3.8-19.25 7.7-28.4a33.71 33.71 0 0 0 2.81-15.33c-.16-2.61-1-6 2.21-7.41 3.07-1.35 5.15 1.15 7.26 2.91 8 6.75 16 13.63 24.91 19.21 2.06 1.29 4 3 7.51 2.79a24.66 24.66 0 0 0 -5.93-14c-8.8-10.66-16.2-22.71-28.63-29.95-5.29-3.07-3.79-8-2.85-12.4 4-18.88 12.35-36.21 22.08-52.54 8.83-14.82 17.61-29.71 26.66-44.41 4.44-7.21 7.51-7.22 12-.06 7 11.25 13.56 22.8 20.45 34.13 4.18 6.88 4.19 13.83 1.91 21.35-3.23 10.63-6.58 21.14-11.84 31-2.42 4.54-4.61 9.5-2.49 15 4.08.85 4.51-2.72 5.57-4.89 4.47-9.14 8.61-18.43 12.94-27.63 3.27-6.93 8.71-8.31 14.24-3.55 11.19 9.63 23.22 18.49 31.47 31.14 8.64 13.24 6.15 27.82-5.92 42.24-10.42 12.45-23.62 22.87-29.41 38.85-1.35 3.74-3.51 7.41.62 11.24 6-1.12 7.64-6.62 10.28-10.81 4.8-7.63 9.73-15 17.42-20.14 5.2-3.48 11-3.38 14.23 1.18 10.95 15.52 22.83 30.77 24.36 50.9 1.79 23.52-11.31 39-28.61 51.69-10.93 8-22.84 14.71-34.35 21.94-8.85 5.57-10.92 8.6-10.79 16.79 7.17-.47 11-6.06 15.72-10 6.13-5.17 11.42-11.23 18-16 7.42-5.37 14.16-4.13 21.5.15 7.18 4.19 9 10.68 6.73 17.43-3.85 11.5-4.34 23.61-7.63 35.08-4.41 15.4-13.09 28.59-28.3 34.84-23 9.46-35.37 26.57-40.92 49.93-3.14 13.06-8.57 25.4-8.01 38.97z" fill="#9d8cc0"/><path d="m1017.63 690.81c-.2-17.59-9.19-32.4-15.94-47.74-10-22.66-18.28-45.85-20.81-70.39-2-19.71 5.51-36 21.93-48.95 13.68-10.74 29.44-15.29 45.32-19.71 19.2-5.33 37.09-13 53.46-24.27.11 6.07-3 10.94-7.22 14.48-21.17 17.79-41.71 36.52-67.16 48.42a22.66 22.66 0 0 1 -5.1 1.87c-11.21 2.17-14.54 9.17-13.39 21 3.6 36.9 15.09 72.89 12.7 110.47-.34 5.27-.62 10.36-3.79 14.82z" fill="#da0254"/><path d="m956.84 1167.32c13.86-3.22 27.92-1.09 41.88-1.6.27 3 .53 6 .8 9 3.36 8.79 4.38 17.5-.85 26-5.91 8-14.4 7.93-23.11 7.59-5.19-.19-10.4.11-15.61.18a99.6 99.6 0 0 1 -28.34 2.2c-4.12-.21-8.17-.86-9.87-5.32-1.58-4.14 0-7.83 2.44-11.19a17.61 17.61 0 0 1 8-6c7.72-3 13.54-8.3 18.27-14.93 1.69-2.42 2.98-5.32 6.39-5.93z" fill="#020202"/><path d="m1259 641.55c0 11.72-13.19 22.47-25.86 19.45-6-1.42-9.43-4.29-5.36-11.16 4.71-7.92 9-16.11 13.12-24.36 3-6 6.75-5.76 10.74-1.58 4.36 4.52 7.64 9.71 7.36 17.65z" fill="#fa0462"/><path d="m998.67 1200.78q.42-13 .85-26l21.94 2.53c.14 4.63-3.55 8.5-2.65 14.26 28.64-.27 57.27 1.48 86-1.06-35.05 7.49-71.01 4.66-106.14 10.27z" fill="#b4a8cb"/><path d="m313.64 496.24c7 5.91 12.23 5.48 18.8-1.55 2.89-3.49 2.23-9.4 7.64-11.16 11.8-5.75 21.61.33 29.43 7.26 22 19.47 39.73 42.6 54 68.3a8.74 8.74 0 0 0 1.7 2.22v-.06c2.68 3.9 2.39 8.8 4.44 13 5.76 11.64 16.35 13.26 24.79 3.43 3.19-3.72 6.34-7.46 9.78-11l-.1.09c1.09-1 3.22-.56 3.56-2.6 17.58-11.58 34.56-24.22 54.43-31.93 6.61 5.16 12.8 10.6 13.46 19.79-19.1 15.31-38.32 30.48-57.26 46-9.49 7.77-18.63 16-27.61 24.31-6.57 6.1-14.71 9-22.89 10.93-10.27 2.44-19.13-2.1-26.82-8.86-1.13-7.82 2.27-15 3.21-22.55 3.49-28.13-9.69-47-33.71-60 28.22 21.2 36.75 49.15 29 82.67-.09 10.65 6.61 19.53 7.45 30.12 1.11 14 4.85 27.61 9.56 41.17l19.8-3c5 3.86 8.15 8.73 8.43 15.19-4.5 9.84-14.48 13.07-22.54 18.6a3.46 3.46 0 0 0 -2.45 1.71l.15-.1c-42.47 14.78-82.53 10.3-120-14.91-1-.06-1.2-2.29-2.83-1a2.41 2.41 0 0 1 2.26.58c27.89 20 58.86 27.15 92.79 22.78 8.85-1.15 17-5.22 25.91-5.68-.9 8.73 4.39 15.85 6.66 23.69 5.03 17.52 7.48 35.32 9.32 53.32 2.9 28.69 5.87 57.32 13.2 85.41 5.09 19.49 12 38.67 11.61 59.39-.47 28.14-7.74 37.25-35.23 41.77-4.71 3.27-10.15 2.86-15.26 2.22-19.94-2.49-39.89-3.63-59.94-1.66-6 1.15-12 2.12-18.09 1.7-19.2 1.36-37.95-3.2-57-4.36-5.72-.35-11.6-2-15.34-7.34-25.64-16.42-29.46-40.25-23.64-67.77 8.37-39.57 20.11-78.19 32-116.76 4-12.86 8.91-25.41 12.95-38.25 2.62-8.33 6-16.75 2.4-25.78a6.56 6.56 0 0 1 -.14-4.43c8.26-20.7-.67-38-9.82-55.89-12.43-24.26-24.36-48.91-26.83-76.75-.25-2.72-1.28-5.36-1.95-8a140 140 0 0 1 24.93-58.33c1.58-2.18 3.64-4.64 6-5.54 16.42-6.17 26.58-20.25 39.79-30.39z" fill="#fee901"/><path d="m258 984.17c12.47 6.39 26.35 5.18 39.62 7 10.94 1.54 22.08 1.64 33.13 2.38 4.86 9.43 2.37 19.24 1.41 28.93-4.09 41.48-13.71 82-21.3 122.91-3 16-5.42 32.21-7.07 48.47-.35 3.41-.79 6.73-2.79 9.64-.1 1.57-.2 3.14-.31 4.7-8.55 4.32-17 4.78-25.48-.35l-.48-3.34c-1.29-.91-2.6-2-2.55-3.63.35-11.85-4.54-23.06-5-34.6-1-27.52-7.65-54.19-10.81-81.38-3.08-26.41-2.93-52.8-2.83-79.25 0-3.1.3-6.17 2.44-8.7q1.02-6.36 2.02-12.78z" fill="#f9ab72"/><path d="m843.23 549.81c13.73 1.33 27.45 2.8 41.19 3.92 5.08.41 7.34 2.64 6.78 7.62-2.5 22.45-5 44.91-7.63 68-17.19 2.06-33.33-3.77-49.78-3.18-3.7 2.73-6.55 1-9.23-1.74q-69.16-7-138.33-14.05c-36.89-3.81-73.75-7.79-110.62-11.7-1.52-.16-3-.47-5.3-.83-.85-9.28 1.81-18.29 2-27.42 4.9-2.77 7.58-6.1 3.56-11.69-4.16-5.78 0-12-.53-17.93.72-5.78 1.44-11.57 2.29-18.5l163.44 16 88.87 9.74c4.93-3.29 9.26-1.9 13.29 1.76z" fill="#aa0440"/><path d="m346.74 992c25.72-4.82 51.21 1.35 76.82 1.61q-1.81 17.48-3.62 35c1.67 3.22 1.27 6.66.64 9.94-4.06 21.15-4.65 42.7-7.61 64-3.15 22.77-5.5 45.72-7.24 68.69-.25 3.41-.42 6.77-2.77 9.53q-.1 13.52-.22 27c-8.23 2.88-16.6 4.69-25.39 3.4q-2.16-9.51-4.34-19c-3.48-2-5.08-5.3-5.85-9-5.63-27.12-12.87-53.88-15.84-81.59-2-18.32-7-36.24-8-54.8q-1.17-21.29-.25-42.49c.19-4.29.82-8.71 3.67-12.29z" fill="#f9ab72"/><path d="m649.19 1184.44-2.64-.39c-.16-7.71-.09-15.43-.52-23.13-.53-9.43-3.28-18-13.57-20.87-14.56-4.12-26.38-13.26-39.07-20.72-15.75-9.25-21.75-30.45-14.29-47 3.61-8 17.06-14 27.77-12.31 9.61 1.5 18.33 11.64 18.89 22.27q.66 12.46 1.34 24.9c.51 9.23 4.57 16.85 10.69 21.75 10.48 8.39 12.42 19.67 13.62 31.11.85 7.95 2.46 16.62-2.22 24.39z" fill="#fee904"/><path d="m829.27 1168c11.16-3.68 22.52-2.35 33.86-1.31 5.4 6 1.56 13.94 4.31 20.5 1.36 18.68-4.85 25.67-23.19 25.84q-23 .21-46.09 0c-4.19 0-8.75.7-12-3.18-2.71-7.17-.65-13.09 4.79-18.11 15.37-3.82 28.05-11.92 38.32-23.74z" fill="#040303"/><path d="m535.54 552-13.47-19.78c4.9-3.92 8.2-9.12 11.87-14.08 5.53-7.46 12.1-6.84 16.72 1.19 8.83 15.36 5.01 23.6-15.12 32.67z" fill="#f9ab72"/><path d="m399.43 624.51c-1-12.57.44-25.17-1.08-37.81-1.6-13.2-9.69-22.23-17.48-31.65-5.16-6.23-12.19-10.82-17.16-18.68 36.49 15.63 49.95 39.63 40.29 78.34-.82 3.27-2 6.45-3 9.68-.55.01-1.06.06-1.57.12z" fill="#d3be00"/><path d="m444.67 708c-3-5-6.65-9.56-8.43-15.19 3.87-3.88 7.45-8.1 11.66-11.56 7-5.74 12.16-4.05 15.33 4.49 4.93 13.26-1.58 21.08-18.56 22.26z" fill="#f9ab72"/><path d="m297.13 711.4c12.25 3.23 21.81 12 34.11 15.6 27.09 7.87 54 9.94 81.34 2 2.3-.67 4.83-.55 7.25-.8l-1.83 1.8c-40.22 15.45-78.44 12.66-114.3-12.35-2.55-1.78-5.19-3.27-6.58-6.19z" fill="#d3be00"/><path d="m464.19 566.68a39.16 39.16 0 0 1 -12.83 17.32c-9.43 7.34-23.52-.58-25.91-14.46-.46-2.69-.2-5.49-.27-8.24 1.42 1.58 2.85 3.13 4.24 4.73 8.3 9.56 15.67 10.83 26.6 4.7 2.64-1.53 5.44-2.73 8.17-4.05z" fill="#d5c203"/><path d="m575.33 540.83c2.46 1.27 5.91 2.46 2.9 5.9-4.3 4.91-1.9 8.9.66 13.35 4.21 7.34 2.74 9.51-6.59 10.38-1.9-3.12-5.09-5.18-6.54-8.77-3.76-9.42-.95-15.9 9.57-20.86z" fill="#f9aa72"/><path d="m824.56 624.45 9.23 1.74c-1.79 12.89-10.62 22.32-16.39 33.25-.4-12.24 7.39-22.79 7.16-34.99z" fill="#da0254"/><path d="m340.08 483.53c-2.49 3.75-2.76 9-7.64 11.16-.18-7.6-3.77-15-1-23.35 4.71-.86 9.64-2.88 14.3 1.25-2.07 3.54-6.46 5.89-5.66 10.94z" fill="#e29c6b"/><path d="m661.93 936.79 2.41-3.29a2.41 2.41 0 0 1 1.36 1.93 2.63 2.63 0 0 1 -2.2 2.63z" fill="#9e8dc0"/><path d="m467.65 564.17c-.27 2.13-1.74 2.59-3.56 2.6z" fill="#d5c203"/><path d="m419.68 728.28 2.45-1.71z" fill="#d3be00"/><path d="m664.34 933.5c.58-.68 1.17-1.36 1.74-2l.87 1a2.29 2.29 0 0 1 -1.73 1.85z" fill="#9e8dc0"/><path d="m425.22 561.31-1.7-2.22z" fill="#d5c203"/><path d="m915.54 450.28c11.62-6.87 24-4.92 35.68-1.45 13.88 4.12 27.7 7.35 42.22 7-2.1 5.66-7.64 4-11.66 5.12-13.46 3.7-27.33 5.34-40 12.38-10.31 5.72-30.64 5.07-41.14-10.18 5.77-3.32 11.3-6.99 14.9-12.87z" fill="#da0254"/><path d="m843.23 549.81-13.3-1.74c4.34-10.35 11.76-18.68 18.51-27.61q-2.61 14.67-5.21 29.35z" fill="#da0254"/><path d="m786.18 1209.77c21.15.11 42.3.44 63.44.25 10.17-.09 14.12-4.43 14.76-14.52.2-3.06.3-6.12.44-9.18 1.31-3.39 4.27-4.33 7.41-4.51 22.81-1.32 44.85-7.51 67.38-10.57 4.52-.61 9.19-1.83 13.13 1.85-2.92 8.37-9.13 13.33-17 16.61-2.8 1.17-5.89 2.1-8.16 4-3.37 2.78-5.69 6.78-4.48 11.28 1.34 5 6 3.12 9.35 3.21 9.18.26 18.36.28 27.54.39-22.17 8.06-44.14 16.51-67 22.77-19 5.19-38.14 9.29-57.39 13a240.22 240.22 0 0 1 -41.15 4c-21.16.31-42.27 2-63.55 1.8-38.63-.45-73.2-15.74-109.69-23.76-33.53-7.38-67.58-11.49-101.74-8.19a152.79 152.79 0 0 0 -41.89 10.41 38.69 38.69 0 0 1 -11.64 3.08c5.94-6.86 14-10.66 21.82-14.47 31-15.16 63.93-22.48 98.45-19.76 18 1.42 35.72 5.86 53.7 7.62 20.16 2 39.95 6.65 60.3 7.14 12.25.29 24.46 2.9 36.68 2.88 11.28 0 22.65-1.59 33.78-3.61 5.16-1 10.33-.83 15.51-1.72z" fill="#b4a8cb"/><path d="m377.35 1211.15c8.37-1.83 16.57-5 25.39-3.4 6.61 3 13.28 6 19.8 9.15 4.63 2.27 9.63 4.25 12.09 10.06-2.8 3.94-6.76 5.41-11.65 5.37-9.57-.06-19.15.08-28.72.09-17.13.01-20.9-4.74-16.91-21.27z" fill="#040303"/><path d="m275.17 1207.89 25.49.35c7.12 5.28 14.19 10.63 21.4 15.78 1.92 1.38 3.5 2.72 2.63 5.17a4.37 4.37 0 0 1 -4.18 3.06c-13.75-.5-27.66 2.15-41.24-1.33-9.5-2.44-11.63-15.49-4.1-23.03z" fill="#020202"/><path d="m696.36 1008.08c-1.16 7.93-9.16 9.46-13.67 14.25-4 4.26-5.82 7.77-5.32 14.21 1 13.12-1.75 26.27-4.13 39.21-1.08 5.86-.35 11.67-1.3 17.54a4.67 4.67 0 0 1 -2.89-5.1c3.81-12.5-5.69-15.62-13.7-18.82-13.89-5.56-19.07-16.08-19-30.25 2.76 6.74 3.64 14.85 10.75 18.7 6.68 3.62 13.82 6.39 21.59 9.91 4.87-15.39 4.5-30.32 1.24-45.39-2.27-10.48-4.88-20.9-6.64-31.46-2.4-14.35 1.8-27.69 8.31-40.73-8.88 23-4.64 45.44 1.55 68.57l23.22-10.67z" fill="#afa3ca"/><path d="m706.3 1074.34c2.46-7.46 6-14.52 5.11-22.64-.28-2.6 1.81-4.69 4.78-4.43 3.67.32 4.39 3.4 4.07 6.14-1.07 9.11-4.96 16.59-13.96 20.93z" fill="#fefbe2"/><path d="m710.58 994c11.39 7.5 10.76 12.93-1.69 21.41-1.89-7.41 1.11-13.72 1.69-21.41z" fill="#fefbe2"/><path d="m665.22 934.28 1.73-1.86c3.6-.56 7.07-.66 7.36 4.23.22 3.81-1.9 7-5.37 7.59-3.93.67-6.3-1.77-5.44-6.18z" fill="#fefbe0"/><path d="m633.14 1029c-.12 2.81-1.38 5-4.36 4.79-3.35-.23-4.4-3.14-4.63-5.94s1.52-4.88 4.42-4.63c3.17.23 4.8 2.42 4.57 5.78z" fill="#fefbe2"/><path d="m696.33 1008.05c0-7.84-.44-15.75 4.28-22.7-1 7.65-.52 15.59-4.25 22.73z" fill="#afa3ca"/><path d="m687.41 989.83c-.37.83-.11 2.65-1.56 1.95-1-.48-.34-2 .51-2.82q1.31-.52 1.05.87z" fill="#fefce2"/><path d="m689.81 986.57-2.4 3.25c-.34-.29-.69-.58-1-.86l2.16-3.48z" fill="#fefce2"/><path d="m103.67 768.57 1.62-1v2.19z" fill="#fefbe2"/><path d="m127.08 949.65c0-.75.09-1.5.13-2.25l1.08 1.16a7.36 7.36 0 0 1 -1.21 1.09z" fill="#fefbe2"/><path d="m952.74 1173.09c-18.21.28-35.8 4.8-53.48 8.36-11.42 2.3-23.28 1.1-34.44 4.88-2.94-6.36-.37-13.19-1.69-19.69.47-26.69 1-53.4 4-79.93 2-17.63 7.12-34.71 11.73-51.82a43.05 43.05 0 0 0 1.59-9.87c2-23.92 8.37-47 13.58-70.3 5.84-26.08 12-52.22 21.35-77.38 1-2.77 0-7.78 5.56-7.43 1.35 35.87-3.88 71.36-6.47 107-1.66 22.72 1.25 44.9 5.53 66.92 5 25.59 11.07 51 22.25 74.78 2.33 5 1.94 10.42 2.26 15.33.81 12.63 6.5 22.92 12.35 33.39z" fill="#fefbe0"/><path d="m920.92 869.91c-14.1 38.65-23.37 78.57-31.47 118.82-2.46 12.21-6 24.2-9 36.29-4.18-19.47-2.43-39.15-1.17-58.68.55-8.59.38-17.15.9-25.71 1.19-19.44 5.07-38.23 14.36-55.53 6-11.21 15-19.69 25.12-26.87 5.7 4.28.6 8.07 1.26 11.68z" fill="#d5c203"/><path d="m1110.43 837.5c5.08.74 4.61 5.4 5.5 8.57 3.61 13 11.28 22.22 23.37 28.2 10.61 5.25 17.91 14.46 27.12 25-1-13.13-1.48-24-2.91-34.81-.53-4-1.39-7.94-1-11.88 2.37-24.24-3.76-46.77-12.06-69.3-7.73-21-5.78-43-2.8-64.76a16.83 16.83 0 0 1 1.51-4.32c.2-.47.86-.75 2.32-1.93-1.92 10.78-4 20.54-4.18 30.67-.26 12.45 2.81 24 7.82 34.72 6.23 13.33 10.8 26.7 11.17 41.45 0 2 1.27 4 2 6.1 13-8.9 21.54-17.28 31.3-49.19 0 3.94.87 8.12-.15 11.78-4.45 15.94-8.43 32.1-23 43-6.48 4.85-9.14 11.44-9 20.64.19 18.83 4.35 37.18 4.91 56 .39 13.15-1.77 26.68 2.26 40.46 11.23-11 27.55-14.61 37.36-26.48 9.53-11.53 12.49-26.88 18.8-40.39-2.2 16.1-6.47 31.58-14.22 45.77-4.2 7.69-13 10.73-20.36 13.88-14.6 6.23-21.46 17.07-22.34 31.93-.53 9.14 1.19 18.68.6 27.54-1.54 23.09 8.77 46.25-.64 69.12-.22.53-.54 1-2.07 3.91v-19.7c0-5.87-.24-11.75.06-17.6a23 23 0 0 0 -4.84-15.45c-8-11-16-21.86-26-31.11-2.3-2.12-5.37-4-4.76-8.49 11.46 9.78 22.54 19.86 33.71 31.39 0-7.18.24-14.38 0-21.55-.75-18.45-1.52-37.13-.78-55.32 1.2-29.33-15.52-45.43-36.23-59.19-14.54-9.66-18.17-23.89-22.36-38.61z" fill="#afa3ca"/><path d="m1234.45 845.52c23.88 12 32.72 41.18 19 62.09-2.91 4.42-6.1 9.18-12.46 6-6.07-3.07-9-8.21-7.53-15.16a19.69 19.69 0 0 1 2.58-5.87c8.58-14 8.08-27.72-.78-41.39-.9-1.38-2.71-2.89-.81-5.67z" fill="#fefbe2"/><path d="m1127.36 740.32c6.25 11.23 7.1 21.88 3.08 32.61-2 5.31-6.78 8-12.74 6.19-6.29-1.89-6.5-7.12-5.07-12.06 2.73-9.42 6.37-18.53 14.73-26.74z" fill="#fefbe2"/><path d="m1081.49 910.39c10.2.57 19.74 6.84 19.59 12.58-.13 4.85-7.91 11.4-13 11-6.87-.57-8.57-6.45-6.59-23.58z" fill="#fefbe2"/><path d="m1156.67 681.71c4.32.51 7.19 3 7.33 7.07.16 4.57-2.84 7.52-7.49 7.63-3.88.09-6.9-2.64-6.53-6.23s1.34-8.18 6.69-8.47z" fill="#fefbe2"/><path d="m1132.49 976.37c-3.94-1.46-4.73-3.35-4.53-6 4.04-.47 3.53 2.52 4.53 6z" fill="#afa3ca"/><path d="m1110.44 837.5-.77-.43.76.43z" fill="#afa3ca"/><path d="m412.26 697.45c-16.63 2.5-31.27 3.19-45.62 6.36-9.2 2-17.11-1.2-23.14-8.25-13.31-15.56-22.11-33.56-23.81-53.94-1.88-22.37-2.48-44.78-12.33-65.59-.34-.72-.13-1.7-.23-3.45 8.37 3.48 11.33 10.3 14.13 17.34 7.1 17.84 9 36.88 13.1 55.43a78.62 78.62 0 0 0 16.87 34.29c9.58 11.46 22.08 13.17 34.85 11.92 9.35-.92 16.55 2.35 26.18 5.89z" fill="#d3be00"/><path d="m298.91 565c-6.18.74-9.16-5.8-14.72-6.49 6.56-1.63 11.34.86 14.81 6.4z" fill="#d3be00"/><path d="m299 564.92c2.47.4 4.84.91 4.82 4.79-3.55.26-4.7-1.67-4.91-4.7z" fill="#d3be00"/><path d="m297.09 711.44-.75-.82c.17 0 .41 0 .5.13a2.39 2.39 0 0 1 .29.65z" fill="#d3be00"/><g fill="#f6cc06"><path d="m832.06 600c-.84-8.82.87-16.6 2-25.07 7.47-1 14.6-.34 19.46 6.26 3.66 4.95 3.07 10.7-.78 15.32-5.51 6.69-12.81 5.85-20.68 3.49z"/><path d="m600.07 575.85c-1.24-8.51.91-16.52 1.86-25.2 8-.15 15.55-.4 20.12 7.56 3 5.13 2.07 10.36-1.62 14.49-5.68 6.3-12.91 5.68-20.36 3.15z"/><path d="m686.36 591c-4.63-4.57-10.49-5.19-16.17-6.81-7-2-9.75-10.55-6.89-17.71 2.69-6.74 10.63-9.86 17.74-7 6.88 2.78 9.91 10.18 7.23 17.63-2.51 6.89-2.71 8.94-1.91 13.89z"/><path d="m739.2 592.07c-6-10.5-13.46-7.05-21.91-3.83 3.59-7.22 7-14.53 10.85-21.62 2-3.68 5.45-3.89 6.82.1 2.66 7.69 4.36 15.72 6.46 23.61z"/><path d="m829.27 575.71c-4.53 3.49-8 1.88-11.18 2.06-2.25.12-4.51 0-4.51 3.15 0 2.64 2.09 2.49 3.86 2.91 3 .73 6.77-.31 9.24 3.75-3.38 2.39-6.74 1.09-9.86 1.1-2.12 0-3.62.61-3.89 2.89-.3 2.48 1.46 2.94 3.36 3.44 3.18.85 6.83.2 10.11 3.35-6.56 3.82-12.39.68-18.43.18-.85-9.14.64-17.23 2.28-25.91a48.75 48.75 0 0 1 19.02 3.08z"/><path d="m657.93 564c-5.36-1.5-7.87-8.54-13.47-2.95 1.92 6.81 17.65 4.6 11.81 16.46-1.78 3.63-5.74 4.57-9.67 4-4.86-.73-8.47-2.94-9-8.88 5.23-1.14 8.67 8.86 14.13 2.1.41-4.18-3.19-4.21-5.44-5.26-4.15-1.94-8.07-3.94-6.4-9.49 1.36-4.49 5.08-6.27 9.41-5.79 4.84.52 8.55 2.81 8.63 9.81z"/><path d="m697 557.72c2.25 7.16.9 12.26.76 17.28-.12 4.16.92 7.6 5.65 7.88 4.16.25 5.86-2.68 6.41-6.44.73-5 1.52-10 2.37-15.54 4.41 4.23 4 17.89-.11 22.57s-9 5.15-14.18 2.14c-6.55-3.81-7.2-14.22-.9-27.89z"/><path d="m793.28 583.69c-3.54 3.25-7.58 0-10.53 1.7-3.15 2.63-.7 7.56-5.52 10.18-2.78-9.15.54-17.47.95-26.3 6.17-.95 11.4.35 17.27 1.94-2.61 4.49-5.62 2.64-8.08 2.88s-5.34-.7-5.33 3.15c0 3.24 2.83 2.51 4.75 3 2.27.5 5.08-.15 6.49 3.45z"/><path d="m744.67 591c-.42-9.26.58-17.56 3.19-28.11 5.41 8.94.08 16.55 2.44 23.45 2.91 2.74 8.09.16 11 4.79-5.49 3.06-10.61.87-16.63-.13z"/><path d="m631.86 554.22c1.53 8.72 1.84 17.42-2.38 25.81-3.1-8.76-.81-17.3 2.38-25.81z"/><path d="m769.48 567.24c.86 8.68 1.79 17.48-2.6 25.79-2.94-8.83-.88-17.33 2.6-25.79z"/><path d="m798 596.66c-2.35-8.81-.57-17.33 1.37-26.64 4.17 5.36 3.73 16.72-1.37 26.64z"/></g><path d="m611.11 1071.88c-.94 7.23-4.62 11.44-10.59 11.89-4.89.37-7.89-4.11-7.87-8.49 0-4.78 1.53-10 8.28-9.75 4.95.15 8.73 2.03 10.18 6.35z" fill="#fefbe0"/><path d="m622.15 1084.25c-.95 3.71-2.55 6.58-6.32 7.07a3.91 3.91 0 0 1 -4.71-4.2c.08-3.54 1.66-6.43 5.78-6.64 2.78-.15 4.36 1.52 5.25 3.77z" fill="#fefbe0"/><path d="m837.82 580c7.57-.74 12.93.6 12.57 8.7s-6 8.67-13.51 7.4c.31-5.2.6-10.22.94-16.1z" fill="#aa0440"/><path d="m605.72 555.88c7.84-.67 13.08.93 12.54 9-.55 8.24-6.28 8.31-13.49 7.29.32-5.55.62-10.59.95-16.29z" fill="#aa0440"/><path d="m684.52 571.8c-.83 5.2-3 9.37-8.61 9.27-5.79-.1-9.21-3.86-8.78-9.61.38-5 3.1-8.61 9-8.44s7.76 3.98 8.39 8.78z" fill="#aa0440"/></g></svg>