<svg id="Layer_1" data-name="Layer 1" xmlns="http://www.w3.org/2000/svg" viewBox="0 0 900 1600"><defs><style>.cls-1{fill:#f70061;}.cls-2{fill:#fe5149;}.cls-3{fill:#fc3950;}.cls-4{fill:#010000;}.cls-5{fill:#e1ddeb;}.cls-6{fill:#3a1e7b;}.cls-7{fill:#fee400;}.cls-8{fill:#010101;}.cls-9{fill:#d0905b;}.cls-10{fill:#febf06;}.cls-11{fill:#2b165d;}.cls-12{fill:#d8bd01;}.cls-13{fill:#c5c3cf;}.cls-14{fill:#e0dce9;}.cls-15{fill:#8a5c6a;}.cls-16{fill:#cb8d5f;}.cls-17{fill:#87485b;}.cls-18{fill:#897e81;}.cls-19{fill:#84777b;}.cls-20{fill:#efebec;}.cls-21{fill:#efd302;}.cls-22{fill:#8a7f81;}.cls-23{fill:#d7b429;}.cls-24{fill:#d7bf34;}.cls-25{fill:#875a69;}.cls-26{fill:#d2ba3b;}.cls-27{fill:#8a7e81;}.cls-28{fill:#ac9a65;}</style></defs><title>illustration</title><path class="cls-1" d="M1,829V246a5.259,5.259,0,0,1,4.119-1.466c8.175.411,16.271-1.168,24.415-1.032,27,.452,52.352-6.006,76.767-17.254,20.529-9.458,38.026-22.56,51.561-40.693,11.344-15.2,19.312-32.214,26.126-49.824,16.3-42.125,28.874-85.46,41.846-128.667C226.5,4.836,226.955,2.505,229,1H570c4.892,1.4,8.787,4.539,12.924,7.306C601.458,20.706,619.48,33.9,639.367,44.2c18.464,9.56,37.718,16.453,58.762,15.145,25.9-1.611,49.841-9.9,71.678-24,13.155-8.494,25.631-17.961,38.365-27.057,3.776-2.7,7.38-5.674,11.828-7.28h81V401c-5.652,33.574-15.935,65.964-25.783,98.417-13,42.837-23.308,86.138-27.481,130.809-1.831,19.6-3.388,39.273-1.893,58.84,2.8,36.626,12.15,71.5,31.848,103.038,5.647,9.041,11.4,18.013,17.153,26.989A52.69,52.69,0,0,1,901,831v233a21.019,21.019,0,0,1-3.893,6.841c-16.9,20.17-33.973,40.171-51.721,59.618-23.8,26.082-47.708,52.068-73.031,76.672-24.258,23.57-49.137,46.514-77.737,64.906-45.976,29.566-96.049,48.216-150.29,55.137-18.47,2.357-37.081,3.626-55.719,4.428-30.777,1.324-61.558,1.87-92.361,1.956a759.583,759.583,0,0,0-86.14,5.578c-15.066,1.763-30.031,3.939-44.907,6.988a181.907,181.907,0,0,0-84.966,42.119c-12.159,10.655-24.174,21.5-35.505,32.945-33.11,33.437-63.277,69.353-89.081,108.858C41.431,1551.812,27.84,1573.958,14.076,1596A18.3,18.3,0,0,1,10,1601H1V1188c2.723-10,7.805-19.045,11.569-28.628A405.668,405.668,0,0,0,39.2,1049.048c3.025-31.772-.726-63.13-6.666-94.272-7.183-37.663-17.938-74.43-28.637-111.194C2.491,838.76,2.5,833.749,1,829Z" transform="translate(-1 -1)"/><path class="cls-1" d="M506,1601H18c-.949-2.185.3-3.9,1.335-5.56,20.909-33.488,41.309-67.31,65.109-98.9,23.928-31.757,50.856-60.822,79.694-88.1,15.846-14.988,32.2-29.479,51.519-40.108,19.674-10.828,40.991-16.686,62.89-20.574,24.281-4.311,48.792-6.73,73.4-8.384,22.442-1.509,44.891-2.271,67.365-1.825,20.163.4,40.319-.477,60.411-1.34,30.894-1.327,61.905-2.844,92.3-9.321,59.227-12.621,112.551-37.6,159.088-76.673,27.852-23.385,53.672-48.851,78.582-75.308,11.3-12,22.684-23.916,33.864-36.032,17.625-19.1,34.565-38.788,51.227-58.723,1.627-1.948,2.882-4.667,6.215-4.153v525H794c-9.021-4.394-16.847-10.672-25.248-16.043-17.556-11.227-35.528-21.683-54.806-29.715-23.591-9.829-48.059-13.523-73.65-11.939-25.722,1.593-49.914,7.6-72.332,20.434-17.485,10-34.979,19.992-51.56,31.476A43.5,43.5,0,0,1,506,1601Z" transform="translate(-1 -1)"/><path class="cls-1" d="M1,239V1H221c1.74,1.948.987,4.063.376,6.142-12.69,43.166-25.459,86.314-41.8,128.284-7.519,19.31-16.383,37.922-30.064,53.855-13.417,15.625-30.04,26.639-48.733,34.877-22.545,9.936-45.924,15.581-70.718,15.587-7.612,0-15.276.868-22.939.79C4.969,240.513,2.742,240.7,1,239Z" transform="translate(-1 -1)"/><path class="cls-1" d="M901,431V818c-2.093.324-3.013-1.265-3.84-2.624-8.045-13.235-17.36-25.741-24.055-39.748-15.065-31.514-23.919-64.572-23.731-99.76.282-52.527,8.688-103.8,23.553-154.1,8.407-28.442,17.051-56.817,24.416-85.559C897.87,434.154,897.826,431.35,901,431Z" transform="translate(-1 -1)"/><path class="cls-1" d="M782,1601H519c-.382-2.98,2.075-4.041,3.895-5.214,20.308-13.1,40.837-25.885,62.755-36.11,17.1-7.975,35.485-10.955,54.256-12.339a167.589,167.589,0,0,1,39.735,1.956c19.143,3.15,36.7,10.841,53.7,19.784a397.423,397.423,0,0,1,44.39,26.964C779.513,1597.3,782.113,1598.034,782,1601Z" transform="translate(-1 -1)"/><path class="cls-2" d="M901,1076c-5.745,4.406-9.451,10.645-14.194,15.949-9.738,10.89-18.837,22.356-28.637,33.187-29.371,32.462-59.191,64.524-90.831,94.794-24.879,23.8-50.96,46.227-80.712,63.937a365.4,365.4,0,0,1-124.032,46.22c-14.7,2.61-29.551,3.756-44.412,5.053-21.534,1.88-43.086,2.426-64.668,3.154q-23.719.8-47.407.584c-15.493-.134-31,.289-46.381,1.357-34.524,2.4-69.072,5.124-102.817,13.728A171.768,171.768,0,0,0,187.9,1389.4a687.8,687.8,0,0,0-58.407,55.882c-33.365,35.468-61.812,74.731-87.277,116.185Q30.08,1581.215,18,1601H10c.366-3.325,2.7-5.7,4.336-8.316,16.211-25.947,31.965-52.187,49.482-77.3a657.511,657.511,0,0,1,46.348-59.208c11.015-12.475,22.073-24.935,34-36.49,16.7-16.173,33.454-32.323,52.371-46.058,20.187-14.658,42.857-23.159,66.9-28.619,21.215-4.817,42.772-7.109,64.394-9.135,15.041-1.408,30.1-2.165,45.163-3.088,20.986-1.287,41.958.047,62.9-.9,14.641-.664,29.323-.061,43.9-1.051,30.72-2.087,61.575-3.122,91.85-9.706a367.252,367.252,0,0,0,113.978-45.168c21.67-13.2,41.239-29.082,60.063-46,16.724-15.032,32.965-30.564,48.487-46.813,19.3-20.205,38.545-40.482,57.2-61.277,16.964-18.907,33.111-38.548,49.618-57.865Z" transform="translate(-1 -1)"/><path class="cls-1" d="M583,1H808c.359,2.313-1.51,3.236-2.909,4.219-13.747,9.662-26.952,20.1-41.386,28.778-20.156,12.113-41.882,19.658-65.357,21.285-17.348,1.2-33.555-3.874-49.17-11.047-22.832-10.487-42.883-25.451-63.547-39.428C584.336,3.931,582.622,3.129,583,1Z" transform="translate(-1 -1)"/><path class="cls-1" d="M1,1171V855c3.258.611,3.094,3.606,3.74,5.786,3.5,11.821,6.768,23.711,9.979,35.616,9.252,34.3,17.546,68.8,20.647,104.3,2.612,29.907.057,59.512-6.1,88.858a420.832,420.832,0,0,1-23.314,75.323C4.942,1167.31,4.679,1170.617,1,1171Z" transform="translate(-1 -1)"/><path class="cls-2" d="M901,431c-3.608,8.226-4.923,17.115-7.409,25.665q-11.744,40.39-23.323,80.827A481.579,481.579,0,0,0,854.893,617.4c-1.911,17.634-3.6,35.234-4.041,53-.671,26.755,4.685,52.322,12.492,77.708,6.957,22.625,19.741,42,32.139,61.67,1.756,2.784,3,5.948,5.517,8.228v13c-4.354-4.843-7.155-10.716-10.639-16.132-6.473-10.06-12.947-20.128-19.071-30.4-10.584-17.758-15.93-37.5-21.311-57.241-6.558-24.056-7.32-48.682-5.7-73.185,2.512-38.012,7.081-75.852,17.512-112.691,8.138-28.741,16.6-57.392,24.624-86.164,4.812-17.255,9.054-34.668,13.579-52A13.37,13.37,0,0,1,901,401Z" transform="translate(-1 -1)"/><path class="cls-2" d="M1,239c16.8.238,33.678.156,50.252-2.218,31.945-4.576,61.236-15.839,86.056-37.383,17.742-15.4,28.766-35.158,37.476-56.349C192.311,100.41,205.41,56.269,218.2,12.042,219.254,8.4,221.213,4.97,221,1h8c-13.86,47.883-27.792,95.757-46.314,142.1-7.99,19.993-18.069,38.936-33.11,54.744-15.557,16.351-34.609,27.189-55.478,35.29a181.481,181.481,0,0,1-67.7,12.079c-8.425-.056-16.926.659-25.4.784Z" transform="translate(-1 -1)"/><path class="cls-2" d="M1,1171c4.2-6.087,6.167-13.193,8.741-19.965a402.44,402.44,0,0,0,22.023-84.53c2.291-15.564,3.742-31.352,3.083-47.084a435.5,435.5,0,0,0-11.827-83.43C16.6,909.223,9.43,882.656,1.843,856.2A4.549,4.549,0,0,0,1,855V829c4.111,10.329,6.576,21.168,9.643,31.807,7.169,24.865,13.927,49.853,19.7,75.083a455.786,455.786,0,0,1,9.739,59.735c1.115,12.07,2.319,24.146,1.8,36.257a380.7,380.7,0,0,1-16.122,94.291c-6.075,20.049-13.291,39.691-22.667,58.476C2.5,1185.821,1.7,1186.885,1,1188Z" transform="translate(-1 -1)"/><path class="cls-2" d="M782,1601c-29.134-20.372-59.123-39.22-93.959-48.352-18.77-4.92-37.909-4.72-57.264-3.045-29.681,2.569-55,15.449-79.722,30.566-10.068,6.157-20.323,12-30,18.77A16.051,16.051,0,0,0,519,1601H506c9.2-7.395,19.2-13.634,29.248-19.747,17.329-10.541,34.533-21.376,53.412-29.041a134.923,134.923,0,0,1,39.578-9.237c7.1-.6,14.184-1.809,21.278-1.828a167.506,167.506,0,0,1,72.787,16.019c24.466,11.531,47.1,26.1,69.344,41.325A15.683,15.683,0,0,1,794,1601Z" transform="translate(-1 -1)"/><path class="cls-2" d="M583,1c25.7,17.672,50.554,36.716,80.428,47.4,21.061,7.533,41.907,6.4,63.005.4,24.14-6.863,44.613-20.28,64.379-35.084C796.516,9.443,802.269,5.236,808,1h12c-7.84,6.932-16.776,12.386-25.127,18.629C775.379,34.2,755.339,47.72,731.605,54.7c-11.667,3.43-23.487,5.934-35.625,6.22-16.534.39-32.127-3.817-47.173-10.526-23.994-10.7-44.895-26.4-66.614-40.786C578.047,6.861,574.06,3.875,570,1Z" transform="translate(-1 -1)"/><path class="cls-3" d="M672.85,1004.994c-5.025,5.943-10.157,11.8-15.05,17.849-7.686,9.506-16.8,17.379-26.561,24.685-16.34,12.227-35.152,20.192-52.305,30.993-9.276,5.841-18.44,11.895-28.929,15.49-14.166,4.856-28.888,7.195-43.47,10.306-9.9,2.112-19.631-.953-29.361,1.439-3.506.862-7.575-.235-11.334-.8a76.32,76.32,0,0,0-24.755.119c-8.481,1.507-16.931-.839-25.257.075-15.633,1.717-30.587-1.756-45.755-4.266a230.89,230.89,0,0,1-53.841-15.74c-14.374-6.191-27.68-14.5-41.387-22-23.17-12.668-42.793-30.126-62.593-47.327a295.134,295.134,0,0,1-25.566-25.2,16.84,16.84,0,0,0-6.772-8.73,6.5,6.5,0,0,1-3.124-5.839c1.483-14.168,3.128-28.311,5.426-42.369.416-2.549.426-5.395,3.21-6.885a1.777,1.777,0,0,1,1.365.9c1.8,9.052,5.414,17.725,6.1,27,.716,9.7,4.137,18.674,6.976,27.808a10.455,10.455,0,0,1,.587,3.412c0,3.4,1.748,4.8,5.015,4.544,4.012-.315,8.193.894,12.227-1.158-1.163-5.028-7.315-3.941-9.043-7.908,7.234-14.854,8.652-31.153,12.164-46.979,4.41-19.874,4.114-40.46,9.683-60.052,3.55-12.493,5.549-25.333,9.105-37.788,3.656-12.808,4.173-25.985,4.474-39.045a298.084,298.084,0,0,1,2.8-35.78c3.187-22.021,3.068-43.743-2.069-65.406,5.083-10.558,1.228-20.069-3.632-29.354-5.461-10.434-5.766-21.688-5.755-33.038-.556-12.084,1.429-24.149.032-36.25-1.238-10.727,5.2-18.531,10.842-26.5a42.4,42.4,0,0,1,8.058-8.107c1.637-1.331,3.514-2.917,5.542-.376a65.064,65.064,0,0,1,1.94,16.767q.087,72.068.022,144.135a29.024,29.024,0,0,1-.48,6.447c-8.579,24.34-9.68,48.8-1.18,73.429a23.1,23.1,0,0,1,1.362,4.782c1.191,8.27,1.243,16.587,1.231,24.92-.049,36.645.027,73.289-.077,109.934a29.645,29.645,0,0,0,3.291,14.417,68.483,68.483,0,0,0,24,26.209c4.547,2.88,9.616,3.472,14.863,3.468q42.974-.029,85.948-.01,83.451,0,166.9,0c2.332,0,4.717-.311,6.987.106,17.581,3.229,30.323-5.8,42.481-16.493,2.363-2.079,4.016-5.563,8.115-4.763a4.781,4.781,0,0,1,1.278,3.147c.179,9.209.829,18.426-.374,27.607-1.114,2.827-3.718,4.107-6.017,5.709-1.738,1.211-3.89,1.961-4.733,4.186.243,1.955,1.777,2.382,3.246,2.49a62.1,62.1,0,0,0,14.892-.265c4.063-.679,6.191-2.893,5.867-7.173-.113-1.488.149-2.984.014-4.487-.251-12.066,2.46-23.785,4.509-35.529,1.828-10.479,3.334-20.985,4.754-31.514,1.959-12.631,3.871-25.268,5.917-37.887,2.295-14.152,5.98-27.971,9.433-41.831,3.5-14.047,6.641-28.15,9.306-42.368.816-4.349,1.3-4.7,4.494-2.674,1.249,2.86.96,5.9.884,8.864-.558,21.8.731,43.508,2.767,65.208.886,9.441-.958,18.892-1.233,28.355-.043,1.482-.556,3-.3,4.462,3.5,19.869,1.452,40.121,4.3,60.078,1.257,8.8,1.2,17.877,1.3,26.848C675.14,1001.417,675.017,1003.705,672.85,1004.994Z" transform="translate(-1 -1)"/><path class="cls-3" d="M435,236.77c3.952-9.278,10.871-16.493,17.018-24.217,7.922-9.953,16.087-19.713,24.818-28.982a8.483,8.483,0,0,0,1.087-2.18A1.539,1.539,0,0,1,479,180c7.314-7.478,14.38-15.221,22.01-22.361,7.862-7.359,15.816-14.754,25.941-19.115,1.069-.46,2.088-1.062,3.188-1.42,14.7-4.793,29.322-9.766,43.707-15.461,8.7-3.443,17.79-2.937,27-1.964,22.845,2.415,34.16,18.2,43.342,36.557,7.124,14.246,10,29.862,13.96,45.1a58.277,58.277,0,0,1,1.768,13.747c.142,10.464,1.362,20.893,1.527,31.276.121,7.641.649,15.606-1.156,23.287a9.709,9.709,0,0,0-.258,2.473c.443,14.976-2.058,29.921-.911,44.867.949,12.359,3.082,24.623,4.287,36.969,2.068,21.2,11.434,39.864,20.981,58.205,6.633,12.745,16.027,24.02,23.5,36.367,10.058,16.612,20.375,33.112,28.179,51,2.057,4.714,4.636,9.2,6.975,13.791,1.116,4.015.062,8.144.676,12.207.575,3.805,1.891,6.574,6.323,6.456,2.837,2.468,4.372,5.454,3.7,9.316-5.055.076-5.661.7-4.126,5.356,1.047,3.175,1.294,6.8,3.9,9.11,2.451.225,2.046-2.715,3.9-2.849,2.2,3.571,4.21,7.207,4.058,11.6-1.3.664-3.006-.194-4.55,1.508.2,4.309,2.181,8.4,4.309,12.4,1.013,1.9,3.212,1.206,4.922,1.53,3.2,2,2.161,5.386,2.689,8.26-1.417.537-2.95-.769-5,.743a70.879,70.879,0,0,0,4.976,14.435c1.115,2.425,3.248.386,4.9.585,3.514,6.5,4.3,13.833,5.939,20.832,3.135,13.37,6.9,26.627,8.808,40.259,1.1,7.858,2.507,15.658,2.668,23.673.207,10.292.824,20.573.974,30.881.269,18.47-1,36.887-2.326,55.242-1.663,22.976-5.438,45.731-13.712,67.471a86.249,86.249,0,0,1-6.884,13.269c-7.6,12.779-12.768,26.664-18.257,40.39-5.1,12.766-12.5,24.2-20.232,35.419-8.1,11.752-16.285,23.463-24.964,34.786-4.475,5.839-8.691,12.193-15.5,15.862-2.654-2.324-1.6-5.261-1.049-7.91,3.541-17.093,6.807-34.25,11.262-51.139,3.23-12.241,5.176-24.733,7.5-37.151a23.373,23.373,0,0,0-.138-10.418c-3.634-13.37-2.049-26.712-.2-40.09a264.926,264.926,0,0,1,7.49-36.628c3.272-11.448,4-23.243,5.152-34.977a92.643,92.643,0,0,1,1.334-10.868c1.467-6.49,3.13-12.946,2.917-19.692a4.926,4.926,0,0,1,1.116-3.25c2.381-1.6,5.148-1.087,7.751-1.277,3.3-.24,4.991-1.78,4.674-5.072-.693-7.193.528-14.263,1.13-21.378a55.175,55.175,0,0,0-.855-15.9c-1.148-5.567-1.6-11.192-.19-16.812,2.194-3.369,6.267-3.118,9.339-4.81,1.707-.94,3.477-1.777,5.22-2.651,5.279-2.911,6.334-4.335,4.588-9.95-2.293-7.371-1.313-14.374.406-21.6,2.025-8.511-2.42-15.5-6.389-22.357-2.78-4.8-7.558-7.9-11.652-11.536-1.488-1.324-3.174-2.43-4.333-4.1-1.3-1.942-1.61-4.243-2.322-6.4-1.122-4.514-2.148-9.046-3.393-13.541-2.028-7.317-6.885-12.031-13.124-15.585a225.025,225.025,0,0,0-21.842-10.855c-3.769-1.442-7.76-2.124-11.584-3.393a3.476,3.476,0,0,1-1.548-1.794,2.136,2.136,0,0,1,.674-2.19c4.393-.226,8.416,1.693,12.707,2.185,7.2.826,9.874-1,9.487-8.185-.661-12.286.714-24.581-.481-36.849-1.51-15.51-15.748-28.471-31.261-28.3a42.3,42.3,0,0,0-17.015,3.335c-7.655,3.407-12.412,9.03-14.754,17.123-3.334,11.516-5.043,23.418-8.615,34.87a17.212,17.212,0,0,0-.225,8.9c1.169,5.253,4.3,7.974,9.671,8.54,2.439.258,5.045-.358,7.229,1.324-.791,4.611-5.272,3.725-8.037,5.411-4.989.862-9.966,1.716-14.714,3.629-1.717.692-3.78,1.661-5.17-.786-1.14-2.884-.829-5.909-.816-8.884.143-32.588-.063-65.177.14-97.766.108-17.284-.027-34.581-.144-51.872-.018-2.653-.178-5.328.566-7.921.67-2.246,2.683-2.7,4.544-3.425,11.254-4.385,18.58-15.251,19.348-27.181,1.023-15.872-5.829-26.767-19.734-33.718-1.475-.738-3.107-1.275-3.866-2.967a178.5,178.5,0,0,1-1.738-31.853c.542-19.579-9.879-32.606-25.611-42.072-5.273-3.172-11.582-3.838-17.919-3.3a276.852,276.852,0,0,1-45.891,0c-2.662-.218-5.325-.228-7.99-.229-26.322,0-52.643.029-78.965-.04C440.171,238.7,437.144,239.39,435,236.77Z" transform="translate(-1 -1)"/><path class="cls-4" d="M435,236.77c27.659.146,55.319.235,82.978.459,16.994.138,33.986.592,50.979.678,5.914.03,11.69-1.392,17.773-.007,11.508,2.62,19.338,10.055,25.916,18.9a42.753,42.753,0,0,1,8.574,27.41c-.3,10.8.516,21.635.844,32.454,1.679,2.078,1.813,4.556,1.818,7.064q.05,25.836.011,51.673a12.959,12.959,0,0,1-1.667,7.141c-.166,20.136.27,40.274.308,60.4.048,25.29.087,50.594-.19,75.891-.117,10.656-.071,21.315-.1,31.972-3.6,5.035-9.658,5.8-14.67,8.364-.764.392-1.31-.747-1.7-1.484-.964-2.747-.656-5.6-.716-8.414-.479-22.428-1.564-44.849-.9-67.292-.265-32.49-.064-64.982-.119-97.473-.028-16.83.021-33.66-.028-50.49-.009-2.974.355-6.02-.99-8.844-2.731-3.922-4.812-4.448-11.212-2.794a105,105,0,0,1-20.951-.123c-7.4-1.676-14.891-.582-22.334-.726-4.608-.089-9.311-.793-13.846.806-15.111,1.046-30.24.308-45.361.457a16.721,16.721,0,0,0-2.9.022c-36.621.031-73.241.15-109.861-.019a11.369,11.369,0,0,0-1.923-.2c-11.229.351-22.458.431-33.685-.032-18.324.585-36.655.135-54.983.253-11.228.072-11.232.024-11.236,11.269q-.009,23.5-.011,47a26.587,26.587,0,0,1-.556,7.441c-4.542,3.428-4.448,7.2-.915,11.341a5.637,5.637,0,0,1,1.018,3.257c.656,4.726.119,9.457.157,14.185.559,7.579.285,15.161.195,22.743-.625,16.483-.047,32.972-.282,49.45-1.221,8.691-7.677,14-13.068,19.959-1.153,1.275-2.714,1.155-3.506-.805-.875-2.416-.7-4.933-.706-7.421-.025-14.151.023-28.3-.037-42.452a24.354,24.354,0,0,1,1.688-9.754l.262-64.827c4.481-1.865,4.6-2.232,2.15-6.211-1.089-1.769-2.91-3.239-2.413-5.686-.278-27.8-.912-55.611-.706-83.412.133-17.905,6.833-33.171,22.779-42.71,10.867-6.5,22.687-10.439,35.733-10.262,37.132.5,74.268.718,111.4,1.028C430.345,236.971,432.673,236.834,435,236.77Z" transform="translate(-1 -1)"/><path class="cls-5" d="M259.2,510.212c4.92-6.177,11.006-11.5,13.948-19.123.779-1.222.752-2.742,1.461-3.994a143.887,143.887,0,0,0,15.875-25.55c1.444-2.936,3.6-4.152,6.8-3.517a110.758,110.758,0,0,1,12.978,4.8,2.43,2.43,0,0,1,.327,2.366c-4.632,7.886-3.256,17.5-7.374,25.516-1.081,2.789-1.887,5.686-3.154,8.408-2.245,5.049-5.838,9.342-8.074,14.4-2.4,6.181-4.309,12.59-8.439,17.959-9.1,12.876-22.612,20.934-34.054,31.252-12.7,11.454-19.138,25.327-16.545,42.659,1.424,9.513,3.069,18.993,3.844,28.592a142.088,142.088,0,0,0,2,22.2,29.5,29.5,0,0,0,3.353,9.256,67.724,67.724,0,0,1,6.42,16.112c1.171,4.983,1.133,9.831-2.718,13.88-1.58,3.108-4.554,2.212-7.016,2.205a379.287,379.287,0,0,0-41.305,1.8c-15.716,1.67-30.57,6.214-45.214,11.767-4.34,1.646-8.557,3.722-13.368,3.637-5.233-1.853-6.409-6.557-7.2-11.11-1.422-8.216-2.31-16.541.251-24.732,2.154-6.884.6-13.871.851-20.806.764-2.292,2.553-3.234,4.739-3.95,8.577-2.807,17.5-3.547,26.363-4.744,8.421-1.138,16.661-2.994,24.379-6.691,2.224-1.652,4.744-1.064,7.218-.97,4.463.168,7.178-2.145,7.843-6.558.806-5.345-1.221-9.77-4.451-13.811-1.683-2.106-3.68-1.924-5.791-.772-2.171,1.184-4.006,3.032-6.625,3.346-12.208-.9-24.333-.956-36.034,3.375a1.2,1.2,0,0,1-1.2-.086c.567.916,1.069-.222,1.59.023,6.818-2.64,13.674-3.851,20.89-1.5,5.051,1.645,10.538.583,15.648,2.133a24.723,24.723,0,0,1,1.239,13.749c-7.837,4.625-16.562,6.422-25.4,7.73-9.138,1.353-18.356,2.236-27.188,5.168-2.58.857-4.549,2.669-6.609,4.335-6.046,3.559-12.756,3.6-19.362,3.077-8.5-.677-13.749-8.725-11.26-18.071,2.7-7.817,2.046-16.074,3.061-24.108,2.07-16.381,3.894-32.844,11.321-47.838a64.5,64.5,0,0,1,19.013-23.334c9.682-7.211,20-13.569,29.985-20.374,3.846-2.621,7.924-4.033,12.606-3.321,2.723,1.348,3.192,4.11,3.944,6.588,2.972,9.794,5.589,11.127,15.027,7.411,2.77-1.05,3.622-3.528,4.578-5.985,1.044-2.679,2.427-5.064,5.9-4.845,4.408,2.556,9.03,2.236,13.935,1.708,10.184-1.095,19.645-4.384,28.968-8.289a17.776,17.776,0,0,0,7.978-7.224C256.214,512.709,257.022,510.785,259.2,510.212Z" transform="translate(-1 -1)"/><path class="cls-6" d="M138.722,714.1c14.773-4.453,28.771-11.361,44.094-14.061,16.9-2.978,33.91-4.742,51.117-3.994,3.976.173,7.993.5,11.916-.623,4.122,16.062,6.338,32.263,4.4,48.908-1.728,14.82-3.9,29.663-4.307,44.539-.361,13.281-.362,26.681-2.895,39.589-2.723,13.87-5.888,27.741-9.724,41.435a142.579,142.579,0,0,0-5.469,29.712c-.688,11.191-3.5,22.215-4.971,33.318-1.617,12.2-5.7,23.8-7.046,36a18.505,18.505,0,0,1-6.927,12.807c-3.05,2.84-6.636,2.258-10.233,1.6-3.827-10.583-6.974-21.256-7.862-32.628-.469-6.007-2.73-11.887-4.31-17.79a14.264,14.264,0,0,1-.43-4.918c1.83-2.389.57-5.178.939-7.764,1.3-9.147,5.026-17.586,7.321-26.423,3.388-13.045,6.158-26.249,10-39.184a61.279,61.279,0,0,1,3.378-9.911c4.854-9.8,5.98-20.516,6.413-31.087.934-22.794-1.052-45.54-2.7-68.268a42.885,42.885,0,0,0-2.3-10.728c-2.769-8.108-5.314-16.266-6.379-23.47,2.152,10.913,3.958,23.2,5.824,35.489,3.188,21,3.31,42.11,3.123,63.26a73.789,73.789,0,0,1-1.53,15.365c-4.878,22.116-10.73,43.95-17.314,65.637-3.333,10.978-7.549,22.115-5.979,34.095a2.336,2.336,0,0,1-.969,2.18c-3.427,8.48-3.352,17.61-4.857,26.443-1.323,7.763-1.142,15.739-3.189,23.411a13.18,13.18,0,0,1-12.959,3.823c-1.018-6.277-.6-12.714-2.133-18.933-2.138-4.551-1.374-9.5-1.848-14.259-1.454-14.58-4.579-28.929-6.031-43.486-1.8-18.072-1.97-36.248,1.565-54.122a146.657,146.657,0,0,0-4.723-76.246c-5.621-16.885-10.534-34.009-13.641-51.582C137.594,719.483,136.7,716.672,138.722,714.1Z" transform="translate(-1 -1)"/><path class="cls-7" d="M722.81,753c-.874,21.271-4.7,42.047-9.992,62.636-3.215,12.513-4.181,25.447-5.753,38.247-.715,5.826.472,11.576,1.877,17.225,2.673,10.747-.514,21.011-2.367,31.415-3.193,17.924-8.909,35.293-11.881,53.232-1.453,8.774-5.2,17.174-4.48,26.3a42.926,42.926,0,0,0-4.207,16.684c-3.077,4.562-7.055,5.128-11.837,1.684-1.3-25.348-3.394-50.644-4.574-76.009-.572-12.3-.11-24.407.166-36.629.246-10.9-1.258-21.842-2.038-32.762-.105-1.475-.7-2.929-.708-4.395-.133-15.149-.194-30.3-.275-45.449a14.732,14.732,0,0,1-.817-10.028c-5.123,15.777-10.544,31.474-14.9,47.474-4.448,16.341-8.472,32.823-10.744,49.648-1.7,12.582-.121,25.216-.3,37.825-.3,10.443-2.415,20.63-4.141,30.889-2.051,12.19-4.627,24.329-4.979,36.757-4.264,4.132-12.561,4.272-15.936.269l-.19-32.481c-1.605-1.778-1.55-4.009-1.487-6.146.875-29.667-1.81-59.148-4.734-88.605-2.321-23.37-2.477-46.8-1.786-70.21.366-12.395,1.437-24.833,2.971-37.182.367-2.951.773-5.957,2.3-8.622,1.584-1.989,3.073-.619,4.231.386,4.57,3.968,9.437,3.429,14.446,1.2a57.735,57.735,0,0,1,10.987-3.122c7.879-1.783,15.334-.749,22.049,3.511,7.977,5.06,15.766,4.292,23.643.283,7.06-3.593,14.7-5.231,22.334-6.783C714.326,749.3,718.964,749.587,722.81,753Z" transform="translate(-1 -1)"/><path class="cls-3" d="M138.722,714.1c2.093,19.4,7.611,38.043,13.785,56.368,9.238,27.423,10.649,54.835,5.192,83.2-3.22,16.741-2.939,33.933-.946,51.029,2.22,19.05,7.029,37.84,6.007,57.231a234.82,234.82,0,0,1-29.041-47.887c-5.407-11.754-12.006-22.962-15.692-35.47-5.01-17-9.981-34-14.171-51.242-3.556-14.634-8.184-29.013-11.169-43.814-2.423-12.019-3.424-24.2-4.76-36.363-1.251-11.391-1.66-22.79-2.054-34.231-.609-17.686,2.7-34.625,7.818-51.368,1.785-5.843,3.435-11.728,5.146-17.595.07,1.161.071,2.331.219,3.483,1.345,10.44,7,14.5,17.486,12.993,4.244-.612,8.65-.238,12.474-2.71,1.722-1.5,3.407-2.338,4.9.277,2.3,9.152.425,18.084-1.342,27.044-1.443,7.316-.023,14.516,1.507,21.625A11.3,11.3,0,0,0,138.722,714.1Z" transform="translate(-1 -1)"/><path class="cls-3" d="M259.2,510.212c-3.357,7.4-8.638,11.895-16.564,15-9.2,3.6-18.621,4.961-28.073,6.779-4.093.788-7.915.526-10.5-3.427-2.1-2.284-1.482-4.527.088-6.757a12.2,12.2,0,0,1,4.239-2.46c5.9-2.481,8.705-6.913,7.918-13.162-.479-3.8-1.139-7.493.778-11.116.826-1.559-.061-2.83-1.138-3.975-1-1.064-2.253-2.018-1.988-3.761,2.4-3.521,6.107-5.473,9.576-7.593a133.111,133.111,0,0,0,35.275-30.705Z" transform="translate(-1 -1)"/><path class="cls-8" d="M174.843,524.042a38.282,38.282,0,0,1-13.045-15.25,69.253,69.253,0,0,0-8.772-13.77c-8.64-10.427-5.905-22.365,4.957-30.118A96,96,0,0,1,190.5,449.879c2.9-.742,4.6-3.074,6.46-5.236,1.452-1.689,2.793-3.815,5.732-3.034,2.8.743,3.4,2.861,4.564,5.206,3.723,7.507,2.258,14.317-1.485,21.125-.462,1.259-.964,2.6-2.213,3.2-6.074,2.893-10.055,8.495-15.8,11.947-3.807,2.288-3.744,8.745-9.671,9.968-1.291.266-.655,4.917-.177,7.524a83.936,83.936,0,0,0,2.71,9.551,16.4,16.4,0,0,1-.179,11.2C179.467,523.772,178.032,525.88,174.843,524.042Z" transform="translate(-1 -1)"/><path class="cls-9" d="M174.843,524.042c4.427-1.11,6.54-6.5,4.626-12.455-1.774-5.519-3.816-10.949-3.7-16.873.034-1.792-.395-3.677,1.373-5.374,1.965-.1,4.186,1.739,6.609-.082-2.186-4.39-.29-6.979,4.149-8.272,3.043-.886,5.018-3.251,6.9-5.513,2.985-3.586,7.463-4.823,10.977-7.533,1.316,5.782,2.713,11.534,5.3,16.924a3.909,3.909,0,0,0,2.882,2.464c1.128.957,2.3,1.865,3.373,2.879,1.887,1.783,3.741,3.62.866,6.112-1.812,1.569-1.331,3.7-1.108,5.608,1.551,13.247.131,15.67-12.066,20.089-2.942,1.062-5.853.259-8.777-.122a40.224,40.224,0,0,0-8.971-.56c1.792,4.96,3.8,9.39,5.768,13.837.713,1.61,2.012,3.112,1.079,5.078-9.43,4.666-14.131,2.461-16.4-7.451a61.391,61.391,0,0,0-2.9-7.808Q174.851,524.516,174.843,524.042Z" transform="translate(-1 -1)"/><path class="cls-7" d="M759.061,1051.906a16.034,16.034,0,0,1-2.609-.02c-6.549-.965-7.49-3.138-3.614-8.273,5.283-7,10.692-13.9,15.821-21.009,2.654-3.676,4.285-2.666,6.756.266,5.127,6.081,3.849,12.155.747,18.407C772.736,1048.182,767.659,1052.562,759.061,1051.906Z" transform="translate(-1 -1)"/><path class="cls-7" d="M356.56,140.627a259.689,259.689,0,0,1-25.532,10.785c-3.061-10,.485-18.115,8.661-21.041C345.821,128.177,353.779,132.759,356.56,140.627Z" transform="translate(-1 -1)"/><path class="cls-8" d="M164.893,980.868l12.959-3.823c.2,3.711,3.682,4.48,5.916,6.1,2.815,2.044,4.034,4.16,2.919,7.478-6.124.963-12.291.435-18.416.249C163.2,990.72,162.228,987.388,164.893,980.868Z" transform="translate(-1 -1)"/><path class="cls-8" d="M674.17,1000.426c4.177,1.07,8.229,1.254,11.837-1.684.562,3.37,1.615,6.418,4.983,8.083a4.292,4.292,0,0,1,1.45,1.356c1.656,2.3,5.245,4.365,3.018,7.575-2.023,2.918-5.185.8-7.741-.142-3.254-1.2-6.446-2.58-9.628-3.967-2.908-1.268-4.977-3.267-5.239-6.653Z" transform="translate(-1 -1)"/><path class="cls-10" d="M384.983,173.294c-.093,3.857-2.838,6.132-6.5,5.134-4.2-1.148-7.654,1.513-11.523,2.04-2.356.321-4.938,1.4-5.77-1.751-.862-3.261,2.127-3.6,4.271-4.3,4.344-1.4,8.8-2.159,12.626-5.231C381.327,166.594,385.084,169.113,384.983,173.294Z" transform="translate(-1 -1)"/><path class="cls-10" d="M479,180l-1.072,1.391c-5.175,1.473-10.679-.492-15.882,1.715-1.744.74-3.765-.443-4.51-2.836-.691-2.222-.808-4.209.813-6.038a3.98,3.98,0,0,1,5.413-.656c3.432,2.1,7.112,2.459,10.961,2.327C477.518,175.808,479.169,176.967,479,180Z" transform="translate(-1 -1)"/><path class="cls-10" d="M727.376,272.2a4.3,4.3,0,0,1,1.491.729,113.806,113.806,0,0,1,11.344,14.325c.873,1.253.348,2.609-.767,3.537a2.664,2.664,0,0,1-4-.232c-3.717-4.42-7.481-8.821-10.858-13.5C722.883,274.7,724.5,272.019,727.376,272.2Z" transform="translate(-1 -1)"/><path class="cls-10" d="M258.81,372.308c1.526,2.332,3.065,4.656,4.572,7,.924,1.437,1.643,3.036.538,4.6-1.386,1.957-3.171,1.081-4.847.3-2.41-4.58-5.951-8.309-9.161-12.295-1.219-1.514-2.778-3.429-.662-5.2,2.086-1.747,3.968-.57,5.538,1.242C256.081,369.445,257.466,370.859,258.81,372.308Z" transform="translate(-1 -1)"/><path class="cls-10" d="M773.7,603.975c-.938,1.3-1.51,3.186-3.678,2.718-1.875-.406-2.515-1.981-3.063-3.606q-1.832-5.433-3.727-10.844c-.685-1.95-2.542-4.037,0-5.775,2.343-1.6,4,.284,5.6,1.743C770.594,593.423,773.034,598.426,773.7,603.975Z" transform="translate(-1 -1)"/><path class="cls-10" d="M762.29,342c-.165-2.7.4-4.258,2.342-4.681,1.992-.434,3.174.833,3.635,2.6q1.818,6.979,3.423,14.015c.41,1.786-.04,3.417-2.022,3.968a2.9,2.9,0,0,1-3.826-2.254C764.515,350.851,763.327,346.015,762.29,342Z" transform="translate(-1 -1)"/><path class="cls-10" d="M238.4,340.532a3.28,3.28,0,0,1,2.679,2.02c2.073,4.328,4.278,8.594,6.374,12.912.87,1.794,1.065,3.666-1.021,4.736-2.1,1.08-3.583-.206-4.426-1.968-2.213-4.627-4.763-9.1-6.23-14.079C234.96,341.391,236.656,341.054,238.4,340.532Z" transform="translate(-1 -1)"/><path class="cls-10" d="M742.251,500.381c1.131-4.838,1.936-8.923,3.077-12.911.643-2.25,1.878-4.8,4.8-3.91,2.822.857,1.924,3.366,1.353,5.49-1.078,4.006-2.054,8.041-3.18,12.034-.549,1.947-1.753,3.36-4.021,2.6A2.916,2.916,0,0,1,742.251,500.381Z" transform="translate(-1 -1)"/><path class="cls-7" d="M717.055,183.391c-3.6-2.765-6.927-5.17-10.063-7.8-1.065-.893-2.749-1.347-2.957-3.09,3.109-3.788,7.678-4.915,11.11-2.759C719.339,172.38,720.165,177.223,717.055,183.391Z" transform="translate(-1 -1)"/><path class="cls-10" d="M683.059,237.459c-.358,2.781-1.867,3.956-4.166,2.9-4.367-2.009-8.6-4.322-12.828-6.618a2.843,2.843,0,0,1-1.4-3.826,2.564,2.564,0,0,1,3.222-1.719c4.984,1.825,9.867,3.927,14.037,7.318A6.172,6.172,0,0,1,683.059,237.459Z" transform="translate(-1 -1)"/><path class="cls-10" d="M744.7,296.185c3.258-.048,12.365,13.857,11.092,16.3-1.249,2.395-3.4,2.229-4.882.476a58.5,58.5,0,0,1-8.135-12.462C741.7,298.261,742.9,296.741,744.7,296.185Z" transform="translate(-1 -1)"/><path class="cls-7" d="M157.349,369.923c-2.838,3.03-5.25,5.773-7.845,8.332-2.8,2.762-5.652,2.089-5.988-1.664-.341-3.807.454-7.509,4.585-9.585C152.068,365.013,154.664,366.547,157.349,369.923Z" transform="translate(-1 -1)"/><path class="cls-10" d="M766.144,579.952c-3.123,2.672-5.376,1.9-6.795-1.784q-1.779-4.613-3.389-9.291c-.638-1.859-1.518-3.9.614-5.386,1.883-1.314,3.419-.094,4.89,1.023C762.109,569.938,766.089,574.35,766.144,579.952Z" transform="translate(-1 -1)"/><path class="cls-10" d="M750.033,531.982c-3.467,2.709-5.885,1.7-6.774-2.344-1.183-5.384-2.757-10.85-.225-16.319,2.631.035,4.71,1.036,4.777,3.9C747.927,522.252,749.418,527.044,750.033,531.982Z" transform="translate(-1 -1)"/><path class="cls-10" d="M757.405,552.915c-.646,1.838.5,4.77-2.716,5.06-3.194.289-3.464-2.506-4.223-4.605-.953-2.638-1.756-5.33-2.664-7.985-.668-1.953-1.19-3.9.773-5.413,2.217-1.7,3.616.192,5.162,1.325q.329,1.329.658,2.656a4.337,4.337,0,0,0,.458,1.258C755.075,547.987,756.353,550.414,757.405,552.915Z" transform="translate(-1 -1)"/><path class="cls-10" d="M766.313,439.483c-.957,4.172-1.594,8.828-4.875,12.4-1.467,1.6-3.464,2.2-5.291.615-1.861-1.614-.873-3.166.506-4.644,2.5-2.682,2.364-6.423,3.689-9.584.7-1.665,1.8-2.844,3.762-2.51C765.963,436.074,766.226,437.585,766.313,439.483Z" transform="translate(-1 -1)"/><path class="cls-10" d="M237.008,328.425c.1,2.533-.222,3.982-2,4.431a2.972,2.972,0,0,1-3.813-2.3c-1.215-4.119-2.282-8.282-3.329-12.448a2.831,2.831,0,0,1,1.709-3.675,2.946,2.946,0,0,1,3.957,2.044C234.965,320.687,236.039,325.017,237.008,328.425Z" transform="translate(-1 -1)"/><path class="cls-10" d="M771.238,418.639c.387,3.321-1.4,6.593-2.43,10.045a2.992,2.992,0,0,1-5.845-1.283c.788-4.339,1.761-8.652,2.841-12.929.392-1.555,1.72-2.692,3.386-2.108C772.068,413.371,771.72,415.831,771.238,418.639Z" transform="translate(-1 -1)"/><path class="cls-10" d="M774.948,374.306c.029,2.885-.568,5.072-3.257,5.235-2.358.143-2.652-1.881-2.894-3.815-.41-3.273-1.082-6.512-1.534-9.781-.293-2.116.061-4.185,2.546-4.643,2.336-.431,3.161,1.355,3.51,3.272C773.939,367.982,774.467,371.406,774.948,374.306Z" transform="translate(-1 -1)"/><path class="cls-10" d="M224.039,271.534c.2-1.559.531-4.349.9-7.135.3-2.246,1.344-3.881,3.859-3.5,2.476.376,2.348,2.439,2.215,4.288-.26,3.626-.633,7.244-.88,10.871-.134,1.957-.462,3.815-2.871,3.851-2.287.033-3.067-1.648-3.207-3.652C223.973,275.1,224.039,273.94,224.039,271.534Z" transform="translate(-1 -1)"/><path class="cls-10" d="M223.882,294.788c0-1.29-.027-2.12,0-2.948.091-2.3.585-4.685,3.35-4.632,3,.057,2.915,2.671,2.785,4.854a34.135,34.135,0,0,0,1.03,9.356c.411,1.883.571,3.87-1.8,4.452-2.476.61-3.622-1.108-4.2-3.2A25.825,25.825,0,0,1,223.882,294.788Z" transform="translate(-1 -1)"/><path class="cls-10" d="M333.57,188.275a2.663,2.663,0,0,1-1.9,2.631q-6.173,2.452-12.331,4.937c-1.558.625-2.979.558-3.848-1.058a3.049,3.049,0,0,1,1.392-4.267,107.818,107.818,0,0,1,12.531-4.68A3.039,3.039,0,0,1,333.57,188.275Z" transform="translate(-1 -1)"/><path class="cls-10" d="M692.489,242.29c1.756-.066,11.721,6.411,12.257,7.764a2.938,2.938,0,0,1-.346,3.273,2.87,2.87,0,0,1-3.2.791c-4.055-1.589-7.352-4.417-10.8-6.965a2.45,2.45,0,0,1-.381-3.209A3.326,3.326,0,0,1,692.489,242.29Z" transform="translate(-1 -1)"/><path class="cls-10" d="M758.019,464.7c-.655,3.51-3.186,7.117-4.656,11.138-.385,1.053-1.868,1.32-3.072.636a3.607,3.607,0,0,1-2.014-3.721c.726-4.3,3.022-7.985,5.1-11.713.591-1.058,1.954-1.159,3.132-.542C757.9,461.219,758.115,462.5,758.019,464.7Z" transform="translate(-1 -1)"/><path class="cls-10" d="M239.374,244.3a42.161,42.161,0,0,1-4.122,10.423c-1.022,1.686-2.487,2.843-4.517,1.639-1.724-1.022-1.72-2.659-.956-4.343,1.422-3.139,2.747-6.33,4.336-9.383.611-1.173,1.174-3.028,3.186-2.446C239.279,240.76,239.494,242.414,239.374,244.3Z" transform="translate(-1 -1)"/><path class="cls-10" d="M774.147,396.134c-.179,2.188-.2,4.529-.614,6.8-.305,1.682-1.258,3.209-3.376,2.916-1.852-.256-2.293-1.7-2.277-3.316.035-3.485,0-6.977.207-10.454.133-2.249.805-4.552,3.722-4.253,2.89.3,2.233,2.791,2.328,4.692C774.194,393.676,774.147,394.839,774.147,396.134Z" transform="translate(-1 -1)"/><path class="cls-10" d="M251.256,223.936c1.988,1.6,2.054,4.123-.317,6.83-1.739,1.987-3.457,3.992-5.231,5.946-1.258,1.386-2.731,2.9-4.626,1.287-2.14-1.815-1.382-4.071.283-5.641C244.475,229.428,247.863,226.794,251.256,223.936Z" transform="translate(-1 -1)"/><path class="cls-10" d="M296.565,205.039c-2.269.078-3.588-.216-4.162-1.638-.675-1.674.168-2.95,1.588-3.715a38.79,38.79,0,0,1,9.563-3.979c1.758-.408,3.413-.338,4.191,1.549s-.244,3.289-1.895,4.017C302.545,202.73,299.157,204,296.565,205.039Z" transform="translate(-1 -1)"/><path class="cls-7" d="M714.359,438.146c-1.47-1.235-2.747-2.261-3.971-3.346-1.957-1.737-3.88-3.513-5.793-5.251,2.958-3.907,7.023-4.689,10.28-2.2C718.042,429.77,717.992,433.647,714.359,438.146Z" transform="translate(-1 -1)"/><path class="cls-10" d="M765.46,331.238c-.105,1.815-.474,3.258-2.28,3.627a2.732,2.732,0,0,1-3.229-1.732c-1.382-3.344-2.7-6.723-3.851-10.151a2.477,2.477,0,0,1,1.449-3.294,3.337,3.337,0,0,1,3.97,1.24C764.11,323.938,764.46,327.836,765.46,331.238Z" transform="translate(-1 -1)"/><path class="cls-10" d="M341.275,185.73c-.981-2.48-.219-3.922,1.806-4.663a84.012,84.012,0,0,1,8.89-2.943c1.44-.351,3.639-.867,4.231,1.337a3.388,3.388,0,0,1-2.608,4.216C349.654,184.791,345.791,186.572,341.275,185.73Z" transform="translate(-1 -1)"/><path class="cls-10" d="M267.433,212.607c1.809.123,2.793.409,3.25,1.4.584,1.27.691,2.721-.478,3.642a35.022,35.022,0,0,1-9.245,5.5,2.883,2.883,0,0,1-3.512-1.1c-.627-.877-.779-2.215-.034-2.751C260.846,216.835,264.433,214.584,267.433,212.607Z" transform="translate(-1 -1)"/><path class="cls-10" d="M720.741,266.41c-.47,2.2-2.075,3.448-4.222,2.1A21.232,21.232,0,0,1,709.3,261.1c-1.087-1.931-.5-4.015,2.43-4.083C714.125,256.964,720.825,263.777,720.741,266.41Z" transform="translate(-1 -1)"/><path class="cls-10" d="M283.463,205.088c2.289-.012,3.683.692,3.866,2.7.146,1.6-6.484,5.479-9.228,5.424-1.9-.038-3.542-.966-2.958-2.963C276.386,206.005,280.551,206.13,283.463,205.088Z" transform="translate(-1 -1)"/><path class="cls-3" d="M754.853,545.211l-.459-1.258Q754.625,544.583,754.853,545.211Z" transform="translate(-1 -1)"/><path class="cls-8" d="M613.15,753.579c-6.052,31.9-5.9,64.155-4.914,96.369.484,15.818,3.086,31.564,4.534,47.36a515.069,515.069,0,0,1,1.967,68.228,76.129,76.129,0,0,1-30.7,22.3,28.413,28.413,0,0,1-11.061,1.847q-71.681-.463-143.364-.62-63.194-.125-126.388.079a28.99,28.99,0,0,1-19.934-7.787c-8.294-7.448-16.028-15.459-20.343-26.119a24.96,24.96,0,0,1-2-9.6q-.1-67.188-.439-134.378c0-.991-.183-1.981-.281-2.972.609-2.709-.676-5.083-1.35-7.571a626.729,626.729,0,0,1,.054-65.092,18.994,18.994,0,0,1,.926-4.635c.046-15.3.158-30.6.126-45.9-.084-40.254.285-80.51-.646-120.759-.023-1-.125-1.988-.19-2.981,2.562-6.06,7.153-10.424,12.147-14.427a2.564,2.564,0,0,1,2.821-.181,3.692,3.692,0,0,1,.966,1.343c1.2,6.706.576,13.448.472,20.179a34.2,34.2,0,0,0-.08,3.537c.016.906.226,1.8.19,2.711a12.559,12.559,0,0,1,.165,1.875q.058,36.249.031,72.49a46.554,46.554,0,0,1-.284,6.984,187.163,187.163,0,0,1-.021,22.332c.3,3.151.347,6.306.346,9.468q-.019,74.378-.012,148.755a32.775,32.775,0,0,1-.186,5.479c.362,17.814.041,35.631.206,53.445.066,7.092,1.467,8.467,8.446,8.731,2.664.1,5.329.06,7.994.06q146.409,0,292.816.013a42.882,42.882,0,0,1,7.97.276c3,.164,6.045.573,8.723-1.367,2.238-1.338,3-3.456,3.157-5.9.164-2.494.144-4.991.144-7.487q0-74.9.021-149.809c0-3.132-.444-6.349,1.056-9.33,2.146-2.083,4.141-1,6.128.292C614.649,738.328,614.161,745.945,613.15,753.579Z" transform="translate(-1 -1)"/><path class="cls-11" d="M185.9,927.191c-1.438-7.634-.139-14.8,1.691-22.414,5.658-23.544,14.139-46.306,18.962-70.046,1.745-8.586,3.8-17.1,3.547-26.048-.432-15.113.73-30.3-1.207-45.336-1.584-12.295-2.667-24.666-5.139-36.854-1.469-7.241-2.347-14.6-3.581-22.487,3.316,1.763,2.826,4.482,3.477,6.551,2.731,8.692,5.29,17.44,7.744,26.214a84.212,84.212,0,0,1,2.676,20.142c.581,18.081,2.624,36.128,1.851,54.234-.537,12.58-2.4,24.864-7.589,36.709a120.1,120.1,0,0,0-7.961,27.164c-2.286,12.968-6.732,25.245-10.143,37.848a111.145,111.145,0,0,0-2.19,12.19c-.211,1.376-.176,2.71-1.965,2.942A1.027,1.027,0,0,1,185.9,927.191Z" transform="translate(-1 -1)"/><path class="cls-1" d="M327,1056.951c-.039,9.679-8.846,19.026-17.947,19.048-10.055.023-19-9.821-19.038-20.962-.036-9.59,8.573-16.761,19.538-17.142C317.845,1037.606,328.122,1046.786,327,1056.951Z" transform="translate(-1 -1)"/><path class="cls-12" d="M639.983,930.1c-1.8-3.324-1.642-7.162-1.772-10.615-.515-13.6-.344-27.141,2.663-40.637,3.642-16.345,6.972-32.766,12.2-48.676,4.146-12.614,7.272-25.564,12.359-37.867a4.329,4.329,0,0,1,2.4-2.362q-.546,7.619-1.093,15.238c-1.458-.927-1.538.02-1.682,1.144-1.921,14.962-5.6,29.547-9.322,44.135-4.823,18.91-9.344,37.884-11.815,57.295C642.97,915.25,641.318,922.656,639.983,930.1Z" transform="translate(-1 -1)"/><path class="cls-13" d="M272.955,546.876c-5.5,3.967-8.966,9.883-13.813,14.472-10.319,6.907-17.012,16.664-21.632,27.952-1.282,3.133-.859,6.657-.43,9.9,1.538,11.627-.763,23.185-.288,34.777-.494-.854-1.389-1.693-1.422-2.565-.449-11.9-4.948-23.254-4.424-35.307.615-14.163,7.1-25.218,17.45-34.265q13.968-12.2,28.335-23.947c2.463-2.026,3.045-5.54,6.085-6.955a2.447,2.447,0,0,1,1.032,2.561c-1.039,3.705-3.781,6.362-5.83,9.447a14.662,14.662,0,0,1-3.267,3.245C274.186,546.5,273.505,546.516,272.955,546.876Z" transform="translate(-1 -1)"/><path class="cls-8" d="M614.927,998.016a24.692,24.692,0,0,0,15.936-.269c.08,1.976.145,3.953.245,5.928.191,3.8-1.739,5.638-5.35,6.408a55.015,55.015,0,0,1-18.661.308c-1.893-.242-3.606-.745-4-2.983-.368-2.11,1.2-2.805,2.638-3.672C608.828,1001.873,611.867,999.928,614.927,998.016Z" transform="translate(-1 -1)"/><path class="cls-8" d="M198.673,983.336c3.169-2.09,6.854-.877,10.234-1.6,3.363.574,6.081,2.553,9,4.11a3.48,3.48,0,0,1,2.032,4.094c-.4,1.921-2.021,2-3.52,2.011-4.325.042-8.663-.193-12.973.065-3.67.22-4.729-1.414-4.476-4.723A25.221,25.221,0,0,0,198.673,983.336Z" transform="translate(-1 -1)"/><path class="cls-1" d="M329.04,1026.744c-.549,3.2-1.644,5.508-5.393,5.272-3.479-.219-5.355-2.355-5.181-5.4.156-2.71,1.283-5.789,5.056-5.563C327.021,1021.265,328.719,1023.476,329.04,1026.744Z" transform="translate(-1 -1)"/><path class="cls-6" d="M612.708,731.2c-1.9-.067-3.815-.063-5.535-1.066-4.65,2.293-9.207,2.66-13.59-.652a6.154,6.154,0,0,1-.279-6.182,3.3,3.3,0,0,1,2.457-1.522c12.234-1.124,24.338-6.458,37.2-.359-10.864-6.111-22.083-7.846-33.639-8.319-2.9-.119-6.024-.4-8.413-2.61-2.97-6.374-1.649-13.034-1.084-19.569.657-7.6,2.229-15.143.976-22.807-.415-3.5-3.873-5.667-3.646-10.421-2.958,4.162-5.343,7.422-10.091,5.988-5.515-3.771-6.248-9.133-5.054-15.141a5.127,5.127,0,0,1,1.273-1.909,11.738,11.738,0,0,1,1.625-1.092c7.388-4.665,7.373-7.549-.065-12.168a9.087,9.087,0,0,1-3.568-3.316,6.45,6.45,0,0,1-.581-2.118,17.3,17.3,0,0,1,3.63-11.66,333.455,333.455,0,0,0,18.587-27.789,194.371,194.371,0,0,0,10.639-24.178c.7-2,1.293-4.191,3.5-5.236,4.171-4.4,10.235-5.324,15.2-8.268,5.949-2.873,12.123-4.895,18.813-4.954,4.566.067,5.769,2.963,5.133,6.735-3.508,20.785-3.3,41.758-3.425,62.72-.013,2.318.123,4.693-1.284,6.756-3.343,2.584-7.276,1.474-10.98,1.662-5.3.269-5.558.468-5.756,5.639-.171,4.431.516,8.9-.607,13.29-3.956,4.225-9.406,3.965-12.311-.75a11.817,11.817,0,0,0-3.545-4.006c-3.2-7.465-.072-13.563,4.52-19.095,3.623-4.365,7.208-8.676,9.566-13.9a10.45,10.45,0,0,0,1.218-3.967,22.407,22.407,0,0,1-6.866,12.262,73.923,73.923,0,0,1-5.67,4.893,10.97,10.97,0,0,0-4.37,10.546,70.052,70.052,0,0,1,.28,9.475c-.811,2.877-3.277,4.035-5.575,5.362-4.577,2.643-8.062,6.146-7.676,11.836s4.416,8.456,9.183,10.736c5.061,2.421,10.136,4.072,15.82,3.4,1.425-.17,3.043-.433,4.071,1.129a6.109,6.109,0,0,1,.748,2.874c.061,5.894-.17,6.886,7.856,6.918,2.457.01,5.043-.3,7.111,1.6a5.212,5.212,0,0,1,1.062,3.267c-.585,12.47,2.821,24.692,2.209,37.174-.388,7.9-5.244,12.735-13.119,11.8C623.3,733.578,617.693,733.907,612.708,731.2Z" transform="translate(-1 -1)"/><path class="cls-6" d="M695.306,545.109a180.435,180.435,0,0,1,25.041,12.523c7.951,4.631,10.278,12.553,12.51,20.545a65.617,65.617,0,0,1,1.232,7.795c-.856,2.687-3.12,4.121-5.429,5.97,2.692.783,5.156-1.461,7.548-.055,3.684,3.079,7.729,5.822,10.982,9.3,8.626,9.231,15.191,19.382,11,32.943-2.058,6.66-.473,13.052.945,19.518,1.141,5.2-.522,7.822-5.71,9.5-4.84.958-9.24,3.394-14.375,3.573-4.974.174-9.891-.436-14.029-.28,4.212.587,9.448.006,14.115,2.621a73.345,73.345,0,0,0,1.437,20.728c1.858,8.525-.43,17.133-1.049,25.7a21.69,21.69,0,0,0-.424,3.91c1.288,10.882-.463,12.565-11.506,10.87a13.083,13.083,0,0,0-1.485-.063c-2,1.363-4.191.936-6.269.475a30.314,30.314,0,0,0-15.216.881c-8.706,2.485-12.571-.69-11.319-9.65,1.249-8.944.818-17.889.973-26.839.075-4.323.229-8.632,1.938-12.7,1.324-1.817,3.353-1.72,5.283-1.947,1.9-.224,3.963.13,5.5-1.457,5.551-2.534,1.17-5.836.661-8.842-.285-2.876-.627-5.75.547-8.523,1.354-1.84,3.04-.738,4.539-.384a31,31,0,0,0,11.357.388,10.952,10.952,0,0,0,9.385-7.119c1.824-4.456.334-8.323-3-11.239a79.287,79.287,0,0,1-11.2-12.574c.523-6.606-2.212-12.246-5.074-17.927-3.294-6.537-2.244-13.484-1.952-19a56.329,56.329,0,0,0,3.452,27.037c1.384,3.587,2.753,7.147,2.29,11.108-3.141,5.722-4.971,6.842-9.538,5.855a7.809,7.809,0,0,1-1.05-4.214c-.422-7.312-.425-7.31-7.4-7.974-1.8-.171-3.62-.289-4.8-1.985a9.2,9.2,0,0,1-.98-4.829c.448-13.432-1.1-26.817-.982-40.228.08-8.967-1.642-17.839-1.022-26.8C692.4,549.17,692,546.245,695.306,545.109Z" transform="translate(-1 -1)"/><path class="cls-14" d="M696.909,682.128c-1.813,14.141.305,28.49-2.332,42.6-.862,4.616,2.781,7.743,7.343,5.82,8.166-3.442,16.1-2.437,24.19-.338a54.193,54.193,0,0,1-3.3,22.783c-14.843-4.125-27.63,2.423-40.688,7.746a17.652,17.652,0,0,1-17.056-1.672c-10.788-6.98-21.992-6.275-33.172-1.332-8.148,3.6-13.789,2.583-18.745-4.159-1.822-7.427-1.625-14.893-.442-22.377a77.8,77.8,0,0,1,15.714,1.335c7.281,1.159,11.589-3.194,11.716-10.547.231-13.341-4.013-26.429-2.027-39.836,1.689-2.113,4.131-1.969,6.423-1.983q22.968-.137,45.936,0C692.764,680.184,695.2,680.044,696.909,682.128Z" transform="translate(-1 -1)"/><path class="cls-14" d="M695.306,545.109c-2.789,6.4-.84,13.007-.861,19.526,0,1.144.5,2.29.482,3.432-.275,18.6,1.825,37.153,1.017,55.76-1.409,1.858-3.464,1.891-5.426,1.64-9.079-1.16-18.192-.564-27.287-.585-6.146-.014-12.189-1.166-18.319-1.233a4.744,4.744,0,0,1-3.964-1.721c.034-10.434-.639-20.931.283-31.286,1.136-12.763-.583-25.807,3.572-38.307,1.072-3.225-.615-5.4-3.744-6.479l8.405-3.949a3.3,3.3,0,0,1,.906-.919,12.56,12.56,0,0,1,1.773-.94,6.9,6.9,0,0,1,1.326-.468c3.082-1.033,6.176-1.547,9.322-.281a6.129,6.129,0,0,1,2.347,3.653c1.252,3.908,2.8,7.694,7.68,7.822,4.925.13,5.812-4.071,7.27-7.527a3.792,3.792,0,0,1,1.525-1.524,1.966,1.966,0,0,1,1.413.087A34.466,34.466,0,0,1,695.306,545.109Z" transform="translate(-1 -1)"/><path class="cls-8" d="M649.426,541.968l.037-.06a37.539,37.539,0,0,0-3.987.089c-13.532,1.68-17.151-8.91-15.127-18.357,2.8-13.053,6.117-26.024,9.919-38.821,3.166-10.659,11.984-15.34,22.068-17.785a45.231,45.231,0,0,1,21.219.034c7.271,1.73,11.188,7.938,15.611,13.241,5.587,6.7,7.11,14.779,6.685,23.181-.538,10.632.113,21.234.167,31.85.025,4.865-2.408,7.969-7.378,7.53-5.636-.5-11.578-.669-16.565-4.143-1.207-.872-1.354-2.154-1.361-3.49.249-3.208,2.128-5.454,4.34-7.583,5.218-5.025,5.957-14.114,1.79-20.118a5.341,5.341,0,0,0-5.508-2.565,39.713,39.713,0,0,0-25.886,14.482c-2.814,3.356-1.363,6.917.827,10.1,1.21,1.757,3.125,3.039,3.534,5.334-.522,4.761-5.352,3.91-7.887,6.053l.066-.024C651.277,541.609,650.28,541.614,649.426,541.968Z" transform="translate(-1 -1)"/><path class="cls-1" d="M528.135,170.115c-3.012-.1-5.947.134-8.791-1.356-6.37-3.338-7.255-9.51-1.633-13.843a43.222,43.222,0,0,1,15.967-7.911c10.967-2.717,20.476-8.59,30.309-13.716,9.733-5.073,19.494-8.768,30.727-5.568,3.988,1.136,6.821,3.264,6.986,7.317.17,4.184-3.033,6.476-6.622,7.784-5.764,2.1-11.6,4.006-17.444,5.881-9.332,2.994-16.549,9.666-24.975,14.238A59,59,0,0,1,528.135,170.115Z" transform="translate(-1 -1)"/><path class="cls-6" d="M622.227,382.546q-.081-32.937-.162-65.877c13.647,4.106,24.408,17.716,24.411,30.873C646.48,365.857,638.08,377.983,622.227,382.546Z" transform="translate(-1 -1)"/><path class="cls-10" d="M641.643,216.164c4.254,1.882,9.145,3.944,13.929,6.233a2.617,2.617,0,0,1,1.115,3.5,2.8,2.8,0,0,1-3.654,1.792c-4.895-1.614-9.793-3.278-14.242-5.947a2.925,2.925,0,0,1-1.182-3.934C638.227,216.4,639.519,216.07,641.643,216.164Z" transform="translate(-1 -1)"/><path class="cls-10" d="M516.106,182.128c4.868,1.205,9.361,2.247,13.808,3.456,1.685.458,3.1,1.559,2.608,3.589a3.022,3.022,0,0,1-3.788,2.367c-4.844-.952-9.666-2.018-14.478-3.122a2.636,2.636,0,0,1-2.231-3.3C512.484,182.624,514.45,182.308,516.106,182.128Z" transform="translate(-1 -1)"/><path class="cls-10" d="M598.392,209.091c-4.175-1.19-9.3-2.6-14.384-4.136a2.575,2.575,0,0,1-1.845-3.15,3.108,3.108,0,0,1,3.755-2.538c5.053.967,10.13,1.991,14.854,4.129a3.132,3.132,0,0,1,2.093,3.594C602.457,208.809,601.009,209.15,598.392,209.091Z" transform="translate(-1 -1)"/><path class="cls-10" d="M627.33,218.067c-3.959-1.4-8.668-2.983-13.3-4.756a2.708,2.708,0,0,1-1.741-3.238,2.653,2.653,0,0,1,2.968-2.136,34.352,34.352,0,0,1,15.38,5.163,2.483,2.483,0,0,1,.927,3.494C630.814,217.977,629.513,218.141,627.33,218.067Z" transform="translate(-1 -1)"/><path class="cls-10" d="M770.29,659.87a24.307,24.307,0,0,1-7.369,13.221,2.816,2.816,0,0,1-3.663.382,2.729,2.729,0,0,1-.963-3.926c2.607-3.668,4.427-7.72,6.456-11.685a2.744,2.744,0,0,1,3.828-1.3A3.219,3.219,0,0,1,770.29,659.87Z" transform="translate(-1 -1)"/><path class="cls-10" d="M776.825,627.137c.037,3.1-.409,5.192-2.8,5.6-2.749.472-3.209-1.876-3.557-3.831-.637-3.589-1.178-7.2-1.575-10.824-.176-1.6-.314-3.517,1.89-4.05,2.3-.556,3.508.9,3.963,2.81C775.628,620.555,776.268,624.321,776.825,627.137Z" transform="translate(-1 -1)"/><path class="cls-10" d="M573.464,202.633a48.485,48.485,0,0,1-11.626-2.885c-1.631-.571-3.026-1.745-2.531-3.707.544-2.156,2.448-2.695,4.331-2.322,3.544.7,7.053,1.618,10.533,2.6,1.745.494,3.714,1.227,3.322,3.593C577.067,202.49,574.76,202.335,573.464,202.633Z" transform="translate(-1 -1)"/><path class="cls-10" d="M490.749,177.052c3.177.931,7.332,2.043,11.4,3.4a2.69,2.69,0,0,1,1.7,3.258c-.315,1.475-1.325,2.48-2.833,2.186-4.206-.819-8.392-1.765-12.549-2.8A3.052,3.052,0,0,1,486,179.35C486.357,177.241,487.933,176.886,490.749,177.052Z" transform="translate(-1 -1)"/><path class="cls-10" d="M757.076,677.385c-.312.616-.5,1.548-1.065,2.01-2.941,2.392-5.8,4.963-9.376,6.383-1.627.646-3.377.5-4.3-1.313s-.047-3.209,1.469-4.215c2.747-1.823,5.444-3.754,8.343-5.3C754.412,673.74,756.3,674.409,757.076,677.385Z" transform="translate(-1 -1)"/><path class="cls-11" d="M739.137,669.07a66.372,66.372,0,0,1-20.528-3.29c11.644-.662,23.362-.166,34.816-2.625C749.005,665.954,744.016,667.378,739.137,669.07Z" transform="translate(-1 -1)"/><path class="cls-10" d="M549.732,197.1a30.626,30.626,0,0,1-9.633-2.328,2.846,2.846,0,0,1-1.941-3.574,2.793,2.793,0,0,1,3.414-2.2c3.247.616,6.474,1.4,9.645,2.33a3.013,3.013,0,0,1,2.3,3.428C553.193,196.879,551.51,197.148,549.732,197.1Z" transform="translate(-1 -1)"/><path class="cls-15" d="M681.739,535.026l.336,3.7q-.054.981-.109,1.963a.813.813,0,0,1-.1,1.4l-.628.843c-5.795,3.743-11.663,3.265-15.808-1.92C670.985,538.885,675.076,533.913,681.739,535.026Z" transform="translate(-1 -1)"/><path class="cls-10" d="M777.162,642.279a14.732,14.732,0,0,1-.2,2.179c-.628,2.489-.716,6.01-4.348,5.419-3.92-.638-2.547-3.814-1.894-6.355a18.4,18.4,0,0,0,.3-1.953c.3-2.1,1.052-4.178,3.491-4.035C777.627,637.717,777,640.427,777.162,642.279Z" transform="translate(-1 -1)"/><path class="cls-11" d="M736.208,591.887c-3.469,1.072-6.833,3.012-11.61,1.225l9.491-7.14Q735.148,588.93,736.208,591.887Z" transform="translate(-1 -1)"/><path class="cls-16" d="M681.87,542.086c.032-.463.065-.926.1-1.393.354.37.707.744,1.06,1.117Z" transform="translate(-1 -1)"/><path class="cls-15" d="M603.612,323.119c1.967.942,2.238,2.694,2.239,4.606q.033,77.153.077,154.3a45.712,45.712,0,0,1-20.2,18.836,3.884,3.884,0,0,1-2.168-.664c-38.352-38.968-85.221-58.419-139.508-60.866A9.917,9.917,0,0,1,440.332,438a65.281,65.281,0,0,0-15.29-7.2c-7.9-2.612-15.507-5.974-23.137-9.265-7.1-3.063-12.051-8.757-17.025-14.331a95.79,95.79,0,0,0-7.783-8.4c-11-9.692-12.34-22.644-12.038-36.01.212-9.405,2.846-18.376,6.576-26.97,1.843-4.245,1.412-8.82,2.485-13.157a2.577,2.577,0,0,1,1.858-1.365l111.056-.019a2.424,2.424,0,0,0,1.938,0l46.08-.159c11.969-.193,23.938-.151,35.907-.022l22.04-.043C596.677,321.014,600.447,320.52,603.612,323.119Z" transform="translate(-1 -1)"/><path class="cls-17" d="M273.076,390.728q.024-31.2.054-62.392c.008-6.518.671-7.187,7.081-7.188q27.951-.008,55.9.031c1.646,0,3.292.26,4.938.4,1.913,1.829,1.693,4.252,1.7,6.543q.078,31.168.006,62.337a34.456,34.456,0,0,1-.554,5.95c-2.26,12.718-9.217,18.847-22.1,19.318-8.807.321-17.609-.193-26.4-.329a5.055,5.055,0,0,1-3.441-1.494c-2.423-2.6-4.406-1.807-6.264.647-2.813,2.011-6.772-.534-9.363,2.368a1.376,1.376,0,0,1-1.356.11q0-7.494,0-14.988c2.781-.047,3.616,4.029,7.324,3.17C279.92,399.347,274.061,396.21,273.076,390.728Z" transform="translate(-1 -1)"/><path class="cls-18" d="M291.917,414.048c8.805-.016,17.61-.123,26.413-.028,15.89.172,22.24-7.76,22.548-22.676.479-23.247.158-46.511.175-69.767l33.837-.107.072.606c.606,6.289-.93,12.088-3.339,17.9-5.678,13.695-6.509,27.911-3.32,42.34a25.405,25.405,0,0,0,6.321,11.74c4.282,4.633,9.007,8.843,12.862,13.889,9.262,12.122,23.419,15.789,36.675,20.922,5.872,2.274,11.96,4,16.855,8.232-4.291,2.905-9.345,1.879-13.982,2.25-8.924.712-17.842,1.231-26.647,2.962a12.62,12.62,0,0,1-3.96-.056c-5.233-1.611-8.715-5.932-13.294-8.619-12.874-7.554-27.2-9.356-41.55-10.946-15.66-1.733-31.4-2.723-47.046-4.671C292.892,417.205,291.593,416.159,291.917,414.048Z" transform="translate(-1 -1)"/><path class="cls-15" d="M294.205,417.034c10.79.077,21.443,1.7,32.15,2.75,7.577.743,15.175,1.215,22.749,2.108,17.479,2.062,33.708,6.971,47,19.183a1.132,1.132,0,0,1-.246,1.375c-2.27,1.555-4.975,1.825-7.537,2.461-30.677,7.618-57.394,22.61-81.051,43.351-1.531,1.342-2.726,3.567-5.4,2.71,3.513-9.033,2.775-19.3,8.08-27.813,1.108-4.615,4.931-7.239,7.758-10.6.96-.685,2.137-.926,3.141-1.514,6.632-3.887,7.261-8.126,1.644-13.165-3.708-3.327-7.764-6.268-11.6-9.465-1.529-1.275-2.9-1.148-4.439.143-4.331,3.622-4.81,5.672-2.288,10.888a3.509,3.509,0,0,1,.3,1.948c-4.139,5.151-4.541,11.929-7.63,17.536-2.82-.216-4.028.982-5.4,3.714-4.531,9-9.208,18.006-16.243,25.447-3.061-.428-1.6-2.832-1.613-4.256-.127-12.94-.067-25.881-.083-38.823a20.991,20.991,0,0,0-.211-4.957q0-11.516,0-23.029c.285-.012.568-.031.851-.058,3.278-2.573,7-1.228,10.57-1.219,2.774.718,4.175,3.049,5.913,5.019,1.8,2.044,3.606,4.2,6.841,4.122C298.192,421.213,292.858,420.57,294.205,417.034Z" transform="translate(-1 -1)"/><path class="cls-19" d="M585.958,500.022c7.751-4.783,13.483-11.807,19.97-17.993.068,6.3.114,12.593.209,18.888q.439,29.079.908,58.16c-3.877,10.18-7.48,20.479-13.045,29.923-2.316-2.287-1.785-5.259-1.794-8.024-.063-20.157-.023-40.314-.039-60.471a38.355,38.355,0,0,0-.679-9.43c-.53-4.043-3.822-6.444-5.788-9.639A1.439,1.439,0,0,1,585.958,500.022Z" transform="translate(-1 -1)"/><path class="cls-20" d="M441.51,287.979c-9.326,0-18.652-.076-27.977.034-4.252.05-7.19-1.307-7.554-5.931-.285-3.615,3.014-6.895,7.349-7.026,6.323-.191,12.655-.08,18.983-.079q17.486,0,34.971.031a19.277,19.277,0,0,1,4.466.267c3.323.808,6.507,2,6.372,6.307-.1,3.3-4.03,6.421-8.136,6.442-9.491.051-18.982.017-28.474.017Z" transform="translate(-1 -1)"/><path class="cls-20" d="M385.413,293.041a10.384,10.384,0,0,1-10.373-10.387,11.038,11.038,0,0,1,10.825-10.725,10.2,10.2,0,0,1,10.154,10.52A10.32,10.32,0,0,1,385.413,293.041Z" transform="translate(-1 -1)"/><path class="cls-21" d="M273.076,390.728c2.735,3.731,5.434,7.49,8.223,11.18,1.094,1.448,1.9,2.931.416,4.4-1.56,1.546-3.406,1.2-4.888-.2a51.452,51.452,0,0,1-3.539-4.073c-1.332-2.032-2.59-4.119-4.021-6.081-1.023-1.4-1.837-2.832-.91-4.465C269.533,389.422,271.342,390.024,273.076,390.728Z" transform="translate(-1 -1)"/><path class="cls-17" d="M570.959,321.087c-1.535,1.487-3.465.881-5.228.893q-12.969.09-25.94.007c-1.608-.008-3.362.488-4.739-.878,7.006-1.892,14.156-.755,21.229-.836C561.157,320.217,566.168,319.149,570.959,321.087Z" transform="translate(-1 -1)"/><path class="cls-17" d="M273.288,440.057c1.19,1.632.695,3.514.7,5.287.045,12.557.009,25.113.056,37.67.006,1.743-.574,3.694,1.15,5.079a3.925,3.925,0,0,1-2.052,3Q273.215,465.572,273.288,440.057Z" transform="translate(-1 -1)"/><path class="cls-17" d="M603.612,323.119c-3.352-1.641-7.306-.206-10.613-2.075C596.917,319.79,600.646,319.505,603.612,323.119Z" transform="translate(-1 -1)"/><path class="cls-17" d="M488.972,321.268a1.11,1.11,0,0,1-1.938,0Z" transform="translate(-1 -1)"/><path class="cls-17" d="M374.962,322.076a1.488,1.488,0,0,1-.072-.607l1.088-.18Z" transform="translate(-1 -1)"/><path class="cls-22" d="M592.042,509c2.131,1.882,1.957,4.406,1.956,6.9q-.009,36.551,0,73.1c-4.672,9.674-11.412,18.029-17.484,26.779-2.669,3.846-4.424,7.614-4.718,12.172-3.085,2.718-6.737,1.671-10.252,1.547q-67.218-.107-134.434-.02c-43.254.687-86.508-.281-129.763-.025-11.294.067-16.243-4.955-16.179-16.151.127-22.138.516-44.275.286-66.414-.047-4.5-.369-8.967,1.481-13.228l-.12-2.724q4.075-9,8.153-18c2.1-.677,3.016.962,4.013,2.189A140.939,140.939,0,0,0,305.368,525.9c3.427,3.406,3.9,3.353,6.895-.556,7.7-10.031,17.423-17.72,27.977-24.49a10.614,10.614,0,0,1,4.643-1.269c24.311-.833,48.65.209,73.548-.591-.763-5.627-3.056-10.059-4.511-14.733-1.154-3.711-3.653-7.2-2.24-11.431,1.841-2.012,4.392-2.113,6.828-2.595,15.569-3.083,31.083-1.641,46.586.532a41.261,41.261,0,0,1,6.383,1.074,6.423,6.423,0,0,1,3,1.892c3.405,6.267,6.261,12.809,9.348,19.239,2.182,4.546,5.544,6.574,10.692,6.455,13.27-.306,26.55.214,39.819-.275a5.64,5.64,0,0,1,3.8.781c11.225,8.05,20.761,17.879,29.67,29.272,3.918-4.1,7.694-7.462,11.377-10.908,3.032-2.837,6.377-5.289,9.386-8.141C589.479,509.285,590.5,508.22,592.042,509Z" transform="translate(-1 -1)"/><path class="cls-23" d="M301.869,490.972c15.6-14.069,32.524-26.235,51.629-35.12,13.557-6.3,27.477-11.632,42.375-13.918,2.544-.46,4.07,1.224,5.392,2.864A52.686,52.686,0,0,1,412.1,467.5a7.32,7.32,0,0,1-.832,5.76c-1.3,2.154-3.575,2.062-5.645,2.443-5.325.98-10.4,3.131-15.889,3.358-15.485.345-28.7,6.849-41.252,15.178-3.3,2.189-5.96,5.259-9.623,6.963a270.718,270.718,0,0,1-36,.378c-1.636-.114-3.844-.041-3.943-2.7Q300.392,494.929,301.869,490.972Z" transform="translate(-1 -1)"/><path class="cls-24" d="M298.916,498.884c4.058,2.346,8.884,1.851,12.906,1.573,9.412-.653,18.787-.047,28.163-.445A1.357,1.357,0,0,1,340,502c-7.346,5.595-14.773,11.114-21.179,17.8-3.307,3.452-6.215,7.286-9.4,11.067L290.97,512.941C292.7,507.736,296.526,503.716,298.916,498.884Z" transform="translate(-1 -1)"/><path class="cls-13" d="M140.373,626.555c2.478-7.838,5.783-15.091,6.928-22.67a101.978,101.978,0,0,0-.735-34.217,9.927,9.927,0,0,0-7.283-8.155,9.281,9.281,0,0,1-5.185-3.262c1.773-2.8,4.18-3.309,7.173-2.673,9.572,2.036,15.6,10.051,16.777,21.5,1.742,16.971-3.434,32-12.189,46.127A6.177,6.177,0,0,1,140.373,626.555Z" transform="translate(-1 -1)"/><path class="cls-9" d="M188.335,641.961a54.49,54.49,0,0,1-1.618-13.895,3.807,3.807,0,0,1,.274-5.06c.558-.348,1.132-.673,1.673-1.047,8.717-6.023,9.335-6.039,14.562,2.915a15.024,15.024,0,0,1,.561,14.28c-1.563,3.353-4.143,5.344-8.361,4.117-2.008-.584-4.253-.354-6.39-.492A.9.9,0,0,1,188.335,641.961Z" transform="translate(-1 -1)"/><path class="cls-9" d="M296.841,458.932c.4-6.826,2.015-13.167,7.257-18.048.46-.187,1.033-.4,1.415-.155,5.041,3.17,10.036,6.4,12.838,11.977-2.046,4.091-5.446,7.092-8.4,10.452C305.017,463.5,301.157,460.508,296.841,458.932Z" transform="translate(-1 -1)"/><path class="cls-16" d="M194.124,540.249c-3.772-6.394-6.1-13.408-9.732-21.1,7.616.8,14.213.988,20.633,2.862-1.379,2.027-.977,4.315-.961,6.546-3.227.658-3.688,3.479-4.621,5.924C198.437,537.12,197.731,540.02,194.124,540.249Z" transform="translate(-1 -1)"/><path class="cls-13" d="M188.335,641.961q.351.409.7.818c-.17,2.35-2.054,2.7-3.779,3.307-10.508,3.695-21.4,5.165-32.453,5.981-6.685.494-13.409,1.383-18.891,5.941-1.559-1.412-3.223-.939-4.9-.277,1.8-2.793,4.646-3.94,7.668-4.69,15.823-3.925,32.355-4.669,47.729-10.651A15.105,15.105,0,0,1,188.335,641.961Z" transform="translate(-1 -1)"/><path class="cls-13" d="M186.991,623.006q-.137,2.53-.274,5.06c-4.886,2.233-10.013.785-14.485-.465a34.8,34.8,0,0,0-20.769.314,9.021,9.021,0,0,1-2.458.092l-.011-.012c4.566-4.233,10.732-4.705,16.221-5.555C172.312,621.342,179.781,621.094,186.991,623.006Z" transform="translate(-1 -1)"/><path class="cls-13" d="M149.005,628.007l-.219.391c.07-.134.139-.269.208-.4Z" transform="translate(-1 -1)"/><path class="cls-7" d="M136.184,886.974c-3.744.3-5.972-1.633-7.742-4.514-1.816-2.957-1.014-5.654.444-8.395,1.4-2.638,3.078-2.732,5-.594,1.874,2.081,3.785,4.136,5.534,6.32,1.162,1.45,3.434,2.695,2.251,4.988C140.56,886.94,138.306,887.219,136.184,886.974Z" transform="translate(-1 -1)"/><path class="cls-18" d="M573.261,648.06c-.932,5.755-.451,11.076,4.61,14.988,2.773,1.423,5.855.825,8.77,1.325,1.922.33,4.012.144,5.28,2.092,2,5.462,1.136,11.06.595,16.59-.878,8.99-2.687,17.934-.767,27,2.116,2.173,3.908,4.526,4.355,7.653.3,2.1.127,4.01-1.906,5.255q-.056,2.966-.113,5.93a11.928,11.928,0,0,1,1.647,5.163c.069,10.286.4,20.583-.154,30.855-.349,6.466-5.211,11.967-11.58,12.443a163.669,163.669,0,0,1-31.757-.211c-2.773-1.433-1.935-3.269-.188-4.676,13.76-11.083,9.666-37.2-6.222-45.734-9.48-5.093-19.568-5.809-28.667-.737C509.972,730,503.456,736.039,501.5,744.96c-1.73,7.874-.993,15.521,3.014,22.7a18.616,18.616,0,0,0,4.294,4.8c1.675,1.471,2.833,3.1-.013,4.658-3.917,1.173-7.936.739-11.9.668-12.115-.217-24.248.722-36.336-.517-3.46-1.591-2.2-3.681-.269-5.349,3.562-3.07,5.463-7.023,6.934-11.331a9.557,9.557,0,0,0,.36-6.332,8.215,8.215,0,0,1-.4-3.441,26.42,26.42,0,0,0-20.449-28.231c-3.26-.774-4.981.82-6.74,2.913a3.286,3.286,0,0,1-2.913.026c-2.087-3.23-5.132-3.5-8.322-2.311-10.44,3.875-17.717,11.27-19.328,22.17-.766,5.18-1.407,11.133.607,16.6,1.4,3.795,3,7.364,6.625,9.667,2.072,1.316,3.161,3.06.773,5.187-2.844,1.233-5.875.986-8.793.772-4.434-.326-6.283,1.614-6.544,5.863-.242,3.943-.923,7.867.163,11.774,1.9,2.089,4.395,1.247,6.614,1.25,56.583.066,113.167.23,169.747-.146,11.447-.076,18.186,8.712,17.849,17.611-1.1,28.93-.707,57.875-1.012,86.813-.019,1.83.026,3.7-1.454,5.122q-49.953.036-99.906.071-40.967.018-81.932.01-64.942.023-129.883.033c-5.818,0-7.719-1.765-8.183-7.623-.987-12.463-.494-24.955-.446-37.436.024-6.319.254-12.637.391-18.956,3.827-1.225,5.73,2.983,9.006,3.233,1.177-.532,1.234-1.623,1.191-2.573-.352-7.847.975-15.613,1.079-23.435.21-15.866,7.068-22.758,23.13-22.87,18.321-.127,36.643-.023,54.965-.036,8.174-.006,8.174-.017,9.669-7.818,1.832-9.563,1.832-9.563-7.31-11.551-2.6-1.807-1.6-3.738.027-5.417,5.178-5.333,7.415-11.246,6.379-18.988-.614-4.589.766-9.249-1.479-14-5.614-11.87-15.195-16.843-27.683-16.678-12.877.169-22,6.489-27.438,18.222-1.82,3.928-2.186,7.313,1.977,9.933a4.04,4.04,0,0,1,.1,3.695c-3.939,2.4-3.871,5.665-2.214,9.456a38.1,38.1,0,0,0,5.436,8.318c1.3,1.64,3.07,3.481.289,5.452-9.3,1.237-18.528,2.172-26.855-3.735a27.391,27.391,0,0,1-12.022-20.8c-1.863-19.736-.713-39.508-.914-59.261-.056-5.533-.061-10.678-5.837-13.6-.55-.279-.76-1.066-1.088-1.643-.111-7.273-.451-14.547.2-21.813,2.122-1.771,4.125-.32,6.08.332,2.534.844,4.589.614,5.984-1.885,3.163-5.665,8.393-7.179,14.374-7.171,18.629.024,37.263.151,55.885-.13,13.14-.2,26.2-2.349,39-5.164,8.388-1.845,16.137-6.1,23.472-10.774a16.862,16.862,0,0,1,7.733-2.275q63.579-.051,127.147,0c1.8,0,3.672-.36,5.353.651,1.3,2.737-1.011,3.718-2.62,4.356-15.851,6.278-31.67,12.518-49.129,5.565-13.584-5.411-26.768-2.374-39.81,2.634-4.76,1.828-9.118,4.964-14.52,4.921-4.1-1.123-7.159-4.589-11.573-5.1a25.808,25.808,0,0,0-5.842-.4,15.464,15.464,0,0,0-2.036.488c-5.2,1.4-8.136,5.972-12.308,8.811-4.988,1.667-6.569,5.675-6.1,10.267.816,8.006,4.153,15.239,11.547,18.806,7.462,3.6,15.743,4.174,23.338-.29,8.007-4.707,10.588-12.464,10.7-21.274.047-3.7-2.816-5.408-5.362-7.294a2,2,0,0,1,.176-2.441c1.963-1.62,4.341-1.593,6.647-1.548,30.369.585,60.7-1.692,91.072-1.05,4.48.094,8.964-.068,13.443.066C569.438,646.249,571.671,646.18,573.261,648.06Z" transform="translate(-1 -1)"/><path class="cls-15" d="M459,775.967h51c1.639-1.57,3.67-1.4,5.688-1.29,6.906,2.029,13.661,4.944,21.171,2.6,2.816-.879,5.414-2.471,8.443-2.682,2.015-.009,4.077-.221,5.7,1.373,10.12.01,20.24.052,30.36.022,7.872-.023,12.6-4.812,12.633-12.758q.077-17.17.09-34.34c4.187,2.265,8.754.519,13.087,1.243q-.042,72.6-.088,145.2c0,7.318-.033,14.636-.05,21.955-.009,3.542-.889,6.564-4.7,7.829-7.4.88-7.591.709-6.931-6.275a44.3,44.3,0,0,0,.088-4.492c-.185-24.3,1.023-48.593.8-72.9-.05-5.565-.333-10.9-2.326-16.093-2.328-6.067-7.075-8.757-13.518-8.542a249.762,249.762,0,0,1-27.443-.181c-6.649-.511-13.3.3-19.942.315q-63.448.139-126.9.016c-2.09,0-4.363.665-6.223-.987a114.221,114.221,0,0,1,.943-16.711c.417-2.6,1.392-3.332,3.763-3.291,4.448.077,8.9,0,13.348-.012,2.23-2.1,5-1.246,7.581-1.385a38.489,38.489,0,0,0,25.8,0C453.984,774.7,456.765,773.845,459,775.967Z" transform="translate(-1 -1)"/><path class="cls-25" d="M274.448,677.9c6.373,1.848,9.064,5.521,8.743,12.683-.648,14.426.021,28.905-.281,43.353-.147,7,.68,13.912,1.279,20.807,1.015,11.679,13.688,21.9,23.358,21.312,4.8-.29,9.634-.069,14.452-.079,2.215-2.131,5-1.275,7.581-1.439a3.6,3.6,0,0,1,1.485.06c8.451,3.358,16.893,2.9,25.342-.014,2.908.2,6.036-.959,8.593,1.391,1.664.011,3.327.026,4.99.032,6.189.021,6.791.638,5.931,6.968-.533,3.928-1.39,7.813-2.051,11.725-.574,3.4-3.04,3.335-5.661,3.33-20.129-.04-40.263-.3-60.385.065-14.783.271-20.968,6.4-20.893,20.478.052,9.908-1.523,19.769-.868,30.056-5.4-.631-7.913-5.083-12.021-6.628q.053-28.931.1-57.861,0-50.895-.047-101.791C274.1,680.861,274.325,679.379,274.448,677.9Z" transform="translate(-1 -1)"/><path class="cls-20" d="M410.722,944.6c.171-16.733,12.657-34.37,36.161-32.869,13.864.886,27.829,15.016,27.784,32.358-.046,18.007-15.554,33.24-33.081,32.874A31.768,31.768,0,0,1,410.722,944.6Z" transform="translate(-1 -1)"/><path class="cls-15" d="M420.094,632.07a56.931,56.931,0,0,1-27.669,12.593c-15.975,2.414-31.972,5.159-48.343,4.462-14.555-.621-29.158-.123-43.739-.129-5.661,0-10.45,1.316-12.58,7.427-1.2,3.448-4.018,2.866-6.664,2.069-2.2-.662-3.958-2.521-6.453-2.409a7.578,7.578,0,0,1-.508-1.907q.009-39.609.076-79.22a.623.623,0,0,0,.027-.909q.081-1.028.161-2.056a2.618,2.618,0,0,0-.017-2.982c-.959-7.308-.4-14.643-.4-21.969a.86.86,0,0,1-.3-.821q.1-.434.222-.434l2.774-2.9c2.748-1.37,4.046.019,4.67,2.521a12.409,12.409,0,0,1,.142,2.988c0,13.487.455,27-.176,40.454-.356,7.592-1.973,15.136-1.54,22.816a25.731,25.731,0,0,0,1.032,7.37c2.7,7.621,6.422,10.411,14.435,10.467,3.33.023,6.661,0,9.991,0,24.963-.029,49.928-.173,74.887.1,11.8.13,23.6,1.075,35.41.217C417.41,629.684,419.24,629.976,420.094,632.07Z" transform="translate(-1 -1)"/><path class="cls-25" d="M399.946,795.981c44.3.006,88.61.631,132.887-.332,14.624-.318,29.154,1.335,43.74.41,3.982-.252,8.072-2.3,12.036.685,2.58,1.945,4.89,3.821,5.868,7.1,2.026,6.8,3.92,13.493,3.641,20.808-.443,11.64.75,23.392-.341,34.946-1.316,13.928.425,27.9-1.6,41.762-.8,5.49,3.815,2.964,6.165,3.761-2.636,1.8-5.541.7-8.337.774q.007-39.693.024-79.387a60.52,60.52,0,0,1,.717-9.9c1.663-10.083-4.985-18.859-16.2-18.784-58.082.389-116.167.2-174.251.047C403.023,797.867,399.754,800.171,399.946,795.981Z" transform="translate(-1 -1)"/><path class="cls-3" d="M260,808c-3.586-6.835-3.5-14.812-4.814-22.308-3.108-17.713.295-34.955,3.468-52.156a13.933,13.933,0,0,1,.992-2.535Q259.823,769.5,260,808Z" transform="translate(-1 -1)"/><path class="cls-25" d="M274.385,569.009c2.2.983,2.213,1.977.016,2.982A3.581,3.581,0,0,1,274.385,569.009Z" transform="translate(-1 -1)"/><path class="cls-25" d="M273.91,545.785q.037.627.076,1.255l-1.031-.164Z" transform="translate(-1 -1)"/><path class="cls-25" d="M274.241,574.047a3.525,3.525,0,0,1,.237.647c.013.069-.171.174-.265.262A.851.851,0,0,1,274.241,574.047Z" transform="translate(-1 -1)"/><path class="cls-25" d="M420.094,632.07c-2.536-1.965-5.122-.04-7.673-.13-9.453-.331-18.9.687-28.384-.733-5.654-.847-11.534-.2-17.313-.2-16.27-.008-32.542-.114-48.811.043-8.3.08-16.589-.3-24.916.456-7.163.649-14.96-7.672-14.873-15.757.088-8.051-1.713-16.3,1.711-24.16a7.891,7.891,0,0,0,.158-2.972q.012-20.484.018-40.967c0-2.419.235-4.882-3.326-4.757q3.124-4.613,6.252-9.227c.015,26.318.359,52.643-.1,78.954-.217,12.489,4.972,15.088,15.729,15.257,25.314.4,50.639.118,75.96.117q26.236,0,52.473.008c.64,1.142-.451,1.439-.982,2.01C424.086,630.815,422.357,632.21,420.094,632.07Z" transform="translate(-1 -1)"/><path class="cls-8" d="M640.948,621.928l55,1.9h13.036v13.932c-7.094,1.962-7.1,1.963-3.662,8.62a3.611,3.611,0,0,1,.693,1.842c-.558,4.671.971,8.834,2.986,12.894l-.441,10.714c-2.391.591-4.011-1.019-5.852-2.028-1.647-.9-3.132-2.587-5.374-1.281-.489,2.609,1.759,3.225,3.144,4.463,2.4,2.147,6.06,2.719,7.545,6.013.211,2-.46,3.092-2.708,3.028-2.8-.08-5.6.059-8.4.1l-58.8.028c-3.83-.042-7.668-.246-11.489-.079-3.429.15-4.93-1.109-4.694-4.622.167-2.484-.04-4.993-.08-7.49-.4-1.528.673-2.466,1.455-3.484,2.5-3.246,4.308-6.5,2.652-10.9-1.335-3.548,1.663-6.511,2.25-9.688-1.356-2.083-4.01-1-5.3-2.7.029-5.627.247-11.261.019-16.878-.146-3.592,1.244-4.6,4.632-4.416C632.005,622.134,636.482,621.937,640.948,621.928Z" transform="translate(-1 -1)"/><path class="cls-15" d="M452.894,646.118c7.6-1.36,14.191-5.457,21.425-7.863,11.767-3.914,23.407-4.45,35,.041a41.867,41.867,0,0,0,27.748.879c7.8-2.284,15.669-4.341,22.894-8.212a6.142,6.142,0,0,1,2.072-2.948l9.77-.064q.171,1.054.343,2.108c2.183,3.086,4.677,5.974,4.434,10.192-.147,2.568-.463,4.933-2.466,6.758l-.851,1.05c-20.139-.012-40.316-.772-60.411.188-17.632.842-35.231.311-52.837.733-1.473.035-3.042-.25-4.151,1.134C453.541,649.77,452.739,648.3,452.894,646.118Z" transform="translate(-1 -1)"/><path class="cls-16" d="M622.9,643.19c2.7.014,5.682-1.162,7.773,1.84-.2,2.068-1.75,3.43-2.794,5.054-.932,1.449-1.824,3.225-1.027,4.654,3.911,7.01-1.037,10.918-5,15.225-8.492,4.448-24.136-3.268-28.026-8.866s-1.554-14.135,5.062-17.866c2.594-1.463,5.352-2.609,7.169-5.124.475-.685.758-1.695,1.956-1.15,3.035-.417,5.258.063,5.035,3.951-.137,2.379,1.6,3.143,3.6,3C618.732,643.764,620.924,644.328,622.9,643.19Z" transform="translate(-1 -1)"/><path class="cls-11" d="M594.2,722.961c2.128-4.861-1.264-8.675-2.448-12.909,6.079,2,12.422,2.08,18.691,2.183,7.939.13,14.42,4.558,21.688,6.6,1.841.519,4.067.3,4.674,2.8-.8,1.766-2.159,1.344-3.434,1-9.747-2.622-19.373-4.112-29.269-.046C601.233,723.773,597.522,722.9,594.2,722.961Z" transform="translate(-1 -1)"/><path class="cls-11" d="M608.009,636.957l-1.956,1.15a58.554,58.554,0,0,0-.816-8.4,12.253,12.253,0,0,1,5.17-13.043c6.72-4.943,12.518-10.765,13.221-21.184,1.1,4.047.437,9.63-1.225,12.373-2.488,4.107-4.809,8.29-8.365,11.727C609.2,624.258,607.981,630.453,608.009,636.957Z" transform="translate(-1 -1)"/><path class="cls-11" d="M574.11,647.009c2.135-5.975.459-11.506-1.969-16.95,1.549.947,3.057,1.967,4.653,2.823,2.473,1.326,5.142,2.263,5.252,5.861s-2.384,5.262-4.74,7.025A12.574,12.574,0,0,1,574.11,647.009Z" transform="translate(-1 -1)"/><path class="cls-11" d="M591.921,666.465c-3.2-.288-6.434-.416-9.6-.931-1.66-.269-3.588-.56-4.449-2.486,5.464.431,6.47-4.561,9.9-9.051C587.924,659.5,589.885,663,591.921,666.465Z" transform="translate(-1 -1)"/><path class="cls-16" d="M709,661.115c-3.483-2.6-6.173-5.419-4.08-10.334a3.8,3.8,0,0,0-1.121-4.474c-2.082-1.929-5.216-3.856-2.927-7.373,2.088-3.207,5.245-1.821,8.11-1.175,3.771-.316,5.807-3.115,8.048-5.621.774-.935,1.539-1.9,2.97-1.18,5.426,5.554,12.136,10.074,15.566,17.26,2.074,4.346-1.989,12.273-7.006,13.844C722.055,664.1,715.348,664.8,709,661.115Z" transform="translate(-1 -1)"/><path class="cls-11" d="M720,630.958l-2.97,1.18a54.786,54.786,0,0,0-3.044-11.455,45.23,45.23,0,0,1-.978-30c0,2.183.14,4.376-.026,6.546a31.889,31.889,0,0,0,4.652,19.052C720.318,620.836,721.962,625.622,720,630.958Z" transform="translate(-1 -1)"/><path class="cls-12" d="M708.018,679c-3.522-2.117-7.067-4.2-10.557-6.368-1.767-1.1-3.343-2.592-2.154-4.838,1.242-2.344,3.338-1.67,5.157-.678,2.74,1.5,5.4,3.138,8.092,4.717C712.947,675.743,712.867,676.81,708.018,679Z" transform="translate(-1 -1)"/><path class="cls-12" d="M730.227,684.505c-2.6-.9-5.775-1.886-8.855-3.12-1.615-.648-2.881-1.94-2.238-3.916s2.291-2.328,4.069-1.8q4.773,1.433,9.474,3.1c1.76.624,2.822,1.924,2.194,3.869S732.618,684.885,730.227,684.505Z" transform="translate(-1 -1)"/><path class="cls-16" d="M681.739,535.026c-5.282,1.349-9.307,5.551-15.881,6.116,5.569,3.935,10.542,2.172,15.382,1.788-.635,3.413-1.124,6.984-4.63,8.8-4.733,2.444-10.546-.546-12.37-6.276-.545-1.71-.889-3.483-1.325-5.227-.939-1.6-2.793-2.637-2.95-4.729-2.349-2.733-5.734-4.56-6.959-8.278-2.518-7.638,2.9-11.639,7.716-15.1,6.274-4.513,13.2-8.2,21.245-8.91a5.389,5.389,0,0,1,5.2,1.982c5.806,7.263,5.033,18.064-1.818,24C683.509,530.776,682.669,532.91,681.739,535.026Z" transform="translate(-1 -1)"/><path class="cls-3" d="M659.965,535.493c1.957.969,3.5,2.2,2.951,4.729-3.735-.84-7.34.294-10.992.716C653.662,537.732,657.819,538.1,659.965,535.493Z" transform="translate(-1 -1)"/><path class="cls-3" d="M649.426,541.968a2.15,2.15,0,0,1,2.564-1.054C651.461,542.057,650.44,542,649.426,541.968Z" transform="translate(-1 -1)"/><path class="cls-23" d="M473.978,474.177l-2.039-1c-3.869-4.84-6.545-10.417-9.575-15.76-3.7-6.525-8.4-11.926-15.03-15.6-1.441-.8-3.585-1.35-3.321-3.8,13.76-.589,27.107,2.355,40.386,5.219,19.925,4.3,38.963,11.248,56.511,21.762,15.994,9.584,30.926,20.585,43.4,34.625a3.3,3.3,0,0,1-1.218,1.455c-2.87,1.583-6.034,1.664-9.181,1.689-9.276.075-18.552.011-27.828.037a18.2,18.2,0,0,1-8.166-1.78l-2.806-1.144c-4.818-.723-8.226-4.2-12.217-6.463a165.233,165.233,0,0,0-40.154-15.97C479.718,476.666,476.453,476.454,473.978,474.177Z" transform="translate(-1 -1)"/><path class="cls-24" d="M444.013,438.023c14.475,6.219,20.084,20.006,27.46,32.267.466.776.325,1.918.467,2.891-7.916-.332-15.736-1.669-23.605-2.453-12.347-1.231-24.326.334-36.348,2.5a.727.727,0,0,1-.983-.259c-.789-12.418-5.49-22.928-15.131-31.032q.125-.428.234-.86a285.573,285.573,0,0,1,44.909-3.978Z" transform="translate(-1 -1)"/><path class="cls-23" d="M585.958,500.022q.048.48.09.961c-1.1.558-2.039.762-2.054-.974l.313-.378Q585.133,499.825,585.958,500.022Z" transform="translate(-1 -1)"/><path class="cls-21" d="M294.205,417.034c1.222,1.334,2.413,2.7,3.673,3.993,1.484,1.528,2.8,3.2.965,5.147-1.612,1.709-3.292.692-4.865-.465-3.266-2.4-5.508-5.747-8.171-8.7-.812-.914-2.654-1.169-1.948-3.052.12-1.66.1-3.479,2.267-3.842,3.121-.523,3.953,2.482,5.791,3.938Z" transform="translate(-1 -1)"/><path class="cls-22" d="M283.859,413.952,285.808,417l-11.671-.034c-.28-2.131.676-3.029,2.794-2.978C279.239,414.048,281.55,413.971,283.859,413.952Z" transform="translate(-1 -1)"/><path class="cls-8" d="M318.351,452.706,304.1,440.884c-1.061-2.306-5.2-3.157-3.969-6.258,1.384-3.489,4.322-6.144,7.137-8.7a2.083,2.083,0,0,1,3.11.112c5.858,6.12,13.92,9.886,18.89,17.822C325.121,446.2,325.626,453.85,318.351,452.706Z" transform="translate(-1 -1)"/><path class="cls-24" d="M583.994,500.009a2.236,2.236,0,0,0,2.054.974c2.449,2.334,6.2,3.7,5.994,8.015a239.42,239.42,0,0,0-24.251,22.437c-8.669-11.758-18.853-21.512-29.875-30.406C553.271,500.508,568.672,502.039,583.994,500.009Z" transform="translate(-1 -1)"/><path class="cls-8" d="M412.134,280.122q30.361-.266,60.722-.023.009,1.445.016,2.889-30.266.035-60.532,0Z" transform="translate(-1 -1)"/><path class="cls-21" d="M355.86,579.432l-22.123-23.684c4.049-5.517,9.026-9.651,13.938-13.806,26.1-22.077,56.081-34.639,90.435-34.6,36.322.045,67.862,13.358,95.006,37.3,3.12,2.753,6.055,5.716,9.158,8.489,2.123,1.9,1.98,3.448-.1,5.332-6.665,6.039-13.3,12.114-19.791,18.336-2.435,2.335-3.874,1.306-5.7-.672a105.838,105.838,0,0,0-35.335-25.654c-34.188-14.971-67.129-11.725-98.891,7.163C372.684,563.454,364.212,570.913,355.86,579.432Z" transform="translate(-1 -1)"/><path class="cls-1" d="M491.383,607.18c-4.17,5.662-9.743,9.975-14.5,15.073-2.474,2.652-4.191.553-5.788-1.086-8.98-9.214-19.909-13.351-32.724-13.374-12.482-.021-23.11,4.021-31.836,12.981q-1.392,1.428-2.851,2.791a7.152,7.152,0,0,1-1.445.663,163.912,163.912,0,0,1-16.485-17.411c.01-1.537,1.069-2.427,2.166-3.152,11.688-7.728,23.483-15.024,37.742-17.445,10.788-1.831,20.517,1.2,30.05,5.157,10.447,4.34,20.633,9.3,31.482,12.645C488.911,604.552,490.754,605.114,491.383,607.18Z" transform="translate(-1 -1)"/><path class="cls-7" d="M491.383,607.18c-15.548-4.384-29.72-12.274-44.931-17.566-11.926-4.15-23.212-2.639-34.371,2.106-9.357,3.978-17.954,9.36-26.326,15.1a27.312,27.312,0,0,1-6.3-6.667c15.207-17.3,34.557-25.631,57.24-26.51q36.987-1.434,61.692,26.577A25.083,25.083,0,0,1,491.383,607.18Z" transform="translate(-1 -1)"/><path class="cls-15" d="M411,472.966l.983.258c2.7,7.663,5.26,15.379,8.166,22.961,1.361,3.551.7,4.849-3.195,4.828-24.437-.134-48.876-.159-73.314-.22.065-2.176,1.756-3.125,3.258-4.106a163.408,163.408,0,0,1,34.286-17.145c2.473-.886,5.228-.837,7.77-1.624Z" transform="translate(-1 -1)"/><path class="cls-15" d="M473.978,474.177c22.2,4.241,42.853,12.145,61.13,25.71-1.28,1.5-3.035,1.077-4.644,1.08-12.757.025-25.516-.06-38.272.06-3.694.035-6.446-1.112-8.141-4.453C480.344,489.266,475.962,482.26,473.978,474.177Z" transform="translate(-1 -1)"/><path class="cls-19" d="M562.029,628.015a3.1,3.1,0,0,1-2.071,2.948c-1.689-1.612-3.8-.921-5.714-.923q-64.113-.06-128.225-.032Q426.511,629,427,628Z" transform="translate(-1 -1)"/><path class="cls-26" d="M388.958,477.918c-9.226,3.553-18.566,6.861-27.253,11.654-6.209,3.425-12.649,6.5-18.058,11.223q-1.827.6-3.649,1.2-.006-.991-.013-1.983c1.455-3.673,5.056-5.166,7.919-7.147,12.118-8.387,25.368-14.109,40.239-15.448C388.4,477.4,388.686,477.743,388.958,477.918Z" transform="translate(-1 -1)"/><path class="cls-7" d="M355.959,775.967a30.9,30.9,0,0,1-25.448-.1c-9.2-3.069-16-13.849-13.79-21.868L316.715,750c-1.679-2.367-.865-4.778-.062-7.147,3.589-10.594,13.5-18.512,23.771-19.365,12.672-1.052,21.965,4.234,27.983,15.09,5.6,10.1,3.942,23-3.295,31.794A17.815,17.815,0,0,1,355.959,775.967Z" transform="translate(-1 -1)"/><path class="cls-26" d="M450.95,775.963a30.93,30.93,0,0,1-24.958.021c-8.915-2.843-15.093-11.618-15.49-22-.536-14.023,6.7-25,19.35-29.316,2.367-.806,4.776-1.629,7.151.034l2.994,0c2.181-1.561,4.44-.91,6.68-.2a28.821,28.821,0,0,1,15.468,43.034C459.424,771.78,455.916,774.8,450.95,775.963Z" transform="translate(-1 -1)"/><path class="cls-1" d="M452.894,646.118q1.485,2,2.967,4,.309.519.62,1.038c4.943,4.015,3.478,9.483,2.485,14.259-2.348,11.3-14.9,18.6-25.764,15.591a21.4,21.4,0,0,1-14.649-26.344A6.979,6.979,0,0,1,421.987,650c3.126-4.22,6.945-7.525,12.053-9.127a2.664,2.664,0,0,1,1.518-.782C442.042,640.07,448.023,641.5,452.894,646.118Z" transform="translate(-1 -1)"/><path class="cls-27" d="M516.017,775.956l-6.019.011a27.232,27.232,0,0,1-9.947-15.322c-2.012-8.695-1.9-17.61,3.839-24.536,5.134-6.19,10.4-13.023,19.675-14.263,17.25-2.307,33.576,3.863,37.884,25.284,1.914,9.512,1.058,20.367-9.218,26.791A2.623,2.623,0,0,0,551,775.968l-6.039-.024c-.419-2.5,1.758-3.381,3.047-4.76,11.826-12.652,9.49-32.114-4.884-40.4-11.013-6.352-23.984-3.872-32.33,6.181-7.494,9.026-6.978,23.92,1.014,33.184C513.359,771.94,516.088,772.966,516.017,775.956Z" transform="translate(-1 -1)"/><path class="cls-27" d="M355.959,775.967c11.074-7.29,16.47-17.311,13.459-30.566-3.03-13.336-14.3-21.266-27.964-20.51-12.844.71-22.807,10.823-24.739,25.112-4.252-.5-5.174-2.993-3.935-6.682,4.9-14.6,16.524-24.453,35-22.523,17.417,1.818,22.525,12.547,26.811,23.453.636,1.618-.263,2.9-.617,4.314-.4,1.587-1.32,3.087-.685,4.822,2.82,7.71-1.219,13.3-5.9,18.593-1.089,1.231-2.7,1.981-2.383,3.99Z" transform="translate(-1 -1)"/><path class="cls-27" d="M421.987,650c-6.083,12.819-.559,22.5,6.123,26.9a18.778,18.778,0,0,0,21.5-.418,20.492,20.492,0,0,0,8.094-21.025c-.308-1.455-.808-2.869-1.222-4.3,5.521.049,6.6,4.022,6.421,8.162-.418,9.811-4,17.987-13.222,22.875-2.923,1.549-5.843,2.319-9.067,1.5a5.835,5.835,0,0,0-3.385-.28c-12.911,4.067-26.648-16.73-22.363-27.721C416.235,652.175,418.078,649.982,421.987,650Z" transform="translate(-1 -1)"/><path class="cls-27" d="M450.95,775.963c7.727-5.015,13.3-11.522,14.011-21.124,1.216-16.432-8.421-27.985-24.964-30.131.345-4.148,2.664-4.713,6.266-3.808,12.575,3.163,19.618,11.711,23.38,23.559a5.154,5.154,0,0,1-.471,4.778c-.578.824-1.3,1.684-.943,2.723,3.336,9.59-1.513,16.026-8.243,21.81-.551.474-.666,1.453-.984,2.2Z" transform="translate(-1 -1)"/><path class="cls-27" d="M437,724.7c-11.611,1.366-20.064,7.264-23.693,18.415-3.494,10.738-1.272,20.677,7.155,28.706a57.231,57.231,0,0,0,5.527,4.162L418,775.967c-.054-.982.131-2.258-.941-2.641-6.5-2.326-8.6-8.312-9.031-13.785-.594-7.615-1.986-15.718,2.66-22.964,4.51-7.033,10.057-12.8,18.356-14.971C432.037,720.824,436.254,718.856,437,724.7Z" transform="translate(-1 -1)"/><path class="cls-27" d="M316.721,754c1,9.553,6.018,16.579,13.788,21.868l-8.51.108c-.551-3.584-4.056-5.039-5.723-7.9a32.969,32.969,0,0,1-3.537-8.662C311.956,756.275,312.592,753.734,316.721,754Z" transform="translate(-1 -1)"/><path class="cls-27" d="M435.558,640.091l-1.518.783Z" transform="translate(-1 -1)"/><path class="cls-28" d="M516.017,775.956c-12.445-9.954-15.645-24.007-8.442-37.079,5.34-9.692,18.292-15.235,29.128-12.467,11.53,2.945,19.954,13.52,20.385,24.728.408,10.6-4.314,18.382-12.124,24.807C535.316,780.734,525.668,781.024,516.017,775.956Z" transform="translate(-1 -1)"/></svg>