<svg viewBox="0 0 1496.58 1317.94" xmlns="http://www.w3.org/2000/svg"><g transform="translate(0 -40.05)"><path d="m0 1088.61c15.43-16.46 25.83-37.23 44-51.29 7.38-5.69 13.41-13.29 22.79-16.17 3.24 2.29 3.63 5.84 3.72 9.29.4 17 .37 34 0 51-.07 3.46-.47 7-3.52 9.42-22.34-2.57-44.68-3.85-67-.15z" fill="#dad6e6"/><path d="m1462.71 964.06c5.19-.11 6.09 2.84 6.08 7.41-.13 43.42-.19 86.84 0 130.26 0 5.74-2.32 7.81-7.34 9.32-60.19 18.17-99.74 57.46-118.77 117.17-2.06 6.45-6.09 5.58-10.48 5.58q-59.43.06-118.86.06c-4.54 0-9.08.48-13.62.74-4.23 2.18-8.82 2-13.38 2-44.87 0-89.75-.18-134.62.15-10.25.08-17.94-3.27-25.15-10.45-26.89-26.81-59.95-40.53-97.45-44.44-49.56-5.17-92.73 9.38-129.68 42.34-10 8.88-20.49 12.88-34.13 12.68-49.07-.7-98.16-.58-147.23-.06-12.58.14-20.4-4.31-27.86-14.48-30.1-41-70.27-64.79-121.65-70.24-25.57-2.71-49.42 2.5-73.48 8.83-4.15.82-7.31-1.88-10.91-3.08-15.5-5.16-28.68 1-34.37 16.3-1.55 4.17-3.34 7.16-8.22 5.56-20.33-6.65-37.51-18.55-53.46-32.41a5.76 5.76 0 0 1 -1.89-5.72c1.5-2.25 4.06-2.53 6.3-3.45 8.48-3.49 11.33-9.55 7.71-16.2-3.48-6.39-12.74-8.65-19.32-4.76a14.9 14.9 0 0 0 -5.05 5.24c-3.52 5.71-7.58 5.34-12 1.16a163.61 163.61 0 0 1 -26.43-32.49c-4.45-7.13-3-9.79 5.29-11.3 7-1.27 13.15-3.28 14.38-11.35.66-4.32-1.69-7.66-5.62-9.12-7-2.59-13.76-2.52-19.39 3.36-1.68 1.75-2.94 3.95-5.58 5-4.88-.15-6.58-4.39-9-7.65-8.39-11.3-14.65-23.84-20.59-36.51-4.77-10.17-3-12.76 8-11.54a36.7 36.7 0 0 0 26.75-7.09c9.81-7.25 9.21-17.35-1-23.85-13.25-8.39-27.21-6.66-38.12 4.66-2.65 2.74-4.17 6.54-9.15 9-6.94-8.91-15-17.27-16.16-29.74l82.81-2.21a28 28 0 0 1 8.23-1.44c72.4.19 144.79-.38 217.19.28q88.35-.69 176.7 0 102-.66 204 0 86.21-.71 172.42 0c51.89-.28 103.77-.73 155.66.19 5 1 10 1.75 15.06.38 25.92-1.48 51.86-.65 77.8-.53 15.56-.44 31.12-.34 46.68-.09 40.87-.5 81.73-.15 122.59-.21 5.6-.09 11.33-.68 16.31 2.74z" fill="#9e8dbf"/><path d="m1186.56 964.09h-157.3c-4.63-3.77-5.23-8.71-4.12-14.14.76-3.06 2.73-5.72 3-8.93 2.79-32.74 18.83-60.2 37.82-85.26 18.48-24.4 24.6-52 29.83-80.68 2.5-13.69 2.21-28 8.22-41 3.55-2.93.3-7.59 1.68-9.59-.75 1.72.73 5.2-.51 8.24-6.6 10.78-10.21 22.88-13.83 34.75-5.64 18.46-13.69 35.79-22.43 52.8-6 11.65-15.29 20.49-27 27-7.89 4.38-15.45 9.43-23.16 14.2-23.71 4.93-47.89 6.16-71.87 8.72-12.18 1.3-24.25-2.86-35.95-6.51-6.45-2-9-7.32-9-13.9a109 109 0 0 1 .32-15.65c4-14.23 15-24.2 22.49-36.29 4.57-7.36 8.69-15.29 16.75-19.78 27.09-10 41.43-32.71 55.47-55.72 5.24-8.6 10-17.51 17.3-24.7 12.37-11.59 14.43-28.17 20.28-42.82 2.64-6.61 5.45-13 10.25-17.88 22.44-22.82 48.65-39.18 80.7-44.94 9.72 3.74 17.13 11.55 27.52 14.49 11.85 3.36 22.69 2.54 33.15-3.47a191.68 191.68 0 0 1 30-14.23c24.56 2.09 41.58 15.73 54.68 35.48 4.24 6.39 8.72 12.62 13.09 18.93 6 3.83 7.84 10.39 10.25 16.43 5.4 13.48 9.86 27.38 18.25 39.49 2.86 6.62 6.86 12.72 9.1 19.63 2.21 11.86 9.54 21.93 11.88 33.75-5.07 17.9-14.57 33.13-26.66 47.23-5.76-4.58-4.18-9.53-4.35-13.78-.5-12.92-4-24.72-11.36-35.43-10.87-15.69-20.24-17.8-36-7.73-4.22.53-6.1-2.67-8.46-5.21-6.9-7.4-12.32-16.1-20.39-22.4 9.83 14.58 13.47 32.48 24.15 46.86a6.16 6.16 0 0 1 .65 4.27c-1.33 1.59-1.07 3 .42 4.41 1.5 12.17 6.17 23.29 11.34 34.26.41 1 .75 1.94 1.08 2.93a25.24 25.24 0 0 1 .94 3c2.27 11 4.52 22 5.91 33.11a10.12 10.12 0 0 1 -.71 3.12c-6 6.57-10 15.13-18.47 19.19-5.34-3.22-4-8.34-5-12.52-3-13.5-8.1-25.4-22-31.23-10.92-4.6-20.21-1.1-25.27 9.56-8.17 17.22.14 41 17.31 49.67 3.38 1.72 7.48 2.13 10.06 5.38 1 3.91-1 6.89-3.31 9.51-16.28 18.37-28.89 38.68-34 63.05a6.92 6.92 0 0 1 -2.74 4.33z" fill="#feea01"/><path d="m392.87 1160.16c11.59-7.27 25-8.89 37.95-10.41 62-7.3 113.16 14 154.46 60.12.94 1 2.25 2 2.71 3.18 7.54 20.32 23.57 21.43 42.28 21 45.19-1 90.43-.91 135.63 0 13.07.27 22.56-3.65 31.63-12.22 30.88-29.21 68.62-43.68 110.33-44.38 46.71-.78 88.87 13.93 122.48 48 5.87 6 11.8 8.46 20.21 8.39 45.91-.37 91.83-.19 137.75-.14 3.82 0 7.64.55 11.47.84-12.37 14.49-27.54 25.67-44.18 34.38-29.56 15.46-60.5 26.17-94.49 28.25-19.08 1.17-38.45 0-57.28 3.78-25.05 5-49.43 12.38-70.69 27.3-23.07 16.19-48.66 22.62-76.73 23.26-51.51 1.18-102.26-4.51-152.95-12.63-38.11-6.1-76.51-10.59-113.94-20.22-41-10.55-80-27.18-119.07-42.93-49.2-19.82-96.7-43.92-148.43-57.18a26.47 26.47 0 0 1 -4.73-2.24c-1.58-7.45 4.5-11.26 8.26-15.68 5-6 9.83-12.69 17.93-15.25 6.65-.68 12.22 2.82 18 5 12 4.58 24.23 8.68 37 13.25-3.62 8.67-3.57 16 4.58 20.84 5.59 3.34 10.81 1.25 12.2-4.63 3.13-13.15 3.73-13.45 17.42-8.92-12.79-4.55-25.95-7.79-39.14-11a50 50 0 0 1 -11.91-4c-3.79-2-5.74-5.62-1.62-8.08 10.9-6.42 12.74-16.52 12.87-27.68z" fill="#dad6e6"/><path d="m439.87 613.46c30.72 21.4 55.08 49 76 79.59 6.16 9 10.71 19.28 14.79 29.63 2.18 5.54 1 9.2-2.7 12.92a8.74 8.74 0 0 1 -2.32 3.81c-14.48 10.39-27.84 22.16-41.23 33.87-4.06 3.55-7.51 8.74-14.28 6.25-10.4-11.78-19.38-24.44-23.46-35.47-1.86 31.53 13.18 63.65 21.79 97.18a12.67 12.67 0 0 0 2.57 5.68l9.06 54.58c6.07 14.69 3.46 26.67-7.31 33.62-28.09 1.79-56.19 2.92-84.25-.55.13-5.28.12-5.34 6.35-6.6 14.08-2.83 28.41-4 42.61-6 13.27-1.88 13.07-2.32 11.41-15.23q-8.52-66-16.45-132.09c-2.27-19.08-2.07-18.94-20.82-16.27-26.33 3.75-52.52 8.48-79 11.37-8.27.9-9.44 4.33-8.54 11.64 2.22 18 4.17 36.09 6.08 54.15.41 3.84 1.14 7.65-1 11.23-5.17 4.5-11.17 3.23-16.88 1.77-16.52-4.19-32.92-8.79-49.75-11.8-9.31-1.66-10.29-5.22-5.08-13.5 2.5.84 2.5.84 4 2.79 21.73-40.54 40.47-82.14 38-123.66-3.8 19.29-11.24 43.7-25.57 65.58-3.95 1.58-7.63.07-11.2-1.24-16.09-5.93-32.1-12.08-48.1-18.22-2.63-1-5.24-2.12-6.42-5 3.07-32.52 15.12-61.52 34.62-87.55 12.12-16.18 24.52-32.2 41.55-43.67a192.08 192.08 0 0 1 37.53-19.77c5 .12 8.06 3.64 11.56 6.49 23.91 19.49 50.47 27.43 80.84 18.11 8.36-2.57 16.73-4.83 25.6-3.64z" fill="#391f7a"/><path d="m1462.71 964.06-139.25.1c6.28-19.94 12.23-40 19.92-59.47 7.22-18.27 10.8-37.66 18.07-55.9 3.07-7.71.08-14.91-3.4-22.09-9.12-18.84-19.75-37-25.53-57.38a6 6 0 0 1 0-3.1c10.45-22.48 18.36-45.88 25.54-69.55 1.24-4.06 3.57-6.16 8.59-5.2 21.56 4.09 35.15-5.3 39.71-27 .36-1.68.31-3.49 1.92-4.64 13.38 2.12 21.42 12.54 31 20.36 21.21 17.4 32.33 41.12 42.24 66.19 11.14 28.16 16.69 56.6 14.66 86.77-1.67 24.81-7.61 48.63-14.36 72.43-5.61 19.75-12.71 38.99-19.11 58.48z" fill="#dad6e6"/><path d="m343.3 1187.21c-10.17 8.39-19.73 17.32-26 29.15-1.29 1.16-3.16 2.08-3.79 3.53-5.91 13.58-17 14.54-30 14.19-29.76-.79-59.56-.42-89.35-.11-6.49.07-9.94-2.1-13-7.88-22.17-42.22-55.71-71.43-101.65-85.2-10.08-3-13.08-7.62-12.36-17.51.79-10.78 0-21.67-.09-32.52q-.11-34.84-.22-69.71v-56.84h80c.28 6.1-4.67 4.59-7.8 5-23.23 3-38.44 16-46 37.7-4.1 11.79-3.63 23.88 5.8 33.35 9.6 9.66 21.48 9.55 33.22 4.51 18.73-8 30-22.28 33.41-42.54.61-3.67-.31-7.85 3.62-10.58 5.59 2 6.65 7.73 9.53 11.88 6.19 8.92 11.6 18.33 17 27.73 5.56 9.65 4.36 12.55-6.33 13.55-8.09.76-13.7 4.81-18.43 10.74-9 11.25-7.69 25.26 2.85 32.28 10 6.68 24.62 2.18 31.32-9.59 2.19-3.85 2.88-8.77 9-11.58 8.68 8.12 15.2 18.24 20.44 29.09 2.17 4.48-2.17 6.49-5.59 8.58-10.1 6.17-14.77 16.48-12.15 26.55 1.56 6 4.33 11.54 11.12 12.59 7.12 1.1 11.91-3 15.24-8.92 1.72-3.06 2.58-6.5 4-9.67 3.24-7 6.93-8.23 11.68-2.6a199.94 199.94 0 0 0 32.71 30.93c3.51 2.64 4 5.67.68 9.74-9.14 11.24-8.2 24.91 1.85 34.5 3.64 3.48 7.92 6.4 13.18 4.59s6.41-6.82 7.52-11.74c1.5-6.63-3.46-12.8-1.12-21 10.73 5.54 22.71 7.13 29.71 17.81z" fill="#9f8ebf"/><path d="m986.45 243.74c-.32 33.65-.58 67.21-16.27 98.53-10.6 21.16-21.21 42.79-37.86 59.22-35.15 34.66-75.06 62-125.84 69.48-38 5.59-75.54 4.48-111.54-9.05a201 201 0 0 1 -69-43.53c-35-33.65-58.09-74-65.51-121.83-3.12-20.14-1.1-41.22-.24-61.82 1.25-30 13.11-56.72 27.29-82.54 29.2-53.17 72.85-88 131.71-103.88 43.75-11.78 87.25-11.12 130.16 3 25.13 8.17 46.56 23.44 66.25 40.68 37.72 32.93 61.08 74.5 70.6 123.53 1.8 9.05.25 18.78.25 28.21z" fill="#3c217b"/><path d="m669.6 619.83c3.35-7.43 10.72-9.56 17.26-12.24 11.15-4.54 22.21-10.09 34.92-8.38 1.06.74 2.3 1.17 3.35 1.95 1.37 1.16 2.7 2.37 4 3.65a17.17 17.17 0 0 1 1.87 2.19c20.09 23 37.57 26.64 65 13.18 7.27-3.56 14.52-6.85 22.66-7.73 12.38 4.78 25.89 8.26 28.67 24.34-5.3 12.54-12.56 24.14-17.43 36.9-2 5.26-4 10.44-4.15 16.16.17 18.64-.34 37.3 1.93 55.85 0 2.81 0 5.88-1.36 8.21-10.28 17-18.69 35.24-33.69 49-11.65 5.48-23.58 6.62-35.68 1.73a126.26 126.26 0 0 0 -62.69-8.44c-8.64-6.58-9.13-16.63-10.93-26.06-.64-3.38-.16-6.93-.67-10.38-.93-8-4.95-15.87-1.59-24.18 8.34-2.25 10.11-8.85 10.14-16.11a366.46 366.46 0 0 0 -6.78-70 87.14 87.14 0 0 0 -14.83-29.64z" fill="#fee800"/><path d="m343.3 1187.21-29.26-16c2.1 7.38 4.7 13.8 3.69 20.72-.86 5.85-3.39 10.56-8.9 13.32-5.75 2.88-10.27-.24-14.43-3.33-15.12-11.25-15.44-33.55.05-43.57-16.65-10.21-29-24.75-42.72-39.83-1.82 6.13-2.76 10.5-4.41 14.57-3.94 9.75-13.61 15.86-20.94 13.63-8.4-2.57-14.11-12.56-13-22.71 1.47-13.15 7-20 21.31-24.65l-21.87-32c-3.49 11.43-8.71 20.38-19.11 24.57-5.11 2.06-10.43 3.28-16.27 1.2-10.48-3.74-16.64-13-15.42-24.41 1.69-15.81 13.14-24.75 36.39-27.41l-29.31-48.9c-1 28.39-14.24 46.63-39 56.23-11.56 4.48-22.93 3.24-32.38-5.2-9.88-8.84-11.33-20.68-8.61-32.81 5.72-25.55 26.56-42.54 52.9-44 1.85-.1 4.4.88 4.78-2.34 1.47-10.53 5.72-12.44 13.9-6 2.42 1.9 4.38 4.37 6.55 6.58 5.46 9.32 10.92 18.65 16.48 28.13 12.7-20.09 27.81-25.06 46.6-15.59 14.4 7.25 15.46 21.45 2.09 30.53-11 7.45-23.1 8.9-37.46 4.17 7.9 21 18.56 38.23 30.66 55 7.07-11.16 15.82-15.28 25.49-11.71 5.6 2.07 9.42 6.48 9.38 12.64-.06 8.53-7.66 13.15-24.74 15.36 9.33 16.5 21.33 30.22 34.89 43.07 6.66-12.54 12.54-16 21.78-13.48 8 2.22 13.28 7.27 12.43 15.74-1 9.64-8.07 13.08-19.06 13 17.86 17.31 37.45 28.59 60.07 37.29.58-12.62 7.17-20.32 18.5-23.89 10.31-3.24 20-2.18 28.47 5.06 5.4 14.38 2.65 20.45-14.86 31.49 9.88 5.3 20.64 5.92 30.46 9.31s20.56 3.41 28.72 10.64c-6.37 3.63-12.75-2.08-20.26-.68 1.22 6.79 5.34 14.86-4.46 18.37-7.1 2.53-12-1.6-16.27-6.64-5-5.87-5.55-11.73.77-18-19.31-2.8-35.28-13.63-53.62-17.47z" fill="#fde803"/><path d="m845.39 636.62c-3.29-14.23-17.22-16.2-26.78-23.21-7.35-1.36-11.94-6-14.89-12.54-5.13-15.22-9.91-18.51-25.86-17.68-2.72.14-5.5 1.11-8-.82.69-8.65 5.09-15.83 9.94-22.51 8.39-11.57 7.73-24.52 5.64-37.2-2.21-13.35-22.62-22.49-35.44-17-3.09 1.31-5.61 4.44-9.57 3.15 6.29-18.14 21.84-23 38.24-25.24 19.52-2.7 34.34 6.28 45.7 21.59 2.7 3.63 4.85 7.67 7.56 11.29 6.89 9.21 15.48 13.37 27.32 10.06s22.84-1.43 31.92 7.37c5 4.82 11.18 6.61 17.52 8.45 9.79 2.84 18.72 6.76 24.72 16 4.5 6.9 12.61 9.66 19.59 13.46 12.69 6.92 18.44 16.72 22.14 31.49 8.76 35-8.48 55.15-34.09 72.92a158.22 158.22 0 0 1 -34.64 18.59c-2 4.56-5.16 2.18-7.68 1a61.42 61.42 0 0 1 -12.63-7.47c-5.24-4.25-11-5.51-17.53-4.71-10.96-14.11-17.34-30.42-23.18-46.99z" fill="#020202"/><path d="m473.11 933.18c7.43-4.09 6.85-11.29 7-18.16.1-4.5 0-9 0-13.52 48.47-12.49 97.14-24.48 140.49-51 3.31-2 6.65-3.84 10.7-3.65 4.33 10.26-3.59 16.52-8.58 22.91-6.47 8.29-11 16.91-12.35 27.26a6.2 6.2 0 0 0 .59 3.84c8.46 1.14 12.37-5.33 14.47-11.37 7.24-20.87 25-35.38 32.85-55.78a11 11 0 0 1 5.06-5.23c5.59-1.4 10.66-7.32 17-1.93a13 13 0 0 1 -1.08 8.16c-11.19 26.57-14.49 55.15-21.22 82.85-2.65 10.88-3 22-2.8 33.22.1 4.8.73 9.86-3.05 13.88l-176.5-.4c-4.83-10.05-4.69-20.48-2.58-31.08z" fill="#dad6e5"/><path d="m869.29 683.07c3-4.42 5.92-5 11-1.93 8.35 5.12 15.38 13.09 26.16 13.6 8.22 11.15 21.23 15.3 32.4 22.14 6.22 1.64 11.74 4.87 17.49 7.62 19.67 12.68 15.35 13.73 5.14 28.83-6.06 8.95-12.23 17.8-18.76 26.41-9.35 6.56-13.82 17-20.27 25.8-6.29 8.63-11.91 17.75-17.83 26.65-2.45 6.94-6.87 12.76-10.73 18.92-5.52 8.94-12.14 17.12-17.9 25.89-4.66 7.08-10.34 9-17.81 4.53-19.61-14.53-40.9-26.47-61.58-39.33-25.81-16.05-26.41-20.69-3.29-41.47 11.83-17.1 24-34 33.38-52.63 5.33-13.47 15.21-24.18 22.29-36.59 6.8-9.44 11.07-20.71 20.31-28.44z" fill="#dbdbdc"/><path d="m471.52 780.18q19.11-15.95 38.21-31.92c5-4.23 9.78-8.83 16.23-10.93 12.56 21.94 19.74 45.63 23.25 68.4.37-8-3.68-18.48 2-28.27 3.47-11.65 5.71-23.86 10.66-34.85 11.31-25.08 21.63-50.45 29-77 .81-2.92 2.68-5.54 4.56-9.3 2.71 2.31.76 6.2 4.36 7.28 5.38-.8 8.44-8.73 16.15-7.28.8 9.34 2.63 17.84-8 24.4-7.55 4.64-9.63 14.33-9.85 23.26-.43 17.14-.82 34.31-.42 51.45.64 27.75-7.9 53.73-16.74 79.15-10 28.63-30.75 32.59-53.56 12.46-21.66-19.12-38.69-42.22-55.52-65.45-.59-.2-.84-.47-.74-.83s.25-.57.41-.57z" fill="#faab72"/><path d="m208.17 743.49 65 24.26c3.38 2.57 3.12 6.23 2.09 9.5-4.18 13.27-7.2 26.84-11.09 40.18a10.12 10.12 0 0 1 -4.85 6.51c-3.25 4.3-6.34 9.47 2.19 10.22 17 1.48 33.06 6.62 49.32 11a51.73 51.73 0 0 0 17.43 1.72c3.77-3.31 8.41-3 12.9-2.91 12.7.3 25-1.31 36.55-7 5-2.46 10.1-3.44 13.32 3a16.46 16.46 0 0 1 .83 7.33c-3.16 12.69-6.59 16.24-20 16.8-13.62.57-26.93 2.85-40.31 5-23 8.25-47.4 9-71.12 13.43a9.56 9.56 0 0 1 -8-1.7c-8.95-.1-17.91-.17-26.86-.33-4.15-.08-8.26-.45-11.21-4-.88-6.62-.37-13.27-.49-19.9-.18-9.39-3.34-17.87-8.27-25.64a84.07 84.07 0 0 1 -9.63-21.8c3.95-18.61 3.43-37.86 8-56.39.88-3.37 1.44-6.77 4.2-9.28z" fill="#f8aa72"/><path d="m473.11 933.18c2.73 10.2 2.83 20.62 2.56 31.06q-107.24 0-214.5 0c-3.7 0-7.74 1.34-11.08-1.57.44-12.52-.64-25.22 4.63-37.14 2.22-4.84 7.1-5.86 11.3-6.34 19.33-2.2 38.82-4.76 57.15 5a57.75 57.75 0 0 0 10.68 4.15 17.12 17.12 0 0 1 3.16 1.31c1.47.82 2.85 1.78 4.28 2.66 10.66 3.55 21.1-.82 31.66-.93 4.72-.06 9.55-2.2 13.87 1.42z" fill="#fce504"/><path d="m663.07 830.13c-9.23 15.45-16.36 32.08-29 45.55-5.95 6.33-4.37 17.62-12.16 23.72-3.61 2.83-6.09 8.43-12.25 5.11-6.61-3.57-.42-7.65-.62-11.44-.58-10.89 6.37-17.35 12.21-24.92 4.8-6.22 9.9-12.72 10.07-21.32 10-18 15.08-37.64 20.58-57.2 10-11.26 9.46-23.94 5-37.14-1.74-27.34-6.64-54.54-4.5-82 1.42-18.23 7.9-35 17.27-50.61 11.89 5.35 12.1 17.75 16.64 27.53 5.21 29.77-3.64 58.88-4.19 88.38q1.63 11.58 3.28 23.14c-1.76 16.75-1.08 33.86-8.44 49.72-3.72 7.81-6.5 16.08-13.89 21.48z" fill="#faab72"/><path d="m1408.31 659.81c1.54 26-23 43.4-46.35 32.17a504 504 0 0 1 -27.9 77.12c-.16 8.32-3.41 15.8-8 22.32-7.35 10.53-13.92 21.69-23.12 30.85a4.61 4.61 0 0 1 -3-.15c-13.46-27-32.08-50.91-46.49-77.35a2.94 2.94 0 0 1 .72-2.8c11.9-15 26.19-8.58 34.59 1.15 13.54 15.66 18 34.16 15.38 57.57 12.43-16.37 20.29-31.81 27.64-47.55-.54-8.32 4.17-15.32 6.56-23.24-6.84-4-15.8-4-19.08-12.32-3.62-5.58-7.06-11.25-8.78-17.77-.73-1.61-.79-3.39-1.28-5.06-2.1-7.15-.39-13.27 5.72-17.61s12.72-3.59 18.78.11c7.66 4.66 13.23 11.28 16.67 22.13a129.41 129.41 0 0 0 5.86-20.49c3-13.71 15.67-25.21 30.35-27.56 8.25.32 17.48-1.94 21.73 8.48z" fill="#3a207b"/><path d="m1134 588.22c4.42-14.13 3.78-16.51-8.43-23.76-16.81-10-23.88-25.53-25-44.06-.73-12.18 0-24.44 0-36.66 11.52 3.86 24.55 3.07 34.59 11.6 3.82 3.25 8.14 2.41 12.81.64 12.87-4.87 23.46 1.11 27.23 14.5 1.87 6.65.83 13.92 4.1 20.4 4.52-1.41 3.94-8.16 9.37-7.73 2.73 2.61 2.71 5.59.55 8.33-6.22 7.88-8.79 17.85-15.57 25.52-7.79 8.82-6 20-5.66 30.68-11.21 6.68-22.57 5.92-33.99.54z" fill="#e08f54"/><path d="m740.43 508.79c16.21-11.82 37.67-9.2 45.84 7.81 6.21 12.92 5.53 28.06-1.85 41-4.61 8.09-8.95 16.38-13.8 24.35-2.23 11.89 6 15.94 14.75 19.64-12.28 18.2-41.11 20-57.26 3.58-1.88-.91-3.06-2.61-4.54-4l-1.81-2c8.53-1.25 18.46 2.91 24.77-6.94 2.38-3.71 3.12-6.2-.19-10-22.84-26.14-24.17-44.09-5.91-73.44z" fill="#f8aa72"/><path d="m1188.71 523.15c-5.16 3.48-4.78 10.3-8.84 15.6-5.11-6.26-5.18-13-5.77-19.64-1.36-15.05-5.93-21.27-16.64-22.66-2.4-.31-5-1-7 .88-7.89 7.55-14.1 2-20.65-2.34-5.27-3.5-9.78-8.3-17.69-4.23-5.35 2.76-6.76-6-11.54-7-8.57-10.94-8.75-35.47-.38-46 4.91-6.17 9-2.45 11.52 1.77 8.56 14 21.33 17 36.68 16.64 39.92-.87 50.33 30.78 42.25 61.13-.51 1.98-1.28 3.9-1.94 5.85z" fill="#020202"/><path d="m336.68 931.09c-3.64.5-6.92-.65-10-2.31-23.46-12.53-47.54-11.12-71.92-3.26-4.66-10.85-1.29-22.25-2.28-33.36-.33-3.75 0-7.55 0-11.33 25.84-5.25 52.58-5.63 77.75-14.49 6.62 9.11 11.17 54.79 6.45 64.75z" fill="#3c217b"/><path d="m394.75 472.48c10.36 10 10.23 23.54 10.68 36.23.19 5.24 0 11.67-3.2 16.85-9.08 9.23-12.83 9.94-23.2 2.68-7.37-5.14-13.92-4.82-21 .19-14 9.85-21.9 8.22-31.25-6.06a36.57 36.57 0 0 0 -2.48-3.37c-1.55-13.68.83-26.5 8.46-38.15 21.04-.06 42.38 2.15 61.99-8.37z" fill="#f8aa72"/><path d="m1386.62 651.33c-8.62 3.68-14.37 11.57-23.07 15.38-3.75 1.64-4 6.76-4.33 10.92-.92 9.78-4.14 18.86-9.2 29-3.29-9-5.77-17.08-12-23.2-5.74-5.6-12.33-8.88-19.83-5.84-7.17 2.9-7.87 10-7.52 17 .09 1.73-.07 3.49-.12 5.23-13.09-16.87-16.72-38.17-26.56-56.56 24.11 0 48.24-.6 72.33.11 10.39.29 21.46.55 30.3 7.96z" fill="#dad6e5"/><path d="m439.87 613.46c-28.93 8.73-57.75 16.46-87.36 1.88-11.75-5.79-21-14.52-30.64-22.84 7.48-3 14.92-6.25 23.19-6.46 7.78-4.79 16.33-2.27 24.58-2.6 3.31-.06 6.48.4 9.16 2.59 12.36 13.83 29.54 17.09 46.38 21.27 5.14 1.28 10.82 1.8 14.69 6.16z" fill="#311b67"/><path d="m344.38 212.15c-11-20.42-1.47-38.76 15.83-47 17.73-8.4 40.59-.13 48.09 17 1.95 4.45.06 6.62-3.52 8.17-6.67 2.87-13.32 5.82-20.15 8.23-13.37 4.75-26.86 9.11-40.25 13.6z" fill="#fde803"/><path d="m324.3 519c6 2.67 8.09 9.66 14.36 12.44 5.44 2.41 9.18 2.82 13.9-1.68 12-11.43 17.89-11.85 30.2-1.16 8.52 7.4 13-2.14 19.46-3 1 18-6.49 30.79-23.07 38.15-5 3.83-10.74 4.63-16.77 4.41-6.94-1-14-1.55-18.94-7.54l.07.11c-1.27 0-1.87-1-2.51-1.84-9.52-7.69-16.85-16.35-15.14-29.88.41-3.25-.99-6.69-1.56-10.01z" fill="#020202"/><path d="m394.75 472.48c-8.86 7.74-18.6 12.78-30.95 10.79-10.27-1.65-21.12 4-31-2.43.61-20.11 19.56-35.13 39.87-33.12 10.46 1 20.16-4.12 30.58-4.18 3.39 11.81-3.25 20.18-8.5 28.94z" fill="#020202"/><path d="m942.68 779.74c2.82-12.72 12.44-21.46 19.39-31.59 5.95-8.66 8.8-14.31-3.53-18.43-2.24-.75-3.15-2.62-3.32-4.89.16-4.93 4.43-5.73 7.68-7.33 4.69-2.3 9.86-3.27 14.87-4.64 9.69-2.65 19.25-5.5 24.62-15.15h11.87c-15.37 26.12-28.82 53.57-53.26 73.29-5.59 4.56-12.35 5.54-18.32 8.74z" fill="#dad6e5"/><path d="m471.52 780.18a2.47 2.47 0 0 0 .34 1.43q-.41 32.65-.83 65.31c-8.58-4.27-8-13.33-9.87-20.59-2.29-8.74-3.63-17.73-7.8-25.85-8.6-16.74-6.34-35.35-9.33-53.05a60.28 60.28 0 0 1 -.6-14.7c6.44 17.63 19.46 31.2 28.09 47.45z" fill="#2c185d"/><path d="m1134 588.22c11.36.1 22.73 1 34-.53l48.16 1.15a4.33 4.33 0 0 1 -2.94 3.81c-10 4-19.24 9.63-28.8 14.55-17 8.72-33.25 3.79-48.24-5.68-3.84-2.42-8.83-4.45-10.72-9.47z" fill="#dcc801"/><path d="m1222.1 335-41.39-30.95c8.4-13.42 22.37-17.33 34.9-10.09 13.86 8.04 16.52 22.51 6.49 41.04z" fill="#fde803"/><path d="m1451.09 462.3c-9.55 1.48-16.33-2.6-19.81-11.39-4-10.2-2.56-19.62 5.5-27.7 3.64-3.66 6.78-2.77 9.74.51q10.83 12 21.43 24.29c3.7 4.27.93 7.18-2.31 10.12-4.19 3.79-9.1 4.68-14.55 4.17z" fill="#3a207b"/><path d="m196 809.17c12.92 20.6 27.44 40.76 18.39 67.34-14.72-7.57-22.27-18.92-21-36.14.74-10.37.69-20.88 2.61-31.2z" fill="#e89f6a"/><path d="m1002.39 697.71c.4 8.06-4.33 11.35-11.35 13.86-12 4.29-25.21 5.29-35.82 13.26-7.11.73-11.57-4-16.41-8 17.18-4.69 34-9.9 48.44-21.21 4.48-3.45 11-5.15 15.14 2.09z" fill="#faab72"/><path d="m1372.88 1350a228.43 228.43 0 0 1 27.38-26.68c9.89 8.1 10.48 20.07 1.92 29-7.88 8.3-20.6 7.43-29.3-2.32z" fill="#fde803"/><path d="m177.2 459c6 9.11 4.81 18.65-2.7 24-9.55 6.79-20.24 4.45-29.67-7.27 9.6-8.07 21.17-12.14 32.37-16.73z" fill="#3c217b"/><path d="m343.44 560.58 18.45 5.2c5.44 5.67 11.24 11.2 8.42 20.29h-25.25c-.06-8.55.56-17.07-1.62-25.49z" fill="#f8aa72"/><path d="m24.83 746.89v28.11c-6.64 1.59-11.62.11-15.49-5.47s-2.84-11.15.37-16.47c3.29-5.5 7.87-8.7 15.12-6.17z" fill="#fde803"/><path d="m551.23 777.46v33.46c-9.42-24.26-14.89-49.76-25.27-73.59l2-1.74c5.18 10.86 10.14 21.83 15.69 32.49 1.81 3.47 3.09 7.86 7.58 9.38z" fill="#e89f6a"/><path d="m370.31 586.07c-.49-7.72-6.9-13-8.42-20.29l17.26-2.07q-.15 11.16-.35 22.29z" fill="#e89f6a"/><path d="m656.83 752.49c8.84 11.51 7.74 28.71-2.55 38.2-.26.24-1.59-.68-2.42-1.05.87-12.49 6.6-24.33 4.97-37.15z" fill="#e89f6a"/><path d="m341 558.85c1.15.18 2.4.24 2.51 1.84-1.51.31-2.22-.48-2.51-1.84z" fill="#f8aa72"/><path d="m793.27 800.73c-4.44 9-10.29 17.13-16.75 25.83 24.63 15.39 49.09 30.6 73.43 46 3.4 2.14 7.88 3.33 9.12 8a10.76 10.76 0 0 1 4.32 8c1.77 21.44 5 42.89-1.12 64.22-1.26 4.38-2 8.84-5.88 11.86h-204.21c-1.45-48.29 11.82-93.74 26.82-138.83-.35-12.58 5.15-22.26 14.89-29.82 15.93-6.39 31.8-4.79 47.48.73 17.02 5.96 33.87 12.16 51.9 4.01z" fill="#381f7a"/><path d="m856.39 964.62c8.68-27.77 6.74-55.89 2.68-84.07 7.85 3 12.42-.27 16.43-7.22 5-8.6 11.19-16.46 16.87-24.64 4.13-1.9 8.25-3.41 12 .76.15 7.59 3.43 10.84 11.42 13.25 25.11 7.58 49.82 1.7 74.65 0 10.06-.67 20-2.51 30-3.83 5 5.59 3 12.67 3.88 19.06 2.75 19.71 3.64 39.59 4.5 59.46a34.62 34.62 0 0 1 -1.66 12.38c-1.43 5.07 2 9.43 2 14.29l-155.06.41c-5.84.07-11.77.12-17.71.15z" fill="#dad6e5"/><path d="m894.23 1082.21h-40.4c-2.53-6.65-1.06-13-1.31-19.12-.16-4 2.37-5.52 6-5.52h60.53v84.92c-7.33 1.47-14.47.61-22.67.47v-19.76c-35.69 26.7-70.52 29.3-98.62 8.09-27.6-20.82-38.62-64.45-24.41-99.15 14.39-35.16 43.63-50 78.44-47.87 36 2.24 61.3 24.43 67.17 57.49-8.08 0-16 0-23.81 0-3.94 0-4.89-3.24-6.37-6-11.16-21.09-28.06-28.76-54.59-24.89-18.33 2.68-33 18.37-36.92 39.44-4.16 22.59-1.19 43.69 16.45 59.85 15.11 13.83 33.53 14.68 52.2 8.22 16.35-5.72 25.5-17.63 28.31-36.17z" fill="#3a207b"/><path d="m610 1143.13c0-50.9 0-100.17 0-149.44a62.32 62.32 0 0 1 .76-6.36c32.18 2.25 64.54-5.28 95.28 9.18s42.62 45.77 40.07 75.42c-4.16 48.34-36.87 69.45-79.4 71.08-18.39.71-36.89.12-56.71.12z" fill="#391f7a"/><path d="m1202.42 1035.39h-24.69c-7.1-23.1-16.82-29.37-40.51-26.52-11.12 1.33-18.77 7.82-20 17-1.38 10.4 2.67 16.65 15 20.59 13 4.13 26.36 6.9 39.36 10.94 22.49 7 32.15 19.48 32.39 40.77.24 21-10.43 35.77-31.55 43.13a85.33 85.33 0 0 1 -51.62 1.83c-22.38-6.18-34.9-23.14-36.15-47.49 8.23-1.66 16.5-.86 24.58-.53 8.78 24.63 30.28 34 54.45 23.93 7.51-3.13 12.88-8.14 13.12-17.21s-3.85-15.36-12.11-18.92c-12.61-5.42-26.36-6.76-39.38-10.82-25.08-7.81-36.47-21.85-35.18-44.11 1.18-20.54 17.7-37.83 40.36-42.25 29.85-5.83 54.29 3.7 66.38 25.66 4.05 7.24 5.13 15.04 5.55 24z" fill="#3a207b"/><path d="m1057.92 1053.92v20.63c-3.82 3.1-8.56 1.53-12.91 1.57-18.93.19-37.85.28-56.77 0-6.54-.1-9.73 1.58-9.45 8.76.43 10.74.11 21.5.11 33.17h82.1c3 8.26 1.18 15.88 1.42 24.31h-108.63v-154.16h107.55c2.53 7 .65 14.23 1.12 21-3.94 3.38-8 2.13-11.64 2.16-20.33.13-40.67.47-61-.13-9-.27-11.86 3-11.06 11.49a89.92 89.92 0 0 1 0 17.82c-.95 9 2 12.43 11.58 12.06 18.89-.71 37.83-.26 56.76-.17 3.42-.02 7-.88 10.82 1.49z" fill="#381f7a"/><path d="m547.14 988h25.31c.67 1.08 1.35 1.66 1.35 2.24 0 33.9 2.39 67.85-1.32 101.66-4.22 38.5-34.07 56.77-67.31 54.09-40.45-3.27-60.57-26.16-61.07-66.89-.38-30-.08-60.06-.08-90.6 9-1.72 17.25-1.08 25.3-.5 2.81 3.78 1.68 7.77 1.7 11.49.12 27.64-.2 55.29.2 82.93.42 29.19 21.16 44.86 49.25 37.78 16.55-4.17 26.33-17.78 26.55-38.11.29-27.3.1-54.59.12-81.89z" fill="#3a207b"/><path d="m1302.37 821.46c10.73-17.35 24.27-33 31.69-52.36a564 564 0 0 0 27.49 58c4.15 7.59 5.18 15.24 2.22 23.9-11.19 32.72-21.84 65.63-32.68 98.47-1.76 5.31-4 10.35-7.64 14.68l-46.39-.42c-5.36-3.87-1.56-8.59-1.23-13a7.27 7.27 0 0 1 1.82-2.27 19.22 19.22 0 0 1 2.43-1.65 27.42 27.42 0 0 1 2.55-1.4c7.46-3.72 15-7.23 20.2-14.26 7.93-10.82 7.2-18.26-2.83-27.17-2.07-1.84-4.56-3.19-6.3-5.43a7.89 7.89 0 0 1 -1.12-2.87c1-7.78 1.75-15.61 6.74-22.17 3-2.52 6.77-3.3 10.52-4a27.71 27.71 0 0 0 11.36-4.81c4.31-3.18 8.1-7 7.45-12.78-.69-6.24-5.5-9.22-10.84-11.35-3.23-1.29-6.77-1.36-10.08-2.43a9.3 9.3 0 0 1 -2.66-1.66c-3.07-4.62-5.49-9.36-2.7-15.02z" fill="#fde803"/><path d="m1186.56 964.09c4-30 20.36-53.45 41.35-76-20.38-3.8-29.57-16.69-33.79-34.37a33.12 33.12 0 0 1 .93-18.46c5.51-16.9 20.68-22.61 35.49-12.73 14.65 9.78 19.47 24.63 19.61 42.1 9.13-3.57 10.74-14.08 18.49-18.18 3.33 2.57 3.89 6.28 4.18 10.09a10.49 10.49 0 0 1 -.63 3c-10.77 13.58-24.31 24.53-35.5 36.85 12-2.52 23.82-9.25 37.07-3.46a9.12 9.12 0 0 1 1.53 3c1.66 17.52.75 35.05.67 52.55.11 4.63-3.36 6-6.81 6.56-21 3.45-45.09 4.56-61.71-13.65-5.55 6.57-3.71 16.35-9.89 22.53-3.64 4.35-7.31 3.15-10.99.17z" fill="#392178"/><path d="m331.91 1086.11c.22 4.43.4 7.5.52 10.57.53 14.18 8.78 23.9 21.61 25.43 15 1.79 25.12-4.93 29.4-19.28 1.33-4.46 1.4-8.94 1.4-13.49q0-44.6 0-89.19v-11.89a108.46 108.46 0 0 1 25.91-.06v20.14c-.06 29.38.19 58.77-.28 88.14-.34 22-12.17 39.14-30.54 45.89-22 8.07-48.26 2.78-62.31-12.46-9.07-9.85-11.76-21.84-12.46-34.72-.35-6.62 1.65-9.8 8.81-9.18 5.54.48 11.16.1 17.94.1z" fill="#391f7a"/><path d="m1197.55 964c.28-10.59 5.09-19.75 9.09-29.44 10.61 21.48 43.2 24 68.68 15.5a1.13 1.13 0 0 1 1.92.37l-.18 13.29z" fill="#fce504"/><path d="m1027.21 949.82q-3.36-45.45-6.71-90.89c3.36-6.95 10.93-8.58 16.71-11.5 19.83-10 29.58-27.42 38.32-46.32 8.63-18.66 13.91-38.48 21.32-57.55 1.52-3.9 2-9.23 7.8-10.13l.08.06c-3.93 30.66-8.2 61.31-17.23 90.93-2.68 8.77-8.12 17-13.5 24.59-19.75 28-39.24 56-42.89 91.39-.37 3.6-1.3 6.82-3.9 9.42z" fill="#dcc801"/><path d="m1271 857.7q-1.2-5.6-2.39-11.2a5.58 5.58 0 0 1 .22-1.58c3.14-6.82 8.9-12.11 11.91-19.61-6.42-5.33-15-7.82-18.35-16h-.17c-.43-.93-1.23-1.61-1.62-2.56-5.3-12-11.34-23.87-11.44-37.5a5 5 0 0 0 -.38-2c0-1.39-.07-2.78-.11-4.18-2-7.45-2.84-14.58 5.55-19 7 6.86 11.72 15.5 16.09 23.9 9.54 18.33 25.82 32.91 30.16 54.07 1 6.06-3.44 9.46-6.9 13.63 4.58-.42 9-2.16 13.2.49l-.19.64c4.71 10.67.25 31.83-7.83 37.15-14.39 3.4-20.58-7.24-27.75-16.25z" fill="#311b67"/><path d="m1254.25 744c-5.13 5.39-3.54 12.73-5.55 19-7.18-7.86-24.5-46.15-25-55.5l30.51 34.5a10.6 10.6 0 0 0 .04 2z" fill="#dcc801"/><path d="m1262.42 809.28c7.33 5 13.13 12.59 23.63 12.91-4.83 8.86-9.26 17.09-17.19 22.73q-3.22-17.82-6.44-35.64z" fill="#dcc801"/><path d="m1319.3 717.58c6.47 5.55 13.71 9 24.3 7.36l-11.78 28.2c-3.89-11.95-11.41-22.63-12.52-35.56z" fill="#dad6e5"/><path d="m904.37 849.45-12-.76 12.22-16.5q-.12 8.63-.22 17.26z" fill="#faab72"/><path d="m1104.65 733.43v-10.16c2.34 3.53 3.16 7 .08 10.22z" fill="#dcc801"/><path d="m1260.63 806.68 1.62 2.56z" fill="#dcc801"/><path d="m1248.81 767.2c.13.66.25 1.32.38 2a9.54 9.54 0 0 1 -.89-1.32c-.05-.13.33-.45.51-.68z" fill="#dcc801"/><path d="m336.68 931.09c.23-21.82-3.61-43.24-6.45-64.75 13.9-2.19 27.62-5.37 41.91-4.88 9.55.32 16.36-4.15 17.37-14.68 7.18-6.91 16.94-5 26.11-7.71-9.27-.72-17.47 5.64-26.21 1.6-1.78-2.76-3.54-5.46-7.44-2.86-16.54 11-35.3 9.07-53.72 9.11-2.8-26-5.59-51.91-8.4-78l112.69-16.6c3.69 28.55 7.38 56.45 10.88 84.37s6.81 55.93 10.32 84.85c-21.51 7-45 4.81-66.92 11.25-11.64 1.4-23.26 3.27-34.95 4-4.56.27-11.38 4.61-13.72-4a7.09 7.09 0 0 0 -1.57-1.83z" fill="#eeecf7"/><path d="m259.31 823.94c5.19-18.59 11.7-36.85 13.85-56.19 10.75-24 20.64-48.35 26.82-74.24 7.54 47.56-14.83 95.38-37.34 134.8-2.64-.25-1.15-3.77-3.33-4.37z" fill="#2c185d"/><path d="m967.91 250.39c3.16 107.07-82.65 202.2-199 203-112.79.81-194.13-96.57-190.87-195.4 3.76-112.84 93.44-193.35 192.96-197.76 109.25-4.84 204.11 96.06 196.91 190.16z" fill="#e1ddec"/><path d="m869.29 683.07a148.5 148.5 0 0 1 -19 29.21c-11.39-5.94-19.79-15.11-27.31-25.23 4.32-18.21 13.26-34.37 22.44-50.43 9.58 14.67 15.58 31.15 23.87 46.45z" fill="#f8aa72"/><path d="m728.11 605.19c20 14.78 38.74 9.73 56.84-3.91 8.17-6.68 12.85-6.51 20.56.75l13.1 11.38c-17.83 6-33.71 18.58-53.82 17-16.89-1.32-29.13-10.04-36.68-25.22z" fill="#dcc801"/><path d="m682.05 735.74c-5-19.35.13-38.39 2.67-57.32 1.4-10.44.14-20.77 1.52-31.06 5.56 8.65 4.07 18.78 5 28.13 1.76 18.41 6.16 36.88 1.26 55.58-1.81 6.77-4.92 7.7-10.45 4.67z" fill="#dcc801"/><path d="m723.59 601.25a5.93 5.93 0 0 1 4.54 4c-2.79.11-4.13-1.37-4.54-4z" fill="#dcc801"/><path d="m770.89 492.3c28.91-3.51 44.84 14.34 59.73 32.61 11.68 14.34 25.1 22.2 44 21.74 20.19-.5 36.53 8.38 48 25 6.38 9.19 16.55 12.6 25.15 18.38 5.51 3.72 11.45 6.78 15.78 12 10.58 12.78 5.92 27.27-9.78 32.8-20.33 7.15-41-5.21-56.33-21.72a321.88 321.88 0 0 1 -32.1-41.32c-3.27-4.91-7.45-9.66-13.32-11.53-23.7-7.54-37.42-26.15-50.26-45.39-7.3-11.08-17.45-17.38-30.87-22.57z" fill="#3b3a3c"/><path d="m805.51 602c-6.75-3.15-13.57-4.28-20.56-.75-17.21-1.12-20.43-5.46-14.33-19.31 6.08-.4 11.69-2.9 18.31-.85 12.07 3.78 15.21 6.81 16.58 20.91z" fill="#fefefe"/><g fill="#a293c1"><path d="m858.38 740.85a33.49 33.49 0 0 1 15.72-23.67c4.78-2.93 9.34-2.81 13.63.57s7.24 7.87 6.09 13.64a33.82 33.82 0 0 1 -15.67 22.67c-9.32 5.85-19.59-.13-19.77-13.21z"/><path d="m879.35 816.59c.31 11.33-13.28 28.34-22.51 28-7.8-.32-13.09-4.29-13.19-13.15-.14-11.95 12.83-28.93 22.37-28.06 7.98.68 12.12 6.21 13.33 13.21z"/><path d="m887.52 768.12 15.69-6c-4.26-4.54-9.69-8.34-8.74-15.45s8.73-13.65 15.55-13c8 .77 14.73 9.08 13.67 16.91-1.69 12.79-21.69 23.56-36.17 17.54z"/><path d="m813.19 812.64c3.47-2.07 5.14 3.43 9.84 1.39 1.29-9.32 17.53-14.53 8.45-29 5.44-1.58 10.16.15 13.12 3.74 3.67 4.42-2 7.34-3.63 10.82a60.3 60.3 0 0 1 -6.54 10.68c-4.17 5.59-8 10.92.85 16.06-8.09 3.67-20.82-4.87-22.09-13.69z"/><path d="m906.27 800.48c-7.3 1.77-64.1-33.22-69.73-42.85 24.55 11.98 46.62 28.07 69.73 42.85z"/><path d="m389.41 840.67c11-.71 21.5-6.28 33-2.77-10 6.76-22.15 5.31-32.9 8.88-.03-2.04-.07-4.07-.1-6.11z"/></g><path d="m336.58 930.9c1.89-.57 1.41.91 1.57 1.83z" fill="#3c217b"/><path d="m1306.8 836.09-16.16 2.49c1.77-6.82 7.48-10.8 9.86-16.61.63-.15 1.25-.32 1.87-.51q2.2 7.31 4.43 14.63z" fill="#dcc801"/><path d="m383.49 532.51c-10.05 10.24-16.15 10.46-29.22 1.38 9.62-6.89 18.81-4.74 29.22-1.38z" fill="#e89f6a"/><path d="m635.9 1118.08v-84c0-24.49 0-24.54 24.74-22.59a143.39 143.39 0 0 1 17.68 2.13c29.28 6 42.18 26.43 39.26 61.68-2 24.55-21.68 42-48.59 42.76-10.46.28-20.94.02-33.09.02z" fill="#9c8bbe"/><path d="m1294 897.74c20.39 9.69 22.67 26 5.49 40.28-5.32 4.42-10.93 8.51-18 9.79a6.4 6.4 0 0 1 -2.18-6.54c4.04-14.77 6.41-30.15 14.69-43.53z" fill="#392178"/><path d="m1296.31 872.13c2.83-.06 5.93 0 6-3.92.28-10.65 5.43-20.64 4.26-31.48a13.14 13.14 0 0 1 2.06-.24c12.62.55 22.22 6.84 23.21 15.18s-8.49 17.79-20.32 20.36c-3.71.81-7.47 1.43-11.2 2.14-2.43 1.52-4.23 1.73-4.01-2.04z" fill="#392178"/><path d="m1294 897.74c-2.07 11.61-5.83 22.73-9.61 33.85-1.8 5.27-3.56 10.52-2.92 16.22a4.4 4.4 0 0 1 -2 1.34l-2.16 1.31a13.85 13.85 0 0 0 -1.92-.37c-4.37-4.78-2-10.61-2.18-15.91-.38-13.51-.18-27-.21-40.56 8.19-5.59 15-2.44 21.29 3.45z" fill="#311b67"/><path d="m1294.22 897.07c-7.07-1.36-13.77-4.93-21.29-3.45l.16-.81c-4.68-10.88-5.17-22-2.23-33.44 0-.56.09-1.12.17-1.67 2.11-1.29 3.55-2.54 5 1.35 3.32 9.28 10.46 13.5 20.33 13.08l4 2q-3.08 11.49-6.14 22.94z" fill="#dcc801"/><path d="m1279.4 949.15 2-1.34z" fill="#392178"/><path d="m1270.86 859.37a165 165 0 0 1 2.23 33.44 98.22 98.22 0 0 0 -42.45 9.09z" fill="#fde803"/><path d="m384.93 798.59c-.33-9.32 1.74-16.76 11.71-18.78 8.1-1.64 14 3.74 17 14.77a34.64 34.64 0 0 1 .57 15.57c-1.15 6.12-4.19 11-11.4 11.85s-12.22-2.32-15.17-8.63a28.87 28.87 0 0 1 -2.71-14.78z" fill="#a293c1"/><path d="m425.28 885.65c-.45 8.85-1.63 16.82-12.18 18.24-8.68 1.17-15.16-4-16.88-14.72-1.37-8.47-3.21-17.74 4.53-24.52 4.19-3.66 9.54-4.59 14.66-1.51 8.71 5.24 9.14 14.14 9.87 22.51z" fill="#a293c1"/><path d="m373.65 818.51c2.08 2.1 6.21-.66 8.93 4.19-8.63 4.56-17.28 3.81-27.71 3.53 12.67-12.72 11.29-30.67-1.62-36.08 2.71-5.95 8.49-4.57 13.08-6.88 5.99 11.4 2.56 23.53 7.32 35.24z" fill="#a293c1"/><path d="m364.22 907.44c10.42-3.94 9.3-11.69 7.79-18.21-1.43-6.14 2.42-16.15-10.75-15.76 3.54-6.7 8.76-6.6 13.84-7.86 4.94 11.39 2.73 23.38 6.78 34.9l8.06 1.7c.12 1.24.49 2.28.2 2.5-7.85 6.12-16.69 1.4-25.92 2.73z" fill="#a293c1"/><path d="m781.09 274.71c-4.42.63-8.88 1.88-13.12-.73-1.08-1.77-2.59-3.49-2.62-5.58-.3-18.56-3.32-37.25 2.6-55.52v-76.23c4.22-2.89 7.83-2.4 12.75-.71v76.14c4.74 20.85 5.51 41.72.39 62.63z" fill="#7e83d3"/><path d="m961.08 237v30.52l-40.21-15.11c14.39-7.41 25.87-13.41 40.21-15.41z" fill="#7e83d3"/><path d="m781.09 274.71-.39-62.63c8.88 13.35 16 27.17 14.9 44-.6 9.83-4.08 16.77-14.51 18.63z" fill="#3c217b"/><path d="m781.35 443c-10.63.59-18.85 1.16-28.42-.67 3.16-13.31 6.59-25.8 15.46-39.09 6.11 14.02 10.53 25.87 12.96 39.76z" fill="#7e83d3"/><path d="m788 79c.24 6.2-7.22 14.94-13.22 15.48s-14.93-8.82-15.13-16c-.17-6.44 8.17-15.3 14.44-15.34s13.62 8.31 13.91 15.86z" fill="#fe0664"/><path d="m768 212.88q0 30.54 0 61.1c-9.85-3.46-16.36-16.58-13.94-29.09a81 81 0 0 1 13.94-32.01z" fill="#3c217b"/><path d="m622 247.33c-11.93 5-22.53 12.4-35.71 13.83-2.47-9-1-16.78-1.1-25.66 13.73.92 25.2 5.82 36.81 11.83z" fill="#7e83d3"/><path d="m819.49 113.53c-6.14 4.07-12.1.72-17.81 3.36-2.14 15.2 15.1 2.26 17.06 12-7.06 3.47-14.63.4-22.65 1.95v-33.3c7.12-2 14.7-.82 23.14-.5-2.86 10.08-18.35-1.89-17.69 11.68 5.21 3.95 12.12-.89 17.95 4.81z" fill="#3c217b"/><path d="m774.12 119.87c5.74-7 4.4-18.38 12.38-23.76l2.92 1.5c-3.74 9.89-7 20-11.43 29.59-2.51 5.39-6.41 4.76-8.66-1-3.66-9.38-7.3-18.77-9.63-29 10.42 3.5 7.89 15.8 14.42 22.67z" fill="#3c217b"/><path d="m725.57 96.58c4.68 8.34-.06 18.33 2.94 27 4 3.56 11.1-1.82 15.19 5.71-7.46 2-14.14.85-21.41.93v-33.16z" fill="#3c217b"/><path d="m749.76 96.44c7.19 5 7.16 29.33 0 34.07z" fill="#3c217b"/><path d="m886 730.61c-.51 7.93-9 18-15 17.62-4.27-.27-6.16-2.58-5.74-6.85.79-8 10.2-18.76 16-18.35 5.16.35 4.67 4.12 4.74 7.58z" fill="#dbdbdc"/><path d="m871.26 818.64c-.38 7.82-8.8 18.05-14.78 17.85-4.23-.14-6.3-2.3-6-6.63.57-7.65 10.07-18.81 15.82-18.59 5.1.2 4.96 3.82 4.96 7.37z" fill="#dbdbdc"/><path d="m917 747.88c-1.25 4.81-4 8.37-9.29 8.18-4.17-.15-6.22-3.89-6.15-7.29a7.89 7.89 0 0 1 7.92-8.08c3.83.02 7.37 2.31 7.52 7.19z" fill="#dbdbdc"/><path d="m407.85 806c-.94 3.38-1 8.33-6.21 9.09s-7-3.37-8.31-7.56c-.1-.33-.15-.68-.25-1-2.14-6.54-2.86-13 2.06-18.65 1.81-2.08 4.24-2 6.63-.57 3.23 1.93 6.67 11.96 6.08 18.69z" fill="#eeecf7"/><path d="m418.63 885.4c-.86 5-.61 10.92-6.86 11.63-5.67.64-6.93-4.48-8.31-8.92-1.94-6.26-2.43-12.32 1.73-17.85a4.63 4.63 0 0 1 6.51-1.26c6.3 3.88 5.06 10.87 6.93 16.4z" fill="#eeecf7"/></g></svg>