<svg viewBox="0 0 1423.65 1260.82" xmlns="http://www.w3.org/2000/svg"><g transform="translate(-3.52 -95.4)"><path d="m1154.76 410.65c5.78 10.2 8.15 22.45 17 30.74 20.2 18.95 40.24 38.23 65.48 50.72 2.7 1.34 5.35 3.64 8.69 1.5a20.32 20.32 0 0 1 1.77 1.27c1 .62 2 1.15 3 1.69 7.14 4.55 12.59 11.37 20.36 15.07 6.28 9.4 14.93 16.84 22.71 24.72 13.34 13.51 23.61 29.07 33.81 44.6 11.93 18.18 28.83 31.12 44.56 45.08a150.13 150.13 0 0 1 34.63 44.68c12.36 24.27 21.59 49.74 20.28 77.7-.79 16.75-3.94 33.22-7.59 49.51-6.73 30-10.54 59.8-.58 89.9 11.24 33.95.06 62.46-22.94 87.3-17.36 18.76-35.66 36.61-59 48.23-2.58 1.29-4.81 2.8-7.8 2.3-.68-1.94 0-3.67.79-5.4 4.75-10.79 4.51-11.06-6.07-15.47-16.24-6.76-31.75-4.49-47 3.08-4.76 2.37-9.1 5.55-14 7.61-3.89 1.63-7.95 4-13.54-.28 25.06-30.3 55.33-55.73 76.36-85.08-7.94 11.62-20.5 23.35-31.9 36s-25 23.15-37.61 34.86c-5.63-5.63-4.3-11-3.25-16.07a70.55 70.55 0 0 1 6.41-17.57c8.14-16 5-31.5-2.51-46.63-2.23-4.48-5.92-7.19-11.36-6.61-4.92.52-6.67 4-8 8.06-5.28 15.84-5.21 31.12 3.55 46 5.87 10 10.92 20.45 10.13 32.63-.24 3.79-.36 7.58-3.36 10.4-10.93 10.27-22.34 20-33.45 30a5.48 5.48 0 0 1 -4.58 1.33c-4.18-3.88-2-8.58-1.18-13a147 147 0 0 0 .38-50.3 35.29 35.29 0 0 0 -5.54-13.83c-5-7.52-11.69-8.12-17.84-1.45a40.4 40.4 0 0 0 -8.34 13.49c-8.29 22.88-13.29 46.17-9 70.7a64.53 64.53 0 0 0 6.71 20.36c2.72 4.9 2.62 9.41-1.25 13.78-12.82 14.46-26.12 28.56-35.67 45.59-9.91 3.69-20.12 6.5-29.9 10.56-2.86 1.19-5.9 2.13-9 .61-1.34-13.07 5.29-23.08 14.74-30.08 12-8.92 22.61-19.56 35.4-27.61 11.35-7.15 10.79-30.92.21-39.29-4.43-3.5-8.64-2.76-12.74.65-3.39 2.83-5.64 6.69-8.83 9.67-1.84 1.72-4.1 3.43-6.63 1.48s-2-4.66-.5-6.78c7.56-10.71 12-23.49 21.1-33.11 17.76-18.83 14.28-38.57 1.68-54.17-11.41-14.13-21.71-29-32.46-43.5-1.09-1.49-2-3.21-4.13-3.77-3.38.42-4.87 3.51-7.18 5.5-11.9 10.22-18.67 24.08-26.18 37.36-6 10.7-5 20.67 3.86 29.9 8.53 8.93 15.09 19.1 16.36 31.9.48 4.9.75 9.8-5 11.7s-9.44-1.26-12.18-6.08c-4-7.09-6.48-14.89-10.31-22.05-3.57-6.67-7.95-7.19-11.8-.74-10.41 17.44-16.21 35.53-7.92 56 7.79 19.27 19.82 36.07 29.62 54.15 6.48 12 10.34 24.72 5.65 38.54-10.41 4.72-21 8.53-32.77 6.54-4.45-7.74-5.31-16.61-7.16-25-10.08-46-22.59-91.42-29.88-138-3.43-21.92-13.35-42.17-18.72-63.67-3.55-14.21-3.6-28.29-1.17-42.57a7.12 7.12 0 0 1 4.19-3c4.6-1.31 9.31-1 14-1q61.91 0 123.82 0c15.54 0 15.69-.14 15.69-15.61q0-217.83 0-435.66c0-4.37-.28-8.76.33-13.1.42-2.84.29-6.39 4.55-6.98z" fill="#e4e2ee"/><path d="m65.83 654.73c-14.78-38.25-21.83-77.8-18.77-118.73 2.85-38.28 22.51-67.93 50.88-92.1 8.76-7.47 21.1-9.1 32-12.71 26-8.61 48.17-23 68.15-41.21a41.48 41.48 0 0 1 12-7.23c25.34-10.82 52-16.91 79.12-20.88 4.47 5.06 3 11.28 3 17.06q.13 196.46.06 392.91 0 47.36 0 94.72c0 15.17.45 15.56 16 15.57q59.61 0 119.23 0c5 0 10.05-.54 14.78 1.7 4.27 3.27 3.07 7.77 2.62 12-3.11 29.5.44 58.14 8 86.87 7.73 29.21 12 58.9 7.63 89.74-5.88 41.29-12.51 82.64-11 124.68.31 8.37 3 16.66 1.08 25.1-1.28 3.74-4.12 3.4-6.81 2.18a355.39 355.39 0 0 1 -66.66-38.94c-.22-.17-.28-.55-.43-.83 1-9.23 5.53-17.11 9.62-25.17 8.43-16.61 14.79-33.71 13-52.9-.9-9.57-1.9-19.65-11.33-24.22-9.62-4.67-18.09 1.08-25.78 6.87-3.76 2.83-6.78 6.48-10.39 9.48-2.43 2-5.05 4.11-8.43 2.39-3.16-1.6-3.78-4.76-4-8a28.28 28.28 0 0 1 .76-9.31c4.92-18.51 5.9-37.6 8-56.5 1.4-12.76-2.75-24.73-7.47-36.35-2.43-6-7.73-7.44-13.84-7.68-25-1-30.44-5.42-37.19-30.24-1.88-6.93-3.15-14-5-21-3.7-13.83-10.78-26.11-19.32-37.24-7.48-9.74-18.57-11.87-30.49-9.14-6.35-7.38-6.42-17.17-9.89-25.66-.71-3.21-1.54-6.4-2-9.66a24.53 24.53 0 0 0 -1.39-5.37c-2.07-6.33-4.57-12.57-4.28-19.42.27-3.75-1.49-7.49-.15-11.26a3.44 3.44 0 0 1 2.34-1.29c5.6.91 10.12 4.53 15.46 6.14s10.47 1.32 14.65-2.84c3.32-3.3 2.77-7.32 1.38-11.28-2.1-6-7-7.07-12.58-7.61-4.11-.39-8.63 2.37-12.36-1.41-2.63-9.15 1.44-17.71 2.31-26.54.3-6.5 4.62-10.61 8.75-14.9 14.81-15.37 17.23-33.11 9.85-52.65a17.78 17.78 0 0 0 -6.71-8.73c-7.33-9.83-8.39-10-16.87-1.8-2.27 2.19-4.33 4.7-8 2.61-.56-1.12-.3.46-.55-.74-4.75-22.53-20.56-33.39-41.28-39.09-4.43-2.27-6.8-6.23-8.69-10.59s-1.09-7.84 2.49-10.86c6.57-5.56 15-9.91 15.83-19.76 1.11-12.39-1.92-24-7.8-35-1-7.58-6.12-10.22-13-10.95-12-1.25-21.55 2.37-30.24 11.24a93.94 93.94 0 0 0 -24.15 42.63c-5.09 19.26-20.14 27.55-36.74 34.29a5.11 5.11 0 0 1 -5.4-.39z" fill="#e4e2ed"/><path d="m442.84 885.16c-47.2 0-94.4-.25-141.59.18-9.44.09-12.26-2.66-12.25-12.16q.36-255.67.14-511.36c2.21-3.35 1.89-7.13 1.89-10.87 0-24 .36-48.08-.2-72.09-.21-8.58 2.22-11 10.91-11 92.49.31 185 .19 277.48.18 4.68 0 9.37-.08 14.06-.13 5.22-2.46 10.77-2.94 16.45-2.94q258.82 0 517.66.05c4.95 0 10.1-.59 14.36 2.95 3.32.41 6.85-.72 10 1.23 1.87 3.18 1 6.69 1 10q.09 51.83 0 103.64c0 9.29-.48 18.62 1.88 27.76-3.31 3.45-1.76 7.74-1.76 11.61q-.13 225.66.16 451.33c0 9.77-2.76 11.86-12.05 11.77-48.74-.51-97.49-.31-146.24-.36-2.18-12.89-2.21-25.65 2.25-38.16 4.55-2.83 9.66-2.17 14.62-2.18 28.46-.08 56.91 0 85.37 0 15.21 0 15.18 0 15.26-14.87.26-46.54-.58-93.08.45-139.6a6.82 6.82 0 0 1 .27-2.75c7.37-16 5.21-31.95-.16-47.9a135.82 135.82 0 0 1 -.57-16.87q0-147.66-.12-295.34c0-5.64 2.66-13.26-6.73-15.06q-112.35.43-224.67 0c-45 .17-90 .36-135-.07-15.84.27-31.68.32-47.52 0-21.58.59-43.16.23-64.74.24q-138.89.08-277.76 0c-3.13 0-6.26-.07-9.39.07-9.63.42-10.85 1.4-10.94 11-.23 25 0 50-.1 75-.11 27.8.36 55.61-.24 83.41q.68 107.67 0 215.34c.38 44.28.05 88.56.17 132.84 0 14.36.22 14.54 14.68 14.56q45 0 89.93 0c4.67 0 9.38-.39 13.93 1.1 1.75.8 3.48 1.89 2.64 4.1-4.06 10.65-6.42 21.83-10.25 32.55a4.52 4.52 0 0 1 -3.28 2.8z" fill="#e4ccdf"/><path d="m1081.75 1147.59c1.26-19.64-6-36.18-17.07-52-9.61-13.78-17.73-28.75-22.55-45-6-20.25 1.35-38.07 12.29-54.53 4.18-6.29 9.44-5.35 12.91 1.51 4.07 8.06 7.59 16.4 11.26 24.66 1.87 4.22 4.79 6.78 9.51 5.42 4.9-1.42 3.63-5.24 3.41-9.14-.69-12.36-7.24-21.7-15-30.39-11.48-12.91-12.85-19.4-4.85-34.42 9.2-17.28 19.72-33.69 36.09-46.29 7.77 11.13 15.42 22 22.94 32.93a109.2 109.2 0 0 0 11.18 13.77c15.83 16.49 21.63 43.36 1.14 62.32-4.74 4.39-20.23 31.68-21.39 36.65 3.64 1 4.75-2 6.37-3.93 5.27-6.4 9.59-14.84 20.14-11.38 6 2 13.74 18.21 12.28 25.9-1.87 9.83-6.09 17.14-15.18 24-18.35 13.8-41 24.86-46.27 50.91 2.52 3.46 1.28 7.21.73 10.85-3.22 21.32-2.6 42.88-4 64.31-.73 11.14.38 11.61 11.34 14.53 11.75 3.14 23.6 6 34.37 11.91 2.88 3 2.51 6.81 2.77 10.48.24 3.41.56 6.81 2.26 9.87 1.26 2.26 3 4.18 5.84 3.75 3.23-.49 3.28-3.18 3.53-5.69.32-3.25-1.84-6.79 1.13-9.72 20.92 6 41.71 12.38 63 17.13a485.49 485.49 0 0 0 122.54 11.58c1.74-.06 3.48 0 7.42 0-17.44 9.39-34.05 15.28-50.29 22-30.87 12.77-63.25 17.08-96.35 19.22-40.11 2.59-79.68-2-119.41-5.59-10.87-1-21.92.21-32.84-.43-38.88-2.28-77.77-4.18-116.51-8.78-33.63-4-66.81-12.62-101.17-9.93-27.67 2.17-55.4 3.49-83.11 5.18-13.08.8-26-1.92-39.26-.51-23.35 2.48-45.87 8.45-68.45 14.19-24.75 6.29-50 9.75-74.94 15-18.61 3.92-35.58 13.7-54.43 16.66-20.27 3.19-40.72 5.23-61.11 7.63-11.75 1.38-23.51 2.8-35.3 3.66-36.43 2.64-71.1-7.11-105.7-16.15-40.34-10.54-79.92-24-120.69-32.85-32.9-7.15-63.63-21.39-96.56-28.13-18-3.69-36-7.31-54.56-3.88-3.56.65-7.35.09-12.38.09 21.17-13.9 43.17-21.17 67.17-22.25 4.83-.85 6.18 3.38 8.63 6 2.77 2.91 5.24 7.13 9.89 5.74 5.11-1.52 2.15-6.39 2.78-9.77a4.49 4.49 0 0 1 1.89-3.08c8.07-2.57 16.55-3 24.77-4.82a19.74 19.74 0 0 1 3.15-.29c2.18 0 4.35 0 6.52-.11 16.41 0 32.82-.86 49.21.26 4 4.79 2.77 10.26 2.09 15.65-.58 2.39-2 4.49-2.57 6.9-1.34 5.56.14 9.38 6.55 9.2 7.54-.21 15.24 1.42 23.24-1.44-1.86-6.29-8.69-8.42-10.34-14.17-1-5.53-1.63-11 3.83-14.8 4-1.56 8-.52 12 .27a662.11 662.11 0 0 0 121.24 13.12 17.92 17.92 0 0 1 5.49.88c3.72 1.41 3.28 4.63 3.56 7.75.61 7 5.67 10.93 12.67 10.06 6.66-.82 9-4.64 7.49-11.12-.72-3-.34-5.61 3.11-6.79 18.38-2 36.78-.91 55.16-.63a15.83 15.83 0 0 1 7.93 2.6c5.25 4.92 11.49 6.8 18.69 6.67q18.12-.33 36.26 0c6.79.12 11.39-2.21 13.25-9 10.5-5.9 21.56-9.45 33.82-7.91 5.94 9.53 14.75 11.68 25.48 11.44 9-.2 18.57-2.64 27.25 2.41 1.19 5.15-2.66 5.63-6 6.23-39.09 6.94-78.07 15.14-117.63 18.23-25.49 2-51 4.46-76.69 4.77-27.81.33-55.57.42-83.31-2-14.35-1.23-28.39-4.49-42.7-6.07a251.7 251.7 0 0 0 -32.23-1.4c29.86 5.91 58.25 15.68 87.46 22.39 46.14 10.6 92.76 13 139.78 11.18 10.6-.41 21.13-2.17 31.58-4.24 47.51-9.42 95.29-17.3 142.51-28.42 48.37-11.38 97.83-16.68 147.5-20.08 21.82-1.5 43.55-3.71 65.48-3.41 31.25.43 62.31 3.26 93.37 6.52 22.36 2.35 44.82 4.12 67.28 4.6 29.14.63 58 3.72 86.82 7.5s57.79 6 86.6 9.8a51.7 51.7 0 0 0 24.84-2.61c-10.21 3.11-20.52 3-30.9.87-28.52-5.92-56.08-15.31-84.12-23-22.91-6.25-45.61-13.36-69.17-17-4-.62-8.1-1.26-10.77-4.89.29-9.28 8.24-11 13.51-14.93 3.8 1.25 3.77 4 4.63 6.26s1.79 4.12 4.57 3.6 2.82-2.92 3.2-5c1.22-6.81-2.13-14.33 3.23-20.5 7.91-2.94 14.94 4.14 23.79 1.91 3.03-23.3-.96-47.04 2.08-70.45z" fill="#9f8ec0"/><path d="m1141.75 268-548.47-.06c7.56-7.23 17.24-11 26.23-15.84 19.07-10.27 35.31-24.19 51.82-38 19.22-16.1 41.91-26.91 64.43-37.7 23.07-11.06 46.1-22.22 69.45-32.66 13.58-6.08 27.76-10.82 41.67-16.16 7.07-3.1 13 1.76 19.47 2.82a42.15 42.15 0 0 1 6.17 2c12.68 4.21 12.68 4.2 15.51-8.67a5.35 5.35 0 0 1 2.37-3.78c36.47-4 73.19-3.32 109.53-1.17 35.44 2.09 69.23 12.59 95.16 39.86 10.64 11.19 13.56 26.49 21.93 38.86 1.36 2 2.22 4.49 4.17 6 13.36 10.6 17.8 25.84 21.88 41.34 2.09 7.95-2.07 15.39-1.32 23.16z" fill="#e4e2ee"/><path d="m217.84 825.32 5.69 20.29c1 1.12.69 2.69 1.38 3.91l1.74 9.42c2.66 27.75 1.68 55.54.95 83.31-.65 3.43-3.09 5.88-4.83 8.74-5.33 8.8-4.94 11.76 2.53 18.93 1.57 1.5 3.09 3 3.77 5.11a87.28 87.28 0 0 1 .18 25.21c-1.51 4.93-5.64 5.2-9.78 5.48-6.68.46-13-1.59-19.44-2.65-8.16-1.35-17.07-1.85-22.55 5.26-5.33 6.91-.62 14.24 2.58 21.05 3.08 6.55 7.78 11.37 14.65 13.7 8.74 3 16 8.47 23.52 13.46 6.13 4.07 10.49 8.94 6.7 17.17-1.44 3.13-.75 6.78-.78 10.21.37 23-2.69 45.22-13.91 65.77-5.57 10.19-13.17 18.86-20.21 27.94a234.86 234.86 0 0 1 -27 27.07c-4.64 4.35-9.11 8.89-13.54 13.46-.57.64-1.2 1.22-1.83 1.8l-1 .83c-10.82 7.67-18.45 19.07-30.15 25.72-7.73-1.5-11-8.08-15.3-13.47 8.76-7.42 12.89-18 18.45-27.51 10.51-18 21.62-35.75 27.58-56-.13-7.36-1.37-15 5-20.78 5.16-14 4.92-28.27 1.91-42.56-8-38-21.63-73.76-38.91-108.74-16.69-33.81-20.69-70.8-14.66-108.62 2-12.29 5.61-24.06 8-36.16-2.37-5.29-1.53-9.49 4.13-12a7.15 7.15 0 0 1 2.77.42c26.26 13.17 54.49 8.09 82.09 8.75 4.16.1 7.89-1.62 11.59-3.43 2.74-1.35 5.46-3.58 8.68-1.09z" fill="#391f7a"/><path d="m1157 1248.79c.56 2.69 1.49 5.36 1.57 8.06.14 4.42 1.55 9.84-5.27 10.91-5.64.89-8.18-2.31-10.07-7.26-2.42-6.35-.88-12.86-1.81-19.23-9-12.21-13-26.49-14.66-41-2.24-19.12-4.87-38.46 1.09-57.63 1.9-6.12 3.54-12 9.46-15.46 8-21.07 26.54-34.27 39-52.22-15.06-21.55-13.36-45.7-9.32-69.92 2.31-13.79 6.15-27.3 14.25-39.09 3.4-5 7.24-9.92 14-9.4 7.17.56 10.47 6.09 12.76 12.14 8 21.19 6 42.81 2.4 64.42-.51 3-1.39 5.93-1 9.93 12.67-11.4 26.25-21.27 36.64-33.79 7-8.44 2.8-20.25-1.9-29.88-5.56-11.38-12.92-21.9-12.89-35.4 0-9.17 2.17-17.81 5.13-26.28 1.37-3.92 4.26-6.36 9.18-6.59 5.82-.27 9.61 2 12.34 6.69 9.91 16.88 11.74 34.18 2.94 52.19-4.36 8.92-7.76 18.15-5.91 29.4 28.1-25.11 54.62-50.62 76.85-80.62-.87 9.48-14.66 28.63-36.91 50.63-15.08 14.91-27.92 31.87-44.74 46.67 8.29.7 13.6-3.22 18.94-6.53 19-11.75 38.55-14.63 59.54-5.63 10 4.31 10.93 6.41 4.55 15.53-1.41 2-2.65 4.16-4 6.24l-7.16 4.33c-11.17 7.91-24 7.93-36.76 7.14-10.82-.67-21.72-1.84-30.56-9.73-3.77-3.37-8.19-2-11.79 1.4-5.45 5.13-10.74 10.41-15 16.36 12.21-1.64 24.61-2.27 36.93.16 3.79.75 8.12 1.38 10.34 5.49 14 6.24 27.17 13.53 37.77 25 8.31 9 7.31 15.17-4.39 18.68-19.63 5.9-39.46 11.28-60.25 6.26-12.52-3-21.8-11.42-31.34-19.35-6.52-.55-8.61-7.55-14.68-10.21-11.8 11.53-20.76 25.68-32.81 37l-7 8.76c13 2.26 25.37.8 37.55 2.32 26.07 3.27 47.55 13.86 63.45 34.85 9.91 13.08 6.8 23.7-8.21 30.26-16.78 7.33-32.11 6.51-46.76-5.88-10.33-8.73-19.61-18-27.15-29.27-4.58-6.87-10.66-12.21-19.44-15-9.14-2.86-13 1.55-15.87 8.07-4 8.87-4.75 18.53-4.74 28.14.03 27.15 2.65 53.79 15.71 78.34z" fill="#3d217c"/><path d="m152.24 1128.75q-2.49 10.39-5 20.78c-3.64-10.31-10.24-4.1-15-1.92-4 1.85-7.26 5.79-9.76 9.88-5.45 8.91-12.76 16-20.93 22.53-10.41 8.3-21.37 9.45-33.41 4.7-13.31-5.26-15.89-14.19-7.28-25.54 11.82-15.57 27.88-23.72 47-26 8.93-1.07 18-1.37 28.51-2.12-7.61-15-18.76-26-29.44-38-13.7 11.22-24.24 26.13-43.4 26.84-17.6.66-33.84-4.07-50.12-12.59 20.51-22.49 43.83-36.73 77.69-29.67-5.32-8.42-10.51-14.47-16.64-19.26-4.06-3.16-8 .65-11.61 3.29-13.91 10.19-47.09 6.44-56-6.17-5.27-7.5-4.59-10.12 4.15-12.6 15.34-4.36 30.25-3.31 44.49 4.33 3.15 1.7 6 4.55 11.16 3-19.87-24.7-45.79-43.94-59.65-72.76 18 21.29 37 41.53 58.69 60.53 2.92-9.23-1.14-15.88-4-22.52-5.74-13.26-5.11-26 1.88-38.52 2.28-4.09 5.09-7.09 10.26-6.7 5.43.4 7.22 4.33 8.47 8.7 3.76 13.06 4.25 25.8-3.73 37.75a56.5 56.5 0 0 0 -3.36 6.69c-6.37 13-5 20.81 5.34 30.43 6.58 6.13 13.14 12.29 21.65 20.26-2.64-14.09-4-26-3.53-37.94.3-7.59 1.31-15 4.49-21.87 5-10.83 14-12.05 19.52-1.67 14.68 27.58 20 56.16 5.07 86.68z" fill="#fee907"/><path d="m65.83 654.73c20.33-7.24 37.08-17.12 42-41.15 3.49-17.05 14.64-30.86 28.06-42 9.77-8.1 21.25-9.25 33.46-5.5 5.9 1.81 8.31 4.95 6.91 10.93-5.07 6.16-12.28 9.38-18.9 13.29-7.42 4.38-10.22 10.59-9.2 18.75.58 4.63.56 9.34 1.59 13.9 2 8.93.33 17.27-3.53 25.37-3.62 7.59-7.5 15.12-6.6 24-2.79 13.82-.56 28-3.44 41.86-1 4.91-2 9.77-4.21 14.3-1.38 2.69-2.87 5.34-4.36 8-9.85 13.2-24 17.86-39.52 19.74a9.22 9.22 0 0 1 -5.49-2.22c-24.71-7.18-38.54-24.45-44.43-48.63-4.23-17.35 3.29-30.7 15.91-41.81 3.67-3.2 7.82-5.89 11.75-8.83z" fill="#030101"/><path d="m243.18 231.69c-12.83 11.85-25.3 23-37.35 34.62-13.13 12.64-13 12.82-20.41-3.38-6.21-13.5-4.12-24.89 6.7-36.54 8.79-9.45 20.08-11.87 33.24-6.7 5.43 2.14 10.64 4.84 17.82 12z" fill="#feea01"/><path d="m890.4 119.92c-.83 20.9-.81 20.84-20.59 14.45-7.58-2.45-15.28-4.55-22.93-6.8l-16.34-6.24c2.22-13.85 14.25-25.17 27.38-25.87 16.34-.87 27.6 7.61 32.48 24.46z" fill="#feea01"/><path d="m1275.19 1050.79c-17-6-34.38-5.83-54.62-1.75 8.89-9.66 15.67-17.23 22.68-24.59 5-5.26 10.78-2 14.08 1.23 11.48 11.37 25.94 9.06 39.46 9 8.31 0 17.18-1.2 25.21-4.76-2.79 5.41-7.9 7.42-13.24 9.23-11.22 3.85-22.39 7.77-33.57 11.64z" fill="#e4e2ee"/><path d="m543.58 176.75c12.62 2.38 24.74 5 37 6.85 7.31 1.12 8.4 5 6.52 11-4.22 13.49-18.59 20.19-32.08 15-12.61-4.8-17.89-19.52-11.44-32.85z" fill="#3d217c"/><path d="m82.6 754 6 .12c7.09 6.88 11.17 16 17.77 23.32 2.68 2.95 4.75 6.44 7.67 9.21 3.23 3.89 6.72 7.61 7.73 12.83-1.89 7.77-3.5 15.66-9 22-3 3.13-2.65 7.5-4.12 11.2-7-5.66-7.88-14.44-10.29-22.06-5.92-18.62-10.59-37.7-15.76-56.62z" fill="#e4e2ed"/><path d="m1169.49 1108.17c8.5-15.37 21.86-26.77 33.49-42 5 5.41 9.51 10.28 14 15.15-2.36 5.25-7.59 7.33-12.06 9.55-11.75 5.9-21.85 15.22-35.43 17.3z" fill="#e4e2ee"/><path d="m101.22 1233c6.35 2.54 9.12 9.3 14.87 12.54 2.5 2.17 2.3 4.56.59 7.08-.73 4.95 5.48 11.51-2.39 14.65-7.24 2.9-10.31-3.56-13.83-8.14-1.89-2.44-3.53-5.08-6.47-6.46-6.68-10.21-4.22-16.9 7.23-19.67z" fill="#030101"/><path d="m1271.06 511.64c-5.93 2.37-8.09-3.29-11.65-5.68-3.85-2.59-7.18-5.94-10.73-9-.75-1.25-3-.7-3.16-2.67 0 0 .39-.72.4-.72 1.2-7.05 7.84-11.28 15.29-9.73 8.84 1.84 15.22 10.28 13.43 18.27-.73 3.3-2.36 6.37-3.58 9.53z" fill="#fee907"/><path d="m997.2 847.73c-.11 12.47 0 24.95-2.33 37.28l-1.81 2c-3.58 16.93-11.81 32.12-18.21 48-8.55 21.17-14.6 43.08-20.51 65.06a47.79 47.79 0 0 0 -1.6 14.83c-2.24 32.87-10.63 64.42-19.59 96-5.34 18.78-14.38 35.8-21.87 53.57-4.15 10.88-10.64 20.74-14 32-1.09 5.22-.48 10.51-.8 15.76-.22 3.68-.08 7.56-3.83 9.92-9.85 1.64-18.84-2.9-28.33-3.93-3.5-3.3-1.86-6.81-.27-10.2 2-4.21 4.46-8.21 4.49-13.07.15-7.66-.45-15.34.75-23 2.06-18.88 2.41-37.9 4.83-56.75.83-6.5 1.65-13 3.77-19.23a164 164 0 0 0 7.12-76.47c-2.55-18.56-.56-37.38-3.4-55.9-4-25.89-.63-51.55 2.18-77.23 1.93-12.41 5.61-24.45 7.84-36.8 5.09-13.26 8.62-27 12.16-40.7.8-3.13.48-7 4.44-8.53 3.9 1.57 4.71 5.62 6.81 8.62 2.74 3.94 6.26 7 11 4.52 25.72-13.49 46.35-1.37 66.7 12.71 3.86 6.66 6.12 13.69 4.46 21.54z" fill="#3b1f7a"/><path d="m950.47 1015.2c-1.6-16.07 5.69-30.39 9.56-45.26 7.07-27.11 20-52.17 30.06-78.24a28.27 28.27 0 0 1 3-4.67c-3.41 30.44 7.67 57.94 17 86 7.12 21.52 9.91 44.13 13.14 66.49 1.74 12.08 6.19 23.31 8.65 35.13 5.63 27 12.07 53.79 18.17 80.68 6.82 8.57 3.78 19.18 5.71 28.75 1.45 7.22.47 14.86 2.48 22.15a7.17 7.17 0 0 1 -2.82 8.26c-8.34 2.74-16.77 2.1-25.22.59a7.82 7.82 0 0 1 -4.39-4.57 7 7 0 0 1 -.3-4.53c6.62-16.67.66-31.38-7-45.85-8.1-22.27-17.05-44.2-28-65.25-9.89-19-20.53-37.72-31.35-56.26a75.55 75.55 0 0 1 -8.69-23.42z" fill="#503295"/><path d="m1196.05 695.31 34.51-45.23c9.76 4.18 13.19 12.27 14.33 21.18 1.6 12.58-3.55 22.56-14.64 28.81-11.84 6.67-22.52 2.4-34.2-4.76z" fill="#3d217c"/><path d="m1245.52 494.33c1.87-.08 2.61 1.18 3.16 2.67-1.61-.24-3.3-.38-3.16-2.67z" fill="#fefefe"/><path d="m442.84 885.16c2.61-8.79 5.25-17.57 7.82-26.36a28 28 0 0 1 5.34-10.63c2.56-10.35 6.31-19.81 17.69-23.59 28-1 55.94-.4 83.9-.36a20.79 20.79 0 0 1 8.19 1.56c8.18 4.59 8.42 14.08 13 20.94 6.15 13.44 9.21 27.85 13.12 42a525 525 0 0 1 12.46 97.22c2 51-1.3 101.5-6.51 152-2 19.19-6.49 38.06-7.95 57.42-.9 12-1.1 23.6 1.11 35.36.85 4.52 2.19 9.26-1.35 13.43a65.27 65.27 0 0 1 -35.42.16 9.24 9.24 0 0 1 -2.88-7.61c1-32.19-4.53-63.73-9.21-95.36a15.36 15.36 0 0 1 .07-3.71c2.36-9.8 1.32-19.82 1.89-29.74 3-52.43-12.1-101.39-27.83-150.88 4.71 27 11.28 53.1 11.24 80.16-3.48 29.46-10.22 58.18-19.08 86.45-3.78 12.07-2.54 24.72-4 37.07-2.61 21.91-2.08 44.25-8 65.68-2.05 7.4 2.48 14.74-1.24 21.77-13.93 3.1-27.88 2.76-41.84.28-5.81-7.1-7.89-15-4.68-23.84 1.1-9.64-.9-19.19-1.35-28.75-1.63-35 2.9-69.32 8.5-103.71 6.47-39.72 4.57-79.15-8.11-117.63-4.73-14.38-4.3-29.37-6.54-44-2.39-15.33 1.08-30.24 1.66-45.33z" fill="#feea01"/><path d="m227.09 973.64c-14.33-5.63-14.67-16.46-1.78-28.54 5.87-7.93 5.45-16.93 4.13-25.93a94.35 94.35 0 0 1 -1-20.41c.37-5.32 1.3-10.54 6.4-13.74 12.31-5.87 25.14-2.14 33.94 10.1 11.23 15.63 19 32.8 22 51.88a65 65 0 0 0 4.37 14.2c7.87 19.45 9.29 20.33 30.54 19.6 11.48-.39 15.64 2.65 19.47 13.26 6.75 18.71 5.72 37.61 3.1 56.92-1.68 12.32-4.18 24.43-6.32 36.64-.7 4-1.56 8.7 1.86 12.4 5.08.32 7.29-3.56 9.92-6.35 4.11-4.35 8.41-8.46 13.68-11.23 20.55-10.81 31.31-1.82 34.27 20 2.59 19.12-2.35 37.13-11 54a287 287 0 0 0 -12.94 28.9c.95 3.27-.77 6.08-1.59 9-3.5 12.57-8.76 24.77-7.66 38.29.23 2.76-.35 5.65-3 7.47-5.15 1.09-7.27-2.69-9.37-6.12-2.61-4.26-4.23-9.11-6.94-13.28-13.35-20.54-8.26-39.72 4.24-58.21 4.92-7.26 9.67-14.54 13-22.71-5.53 13.32-15.85 23.66-22.43 36.34-1.58 3-3.81 6.32-7.73 5.94-4.78-.46-4.86-5.08-6-8.49-14.63-43.46-24.65-88.23-37.69-132.13-6.27-21.1-12.92-42.13-21-62.64 8 22.23 15.08 44.78 22.43 67.23 3.45 10.53 1.94 12-9.14 10.91-11.68-1.1-22.39-4.83-32.78-10.58 7.21 7.51 16.5 9.93 25.95 12 20.27 4.4 21.89 7.76 27.06 27.95 12.66 49.53 24.69 99.39 49.33 144.87 2.64 4.87 4.13 11.54 11.87 11.35a6.69 6.69 0 0 1 5.74 4.19c3.25 7.45 8.73 13 14.75 18.17 1.83 5 5.81 10.28-.35 14.89-5.88 4.4-12 3.46-18.31.26-7.42-3.75-5-9.49-3.85-15.12-7.25-17.79-20.34-28-39.09-32.6-16.62-4.08-33.4-8.26-48.79-16.22-3.44-1.79-7.91-2.83-8.15-8 4-4 8.18-.69 12.28-.32 3.11.29 6.51 1.26 8.28-2.26 1.63-3.24-.17-6.11-2.27-8.47a41 41 0 0 0 -11.07-8.48c-11-6-19.74-14-23.77-26.31a5.5 5.5 0 0 0 -1.55-2.3 4.91 4.91 0 0 0 -2.38-1.07c-4.95 2-5.08 6.43-4.43 11.22 1 7.49 5.49 13.09 10.33 18.41 3.76 4.14 7.89 8 11.89 11.86 2 2 5.58 3.74 2.69 7.6-5.39 2.31-9-1.42-12.36-4.25-11.92-10.13-22.76-21.15-24.79-37.82-1.47-6.64.15-12.6 4-18 4.51-4.83 11.08-6.79 15.82-11.32 6.06-5.79 11.56-11.91 13.64-20.59-6.41-5-14.39-2.81-20.61-6.26-11.69-5-19.7-13.13-22.31-25.91-.1-4.87-1.32-9.62 2.14-14.3 3.17-4.26-1.36-7.24-4.09-8.93-8.12-5-15.32-11.52-24.69-14.65-12.16-4.06-22.07-18.75-22.5-31.42-.25-7.46 3-11.39 10.17-13.21a41.68 41.68 0 0 1 23.81.42c6.88 2.23 13.89 2.78 20.81-.11 2.93-3.36 7.45-2.56 11.05-4.19 3.9-1.78 8.95-2.85 8.93-8.13 0-4.87-4.31-7.15-8.24-9.13s-9.01-2.31-11.92-6.54z" fill="#9e8cbe"/><path d="m112.44 788c-9.44-10.23-18.74-20.57-23.86-33.85 14.17-2.93 28-6.48 37.27-19 4.87-2.49 5.91 1.87 7.4 4.5 4 7 7.65 14.31 9.82 22.18 1.85 6.73 5.5 11.78 11.7 13.71a126.45 126.45 0 0 0 -24.53-42 3.7 3.7 0 0 1 -.85-4.28 115.94 115.94 0 0 0 6-42.52c-.21-5.13 1.28-10.32 2-15.49 3.67-.66 5.6 2.2 8 4 5.62 4.12 11.84 4.29 17.7 1.44 5.63-2.72 7.47-8 6.44-14.22-.73-4.37 0-8.15 5.06-9.56 6.88 2.53 14 4.49 20.58 7.69 13.88 6.8 18.42 19.86 21.2 33.82 2.16 4.56.63 8.27-2.67 11.57-7.92 2-15.37-1.06-23-2.23-12-1.84-15.84 0-17.37 12-3.13 24.33-5.71 48.76-3.59 73.4.39 4.45 2.32 6.45 6.69 7.42a97.68 97.68 0 0 0 35.3.91c3.69-.53 7.39-1.49 11 .35a3.79 3.79 0 0 1 1.65 3.75c-3.2 5.48-8.84 7.06-14.14 8.84 2.88.41 5.9.91 8 3.5-1.05 3.77 4.52 7.84-.5 11.44-27 13.17-55.38 7.39-83.26 5a39.51 39.51 0 0 1 -21.83-8.9c1.31-8 4.82-15.23 8-22.59 14.37 8.62 30.43 6.82 43.89 7.46-17.81-.34-36.62-4.41-52.1-18.34z" fill="#feea01"/><path d="m223.7 799c-18.75 2.46-37.47 3.43-56-1.13-2.69-28.44-.37-56.75 3.29-85 1.33-10.3 3.48-14.14 17.66-11.9 8.23 1.3 16.48 2.5 24.72 3.74 4.18 7.38 11.71 10.28 18.71 13.9 2.78 9.57 2.12 19.14-.19 28.65-1.62 6.67-2.82 13.32-1.64 20.19 1 9.88-3.83 19.15-3 29-.52 1.88-1.92 2.39-3.55 2.55z" fill="#f0eef1"/><path d="m174.64 652.89c-1.72 2.81-4.54 5-2.83 9.17 3.32 8-1.25 13.71-7.54 16.8-6.68 3.28-14.32 4.25-20.7-1.94-2-1.94-4.11-3.78-6.17-5.67-1.15-6.43-.11-12.65 3.61-17.85 9.66-13.54 7.17-28.33 4.83-43-1.68-10.51.94-17.59 10.27-22 7-3.33 12.06-10 20.15-11.36 14.25 15.38 12.65 42-3.26 54.06-9.86 7.49-9.6 10.96 1.64 21.79z" fill="#e08f53"/><path d="m230.2 767.51c-5.23-5.45-2.55-12.14-1.47-17.69 2-10.49 1.89-21 2.31-31.46 6.43-7.93 8.25-17.49 9.6-27.22 12.54 9.51 13.72 23.11 12.2 37-1.31 12-6.9 22.39-16.16 30.62-2.68 2.36-5.81 4.74-6.48 8.75z" fill="#fee907"/><path d="m223.7 799 3.5-2.51a32 32 0 0 1 15.65-1.23c8.22 1.36 13.08 8.85 11.62 17.41-1.22 7.12-8.48 11.78-16.45 9.89-6.64-1.58-13.07-4-18.3-8.78-1.39-4.44 1.22-7.59 3.52-10.84z" fill="#e08f53"/><path d="m240.64 691.14c2.76 11.18.91 20.72-9.6 27.22-12.22-.41-15.81-3.16-17.71-13.59q1.53-5.19 3.09-10.37c3.09-.71 4.14-3.41 5.79-5.65 6.86-9.27 12.79-8.46 18.43 2.39z" fill="#e08f53"/><path d="m234.88 885c-5.15 10.91-3.85 22.11-2.76 33.69.84 9.09 5.71 20.31-6.81 26.39 0-25.42 0-50.84.06-76.25 0-3.32-1-6.85 1.28-9.91q4.11 13.08 8.23 26.08z" fill="#503295"/><path d="m134.22 448.44c6.53 5.75 12.62 11.89 17.22 19.38-8.3 8-15.28 8.64-21.58 2.05s-5.17-12.78 4.36-21.43z" fill="#3d217c"/><path d="m223.24 803c.93 4.29-2.16 7.29-3.52 10.84l-.72.16-.69-.07-14.11-2.54c6.93-2.09 12.2-7.16 19.04-8.39z" fill="#c2ae01"/><path d="m224.91 849.52a3.9 3.9 0 0 1 -1.38-3.91 3.22 3.22 0 0 1 1.38 3.91z" fill="#503295"/><path d="m332.7 481.9c-.22-33.06-.5-66.12-.65-99.18-.1-21.54.17-43.08-.09-64.61-.08-6.86 2.37-9.22 9.3-9.21q176.73.27 353.46.2a27.77 27.77 0 0 1 3.7.48c4.34 6.73 2.72 12.6-2.56 18-5.35 2.44-11.06 1.72-16.64 1.72q-126.66.08-253.31.06c-5 0-10-.54-14.89.71-3.36 2.93-2.4 6.94-2.41 10.53q-.17 59 .05 118c0 3.66-1.85 8.36 3.21 10.7 75.39.67 150.75.06 226.1.29 5.61 0 11.27-.52 16.78 1 5.32 2.33 4.33 6.2 2.11 10-2.51 4.29-4.82 8.84-8.36 12.35-25.29 25.06-52.88 46.4-89.5 52.23-14.93 2.38-29.79 1.29-44.62-1-9.61-4.07-19.21-8.21-30-7.78-11.13-3.56-20.88-9.91-30.68-15.94-14.64-9-29.77-17.12-44.78-25.45a85.05 85.05 0 0 0 -41.22-10.79c-11.65-.12-23.7 3.02-35-2.31z" fill="#fe0060"/><path d="m1106.15 309.61c7-2.27 10.08-.52 10 7.68q-.46 156.16-.46 312.34c0 3.73-.24 7.46-.37 11.2-3.77 2-5.71-1.27-7.94-3.05a51.53 51.53 0 0 0 -12-7.09c-11.67-5-16.42-14.79-13.35-27.2a74.06 74.06 0 0 1 5.57-14.84c8.34-16.9-6.73-34.55-23.15-34.76-9.37-.12-18.69-.28-27.56-3.83a8.72 8.72 0 0 1 -3.09-2.79c-1.08-1.92-1.37-4.14-2.29-6.12-.43-.72-.82-1.47-1.24-2.2-7.31-7.24-13-8-24.08-3-14.12 5-24.35 15.09-33.92 25.89-10 11.29-8.31 22.18 4.3 30.85 13.37 9.19 13.68 26.9.65 37.15-17.64 5.38-35 5.66-51.94-2.74-2.77-1.37-6-1.93-8.14-4.39-12.45-34.27-21.66-69.06-17.23-106.07 1.64-2.85 4.52-3.32 7.32-3.26 28.71.66 47.22-15.12 61.46-37.84 2-3.21 3.87-6.5 8.1-7.24 26.49-1.42 53-.18 79.44-.71 6.7-2 5.39-7.65 5.41-12.37.14-32.32 0-64.64.09-97 0-4.65-.28-9.33.69-13.92 1.26-5.08 5.75-7.06 9.59-9.47 12.06-7.51 23.99-15.09 34.14-25.22z" fill="#fe0060"/><path d="m332.7 481.9c16.54.23 33.22-.79 49.59 1 21 2.29 37.91 15.41 55.77 25.33 15.52 8.62 30.47 18.27 46.38 26.24.25 3.73-2.85 3.64-5.07 4.14-21.61 4.83-27.53 23.29-25.15 42.65.68 5.57 3.26 10.74 4.27 16.29.29 3.75 1.05 6.84 4.56 9.52 8.14 6.23 12 16.33 19.9 23 2.64 2.24 2.23 6.27.29 9.53-4.22 2.13-8.24 4.34-8.35 10a6.27 6.27 0 0 1 -2.87 4.63c-13.38 10-28.19 18-40.21 29.78-10.63-1.35-20.2-6.39-29.67-10.51-19.5-8.47-46.93-.43-59.46 16.77-2.44 3.36-4.55 7.72-10 7.23q.03-107.78.02-215.6z" fill="#b31a5a"/><path d="m332.71 697.56c3.15-2.13 5.36-5 7.53-8.13 12.77-18.17 41.23-27.52 62.25-18.27 9.52 4.18 19.43 7.92 29.32 11.46 2.25 2.31 2 5.19 1.31 7.86-5.51 20.31 1 39.82 3.88 59.55 2.14 10.44 8.27 18.42 15.48 25.94 8.09 8.43 18 15.34 22.67 26.74.83 8.51 1 16.91-4.38 24.29-7 5.61-9.42 14.4-14.76 21.17h-121.57c-2.76-2.56-2.35-4.54-2.35-6.34q0-69.84 0-139.66a34.42 34.42 0 0 1 .62-4.61z" fill="#fe0060"/><path d="m997.2 847.73q-2.91-10.35-5.8-20.69c-6.32-10-8.7-20.92-8.25-32.75s.12-23.58.1-35.37c0-6.1 1.27-11.89 5.07-16.61 8.6-10.67 19.07-19.33 30.36-27 8.54 1.63 15.93 6.44 24.51 8.36 26.11 5.81 48.64-5.11 63.77-26.37 2.37-3.33 2.8-8.55 8.27-9.12.09 50.81.08 101.63.38 152.44.05 7-3.61 7.29-8.84 7.27-36.52-.15-73.05-.13-109.57-.16z" fill="#b31a5a"/><path d="m1115.23 688.15c-6 9.69-11.91 19.09-21.55 26.26-22.19 16.52-51.58 17.76-74.48 1.7-7.66-1-12.11-5.77-15-12.54a99.29 99.29 0 0 1 -7.29-50.4c.55-5.08.52-9.93-1.38-14.7-8.55-15.48-5.36-29.68 3.62-44 4.77-7.61 8.25-16.09 12.92-23.88 8-13.41 7.24-20.09-3.46-31.25a6.29 6.29 0 0 1 -2.15-5c9-7.7 22.06-4.9 26.45 5.69-2.74 2.35-5.23 0-8.25-.53 4.24 7.6 3.2 15.69 3 23.58-.23 9.64 1.7 18.51 6.86 26.74 5.69 9.11 6.77 19.39 6.29 29.76a110.81 110.81 0 0 0 8 47.57c2.37 5.81 4.87 11.59 9.66 15.84 6.87 6.1 14.1 12 24.23 8.62 11.5-3.81 19.23-11.46 21.62-23.62 1.53-7.8-2.09-14.06-8.73-17-18.73-8.43-23.4-23.64-22.23-42.21a52.49 52.49 0 0 0 0-5.61c-.61-13.29-5.71-18.46-19-19.27s-17.83-5-18.27-18.31c-.19-5.74-2.3-11.69.6-17.36 8.11 2.61 16.44 3.12 24.9 3.14 24 0 36.7 19 27.32 40.9-3.84 9-8.09 17.59-3.34 27.55 1.68 3.54 3.87 6.93 7.59 7.74 9 2 15.15 8.3 22.17 13.32 7.05 15.74 7.54 31.52-.1 47.27z" fill="#030101"/><path d="m1106.15 309.61c-2 6.37-7.12 10.27-12.05 13.71-9.35 6.52-19.39 12.06-29.15 18-2.9-2.15-2.74-5.4-2.62-8.38.2-5-2.89-4.44-6.1-4-58 .73-115.93.25-173.89.25a21.33 21.33 0 0 1 -6.45-.88c-4.84-5.5-3.33-11.55 4.68-18.69z" fill="#b62762"/><path d="m880.57 309.59-7.44 15.81c-1.68 3.38-5 3.62-8 3.62-35.06 0-70.13 1.1-105.17-.5a29.08 29.08 0 0 1 -14.4-18.95q67.51-1.24 135.01.02z" fill="#fe0060"/><path d="m745.55 309.57c3.77 5.33 9.06 9.58 11.36 15.95-1.83 3.17-5.06 3.47-8.13 3.56-14.6.41-29.2.36-43.81 0-3.09-.07-6.26-.42-8.35-3.27.76-5.4 2.75-10.67 1.8-16.26z" fill="#b62762"/><path d="m1027.08 1245.09c4.67 4.67 11 3.58 16.68 4.68 45 8.78 88.11 24.24 132.38 35.54a146.33 146.33 0 0 0 49.27 4.54c-17.8 11.27-35.38 4.9-52.5 3.47-13.58-1.13-27.13-2.82-40.67-4.68-28.28-3.87-56.73-6.46-85.14-9.34-6.2-.62-12.52.06-18.75-.34q-52.53-3.4-104.94-8.32c-34.86-3.31-70.29-5.93-105.52-1.25-20.64 2.74-41.47 3.54-62.19 5.47a913.85 913.85 0 0 0 -125.7 21.07c-32.63 7.73-66 11.85-98.64 19.28-38.24 8.73-76.61 9.28-115.25 8.75-33.49-.46-65.78-8.8-98.29-15.64-18.59-3.91-36.53-10-54.77-15.15-7.83-2.19-16.77-.39-23.62-8.22 11.58 0 23.32-1.26 34.7.24 31.74 4.2 63.25 9.24 95.51 9.17 25.79-.06 51.5-.77 77.21-2.27 48.44-2.83 96.41-9.19 143.69-20.18 5.32-1.24 12.09 3.13 16-3.79 1.44-2 3.62-2.24 5.83-2.33 34.22-8.86 69.12-14.07 104.14-18 30.39-3.42 60.69-7.54 91.09-10.82 10.12-1.09 20-5.84 30.46-2.57 5.47 3.69-.66 6.94-.47 11 10.44 3.22 19.88-.72 29.36-4.22a39.38 39.38 0 0 0 4.11-2.17c10-5.11 10.19-5.07 16.15 4.25 4-3.41.74-10.34 6.17-12.7 27.16 0 54.22 1.35 81.09 5.27 9.49 1.38 19.46.39 28.32 5.19 3.18 5.49 8 5.94 13.62 4.68 3.49-.78 6.98-3.08 10.67-.61z" fill="#b0a4ca"/><path d="m544.43 1136.42c1.89 12.82 3.64 25.65 5.71 38.44 3.68 22.66 3.49 45.54 4.26 68.37 2.28 3.94 2.91 7.75-.82 11.26l-31.58 7.81c-10.94-1-18.71-7.14-25.1-15.49-6-7.06-4.61-15.39-2.65-23 5.41-21 5.44-42.46 7.15-63.8 1.87-23.49 5.74-46.38 13.59-68.92 5.34-15.3 6.15-32.17 9-48.34.35-2-.7-4.48 1.88-5.77 3 1.22 3.94 3.89 4.2 6.74 1.06 11.77 4.09 23.31 4.1 35.2 0 12.06 5.36 22.95 7.72 34.5 1.51 7.66 3 15.18 2.54 23z" fill="#e4e2ed"/><path d="m233.09 1166.71c-2.57 19-5.31 37.93-7.63 56.94-1 8.31-1.15 16.73-1.68 25.11-3.07 4.64-1.8 9.86-2 14.89-7 4.78-14 4.71-21 .07q0-8.38-.1-16.77c-4.92-5.68-4-12.94-5-19.58-2.26-14.48-3.51-29.13-8-43.18a9.81 9.81 0 0 1 .14-6.44c6.43-9.14 13.47-17.92 19.19-27.48 12.21-20.41 15.16-43.11 14.71-66.44 5.22 10.61 12.6 19.24 23.08 25 2.22 13.85-.69 26.67-7.87 38.62-2.3 6.23-5.31 12.3-3.84 19.26z" fill="#503295"/><path d="m496.87 1246.81c8.35 5.18 15.64 12.08 25.1 15.49 1 7.77-1.87 11.45-10.29 11.21-14.88-.42-29.8.21-44.69-.29-5.68-.19-12.9.8-14.87-7.52q.42-9.09.83-18.17z" fill="#030101"/><path d="m553.58 1254.49q.42-5.64.82-11.26l35.36-.08c2-.64 3.69.31 5.38 1.17 5.57 3.4 12.18 4.63 17.58 8.3 7 4.73 6.58 10-.84 14.39l-5.32 1.11c-11.84-.12-23.69-.09-35.53-.4-8.85-.23-15.82-3.33-17.45-13.23z" fill="#030101"/><path d="m1027.08 1245.09c-6.19 1.23-11.9 4.37-18.51 4-4-.21-6.75-.88-5.83-5.71.57-6.82 6.89-9 10.69-13.21 5.11-5.7 9-12.54 15.59-16.85l26 .09c.2 1.17.4 2.34.61 3.51v27.08c-4.4 2.1-8.37.77-12.92 1.36-.32-4.1-.6-7.68-1-12.8z" fill="#030101"/><path d="m1073.73 1092.92c-5.87-6-13.67-10.25-16.94-19-1.5-4-2.36-8-1.15-11.74 1.68-5.15 4.76-9.27 10.79-3.76 4.09 3.76 8.61 7.06 12.56 11 8.3 8.19 6.06 18.15-5.26 23.5z" fill="#e4e2ee"/><path d="m1128.54 980.94c-.82-4.88.51-10.39 2.39-15.57 2.24-6.19 7-6.56 10.85-1.1 5 7.12 10.06 14.18 6 23.83-2.37 5.6-5.32 10.37-11.9 9.49s-7.22-6.64-7.32-12.12c-.04-1.23-.02-2.47-.02-4.53z" fill="#e4e2ee"/><path d="m200.8 1263.72 21-.07c3.5 3.08 7.1 6.06 10.45 9.29 1.25 1.22 2.88 2.78 2.1 4.87-.84 2.25-2.72 3.11-5.16 3.09-7.5-.06-15 0-22.51 0-3.63 0-8.59.94-9.18-4-.5-4.4-3.07-10.17 3.3-13.18z" fill="#030101"/><path d="m143.68 1248.77c-4.73-4.08-2.73-8.72-1.46-13.57 1.42-5.42 6.14-10 4.19-16.29l-.06.09a6.13 6.13 0 0 0 2.14-2.83l13-12.29q-5.61 20.73-11.24 41.46c-1.41 2.62-4.18 2.7-6.56 3.53z" fill="#fee907"/><path d="m1106.51 917.21a6 6 0 0 1 4.81 6.71c-.26 3.77-2 7.6-6.37 7.78-3.82.15-6.39-2.64-6.19-6.51.24-4.49 3.3-6.99 7.75-7.98z" fill="#e4e2ee"/><path d="m143.66 1248.87 6.56-3.53.06 3.34z" fill="#f0eef1"/><path d="m227.09 973.64c4.7 1.6 9.46 3.06 14.08 4.85 5.34 2.07 9.41 6.29 9.47 11.7.06 5.08-5.34 7.16-9.67 8.92a30.5 30.5 0 0 1 -13.65 2.52q-.12-13.99-.23-27.99z" fill="#503295"/><path d="m148.49 1216.17c0 1.45.16 3.07-2.14 2.83.71-.95 1.43-1.89 2.14-2.83z" fill="#f0eef1"/><path d="m1199 1124.54c10.84.84 21.52 2.23 31.24 7.63 4.32 2.4 7.17 5.4 4.24 10.43-2.39 4.1-5.77 6.41-10.86 4.08-10-4.58-18.43-12.46-29.84-14.33a3.52 3.52 0 0 1 -2.12-5.23c1.57-3.01 4.49-2.93 7.34-2.58z" fill="#fefefe"/><path d="m1306.81 1079.52c-7.39 3.81-13.35 2.29-16-4-1.31-3.08-1.53-7.15 2.37-7.39 7.53-.51 12.27 3.75 13.63 11.39z" fill="#fefefe"/><path d="m1188.42 979.53c-6.09-4.37-7.25-8.7-2.51-13.63 2.7-2.81 6.29-3.56 8.63 0 4.65 6.97-1.78 9.52-6.12 13.63z" fill="#e4e2ee"/><path d="m1248.35 916.48c6.59 4.36 11.41 8.68 9 16.91-11.05-3.31-14.19-8.79-9-16.91z" fill="#e4e2ee"/><path d="m141.23 593a58.27 58.27 0 0 0 -2.48 34.62c2.55 11.35-2.12 21.47-8.54 30.62a43.05 43.05 0 0 0 -8.06 27.22 82.62 82.62 0 0 1 -5.94 34.69c-2.33 5.81-5.26 11.52-11.35 14.28-8.6 3.9-18.14 8.46-26.3 1-9-8.3-13.5-19.12-10.21-32.1 4.14-16.32 16.55-25.11 29.72-33 19.94-11.92 34.12-26.81 31.64-52.3-.66-6.86 2.6-13.33 5.34-19.6a10.78 10.78 0 0 1 5.62-6z" fill="#565558"/><path d="m129.39 729.26c14.31 14.2 22.3 32.27 30.41 50.69-8.46-2.78-15.92-6-18.74-16.18-2.9-10.52-6-21.3-15.21-28.65z" fill="#c2ae01"/><path d="m140.67 592.39 2-1.77.15.16-1.6 2.22s-.55-.61-.55-.61z" fill="#565558"/><path d="m142.65 590.62 1.89-1.87.16.17a1.82 1.82 0 0 1 -1.9 1.86z" fill="#565558"/><path d="m144.54 588.75.89-1.18c1 1.11.08 1.21-.74 1.35z" fill="#565558"/><path d="m112.44 788c1.53.05 3.66-.53 4.51.26 15.66 14.55 35.58 14.58 55 16.48 1.05.1 2 1 2.8 2.64-18.15-2.25-38.08 8.35-54-8.51q-4.17-5.42-8.31-10.87z" fill="#c2ae01"/><path d="m593.12 1245.48-3.36-2.33c-1.29-9.81-3.63-19.61-3.64-29.42 0-23 3.41-45.68 7.59-68.31a308.78 308.78 0 0 0 5.3-45.18c.84-24.47 3.75-48.93 3.43-73.37-.58-44.35-.33-88.92-12.38-132.26-.65-2.35-.41-5-.59-7.44-.09-3.45 2.67-3.85 5-4.44 3-.77 6.2-.64 9.32-.64q133.94 0 267.87 0c4.89 0 10.11-.88 14.22 3 .61 12.55-3.09 24.86-3 37.18.35 38 3.24 75.82 6.58 113.63 1.27 14.38.34 29-4 42.53-9.13 28.24-10.61 57.29-12.47 86.42-.15 2.45-.7 4.89-1.07 7.33-14.67 4.06-29.74 6.35-44.55 9.84-48.82 11.51-98.27 20.78-144.14 42.32-2.53 1.19-5.24 2-7.33 4a10.2 10.2 0 0 1 -2.49 1.45c-2.2.79-4.49 1.4-6.37 2.92-3.95 2-7.85 4.39-12.36 1.37-1.46-17.11-.89-34.1 5-50.39 4.24-11.73 8.58-23.41 12.65-35.22s5.11-23.72 6.54-35.76c.79-6.67 0-12.67-6-17.6-5.38-4.4-6.5-10.91-5.13-18 2.71-13.84-14.74-32.56-28.71-31-5.69.62-9.62 4.12-12.93 8.47-16.68 21.91-20.56 46.24-14 72.64 3.21 12.89 8.23 24.5 17.8 34.37 7.32 7.56 12.83 16.86 18.58 25.79 6.72 10.45 6.45 22.1 5 33.56-.74 6 .25 12.65-4.13 17.91-18.13 7.15-36.7 10.99-56.23 6.63z" fill="#e4e2ee"/><path d="m576.93 848.1-9.68-19.77c-5.53-12-7.54-24.71-7.17-37.85 8.66-7 19.34-9.47 29.64-12.54 7.16-2.13 14.6-3.36 21.55-6.23 4.64-1.92 8.51-4.48 6-10.54s-7.8-8.55-13.52-6.31c-3.82 1.5-7 4.06-10.13 6.64a52.68 52.68 0 0 1 -29 12c-3 .28-6.3 1.44-8.43-2.06-1-9-4.7-17.89-1.14-27.08 4-3.31 8.88-2.69 13.46-2.51 10.42.41 20.55-.49 30.14-4.91 6.65-1.24 13 .58 19.39 2 12.15 2.74 22.82.21 32.3-7.82 21-17.78 38-38.59 48.76-64.1 1.46-3.44 2.65-7 4.59-10.23a25.35 25.35 0 0 1 3.4-4.52 8.68 8.68 0 0 1 2.44-1.47c27.38-12.65 54.17-7 79.65 4.75a143.82 143.82 0 0 1 50.37 38.45c7.73 9.29 17.09 16.31 26.22 23.87 17.25 14.31 29.4 32.86 41.12 51.68-.87 7.49-.88 14.74 3 21.7 1.64 2.91 1.83 6.66-1.38 9.39-3.63 13.25-7.19 26.52-11 39.73-.92 3.21-2.61 6.2-4 9.28-4 3.49-8.78 3.1-13.39 2.39-9.32-1.44-18.68-1.32-28.06-1.32q-128.94 0-257.87 0c-5.78-.05-11.82.59-17.26-2.62z" fill="#fe0060"/><path d="m908.55 800.61c.23-3.06 1.19-6.53-.83-9-5.83-7.1-4.73-14.65-2.38-22.46.73-1.69.11-3.79 1.6-5.25 9.39-12.95 22.9-22.87 28.56-38.59a30.86 30.86 0 0 0 1.43-3.44c1.87-8.28 3.8-17-2.75-23.85-6.17-6.43-14.46-6.22-22.68-3.85a61.9 61.9 0 0 1 -6.32 1.69c-21 .45-41.51-3.07-61.65-8.51-8.77-2.37-9.85-7.46-6-20.82 8.93-11.63 11.2-25.45 13-39.45 1.44-4.64 4.5-6.57 9.26-5.3 17.76 4.74 35.49 6 53.21-.23a5.93 5.93 0 0 1 5.35.8c7.39 2.08 14.83 3.86 21.81 7.32 8.31 4.12 17 1.9 25.34-.09a44.49 44.49 0 0 1 12.8-1.23c7.83 0 13.82 4.08 19.38 9 2.91 5 2.8 10 1.93 15.85-2.65 17.79 1 35 7.77 51.51 2.3 5.6 8.43 7 11.86 11.37-8.49 7.69-17.13 15.24-25.42 23.14-5.89 5.62-8.44 12.64-8.07 21 .46 10.55.53 21.14.19 31.7-.37 11.3 0 22.25 6.75 32 .74 1.07 0 2.37-1.25 3.09-6.44-3.6-12.85-7.26-19.33-10.79-13.16-7.18-26.69-8.87-40.62-2.28-11.56 5.45-15.54 4.1-20.65-7.33-.91-1.92-1.54-3.99-2.29-6z" fill="#feea01"/><path d="m576.93 848.1q142.44 0 284.88 0c10.61 0 21.21 1 31.82 1.48-1.08 12.18-4.78 23.79-7.73 35.56q-143.39 0-286.77 0c-3.28 0-7-1.2-9.66 2z" fill="#e4ccdf"/><path d="m672.76 1228.45a1.83 1.83 0 0 0 1.39-.16c5.83-3.94 12.57-5.73 19.31-6.67 31.37-4.4 61.48-14.27 92.37-20.75 25.19-5.29 50.58-8 76.33-7.07 3.12.12 6.3.08 8.8 2.45.83 7.92-8.48 12.71-6.48 21-3.73 10.43-9.6 18.52-21.7 19.8-14.24-4-27.74 2.16-41.57 3.35-25.32 2.2-50.38 6.84-75.78 8.88-19.13 1.53-38 5.6-57.11 8.15-17.9 2.4-35.57 5.63-52.74 11.36-1.85.62-3-.17-3.7-1.77 6.24-6.77 5.74-10.19-2.11-13.88-5.53-2.6-12-3-16.65-7.65 19.13 0 37.83-3 56.27-7.92a4.1 4.1 0 0 1 1.78 2 18.36 18.36 0 0 1 1 5.69c1.75-3.86-.66-8.75 3.61-11.48a15.93 15.93 0 0 0 10.8-3.32c1.67-1.93 4.42-.52 6.18-2.01z" fill="#9f8ec0"/><path d="m950.47 1015.2c22.91 48 53.62 92.19 70.06 143.34-3.31 4-7.9 3.54-12.09 2.84-19.64-3.26-39.06-.24-58.48 1.91-9.88 1.09-19.75 2.31-29.62 3.52-4 .49-8.11 1.11-11.42-2.19 2.55-6.27 4.67-12.76 7.72-18.77 16.21-31.89 22.82-66.57 29.76-101.16 1.95-9.69 4.34-19.43 4.07-29.49z" fill="#e4e2ee"/><path d="m895.28 1194.39c8.56 6.62 19.11 3.4 28.6 5.64 22.84 5.39 46.46 2.8 69.61 5.66 11 1.37 21.94 4.39 33.23 3.59l2.3 4.06c-6.75 11.78-16.71 20.75-26.28 30.06-10-5-21.14-3.63-31.7-5.32-26-4.18-52.55-3.43-78.78-5.93-3.65-3.58-3.14-7.35-.51-11.22 4.15-4.88 1.08-10.7 2.06-16 .65-3.48-1.49-7.37 1.47-10.54z" fill="#9f8ec0"/><path d="m891.75 1220.93.51 11.22v13.44c-3.3 2.29-6 1.33-9.49 1.12-.24-3.19-.48-6.39-.78-10.34-16 7.89-31.43 16.78-50.36 10.83 2-6.22 7.88-6.75 11.15-10.16 10.13-3.43 15.48-12.09 21.69-19.8 9.53-2.12 18.12 2.99 27.28 3.69z" fill="#030101"/><path d="m561.05 790.11q3.09 19.11 6.2 38.22c-3.77-2.06-7.89-1.26-11.86-1.27-28.21-.06-56.39-.06-84.62-.06.89-8.62 3.11-17.09 2.76-25.84a2.94 2.94 0 0 1 3.48.36c10.41 12.1 22.78 7.29 34.41 3.32 13.54-4.64 27.12-9.22 40.67-13.86 2.91-.98 5.78-2.63 8.96-.87z" fill="#3b1f7a"/><path d="m544.43 1136.42c-5.35-24.9-13.75-49.13-15-75-.38-8.1-.64-16.61-3.67-24.49-2.13-29.84-8.82-59.05-12.31-88.8 7.74 13.43 11.78 28 15.93 42.65 6.86 24.15 13.29 48.38 16.34 73.38a61.54 61.54 0 0 1 .62 7.41c.06 18.3 0 36.6.07 54.9.05 3.53.04 6.92-1.98 9.95z" fill="#e1cb02"/><path d="m364.48 1239.72 1.85 3.13c-2 7.39-4.53 3.84-7.05.36a175.88 175.88 0 0 1 -22.6-43c-13.13-35.93-25.35-72.41-33-109.8-4-19.56-11.75-29.18-31.08-31-11.67-1.07-20.09-8.55-27.66-17.35 15.7 5.88 30.74 13.86 49.37 13-7.58-28.49-19.88-55.39-24.9-84.31 29 67.71 41.54 140.53 66.79 212 12.13-17.61 23.2-34.18 34.09-51.07-1.32 10.6-5.88 20-12.07 28.15-7.57 10-10.78 21.61-15.5 32.72-2.35 5.54 1.85 9.65 3.53 14 4.55 11.88 8.13 24.38 18.23 33.17z" fill="#9f8ec0"/><path d="m270 904.29c-.82 2.84-2.13 5.46-5.17 7.11-4.95 2.68-9.59.64-12.83-2.22-4-3.49-9.47-6.75-9.33-13a7.68 7.68 0 0 1 4.54-6.67c5.1-2.3 22.79 9.04 22.79 14.78z" fill="#e4e2ee"/><path d="m362.82 1218c-5.78-18.19.18-39.83 10.36-38.87-1.02 13.56-8.95 25.36-10.36 38.87z" fill="#fefefe"/><path d="m327.91 1005.15c-4.47-1-8.54-3.23-8-7.67s2.9-9.15 8.79-9.05c4.51.08 7.38 2 7.53 7.29.17 6.18-4.48 7.28-8.32 9.43z" fill="#e4e2ee"/><g fill="#9f8ec0"><path d="m267.91 965c-5.51-6-6.26-11.53-7.59-16.82 5.27 3.6 6.68 8.82 7.59 16.82z"/><path d="m256.7 940.84a20 20 0 0 1 -4.62-15.69q3.49 7.26 7 14.53z"/><path d="m369.88 1118.92c.15-2.33.29-4.65.5-8 2.15 3.67 1.23 6.21-.5 8z"/><path d="m234.2 1034.1 1.57.67c-.23.52-.34 1.33-.71 1.48s-1-.37-1.53-.59z"/><path d="m241.51 1038.43c-.23.52-.34 1.33-.72 1.48s-1-.37-1.52-.6c.22-.52.34-1.33.71-1.48s1.02.37 1.53.6z"/></g><path d="m840.25 665.76c-3.45 17.24-3.25 16.39 14.42 21.18 17.26 4.69 34.71 5.79 52.32 6.7 15.58-2.09 21.53 4.19 18.43 19.19-2.95 14.34-6 28.62-12 42.12-1.64 3.72-3 7.51-6 10.47l-2.16 3.76q-15.52-20.45-31.09-40.86a20.26 20.26 0 0 0 -4.53-4.7c-14.7-9.68-26.54-22.38-38.68-35-23.45-24.28-52.26-38.93-85.88-43-8.19-1-16.61 1.36-24.59 4.25-4.06 1.48-8.12 3.41-12.68 2.71-2.6-4.58 1.24-6.87 3.59-9.48 4.43-4.94 10.3-8 15.85-11.51 5.72-3.58 9.48-8.24 7.56-15.52-1.72-6.51 2.51-11.13 5.2-16.35-15.1 6.59-24.56 18.79-34 31.31-15.78 20.87-30.6 42.56-49.39 61-1.34 1.31-2.67 2.62-4.12 3.82-18 14.91-24.06 15.36-44.1 3.47a160.64 160.64 0 0 1 -22.3-15.43 569.06 569.06 0 0 1 -49.52-28.1 5.25 5.25 0 0 0 -1.72-.74 60.13 60.13 0 0 1 -32.57-17.73c-2.41-5.45.21-9.17 4.6-11.74 14.49-8.38 18.73-20.58 15.23-36.58-1.36-6.26-2.52-12.86-1.61-19.46 1.89-4.6 7.26-5.72 10-9.9-4.29-6.89-16-7-16.39-17.42 8.72-.63 17.17 1.8 25.93 1.81 30.28 0 56.23-10.66 79.62-29.25 12.89-10.24 26.39-19.64 34.68-34.49 1.38-2.47 3-4.64 3.07-7.58 4.34-4.26 9.91-3.09 15.06-3.1 43-.12 86-.22 129 0 12.77.07 25.37-3.56 38.16-1.34 8.94 2.94 10.54 11.52 13.94 18.6 1.29 2.7-.26 5.68-2.34 7.62-11.6 10.81-20.27 24.41-32.9 34.2-3.87 7.88-14.68 9.26-17.23 18.38-10 12.31-22.3 22.63-32.45 34.9 5.27 4.74 7.72 1.42 10.08-.66 4.66-4.11 8.76-8.81 13.33-13 2.63-2.43 5-5.89 9.52-4.25 4.55 5.86 5.35 13 6.82 19.9 3.66 17.19 5.59 34.81 13.31 50.93.63 1.7 1.14 3.45 1.82 5.13.4.79.73 1.6 1.07 2.41 3.4 7 1.75 16.8 11.54 20.12 1.62.75 3.21 1.53 4.1 3.21z" fill="#b21959"/><path d="m696.62 325.84 60.29-.32 116.22-.12q51.89.18 103.76.37c27.41.13 54.82.38 82.23.58 2 3 .24 5.38-1.64 7.35-5.74 6-11.62 11.89-20.18 13.85-38.44 1-76.88.31-115.32.44-20.62.06-41.24.4-61.87-.22-31.27.44-62.55.37-93.83.06-24.48.26-49 .41-73.44-.07q-131.46.64-262.92-.08c-10.79-3.5-18.48-10.34-22.45-21.12q108.55-.18 217.11-.37c24.01-.05 48.02-.19 72.04-.35z" fill="#d6d4d3"/><path d="m843.11 470.85c-58.76 1.71-117.53 1.22-176.29 1.55-3.12 0-6.24.19-9.36.29q-104.37-.07-208.76-.16c-13.11 0-26.21-.15-39.31-.23 2.36-11.84 10.65-18.8 20.33-24.64a53.72 53.72 0 0 1 10.28-.66q110.91-.06 221.83 0c2.18 0 4.36.17 6.54.27 53.29-.52 106.58-.2 159.87-.16a21.45 21.45 0 0 1 7.36 1.09c6.9 6.06 8.79 13.8 7.51 22.65z" fill="#d6d4d3"/><path d="m426.38 449.86c-4.09 8.67-13 13.68-17 22.44-4 .74-3.79-2-3.79-4.56q0-69.25 0-138.51c0-1.32.27-2.42 1.82-2.67 5.87 6.66 11.83 13.23 19 18.5 2.88 3.37 2.72 7.49 2.73 11.5q.12 40.94 0 81.87c.09 4 .27 8.14-2.76 11.43z" fill="#f0eef1"/><path d="m514.17 542.2c4.89 8.07 13.31 11.58 21.6 16.33-3.67 5.05-8.73 7.55-13.88 10-6.08 5.82-13.47 5.06-20.25 2.71-9.21-3.18-16.94-2.69-24.12 4.4-3.29 3.25-7.37 5.57-10.86.64 2.73 9.94 1.47 19.5-4.8 28-4.28-.83-4.35-3.65-5.18-5.92-4.56-11.76-7-23.61-4.25-36.39 2.9-13.38 13.26-23.8 27-25.64 1.84-.25 3.79 0 5-1.85 10.98-1.48 20.66 1.95 29.74 7.72z" fill="#030101"/><path d="m918.31 622.38c-19.74 8-39.69 8.55-59.69 1.21-5.3-1.94-5.7 1.55-6.66 4.88-7.25 2.92-10.78-2.53-13.2-7.15-6.22-11.87-12.46-23.78-17.64-36.16-2.33-5.58-3.09-11.42-.92-17.36 3.22-8.83.45-17.93 1-26.88 12-12.29 24.24-24.29 36.42-36.38 4.52-4.48 9.27-5.71 15.14-2.12 7 4.27 14.71 6.84 22.64 8.85 2.3.59 5.17.48 5.92 3.66-2 34.5 5.08 67.62 15.23 100.28.76 2.34 1.19 4.79 1.76 7.17z" fill="#b21959"/><path d="m1036.73 548.18c1.86 6.07 1.37 12.33 1.71 18.54.63 11.84 3.86 14.75 15.49 14.62 15.16-.16 21.56 6.23 22 21.23.3 9.57-1.48 19.27 2.52 28.65 2.69 6.33 6.32 10.91 12.79 14 17.56 8.3 20.58 18 11.54 34.41-7.67 13.95-24.94 19-38.23 11.47-16.68-9.39-19.34-26.59-24.19-42.54-3.14-10.32-2-21-2-31.59 0-10.07-1.4-19.68-7.44-28.38-5.35-7.7-6-16.74-5.7-26 .29-9.51 2.19-19.63-7.17-26.93 7-3.07 9.48 5 14.89 4.37l-.09-.07c1.36 1.48.29 3.63 1.45 5.16z" fill="#565558"/><path d="m901.35 514.93c-12.44-2.72-24.55-6.28-35.22-14.19-15.9 12-27.66 28.2-43.64 39.68-6.78-2.42-6.71-7.64-5.46-13.35l38.45-35-2.2-2.93-10.17-18.3q-2.82-10.41-5.62-20.81c-6.16-12.46 1-23.17 4.61-34.3.85-2.61 2.71-4.82 4.41-7 9-12.35 19.88-22.3 34.25-28.07 5.72-2.61 11.78-4.12 17.84-5.67a52.32 52.32 0 0 1 14.94-.32c11 2 21.66 4.74 31.19 10.83 4.59 3 8.16 7.09 12.09 10.8a84.62 84.62 0 0 1 11.71 14.23c2.76 4.26 5.54 8.53 7 13.47 3 8.5 6.09 17 4.8 26.27-2.14 6.68.09 14.67-6 20.17-11.88 21.5-27 39.13-52.64 44.42-6.79 1.41-13.55 1.05-20.34.07z" fill="#030101"/><path d="m1040 345.06c6.85-5.74 15.87-9.27 19.08-18.71l5.1-1.7c.26 6 .5 11.32.73 16.68v127.81c-2.93 2.29-5.39 1.33-7.77 1.18-9.26-5.52-17.76-11.68-19.59-23.43q-.66-43.15 0-86.29c.04-5.3-1.14-10.81 2.45-15.54z" fill="#f0eef1"/><path d="m997.64 637.38c-6.85-2.15-13.16-5.47-19.38-9 6.09-6.67 5.31-15.61 7.19-23.52 1.07-4.45-4.78-6.78-8.28-9.12-17.71-11.88-18.9-22.86-3.76-38.58 9.45-9.83 18.71-20 33.06-22.83 7.8 5.68 15.25 11.3 13.41 22.95-.69 4.39-1.45 8.34-4 12-8 11.4-12.56 24.71-19.92 36.45-7.02 11.14-1.67 21.27 1.68 31.65z" fill="#fdb073"/><path d="m1040.11 449.78c2.79 9.25 12.31 12.93 17.07 20.54l-82.83.12q1.93-10.21 3.85-20.44c1.13-.54-.44-.28.76-.51 20.39-3.76 40.79-4.49 61.15.29z" fill="#d6d4d3"/><path d="m1034.28 545.11a4.33 4.33 0 0 1 -1.45-5.16c2.61 1.12 1.57 3.27 1.45 5.16z" fill="#030101"/><path d="m503.35 637.9c2.73.14 7-1.15 7.68 1.67 2.32 9.91 10.46 8.76 17.36 10.45 13.92 3.41 24.4 13.18 36.29 20.28 7.66 4.57 17.37 5.3 23.44 12.68 3.68 11.73-3 20.63-8.17 29.94-17.8-3.25-35.73-6.2-48.86-21a97.19 97.19 0 0 0 26.62 34.08c1 6.35 2 12.7-1.47 18.69-1.47 9.31 2.76 18.31 1.51 27.62a4.73 4.73 0 0 1 -3.87 2.34c-14.16-.38-27.83 3.6-41.86 4.55-11.72.8-19.87-3.48-25.66-13.36-2.37-4-5.23-7.78-6.62-12.32 0-7.3-3.16-13.81-5.2-20.6-2.72-9-5-18.18-5.45-24.84-.68 10.72 5.28 23.85 1.35 37.52-11.1 5.06-22.48 8.66-34.92 6.44-5.94-22.89-10.39-45.86-3.71-69.42 8.17-11.86 20.94-18.06 32.48-25.57 6.28-4.08 10.6-8.15 9.07-15.63 3-3 6.41-1.48 9.32-2.22 6.68-3.84 13.66-2.73 20.67-1.3z" fill="#3b1f7a"/><path d="m503.35 637.9c-6.73 2.87-13.76 1.22-20.67 1.3.26-4.78-.34-8.63-5.15-11.77a28.37 28.37 0 0 1 -10.53-12.8c-.88-2.12-1.53-4.57-4.63-5.31-5.82-1.4-6.54-5.89-5.68-11 1.15 1.39 2.29 2.77 4 4.82 6-9.81 4.76-20.23 4.94-31.71 2.53 8.17 6.35 6.82 9.91 2.64 7.83-9.16 16.36-10.81 27.27-5 5.82 3.1 12.73.7 19.09-.59 1 7.68 1.69 15.44 3.2 23 3.12 15.65-1.78 27.75-16 35.32-5.04 2.74-6.76 5.86-5.75 11.1z" fill="#fdb073"/><path d="m480.6 752a66.52 66.52 0 0 1 4.35 7.15c7.31 16.35 20.7 20.37 36.64 16.78 12-2.71 24-3.26 36.16-3.66 17.74-.32 31.15-10.29 45-19.61 6.9-4.62 12.73-1.27 17.18 7.67 3.92 7.87-1 11.31-6.89 13.25-17.28 5.68-35.05 9.87-52 16.49-21.44 7-42.4 15.31-64.44 20.77-11.74 2.9-16.37-4.3-23.08-9.72-10-12.25-23.11-21.63-32-34.85-2.89-4.29-5.83-8.75-6-14.27l34-7.45c6.88-2.26 8.87 2.77 11.08 7.45z" fill="#fdb073"/><path d="m655.8 1233.76c-1.62 6.2 1.78 13.3-3.27 19.85-4.85-5.29-1.8-11.1-3.14-16 .66-6.82 1-13.7 2-20.46 2.53-16.13-4-28.84-13.73-41-14.31-17.92-28.22-35.95-30.54-60.36-2.44-25.66 3.77-48 21.1-67.1 5.16-5.68 12.13-6.89 18.85-3.69 10.6 5 19.47 12.33 24.72 23.26a6.75 6.75 0 0 1 0 6.66c-4.69 10.1-3.31 14 6.05 20.52 3.71 2.57 3.15 6.5 3.31 10 .94 21.53-4.15 42.16-12.68 61.46-9.47 21.56-12.12 43.88-12.67 66.86z" fill="#3d217c"/><path d="m672.76 1228.45c-1.65 1.91-4 1.71-6.16 2 1.4-2.59 3.91-1.95 6.16-2z" fill="#fefefe"/><path d="m578.73 713.23c2.64-10.23 9.38-19.2 9.39-30.25a242.48 242.48 0 0 0 34 21.35c4.42 2.27 7.73 2 12.14.13 16.18-6.74 27.11-19.27 37.48-32.55 16.07-20.59 31.89-41.37 48.25-61.73 6.14-7.66 16.51-9.58 23.68-16.64 2.25 4.48-.66 6.31-2.12 8.28-3.85 5.2-6 10-4 17.09 2.22 8-4.48 12.08-10.47 15.76-7.61 4.66-16 8.54-19.16 17.93v-.06c-1.16 1-.82 2.59-1.59 3.74-10 26.53-25.45 49.2-45.74 69.19-15 14.78-31 20.68-51.32 14.06-2.6-.86-5.53-.72-8.31-1-10.23-1.59-19.59-5.06-27-12.63-.3-4.96.59-9.44 4.77-12.67z" fill="#fdb073"/><path d="m574.83 725.5 26.14 13c-14 8.86-29.68 5.16-44.73 6.21v-20.63c6.47-3.31 12.58-1.56 18.59 1.42z" fill="#b31a5a"/><path d="m706.34 656.28c-.28-1.6-.2-3 1.59-3.74a3.49 3.49 0 0 1 -1.59 3.74z" fill="#b21959"/><path d="m817 527.07c2.28 4.27 1.66 9.71 5.46 13.35 2.51 10.72 3.36 21.3-1.06 31.9-1.94 4.64.82 9.14 2.65 13.27 5 11.33 10.2 22.63 16 33.61 2.37 4.52 5.72 9.06 11.92 9.26-.41 13.53-2.24 26.61-11.71 37.3l-4.75-1.84c-3-8.29-4.87-17.27-13.12-22.54-1-1.07-.63-2.77-1.76-3.77-9.72-17.08-10.63-36.61-15.07-55.12-1.48-6.23-2.47-12.64-5.63-18.37-4.19-5.56-3.37-11.18-.21-16.83-.14-5.06.09-9.78 6.91-10.31 6.05-.47 4.52-9.11 10.37-9.91z" fill="#fdb073"/><path d="m907.5 765.42c4.54-17.06 11.84-33.2 14.91-50.84 2.93-16.81 1.55-20.1-15.42-20.94 4.73-2.43 9.77-4 15-3.38 18.43 2.25 22 12.24 17.13 32.08a48.91 48.91 0 0 1 -18.51 28.18c-5.49 4.04-5.32 12.95-13.11 14.9z" fill="#c2ae01"/><path d="m799.72 547.29.21 16.83-27.46 25c-6.38-3.66-8.18-7-2.46-12.38 10.13-9.59 19.83-19.61 29.71-29.45z" fill="#030101"/><path d="m822.38 641.38c11.2 4.68 13.21 8.12 13.12 22.54-5 .6-7.41-2.52-8.71-6.6-1.67-5.25-2.95-10.62-4.41-15.94z" fill="#e08f53"/><path d="m820.64 637.62a3.62 3.62 0 0 1 1.76 3.77c-1.69-.74-1.85-2.2-1.76-3.77z" fill="#e08f53"/><path d="m426.38 449.86q.06-52.39.14-104.8 129.91 0 259.83 0c2.18 0 4.36.21 6.55.32 2.07 3.54.37 6-2.28 8.25-6.27 2.57-12.89 1-19.33 1.61-3.56.31-8.41-.47-8.6 4.78-.21 5.66 4.84 4.44 8.29 4.77 3.08.29 6.22 0 9.29.44 3.23.52 6.14 1.47 6.29 5.53-7.68 20.24-7 42.06-11.89 62.82-1.33 5.66-1.57 11.78-6.18 16.22q-112.14.19-224.3.39c-5.94 0-11.88-.19-17.81-.33z" fill="#c53f95"/><path d="m668.49 449.79c6.88-22.93 6.18-47.25 12.94-70.22.89-3 1.48-6 3.59-8.44 3.92 3.31 3.1 7.93 3.16 12.17.17 13.72.05 27.44.07 41.16a48.92 48.92 0 0 0 .34 7.46c.41 2.65 1.28 4.92 4.52 4.93 3.42 0 4-2.56 4.19-5.11.51-7.16.18-14.33.22-21.5.08-10.92-.21-21.83.12-32.74.31-10.1 2.24-11.76 12-12.86 4.15-.47 11.29 1.79 10.86-5.06-.4-6.33-7.33-3.58-11.54-4.16-6-.84-12.57 1.59-18-2.95q.94-3.56 1.9-7.1h73.32c3.7 2.32 6.48 4.81 1.71 8.78-5.79 1.94-11.79 1.17-17.7 1.17-6.06 0-9.36 2.14-9.36 8.68 0 21.88-.11 43.75.07 65.62 0 4.06 1 7.68 6 7.83 14.38.41 28.76.75 43.13-.22 1.54-.1 3-.79 3.54-3.37-.95-4.14-4.95-3.27-8.07-3.39-8.44-.32-16.91.31-25.33-.32-9.4-.7-12.16-4.69-12-16.32.18-10.53 2.36-13 12.32-13.48 7.5-.34 15 .08 22.53-.19 3.19-.11 7.1.85 8.71-3.59-1.55-4.51-5.49-3.48-8.67-3.61-7.81-.34-15.66.33-23.45-.36-8.68-.77-11.51-4.68-11.41-14.9.1-9.83 2.39-12.69 11.86-12.91 10.93-.26 21.89-.9 32.8.59 7.44 3.49 16.71 1.87 23.11 8.26 3.33 10.65 1.19 21.6 1.66 32.41.31 7.14-.1 14.31.14 21.46.11 3.19-.76 7 3.27 8.87 4.42-.95 3.67-4.58 3.91-7.44.38-4.33 0-8.71.27-13 .3-4.74.53-10.14 6.48-10.92s13-3.83 17.39 3.79c-8.66 12.4-11.9 26.35-11.73 41.26z" fill="#994e90"/><path d="m1040 345.06q0 7.45-.08 14.92a15.13 15.13 0 0 1 -5.78 4.58c-13.47 6.17-24.72 15.35-35.36 25.47-2.41 2.3-4.7 5-8.12 6.08-6.22-4.22-6.49-11.66-9.39-17.65a151.75 151.75 0 0 1 -6.8-17.32c-1.35-4-3.88-6.14-8.25-6.16-4.21 0-7.14 1.69-8.78 5.58-2.41 5.72-4.7 11.48-6.75 17.34-1.33 3.81-2.61 7.7-6.38 10-9.26-5.77-19.8-8-30.1-10.94-3-3.7-2.23-8.15-2.52-12.4-.26-3.9.43-8.74-5.48-8.86-6.58-.14-5.75 5.13-5.94 9.3s.1 8.63-1.78 12.68l-17.72 4.59c-.23-.2-.65-.38-.67-.6-1.27-15-10.38-23.38-23.72-28.25-2-4.14 1.26-5.87 3.65-8z" fill="#994e90"/><path d="m860.07 345.39c0 3.07-2.9 4.56-3.87 7.1-4.1 3.84-9.25 2.63-14.06 2.83-5.23.21-10.47.14-15.71.05-5.58-.1-8.62 1.95-8.73 8-.06 3.49.55 7.6-3.65 9.69-6.62-1.75-13.94-1-19.78-5.57 1.39-11.87 1.08-12.11-11.29-12.43-4.46-.12-9.29 1.1-13.09-2.58l-3.67-7.07z" fill="#c53f95"/><path d="m965 423.74c4.69 8.28 5.59 17.12 3.94 26.34-2.76 2.44-6.15 2.86-9.62 2.88-35.16.22-70.33 0-105.5.11-1.89 0-3.68-.62-5.53-.86-3-12-1.94-23.37 4.58-34 8-.94 7.94 6.42 10.11 10.64 3.53 6.87 7.63 11.17 16.89 8.78-4.72-7.69-8.22-15.76-12.74-23.33-2-3.43-4.5-6.94-1.52-11.12 9.93-8.1 19.8-16.34 33.65-16.42 3.31 3.2 2.89 7.4 3 11.41.14 9.66-.11 19.32.14 29 .09 3.44-1.12 7.72 3.7 9.57 4.66-2 3.49-6.24 3.58-9.71.24-9.66 0-19.32.12-29 .06-4-.29-8.2 2.93-11.44 10.54-.57 19.65 3.22 28 9.24 2.67 4.13.21 7.81-1.25 11.41-4 9.75-7.56 19.61-11.46 30.09 5.87 1.71 9.45 0 12.23-5 6.61-11.95 12.11-13.73 24.75-8.59z" fill="#bd91b9"/><path d="m991.05 396c9.06-12.25 20.84-21.41 33.81-29.06 4.74-2.8 10.05-4.64 15.1-6.91l.15 89.8-61.91.17a71 71 0 0 0 -5.2-26c9.19-4.17 12.77-3 17 5.68 3.79 7.82 3.79 7.82 12.55 7.36-1.27-9.69-6.24-18-9-27-1.49-4.57-5.44-8.76-2.5-14.04z" fill="#c53f95"/><path d="m963.77 470.82a57.48 57.48 0 0 1 -54.77 35.67c-26-.58-47.3-14.39-54.93-35.49 3.32-3.79 7.91-3.29 12.19-3.31q42.62-.19 85.23 0c4.29-.03 8.86-.51 12.28 3.13z" fill="#ce799a"/><path d="m814.05 373 1.08-20.55h41.07c20.71 6 24.6 10.69 24.61 29.75-12.22 6.84-23.3 15.05-31.6 26.54-5.29-4-11.35-1.72-17.06-1.88-4-.11-3.78 3.36-3.79 6.17v25.81c-4.43 2.76-8.35 1.4-14.29 1.59z" fill="#3b1f7a"/><path d="m963.77 470.82-109.71.18c-3.92-5.63-5.2-12.08-5.74-18.75 2.62-3.25 6.3-2.1 9.58-2.11q55.53-.09 111.07 0a34.66 34.66 0 0 1 -5.2 20.68z" fill="#e4e2ed"/><path d="m991.05 396q7.86 21.41 15.74 42.84c-13.2 4-15.24 3.61-18.8-8.26-2.74-9.11-9.13-6.42-15-6.58l-6.18-13.18c1.91-3 6-1.42 8.61-4.25-1.24-9.26-6.5-17.5-9-27.22-5.75 5.4-3.71 14.53-10.78 18.25l-11.31-9.68c3.66-9.54 7.71-18.95 10.85-28.66 2.19-6.79 7-6.45 12.42-6.71 5.64-.27 7.32 2.77 9 7.27 4.59 12.1 9.61 24.08 14.45 36.18z" fill="#3b1f7a"/><path d="m965 423.74c-4 0-8.07.16-12.1 0-4.53-.2-7.81.83-8.85 6-2.09 10.36-8.63 13.27-19.34 9.93q8-21.86 16-43.84c11.96 5.95 19.34 15.89 24.29 27.91z" fill="#8674ac"/><path d="m912.71 386.54v52c-4.25 3-8.1 2.24-13.42.89v-52.72z" fill="#8674ac"/><path d="m865.64 403.13c2.19 11.58 10.25 20.31 14.9 30.7.86 1.92 2.78 3.39 2.3 5.84-15.4 2.52-15.24 2.43-22.17-10.65-2.06-3.88-2.29-9.33-7.77-10.86a42.6 42.6 0 0 1 12.74-15.03z" fill="#8674ac"/><path d="m955.66 397.55c3-7.71 6-15.43 10-25.81l14.32 37.42c-4.55 2.65-9 .64-13.1 1.61z" fill="#994e90"/><path d="m898.53 377.65a93.49 93.49 0 0 1 -.12-23.87c5-1.88 9.56-1.2 15-.58 1.73 7.8.37 15.83.84 23.73z" fill="#3d217c"/><path d="m574.83 725.5c-6.35 1.29-12.42-1-18.62-1.43a18.07 18.07 0 0 1 -11.14-6.28c-7.92-9-12.92-19.78-19.56-29.72 2.85-1.36 4-.84 4.79.12 10.58 12.69 25 17.89 40.58 20.64 3.16.55 6 1.52 7.85 4.4z" fill="#391f7a"/><path d="m480.6 752c-4-2-6.07-7-11.12-7.45-1-15-1.94-30-2.94-45.55 3.41.76 3.34 4.09 3.74 6.21a276 276 0 0 0 11.37 41c.8 2.3 1.25 4.27-1.05 5.79z" fill="#391f7a"/><path d="m647.85 1143.32c.79 7.35-3.1 12.21-11.52 13.52-6 .93-15.55-6-18-13.55a158.55 158.55 0 0 1 -4.21-17.82c-.61-3.14-.29-6.28 3.45-7.7 6.21-2.36 12.73-4 18.39.44 7.66 5.94 12.04 13.92 11.89 25.11z" fill="#e4e2ee"/><path d="m644.85 1061.83c-1 6.17-2.58 11.58-10.27 10.76-5.91-.62-7.59-5.16-7.25-10.09.41-5.89 3.09-9.65 10.18-8.78 5.4.67 7.71 3.03 7.34 8.11z" fill="#e4e2ee"/><path d="m619 439.73c-12 3.24-19.57.18-23.35-11.26-1.84-5.58-5.43-10.55-7.84-16-1.86-4.19-4.39-6-9.25-6.08-13.74-.17-13.74-.42-13.74 13.51v19.34c-5.46 2.12-10 1.42-14.9.82-2.29-6.41-1-13-1.09-19.43-.19-19.69.17-39.38-.2-59.06-.13-7.05 2.36-9.45 9.27-9 11.84.77 23.76-.86 35.59.89 11.13 1.65 19.87 6.82 22.14 18.45 2.35 12.05.34 23.14-11.47 30.17-1.06.62-2 1.39-3.88 2.67 6.12 11.53 12.24 22.94 18.72 34.98z" fill="#3b1f7a"/><path d="m532.89 383.67c-8.61 2.2-14.07 1.21-18.73-7.37-5.21-9.58-15.86-11.78-26.37-10.36-10 1.35-17.12 7-20.67 16.77-7.05 19.44.85 39.57 17.43 44.08 11.44 3.11 23.68-.86 30.23-9.82 6.69-9.15 6.69-9.15 17.81-7.32 1.43 17.64-18.53 31.9-37.37 32.76-25.45 1.16-45.3-17-46.38-42.42-1.21-28.34 16.22-47.92 43.69-49.08 20.33-.91 39.47 14.49 40.36 32.76z" fill="#3d217c"/><path d="m691 352.47h32.29c2.54 5.19 2 9.37.93 13.94-7.28 2.37-14.9-.09-23.47 1.87v70.72c-5.42 2.41-9.66 1.73-15.72.81v-68.68c.23-4.64-3.25-3.65-5.82-3.69-6.15-.11-12.3 0-18.23 0-3.3-13.55-2.43-14.66 10.45-14.71 6.57-.06 13.05-.18 19.57-.26z" fill="#3b1f7a"/><path d="m648.44 439.72c-4.77 1.51-9.32 1.17-14.56.2v-86.22c4.55-1.75 9.13-.95 14.56-.6z" fill="#3d217c"/><path d="m769.89 352.46h27.64c-.14 6 4.33 11.56-3.26 15-11.88-.05-23.77.23-35.63-.27-7-.29-8.11 3.4-7.2 8.67s-4 13.78 6.95 13.92c12.13.16 24.26 0 36 0 2.78 4.27 1.82 8 1.24 13.05h-42.88c-2.3 6.54-1 11.87-1.4 17.08-.46 5.86 2.6 7.54 8 7.45 12.45-.2 24.9-.07 37.31-.07 2.35 4.59 1.46 8.41 1 12.77h-59.16v-86.6c10.33-1.92 20.93-.16 31.39-1z" fill="#3b1f7a"/><path d="m828.71 391.78v-24.11c9.82 0 19.4-.8 28.77.28 6.26.72 8.7 6.23 8.35 12.69-.35 6.18-3.45 10.48-9.36 10.95-8.9.71-17.91.19-27.76.19z" fill="#994e90"/><path d="m565.43 391.88c-1-1.59-1.28-1.85-1.28-2.11 0-7.3-3.87-18.06 1.72-21 7.94-4.24 19-2.59 28.35-.39 6.62 1.54 7.46 7.73 6.73 13.69-.74 6.14-4.59 9.55-10.61 9.78-8.34.27-16.76.03-24.91.03z" fill="#c53f95"/></g></svg>