<svg viewBox="0 0 1385.35 1447.18" xmlns="http://www.w3.org/2000/svg"><g transform="translate(-111.31 -23.89)"><path d="m413.37 89.67c3.36 3.53 7.71 2.06 11.62 2.06 102.19.11 204.4-1.33 306.56.51 126.66 2.27 253.32-.66 379.94 1.82 51 1 102.06.45 153.09 1 7.71.09 9.78 2.07 9.77 9.8q-.35 208.92-.15 417.83c0 4.66.38 9.32.59 14 1.81 4.81-1.79 8.29-3.12 12.31a33.92 33.92 0 0 0 -2.06 10.24 58.25 58.25 0 0 1 -.79 11.19c-1.93 10.8-1.2 21.2 4.59 30.88 1.48 2.49 2.57 5.16 2.22 8.19-1 20.31-.33 40.61-.35 60.91a6.76 6.76 0 0 1 -1.85 5.65c-9.37 8.39-14 19.94-20.28 30.36-9.41 15.7-13.91 33.35-16.49 51.24-2.71 18.73-5.74 37.33-9.31 55.93-5.62 29.21-16.07 56.52-29 83-1.69 3.47-2.17 9.93-9.2 7.41a11.92 11.92 0 0 1 -.94-8.52c6.44-31.73.9-62.69-5.89-93.57-5.5-25-9.36-50.42-15.69-75.3q-.75-41.48-.14-82.93c-.46-61.61-1.6-123.26.22-184.82 2.19-74.45.39-148.87 1.23-223.3.13-11.26-1-11.93-16.47-13.19-23.32-.92-46.63-1.72-70-1.68-112.1.18-224.21.7-336.29-.27-37.32-.33-74.67-1.22-112-1.6q-44.75.5-89.5-.1c-39.81.61-79.63.12-119.44.24-1.75 0-3.49-.22-5.15.4-3.17 2.3-2.43 5.71-2.4 8.83.07 6.7 0 13.41.08 20.12 1.23 116.9-2.87 233.78-1.76 350.69a33.81 33.81 0 0 1 -.24 5.23c-.58 8.43 1.25 17-1 25.32-2.23 4.18-4.85 1.73-7.14.2-23.53-15.69-46.77-14.69-69.87 1-2.05 1.39-4 3.61-7 2.25q0-224.19.08-448.39c0-1.46-.14-2.91-.22-4.37a8.07 8.07 0 0 1 -2.14-4.5c-.87-25.36-.46-50.73-.24-76.1.08-9.15 3.05-11.9 12.32-12.2a223.66 223.66 0 0 1 32.31 1 171.71 171.71 0 0 0 36.68-.32 7.22 7.22 0 0 1 4.82 1.55z" fill="#e1dceb"/><path d="m497.65 1431.89c-3.45 4.92-2.73 10.73-3.45 16.24-8.85 5.62-17.88 8.06-27.4 1.54q-.29-7.14-.55-14.27c-2.42-7.71-.24-15.34.52-23 .54-5.44 2.4-10.69 2.64-16.2 3.92-27.13 5.07-54.4 5-81.77 0-8.18-2-16.18-1.62-24.35.46-6.08-2-12-1.09-18.11a18.07 18.07 0 0 0 .77-3.5c-.17-.73-.31-1.47-.48-2.21a43.27 43.27 0 0 0 -2.61-10.92c-.33-.7-.61-1.42-.9-2.13-.5-1.09-1-2.18-1.42-3.3a15.63 15.63 0 0 1 -.72-2.39 238.21 238.21 0 0 0 -30.86-70.89c-9.41-14.72-19.15-29.2-29.44-43.32-10.79-14.8-17-31.7-22.6-48.87a124.59 124.59 0 0 0 -5.35-14.46c-.84-.92-1.58.93-.74.11 8.76 25.74 16.53 51.89 31.34 75.12.79 4.13-.39 8.09-1.36 12-5.8 23.25-10.79 46.79-22.36 68.15-8.66 15.24-16 31.37-28.71 44-1.33 1.5-3.51 1.83-4.81 3.41-18.77 18.6-41 31.71-64.88 42.8-28.26 13.14-58 20.9-88.26 27.13-4.8 1-9.9-.91-14.64 1.24-3.7-10-8.67-19.6-8.58-30.64 25.56-9.47 51.22-18.84 74.71-32.86 18.44-11 36.23-23 48.73-41.21 1.65-8.57 6-16.21 7.91-24.8 3.46-15.66-1.41-30.57-2.66-45.8-1.07-13-4.28-25.78-4.41-38.9.08-3.35.08-6.69-1.07-9.92-1.15-8.17-.81-16.36-.37-24.56a16.19 16.19 0 0 1 .54-2.74 19.19 19.19 0 0 0 1-6.69c3.7-34.24 12.8-66.74 31.22-96.23a13.71 13.71 0 0 1 9.68-4.83c46-.6 92-.81 138.05.06 7.52 1.56 10.55 7.81 13.76 13.65 7.9 14.38 13.2 29.91 18.54 45.3 10.91 31.23 18.6 63.23 21.59 96.23 2.64 14.06 2.37 28.43 4.6 42.53 1.27 14 .63 28 .5 42 1 54.25-7.62 107.07-23.65 158.78a143.62 143.62 0 0 0 -3.31 14.44c-4.45 11.25-5.95 23.71-12.8 34.14z" fill="#feea01"/><path d="m1189.47 904.75c3.47-.12 3.81-3.27 4.9-5.41 14.26-28.22 24.29-57.74 31.26-88.75 5.59-24.88 6-50.53 13.4-75 7.16-23.84 17.86-45.59 35.23-63.71 3.12-6.72 9.52-8.6 15.75-10.74 14.06 1.31 24 10.08 33.39 19.25 13.37 13.1 26.47 26.27 43.47 34.92 8.86 4.51 17.33 9.63 27.43 11a15 15 0 0 1 8 3.16c9.22 31.3 16.58 63 17 95.79.57 47.67.3 95.35.61 143 0 5.73-1.77 8.77-7.55 9.12-2.11 4.44-6.36 3.74-9.9 3.62-33.78-1.21-67.63 2.24-101.35-1.82-17.41.37-34.82.14-52.21-1.09-7.1-.52-9.8-5.43-11.4-11.45 1.25-13.86.76-27.76.71-41.64 0-8.72.23-17.35 2.76-25.75 10.29-14.08 21-27.88 31.43-41.85 19.15-25.6 25.37-54.41 22.78-85.71-1.09-13.05-1.35-26.15-2.57-39.19 2.59 37-1.71 73-17.56 109.35-8.17 18.74-18 37.32-31.59 53.17-2 2.34-2.88 5-3.87 7.68a10.58 10.58 0 0 1 -1.23 2.23c-5.25 4.33-7.86 10.52-11.23 16.17a15.49 15.49 0 0 1 -1.13 1.9c-.79 1.12-1.65 2.21-2.41 3.36a17.59 17.59 0 0 1 -1.1 1.61c-.38.51-.8 1-1.22 1.47-.19.25-.41.48-.59.73a21.38 21.38 0 0 0 -1.43 2.51c-.28.64-.6 1.24-.93 1.85-.5 1-1 2-1.63 2.93-9 12.95-21 23.09-32.22 33.91-2.58 2.49-5.55 6.76-9.87 1.86-2.65-10.26-.45-20.48 1.39-30.39 2.28-12.29 8-23.72 10.93-36a3.07 3.07 0 0 1 2.55-2.09z" fill="#feea01"/><path d="m497.65 1431.89c1.11-11.72 7.89-21.8 9.68-33.32 13.29-4.38 26.8-8.6 40.78-8.84 13.47-.22 26-3.36 38.25-8.15 7.08-2.75 14.29-5.11 21.48-7.54 13.14-4.43 26.43-4.62 40.33-4.77 26.12-.29 49.23 8 72.31 18a18.85 18.85 0 0 0 6.72 1.86c25.64 1.06 51 5.62 76.73 5.71 16.74.05 33.07-3.24 49.65-4.41a111.33 111.33 0 0 1 19.15-.07c10.7 1.07 21-2.38 30.6-6.15 28.5-11.15 57.77-16.07 88.29-14.11a130.62 130.62 0 0 1 16.4 2.52c8.14 1.58 10.66-.73 10.4-9.1-.4-12.67-7.48-20.69-18.65-26.49-19-9.84-33.4-24.41-38.72-46-2-8.3.8-15.65 6.28-18.53 5.19-2.72 13.43-.6 19.15 5a55.41 55.41 0 0 1 5.46 6.83c1.71 2.29 2.62 5.29 6 6.66 2.71-2.64 1.27-5.35-.44-7.53-4.32-5.5-8.28-11.7-14.38-15.15-13.76-7.78-16.23-19.61-13.7-33.72.37-2 .68-4 1.07-6 1.1-6.77 5.51-12.13 8-18.35 2.26-5.67 6.09-2.43 9.07-.06a155.38 155.38 0 0 1 20 19.43c1.69-5.37-.71-9.49-3.39-13.43-3.48-5.09-8.3-9-12.48-13.45-7.36-7.87-7.81-10.48-3.52-20.17 8.48-17.64 14.7-36.46 27.28-51.94 2.55-3.13 4.92-6.48 9.11-7.69 6.31.61 9.2 5.49 12.41 10 .7 1.51 1.23 3.08 1.82 4.63a21.84 21.84 0 0 1 .8 2.36 13.21 13.21 0 0 0 2.91 6.28c9.59 10.71 14.77 23.6 18.48 37.24 2.46 11.89-1.33 22.33-7.84 32-2.26 3.35-4.85 6.5-7 9.91-1.62 2.17-4.08 3.9-3.94 7.74 3.51-.72 4.85-3.63 6.91-5.53 3.62-4.56 7.12-9.22 11.64-13s8.85-4.2 12.92.62c3.56 4.22 8 7.67 11.18 12.21 6.67 13.36 5.25 19.07-5.15 29.37-8.33 8.25-16.28 16.93-24 25.86 5.29-1.34 8-5.5 11.13-9.24 3.34-4 7.24-7.26 12.81-5.27 5.35 1.92 5.51 7 5.84 11.69.08 1.17 0 2.34.07 3.5.28 22.92-5 31.18-26.16 40.45a103 103 0 0 0 -13.34 6.55c-13 8.11-19.66 27.29-14.47 41.51 1.3 3.57 4.16 3.84 7 4 31.78 1.37 61.54 13.19 92.68 17.82a7.76 7.76 0 0 1 2.43.94c2.32 1.65 1.91 4.73 3.3 6.8 2.71.13 2.78-2.87 4.71-3.47 9.65-.45 18.91.9 27.35 6l12 4.64c-12 4.18-23.19 4.43-34 6.12-23.41 3.65-46.79 8.15-70.36 9.86-23.72 1.71-47.72 2.69-71.44-1.51-13.82-2.44-27.79-1.32-41.69-1.89-10.4-.43-20.86-2.58-31.25-.08-22.41 5.39-43.17 15.17-64.25 24.13-24.85 10.57-50.47 17-77.85 13.65-16.22-2-32.55-.71-48.77 0-14.54.64-28.39-2.32-42.06-6-18-4.84-35.94-6.11-54-2.31-26.84 5.62-52.42 3-76.71-10.07-10.43-5.62-21.31-8.72-33.38-8.24-12.53.36-25.09-.2-37.64-.31z" fill="#9f8ec0"/><path d="m1300.54 977c18.47 1.14 37 1.89 55.45 1.14 18.79-.76 37.62 1.17 56.39-.76-1.15 52.64 1.16 105.29-.89 158-1.07 27.31-1.7 54.7-2.46 82.05-.64 22.65-2.06 45.31-4.13 67.87-1.46 16-.45 32-2.51 47.93-2.72 21.07.15 42.37-.21 63.57-.23 13.35-2.88 26.44-4.54 39.63-10.94 3.77-21.65 0-32.44-1-1.28-22.84-5.52-45.36-7.42-68.11-1.09-13-4-25.79-2.63-39 1-9.64-3.16-18.73-4.75-28.12-2.89-17.08-6.92-33.94-7.17-51.44a71 71 0 0 0 -3.34-18.74c-7.52-25.54-9.55-52.1-14.89-78-3-2.8-3.5-6.68-4.1-10.37-6.79-41.72-15.82-83.07-20.66-125.11-1.12-9.81-1-19.77-2.15-29.62-.4-3.47-.34-7.11 2.45-9.92z" fill="#3b1f7a"/><path d="m329.83 633c9.31-7.44 19.59-13.3 31.27-15.65 19.23-3.86 36.41 1.11 51.22 14 9.68 7 12.12 16.68 10.16 27.94-5.37 12.89-9.38 26.35-15.56 38.9-4 8-1.85 15.94-.52 23.94.9 5.44 2.94 10.68 3 16.29-.42 5.61 1.44 11 1.65 16.55a48.19 48.19 0 0 1 -8.76 24.33c-4.13 6-8.35 11.93-12.6 17.84-6.63 9.24-10.13 19.57-11.69 30.69-3.05 21.57-11.88 40.63-25.22 57.7a31.7 31.7 0 0 1 -7 6.55 107.25 107.25 0 0 1 -16 8.82 67.65 67.65 0 0 1 -7.8 2.55c-15.33 5.18-30.8 6-46.44 1.51-3.07-.87-6.36-1.21-8.48-4a99.89 99.89 0 0 1 -26.1-10.7c-8.09-4.75-13.9-11.39-16.49-20.41-6.84-23.86-3-45.39 12.76-65.2 15.48-19.45 33.39-36.5 51.09-53.72 13.35-13 17.95-28 15.08-45.69-4.76-29.11 5.11-52.7 26.43-72.24z" fill="#010101"/><path d="m1300.54 977a569.53 569.53 0 0 0 9.4 87c5.59 29.2 10.08 58.61 15.06 87.93-3.37 11.42-3.46 23.34-5.06 35-3.78 27.58-6.93 55.26-10.22 82.91-3.16 26.52-6.06 53.07-9.26 79.58-3.22 26.79-6.67 53.55-10 80.33-.39 3.17-.56 6.37-.83 9.56-9.4-3.62-19.45-2.15-29.11-3.72q-2-95.15-4-190.3c-.08-3.76-.84-7.49-1.28-11.24a7.53 7.53 0 0 1 -2.35-4c-.31-1.59-.32-3.21-.5-4.82.87-37.55-1.53-75-2.39-112.56-.56-24.09-.19-48.26-2.06-72.31-1.1-9.43 2.19-18.42 2.86-27.67a75.21 75.21 0 0 0 -3.48-29.29c-.74-2.25-2.83-4.86.57-6.87 1.22-2.43 3.57-1.8 5.32-1.51 15.69 2.65 31.57.89 47.33 1.98z" fill="#503295"/><path d="m301.49 1129.13c2.8 21.44 5.31 42.92 8.55 64.32 2.47 16.27-1.84 32-11.47 45.77-.76-13-4-26.14-11.08-36.38s-17.24-19.26-29.44-23.78c-10.46-3.87-20.13-9-30.08-13.81-12-5.81-25.48-8-37.74-13.51-11.23-5.08-21.57-11.58-31.59-18.59a36.51 36.51 0 0 1 -12.35-15.63c-5.19-11.93 2.27-24.5 15.36-25.21 18.65-1 34.38 4.32 44.7 21.38 6.56 10.85 17.08 18.27 25.61 27.42 6.28 6.73 16.89 1.44 18.83-9.26a64.63 64.63 0 0 0 -.19-22.66c-.59-3.46-2-6.89-5.95-7.94-12.28-3.25-22.9-11.66-36.48-11.18-4.17.15-8.53-1.8-12.61-3.31-9.82-3.62-19.4-7.78-29.94-9.28-4.11-.59-8.7-1.7-11.1-6.07.13-.36.27-.73.41-1.09 2.9-4.86 6.82-9.64 1.08-15.13.37-3.12 3.45-3.63 5.22-5.41 2.44-2.48 5.69-5 3-8.82-2.3-3.28-6.17-2.92-9.59-2-4.14 1.15-4.86 4.5-4.49 8.29.3 3.06 2.94 5 3.78 7.75a40 40 0 0 1 -1.38 11.31 3.73 3.73 0 0 1 -1.76 1.79c-11.33-9.55-13.2-22-4.91-32.65s22.63-12.84 34.12-5.12c6.74 4.53 13.61 8.89 20.42 13.33-.13 4.16-3.74 4.68-6.44 6.13-7.62 4.06-14.69 9-21.52 13.18-.23 3.54 1.51 4.91 3.53 5.13 11.53 1.29 23.35 3.47 31.89-7.75 1.6-2.09 3.47-3.93 6.34-4.19 4.09.36 6.46 3.61 9.47 5.74 8.05 5.68 15.76 6.92 19.83 3 4.23-4.06 4.68-16.54 1-23-2.57-4.5-7.48-7.36-8.85-12.69.68-6.58 2.48-12.43 9.68-14.72 3 .57 4 4.08 7.63 5.26 2.26-5.08.57-10.35 1.35-15.29.47-3.53 1.46-7.25 3.88-9.54 9.56-9 14-21.85 23.57-30.85 3.45-3.26 4.66-8 7.2-11.8s4.32-8.53 10.35-7.28c8.63 14.12 8.91 29.78 7.5 45.43-1.73 19.28-9.8 37-14.78 55.55-4 14.87-8.48 29.64-9.75 45.12-.38 4.69-.54 9.18 2.75 13.26 6.38-2.79 7.67-11.49 15.27-12.13q0 13.51.05 27c0 6.86-8.36 19.15-14.33 21-3.31 1-5.89.29-6.74-3.37-4.33-18.61-11.34-36.62-12.45-55.93-.1-1.75.15-3.55-.54-5.2-5.62-13.54-1.22-25.62 5.39-37.39a30.23 30.23 0 0 0 2.88-6.34c-4 6.11-6.07 14.75-16 16.61 4.18 9.25 5.51 19.09 7.83 28.65 2.29 9.39-.84 12.08-9.86 9-7.33-2.46-15-1.74-23-3.59a26.72 26.72 0 0 0 7.92 1.77c18.14 1.9 29 10.54 31.92 28 2.89 17 9.48 32.92 13.55 49.55a46 46 0 0 1 1.92 10.17c-28.25-5.44-53.32-16.57-77.87-29.18 19.56 10 39.34 19.52 60.81 25 8.42 2.14 16.29 7.74 19.9 12.93-2.14-7.94-4.34-17.52-6.9-27-2.2-7.7 8.06-21.65 16.69-24.77z" fill="#9f8ec0"/><path d="m473.68 1269.17c-1 6.7 2.68 13.09 1.26 19.82a73.59 73.59 0 0 1 -5.95 15.43c-15.08 29.95-29.94 60-45.12 89.91-1.89 3.72-3.08 9.76-9.88 6.31-19.26-42.9-38.45-85.83-59.11-128.08-1.75-.85-1.34-2-.5-3.28 11.45-13.38 20.07-28.6 28.48-44a14.25 14.25 0 0 1 8.16-2.54c20.24 0 40.48-.66 60.71.38 10.14 3 9.94 13.34 14.41 20.36 1.2 1.9.89 4.51 2.05 6.57l-.05-.09c1.19 1 1 2.5 1.6 3.7v-.08c2.36 4.39 2.57 9.34 3.65 14.06h-.09c.52.22.75.52.7.89s-.19.64-.32.64z" fill="#b3b0a8"/><path d="m411.55 90.41c-21.74 2.75-43.5.06-65.24.22-18 .13-15.66-2.73-15.77 15.39q-.23 36.17-.48 72.33a8 8 0 0 1 -5.05.88l-4-.59a3.88 3.88 0 0 0 -3.1-.38c-23.74-7.23-42.08-20.85-52.25-44.15-.46-2.49-2.12-4.5-2.77-6.91l-.6-3.68c-.43-1.25-.95-2.47-1.44-3.69q-.35-4.59-.67-9.17a60.56 60.56 0 0 1 0-14.92 39.74 39.74 0 0 1 4.4-21.35 21.81 21.81 0 0 1 1.32-3.71c9.28-19.71 24.27-33.3 44.41-41.37 3-.61 5.69-2 8.66-2.55l5.44-.75c1.63-.68 3.41-.74 5.09-1.22h14.71c1.67.48 3.45.53 5.07 1.2 3.39.93 7.12.28 10.25 2.32 1.3.31 2.57.71 3.87 1l10.41 5.09c3 4.79-.92 8.17-2.5 12-.89 2.15-2.52 4.59 0 6.24 3.15 2.05 4.61-.95 6.08-3 2-2.8 3.1-6.34 6.7-7.74 14 9.82 21.82 23.62 26 39.82.38 2.9 2.55 5.54 1.46 8.69z" fill="#feea04"/><path d="m1255 1227.33.15 3.06c-1.27.9-.71 2.86-2.12 3.68-14.77 29-29.67 58-44.28 87.13-12.29 24.47-24.25 49.09-36.36 73.65-6.47 5.39-8.72-.46-10.85-4.53-8.21-15.64-15.15-31.9-22.09-48.15a60.29 60.29 0 0 1 .06-20.8c1.84-11.47 3.71-22.92 4.73-34.51a63.84 63.84 0 0 1 7.39-24.9c5.5-10.23 13-19.26 17.56-30a11.39 11.39 0 0 1 7.67-6.66c17-1.7 34.09-.28 51.12-.09 4.91 0 9.76.38 14.67-.21 4.35-.56 8.74-1 12.35 2.33z" fill="#b3b0a8"/><path d="m216.6 1020.22c-16.86-6.2-34-11.65-50.51-18.78-21.05-9.13-30.71-25.77-30.9-49.09-.21-27.16 3.42-53.32 13.72-78.5a30.3 30.3 0 0 1 6.94-11c8.15-7.72 16.87-7.8 23.21 1.32 9.94 14.32 21.54 27.59 27.94 44.2a70.14 70.14 0 0 0 8.13 15.39c11 15.48 14.4 34.13 21.68 51.14.34.5.77 1.1.6 1.57-5.34 14.66-12.19 28.66-18.48 42.9-.35.76-1.44.88-2.33.85z" fill="#9f8ec0"/><path d="m216.6 1020.23 20.2-45.33c9.73-21.33 18.35-43.12 26.42-65.13 1.09-3 2.53-5.84 3.82-8.76 6.43 1.25 12.9 2.37 19.3 3.77 12.5 2.75 24.35-1.15 36.37-3.38 1.72 3.36.12 6.36-1.44 9.06-6.16 10.56-13.9 20.15-19.4 31.14a5.66 5.66 0 0 1 -4 3.1c-1.8 1.89-4 3.55-5.33 5.72-9.53 15.46-19.64 30.47-31.72 44.12-2.39 2.69-3.21 6.75-4.76 10.18-2.35 4.66-5.15 8.87-10.52 10.5-4.88 3.5-7 8.73-9 14.09-5.25 10.83-12.88 19.77-21.89 27.61-1.33 1.1-3.09 1.95-3.93 3.35-8.72 14.62-22.8 11-35.83 10.43a6.38 6.38 0 0 1 -6-5.43c-.65-3.82 2.14-4.82 4.71-6.26 9-5 17.93-10.2 26.89-15.32 6.33-7.12 12.34-14.52 16.11-23.46z" fill="#fdb173"/><path d="m1267.58 557.86c-.17-7.93 5-14.05 7.21-21.15 16.31-24 43.49-28.25 63.89-17.34 15.27 8.16 24.91 21 26.62 38.25 2.18 21.9-2.34 42.47-16.28 60.27-2 2.59-4.09 4.92-7.63 5.19-3.9-2.6-2.85-6.72-2.93-10.33-.65-28.94-21.57-49.91-50.72-50.68-4.65-.13-9.32.17-14-.28-2.67-.26-5.15-.97-6.16-3.93z" fill="#010101"/><path d="m1267.58 557.86c4.27 2.5 9 1.95 13.57 1.71 26.65-1.39 44.95 11.74 58.43 33.37 2.19 3.52 1 7.34 1.18 11 .34 6.37.43 12.75.62 19.12-6.69 10.27-6.8 21.79-6.4 33.42-7.4 3.53-15 2.28-22.61 1-5.15-3.25-3.56-8.9-4.37-13.49-1.17-6.58-3.82-11-10.29-13.78-10.29-4.36-19.87-9.94-23.16-21.91-12.15-15.45-9.4-32.97-6.97-50.44z" fill="#fdb173"/><path d="m1310.84 655.79 24.14.71c9.89 5.33 21.22 7.12 30.54 14.26 14.4 11 23.49 25.66 31.14 41.44 2.62 5.41 3.83 11.49 5.69 17.27-21.2-.55-37.57-12.46-54.24-23.39-14.17-9.28-23.45-24.16-37.44-33.72-6.44-4.4-12.83-9.07-21.09-9.48 3.65-6.34 10.96-8.78 21.26-7.09z" fill="#dac602"/><path d="m414 1405.53c20.09 3.57 38.66-3.46 57.55-8.27l-5.28 38.14c-33.62-5-67.34-7.93-101.41-7-12 .33-24.37-.2-36.12-5.84 23.64-8.69 46.14-20.14 72.2-16.75 4.25.55 8.68-.16 13.06-.28z" fill="#9f8ec0"/><path d="m1365.2 1435.41c10.94-3.79 21.61 1.26 32.45 1 2 6.11-.34 12-1 18-.5 4.83-4.36 7.06-8.94 8.26a145 145 0 0 1 -44.06 4.06c-2.69-.13-5.6-.46-6.14-3.69s.57-7.53 3.79-7.77c12.18-.9 18.23-8 21.57-18.75.21-.52 1.54-.75 2.33-1.11z" fill="#010101"/><path d="m1260.53 1435.66c10.09-1.81 20.24-4 29.11 3.72.75 14.81-2.48 19.1-16 22.29-11.72 2.77-23.58 2.17-35.42 1.87-4-.1-8.71-1.65-8.88-6.49-.17-5 4.56-5.24 8.33-5.49 5.21-.36 9.15-2.87 12.7-6.49 3.27-3.28 6.78-6.28 10.16-9.41z" fill="#010101"/><path d="m243.72 573.79c-9.43 12.42-18.23 24.29-27.34 35.91-3.67 4.67-8.88 3.6-12.55-2.07-7.82-12.13-7.19-24.07 1.79-33.51 8.7-9.14 21.24-10.52 33.46-3.63 1.23.7 2.33 1.65 4.64 3.3z" fill="#feea04"/><path d="m175.13 1313.29c3.72 10 7.85 19.81 8.6 30.63-3.67 7.8-3.13 16.88-7.85 24.43-1.87 3-3.59 5.71-8.42 8.07-1.65-17.86-10.06-33.69-9.21-51.42.39-8.07 6.19-11.88 16.88-11.71z" fill="#010101"/><path d="m1484.78 1212.53c17.14 15.35 15.32 34.07-2.84 42.41-7.31 3.35-14.16.94-21-1.42-2.67-.92-3.67-3.24-2-5.58 8.39-11.74 15.94-24.13 25.84-35.41z" fill="#feea04"/><path d="m466.8 1449.67c9.34 3.27 18.33.17 27.4-1.54 4.42 5.49 9.29 9.52 16.92 10.79 5.45.9 12.08 2.07 15.26 8.28-5.53 4.61-54.26 5.33-62.86.91 1.08-6.05 2.18-12.25 3.28-18.44z" fill="#010101"/><path d="m1141.41 1343c7.36 15.61 14.78 31.19 22.07 46.84 1.84 4 3.64 7.46 8.93 5 .93 3.71-3.37 5.51-3.28 8.91l-27.76-5.07c-2.61-2-2.89-5-2.95-7.85q-.43-20 0-40c.07-2.83.35-5.83 2.99-7.83z" fill="#fdfcfd"/><path d="m117.15 771.5 23.56 25.32c-7.34 6.93-17.72 8.58-23.94 4.14-7.32-5.21-7.38-14.23.38-29.46z" fill="#feea04"/><path d="m1438.06 606.44-24.79-21.29c7.27-9.16 18.91-10.87 26.5-4.08 6.69 5.93 5.99 17.58-1.71 25.37z" fill="#3d2179"/><path d="m1426.34 987.7c4.18-6.94 6.33-14.26 11.39-19.91 8.24 4.66 10.37 9.73 7.06 16.14-3.5 6.75-9.62 8.21-18.45 3.77z" fill="#feea04"/><g fill="#fdb173"><path d="m384.16 41.87c-2.33 3.94-4.49 8-7 11.79-1.76 2.62-4.26 4-7.28 1.52-2.47-2-3.58-4.29-1.53-7.46 2.63-4.08 5.57-8.1 5.54-13.31 4.44 1.04 7.43 4.15 10.27 7.46z"/><path d="m1231.88 1419.38c.3 3.72-2 5.38-3.75 7.09-2.16 2-3.44 5.91-7.33 5-2.17-.51-2.5-2.77-2.59-4.94-.19-4.36 2-6.79 5.7-8.69s5.81-.21 7.97 1.54z"/><path d="m260.22 95.74a22.65 22.65 0 0 1 0 14.92c-3.01-4.98-2.9-9.95 0-14.92z"/><path d="m319 26.76a8.7 8.7 0 0 1 -8.67 2.55c2.56-2.02 5.21-3.7 8.67-2.55z"/><path d="m411.55 90.41c-.31-2.94-3.12-5.47-1.38-8.72 2.44 2.11 2.57 5.15 3.2 8z"/><path d="m262.92 127.2c2.49 1.68 3.82 3.82 2.78 6.91-1.88-1.92-4.15-3.69-2.78-6.91z"/><path d="m325 179.23c1.43-1.72 3.28-1.07 5.05-.89-.12.66-.24 1.3-.37 1.95-1.68.19-3.43.71-4.68-1.06z"/><path d="m329.54 24.79c-1.25 2.27-3.09 2.1-5.09 1.23 1.28-2.14 2.91-2.84 5.09-1.23z"/><path d="m349.32 26c-2 .87-3.83 1.06-5.07-1.2 2.17-1.61 3.8-.98 5.07 1.2z"/><path d="m317.94 178.26c.41-.51.78-1.42 1.24-1.47 1.15-.13 1.78.69 1.86 1.85-1.13.65-2.23 1.11-3.1-.38z"/><path d="m260.88 119.83c1.73.74 2.41 1.9 1.44 3.69-1.6-.8-2.44-1.89-1.44-3.69z"/><path d="m265.94 70.68a2.6 2.6 0 0 1 -1.32 3.71c-1-1.75-.42-2.94 1.32-3.71z"/><path d="m363.44 29.32c-1.65 1-2.9.54-3.87-1 1.65-1.05 2.87-.43 3.87 1z"/></g><path d="m354.38 1269.28c.17 1.09.33 2.19.5 3.28l-3.39.2z" fill="#fdfcfd"/><path d="m1253.05 1234.07a3.79 3.79 0 0 1 2.12-3.68v3.74z" fill="#e1dceb"/><path d="m154.52 1071.41-1.92-1.58.79-.73c1.14.28 2 .76 1.3 2.14z" fill="#9f8ec0"/><path d="m152.6 1069.83-1.8-1.69.39-.4c1.59-.4 2.16.2 1.73 1.77z" fill="#9f8ec0"/><path d="m1151.43 220c6.51-1.69 12.56.66 19.42 2.07v9.56c-.16 69.38.14 138.76-.6 208.13q-1.05 99.24-.85 198.49a28.48 28.48 0 0 1 -.9 5.09c-14 5.72-28.56 7.18-43.45 5.61-10.12-1.06-20.38-1.7-30.35-3.3-18.13-2.91-34.62-10.17-45.86-25.81-3.92-5.46-7.67-11-12.69-15.53-12.86-11.58-20.46-27.6-33.29-39.25-2.51-2.27-4.29-5.68-2.11-9.47 1.79-1.73 4.52-1.59 6.35-3.24 1.62-2.64 1.55-5.59 1.55-8.47q.12-52.26 0-104.51c0-2.77.8-5.95-2.38-7.83-4.65-.93-9.33-.48-14-.48q-143.07 0-286.13 0c-5.24 0-10.5.28-15.71-.54-6.35-1.86-11.94-4.92-15.87-10.49-.16-.55-.48-1.28-.23-1.68 7.81-12.45 15.56-25 30-31 5-.66 9.92-.46 14.88-.46 63.6 0 127.2-.42 190.79.15 33.84.3 67.59-3.56 101.43-1.53a4.41 4.41 0 0 0 3.18-1.15c1.93-12.74.91-25.43.21-38.16a660.57 660.57 0 0 1 .07-80.83c1.31-3.42 4.47-4.38 7.49-5.33 16.65-5.24 32.47-12.59 48.63-19.06 25.99-10.38 52.3-19.05 80.42-20.98z" fill="#fe0060"/><path d="m1141.41 1343q0 27.82 0 55.65c-1.07 2.48 1.46 7.63-3.78 7-6.84-.88-2.15-7-3.7-10.39-3.14-3.66-2.46-8.14-2.56-12.41-.5-20.18 1.2-40.41-1.65-60.52.29-31 .51-62-4.38-92.76-1.1-16.47-4.45-32.11-16.52-44.51-9.47-11.16-23.13-15.1-35.84-20.56-14-6-27.46-12.6-35.29-26.71l.09.12c-1-.87-.57-2.51-1.75-3.29q-5.07-5.61-10.15-11.2c-8.52-4.79-11.58-13.31-14.29-21.78s-3.67-17.41-4-26.34a19.23 19.23 0 0 1 .72-4.12c2.44-10.81 9.86-15.68 20.21-17.88 10.72-2.28 21.49-2.26 32.23-1.57 11.51.75 17.49 9.66 23.37 18 11.72 16.61 15.33 36.4 21.16 55.31 1.28 4.17 2 8.54 3.73 12.57 2.78 6.29 8.06 8.42 14.33 7.38s7.44-6.47 6.65-11.55c-4.75-30.44-15.06-58-40.65-77.67-22.8-17.5-41.62-39.09-60.93-60.15-5-5.42-6.57-12.33-7.46-19.3-1.81-14.22-3.17-28.41 3.86-41.93 8.16-15.71 23.07-20.19 39.06-11.89 17.88 9.28 29 23.48 34.53 42.88 4.45 15.76 10.16 31.16 23.73 41.89 3.57 2 6.26 2.27 6.16-3.1-.16-6.25.09-12.49-.09-18.72-.48-8.23-5.49-14.39-9.58-21-6.28-14-18.69-22.93-28-34.4-16.93-20.82-29.84-44-34.86-70.69-2.27-12.13-1.31-24.41.93-36.54 6-21.7 18.41-40.11 30.85-58.31 12.62-18.46 26.13-36.38 42.27-52.06 6.54-6.35 13.39-13.69 23.39-10.09s13.2 13.16 15.09 22.88a11.37 11.37 0 0 0 .57 2.52 1090.78 1090.78 0 0 1 24.42 122.39c2.55 18.21-.75 36.5-3.69 54.59-2.16 10.38-5.6 20.34-9.08 30.35-4.51 12.94-4.76 26.64-4 40.28 2.52 7.6-.63 14.8-1.58 22.15-.48 3.74-1.56 7.39-2.09 11.13-.44 3.1-.22 6 3.49 6.88 3.53.82 5.4-1.36 6.58-4.3 1.73-4.31 3-8.8 4.55-13.17a76.72 76.72 0 0 1 23.93-33.69c10.6-8.68 21.06-6.85 28 4 3.49 2.06 3.3 8 8.58 8.15 1.9 11.3 7.43 22 5.42 34-1.54 9.18-2.45 18.46-3.64 27.69-2.86 17.35-11 32.25-24.73 42.65-16.41 12.39-30.11 27.43-44.7 41.59-6.54 6.35-7.72 15.12-7.08 23.77 3.86 1.45 6-.42 8.21-1.66 8.92-4.94 18.09-9.41 27.16-14.07 9.29-4.77 17.48-3.93 25.06 2.68 8.64 7.52 14 16.37 10 28.53a39.62 39.62 0 0 1 -10.71 16.78c-16 14.86-32.58 29.11-49 43.55a36.22 36.22 0 0 1 -8.08 5.13c-12.42 21.47-29.45 40.56-29.89 67.77-.36 16-6.33 31.73-4.58 48.07z" fill="#3b1f7a"/><path d="m1168.75 727.77c-2.26-4.67-4.28-9.47-6.81-14-7-12.58-16.26-13.88-26.53-3.72a374 374 0 0 0 -68 91.95c-3.51 6.67-7.36 13.18-9 20.67-2.31 10.38-8.77 18.92-12.63 28.6-6.57 16.47-13.3 32.88-19.91 49.33-6.49 16.19-17.45 29.42-30.3 41-3.87 3.49-8.32 6.37-13.67 7.45-31.73.59-63.46 1.79-95.15-.75-4.66-.37-9.31-.41-14-.41q-101.35 0-202.71 0c-4.93 0-9.92.45-14.75-1.11-11-9.13-12-29.39-2-39.93a14.84 14.84 0 0 1 6.83-1.29c19.86.84 39.57-2 59.43-2q135.21.35 270.43.06c4.93 0 9.91.6 14.76-.67 2.31-1.57 2.1-4 2.1-6.32 0-37.57.51-75.15-.28-112.69-1.67-3.93-5.25-2.53-8.15-2.81-3.9-.37-8 .45-11.54-2a5.92 5.92 0 0 1 -1-5.73c3.83-12.07 5-24.77 9-36.8 2.19-2.3 5.18-2.37 8-2.54 3.4-.2 4.5-1.92 4.16-5 1.14-33.07-1.92-66.06-1.8-99.09a101.29 101.29 0 0 1 .77-15.59 2.58 2.58 0 0 0 -1.55-3c-7.13-.82-14.36.57-21.44-1-7.77-3.16-13.25-9.27-18.71-15.2a79.69 79.69 0 0 0 -33.16-21.44c-6-2.08-13.3-3-16.17-10.33-.33-3.25-.36-6.39 2.75-8.52a16.38 16.38 0 0 1 7.6-1.51q33-.24 66 0c3.42 0 7.06-.08 9.52 3.11 3.13 11.06 14.42 15.74 19.68 25.17 9 16.15 24.13 27.27 34.74 42.38 7.89 11.22 22.67 17.42 36.37 19 14.89 1.71 29.9 4.78 45 4 10.67-.56 21.27-2.41 31.91-3.68q.08 42.21.21 84.41z" fill="#b72f66"/><path d="m412.89 605.06c0-13.7-.12-27.4-.09-41.09q.45-165.12.9-330.23a70.07 70.07 0 0 0 -.88-13.05c-.78-4.19.42-5.49 4.41-4.7 15.8 13.09 34 22.2 51.84 32.07 15.7 8.7 27.29 22.75 40.32 34.64 10.73 9.8 14.1 24.72 11.2 39.72a84.3 84.3 0 0 1 -14 33.63c-8.82 12.35-15.75 25.9-22.6 39.4-9.06 17.89-8.63 36.68-3 55.32 4.84 15.91 12.62 30.68 19.85 45.63a14.92 14.92 0 0 1 1.23 5.38c3 24.25-4.32 45.74-16.31 66.58-11.23 19.64-29.03 29.64-48.71 37.64-4.86 2-10.11 2.87-15 4.75-5.76 2.25-8.86.63-9.16-5.69z" fill="#fd0160"/><path d="m498.88 496.66c-13.66-26.6-28.33-53.15-23.24-84.6 2.44-15.09 11.85-27.66 19-41 8.35-15.49 20.66-28.92 23.4-47.33 2.69-18-1.07-33.43-16-44.89a120 120 0 0 1 -16.28-14.49c-8-8.78-17.65-15-28.18-20.29-14.8-7.37-30.05-14.2-40.32-28.11l126.49.45c7.92 2.69 16.19 4.07 24 7.23s13.64 7.68 17 15.22c3.05 6.82 8.33 12.65 9.07 20.51a9.91 9.91 0 0 1 -.94 2.86c-1.22 5.19-.93 10.45-1 15.7-.22 36.17.41 72.34-.31 108.49 0 4.62-2.17 8.29-5.1 11.7-21.41 24.92-42.66 50-64.29 74.71q-8 9.19-15.89 18.54c-1.95 2.44-3.55 5.5-7.41 5.3z" fill="#b72e66"/><path d="m412.89 605.06c3.74.05 1.41 3.73 2.82 5 16.13-3.59 30.82-10.28 45.06-18 8.71-4.75 14.53-12.43 19.91-20.4 14.23-21.1 22.54-43.88 19.12-69.84 2.52-1.26 4.73-.12 6.36 1.47 12.26 12 24.76 23.67 37.36 35.28a6.27 6.27 0 0 1 1.53 3.1c-1.6 28.5-3.3 57-6.51 85.36-2.16 19.18-11.68 35.1-23.76 49.77-8.15 9.91-16.42 19.72-24.09 30-10.17 6.24-21.53 10.07-31.77 16.4-12.71 7.85-25.19 15.76-36.15 26-3.25 3-6.74 7.25-11.76 2.27a30.55 30.55 0 0 1 -.49-15.68 26.41 26.41 0 0 1 7.65-11.43c10.65-9.69 12-21.91 10-35.05-1.54-10.33-5.47-20.08-7.85-30.22 2.64-10.74-2.86-19.14-8-27.64z" fill="#b72f66"/><path d="m1151.43 220c-13.24 5.08-27.47 6-41.09 9.79-24.43 6.87-47.21 17.66-70.75 26.62-7.3 2.78-14.5 5.85-22.31 7-2.08-.39-3.79-1.68-5.77-2.32-80.94-.13-161.86 0-242.79-.06-5.23 0-10.48.25-15.68-.54-27.25-9.28-55.13-16.76-82.1-27-12.17-4.6-22.66-13.39-36.25-14.49-1.2-.09-1.76-1.37-1.67-2.67 42.54.39 85.07 1 127.61 1.12q180.17.66 360.31 1.12c10.16.12 20.32.98 30.49 1.43z" fill="#b83067"/><path d="m633 216.42c24.78 4.91 45.56 20.68 70.24 25.87 16.4 3.45 31.66 10.29 47.27 16.06-8.21 5.19-17.7 3.29-26.36 3.56-40.68 1.25-81.4 2.35-122.08-.56-3.17-.22-6.41-.45-9.2-2.32-2.91-5.69-6.27-11.19-8.64-17.09-5.41-13.5-17.64-16.58-29.57-20.52-3.77-1.24-9.08.51-11-5z" fill="#fd0160"/><path d="m874 172.08c0-18.73.23-35.33-.12-51.92-.13-6.19 1.27-8.87 8.17-8.82 6.61.06 7.63 2.83 7.58 8.47-.21 24.81-.08 49.62-.11 74.43 0 2-.31 4-.5 6.16-9.3 2.29-16.12 1.39-21.61-7.77-9.14-15.24-19.62-29.69-29.62-44.41-1.58-2.33-2.52-5.31-6.32-6.77-1.61 7.56-.56 15-.73 22.34-.2 8.46 0 16.93 0 25.39 0 13.45-.19 13.6-14 11.22-2.21-2.41-1.29-5.47-1.29-8.26-.08-23.64-.14-47.29.06-70.93 0-3.3-2.35-8.64 3.35-9.33 5.47-.66 11.49-2.06 15.66 4.41 9.32 14.47 19.07 28.67 28.79 42.88 2.62 3.94 4.55 8.6 10.69 12.91z" fill="#462c82"/><path d="m706.47 156.45c0 27-19.42 46.59-46.08 46.65s-46.2-19.8-46.22-46.63 19.6-46.57 46.2-46.66 46.11 19.76 46.1 46.64z" fill="#462c82"/><path d="m912.16 111.69c16.15.28 31.58-1.79 46.72 2.41 19.83 5.5 31.31 21.7 30.94 43.28-.36 21.14-12.11 36.71-31.84 41.71a69.11 69.11 0 0 1 -14.66 2.09c-10.14.31-20.29.09-31.16.09z" fill="#462c82"/><path d="m586.67 164.55 18.91 34.94c-13.31 4.34-16.49 3.12-22.12-7.91-3.44-6.75-7-13.44-10.29-20.27-1.72-3.6-4.15-5-8.17-5.15-14.7-.64-14.7-.78-14.71 14.25v8.75c0 13.5-.84 14.13-15.09 10.91v-88.32c17 .33 33.85-2.19 50.43 1.77 9.6 2.29 15.58 9.19 17.18 19 1.69 10.26.11 19.86-8.57 26.95-2 1.61-4.24 2.89-7.57 5.08z" fill="#462c82"/><path d="m1001.54 173.55c7.64-1.22 13.37-1.89 17.23 7.1 4.16 9.68 24.24 11.07 31.75 3.34 5.31-5.46 3.63-13.85-4.17-17.08-6.15-2.54-12.86-3.73-19.33-5.48-17.21-4.65-23.8-12.48-22.78-27.09.91-13.11 12-22.83 27.69-24.38 17.63-1.73 31.06 6.3 34 20.43.76 3.61 2.58 8-3.2 9.05-4.19.77-8.28 1.55-10.7-4.34-4.39-10.67-16-14.28-26.17-9-3.93 2-6.35 5.11-6.21 9.73a8.84 8.84 0 0 0 6.29 8.64c7.75 2.55 15.7 4.48 23.47 7 14.39 4.56 19.51 11.66 19.41 26.39-.08 10.73-7 19.17-19.48 23-9.71 2.95-19.58 3.32-29.31 0-12.24-4.35-18.95-14.03-18.49-27.31z" fill="#462c82"/><path d="m737 111.71v37.32c0 7-.21 14 .53 21 1.27 11.81 8.78 18.28 20.47 18.51 12.15.23 20.33-6 21.6-18.24 1.08-10.4.51-21 .62-31.46.06-6.13.27-12.27-.06-18.38-.31-5.76.41-9.15 7.74-9.11 7.07 0 8.15 2.9 8 8.93-.37 15.45.25 30.94-.37 46.37-1.05 26-20.53 40.76-46 35.53-14.73-3-24.15-12.08-26.78-26.62-3.54-19.62-2-39.63-1.09-59.37.5-8.75 9.17-3.06 15.34-4.48z" fill="#462c82"/><path d="m1221.78 549.87c-9.19-11-9.75-22.33-2.33-31.58 7-8.71 18.51-10.27 29.74-4.45 4.36 2.26 6.08 4.65 2.11 8.42-9.6 9.15-19.36 18.13-29.52 27.61z" fill="#3d2179"/><path d="m652.37 908c-4.7 12.5-4.37 24.77 1.61 36.8-3.13 3.57-7.41 2.88-11.38 2.93-14.52.15-29-.09-43.56.15-3.54.06-7.77-1.16-10.11 3.13-.66 40.22-1 80.42.23 120.57 3.16 2.91 7.11 2.12 10.77 2.14 18.57.11 37.14 0 55.7.07 3.48 0 7-.17 10.34 1 4.93 2.7 2.13 6 .27 8.66a41.93 41.93 0 0 1 -12.69 11.83c-14.84 9.17-29.31 18.94-44.3 27.89-11.35 6.77-23.76 9-36.5 10.79s-25.44 2.91-37.83 6.36c-1.68.47-3.45.62-4.93-.74a454.61 454.61 0 0 0 -31.23-120.83c-4.76-11.58-9.64-22.79-18-32.23-4.82-6.26-6.38-13.82-7.13-21.26-1.45-14.21-2.26-28.54 1.57-42.6 9-33 16.07-66.24 17.2-100.6.27-8.41 3.49-16.5 6.39-24.47a26.19 26.19 0 0 1 3.17-4.77 10.14 10.14 0 0 1 2-1.86c14.1-9.68 27.95-19.73 41.77-29.82 18.84-13.75 40.71-19.26 62.71-24.72 4.77-.59 9.55-1.28 14 1.17 3.68 7.12.58 14.79 1.74 20.93 1-6.08-1.74-13.63 1.57-20.77 4.12-2.5 8.53-1.94 13-1.32 9.66 2.08 19.55 2.8 29.21 4.9 17.79 3.85 28.74 15.57 36.22 31.26 1.19 2.5 2.69 5.52-1 7.58-3.64 1.42-7.45 1.17-11.21 1.17-33.14-.06-66.28.21-99.42-.12-2.51 0-5.33-1-7 1.93-1.27 24.78-.28 49.55-.5 74.3-.13 14-.18 28 .1 41.94.13 1 .25 2 .43 2.92a11.41 11.41 0 0 0 1.69 2.38c17.55 2.07 35.15.36 52.7 1 4.19.11 8.68-.75 12.4 2.31z" fill="#fe0060"/><path d="m501.6 796.18c-6.25 15.58-7.76 32.06-8.63 48.55-1.08 20.68-5.2 40.66-11 60.52-7.08 24.47-11.2 49.3-2 74.36.78 2.11.5 4.61.72 6.93-29.69 1.46-59.41.46-89.15.46-18.06 0-36.15 1.1-54.2-.64 4.93-19.47 3.4-39.64 6.42-59.3a70.08 70.08 0 0 0 -.27-23.3c-.75-4.19-2.24-8.53.17-12.73 12-9.93 19.44-23 24.85-37.18 3.37-8.83 6.44-17.81 7.34-27.54 1.37-14.87 8.83-27.35 17.92-38.94 7.39-9.42 14-19.29 15.16-31.72 1.2-1.23 1.32-4 4.14-2.94 4.12.3 6-3 8.5-5.3 19.95-17.89 42.06-32.21 67.63-40.77 10.39 1.66 14.74 10.51 19.77 17.78 7.15 10.33 11.31 22.24 13.87 34.61.31 3.56-.12 7.05-2.61 9.72-6.75 7.19-11.36 15.87-16.89 23.91-1.1.91-.7 2.58-1.74 3.52z" fill="#3a1e79"/><path d="m972.58 1227.32-437.31-1.84q-.53-21.7-1-43.41c2.47-3.2 6.11-3.2 9.56-3.2 63-.1 125.89-.28 188.83.07a26.92 26.92 0 0 1 5.21.59c5.72 1.5 11.57 1 17.37 1q110 .07 220 .08c5.14 0 10.6-1 15 3-5.06 6.57-3.31 11.84 2.47 17.14 5.56 5.1 11.19 10.31 15.19 16.83 2.9 4.73 4.51 9.91 2.72 17.83-11.32-8.59-17.61-20.56-29.51-27.42-1.56 7.1-5.38 13.01-8.53 19.33z" fill="#e1dceb"/><path d="m737.41 1182.52-203.18-.45c-.94-9.92-1.86-19.85-2.83-29.77-.41-4.24-.93-8.47-1.41-12.71 14.48-5.48 29.88-6.57 45-8.37 14.21-1.7 26.95-5.82 38.84-13.52 13.86-9 28.09-17.37 41.77-26.59a34.24 34.24 0 0 0 12.4-14.32c2.28-2.85 5.59-3 8.75-3 30.23-.18 60.46-.25 90.69 0a16.5 16.5 0 0 1 5.12.85c4.47 1.78 3.16 5.22 1.68 7.92-13 23.79-17.77 50.11-24.19 76-2.2 8.8-4.15 18.25-12.64 23.96z" fill="#b72e66"/><path d="m454.2 1225.47-71.34-.14c12.35-25.33 19.35-52.29 24.32-79.88 5.66-.91 5.57 3.85 7 7.09 1.19 8.31-.28 16.75.81 25.09 5 3 10.56.5 15.43 2.45 10.38 13.85 21.47 27.32 23.78 45.39z" fill="#e1dceb"/><path d="m301.49 1129.13c-7 5.15-10.8 12.71-14.71 20.12-1.6 3-.28 6.16.67 9.29a230.19 230.19 0 0 1 7.62 31.65c-3.83-12-13.67-17-23.75-19.94-17.34-5.13-33.79-12.26-50.24-19.5-6.62-2.91-13.81-5.54-17.55-15.35 26.65 17.22 54.06 27.6 83 34.83 2.09-2-.11-4.23-.74-6.08a442.75 442.75 0 0 1 -14.14-51.15c-3.54-16.52-13.31-24.3-30.19-26.2-4.84-.54-10.2-.47-14.43-4.71 12.41-1.11 24.63-.66 37.65 5 .32-15.59-5.59-28.76-10.33-44.52 6.6 6.2 9.52 3.31 12.27-1.62 3.18-5.68 6.94-11 11.52-18.21.21 6.84-1.19 11.72-3.67 15-12.16 16-8.65 33.93-5.2 50.79s6.1 34.14 13.2 51.46c8.4-5.09 15.71-10.48 17.88-20.7 2.3 3.07 1.31 6.5 1.14 9.84z" fill="#ad9dc6"/><path d="m454.2 1225.47c-5.7-15.5-16-28.54-23.05-43.33-9.57-8.25-13.83-19.8-19.1-30.73-1.3-2.25-1.95-5-4.87-6-15.86-23.61-25.19-49.7-31.25-79.34 7.17 5.21 7.91 11.31 9.39 16.65 6.68 24 19.18 44.7 33.51 65 17.71 25 35.47 50.45 43.73 80.73 2 7.18 7 13.61 5.63 21.66-5.48-7.75-7.89-17.25-13.99-24.64z" fill="#dac602"/><path d="m332 990.9c-3.38-2.68-2-6.45-2-9.77-.15-27.35-.15-54.71-.19-82.06l13.89-8c5.2 17.39 3.75 34.79.58 52.33-1.8 10 .77 20.24-1.81 30.37a42.82 42.82 0 0 1 -5.09 12.63z" fill="#e1dceb"/><path d="m473.35 1267.69a31.49 31.49 0 0 1 -3.64-14.06c3.96 3.97 4.14 8.93 3.64 14.06z" fill="#dac602"/><path d="m376.38 1063c-1.12-1-.89-1.82-.14-2.76 1.13.96.89 1.83.14 2.76z" fill="#dac602"/><path d="m300.18 1092.38c-.1-1.76-.35-3.57 1.48-4.73-.05 1.72.97 3.77-1.48 4.73z" fill="#9f8ec0"/><path d="m469.74 1253.71c-1.73-.72-1.55-2.26-1.6-3.7 1.7.73 1.86 2.11 1.6 3.7z" fill="#dac602"/><path d="m473.68 1269.17a2.77 2.77 0 0 1 -.41-1.51l1 .94z" fill="#dac602"/><path d="m1239.28 968.4c-13-10.46-19.54-10.08-31.37 2-9.91 10.09-17.46 21.61-21 35.52-.71 2.8-1.54 5.58-2.43 8.33-1.69 5.21-5.79 5.15-9.91 4-3.77-1.05-5.53-3.3-4.58-7.84 2.41-11.61 4.25-23.33 6.32-35a294.39 294.39 0 0 0 40.18-40.7 8.68 8.68 0 0 1 1.75-1.83l-.09.09c1.06-.82.44-3 2.42-3.06h-.14c-.17-1.25.59-1.77 1.62-2.09l-.09.15c.94-1.87 1.23-4.3 4-4.67l.38-.28c2.8-6.63 6-13 11.19-18.16v.06c2.53-1.4.13-6.56 4.81-6.32-2.94 23.17.19 46.62-3.06 69.8z" fill="#e1dceb"/><path d="m1242.3 898.58c-1.68 2-2 5.14-4.81 6.32a9.24 9.24 0 0 1 1.92-7.44c10.86-13.1 17.77-28.59 26.55-43 12.71-20.8 18.32-43.88 22-67.36a299 299 0 0 0 3.72-56.39c7.4 16.43 8.47 70.51 1.42 91.77-9.91 29.97-30.2 53.19-50.8 76.1z" fill="#dac602"/><path d="m1237.54 904.84c-3 6.5-5.56 13.29-11.2 18.15.32-8.15 3.91-14.29 11.2-18.15z" fill="#dac602"/><path d="m1226 923.28c-.57 2.19-2.15 3.53-4 4.67-.17-2.83.11-5.26 4-4.67z" fill="#dac602"/><path d="m1220.62 929.88a3.26 3.26 0 0 1 -2.42 3.06c.08-1.6.22-3.14 2.42-3.06z" fill="#dac602"/><path d="m1218.29 932.85-1.75 1.83z" fill="#dac602"/><path d="m1222.1 927.8-1.62 2.08a1.71 1.71 0 0 1 1.62-2.08z" fill="#dac602"/><path d="m737.41 1182.52c11.17-16.64 12.85-36.42 17.69-55.07 4.62-17.81 10.71-34.86 19.78-50.85 3.24-3.34 7.5-2.82 11.52-2.9q104.58-2.33 209.19-1.77c4.9 0 10-.7 14.22 2.92.72 17.72 4.33 34.48 16 48.56-12 9.74-19.53 22.66-24.82 36.82-3 8.1-9.54 14.49-10.78 23.34q-122.57 0-245.14-.13c-2.55-.01-5.24.56-7.66-.92z" fill="#fe0060"/><path d="m894.63 1407.47c-14.7 3-29.38 6-44.09 8.86-26.22 5.11-52.52 3.92-79 2.14-35.93-2.41-71.23-8.8-106.76-14-19.75-2.88-39.16 2.25-58.51 6.82-26 6.13-52.3 10.92-79.3 8.64-2.64-.22-5.22-.32-7.57-1.7-5-3-5.13-7 0-9.81 7.38-4.12 16-4.23 23.75-4 27 .91 50.47-10.3 74.52-19.49 15.35-5.87 31.23-7.88 46.36-3.15 28.59 8.94 57.94 14.57 86.94 21.5a153.29 153.29 0 0 0 43.18 4.31c10.24-.53 20.25 2.87 30.22 2.82 19.19-.1 38.75 1.69 57.37-5.4 4.16-1.59 8.39-1.25 12.48-.1z" fill="#ad9dc6"/><path d="m1089.71 1229.05-6.35-1.86c-3.75-3.56-8-6.73-11.11-10.8-3.5-4.63-6.49-4.09-9.87-.6-4.2 4.33-8.18 8.87-12.25 13.31-2.37-.44-5.74.55-5.45-3.76s3.42-7.1 5.88-10.32c7.1-9.27 10.7-19.6 8.32-31.44a7.41 7.41 0 0 1 4.51-2.41 264.45 264.45 0 0 1 41.46.14c1.68.15 3.25 1.17 4.75 2 13.3 11.63 16.5 27.29 17.42 43.85-12.22 5.11-24.81 2.44-37.31 1.89z" fill="#e1dceb"/><path d="m1011.44 1197.39c4-.26 6.52 5.72 11.7 2.2-1.54-9.3-3.14-18.88-4.73-28.45h.05a52.35 52.35 0 0 1 6.59 28.2c-1.14 23 2.89 45.55 2.19 68.5 25.27-5.9 27-7.75 30.58-31.7 3.39 19.7 2 22.92-15.23 31.5-11.64 5.82-17.75 13.75-17.64 28 .09 12-1.16 24.31-2 37.23-.86-13.16-9.65-16.3-20.1-17-15.31-1-21.73-12.39-28.22-23.76 3.35.08 5.11 2.36 6.78 4.84 8.29 12.27 20.21 16.62 34.55 16.26 4.63-.11 6.24-1.9 6-6.29-.6-9.94 2-19.55 3-29.31 1.36-12.82-2.13-22.56-17.92-22.27-6.11.11-10.36-2.49-13.62-7.73a106.28 106.28 0 0 1 -9.67-19.13c20 22.43 14 20.27 41.7 24.49-3.74-13.79.76-27.81-3.88-41.07-1.91-5.48-10.11-7.15-10.14-14.38z" fill="#ad9dc6"/><path d="m1109.6 1183.36-50.72.22c-4.35-13-7.55-26.57-18.79-36.16-2.48-2.12-3.43-6-2.44-9.64 14.58 16.6 34.32 24.49 54.13 32.43 6.92 2.79 13.46 6.62 17.82 13.15z" fill="#fd0160"/><path d="m1075.49 1286.28c1.73 9.55.71 16.44-7.45 20.51-1.93 1-3.82 1.38-5.69.11s-2.63-3.82-1.65-5.35c3.65-5.76 6.8-12.24 14.79-15.27z" fill="#fdfcfd"/><path d="m1025.65 1133.83c2.79 6.89 1.77 12.17-2 17.11-2 2.64-4.75 3.66-7.69 2.2-3.65-1.8-3.6-5.45-2.12-8.35a22 22 0 0 1 11.81-10.96z" fill="#fd0160"/><path d="m1070.26 1242.76c-1.65-6.18-4.57-11.77-1.07-18.35 6.53 2.42 11.26 5.32 10.58 13-.53 6.12-4.56 5.77-9.51 5.35z" fill="#fdfcfd"/><path d="m979 1238.26c8.24 4.92 9.7 9.31 5.43 14.76-2.34 3-4.78 2.65-7.35.23-4.03-3.76-3.33-9.65 1.92-14.99z" fill="#fdfcfd"/><path d="m1044.68 1225.34 5.45 3.76c-2.44 3.43-4.87 6.87-9.63 8.6-1.86-5.7-1.38-9.89 4.18-12.36z" fill="#fdfcfd"/><path d="m1011.41 1197.42c-4.16-.52-6.48-2.88-7-7 4.16.51 6.49 2.86 7 7z" fill="#ad9dc6"/><path d="m1018.41 1171.14c-1.8-1.46-2.26-3.18-1-5.42 1.86 1.61.63 3.66 1 5.38z" fill="#ad9dc6"/><path d="m974.62 1292c-2-1.41-1.79-3.26-1.36-5.72 2.21 1.92 1 4 1.39 5.7z" fill="#ad9dc6"/><path d="m1036 1134.61a3.15 3.15 0 0 1 1.75 3.29c-2.12-.29-1.42-2.07-1.75-3.29z" fill="#fd0160"/><path d="m1004.41 1190.4-.73-.41.74.4z" fill="#ad9dc6"/><path d="m396.08 640.2c-2.23 11.8-8.52 19.11-10.75 28.15-1.84 7.45-3.41 14.71-2.84 22.3.95 12.7 2.54 25.37 3.2 38.08.81 15.75-3.92 29.65-14.82 41.47-7.05 7.65-14.44 15.09-18.63 25s-3.82 20.52-6.77 30.45c-6.28 21.15-15.72 40.11-39 47.55-16 5.12-31.25-5.69-32.77-22.51-1.68-18.55 6.82-32.21 19.06-44.74 12.41-12.69 26-24.28 36.81-38.47 11-14.35 18.82-29.74 19.71-48.38 1.18-24.71 12.95-44.8 29.63-62.3 4.94-5.12 10.24-9.91 17.17-16.6z" fill="#29282a"/><path d="m420.31 659.07c10.53 12.52 14.13 46.13 6.1 59.43-3.72 6.17-10.71 9.69-13.93 16.37-1.68 1.25-2.06 4.39-5.17 3.54-1-4.8-1.75-9.63-2.91-14.38-2.74-11.16-2.82-21.62 2.89-32.42 5.42-10.27 8.76-21.61 13.02-32.54z" fill="#fdb173"/><path d="m407.31 738.41 5.17-3.54q.3 8.94.59 17.87l-4.14 2.94c-.26-5.78-3.03-11.33-1.62-17.27z" fill="#e1dceb"/><path d="m1175.77 1227.14c13.55-12.24 27.15-24.44 40.65-36.74 8.53-7.78 17.93-14.55 23.69-25.21 9.57-17.72-6.29-33.62-18.72-35.8-8.71-1.52-16 4.57-23.05 8.55-6.79 3.82-14.48 6.09-20.43 11.43-2.27 2-4.87 1.11-7.77.14.38-13.78 3.92-24.85 14.91-35.16 13.57-12.72 27-25.5 41.34-37.36 12.12-10 17.31-24.76 23.25-38.8.31 3.13 1.8 5.91 1.86 9.24q1.66 87.77 3.66 175.53c0 1.45-.09 2.91-.14 4.36z" fill="#e1dceb"/><path d="m153.63 1055.39 2.68-.2c2.49.27 5.8-.15 5.35 3.77-.57 5-1.3 10.1-7 12.28l-1.77-1.73-1.73-1.77c-.03-4.29-.89-8.74 2.47-12.35z" fill="#fdb173"/><path d="m205.14 1075.23 15.14 5.52c-.28.92-.55 1.85-.82 2.78-5.16-1.8-10.76-2.05-14.32-8.3z" fill="#ad9dc6"/><path d="m253.93 1037.75c-3.31-1.54-4.2-3.21-3.72-6.18 3.21.58 3.46 2.74 3.72 6.18z" fill="#ad9dc6"/><path d="m184.84 1119.53c3-.47 4 .49 4.23 2.48-2.4.28-2.4.28-4.23-2.48z" fill="#ad9dc6"/><path d="m297.88 1196.32c.48.22 1.23.32 1.37.68s-.34.93-.56 1.41c-.48-.21-1.23-.32-1.37-.66s.34-.94.56-1.43z" fill="#ad9dc6"/><path d="m279.52 1019.8c-.49-.21-1.24-.31-1.38-.66s.34-.94.55-1.43c.48.21 1.24.32 1.37.66s-.34.94-.54 1.43z" fill="#ad9dc6"/><path d="m195.42 1130.18c-.48-.21-1.23-.31-1.37-.66s.33-.94.54-1.42c.48.21 1.24.31 1.37.66s-.33.94-.54 1.42z" fill="#ad9dc6"/><path d="m543.33 540.31c-13.25-10-24.72-21.95-36.39-33.67-2.08-2.08-4.25-4-7.14-4.83-.31-1.71-.61-3.43-.92-5.15q35.76-41.54 71.48-83.08c6.58-7.67 14.13-14.54 19.24-23.42 4.18-9.17 12.53-15 18.38-22.87 2.57-3.44 5.61-6.6 8.19-10.09 22.12-26 44.93-51.47 66.32-78.12a25.48 25.48 0 0 1 2.38-2.9c9.65-9.34 9.65-9.34 22.09-.11 1 .77 1.92 1.61 2.86 2.45 14.82 11.65 28.7 24.41 43.09 36.57 7.58 6.4 7.55 9.73.88 17.22-10 11.25-19.58 22.92-30.13 33.7-7.6 7.7-13.17 17.37-22.54 23.38-9.46 9.41-18.58 19.12-26.37 30-.51 3.88-4 5.65-6 8.46-4.85 7.09-11.42 12.63-17 19.06-11.56 14.63-24.25 28.25-36.91 41.9-10.16 10.95-19.51 22.6-29.66 33.54-6.52 8.55-14.52 15.8-21 24.34-1.39 1.81-3 3.69-5.79 3-5.56-6-5.08-13.29-4.11-20.49 1-7-1.86-11-9.15-13.28-.72 8.44 3.76 16.93-1.8 24.39z" fill="#3d2179"/><path d="m1000.78 556.51h-84c-4.69 3.21-9.84 3.91-15.33 2.85-21.85-1.92-43.74-.57-65.6-.65-23.64-.09-47.28.14-70.92.17a91.63 91.63 0 0 0 -13.93 1.12c-12.65 1-25.27 1-37.81-1.29-25.06.39-50.12-.26-75.17.32-14.52.34-29 3-43.52-.09a37.11 37.11 0 0 1 -5.11-1.07c-3.65-1.89-3.76-4.73-.61-6.62 9.14-5.49 16.91-13.23 27.27-16.74 26.17-1.07 52.35-.4 78.52-.44 29.08-.05 58.17-.39 87.25.19 67.26-.31 134.52-.58 201.76.1 10.47 4.58 19.86 10.42 24.32 21.75z" fill="#d7d3d2"/><path d="m701.12 389.39a207.64 207.64 0 0 1 21.47-24.24c4.63-3.31 10-2.81 15.19-2.81 59.47 0 118.93.1 178.39-.08 19.51-.06 39-2.62 58.51-1.7 7.39.35 9.52-3.35 9.45-10.14-.18-18.36-.1-36.73 0-55.09 0-4.35-.4-8.77 1.42-12.92 1.89-2.75 3.37-1.47 4.39.66 1.57 3.25 1.27 6.83 1.28 10.32 0 19.82.22 39.65-.08 59.47-.13 8.05 2.78 13.85 9.09 18.68s13.73 9 17.86 16.43c-5.72 2.69-11.43-.25-17.17-.18q-108.4 1.21-216.77 1.77c-27.67.16-55.35-.1-83.03-.17z" fill="#d6d0d1"/><path d="m650.31 445.85 17.59-19.18c6.57-1.85 13-.84 19.28 1.19q74.31.18 148.62.34 80.43.09 160.88 0c4.32 0 8.64.08 13 .12.32 1.16.52 2.71-.25 3.34-8.25 6.8-14.09 17-25.95 18.84-87.58-.58-175.14.17-262.7-.36-20.08.34-40.15.23-60.23 0-3.77 0-8.55 1.1-10.24-4.29z" fill="#d7d3d2"/><path d="m1018.06 388c-8.57-4.73-15.32-11.87-23.2-17.53-4.85-3.48-6.41-8.18-6.32-14.26.34-22 .18-44.08.08-66.12 0-3.06 1.07-6.43-1.54-9.11a3.18 3.18 0 0 1 -1-2.24c4.14-7.58 12.49-9.6 18.9-14.16 3-2.13 6.63-3.39 10-4.94 1.78.68 2 2.3 2.29 3.85-.87 28.44-1.43 56.86.67 85.31.98 12.97.14 26.1.12 39.2z" fill="#f2f0ec"/><path d="m986.82 449.28c7.27-7.34 16.24-12.84 22.82-20.94 3.3 2 1.7 5.24 1.71 7.85.1 37.33.13 74.66-.12 112 0 2.61 3 7.57-3.31 7.94-5.88-7.92-14.25-13.07-21.55-19.4-1.82-2.4-2.11-5.17-2-8.05-.6-22.33-.25-44.66-.26-67 .03-4.27-.68-8.82 2.71-12.4z" fill="#f2f0ec"/><path d="m687.18 427.86c-6.44-.24-13 1.82-19.28-1.19a20.86 20.86 0 0 1 6.85-7.28z" fill="#b83067"/><path d="m985.25 946.38c20.66-14 33.94-33.36 42.65-56.58 8.63-23 17.18-46.17 30.49-67.11-3.32 19.57-2.75 38.85 5.41 57.25 9.94 22.41 20.54 44.4 40 60.61 7.48 6.21 12.53 14.51 16.65 23.29 3.76 12.64 4.39 25.58 3.69 38.64-.14 2.63-.3 5.23-2.61 7-12.46-8.22-17.54-21.32-22.56-34.39-2.18-5.69-3.9-11.55-5.74-17.36-5.65-17.83-18.94-28.28-35.16-35.35-17.09-7.46-34.63 5.84-36 27.19-.67 10.74-.57 21.57 1.73 32.18a26 26 0 0 0 6.12 12.37c19.69 21.49 39.13 43.17 62.31 61.14 15.31 11.87 26.44 27 31.45 46 2.94 11.14 9.37 21.28 8.85 33.45-.27 6.52-1.56 12.1-8.86 12.76-7 .64-14.29.09-16.87-8.67-3.18-10.85-6.42-21.68-9.52-32.55a153.91 153.91 0 0 0 -8.78-24.54c-16.2-34-31.82-31.88-67.26-24-6.45 1.43-9.54 7.21-11.18 13.43l-1.29-1c-3.44-9.63-2-19.51-1.19-29.28 2.16-28.16.64-56.34.86-84.5 0-2.27-.19-4.71-2.38-6.24-6.69-2.33-14.7 2.12-20.81-3.74z" fill="#fd0160"/><path d="m1009.81 1074.85c-77.16-.71-154.31.51-231.47 1.37a31.54 31.54 0 0 0 -3.46.38l-106.89.19c-24.46-.09-48.91-.11-73.37-.36-2.89 0-6.39 1.65-8.72-1.71 7.59-10.89 18.2-17.53 30.58-21.73 22-.44 43.9-.41 65.85-.08 36.09-.51 72.17-.29 108.25-.15 58.8-.23 117.59-.07 176.39-.11a146.43 146.43 0 0 1 14.82.33c11 3.25 19.34 10.65 27.73 18l.61.25c-.13 1.19-.21 2.41-.32 3.62z" fill="#d7d3d2"/><path d="m1146.32 894.29q-3.75-24-7.5-48c-2.29-14.58-7.42-28.6-8.45-43.45-.17-2.43-1.89-4.79-3-7.12-1-2.08-3-4-3.21-6.1-.41-4.29-3.15-10.58 3-12 5.66-1.3 5.09 5.41 7.24 8.83 3.82 6.06-1.69 10.83-.88 16.56 2.84 20.11 8.5 39.62 11.92 59.6 2.87 16.81 9.37 33.25 8.81 50.32-.49 14.82-.46 29.64-.89 44.46 9.2-7.46 11.27-18.88 16.29-28.8-3.69 13.67-2.3 29-13.34 40.07-4.77 4.76-5.76 10.32-4.51 16 2.59 11.88 1.08 23.82 1.55 35.72.8 20.1 1.55 40.2 2.38 61.84 16.06-10.78 32-19.43 45.57-31.69 14.45-13 12.93-33.77 23.33-48.73 3 1.12 2.24 3 1.42 4.41-4.09 6.85-6.06 14.4-7.87 22-5.21 22-21.18 35.47-38.19 48-6.3 4.64-13.13 8.57-19.84 12.61-3.65 2.19-5.18 5.07-5.1 9.34.53 26.68-3.8 53.11-4.06 79.83-.13 14.23.26 28.7-2 43 3.83.15 4.24-2.59 5.23-4.5 2.92-5.6 7.1-11 12.44-13.15 16.2-6.4 15.37-19.29 14.32-32.68-.1-1.33-1.33-2.65.47-4.17 5.78 6.94-.62 18 8.42 24.07-14 18.8-43.49 26-41.46 56.83-5.48-8.42-4.25-16.76-3.34-24.6.68-5.79.11-11.81 1.53-17.27 2.75-10.55-3.66-15.63-10.64-20.32-8.2-5.51-16.69-10.66-25.37-15.37-17.42-9.45-29.25-23.57-36.58-41.77a191.11 191.11 0 0 0 -14.15-29c5.54 2.11 6.12 5.8 7.45 8.51 7.55 15.5 16.19 30.24 28 43a65.6 65.6 0 0 0 24.47 16.41c10.1 4 17.47 11.26 25.56 19.47 2-6.86 2.07-13.3 2.46-19.22 2.06-31 4.85-62.08 3.93-93.27-.2-6.91-2.39-12.14-8.66-15.84-9-5.3-17.78-10.88-27.16-15.63-20.68-10.48-31.78-28.55-37-50.6 6.52 8 9.64 18 16.23 26.08 6 7.37 12.45 13.32 21.67 16.81 11.34 4.28 22.15 10 31.7 19.3 2.13-5.3 1.53-9.64 1.18-13.82-2-23.7-5-47.26-1.86-71.21 1.6-12.36-1.54-25.43.75-37.56 4.2-22.26-7.4-35.14-23.65-45.6-14.88-9.57-23.46-23.59-30.95-38.77-3.93-8-10.22-14.94-10.61-27.26 6.7 12.37 13 22.16 17.45 32.75 4.89 11.73 14.07 18.87 23.52 26 7.16 5.42 14.71 10.34 22.09 15.49z" fill="#4f3687"/><path d="m1089.71 1229.05c8.8-3.66 18-1 27-1.73 3.42-.27 6.87-.09 10.3-.11 2.83 15.11 5.09 30.3 5.28 45.69.21 16.29.08 32.58.1 48.88-9.42-16.12-16-33.6-24-50.38-6.65-13.91-12.48-28.22-18.68-42.35z" fill="#b3b0a8"/><path d="m1013.46 1087.22c1.62-10.11 2.5-20 13-25.32 6-3.06 10.64-2 14.66 2.59s1.4 8.4-2.37 11.92-4.23 8.1-4.56 12.81c-.42 6.13.93 14.43-7.54 15-8.2.55-11.41-6.46-12.41-14a20.6 20.6 0 0 0 -.78-3z" fill="#fd0160"/><path d="m1200.33 1010.27c-6.92-6.66-1.53-13.57-.66-19.66 1.35-9.4 9.15-15.25 16.23-20.68 5.09-3.89 15.29-.11 17.49 5.83 1.29 3.49 1.29 8.21-2.59 9-13.25 2.83-21.92 10.37-27 22.68-.42 1.15-2.08 1.76-3.47 2.83z" fill="#e1dceb"/><path d="m1118.43 744.86c6.81 3.83 8 9.4 6.27 15.11-2 6.79-5.64 13-14 13.34-5.64.2-6.69-4.14-6.06-8.36.68-4.59 2.55-9.28 6.9-11.55 3.37-1.78 4.79-4.66 6.89-8.54z" fill="#b72e66"/><path d="m1121.58 1009.52c1.91-15.28-2.06-30.42-1.08-45.67 4.45 6 9.19 11.88 9.93 19.76-1.76 7.58-4 15.15-.06 22.74-.22 8.57-4.64 5.51-8.79 3.17z" fill="#b83067"/><path d="m1205.17 1158.72c1.17 12-5.05 20.32-13.44 27.56 2.37-10.28 11.89-16.91 13.44-27.56z" fill="#4f3687"/><path d="m1130.37 1006.35c-4.5-1-7-3.88-4.71-8.08 2.52-4.69-2-11.54 4.77-14.65z" fill="#fdb173"/><path d="m916.82 564.89c4.4 2.17 8.6 5.08 13.24 6.36 15.47 4.29 27.67 13.16 38.23 24.93 4 4.5 9 8.22 13.47 12.3-3.16 3.48-7.45 3-11.45 3q-109.95.13-219.88 0a24.46 24.46 0 0 1 -8.63-1.09c-6-4-2.18-8.35.09-12 6.44-10.29 17-15.72 27.11-21.46 18.07-10.22 38.13-15 58.21-17.85 17.71-2.49 35.93-1.14 53.92-2 6.89-.32 14-1.32 20.8 1.16 5.07 1.93 11.07 1.94 14.89 6.65z" fill="#fe0060"/><path d="m985.25 946.38 22.65.86c-5.36 11.1-13 19.7-25.4 23.08-12.81.39-25.61.36-38.42.14-84.46.61-168.91.11-253.36.28-7.28 0-14.56 0-21.83-.27-18.32-.45-36.7 1.66-55-1.32-9.74-6.24-19.89-12-28-20.53 1.37-4.91 5.44-3.43 8.65-3.46 19.79-.2 39.58-.24 59.37-.34 53.91.19 107.82.28 161.73.6 51.57.3 103.13.85 154.7 1.25 5.02.04 9.97-.19 14.91-.29z" fill="#d7d3d2"/><path d="m622.47 738.5-15.77-.17c-6.83.85-13.69 4.1-20.49-.14-2-2.38-.88-4.54 1-6 8.91-6.71 16.71-15.08 27.66-18.84 21.84-1.34 43.69-.48 65.53-.57 22.72-.1 45.44-.36 68.16.18a135.48 135.48 0 0 1 14-.24c68.06.13 136.09-3 204.16-1.76 4.94.09 9.9-.23 14.8.5 11.23 3.58 17.91 13.47 27.23 19.73 1.14 3.27 1.4 5.67-3.48 5.07-3.1-.38-6.3 0-9.45.07-4.39 4-9.85 3.07-15 3.06-66.79-.07-133.57.32-200.35-.16q-68.3.48-136.58-.06c-1.46 0-2.93.1-4.06-1.1l-13.82.34a2.57 2.57 0 0 1 -3.54.09z" fill="#d6d0d1"/><path d="m780.06 736.87 215.74-.5c-.66 14.51-5.21 28.2-8.95 42.06-2.33 2.8-5.64 2.93-8.82 2.93-53.71.06-107.41.46-161.12-.19a12.34 12.34 0 0 1 -1.71-.24c-4.87-.81-7.33-4.55-9.46-8.38-6.53-11.79-13.3-23.36-24.24-31.78a3.82 3.82 0 0 1 -1.44-3.9z" fill="#fe0060"/><path d="m652.37 908c-20 0-40 .11-60.06-.21-3 0-7.11 2.39-9.18-2.22a77.45 77.45 0 0 1 29.49-20.57c16.88-.83 33.77-.41 50.65-.33 103.3-.49 206.59-.12 309.88-.2a60.08 60.08 0 0 1 7 .3c10.8 1.9 17.65 10.36 26.18 16 1.74 1.16 1.93 3.44 1.63 5.54-62.19.12-124.38.1-186.57.39-56.39.3-112.69.87-169.02 1.3z" fill="#d6d0d1"/><path d="m811.67 778.34 175.18.09c7.4 1.72 15.28-1.94 22.48 2-8.34 8.24-15.53 18-27.81 21.1a28.43 28.43 0 0 1 -3.06-.22c-15.73-1.29-31.46-.48-47.17-.57-36.39-.2-72.79.15-109.18-.17-38.87.2-77.73.41-116.59-.08-30.94.06-61.89.5-92.82-.13-10.93-5.25-20.65-12.39-30.11-19.91.48-3 2.08-3.17 4.95-3 39.05 2.09 78.13 1.13 117.2.86 3.42-2.94 7.62-2.46 11.63-2.47 27.56-.08 55.11 0 82.67-.05 4.41-.01 8.69.36 12.63 2.55z" fill="#d7d3d2"/><path d="m739.68 608.41q101 .15 201.89.28c13.39 0 26.79-.14 40.19-.21l26.16.25a1.84 1.84 0 0 1 .14 2.47c-4.92 5.95-11.23 10.44-16.72 15.81-2.63 2.57-6.1 2.88-9.65 2.51-5.55-.53-11.1-.47-16.64-.47h-228.49c-3.5 0-7 .08-10.49-.24-37.09.1-74.18.85-111.25-.35-11.78-4.77-23.17-10.27-32.75-18.92 2.38-4 6.43-3.46 10-3.48 16.44-.11 32.89-.32 49.33.07 5.55-.25 11.09-.23 16.63 0 24.19-.56 48.37-.2 72.54-.19 3.26.06 6.51.13 9.11 2.47z" fill="#d7d3d2"/><path d="m983.1 799.77c8-2.76 12.34-10.29 19.13-14.65 2.38-1.53 3.74-4.6 7.1-4.67q.18 61.21.34 122.42c0 1.4.18 3-1.73 3.45-6.82-8.26-16-13.43-24.83-19.1-2.27-2.64-2.48-5.87-2.48-9.09 0-23.36-.45-46.72.28-70.08.09-2.92.09-5.88 2.19-8.28z" fill="#f2f0ec"/><path d="m984.94 628c9.64-3.28 13.83-13.68 23-17.6a.91.91 0 0 1 1.59.08c-2 18.78-.75 37.6-.76 56.41q0 32.16 0 64.33c-10.58-2.14-15.82-11.5-23.59-17.44-2.35-2.53-2.72-5.71-2.74-8.93-.15-22.92-.19-45.83 0-68.75.01-2.9.25-5.84 2.5-8.1z" fill="#f2f0ec"/><path d="m916.82 564.89a43.34 43.34 0 0 1 -14-5.38 2.19 2.19 0 0 1 .15-2.84l13.87-.13z" fill="#b72e66"/><path d="m1009.51 610.48c-.53 0-1.06-.06-1.59-.08v-1.67c1.36-.17 1.8.49 1.59 1.75z" fill="#d6d0d1"/><path d="m1015 259.61c-5.38 7.58-15.07 8.75-21.68 14.57-2.11 1.86-5.39 2.34-6.58 5.39a6.26 6.26 0 0 1 -4.75 1c-20.69-1.5-41.39.25-62.08-.31-3.5-.1-7 .23-10.5-.13-34.9-.34-69.79-.06-104.68-.12q-42.35-.09-84.67 0c-4.7 0-9.31-.19-13.65-2.22a7.52 7.52 0 0 1 -2.22-1.22c-6.63-7.65-12.66-6.83-18.24 1.19a27.26 27.26 0 0 1 -10.95 2.24c-18.28-.14-36.56.16-54.83-.16-11.16-3.78-21.13-9.24-27.41-19.82a4.42 4.42 0 0 0 .16-1c7-1.46 13.87.76 20.79.82 45.62.38 91.24 0 136.85-1.5q126.36-.06 252.73-.05c3.86.01 8.07-1.48 11.71 1.32z" fill="#d7d3d2"/><path d="m592.73 260.05a179 179 0 0 0 24.57 17.55 5.89 5.89 0 0 1 .91 3.08c2.24 21.42 1.68 42.92 1.69 64.4 0 4.37.1 8.75-2.54 12.59-7.93 12-17.47 22.54-27.76 32.49q-.11-62.9-.22-125.78c0-2.29-.48-4.99 3.35-4.33z" fill="#f2f0ec"/><path d="m543.33 540.31c.4-9.09 2.19-18.33-3.76-26.68 11.66-2.11 19.52 5 17.09 14.68-1.87 7.41-.58 14.28 2.76 21 6.09 9.32 7.43 20.31 8.65 30.73 1.69 14.47 5.27 28.58 6.55 43.12 1.38 15.75 2.08 31.42 0 47.09s-11.91 28.27-18.62 42.05c-7.2 14.7-17.58 27.47-27.05 40.75-1.91 2.68-3.44 6.34-7.82 6-4.81-17.67-11.42-34.34-25.23-47.27-2.1-2-3.69-4.37-6.65-5.13 2.56-8.43 9.85-13.47 14.69-20.26 7.26-10.18 15.7-19.54 22.59-29.94 6-9 8.6-19.89 9.76-30.35 2.7-24.21 3.82-48.6 5.64-72.91.28-4.29.91-8.58 1.4-12.88z" fill="#fdb173"/><path d="m630.78 156.22c.07-19 12.13-31.55 30.05-31.33 17.16.21 29.49 13.39 29.4 31.39-.1 18.86-12.32 31.89-29.85 31.83-17.75-.06-29.68-12.9-29.6-31.89z" fill="#e1dceb"/><path d="m938.65 126.19c23.86.42 34.71 10.18 34.6 30.55-.12 21.95-22.41 37.29-43.23 29.87-3-1.06-3-3.18-3-5.5 0-16.31-.07-32.61 0-48.92.06-10.09 8.08-4.25 11.63-6z" fill="#e1dceb"/><path d="m565 151.33c-16.82 0-13.9 2.68-14.88-14.7-.52-9.24 2.73-12.06 11.36-10.92 5.18.68 10.48.35 15.67.94 7.33.83 10.67 5.47 10.49 12.61s-4.15 11.34-11.29 12c-3.79.36-7.61.07-11.35.07z" fill="#e1dceb"/><path d="m521.09 759.07c20-24 35.44-51 48.72-79.11 2.16-4.57 2.91-10 3.35-15.13a208.25 208.25 0 0 0 -2.24-55.38c-3.72-20.05-5.85-40.49-11.5-60.19l24.33-27.89c4.17 4.39 2.24 9.92 2.77 15 .69 6.6-1.34 13.32.92 19.84 38.56 2.57 77.12-1.39 115.68 0 3.48.13 7 .23 10.45.35 2 6-3.07 6.92-6.45 8.29-15.4 6.21-30.06 14.2-45.62 19.83-11.61 4.19-18.15 11.19-19.76 23.17-17.35.1-34.69.11-52 .41-2.19 0-5.79-2.35-6.57 2.3 3.86 2.46 3.52 6.49 3.54 10.2.15 35.24.06 70.49.12 105.74 0 3.52-1.85 6.77-1.09 10.32 6.84 2.73 14 .32 21 1.49-4.41 3.06-9.76 3.58-14.71 4.58-31.17 6.34-54.06 27.14-78.93 44.49-3.08 2.15-5.61 5.1-9.72 5.29 1-9.63 7.59-16.07 13.42-22.79 2.8-3.25 4.7-6.45 4.29-10.81z" fill="#b83067"/><path d="m811.67 778.34h-106.93c-5.5-12.09-12.49-23-24.29-29.95-10.56-6.21-22.75-6-34.32-8.22-2.23-.42-4.72.22-6.33-2 46.74-2.5 93.51-1.18 140.27-1.23 15.12 10.26 22.77 26.28 31.6 41.4z" fill="#b83067"/><path d="m582.59 780.47c10.62 3.64 18.77 11.2 27.7 17.52 2.71 3.1 2.7 6.92 2.72 10.68q.11 34.29 0 68.57c0 3.46 0 7-2.44 9.89l-27.43 18.45-.08-.26c.61-.5.55-.94 0-1.48a2.76 2.76 0 0 1 -.53-.69z" fill="#f2f0ec"/><path d="m586 948.62c9.7 4.67 17.93 11.47 26.33 18 2.31 3.62 2.36 7.68 2.46 11.77.57 22.94-1.33 45.93 1.32 68.84a10 10 0 0 1 -2.23 8.17c-10.17 5.18-18.85 12.53-27.94 19.28z" fill="#f2f0ec"/><path d="m503.68 944.72c-6.59-3.38-8.8-9.68-12.12-15.55 5-4.56 10.44-5.19 14.67-.58 5.14 5.61 1.85 11.03-2.55 16.13z" fill="#feea01"/><path d="m622.47 738.5 3.51-.06v32h-3.51z" fill="#fd0160"/><path d="m501.6 796.18c0-1.44 0-2.93 1.76-3.52a3.14 3.14 0 0 1 -1.76 3.52z" fill="#b83067"/><path d="m582.51 903.15a9.3 9.3 0 0 1 .87 1.4c.07.18-.2.51-.32.77a10.24 10.24 0 0 1 -.74-1.38c-.07-.22.12-.52.19-.79z" fill="#d6d0d1"/><path d="m412.05 1151.41c7.75 9.38 12.34 20.73 19.1 30.73h-20.39c2.4-11.14.63-20.97 1.29-30.73z" fill="#b83067"/><path d="m983.05 279.16 3.68.41a5 5 0 0 0 .35 1.38v80.22c-2 2.66-3.85 2.5-5.56 2.54-86.3 2.07-172.61 1.67-258.93 1.44 9.64-11.17 19.13-22.46 28.94-33.46 7.58-8.5 7.41-9.27-1.65-16.75-14-11.6-27.74-23.62-41.59-35.46 2.63-1.92 5.64-1 8.46-1q43.23-.12 86.46-.05a48.79 48.79 0 0 1 6.51.21c26.53 5.85 53.47 8.17 80.56 8.43 20.43.2 40.43-4.83 60.75-6.36 10.66-.79 21.22-3.58 32.02-1.55z" fill="#c83e96"/><path d="m986.58 529.7-.21 7-204.48-.13c-2.49-4.07.54-7.24 1.88-10.57 8.2-20.42 4.16-32.72-16.62-40.14-29.94-10.68-60.93-15.46-92.61-7.64-8.19 2-16.31 4.36-24.58 6.1a68.78 68.78 0 0 0 -27 11.76c-2.82 2.08-5.46 5.6-9.91 3.63-2.39-3.94-1.78-7.74.57-11.45l36.71-42.42c2.63 2.8 6.05 1.54 9.1 1.58 20.4.2 40.82.24 61.23.33 11.75 2.34 22.78 7 34.16 10.58 35.47 11.05 72.17 16.88 108.65 22.24 22.51 3.32 44.63 7.86 66.91 12 19.41 3.64 34.28 15.53 50.09 25.8 3.9 2.63 4.88 7.12 6.11 11.33z" fill="#a05796"/><path d="m617.36 357.67q-.79-36.92-1.56-73.82c0-1.7-.18-3.52 1.54-4.69 22.35-.88 44.69-1.8 67 .5-14.54 17.42-28.93 35-43.67 52.21-7.51 8.81-14.47 18.13-23.31 25.8z" fill="#c83e96"/><path d="m613.6 488.27q.17 5.91.34 11.81c4.14 12.19 3.93 24.41.12 36.63-8.3 7.27-19 11.32-26.62 19.48-4-1.43-3.49-4.75-3.5-7.94 0-9-.12-17.93-.19-26.89 9.76-11.19 18.98-22.88 29.85-33.09z" fill="#f2f0ec"/><path d="m623 385.92 24.84 21c-9.49 8-19.15-.53-28.13 2.46 1.11 6.92 13.54 7.3 11.57 18.66l-26-22.08c9.54-8.39 19.54 1.11 29-3.06-2.91-2.52-6.07-4.89-8.78-7.71-2.18-2.27-8.06-3.89-2.5-9.27z" fill="#f0db0b"/><path d="m581.31 442.57c8.6-.21 17.26 7.92 17.49 16.41.24 8.95-7.51 17.21-16.26 17.34s-17.21-7.64-17.57-16.24 7.9-17.31 16.34-17.51z" fill="#f0db0b"/><path d="m558.38 493.71c7.62 7.35 7.62 7.35 5.09 12.14l-24.75-21c6.55-5.41 8.78-15.68 19.35-14.45 6.52.77 8.22 6.55 8.39 12.24 4.2 2.39 9.09 1.17 12.72 4-2.12 6.77-7.16 3.52-10.74 2.53-5.07-1.34-8.44-.84-10.06 4.54z" fill="#f0db0b"/><path d="m628.38 380c6.44-7.17 10.72-16.49 22.28-14.84a15.64 15.64 0 0 1 13.28 11.21c3.46 11-4.82 17-11.11 24.42z" fill="#f0db0b"/><path d="m583.11 433.17c1.59-4.52 3.6-4.48 6.55-1.81 3.66 3.33 7.53 6.43 11.42 9.51 3.65 2.9 7.51 3.42 10.88-.31 3.65-4.05 2.71-8.12-1-11.53-4.51-4.14-9.26-8-13.88-12 1-3.68 2.46-5.48 5.95-2.3 4.1 3.73 8.6 7 12.5 10.94 5.34 5.35 5.44 12.6.75 18.09-4.88 5.72-11.28 6.49-18 2.1a45.49 45.49 0 0 1 -4.14-3.22c-3.71-3.16-7.42-6.37-11.03-9.47z" fill="#f0db0b"/><path d="m681.51 333.63c-.16 5.77-4.37 12.86 7 8-4 6.63 1.24 10.56 2.62 15.34-5.42 1.22-5.14-4.52-8.93-4.35-4.68 4.51 5.68 7 1.58 11.9-4 .26-4.39-9.78-10.3-3.33-1.73-4 3.79-12.52-8-8.13 5.2-6.61-1.73-10.11-1.84-15.37 4.65-1.28 4.78 5.19 8.74 4.32 3.46-4.67-5.68-6.79-2-11.71 4.2.38 4.67 9.6 11.13 3.33z" fill="#f0db0b"/><path d="m685.17 322.34-6 4.45c-2-5.94 1.94-8.72 4.84-12.88l19.27 16.15c4.06 1.76 5-5.57 9.39-.92-3.09 5.54-7.68 10.09-12 14.77-6.26-2.92.53-5.54.2-8.38z" fill="#f0db0b"/><path d="m804.6 279.17-96.31.31-1.89-1.66h98.2c.63.3.84.59.63.88s-.42.47-.63.47z" fill="#fd0160"/><path d="m684.35 279.66-67-.5a7.4 7.4 0 0 1 0-1.56l68.64.19z" fill="#fd0160"/><path d="m614.06 536.71-.12-36.63c12.3-10.83 26.76-16.22 42.75-19.82 18.42-4.14 36.59-9.73 55.57-8 18.66 1.68 37.49 3.79 55.08 10.94 23.36 9.49 28.38 22.76 17.88 45.41-1.21 2.62-2.22 5.33-3.33 8z" fill="#c83e96"/><path d="m903 556.67-.15 2.84a100.62 100.62 0 0 0 -43.18.87 32.65 32.65 0 0 1 -12.1.87c-23.7-3.49-44.87 5.78-66.44 12.91-9.94 3.28-18.72 9.07-27.27 14.9-6.78 4.63-12.06 11-14.12 19.35l-82.18-.21c-3-6.31 2.5-7.57 6-9.21 11.35-5.3 23-9.88 34.39-15.15 16.64-7.71 33.68-14.59 49.49-24 1.24-.75 2.66-1.22 2.84-2.95 9.84-1.48 19.75-.59 29.61-.58 41-.02 82.03.21 123.11.36z" fill="#b83067"/><path d="m750.24 556.86c.16 5.31-4.37 6.58-7.75 8.33-23.52 12.18-47.91 22.5-72.14 33.2-4.87 2.15-12 2.11-12.84 9.81a57.07 57.07 0 0 1 -15.77-.33c-2.74-12.72 3.85-19 14.9-23.45 17-6.76 33.63-14.37 50.4-21.66 2.88-1.26 6.24-2.14 6.53-6.18z" fill="#b72e66"/><path d="m986.58 529.7c-12.94-16.61-30.39-27.1-50-32.7-16.33-4.67-32.83-10.34-49.94-11.14-29.11-1.36-57-9.43-85.52-14.06-27.74-4.51-55-11.54-80.47-24q105.81-.25 211.62-.5c15.16 0 30.32 0 45.48.09 3.14 0 6.47-.67 9.08 1.93z" fill="#c83e96"/><path d="m985 967.93c10-4.31 15.53-13.54 22.94-20.69 6.24.43 3.37 5.32 3.34 8-.4 38.59-1.09 77.17-1.72 115.76-9.31-3.28-16.11-10.49-24.34-15.46-2.32-2.54-2.76-5.69-2.78-8.93q-.25-34.81 0-69.65c-.04-3.25.22-6.45 2.56-9.03z" fill="#f2f0ec"/><path d="m668.06 968.15q74.85-.14 149.7-.26c42.31 0 84.63.17 126.94.27.38 3-2.17 3.86-4 5.13a74.76 74.76 0 0 1 -16.93 9.09c-20.7 7.55-39.3 19.13-58.31 29.91a125.27 125.27 0 0 1 -17.44 8.07c-15.91 6.05-30.71 14.08-43.74 25.22-4.19 3.58-8.31 7.36-13.49 9.61h-108.79c-2.52-4.45.72-7.82 2.49-11.18a97.82 97.82 0 0 0 10.56-32.89c2-15.19-1.56-22.22-14.88-29.57-5.42-3.01-11.54-5.81-12.11-13.4z" fill="#a05796"/><path d="m790.81 1055.19c14.65-16.4 32.84-28 53.1-35.5 17.17-6.35 32-16.61 48-24.88 8.28-4.29 16.49-8.69 25.17-12a132.83 132.83 0 0 0 27.65-14.65l40.26-.23q.1 43.79.22 87.57-91.5 0-183 0c-3.82-.03-7.61-.21-11.4-.31z" fill="#c83e96"/><path d="m668.06 968.15c3.71 4.89 7.9 9.15 13.58 11.84 13.81 6.53 18 16.73 15.9 32.27s-9.78 28.84-15.53 42.93l-68.17.25c-2.46-29.56-1.71-59.17-1.55-88.78 12.4 2.61 25 .61 37.41 1.18 6.11.27 12.24.22 18.36.31z" fill="#c83e96"/><path d="m1153.34 957.36-.41.74.41-.73z" fill="#3b1f7a"/><path d="m1146.32 894.29.74.39-.72-.4z" fill="#3b1f7a"/><path d="m984.94 628q.09 42.9.2 85.78c-45.39.17-90.78-.27-136.15.69-33.43.71-66.84 1.15-100.27.73-13.32-10.26-21.62-24.78-31.72-37.69-3-3.77-2.19-8.89-2.14-13.52.13-13.61 3.45-26.29 11.14-37.67q72-.12 144.08-.22 52 0 103.93.15c3.68.01 7.56-.65 10.93 1.75z" fill="#c83e96"/><path d="m726 626.32c-1.94 6.06-3.64 12.21-5.86 18.16-3.24 8.69-3.37 17.66-2.93 26.67.42 8.4 7.84 12.6 12.06 18.68 6.09 8.74 13 16.94 19.5 25.37l-136.77.33c-3.06-3-2.8-6.88-2.82-10.61q-.16-34 0-67.93c0-3.72-.26-7.66 3-10.49 37.96-1.04 75.82-.79 113.82-.18z" fill="#a05796"/><path d="m612.24 626.5-.24 89c-8.16 7.84-18.71 12.74-26.29 21.3-3.42-2.32-1.73-5.84-1.76-8.76-.37-39.16-.57-78.33-.81-117.49 10.64 3.63 19.77 9.97 29.1 15.95z" fill="#f2f0ec"/><path d="m983.1 799.77q0 43.72 0 87.45h-320.2a127.55 127.55 0 0 1 17.53-34.31c10.88-14.86 17.29-31.31 21.74-48.83.57-2.25.87-4.58 2.75-6.24l117.32.3c6.26 3.48 7.61 10.08 9.72 16 3.42 9.61 6.65 19.25 11.48 28.32 5.7 10.67 13.81 17.87 26 20.06s24.06 4.35 36.33 5c19.47 1 34-7.67 46.42-21.8 11-12.53 22.43-24.62 26.13-41.67a5.78 5.78 0 0 1 3.28-3.91z" fill="#a05796"/><path d="m704.93 797.86c-1.47 17.1-7.41 32.83-16.61 47a311.84 311.84 0 0 0 -18.78 32.26c-1.76 3.59-4.4 6.76-6.63 10.12l-52.35-.11-.27-89.13q41.25-.15 82.48-.29c4.05-.02 8.1.09 12.16.15z" fill="#c83e96"/><path d="m981.58 800.17c-4.33 24.52-21 41.13-37.84 57.14-13.16 12.52-30.22 14-47.55 12.14-7.76-.84-15.43-2.47-23.18-3.44-22.59-2.84-31.75-19.32-38.61-38-3.72-10.1-6.58-20.53-12.15-29.86q76-.09 152.08-.21c2.67.06 5.24.17 7.25 2.23z" fill="#c83e96"/><path d="m983.05 279.16c-20.84.79-41.14 5.8-61.84 7.85-17.57 1.75-34.88 3.14-52.7 1.71-16.75-1.35-33.38-2.79-49.86-6-3.08-.59-6.29-1.11-8.72-3.44 3-1.7 6.24-.81 9.36-.85 30.11-.36 60.23.56 90.33-.5q35.16 0 70.3 0c1.08.07 2.08.83 3.13 1.23z" fill="#a05796"/><path d="m909.62 278c-2.81 2.27-6.13 1.27-9.22 1.28q-45.24.12-90.47.07l-5.33-.16q0-.66 0-1.32z" fill="#b83067"/><path d="m593 461.23c-.75 5.31-3.94 9.19-10.56 9.23-6.13 0-12.08-5.8-11.58-11.63.54-6.29 4.16-10.12 10.67-10.26 6.09-.14 11.6 5.72 11.47 12.66z" fill="#3d2179"/><path d="m546.58 484.14c3.56-3.57 4.76-8.58 10.14-8.34a3.8 3.8 0 0 1 3.48 3.41c.47 5.1-4.33 6.89-6.38 10.94z" fill="#462c82"/><path d="m636.13 379.28c7.71-9.53 12.58-11 18.58-6.14 6.37 5.16 5.92 10.29-2.16 19.79z" fill="#3d2179"/></g></svg>