<svg viewBox="0 0 1494.73 1004.48" xmlns="http://www.w3.org/2000/svg"><path d="m863.47 584.14c10.19 3.36 19.33 8.86 28 14.89 33.95 23.62 71.92 37.69 112.21 44.62a223.91 223.91 0 0 0 94.57-4c9.11-2.36 18.59-1.17 27.48-4.21 5.25-3.76 10.65-.32 16-.37 4.24 1.4 8.34 3.27 12.84 3.88 14.69 5.32 17.49 9.24 17.66 24.53.15 14.8.55 29.62-3.79 44a20.37 20.37 0 0 1 -1.12 5.27c-4.87 12.79-7.88 25.63-1.36 38.83-5.58 17-11 34-10.14 52.37.42 8.53 1 17 2.92 25.27 6.84 29.57 7.8 59.35 4.51 89.48-4.15 38-3.86 76.28-3.68 114.49 0 5.73.58 11.57-2 17a10.07 10.07 0 0 1 -4.34 4.82c-17.8.35-34.77-3.83-51.49-9.44-3.34-5-2.45-10.53-1.8-15.87 1.62-13.3 4.81-26.21 11.23-38.13a126.64 126.64 0 0 1 19.72-20.76c2.79-1.83 5.64-3.58 8.25-5.64 10.78-8.46 15.87-27.8 10.73-40.36-2.37-5.76-7.08-7.24-12.33-3.79-2.92 1.92-5.1 5.46-9.5 4.13-3.07-3.47-.3-6.25 1.21-9 4.1-7.42 9-14.39 13-21.85 6-11.14 4-24-4.64-31.35-6.22-5.33-9.51-4.71-13.41 2.49-1.77 3.27-2.3 7.62-6.83 8.6-3.33-2.78-2.06-5.8-1.28-8.62 1.79-6.43 3.15-13 4.47-19.48 2.83-13.92-6.92-32.81-19.54-39-3.87-1.9-6.31-.86-8.26 2.56-.69 1.12-1.43 2.19-2.2 3.26-1 1.46-2 2.91-3.14 4.33-2.91 2.91-2.74 6.51-2.49 10.21.45 7-2.7 11.46-9.33 13.83-9.18 3.3-19.66 21.37-18.09 30.86.74 4.5 3.6 7.56 7 10.28 4.5 3.6 9.61 6.52 13.43 10.88 4.11 4.7 8.52 9.53 6 17.47-14.47-3.73-20.34-18.93-33-24.1-11.86 14.14-3.12 54.33 21.86 57.68 10.37 1.39 13.89 6.86 12.36 17a24.44 24.44 0 0 1 -1.25 5.31c-3.35 8.32-1.8 15.35 5.11 21.25 2.3 2 4.51 4.34 5.26 7.32a102.09 102.09 0 0 1 .67 48.34c-10.67 1.84-21-2.42-31.7-1.61-10.28.78-20.65-.48-30.93 1.35-6.37 1.13-11.11-1-11-8.34.17-17.3-.86-34.54-2-51.79-.41-6.31 1.52-10 9-10.63 9.93-.89 16.36-7.56 20.29-16.37 2.18-4.89 2.83-10.29-1.63-14.37s-9.62-2.44-14.43 0c-3 1.53-5.26 4.12-8.06 5.95-4.58 3-7.38 1.64-8.43-3.63a12.36 12.36 0 0 1 -.29-2.71c.67-22.44 1.46-44.85 8.12-66.59 1.79-5.82 4.55-9.1 11.07-7.63a9.91 9.91 0 0 0 4.53-.07c2.85-.7 5.22-2.14 5.39-5.33.2-3.45-2.29-4.48-5.21-5.15-9.64-2.19-10.37-2.81-6.3-11.46 13.91-29.57 31.16-57 54.67-80a19.12 19.12 0 0 1 4.3-3.36 5.14 5.14 0 0 1 4.22-.61c3.79 6.19 6.49 15.23 17.3 12.84 3.92-.87 6.73-3.51 6.7-7.61-.06-9.43-8.93-9.3-16-13 8.28-13.38 21.18-19.57 33.89-26 1.45-.76 2.73-1.9 4.41-2.23.4-.22 1.15-.23.68-1 .2.63-.11 1-.92 1.13-1.75.2-2.86 1.64-4.43 2.21-3.41.76-6 4.58-10.15 2.78-2.36-3-.83-6.44-1.33-9.64s-1.1-6.24-4.68-7c-3.95-.88-6.24 1.7-7.91 4.78-2.51 4.64-2.58 9.41.48 13.78 3.3 4.71 2.5 8.3-2.11 11.49-21.06 14.59-40.85 30.53-55.43 52-.65 1-1.82 1.6-3.8 1.5-3.61-1.43-4-5.88-6.22-9-3.1-4.37-6.54-8.6-12.54-7.14-6.29 1.53-9.65 6.33-10 12.64-.53 9.37 2.16 17.66 11 22.27 5.18 2.69 6.58 5.57 3.62 10.73-12.07 21-20.44 43.28-23.62 67.38a14.68 14.68 0 0 1 -1.71 5.16 3.88 3.88 0 0 1 -2.11 1.8c-4.09-1.13-5.33-5.46-8.34-7.89-3.23-2.6-6.69-4.67-10.77-2.39-4.33 2.43-4.91 6.58-4 11.1 1.65 8.62 6.43 13.37 15.95 14.72 3.94.56 6.39 1.91 6.57 5.93.74 17.24 2.5 34.41 3.1 51.65a4 4 0 0 1 -1.76 3.26c-3.48.83-5.22-2.14-7.45-4a43 43 0 0 0 -16.84-8.73c-4.45-1.1-8.51-.37-11.63 3.21s-2.19 7.34-.67 11.13c5 12.36 19 20.54 32.25 18.82 8.27-1.09 10.81.79 10.14 9.06-.62 7.63.86 15.11.49 22.7-.56 11.35-3 14-14.16 14.11-14 .16-28 .33-41.92 0-21.35-.54-42.3 3.65-63.5 4.77-5.9.3-12.07 2.6-17.25-2.39a270.08 270.08 0 0 1 -3.27-37c-1.24-38.2 2.77-76.32 1.86-114.53-.81-34-8.3-66.59-18.35-98.84-8-25.63-19.13-50.45-21.78-77.63-.61-6.17-3.55-11.55-5.7-17.2-.79-3.11.27-6.07.77-9.07 1.89-5.32 1.61-11.72 7.38-15.17 7.6 1.06 6.91 7.85 8.9 12.8 3.22 12 8.3 23 16.6 32.44 11.53 14.43 28.22 22.63 41.92 34.44 3 2.6 7.9 3.55 10.38-.81 2.66-4.64-1.48-7.58-5-9.06-13.7-5.81-25.36-13.94-33.83-26.42a46.35 46.35 0 0 1 -8.43-25.39c-.45-15.38-2.12-30.7-3.5-46 3.91-14.71-1.43-28-6.37-41.31-2.83-7.71-5.47-15.41 0-23.11z" fill="#fefbe1" transform="translate(-1.48 -211.83)"/><path d="m277.3 531.15c2.45-13.52 12.64-22.54 20.08-32.9a338.65 338.65 0 0 1 48.31-54.12c26.42-23.79 54-45.46 90.26-53.09 32.67-6.88 64.69-4.31 96.55 4 38 9.9 74.75 23 109.34 41.6 18.34 9.85 37.14 19.1 53.35 32.51-2.68 3.4-6.61 2.17-10.06 2.73-23.31 3.79-41 15-50.28 37.58a32.14 32.14 0 0 0 -2 14.17c-1 15.1-2.35 30.2 3.4 44.81a15.31 15.31 0 0 1 .54 8.95c-2.69 6.66-6.25 12.44-14.14 13.81-11.66-3.8-23.25-6.23-34.26 1.89-14.41 5.37-28.18 12.29-42.52 17.8a155.14 155.14 0 0 0 -29.82 15 70.65 70.65 0 0 1 -8 4c-13.25 5.33-22.53 14.36-26.73 28.21-8.22 23.74-17 47.29-21.56 72.11-1.17 6.34-4.32 11.9-7.55 17.42-2.78 4.76-5.07 9.79-3.63 15.5 1.3 5.18 4.31 6.31 8.64 3 3.77-2.93 6.41-7 6.55-11.55.43-14.12 6.67-26.2 12.52-38.49 6.63-14 13-28 21.34-41.08 8.58-13.5 33.92-23.89 49.43-20.54 2.73 8.09-2.78 14.11-5.63 20.61-2.36 5.38-5.65 10.42-8.42 15.68-5.44 7.85-10.36 16-16.24 23.66-6.39 8.28-9.63 18-5 28.61-2.48 10.67-5.8 21.27-11.69 30.36-15.65 24.16-24.55 51.24-35.51 77.47-6.4 15.35-11.93 31.09-19.42 46-1.23 2.44-2.29 5-4.66 6.59-.54.28-1.23.73-1.7.52-12.58-5.56-19.46 1.27-26 10.9-4.24 6.23-8.3 12.68-13.19 18.5-2.72 3.23-5.77 7.81-10.34 4.41s-1-7.79 1.19-11.27a117.4 117.4 0 0 1 13.32-17.27 122.48 122.48 0 0 0 15.5-21.28c5-8.57 3.4-16.2-2.38-23.54-.76-1 .19.23-.6-.69-15.08-17.72-15.07-17.72-28.88.42-1.45 1.91-2.7 4.09-5.36 4.64a3 3 0 0 1 -2-1.77c-1.35-4 .3-7.71 1.5-11.41a49.27 49.27 0 0 0 2.87-14.08c.43-16.21-4.28-23-19.69-28-4.53-1.46-9.59-1.94-12.42-6.6-10.35-26.12-13.87-54-21.13-80.93.47-7.41 6.18-11.59 10.37-16.72a13 13 0 0 1 2.14-1.7 7.66 7.66 0 0 1 2.58-1c1.88-.16 3.63.09 4.91 1.68 2 3.77 1.15 7.55-.44 11.08-2.14 4.8-.43 7.88 3.77 10.2 2.45 14.08 6.92 27.34 15.84 38.79 15.59 22.32 32.39 43.78 49.05 65.29 6.24 8.06 13.79 15 18.05 24.57 1.2 2.7 3.19 5.71 7 4.15 3.39-1.41 3.37-4.68 3-7.81a12.41 12.41 0 0 0 -6.25-9.5 18.4 18.4 0 0 1 -9.2-13.9c-1.05-7.43-5.22-13.51-8.5-19.94-9.22-18.08-15.94-37.23-24.18-55.74-4.22-9.47-8.19-19.7-3.49-30.54 10.94-8.33 10.23-8.14 6.54-22.21-3.49-13.31-2.26-27.15-.63-40.7 2.06-17.19 4.58-34.32.36-51.52a45.63 45.63 0 0 0 -1.66-5.33 14.28 14.28 0 0 1 -.76-2.7c-.36-2.88-.4-5.69 1.67-8.07a16.75 16.75 0 0 1 10.82-2.9 25 25 0 0 1 9.39 3.16c10.69 6.46 20.68 3.62 29.52-3.11 10.78-8.21 21.15-17.07 28.92-28.43 5.22-7.63 8.73-15.81 8.55-25.28-.07-3.3-.23-6.65 1.1-9.81 6.24-7.07 15.16-11 21.38-18.14 1.77-2 4.51-3.55 3.69-6.75-.89-3.43-4-4.92-7-5-13.26-.37-24.56-5.87-35.71-12.31-4.22-2.44-9.14-2.7-14.17-1.81-17.28 3.06-35.56 20.17-38.1 36a13.13 13.13 0 0 1 -.79 2.54c-.57 1.22-1.23 2.39-1.84 3.59-3.52 8-6.93 15.93-9.8 24.19-3.37 9.66-10.77 15.43-21.35 16.44-10.56-6.34-22.65-2.9-33.88-5.31-21.38-4.59-43-8.18-60.11-23.47-4.27-3.82-10.66-2.72-14.67-6.83z" fill="#fefbe1" transform="translate(-1.48 -211.83)"/><path d="m1102.65 1044.83 50 9.16c1.15.58 2.14 1.63 1.91 2.78-1.59 8 2.2 14.33 6.19 20.62l-17 3.5c-1.66 2.56-4.39 3.22-7.07 3.62-22.11 3.33-44 10.21-66.7 4.89-13-3.05-26.13-1.56-38.92.47-23.61 3.76-46.71 8.86-69.3 18-37.13 15-73.49 32-111.39 45-30.74 10.57-62.59 16.71-94.48 23.09-35.24 7.06-70.13 3.11-105.21 2.73-5.1-.06-9.11-3.2-13.88-4-35.56-5.18-70.29-14-105.2-22.37-49.36-11.8-97.44-27.34-145-44.6-34.89-12.65-70.22-23.54-106.92-29.5-10.66-1.73-21.41-2.88-33.76-4.52 16.23-6.3 31.44-5.76 46.74-4.21l9 .94c8.3-1.65 15.52 5 23.86 3.07 15.64 0 30.55 4.38 45.61 7.77 3.7 4.71 8.18 3.33 12.72 1.56 25.09-2.18 49.68 1.84 74.27 5.85 13.77 2.24 27.53 4.74 41.57 4.66 23.6-.86 47.17-2.42 70.81-2 8.21.13 16.12-2.52 24.08-4.41 23.56-5.6 46.73-13.34 71.06-14.94 18.47-1.21 36.79-3 54.89-6.87 28.6-7.47 58-8.41 87.24-10 12.46-.69 24.49-3.78 36.5-6.91 5-1.29 9.83-3.26 15.1-1.74 3.28 3.76 2.48 8.11 1.82 12.45a19.46 19.46 0 0 1 -3.28 7.41c-5.46 4.86-12.47 6.39-19.18 7.9-40.09 9.07-78.32 24.34-118 35-25.76 6.93-52 9.51-78.32 11.11-23.32 1.41-46.81.71-70.21.16-19.45-.45-38.64-4.26-58-6-5.76-.52-11.48-1.34-17.26-1.11-39.61 1.6-77.84-6.41-115.78-16.39-2.82-1.64-5.68-2.85-9.39-.65-.63.12 1.56.55.77-.37a7 7 0 0 1 7.42.47c24.64 7.51 50.49 10.68 74.63 19.68 30.6 11.41 62.62 14.6 94.57 18.11 31 3.42 62 8.08 93.46 6.79 26.34-1.07 52.71 1.67 79.09 1.63a427.21 427.21 0 0 0 122.89-18c38.75-11.59 76.45-25.82 114.63-38.89 45.74-15.65 92.9-23.64 141.48-21.45a17.47 17.47 0 0 1 3.62.31c2.34.64 4.85.31 7.14 1.18-34.73-3.82-69.09-11.1-104.24-10.78-6.13.06-12.13-.93-18.13-1.79-26.87-3.81-53.21 1.27-79.67 4.47-6.89.83-13.57 3.62-20.7 2-5.45-2.79-9.37-6.23-5.39-12.93 18.78-.38 37.37-3.27 56.05-4.55 20.87-1.42 41.89-.64 62.85-.78 14-.09 14-.06 13.9-14.21-.06-8.71-.26-17.41-.5-26.12 0-.77-.84-1.51-1.27-2.23-16.58 4.64-32.73-2.16-40.4-17.19-2.52-4.93-4.35-10.39-.2-15.29s9.35-5.78 15.64-3.95c8.72 2.52 15.87 7.13 22.56 14.84-1.24-20.16-2.41-39.14-3.58-58.13-12.54.59-18.24-3.57-22.07-15.37-2.14-6.62-1.09-12.4 4.82-15.91s11 .23 15.19 4.55c2 2.11 3.48 4.77 6 8.3a180 180 0 0 1 27.77-79.89c-13.32-3.79-18.18-13.19-18.37-25.75-.14-8.67 4-15.13 12.12-17 8-1.87 12.78 4 16.24 10.46 1.36 2.54 2.34 5.29 3.82 8.71 15.42-25.71 38.45-42.47 62-58.65-7.7-10.19-8.34-17.3-2.51-24.65 2.69-3.39 6.26-5.73 10.27-3.72 8.5 4.25 5.3 12.26 5 19.63l11.22-4 .71.79c-10.73 9.06-24.44 14.29-33.76 25.67 12 2.5 17.72 7.2 17 14.2s-5.2 10.62-12.28 10.85c-9 .3-14-4.7-15.71-16.38-28.53 26.61-48.41 58-64 93.42 6.4.43 12.36-3.33 15.75 3.56 1.53 3.13 1.49 5.67-.81 8.32-5.16 6-11.29 4.41-18 1.66-9.22 26.37-10.54 53-10.56 81.4 6.76-3.86 9.64-9.31 15.3-11.25 5.82-2 11.53-3 16.12 1.64s4 10.53 2 16.22c-4.36 12.27-14.92 19.34-30 19.86.52 21.4 3 42.74 1.83 65.21 24.43-1.07 48-3.74 71.18 2 3 2.22 1.72 6 3.59 9.33 2.75-1.98.98-6.53 4.4-7.55z" fill="#9e8ec0" transform="translate(-1.48 -211.83)"/><path d="m1290 617c3.68 3.29 8.23 2 12.21 1.63 26.24-2.37 50.17 6 74.13 14.88 15.62 5.77 31.66 10.42 47.28 16.19 25.67 9.48 46.42 26.26 63.11 47.3 23.6 29.75 0 68.47-35.84 73.34-28 3.8-56.26 8.71-80.07 26.52-11.11 8.31-19.37 19.17-28.26 29.36-15 17.27-30 34.72-42.27 54.23-4.65 7.42-9 15-13.56 22.49-4-3.5-3.11-8.31-3.12-12.71 0-25.13 2.69-50.06 5.55-75 3-26.58 2.88-53.09-2.5-79.42a14.78 14.78 0 0 1 -.21-4.5c10.16-21 6.62-42.35 1.5-63.73-.77-3.22-1.93-6.36-2.25-9.68-.34-6.34-2.78-12.18-4.25-18.25-2.08-8.55-2-16.64 5.69-22.81a2.59 2.59 0 0 1 2.86.16z" fill="#fefbe2" transform="translate(-1.48 -211.83)"/><path d="m1287.71 730.18c8.3 31.77 7 63.67 2.89 96-3.26 25.41-5.22 51.07-3.89 76.81-6 36.74-13.46 73.25-18 110.23-1.67 13.52.79 26.3 5.45 38.86-10.34 5.28-20.89 3.9-31.5 1-4.87-10.1-3.78-21.14-4.64-31.8-1.48-18.41 2-36.71 1.92-55.1 1.19-26.18-1.1-52.12-5.72-77.87-2.26-12.57-7-24.43-10.9-38.65-4.11 14.72-5.53 28-7 41.07-1.82 16-4.26 31.83-9.14 47.23-10 31.5-13.08 64-14.75 96.81-.34 5.55 1.16 11.39-2.67 16.37-11.54 3-23 4.18-34.39-.83 2.91-9.17 1.57-18.63 1.32-27.89-.81-30.56.81-61.07 2.34-91.52.83-16.51 3.55-32.93 3.33-49.59-.27-20-3.7-39.44-7.46-58.94-4.82-25-1.21-49 9.61-72.06 4.14-3.06 5.32 1.16 6.79 3.15 11.09 15 25.62 20.08 43.74 16.11 7.65-1.68 15.52-2.06 23.21-3.85 13.64-3.19 23.82-11.08 32.67-21.47 4.71-5.57 9.08-11.86 16.79-14.07z" fill="#f80160" transform="translate(-1.48 -211.83)"/><path d="m636.87 1174.64c21.13 1.09 42.27 1.94 63.38 3.32 28.47 1.87 55.88-4.82 83.45-9.94 47.24-8.76 91.16-27.06 135.2-45.75 34.78-14.77 69.59-30.92 108.06-34.88 15.92-1.64 31.93-4 47.82-.37 15.29 3.5 30 .41 44.93-2.3 8-1.45 16.07-2.56 24.11-3.83-2.31 11-11.58 16.68-18.83 23.64-4.76 4.59-9.86 8.66-14 14a39.35 39.35 0 0 1 -15.09 11.39 260.42 260.42 0 0 0 -54 33.24c-22.48 17.69-49.7 26-75.73 36.6-16.81 6.84-34.64 7.59-52.39 9.2-22.5 2-44.92 5.32-67.46 6.7-19.07 1.18-38.25.31-57.39.53-43.74.52-84.85-10.85-124.86-27.33-9.47-3.86-19.07-7.64-27.2-14.22z" fill="#fefbe2" transform="translate(-1.48 -211.83)"/><path d="m250.09 910.2a196.65 196.65 0 0 1 -30.41 48.8c-19 22.3-41.7 39.92-66.52 55.23-13.07 8.06-27.34 14.15-39.38 23.89-8.94-7.3-14.24-17-18.35-27.51 10-8.86 17-20.25 25.1-30.7q20.75-26.82 41.61-53.56a115.54 115.54 0 0 0 20.2-39.87c-.25-9.51 2.34-18.67 4.79-27.58 7.68-28 6.53-57.06 11.25-85.37 4.35-26.14 10.66-51.65 24.32-74.75 3.84-6.5 7.51-13.6 17.1-12.33 5 1.9 6.87 6.49 9.17 10.71 3.16 5.81 5.62 12 9.93 17.19 13.87 16.74 31.68 21.92 52.61 18.25 2.67-.47 5.33-1.29 7.89.39 2.64 5.57-2 9-4 13.08-12.08 24.06-24.33 48-32.08 74-10.11 27.32-19.9 54.74-28.22 82.66a16.11 16.11 0 0 1 -5.01 7.47z" fill="#fc0160" transform="translate(-1.48 -211.83)"/><path d="m381.66 1084.91c-4.32 4.32-8 5.91-9.63-2.12-2.55-2.83-2.17-6.33-2.26-9.73.75-7.11-2.84-13.17-4.81-19.63-1.35-4.54-2.67-9.1-5-13.26-7.34-11.66-18.72-18.57-30-25.6-3-1.86-6.86-2.7-8.53-6.37-2.92-1.53-5.83-3.11-8.78-4.59-4.93-2.48-7.88-5.35-6.43-11.89 1.9-8.56-2.43-13.77-10.65-14.07-7.12-.25-15.29-.33-17.3-8.23-2.08-8.18-3.31-17.65 4.18-24.59 6.65-6.17 14.88-4.48 22.32-2.33 7.83 2.26 15 6.44 20.16 13.17 3.25-.68 4.54 2.48 6.92 3.54 3.39 1.51 6.54 1.53 9-1.47s1.23-5.85-1-8.15c-6-6.27-11.29-13.43-20.09-16.25-5.36-2.49-11.35-2.14-16.88-3.82-6.17-1.34-12.67-2-16.15-8.49-2.77-2.52-2.64-5.9-2.8-9.21a108.62 108.62 0 0 1 4-34c1.19-4.34 2.66-8.75 7.42-10.75a8.13 8.13 0 0 1 3-.15 15.91 15.91 0 0 1 4 1.38c7.3 3.6 15.08 6.06 24.29 10.55-7.49-9.64-14.09-16.62-25.4-16.06a12.15 12.15 0 0 1 -2.56-.83 12 12 0 0 1 -3.34-2.4c-2.71-3.53-3.6-7.63-3.69-12a169.92 169.92 0 0 1 10.92-41c5-12.5 12.93-16.75 25.73-13.18 9.35 2.6 18.4 6 25.64 12.92 2.65 2.77 6.23 3.27 9.71 4.27 23.25 6.68 26.42 18.15 21.61 41.31-1.15 5.51-4.93 10.42-3.75 16.46l-.13-.11c6.56-7.37 10.61-16.69 18.94-24.43 6.9 7.15 14.13 13.62 20.06 21.12 4.84 6.1 6.32 13.38 2.37 21.22-6.63 13.14-16.78 23.56-25.76 34.91-3.54 4.47-8.42 8.73-7.76 15.44 4.93 2.09 6.5-1.5 8.35-4 6.15-8.23 12-16.69 18.19-24.88 7.88-10.42 12.35-11.14 23.58-4.29 19.22 9.52 32.84 44.29 13.62 58.39-5.54 4.06-9.51 10.21-13.57 15.81-8.77 12.09-20.53 18.31-35.08 20.29-12.18 1.65-16 5.89-16.84 18.32-.36 5.16-1.72 10.14-2.31 15.25-1.65 9.33-1.13 18.87-2.9 28.18-.24 4 .1 8-.14 12-.46 4.44.92 8.95-.47 13.35z" fill="#9d8bbf" transform="translate(-1.48 -211.83)"/><path d="m319.29 732.58c-25.74 11.13-59.84-2.75-70-29.44-2.11-5.54-5.75-10.5-8.69-15.73-1.83-9.53 3.61-16.52 8.33-23.76 12.07-11.09 22-24.14 33.39-35.93a173.09 173.09 0 0 1 46.59-34.1c-13.11 6.14-26.61 9.88-41.2 8.38-4.4-.91-8.82-1.72-12.68-4.22-7.82-5.06-16.69-1.16-24.91-2.89-1.88-1.91-2.13-4.37-2.36-6.85-1.92-10.62 9.09-42.06 17.09-48.77l12.47-8.12c8.56 0 16.1 2.36 21.28 9.7 1.7 2.41 4.24 3.33 6.75 4.29 22 8.46 44.13 16.39 68.27 15.27 5.38-.25 10.31.33 13.49 5.43.86 1.26 1.82 2.59 1.75 4.12-.6 13.21 5.48 23.91 12.69 34.21.92 1.12.66 2.94 2.2 3.7 6.05 18.06 2.24 36.21.82 54.41-1.27 16.22-4.87 32.67 3.91 48.28 3.46 6.16-1.64 10-5.94 13.23-1.84 1.38-4.47 1.7-6.73 2.5-7.54 6.29-17 4.84-25.7 6.12-3.8.56-7.78.09-11.68-.09a11.41 11.41 0 0 1 -4.55-1.59c-7.76-.42-8.86-4.4-5.74-10.67a26.75 26.75 0 0 0 2.55-12.1c-.59-3.69 1.82-6.51 3.13-10.51-2.49 4.67-5.88 7.6-8.65 11l.05-.28a4.58 4.58 0 0 0 -2.13 2l-10.81 14.3c-2.67 5.41-7.37 7.53-12.99 8.11z" fill="#fee901" transform="translate(-1.48 -211.83)"/><path d="m1287.71 730.18c-6 6.32-12.36 12.34-17.94 19-13.71 16.39-32.63 20.39-52.33 22.49-6.82.73-13.46 2.8-20.62 1.42-12.25-2.37-21.11-9-27.76-19.19-1.08-1.65-1.8-4-4.59-3.59-12.29-14.66-.5-28.36 1.7-42.43 8.42-15 18.51-29.1 24.79-45.26a25.36 25.36 0 0 0 1.68-8.88c.19-13.74-7.39-20.12-20.86-17.45-6.2 1.23-11.94 4.5-18.49 4.21-4.38.79-8-.9-11.18-3.63-5.14-11.42-1.21-22.06 2.82-32.69 8.59-4.59 17.76-2.61 26.65-1.83 10.55.92 19.89-.38 27.07-9a12 12 0 0 1 8.77-4.22c6 0 11.73-2.25 17.76-1.58 9 2.86 17.32.36 25-4.13 9.4-5.47 19.77-8.85 29.23-14.14a7.57 7.57 0 0 1 5.24-.88c3.22 1 4.49 3.83 5.93 6.45 3.89 7.13 6.46 14.9 10.66 21.9 1.77 2.93 2.22 6.25-.22 9.3 1.15 8.52-8.21 6.5-11.08 11h-1.78c-14 7.94-16.23 18.89-6.59 32.15 2 2.69 4.89 4.6 6.34 7.71 4.13 16.69 8.66 33.32 7.51 50.79-.51 8.15-1.42 16.22-7.71 22.48z" fill="#ccc2d8" transform="translate(-1.48 -211.83)"/><path d="m1030.6 496.82c-18.11 5-18 5-21.81-13.68-2.65-13-5.78-25.91-8.41-38.91-1.13-5.54-1.63-9.83 6.79-11.5 93-18.49 185.92-37.49 278.84-56.44 25.64-5.23 51.22-10.75 78.33-16.45l13.66 66.81-17.06 2.82c-9.52-4.14-14.37 5-21.55 7.57-91.63 18.26-183.08 37.37-274.67 55.8-4.71 1-9.39 2.65-14.33 1.55-2.63-1-3-3.56-3.73-5.81-1.46-4.47-4.64-6.1-9.08-5.49s-5.89 3.62-5.93 7.71c-.06 2.04.58 4.2-1.05 6.02z" fill="#ccb9d2" transform="translate(-1.48 -211.83)"/><path d="m725.28 494.62c9.13 3.12 14.18 11.58 21.79 16.71 2.66 1.79 4.18 5.25 7.94 5.48.56 7.53-5.41 10.75-10.43 13.08-20.85 9.66-27.09 28.18-30.24 48.41-1.34 8.61-.78 17.52-.13 26.25 1 13.5 8.48 23.59 18.13 32.41 3.08 2.81 7.09 4.85 8.24 9.37.15.9.48 1.95.07 2.69-12.59 23-9.55 49-13.94 73.57a39.72 39.72 0 0 1 -2.89 9.54c-2.33 5.12-2.71 10.54-2.29 16 .22 2.75.55 5.74 3.73 6.66s5-1.57 6.49-3.87c3.59-5.53 5.59-11.56 4.19-18.16a37.28 37.28 0 0 1 1-18.89c5.65-18.42 8.27-38 21.85-53.35 3.85-4.34 7.93-8.32 12.16-12.24 5.1-2.72 10.26-5 16.09-2.11 2.78 5 .57 10-.27 14.84-1.07 6.2-1.08 12.48-2.07 18.66a9.54 9.54 0 0 1 -2.76 4.62c-21.36 19.85-29.92 45.79-35.16 73.35-1 5.3-.88 11-4.28 15.63-4 3.37-8.61 3-12.91 1.31-10.54-4.17-21.64-5.72-32.67-7.71-19.49-3.53-24.52-9.62-24.54-29.18 0-22.09-.22-44.18.09-66.26.16-11-.79-21.73-3.92-32.25-1.38-10.52-7-18.66-14.57-25.7-2.48-7.78 2.83-12.41 7.08-17.48a20 20 0 0 1 4.71-3.23 8.49 8.49 0 0 1 2.53-1c8.88-1.22 18.49-.82 24.75-8.87a56.6 56.6 0 0 0 12.1-31.57c.75-11.45 1.5-22.94-4.91-33.37-.48-1.52-.53-3.43.75-4.15 9.15-5.06 15.76-13.34 24.29-19.19z" fill="#fdfae1" transform="translate(-1.48 -211.83)"/><path d="m740.21 645.86c-29.71-19.32-34.84-45.66-24.21-85.48 3.94-14.73 12.87-25.51 26.75-32.08a26 26 0 0 0 12.25-11.49c6.42-7.12 6.33-15.91 6.55-24.7.54-22.54 14.89-36.25 36.62-35.6a19.22 19.22 0 0 1 13.6 6.13c6 6 11.92 12.08 17.53 18.44 4.27 4.83 8.11 5.72 14.1 2.26 17.52-10.09 33.07-7.32 45 7.19 1.85 2.24 4.56 4.28 2.33 7.76-4.23 4.28-9.69 2.79-14.55 2.57-19.1-.9-31.81 8.52-41.31 24-2.09 3.4-2.46 9.26-8.9 8.15a14.75 14.75 0 0 1 -.2-14.42c-4.5 7.29-4.59 15.36-3.37 23.61 1.1 7.48 3.36 14.71 4.65 22.16.45 6.93 2.52 13.71 2 20.73-2 23.84-8.17 45.6-30.31 59.1-3.5 2.13-7.17 4.76-11.74 2.55-5 .75-10.31.29-15 2.95-12.14 5.07-24.75 3.56-31.79-3.83z" fill="#020202" transform="translate(-1.48 -211.83)"/><path d="m250.13 664.3a89.65 89.65 0 0 0 -9.55 23.11c-9.46-1-12.44 6.82-15.71 12.69a188.14 188.14 0 0 0 -18.52 46.71c-7 28.5-7.62 57.76-11.64 86.59-2.48 17.86-4.93 36.19-12.37 53.11-33.14-14.94-46.6-42.23-45.12-76.67 1.09-25.32 12-47.48 29.08-66.76 22.6-25.55 45.45-51.21 59.11-83 9.17-21.33 16.52-43.45 24.69-65.21 14.19-7.22 26 1.57 38.53 5.67 1.12 4.12-1.44 7.11-3.69 9.76-12.82 15.13-22.94 31.9-31.52 49.7a22 22 0 0 1 -3.29 4.3z" fill="#fefbe1" transform="translate(-1.48 -211.83)"/><path d="m264.83 539.27c-9.49 14.94-11.4 32.52-17.09 48.78-24-2.39-48.11-3-72.1-4.56-19.93-1.29-41-4.57-61.06 2.52-5.17 1.83-9.63 3.79-13.21 8.67-6 8.19-13.48 14.52-25.16 13.41-10.11-1-15.29-9.59-10.25-18.66 6.49-11.68 17.6-15.16 29.8-15.73 5.06-.23 9.41-1.69 13.93-3.47 15.74-6.23 31.53-12.3 47.31-18.44 1.74 1.58 4.25.68 6 1.68 17.45 9.87 30.58 1.59 43-10 12.76-1 25.53-1.94 38.29-2.86 6.84-.48 13.71-.89 20.54-1.34z" fill="#faab73" transform="translate(-1.48 -211.83)"/><path d="m1030.6 496.82c-3.45-12.32.35-17.8 11.19-16.48 8.36 1 7.09 7.39 7.58 12.86 1.88 2.17 2.4 4.89 2.77 7.56 4 29.48 19.73 53.57 36.33 77.07 5.12 7.26 13.87 10.75 22.3 13.16 10.17 2.91 19.92 7.23 30.42 9.09 2.34.41 4.87 1 5.39 4-3.63 10.65-4.26 21.7-4.47 32.81-5.59 1-10.89-1.3-16.38-1.48l-34.88-12.14a170.74 170.74 0 0 0 -24.93-31.55c-6.15-6.19-9.09-14.65-13.49-22.07-6.33-21.47-13.75-42.63-18.16-64.65-.57-2.85-2.42-5.46-3.67-8.18z" fill="#ed995c" transform="translate(-1.48 -211.83)"/><path d="m787 646.73c20.65-5.76 30.35-21.27 35.88-40.38 1.92-6.65 4-13.28 4-20.32 2-6.31 6.11-11.14 10.94-15.47a8 8 0 0 1 4-.43c4.48 1 9.08.54 13.59 1.12a6.61 6.61 0 0 1 3.58 2.08c4.67 2.28 4.24 6.7 4.55 10.81-3.28 12 2.49 22.28 6.3 32.89s6 21.37 1.88 32.47c-4.6-1.23-4.06-5.5-4.88-8.74-1.65-6.45-2.4-13.12-4.49-19.48-3.85-11.76-12.49-13.56-21-4.37-1.87 2-2.83 4.66-4.44 6.87-8.41 15.35-8.35 31.68-5.24 48.2 1.26 6.66 1 13.88 5.67 19.62.91 3.21-1.14 5.74-2 8.55a8.14 8.14 0 0 1 -4.21.73c-9.32-1.91-18.11-5.09-25.67-11.06-7.06-5.57-16.07-5-24-7.72 1.78-11.8 2.33-23.79 5.54-35.37z" fill="#fee901" transform="translate(-1.48 -211.83)"/><path d="m1341.61 434.79c8.46-10.45 11-11.16 19.29-5.32 1.2 3.67 3.81 7.7 1.52 11.22-6.65 10.21-4.45 21.51-5 32.5q-.72 14.43-1.47 28.86c-4 27.16-13.78 52.21-27.4 75.89-7.44 11-16.87 20.16-27.5 28.09a112.47 112.47 0 0 0 -17-36.43c-.16-4.52 3.56-6.06 6.45-8 31.79-21.57 44.48-53.65 50.17-89.8a79.69 79.69 0 0 0 -.77-27.9c-.59-3.16-1.9-6.65 1.71-9.11z" fill="#ed995c" transform="translate(-1.48 -211.83)"/><path d="m725.28 494.62c-6 10.09-15.07 16.64-25.51 21.52-6.93 5.8-15.1 3.85-22.33 2.13-14.1-3.36-27.43-4-40.24 3.93-1.76 1.09-3.94 1.76-5.82-.16-2.71-10.15 2.21-18.84 7.69-25.83 14-17.87 32.54-28.11 56.12-27.06 9.12 2.85 18.52 2 27.86 2.1 6.84.06 10.66 2.05 7 9.85-2.05 4.31-3.21 9-4.77 13.52z" fill="#020202" transform="translate(-1.48 -211.83)"/><path d="m855.78 573.13c-4.92-.33-10.08 1.71-14.71-1.49-4.18-9-11.14-16.37-14.47-25.82-1.48-4.2-3.85-8.39.14-12.53 2-.59 2.53-2.36 3.3-4 9.65-20.14 24.13-32.67 48-30.71 4.18.35 8.44-.19 12.66-.31 4.32 18.63-1.57 35.64-9.52 51.82-2.77 5.65-9.76 8.65-16.24 10.61-4.24 1.43-8.84 1.63-12.91 3.46-.16 3.9 5.24 4.97 3.75 8.97z" fill="#ec985a" transform="translate(-1.48 -211.83)"/><path d="m299.56 868.21c-6.88-.05-7.83 5.3-9.21 10.17-4 14-4.47 28.26-3.66 42.65-12.17-3.72-24-8.42-36.6-10.83q14-45.91 31.07-90.76c8.84 4.82 7.16 14.83 10.85 22.2 1 2 .4 4.72 1.67 6.86 0 4.07 1 7.75 3.93 10.76.53.65 1.07 1.29 1.63 1.91l-.16-.11c2.03 2.26 2.31 4.63.48 7.15z" fill="#fdfae1" transform="translate(-1.48 -211.83)"/><path d="m321.36 1008.2c15.46 7.75 31 15.41 40.16 31.21-7.41 5.75-16.35 7.23-25.18 9-7.41 1.35-13.83 5.48-21 7.53-11.33-.63-20.44-5.29-26.78-14.88 7.37-14.5 20.44-23.28 32.8-32.86z" fill="#fee905" transform="translate(-1.48 -211.83)"/><path d="m30 855.6c-17.78-.31-29.26-12.6-28.48-29.31.36-7.7 14.29-20.58 21.78-20.42 2.82.06 3.49 1.55 4.14 3.75 3.57 12.08 7.32 24.11 10.85 36.19 2.45 8.37-1.19 11.27-8.29 9.79z" fill="#fee905" transform="translate(-1.48 -211.83)"/><path d="m1155.33 1050.32 34.06.12a4.8 4.8 0 0 1 4.33 2.73c2.56 6.83 9.12 9.79 13.7 14.66 2.69 8.52-3.17 9-9 9.54h-37.63c-11.2-4.87-7.72-14.8-8.1-23.4z" fill="#020202" transform="translate(-1.48 -211.83)"/><path d="m1242.63 1052 31.51.07c5.51 5.47 8 13.19 15.3 17.68 4.91 3 2.58 10.06-2.52 9.31-12.87-1.9-25.89 2.27-38.59-1.53-5.23-.56-9.74-2.11-11.11-8 .08-6.42-1.85-13.4 5.41-17.53z" fill="#050504" transform="translate(-1.48 -211.83)"/><path d="m95.43 1010.64 18.35 27.51c-3.41 5.18-2.21 11.07-2.59 16.73-.15 2.2-.86 4.29-3.3 4.83a3.76 3.76 0 0 1 -4.42-2.33c-5-10.32-11.9-19.46-17.74-29.25-5.36-8.97-3.73-16.01 9.7-17.49z" fill="#050504" transform="translate(-1.48 -211.83)"/><path d="m243.07 389.33c12.59 13.87 10.25 22.84 3.1 31.73-6 7.44-16 6.51-29.43-2.13z" fill="#f80160" transform="translate(-1.48 -211.83)"/><path d="m288.56 1041.07c8.32 5.92 16.27 12.59 27.11 13.44 10.23 7.84 12.29 12.64 9.19 21.35-8.35.78-15.74-2.47-23.18-5.48-1.34-2.87-3.71-4.26-6.58-5.54-13.37-5.97-14.83-11.63-6.54-23.77z" fill="#050504" transform="translate(-1.48 -211.83)"/><path d="m967.29 255.6c-8.35 11.09-22.38 9.9-30.12 2.86-7.06-6.43-6.28-16.44 2.2-27.58z" fill="#fb0160" transform="translate(-1.48 -211.83)"/><path d="m687.3 313a96.9 96.9 0 0 1 -35.34.36c.23-10.55 5.39-17 14.27-18.53s16.06 4.09 21.07 18.17z" fill="#fee905" transform="translate(-1.48 -211.83)"/><path d="m206 543.49c-8.64 17.61-34.31 22-49 8.3 15.4-8.22 32.23-8.05 49-8.3z" fill="#e09966" transform="translate(-1.48 -211.83)"/><path d="m1328.56 577.94c2.48-11.58 9.2-21.47 13-32.59 3.94-11.68 8.7-23 10.79-35.3.48-2.79.9-6 3.65-8 1.23 19.45 1 38.61-12.33 54.77-5.57 6.69-7.22 16.12-15.11 21.12z" fill="#d08955" transform="translate(-1.48 -211.83)"/><path d="m1052.43 569.65c4.43 1.43 5.08 5.86 6.87 9.16 6.31 11.67 17.32 19.38 24.77 30.07 3.11 4.46 5.91 8.94 6.79 14.39-15.49-3-22.46-15.1-28.66-27.59-4.12-8.3-7.96-16.81-9.77-26.03z" fill="#d08955" transform="translate(-1.48 -211.83)"/><path d="m408.93 222.87c9.24-5 19.33-7 29.48-11 2.81 8.95.86 15.78-5.79 20.43-7.06 4.89-14.86 1.54-23.69-9.43z" fill="#fee905" transform="translate(-1.48 -211.83)"/><path d="m321.42 932.12c9.6 2.89 14.66 11.29 21.28 17.73 2.54 2.48 2.56 6.19.36 9.21s-5.41 3.59-8.94 3.22c-4.37-.45-6.55-3.88-9.26-6.61-.71-4.21 1-8.7-1.44-12.72-3.18-3.15-4.89-6.56-2-10.83z" fill="#c10257" transform="translate(-1.48 -211.83)"/><path d="m1239.61 1070.13c1 4.76 5.48 5.31 8.72 7.37-16.63.83-33.27.49-49.9-.13 4.36-2 10.21-2.87 7.09-10.07 3.56-4.24 8.13-2.75 12.37-1.89 7.26 1.45 14.39 3.59 21.72 4.72z" fill="#9e8ec0" transform="translate(-1.48 -211.83)"/><path d="m1362.22 903.26 9.17-21.18c6.54 3.85 11.8 6.88 8.45 15.16-3.27 8.08-8.99 8.41-17.62 6.02z" fill="#fee905" transform="translate(-1.48 -211.83)"/><path d="m321.42 932.12q1 5.42 2 10.83c-7.56-3.41-14.85-7.25-20.58-13.44 6.51-1.39 12.78-1.1 18.58 2.61z" fill="#fdfae1" transform="translate(-1.48 -211.83)"/><path d="m855.78 573.13c-1.48-4.2-6.86-4.66-8.84-9.28 5.79-3.13 11.55-4.9 18-3.13-2.92 3.77-5.6 7.66-6.06 12.61z" fill="#d08955" transform="translate(-1.48 -211.83)"/><path d="m832 699.29 3.32.85c8.3 6.32 7.8 16.08 8.78 24.73 2.57 22.71 11.6 43.52 18.83 64.7a381.4 381.4 0 0 1 20.37 134c-.75 30.48-4.43 60.91-2 91.46.83 10.54 1.41 21.1 2.11 31.65a12.89 12.89 0 0 0 4.59 11.32q1.41 1.65-.47 2.71c-9.48 1.56-19.07 4.52-28-2q-.13-6-.29-11.92c-2.82-1.82-3.49-4.79-4.2-7.76-4.59-19.11-8.34-38.3-11.15-57.82-3.17-22-3.9-44-3.31-66 .35-13.31-3.29-24.9-9.91-36.14-7.21-12.26-15.56-23.85-21.7-36.75a89.5 89.5 0 0 1 -7.62-23.19c.43-12.28 5.08-23.53 8.92-34.91 8.34-24.73 9.27-51 16.7-75.92 1.03-3.37.88-7.37 5.03-9.01z" fill="#c10257" transform="translate(-1.48 -211.83)"/><path d="m1102.65 1044.83c-1.89 3.7 2.49 11.14-3.49 11.27-7.4.17-2.45-7.56-4.16-11.42a8.35 8.35 0 0 1 -.35-1.75c0-12.43.33-24.86 0-37.28-.17-6.43-2.1-12.46-7.59-16.8-7.27-5.76-9.61-12.83-5.55-21.67 1.24-2.69 2.27-5.88 2-8.74-.4-5.18-.12-11.13-8-11.86-16.16-1.5-30.68-16.16-31.69-32.91-.62-10.31-2.27-21.26 6-31.18 13 6.94 21.23 19.61 34 27.8.19-6.31-2.77-10.41-6.18-14.27-4.27-4.82-9.65-8.26-14.78-12.06-8.68-6.45-10.3-12.36-6.13-22.08 2.26-5.26 5-10.34 7.54-15.47 2.12-4.24 4.81-7 10.29-7.43 6.1-.51 9.58-4.64 7.9-11.25-1.34-5.29.22-9.48 4-13.13a1.36 1.36 0 0 1 2.15.73c2.18 11.67 12.76 16 20 24.06 5.6-5.31 4.16-10.51 1.92-15.41-3.54-7.8-8.39-14.18-18.42-13a1.91 1.91 0 0 1 -1.66-1.64c4.77-7.66 7.35-7.74 14.86-2.09 19.14 14.38 21 33.06 14.33 54.17-1.17 3.66-3.11 7.26-2 12.08 3.92-3.32 4.19-8 6.21-11.72 2.91-5.34 6.11-6.63 11.68-3.31 12.93 7.7 16.65 24.85 8 38.86-5.38 8.69-10.78 17.36-16.23 26.13 4.57 3.1 5.6-1 7.47-2.8 2.88-2.77 5.53-5.92 10.16-4 4.45 1.89 8 4.91 8.2 10 .81 21 4.33 31.42-21.5 45.81l-1-.85c-1.09-4.06 1.86-6 4.35-8.11 1.83-1.56 3.86-2.89 5.33-4.84 2-2.6 3.21-5.51.19-7.95-2.72-2.2-5-.25-7 1.78a21.07 21.07 0 0 0 -2.64 3.65c-5.24 8.39-9.6 17.34-16.12 24.92-2 2.27-3.73 5-.89 8a2.39 2.39 0 0 1 .35 2.33 92.88 92.88 0 0 0 -11.55 53.43z" fill="#fee905" transform="translate(-1.48 -211.83)"/><path d="m835.46 622.31c1.69-6.79 6.71-10.12 12.72-12.69 7-3 12.46-1.16 14.67 6.28 3.3 11.1 5.9 22.39 8.8 33.6 2.71 16.08 2.86 32.38 4.26 48.56 1.79 20.64 15.91 33 32.88 42.52 3.67 2.06 7.71 3.49 11.3 5.68 3.9 2.38 6.47 5.88 4.21 10.65s-6.82 4.29-11.11 3.85a4.44 4.44 0 0 1 -2.5-.91c-13.87-13.35-32.56-21-44.11-37.09a7 7 0 0 1 -.63-3.47c2.58-14.08-3.47-23.44-15.91-29.38-2.71-4.28-2.11-10.15-6.6-13.56-7.44-17.35-13.73-34.79-7.98-54.04z" fill="#ed995c" transform="translate(-1.48 -211.83)"/><path d="m1153.29 640.52c5.7-3.57 12.17-5.45 18.55-6.8 16.59-3.53 27.16 9.26 22.43 26.62-2.25 8.26-6.52 15.67-10.73 23-3.9 6.79-9 12.9-11.16 20.64-.84 3-3 4.49-6.21 3.93 3.22-14.24 2.91-28.71 3.65-43.17.67-13.23-4.54-20.55-16.53-24.22z" fill="#b1a8ba" transform="translate(-1.48 -211.83)"/><path d="m835.46 622.31c-1.08 16.84 2.59 33 7.56 48.86.53 1.7 1.44 3.37.42 5.19-3.65 4.43-3.31 10.48-6.16 15.24-2.21 1.2-4.32 1.27-4.88-1.61-4-20.55-8.65-41.1-.75-61.83.88-2.32 1.52-4.55 3.81-5.85z" fill="#d9c501" transform="translate(-1.48 -211.83)"/><path d="m850 689.91c13.74.31 23.31 15.23 16.54 32.85-8.77-9.3-13.71-20.54-16.54-32.85z" fill="#d08955" transform="translate(-1.48 -211.83)"/><path d="m1131.56 972.45c-5.9 6.21-12.53 11.75-17.41 18.9l-1.44-1.31c0-9.17 7.08-17.09 17.22-19.28.55.56 1.07 1.13 1.63 1.69z" fill="#fee905" transform="translate(-1.48 -211.83)"/><path d="m1139.92 725.74a3.73 3.73 0 0 1 4.12-1.29c-.55 1.63-2 1.89-3.38 2.11z" fill="#9e8ec0" transform="translate(-1.48 -211.83)"/><path d="m1086.38 814.6 2.82-2.83.77.91c.21 1.77 0 3.2-2.36 2.94q-.61-.48-1.23-1.02z" fill="#fee905" transform="translate(-1.48 -211.83)"/><path d="m1147.32 509.93-.53.11.08-.4z" fill="#9e8ec0"/><g transform="translate(-1.48 -211.83)"><path d="m1089.2 811.77c.39-.82.79-1.64 1.18-2.47l1 1c0 1.31-.54 2-1.92 1.73z" fill="#fee905"/><path d="m1144 724.45c.21-.43.42-.86.64-1.29 1.45 1.3-.35.89-.67 1.26z" fill="#9e8ec0"/><path d="m383.22 1030.45c2.14-10-1.28-21.32 7.24-29.89 2.43-2.44 4.79-4.86 8.36-4.79 22.66.46 35.43-14.32 47.42-30.4a53.41 53.41 0 0 1 4.1-4.81c12.33-13 12.64-29.62.76-43.51-3.92-4.59-7.9-9.13-11.85-13.69 14.49-30.45 26.51-61.94 39-93.23a118.16 118.16 0 0 1 8.53-17.92c9.62-15.69 17.06-32.4 24.21-49.27 1.51-3.14 4.44-3.88 7.5-4.37a18.23 18.23 0 0 1 5.45-.29c24 3.44 48.29 5.08 71.54 12.6 3.18 1 6.33 2.33 7.6 5.9.44 2.56-.61 4.76-2 6.77-18.17 27.12-31.92 56.69-47.46 85.27-7.26 6.72-12.09 15.25-16.47 23.83-8.66 17-17.94 33.65-26.2 50.87-9.77 20.38-18.69 41.33-33.25 59.12a57.82 57.82 0 0 1 -15.68 13.58c-13.84 8.13-27.33 16.89-42.27 23-9.64 6.3-20.95 8.15-31.57 11.84-1.65.6-3.44.8-4.96-.61z" fill="#fee901"/><path d="m602.35 759c-1.75-5.79-7.34-5.7-11.62-7-14.1-4.43-28.67-6.35-43.4-7.69-8.92-.82-17.54-4.12-26.76-3.54a24.89 24.89 0 0 0 -9.57 2.23c-5.9-6.81-5.49-17.7 2.79-28.24 6.32-8 11.34-16.87 17.45-25 7.92-7.46 16.84-13.11 26.63-18.17 15.79-8.15 26.74-22.12 36.91-36.45a10.23 10.23 0 0 1 2.29-2.74c1.63-1.19 2.22-3 2.71-4.84 1.2-2.78 3-5.26 3.89-8.19 4.09-13 1.46-18.8-11.15-24.31-1.95-.85-4-1.5-5.07-3.56 11.36-8.45 23-8.57 34.87-1.11 2.37 2.14 1.9 5.58 3.67 8 4.84 10.24 12 16.26 24.13 13.31a5.94 5.94 0 0 1 5 1.48c9.21 5.29 13.75 13.43 14.63 23.82a10.16 10.16 0 0 1 -3.49 7c-5.54 4.8-7.63 11.55-9.9 18.06-6.26 17.94-12.12 36-21.9 52.49-5.65 9.75-8.53 20.34-10.44 31.39-2.24 13-7.51 17.18-19 16.36a4.13 4.13 0 0 1 -2.67-3.3z" fill="#fa0160"/><path d="m597.79 633.33a1.48 1.48 0 0 0 -1.18 1.13c-14.18 12.43-29.53 22.11-49.5 20.85-24.1 1.32-44.1 9.16-54.88 32.92-6.61 14.58-14.25 28.7-20.92 43.25-2.48 5.41-4.41 11.18-4.35 17.47.07 7.82-2.25 14.85-8.65 20.1-5.43 4.45-9 3.49-11.62-2.84-2.92-7-.72-13.34 2.86-18.94 4.85-7.57 7-15.67 9-24.32a445 445 0 0 1 21-66.32c10.3 1.87 16.34-4.33 22-11.46 5.08-6.42 7.16-14.7 12.94-20.67 22.67-14.65 48.16-23.07 73-33 25.11 4 24.27 22.28 13.21 38.39.3 2.21-1.36 2.76-2.91 3.44z" fill="#f6aa72"/><path d="m401.53 604.17c-13.27-9.6-15.84-23.22-14.45-38.33 10-4.82 18.49-10.41 20.39-23.11 1-6.52 5.61-12.5 8.59-18.73a8.05 8.05 0 0 0 1.73-2l-.17.18c5.14-4.93 11.69-4.87 18-4.38a285.11 285.11 0 0 1 55 9.85c3.3 22.49-7.53 38.86-23.14 53.1a203.54 203.54 0 0 1 -15.72 13.53c-13.37 9.88-26.57 6.72-39.47-1.32-5.36-4.49-5.23-11-6.59-17.13.34 6.92-2.42 13.15-4.15 19.61z" fill="#faab73"/><path d="m631.38 522c12-7.66 25.25-12.16 39.17-8.13a69.86 69.86 0 0 0 26.55 2.72c.89-.08 1.78-.32 2.67-.49 5.92 3 7.51 9.15 7.77 14.44.76 15.48 1.29 30.85-7 45.44-6.45 11.42-14.26 18.19-27.76 17.35-2.31-.14-4.69.81-7 1.26-11.06-3.84-21-9.79-30.91-15.93.91-6-1.88-11.13-3.27-16.63a83.27 83.27 0 0 1 -.22-40.03z" fill="#f6aa72"/><path d="m357.76 730.22c12.84.38 25.41-1.84 38-4 .17 13.24 4.14 25.25 9.53 37.4 8.82 19.86 17.18 39.91 26.6 59.54 3.91 8.16 3.63 17.85 14.25 22.49 4.15 1.82 5.44 9.27 3.76 14.79-2 6.51-8.91 8-12.39 2.37-20.42-32.83-47.68-60.6-68.71-93a50.63 50.63 0 0 1 3.8-11.13c4.52-10.17 1.94-17.26-7.86-22.54-2.74-1.41-6.84-1.41-6.98-5.92z" fill="#faab73"/><path d="m293.68 848.5c-6.62-8.64-6.5-20.17-12.53-29.06 8.45-28.25 21.41-54.52 35.55-80.25 1.18-2.14 2.75-4 2.59-6.6l12.93-8.11c7.43 20.8 10.26 42.77 16.35 63.91 1.72 6 3.51 12 5.27 17.93-9.74-3.18-18.23-9.41-28.56-11.28-10-1.81-16.55 1.27-20.17 10.67a201.18 201.18 0 0 0 -11.43 42.79z" fill="#c10257"/><path d="m490.63 527.7c-14.39.89-28.13-3.3-41.87-6.29-10.76-2.34-20.81-1.06-31.14.82-1.84-9.69 4.3-16.38 10.1-22 11-10.62 22.44-21.36 40.09-18.22a23.61 23.61 0 0 1 8.27 3.32c9.36 5.61 18.76 10.64 30.34 10.42 4.43-.08 10.17.88 11.64 6.67 1.33 5.21-3.54 6.84-6.48 9.78-6.25 6.25-12.98 11.66-20.95 15.5z" fill="#020202"/><path d="m547.11 655.31c18.29-2.71 33.9-11.75 49.5-20.84.33 3.08-1.75 4.89-3.51 7-12.78 15.37-25.67 30.42-45.46 37.52-6.08 2.18-9.46 9.33-16.4 10.72 5.86-11.2 12-22.28 15.87-34.4z" fill="#c10257"/><path d="m357.76 730.22c4.38 4.46 11.39 4 15.65 9.95 4.82 6.77 5.52 12.44 1.39 19-2.2 3.49-1.6 8.53-6 10.74-8.63-11.67-16-23.85-15-39.18z" fill="#e09966"/><path d="m514.5 624.5c-4 11.43-9.15 22.33-18.75 30-4.29 3.41-9.75 9.49-16.15 2.16 4.98-17.94 19.28-25.76 34.9-32.16z" fill="#e09966"/><path d="m634.87 578.7c11.63 2.74 21.41 9.07 30.91 15.93l-3.55 2.24c-12.54 5.23-25.48 2.59-38.32 1.94-2.86-2.39-1.19-5.63-1.6-8.48 5.86-2.08 8.62-7.49 12.56-11.63z" fill="#e09966"/><path d="m401.56 595.49c-1.26-2.7-2.86-5.32-.42-8.29 4.45-5.42.34-12.33 3.7-19.73 5.24 8.53 3.76 17.92 7.46 25.55z" fill="#e09966"/><path d="m345.11 708.44c1.46-6.88 7-10.88 11-16a24 24 0 0 1 -5.45 15.51z" fill="#d9c501"/><path d="m403.69 607.83c-1.91-.54-2.3-2-2.2-3.7 1.86.56 1.85 2.24 2.2 3.7z" fill="#faab73"/><path d="m343 710.18 2.13-2z" fill="#d9c501"/><path d="m417.79 522.05c.27 1.4-.43 1.94-1.73 2 .2-1.05-.28-2.62 1.73-2z" fill="#020202"/><path d="m419.5 1017.22c12.9-7.08 25.7-14.34 38.73-21.19 14.91-7.84 24.12-20.89 31.64-35 10.59-19.93 19.7-40.64 30.36-60.54 8.53-15.93 15.27-32.9 26.42-47.39 1.79-2.33 2.67-5.56 6.23-6.08 6.09 1.5 10.23 6.25 15.33 9.38 13.91 8.52 28.51 15.81 42.18 24.82 25.28 16.66 44.38 38.93 61.21 63.51 2.62 3.82 4.36 8 3.35 12.8-2.54 6.6-8 11.18-12.12 16.61-10.7 14-22 27.65-31.47 42.59-2.39 1.42-5.25 1.34-7.76 2.38-4.17 1.74-6.6 5-5.12 9.29 3.47 10.16 6.16 20.59 10.33 33.24 6.92-10.58 7.94-21.48 14.05-29.77 10.43-8.64 20.91-17.23 30.39-27 2.21-2.26 5.23-4.67 8.51-1 1.87 4.61 1.41 9.32.66 14-8.91 19.43-8.69 20.25 9.85 32.76 8.71 5.89 17.15 12.29 27.55 15.14l.87 1c-12.42 5.14-25.87 6.48-38.8 6.8-28.2.71-54.91 7.93-81.81 14.81-15 3.83-30.09 7-45.7 5.69-18.24-1.57-36.28 3-54.49 1.63-7.44-3.33-12.64-9.47-17.51-15.44-17.1-21-37.9-37.89-58.31-55.3-2.36-1.96-6.07-3.4-4.57-7.74z" fill="#fefbe1"/><path d="m887.91 1059.21a3.78 3.78 0 0 0 .09-1.21c16.9-.87 33.27-5.39 50.23-6.66 18.4-1.37 36.73-4 54.94-.54 13.22 2.53 26.56 1.89 39.74 2.71a423.59 423.59 0 0 1 52 6.55c10.93 2 22.23 1.83 33 4.93 1.67.48 3.73 0 4.54 2.84-7.21 2.84-14.08-1-21-1.21a388.52 388.52 0 0 0 -133.91 19.26c-18.35 6-36.4 13-54.51 19.74a587.07 587.07 0 0 1 -61.21 19.31c-11.41 2.88-22.43 6.91-33.82 9.89-16.45 4.31-33.14 6.12-49.81 8.36-21.38 2.86-43 2.64-64.46 1.8-33.5-1.31-67.06-.47-100.5-2-26.74-1.27-53.36-5.6-79.93-9.22-16.4-2.24-33.11-3.14-48.91-8.62-28.28-9.81-57.36-16.78-86.15-24.76-3.16-.87-6.6-1.39-8.79-4.32l.06-.07c11 .08 21.1 4.8 31.91 6.14 25.1 3.1 49.74 9.66 75.4 8.59 25.44-1.06 50.45 3.92 75.63 6.7 11.71 1.3 23.67.09 35.5.52a490.39 490.39 0 0 0 107.42-7.63 325.91 325.91 0 0 0 53.19-14.77c31-11.45 63-19 94.48-28.66a40.87 40.87 0 0 0 4.16-1.77c2.88 9.58 9.87 11.27 18.78 10.32 8.55-.91 17.33 1 26.21-1.34-.34-4.77-4-5.37-6.62-7-3.16-2.03-7.52-2.91-7.66-7.88z" fill="#baafd2"/><path d="m803 819.52c6.87 25.41 23.95 45.62 35.26 68.78a44.81 44.81 0 0 1 4.83 20.84 558.71 558.71 0 0 0 4.49 78.54c2.58 20.16 9.15 39.18 11.7 59.13a249.75 249.75 0 0 1 -73.89 12.43c-19.21.2-37.9 2.89-56.53 7.06-2.61.59-5.41.36-8.13.51-.47-8.66-3.8-16.31-8.24-23.59-1.59-2.6-2.91-5.31-2.94-8.47 5.52-17.23 11-34.42 13.14-52.55.86-7.2.16-14.51 1.86-21.61 3.25-6.75 9.33-11.05 14.41-16.17 21-21.15 37-45.11 46.35-73.74 4.7-14.34 7.94-29.16 13.83-43.12 1.11-2.75 1.16-6.02 3.86-8.04z" fill="#fefbe1"/><path d="m887.91 1059.21c3.31 4.32 8.73 4.93 13.06 7.44 2.72 1.58 6.42 3.21 5.31 7.3s-4.7 3.94-8.15 3.9c-9-.11-18-.09-27.08-.11-13.18 0-13.18 0-13.82-12.68.77-2.1 1.53-4.21 2.3-6.33z" fill="#020202"/><path d="m379.48 1096h-8.29c3.76-2.75 6.11-2.26 8.35-.07z" fill="#baafd2"/><path d="m1288 656.87c-10.34-5.6-16.85-18.19-14.16-29.25 1.7-7 6.5-11.27 14.41-10.61-7.14 9-6.63 18.48-2.5 28.55 1.38 3.49 1.49 7.52 2.25 11.31z" fill="#b1a8ba"/><path d="m1190 1034a464.49 464.49 0 0 1 7.67-70c4-20.38 12.73-39.51 14.56-60.4 1.12-12.85 3.45-25.61 4.65-38.46.65-7 3.12-13.32 5-20.19 13.37 16.55 23.89 85.82 20.38 119.92a314.46 314.46 0 0 1 -46.25 66c-1.57 1.76-3.08 3.78-6.01 3.13z" fill="#fdfae1"/><path d="m372.14 1072c-10 .07-19.91.19-29.86.2-10.14 0-12.88-4.63-8.42-14 .89-1.87 1.44-3.9 2.16-5.85 10.06-4.51 20.11-4.65 30.14.09 2.93 6.28 6.61 12.28 5.98 19.56z" fill="#050504"/><path d="m394.11 877.08c.29-4.17-.72-9.09 1.06-13.78.85-2.24 1.42-4.85 4.13-5.61 3-.83 6.15.69 7.1 2.88 2.51 5.79 12.72 6.86 10.44 14.49a34.12 34.12 0 0 1 -10.16 15.8c-2.89 2.48-6.27 4.08-10 2.27-3.48-1.68-2.38-5.21-2.52-8.12-.16-2.42-.05-4.86-.05-7.93z" fill="#fdfae1"/><path d="m325 811.93c-.28 7.67-6.14 14.81-11.89 14.6-5.55-.21-5.92-4.76-6.25-8.34-.57-6.23 7.11-17.15 11.2-17 4.65.25 7.2 4.18 6.94 10.74z" fill="#c10257"/><path d="m298.73 901.73c4.3 0 11.32 9 11.32 14.88 0 5-2.86 8.46-7.77 7.88-7-.83-11.49-5.35-11.81-12.6-.24-5.39 2.82-8.95 8.26-10.16z" fill="#fdfae1"/><path d="m299.56 868.21-.48-7.15c14.9-1.36 23.53 7.16 31.88 21.41l-28.87-12.3a5 5 0 0 1 -2.82-2z" fill="#c10257"/><path d="m366.16 1052.49-30.16-.09c-.2-1.88-.39-3.76-.59-5.64l26.09-7.35c2.86 3.9 4 8.41 4.66 13.08z" fill="#c10257"/><path d="m379.63 1060c.8.37 1.59.78 2.41 1.13 3.5 1.51 8.22 2.88 7.3 7.47-1 5-6 3.53-9.74 3.5z" fill="#050504"/><path d="m381.28 868.25-.44 2.57c-1.52-1.44-.81-2.05.57-2.46z" fill="#fefbe1"/><path d="m299.24 861.17c-2 .58-1.4-1-1.63-1.91z" fill="#c10257"/><path d="m299.27 868.15c2-.79 2.05 1.11 2.82 2-1.17-.32-2.49-.48-2.82-2z" fill="#fdfae1"/><path d="m250.13 664.3a170 170 0 0 1 28.87-49.61 72.66 72.66 0 0 0 9.68-14.13c16 .48 30.64-4.88 46.4-12-1.87 5.88-5.1 7.78-8.5 9.36-23.68 11-41.34 28.94-58 48.33-5.66 6.39-10.67 13.75-18.45 18.05z" fill="#d9c501"/><path d="m1207.82 591.48-.1-8.9c4.72-6 16-8 20.42-3.55-.89 3.47-2.5 6.81-2 10.54z" fill="#d08955"/><path d="m1136.64 420.69c-.82 7.09-6.54 5-8.91 8.81 1.22 6.47 2.59 13.55 3.89 20.64.45 2.49 2.33 5.83-2 6.51-4 .63-3.84-3.12-4.42-5.57-1.11-4.71-1.91-9.49-2.89-14.24-1.73-8.33-2.07-8.47-10.91-5-.27 9.07-7.22 18.94 4.66 26.12-6.73 4.8-8.5-.29-11.12-3s-4.63-7.2-9.53-4.87c-4.4 2.1-1.47 5.79-1.16 8.83.22 2.18.62 4.46-2.2 5.13s-3.79-1.26-4.24-3.52c-1.91-9.75-3.77-19.5-6-31.19 19.19 1.08 35.94-8.76 54.83-8.65z" fill="#f41974"/><path d="m1295.73 386.19c4.74 12 5.09 22.67 7.75 32.78a3.27 3.27 0 0 1 -2.29 4.28c-2.3.81-4.17-.16-5.72-1.78-5.19-5.41-10.33-10.86-15.49-16.3l-2.6 1.35c.88 4.75 1.79 9.49 2.65 14.25.46 2.56 2 5.89-2 6.63-3.16.59-3.68-2.51-4.15-4.88-1.81-9.17-3.56-18.35-5.56-28.73 13.16-2.22 15.49 12.21 24.79 14.86 3.69-6.43-4.86-14.07 2.62-22.46z" fill="#f41974"/><path d="m1191 432.34c-1.36 10.88-8.76 17.26-18.33 16.53s-16.67-8.94-16.67-19.35a17.46 17.46 0 0 1 17-17.78c7.19-.2 13.28 2.09 16.11 12.1-9.43-1.72-18.15-12.09-24.85 0-5.15 9.31 3.44 20.36 13.22 18.16 6.06-1.34 5.45-10.62 13.52-9.66z" fill="#f41974"/><path d="m1357.2 386.19c-4.63 3-6.45-.49-9-1.64a6.68 6.68 0 0 0 -7.64 1 3.39 3.39 0 0 0 -1.08 4.08c1.19 2.58 3.72 2.81 6.14 3.11.9.11 1.82.12 2.73.15 5.81.17 11.09 1.34 12.52 8.06 1.09 5.09-1.09 8.93-5.61 11.28-5.65 2.94-11.52 4.29-17.1 0-2-1.5-5.09-3.53-2.57-6.59 2-2.48 4.26-.88 6.15 1a6.49 6.49 0 0 0 6.67 1.86c2.66-.78 5.49-1.65 5.53-5.08s-2.72-3.51-5.12-3.89a42.89 42.89 0 0 0 -4.52-.55c-6.31-.37-11.66-2.17-12-9.62-.29-7.22 4.83-10 10.86-11.27 6.71-1.32 11.84.64 14.04 8.1z" fill="#f41974"/><path d="m1219.24 426.2c-1.42 3.58-.12 6.46.32 9.38.3 2-.32 3.66-2.45 4.15s-3.42-.77-3.83-2.78q-2.74-13.72-5.36-27.48c-.16-.82-.09-2.18.42-2.56 5.59-4.19 12.27-4.81 18.76-4.19 5.48.52 8 4.88 8.26 10.31.28 6.73-3.87 9.61-9.71 11.09-2.28.57-4.49 1.45-6.41 2.08z" fill="#f41974"/><path d="m1031.66 462.75c-1.18 3.69.1 6.26.56 8.91.4 2.3.24 4.44-2.58 4.84s-3.52-1.67-4-3.92c-1.63-8.33-3.37-16.64-4.92-25-.26-1.37-.27-3.81.45-4.19 6.25-3.32 13.07-4.94 20.06-3.6 5.32 1 7.07 5.76 7.1 10.46.05 7.15-5.2 9.66-11.25 11-1.71.44-3.43.96-5.42 1.5z" fill="#f41974"/><path d="m1051.62 470.79c2-10.84 3.53-21.79 6.14-32.49 1.3-5.36 5.86-5.36 8.77-1.22a250.5 250.5 0 0 1 17.35 29c-12.26-6.6-22.63-5.76-30.5 7.25-.59-.83-1.18-1.68-1.76-2.54z" fill="#f41974"/><path d="m1269.6 430.67c-11.67-7.45-21.93-7.75-30 5.2-.51-13 2.17-24.15 4.69-35.2.88-3.88 5.27-5.16 7.75-1.61 6.5 9.34 12.26 19.2 18.31 28.86-.26.91-.51 1.83-.75 2.75z" fill="#f41974"/><path d="m1312.31 391.54c-2.78.36-4.52.59-6.27.8-2.09.26-3.72-.52-4-2.64s1.36-3.21 3.25-3.6q8.91-1.86 17.85-3.54c1.81-.35 3.83-.56 4.63 1.62 1 2.75-1 3.77-3.1 4.5l-5.47 1.84c1.5 7.76 2.9 15.17 4.37 22.55.48 2.42 1.41 5.17-1.88 6s-3.91-2-4.43-4.37c-1.63-7.35-3.17-14.7-4.95-23.16z" fill="#f41974"/><path d="m1152.84 447.84c.23 2.56 0 4.42-2.27 4.88s-3.53-.91-3.94-2.85c-2-9.19-3.84-18.39-5.61-27.62a2.92 2.92 0 0 1 2.86-3.77c2.28-.2 3.24 1.33 3.64 3.24 1.84 8.9 3.63 17.82 5.32 26.12z" fill="#f41974"/><path d="m1205.1 438c.42 2 .14 3.74-2.13 4.28a3.06 3.06 0 0 1 -4-2.61q-2.87-13.8-5.53-27.64c-.37-1.95.38-3.72 2.63-4s3.34 1.31 3.73 3.2c1.8 8.87 3.53 17.77 5.3 26.77z" fill="#f41974"/><path d="m803 819.52c-4.32 15-7.82 30.28-13.25 44.85-3.35 9-5.35 18.34-9.85 27.09a221.85 221.85 0 0 1 -53.35 67.8c-5.4-6.19-2.36-13.86-3.51-20.79a152.47 152.47 0 0 1 -2-31.38c13.76-21 19.66-43.57 15.79-68.94-2-13.37-.63-27.18-.33-40.8a19.62 19.62 0 0 1 2.88-10.35c3.8-4.12 8.92-2.64 13.57-3.11 4.09-.42 8.53-1 8.08-6.3-.48-5.65-4.87-7-10-6.49-3.21.29-6.17 2.72-9.61 1.14 4.7-23.85 8.55-47.93 21.79-69.16a87.19 87.19 0 0 1 18.15-21c8.89-3.11 17.05 0 23.74 4.91 8.26 6.07 17.28 9.55 26.85 12.28-5.44 18.2-8.8 36.82-11.75 55.56-3.44 22.17-13.08 42.7-17.2 64.69z" fill="#fb0160"/><path d="m741.46 772.23c4.13-1.66 7.73-4.51 12.68-4.16 6.6.46 10 4.07 10.35 10.15s-3.65 8.35-9.34 8.25c-4.82-.08-9.64-.05-14.46-.06a10.61 10.61 0 0 1 -7.54 2.62c-16 0-32.07 1-48.07-.6-5.4-2.2-9.23-6.67-13.05-10.61-7.14-7.36-15.09-12.46-25.25-14-7.35-10.75-10.5-22.8-11.16-35.64 14.18-17.88 17.08-39.51 20.38-60.97 1.41-9.06 4.15-17.57 9.89-24.91l3.82-5.35c3.25 7.78 5.47 15.69 5.41 24.29-.2 27.91.12 55.82-.19 83.73-.09 9.07 4 14 12.27 16.55 15.55 4.78 32.27 4.88 47.3 11.87a6.83 6.83 0 0 0 6.96-1.16z" fill="#f6aa72"/><path d="m740.21 645.86c10.15 5 21 4 31.83 3.82-3.5 3.72-7.18 7.28-10.47 11.18-15.22 18-18.55 40.63-23.91 62.42-.54 2.19 0 4.83.68 7.11 2.74 9.76-1.49 17.74-6.35 25.54-1.56 2.5-4.06 3.47-7.1 3.08-3.74-.49-5.27-3.37-5.58-6.3-.61-5.68-1.34-11.54.65-17.12 6.23-17.5 7.53-35.67 8.16-54 .44-12.99 6.19-24.46 12.09-35.73z" fill="#ed995c"/><path d="m623.91 598.81c8.61-4 17.72-1 26.56-1.82 3.89-.37 7.84-.1 11.76-.12-2.43 5.39-8.41 9.24-7.11 16.26-20.26 2.79-21.93 2.03-31.21-14.32z" fill="#f6aa72"/><path d="m827 488.85c-4.38-2.29-8.54-4.58-13.24-5.82-12.36-3.27-22.14 2.92-23.56 15.55-.57 5.08-1.21 10.66.26 15.36 3 9.76-.68 17-6.25 24.21-6.75 8.7-10.08 17.81-7.55 29.44 3.23 14.88-.59 29.48-6.37 43.3-3.24 7.76-14.77 12.66-24 11.24-12.79-2-21.33-10.07-23.65-21.81-5.54-28.08 6.87-53.05 31-64.9 14.7-7.22 17.35-20.76 18-35.07.24-5.53.81-11 3-15.9 7.75-17.46 21.58-21.18 37.71-10.53 7.73 5.08 12.9 10 14.65 14.93z" fill="#424141"/><path d="m826.74 533.29c-1.25 9.73 3.83 17.29 9 24.56 3 4.28 6 8.24 5.32 13.79l-3.38.25c-5.13-1.09-10-2.63-12.67-7.73-1.9-7.73-4.42-15.37-5.54-23.21-1.22-8.49-1.93-17.37 7.26-24.73z" fill="#fefdfd"/><path d="m825 564.16c4 2.89 9.46 3.5 12.67 7.73-2.58 5.51-7.32 9.36-10.85 14.14q-.88-10.93-1.82-21.87z" fill="#fdfae1"/><path d="m1089.47 812 1.92-1.73c3.46-3.18 6.63-2.7 10.54-.21 12.77 8.09 16.59 23 7.17 33.34l-19.75-19.35c-2.48-2.42-2.18-5.42-1.74-8.45 1.62-.67 2.04-1.97 1.86-3.6z" fill="#fdfae1"/><path d="m1129.93 970.76c-7.11 5.2-14.47 10.19-17.22 19.28-6.12-.77-3.61-4.88-2-7 8-10.24 14.15-21.62 21.22-32.42 2.5-3.82 6.42-6.14 10.66-2.39 3.77 3.34 3.56 7.79.23 11.23-3.93 4.11-8.55 7.54-12.89 11.3z" fill="#fdfae1"/><path d="m1071.94 852.61c7.77.22 11.31 4 11.8 10.6.39 5.39-7 12.95-12.14 12.13-6.68-1-8.18-6.16-8.2-12.05-.03-6.41 2.75-10.29 8.54-10.68z" fill="#fdfae1"/><path d="m1133.45 864.73c12.18 9 13.42 15.06 5.62 23.82-4.6 5.17-7.52 3.54-10.15-1.73-3.05-6.11-1.48-14.68 4.53-22.09z" fill="#fdfae1"/><path d="m1047.31 898.52c.07-4.17-.39-8.21 4.34-8.13 3.92.06 8.32 1.7 8 6.42-.19 3.48-1.47 7.81-6.72 7.89-4.93.07-5.88-3-5.62-6.18z" fill="#fdfae1"/><path d="m722.68 907c1.63 17.39 3.71 34.74 3.83 52.24-.09 26.51-5.56 52-15.15 76.6-12.21-1.9-22.67-7.06-30.83-16.49l-.79-17.32c-3.23-14.74-4.52-29.74-6-44.72-1.59-11-8.43-19.26-15.07-27.35-18.86-23-39.94-43.66-66.52-57.81-13.81-7.35-28.12-13.82-39.32-25.2 14.85-30.24 29.2-60.77 49.47-88l1.78 1.82c2.27 2.67 2.83 6 3.53 9.26 3.83 17.7 14.15 31.08 27.49 42.81 20.51 18.07 42 34.91 63.49 51.74 9.37 7.33 17.46 16 21.86 27.47 1.91 4.88 3.79 9.66 2.23 14.95z" fill="#d9c501"/><path d="m722.68 907c-4-26.22-23.8-40.13-42.88-54.5-21.76-16.38-42.62-33.78-61.14-53.77-9.81-10.59-13-24-14.53-37.94 11.27 2 15.73-3 17.81-16.31 1.74-11.17 4.57-21.45 11-30.71a16.73 16.73 0 0 1 4 14.24 145.93 145.93 0 0 0 10.68 34.69c5.74 10.78 15 16.69 26.64 19.48a21.11 21.11 0 0 1 8.11 3.76l58.36.45a308.53 308.53 0 0 0 -.48 58.62c1.81 22.37-1.63 44.21-17.57 61.99z" fill="#fdfae1"/><path d="m636.9 728a30.83 30.83 0 0 1 -4-14.24c10.74-20.11 17.27-41.92 25.51-63 1.41-3.59 3.19-7.21 7.48-8.44-6.48 15.74-8.13 32.54-11.48 49-2.67 13.32-5.75 27.31-17.51 36.68z" fill="#e09966"/><path d="m597.79 633.33 2.87-3.49c2.12 3.68-.77 3.26-2.87 3.49z" fill="#c10257"/><path d="m673.79 957.33c5.53 14.44 6.87 29.43 6 44.72-12.41 9.07-21.35 22.16-34.86 30-8.21-2.42-12.26-8.5-14.35-16.3 11.87-21.34 28.13-39.44 43.21-58.42z" fill="#f80160"/><path d="m680.53 1019.37a228.57 228.57 0 0 0 30.83 16.49c3 5.83 6 11.7 9.16 17.47 2.48 4.52 3.07 8.94.16 13.46a24.43 24.43 0 0 1 -15.73-5.13c-6.72-5-13.81-9.46-20.83-14-10.96-7.14-16.06-17.33-3.59-28.29z" fill="#020202"/><path d="m630.53 1015.71 14.35 16.3c-3.75 8.41-9.32 16-10.14 25.71-.22 2.56-1.78 5.76-5.85 5.56-4.51-.23-4.31-4.18-4.48-6.55-.5-7.33-3.23-14-5.71-20.62-5.34-14.43-3.38-18.05 11.83-20.4z" fill="#050504"/><path d="m1228.14 579c-7.17-.92-13.78 1.37-20.41 3.55-10.07-4.63-15.17-15.72-25.92-19.67-3.14-1.15-3.29-4.67-1.4-7.68-2.89-13.06 5.08-26.37 19.83-30.26 13-3.42 26.54-4.63 39.16-9.67.59 1.05 1.84 2.2 1.69 3.12-2.3 14.09 3 27.18 4.92 40.74 1.7 12.28-2.24 15.87-17.87 19.87z" fill="#ec985a"/><path d="m1239.4 515.3c-7.78 5.46-16.11 9-25.9 9.26-10.62.3-19.29 4.83-27.21 12.34-5.91 5.59-4 12.24-5.88 18.33-11.06-22-6.42-41 14-51.17 13.91-6.94 30-5.61 45.08-8 3.24-.5 5.51 3.65 4.38 7.44-1.16 4.05-2.94 7.89-4.47 11.8z" fill="#050504"/><path d="m1097.73 443.25c-6.2 1.26-7.46-1.52-7.68-4.72-.38-5.65 4.44-4.63 7.65-5.26s6.41.15 6.43 4.21c.02 5.52-4.68 5.34-6.4 5.77z" fill="#ccb9d2"/><path d="m1222.54 408.91c3.52 0 6.82.72 6.26 4.74-.63 4.5-4.81 4.7-8.43 5.14-4.3.52-5.22-2.29-5.09-5.57.21-5.12 4.64-3.45 7.26-4.31z" fill="#ccb9d2"/><path d="m1041.7 450.15c-.75 5.27-5.31 5-8.88 5.84-3.82.89-4.51-2.25-4.85-4.89-.73-5.73 3.91-5 7.21-5.39s5.95.59 6.52 4.44z" fill="#ccb9d2"/><path d="m1060.91 457.41c-.84-5 .46-8.71 2-12.92 4.16 2.27 5.39 6.32 7.6 10.16-2.75 2.64-5.95 2.54-9.6 2.76z" fill="#b1a8ba"/><path d="m1256.83 418.34a10.79 10.79 0 0 1 -9.28 1.57c-1.55-4.4.17-7.91 1.73-12.18 4.26 2.41 5.21 6.61 7.55 10.61z" fill="#b1a8ba"/><path d="m682.33 786c-11.52-1.57-22.46-4.49-30.74-13.42a13.79 13.79 0 0 1 -4-9.82c16.94-.28 25.22 12.38 34.74 23.24z" fill="#e09966"/></g></svg>