<svg viewBox="0 0 1497.28 1048.45" xmlns="http://www.w3.org/2000/svg"><g transform="translate(-1.29 -52.46)"><path d="m41.81 592.59c24.47-12.49 49-24.91 75.28-33.2 18.95-6 36.64-14.44 54-23.65 21.74-11.5 43.31-23.37 62.53-38.94 13.9-11.28 28.16-22.17 40.93-34.77 15.45-15.24 30.95-30.43 46.05-46 20.92-21.59 39.5-45.22 58.5-68.47 21.49-26.3 46.28-49.11 72.05-71.13 21.77-18.6 46.61-32.3 71.22-46.05 48.71-27.19 100.25-47.3 155.93-55.82 30.51-4.67 60.72-10.83 91.88-10.55 30.61.27 60.13 6.84 89.84 12.69 28.46 5.6 56.71 12.35 82 27 26.76 15.48 53.51 31.12 75.19 53.89 15.41 16.18 30.93 32.36 47.55 47.25 16.36 14.65 31 31.24 48.9 44.2 3.68 2.66 6.41 6.65 9.57 10a4.54 4.54 0 0 1 -4.74 1.46c-31.26-7.41-63.55-5.58-95.09-10.63-13.61-2.17-26.81-5.41-39.39-10.75-13.35-5.67-27-10.61-40.23-16.58-20.08-9.04-41.78-11.54-63.78-10.95-14.14.35-22.28 8.64-27.75 20.35a80.88 80.88 0 0 0 -7.43 33.69c-.12 10.14.72 20.29-.83 30.41-2.81 18.42-13.1 32.64-25.71 45.44-8.37 8.49-16.58 17.07-23.67 26.67-7.61 10.32-6.61 15.85 3.15 24.47 21 18.53 46.8 25 73.34 29.47 14.66 2.49 29.44 3 44.22.31a27.83 27.83 0 0 0 9.07-2.85c10.52-6.54 21.31-12.58 33-16.7 3.11-1.09 6.27-3.5 9.67-.56 3.65 12.68.27 25.21-.54 37.84-1.88 29.44-6.31 58.66-6.81 88.23-.22 13.57-.57 27.07 0 40.66a118.79 118.79 0 0 0 8 39.78c8.37 21 17.78 41.38 32.1 59.38 15.15 19 34.83 32.1 54.93 44.83 5.62 3.56 11.64 2.94 17.57.53s11.49-5.56 17.26-8.28a25.36 25.36 0 0 1 2.52-1.21 19 19 0 0 1 2.56-1c18-5.57 36.06-9.09 55.26-8.22a69.62 69.62 0 0 0 39.76-10.44c.55-.57 1.09-1.16 1.58-1.78a17.37 17.37 0 0 1 1.58-1.63 12.8 12.8 0 0 1 1.7-1.31c.56-.37 1.15-.71 1.74-1s1.07-.73 1.58-1.12a11.63 11.63 0 0 0 1.19-1.51c.11-.32.25-.61.36-.92a11.61 11.61 0 0 0 -.1-5.34 17.57 17.57 0 0 0 -7.9-11.07c-5.82-3.92-10.52-9.07-15.7-13.71-24-21.55-31.43-49-28.76-80 .64-7.41-1.63-15.12 2.13-22.23 6.08-4.87 10.33-11.12 13.57-18.13 9-11.41 11.66-25.69 17-38.71 5.22-12.86 10.13-25.81 16.65-38.09a48.16 48.16 0 0 0 3.75-9.67c5.89-20.87 16.66-39.31 28.89-56.95 2-2.82 3.89-7.85 9.19-4 1.13 2.08 2.07 4.36 1.84 6.63-2.69 26.21 3.74 53.38-8.27 78.61-8.12 18.55-8.55 37.06.27 55.55-.27 21.71-3.48 43.17-5.52 64.73-3.21 34-7.6 67.82-11.09 101.76-1.83 17.8 1.81 35.74 2 53.67.05 3.44 1.12 6.87-.07 10.29-.68 1.27-1.42 2.67-3.21 1.79-1.31-.65-2-2-2.92-3.15-12.61-16.49-21.43-17.25-39.22-5.09-19.37 13.23-24.91 28.29-17.44 54.73 1.27 4.49 3 8.77 1.65 13.52-4.58 8.08-12.74 11.72-20.42 15.57a219.09 219.09 0 0 0 -39.66 25.11c-33.69 27.22-72.58 40.16-115.17 44.8-23.69 2.58-47.46 3.5-71.16 4.45-15.06.6-30.78-.18-45.17-6.78-2.65-15.25-9.6-29.77-7.92-45.76a4.74 4.74 0 0 1 1.81-2.17c2.8-.95 5.09.47 7.37 1.72 9 4.93 18.52 4.72 27.85 1.58 24.77-8.32 41.92-33.89 40.57-59.84-1.06-20.31-17.37-32.67-37.29-27.93-21 5-33.81 19.14-41.93 38.33-1.76 4.15-2 9.15-6.34 12-3.75-1.89-3.81-5.67-4.71-8.88-5.67-20-6.67-40.44-5.8-61.08.52-12.46-.08-24.93.23-37.39.75-30.65 5.39-60.56 17.69-88.94 1-2.39 1.84-4.89 3.42-7a5.21 5.21 0 0 1 2.73-2.1c2.52.32 2.92 2.54 3.47 4.38 3.77 12.64 13.5 17.23 25.33 17.21 18.36 0 33.22-8 43.34-23.33 8.41-12.79 2.8-26.24-11.83-30.82-11.41-3.56-21.74-.32-32 4.08-5.09 2.18-9.22 6.08-14.5 7.88a3.27 3.27 0 0 1 -2.54-.47c-1.89-10 5.41-17 8.61-25.28 1.53-4 4.95-7.06 6.4-11.18a8.36 8.36 0 0 1 1.89-2.63 5.89 5.89 0 0 0 1.7-2.33c.67-.94-.21.5.37-.51.1-.18-.06 0-.47.44a4.9 4.9 0 0 1 -1.68 2.47 8.61 8.61 0 0 0 -2 2.84c-17.55 27.59-30.74 57.42-44.29 87.76-9.37-16-18.65-30.55-39.3-18.65-10.18 5.87-13.54 21.94-7.92 33.57a25.17 25.17 0 0 0 17.78 14.09c8.45 2 14.82-3.82 21.65-6.08 2.77 2 3.36 4.47 2.7 6.66-8.25 27.52-8.06 56.28-11.48 86.47-9.23-8.11-16.72-15.5-28.19-13.18a17.41 17.41 0 0 0 -10.77 6.86c-6.28 8.36-4.64 21.65 3.59 29.31 9.54 8.88 21 7 35.39-5.91 2.81.85 3 3.38 3.16 5.59 2.32 26.72 9.68 52.41 16.15 78.27 2.26 9 3.11 18.28 4.42 27.46.37 2.62.37 5.23-1.49 7.44-2.73 1.77-5.62 1.1-8.4.33-22.6-6.28-45.21-12.53-67.36-20.3a14.82 14.82 0 0 1 -4.59-2.44c-3.26-3.63-2.76-8.13-2.68-12.41.44-24 .66-48.09 1-72.1a547.86 547.86 0 0 0 -7-93.43c-3.58-22.28-4.25-45-11-66.8a196.79 196.79 0 0 0 -11.65-29.95c-12.93-25.75-16.13-53.56-18.21-81.65 1.85-8.77 3.06-17.82 10.22-24.37 6.86 5 6.68 13.78 10.71 20.3 3.19 7.15 6.85 14.08 10.44 21 2.59 5 6.12 9.15 11.62 11.21a15.84 15.84 0 0 1 2.23 1.18c1.09.68 2.11 1.44 3.15 2.2 10.69 6.53 19.69 15.24 29.53 22.85 5.17 4 10.7 7 17.2 7.77s8.65-2.42 6.17-8.43c-2.14-5.19-5.59-8.94-11.86-8.16-6.91.86-11.52-2.46-15.47-7.64-6.86-9-13.52-18.13-20.92-26.66-9.67-11.14-8.87-24.63-7.13-37.24 2.5-18.05 0-35.11-4.73-52.24 1.81-11.15-.25-21.64-5.43-31.59a38.25 38.25 0 0 1 -3-8.13c-2.46-9.11-8.39-15.51-16-20.6-7.23-10.45-5.61-22 4.95-27.92 12.69-7.05 18.9-18.32 22.46-31.4a68.23 68.23 0 0 0 2.67-22.2c-4.25-12.91-13-21.73-25.09-27.47-11.96-5.66-12.63-7.07-10.27-20.07a125.49 125.49 0 0 0 2-19c.33-11.84-6.45-20.28-15.64-26.64-20-13.84-43.09-14.32-57.58 8.36-6.65 10.42-14.65 13.2-25.7 10.58-26.88-6.38-39.9 16.07-37.9 36.28.69 6.93 1.87 13.8 2.78 20.7 2.92 22.08 26.92 30.1 43.19 22.46 13.34-6.25 23.62-16.78 35.15-25.49 10.53-7.95 21.51-9.43 33.65-6.77 7.2 1.57 8.37 5.2 3.83 11.13-6 7.85-12.05 15.65-13.24 25.93a46.62 46.62 0 0 0 6 32.92 17.86 17.86 0 0 1 2.49 8.12c.11 1.82.16 3.65.12 5.47a48.55 48.55 0 0 1 -.31 5.53 13.4 13.4 0 0 1 -7.27 9.73c-5.59 2.06-11.3-2.07-16.89.31-21.38-.24-37.18 10.75-51.28 25.3-8.64 8.91-18.08 17.11-24.72 27.8-8.46 11.26-15 23.59-20.79 36.41-6.89 16.23-10.42 33.15-9.34 50.76 1 16.12-7.7 29.33-12.21 43.81-.25.82-1.32 1-2.15 1.28-2.87-.94-3.79-3.32-4.17-5.93-1.44-9.87-4.6-19.39-5.88-29.29 4.89-9.13 3.65-17.17-2.66-25.61-4.92-6.57-5.3-14.86-4.74-23.28 1.52-22.55 2.89-45.21-9-66.05-3-5.31-6.94-10-10.06-15.2-2.46-4.21-5.4-8.17-7-12.87-.79-10.23 7-14.7 13.47-20.11a27.69 27.69 0 0 1 7.58-1.77c28.54-3.42 42.82-21.26 48.61-47.74 8.37-23.63-11.53-53.66-36.63-54.91-13.09-.66-26.46-1.06-34.54 12.52-16.46 16.15-23.18 35.39-18.62 58.26a56.5 56.5 0 0 1 1.16 11.12c0 16.51-7 23.12-23.45 22.1-15-2.8-29.79-2.28-43.43 4.68-20.13 10.28-41.82 13.63-63.79 16.32-16.11 2-16.73 2.6-20.33 18.49-7.48 11-18.1 18.82-28.59 26.38-14.53 10.48-22.3 23.77-25.88 41.37-7.86 38.62-15.64 77.2-19.8 116.43a22.62 22.62 0 0 1 -3.54 9.71c-2.75 4.38-3.31 9.17-3.15 14.19.15 4.86 1.94 8.61 7 9.64s8.37-1.65 10.78-5.65a19.72 19.72 0 0 0 2.93-9.93c.05-18.29 7-35.12 11-52.57 3-13.27 6.49-26.44 9.11-39.8 2-10.1 6.59-18.4 15.58-24.05 12.74-8 24.14-18.08 37.65-25 6.48 1.61 12.91 3.2 18.82-1.85 1-.89 2.71-.35 3.87.66 1.75 5-1.08 9-3 13.12-6.22 13.3-15.91 24.05-25.77 34.69a49.41 49.41 0 0 0 -13.01 26.13 32.51 32.51 0 0 1 -.85 6.6c-5.79 9-13 16.87-19.24 25.54-11.13 15.49-15.82 33.35-19.9 51.36-5 22-8.27 44.28-16.4 65.45-8.59 22.38-17.57 44.63-24.31 67.68a11.61 11.61 0 0 1 -2.83 5.29c-8.69-.32-39.62-18.86-43.46-26 6.33-13.32 13.73-26.12 19.2-39.86 3.82-9.58 7.1-19.41 3.34-29.51-5.83-15.69-18-26.17-32.41-33.4-7.78-3.9-16.7 3.43-18.28 13.5-2.93 18.68-11.92 35.62-15.5 54.11-.22 1.14-1.31 1.87-2.3 2.52-4.36.38-7-1.66-8.23-5.77.27-6.56 3.18-12.34 5.84-18.09a57.81 57.81 0 0 0 5.2-32.13 60.74 60.74 0 0 1 .05-14.76c3.09-25.95-5.31-47.7-23.68-66-4-4-9.8-5.11-13.5-9.36-1.23-2.06-1.26-4.4-1.59-6.68-1.92-13.4-10.27-22.69-20.06-22.36-11.33.38-22.6 11.58-24 23.83-.44 3.91.4 8.11-2.88 12.26-6-3.22-5.09-9.22-6.38-14.08-1.36-5.1-1.68-10.46-3.43-15.47-.85-1-1.76 1-.84.25.47-.37.78-.43.85-.15 1.46 6.34 3.83 12.56 2.62 19.27-2.38 2.92-4.25.71-5.65-.9-10.59-12.32-23.38-22.58-33.15-35.64-1.36-1.82-3.35-3.38-2.42-6.09z" fill="#fdfae2"/><path d="m1150.81 642.91c-4.18 30.41-4.68 60.56 13.77 87 7 10 16.43 18.54 26.74 25.68 5.71 4 11.51 8 10.23 16.44-1.38 1.38.06 3.72-1.69 5a8 8 0 0 1 -1.65 1.83v-.05c-.5 1.2-3.22.24-2.54 2.6l-.23.11c-.65-.28-1.34-.56-1.79.26-.18.33 0 .81.32 1.26l-.28.41c-13.47 3.57-26.94 5.56-41 3.61-13.83-1.92-27.32.73-38.84 8.85-6.2 4.38-14.35 4.17-19.75 9.74v-.12c-1.12-.24-1.67.67-2.43 1.17a24.12 24.12 0 0 0 -3 1.69c-20.26 15.6-36.52 7.25-55-5.79-33.71-23.83-54.67-55.77-68.45-93.5-5.17-14.16-8.51-28.6-7.9-43.89.36-9.16-.5-18.34-.38-27.57.38-27.54 4.39-54.73 5.89-82.12 1-17.87 5-35.53 3.51-53.55a19 19 0 0 1 -.7-6c.32-24.92 1.46-50-3.78-74.48-7.77-36.31-20.76-70.14-53.57-92.16a44.45 44.45 0 0 0 -25.4-7.83c-14.49 0-26.25 8-29.85 21.93a111.37 111.37 0 0 0 -.66 52.42c3.3 15 12.44 25.8 23.52 35.59 13.44 11.87 28.11 22.35 39.56 36.49 10.68 13.19 13.47 28.53 14.3 44.65.18 3.37-1.93 6-3.73 8.63-5.59 5.47-13.22 4.44-19.72 4.74-32.53 1.47-63.83-4-93-19.22-7.28-3.79-13.49-9-19.6-14.3-9-7.74-9.2-14.33-2.25-24.14 10.44-14.71 24.37-26.3 35.61-40.3a67.13 67.13 0 0 0 15.35-44c-.13-14.16-.6-28.31 3.48-42.15 2.57-8.72 6.94-16.33 12.21-23.69 5.94-8.3 14.86-8.91 23.28-9 25-.12 48.94 4.26 72.11 15 31.7 14.85 64.7 25.53 100.5 26.74 23.19.78 46.64 1.8 69.3 8.16 11 3.28 19 10.49 25.72 19.49 1 .39 1.74.92 1.83 2.06l-.18-.15c1.09.3 2.17.6 1.35 2.11l.1.31c2.23.5 3.45 2.2 4.22 4.07 9.34 22.69 22.45 43.87 26.74 68.61 1.71 9.83 1.67 19.6 2 29.43.44 24.14-6 47.17-12.56 70-6.69 23.21-11.23 46.78-15.71 70.42-1.67 5.93-1.7 12.45-6 17.51z" fill="#f90160"/><path d="m857.74 946.41c-.62 9.42 2.87 18.14 4.83 27.09 1.42 6.49 2.83 12.91 2.84 19.56 1.55 1.89 2 4.13 2.21 6.47 1.2 10.78 1.24 11 12.4 10 34.43-3 68.49-8.86 102.77-13 38.75-4.73 77.44-5.89 116.3-1.39 10.34 1.2 20.83 1.08 31.23 2.18 7 .73 13.83 1.57 20.48 3.8 2.84 1.23 5.56 3 8.94 2.25 9.58-.2 18.68 3.13 28.14 3.77 3.26 3 6.95 2.69 10.78 1.25 14.45 2.4 29.42 1.66 43.32 7.22 2.12 5-2.26 7.13-4.48 10.24-3.69 5.17-9.8 9-9.91 18.39 10.05-2.89 19.37-4.77 28.4-8.37 10.39-4.16 20.19-10 31.65-11.25 6 1.94 12.72 2.2 17.39 7.3-2.22 5.5-11.1 4.28-11.79 11.39 7.08 4.36 54.93 4.4 69.12.17 24.13 8.24 49.32 9.27 76.61 11-34 9.71-65.61 18.67-99.75 13.94-16.77-2.32-34.3 1.31-50.93-3.93-20.41-6.44-41.64-6.39-62.58-8.64-14.64-1.58-29-5.09-43.78-5.95-21.48-1.25-42.82-2.09-64.18 1-7.74 1.11-15.52 2.29-23.31 2.64-21.45 1-42.91 1.64-64.37 2.27-36.66 1.07-72.17 9-107.64 17.44-35.1 8.4-70.26 16.75-105.7 23.5-17.7 3.38-35.73 5.68-54.31 3.06-15.32-2.17-31.2-.07-46.79-.64-12.1-.44-24.25-2-35.84-5.55-21.35-6.6-43.86-7.28-65.29-13.38-18.88-5.37-37.12-13.27-57-14.7-30.47-2.19-59.33-12.31-89.12-17.73-21.45-3.9-43.38-2.72-65.14-1.76-3.19.14-6.35.71-9.54.78-27.57.65-55.22.18-82.69 2.13-28.24 2-56.6 2.93-84.66 8-8.73 1.57-17 4.82-25.77 5.73-2.4-5.38 2.36-6.2 5.27-8 3.33-2.05 7.76-2.79 8.5-7.69a119.37 119.37 0 0 1 35.25-14c22.87-5.08 45.25-12 68.18-16.8a40.14 40.14 0 0 1 7.71-1.1 45.2 45.2 0 0 0 19.14-5.27c12.85-5.59 26.56-8.43 39.94-12.27 20.38-5.85 40.84-11.54 62-14.21 2.57-.32 5.16-1 7.74 0a2.2 2.2 0 0 1 1.35 2.76c-2.69 6.91.71 11.9 4.78 17 2.39 3 6.81 6.19 2 10.77-14.15 4.55-28.43 7.86-43.49 8-21.26.26-42.07 4.93-63.06 7.75-6 .8-11.93 2-16 1.81 13.78-2.44 29.77.68 45.5-2.23a130 130 0 0 1 37.28-1c17.62 1.81 35.43-.16 53.12 1 6 1.57 11.76 6.64 18.13.91 15.14 1.08 29.35 7.37 44.5 8.06 40.08 1.81 78.52 11.92 117 22a174.91 174.91 0 0 0 49.25 5.17c23.85-.66 47.37 4.58 71.25 3.54 34.71-1.51 69.69.43 103.69-9.52 8.84-2.59 18.31-3.09 27.67-2.74 6.11.23 12.27.17 18.18-1.53 22.3-6.4 45.49-9.32 67.26-17.89a65.62 65.62 0 0 1 35.1-4.06c6.48 1.09 12.78-.34 19-1.39 17.48-2.94 34.76-5.64 52.75-3.29 14 1.83 28.3-.73 42.47-1.24 1.16 0-.47-1.61 0-.56.09.2-.16.32-.74.39-16.18 2-31.85-1.27-47.24-5.44-14.52-3.93-28.8-6.26-43.77-2.58-8.21 2-16.81 1.5-25.18.69-25.27-2.42-50.42-2.72-75.38 2.8-3.7.82-7.6 1.59-11.25.85-24.34-5-47.9 3.1-71.84 4.5-20.22 1.18-40.59 1.5-60.71 4.36-3.34.69-6.16-.62-8.77-2.46-7-4.9-13.48-10.51-21.2-14.34a3.9 3.9 0 0 1 -2.32-4.17 3.41 3.41 0 0 1 1.88-2.09c11.25-.68 22.5.22 33.65 1.25a267.79 267.79 0 0 0 27.73.91c8.57-.09 10.4-2.15 11.42-10.7.5-4.25-1.51-8.66.84-12.77-.88-19.41-4.82-38.32-10.43-56.79-5.91-19.48-8.17-39.48-10.81-60-4.35 6.23-8.85 11.93-17.23 12.45-7.59.48-14.44-.87-20.21-6-10.13-9.09-11.18-25.91-2.23-35 10.06-10.21 23.86-8 38 6.43 1.32-29.76 2.92-59.14 12-88.93-19.21 12-34.9 9.24-43-6.17-7.83-14.92-2.44-33.76 11.57-40.46 14.84-7.1 28.72.79 36.85 21.41 3.81-9.15 7.49-17.89 11.1-26.65 9.06-22 19.29-43.27 34.6-61.75.23.24.46.49.7.73q-6.6 13.92-13.17 27.84c-1.45 3.08-3.53 6-3.37 9.62-.43.67-.29.81.4.41 9.15-6.72 18.74-12.19 30.14-14.68 7.84-1.71 15-.72 22.1 1.82 13.13 4.7 18 16.74 12.46 29.61-8.83 20.51-39.28 33.81-60.3 26-9.11-3.38-14.73-10-15.29-20.23-22.88 28.25-31.12 149-14.37 203.29 3.41-11.51 7.59-21.89 14.75-30.84 9.83-12.28 22.33-20.29 37.93-22.49 23.28-3.28 40.57 18.65 34.85 44.82-4.11 18.84-14.41 34-31.37 44-15.58 9.23-31.07 9.81-46.45-.48-.78-.41-1.02-.22-.64.58z" fill="#9d8dc0"/><path d="m1154.84 625.63a444 444 0 0 1 13.44-64.92c7-24.94 14.21-49.91 14.56-76.15 2.8-21.2 14.16-38.88 23.78-57.27 1.59-3 3.63-6 7.24-7.16 9.18-10.36 18.74-20.18 30.44-28 10.65-7.09 22-9.44 34.36-8.41 1.1.49 2.32.61 3.42 1.12 7 4.24 15.32 5.66 22.28 10.06 7.9 4.79 16.35 8.58 24.56 12.75 10.73 5.44 20.83 1.44 30.43-4a60.11 60.11 0 0 1 28.92-7.77c17 3.11 34 4.92 51.17.08 8-2.26 19.11-11.89 20.38-20.29.64-4.3-1.39-7.41-4.44-9.74-17.18-13.12-31.31-31-54.51-34.79-2.82-.45-4.29-2.72-5.56-5.05-3.46-7.95.57-13.73 5.6-19.21 16.57 7.7 35.4 7.71 52.06 15.52 11.88 5.56 22.23 13 29.13 23.7 9 14.06 17.9 28.65 16.28 46.63-1.25 13.81-6.24 25.68-17.61 34.31-20.39 4.69-41.4 4.23-62 7.88-30.36 5.37-42.47 24.61-41.58 52.78.47 14.86 1.49 30.1 7.29 44.31 2.51 8.76 1.11 17.81 1.77 26.71 1.22 16.61 9.18 31.64 10.35 48.18.22 3.16 1.1 6.27.3 9.46-8.27 17.92-11.4 19.68-30.65 17.34-8.55-1-16.7-.42-24.16 4.67-8.66 5.92-18.66 5.53-28.55 5.33-13.51.86-25.94-5.43-39.29-6-4.57-.19-9.17-.86-13.79-1.06-14-.63-25.22-5.8-30.67-19.77-10.29-18-8.63-36.09-.42-54.23a3.7 3.7 0 0 0 2.39-2.33c8.73-25.27 20.89-49.53 20.1-77.42-.5-17.81-1.12-35.69 1-55.39-8.12 16.6-14.15 31.9-16.41 48.51a124.87 124.87 0 0 0 -27.26 43.75c-12.15 32.41-28 63.32-38.63 96.3-1.25 3.87-3.18 7.49-7.08 9.52-2.86 2.13-5.75 2.76-8.64.05z" fill="#ccc2d8"/><path d="m1313.43 641.58c12 .34 23.47-1.17 33.59-8.72 5.19-3.87 12.32-3.55 17.59-1.81 15.5 5.12 24.56-1 30.62-14.52 4 1.71 4.76 5.57 5.54 9.11 1.78 8 4.45 16 3.18 24.39 4.27 28.68 1.47 57.15-3.48 85.38-3.73 21.33-11.42 41.55-19.51 61.64a330.81 330.81 0 0 0 -20.55 73c-5.2 33.4-1.61 66.86-1.29 100.26.13 13.41 4.29 26.77 2.74 40.44-3.6 3.23-7.94 3.23-12.31 2.61-8.79-1.24-18-.4-26-5.61-2.83-4.78-.68-9.72 0-14.42a40 40 0 0 0 -2.2-21.39c-8.21-19.88-13.58-40.7-20.89-60.87-11.28-27.07-14.78-55.87-18.61-84.55-3.05-22.86 1.77-45.13 7.47-67 7.94-30.33 12.58-61.23 18.17-92 1.62-8.68 1.83-17.77 5.94-25.94z" fill="#d9c501"/><path d="m214.34 1048.68c3.41 3.49 1.13 4-2.11 5.57-4.26 2-10.53 1.88-11.65 8.41-6.8-1.2-11.92 4.78-18.54 4.34-2.08 0-3.07-1-2.89-3.07 15-6.36 19.74-18.42 17.1-33.53-2.26-12.93-5.94-25.15-9.88-37.47-3.39-2.82-4-7-5-10.84-3.63-13.66-7.89-27.19-9-41.39-5.21-12.4-7.77-26-18.51-35.76a92.32 92.32 0 0 0 -22.68-15.21c-25.19-12.13-51.52-22.89-70.85-44.52-12.8-14.33-19.36-32.07-27.43-49-.67-1.1-.49-2.52-1.37-3.53l.06.08c-4.94-7.58-5.57-16.36-6.91-24.92-.52-3.28-.23-6.47 2.92-8.5s6.22-1 9 .69c3.7 2.2 7.8 4.1 9.07 8.82a3.35 3.35 0 0 1 -2.89 2.81c-4.88.89-8 3.05-7.35 8.68.65 6 3.43 10.39 8.93 12.8 2.73 1.21 5.15 0 6.82-2.34a10.38 10.38 0 0 0 1.11-10.65c-1.17-2.88-5.43-5-2.45-9 5.16-1.75 8.92 1.45 12.84 3.75 6 3.53 11.42 8 17.77 10.91 3 1.4 6.16 3.63 10.91.1-5-8.79-11.92-15.12-21.75-17.9-30.74-8.68-46.61-33.83-46.61-66.01 0-30 7.34-59.17 6.18-89.06a20.3 20.3 0 0 1 5.39-15.18c1.21-3.41 2.6-6.57 7.26-5.14 11.78 16 27.78 28.2 40.08 43.75 2.27.58 3 2.31 3.61 4.36 5.09 18.25 8.18 37 15.13 54.78a5.82 5.82 0 0 1 -.29 4.21c-4.11 2.68-5.44-1.48-7.34-3.3a25 25 0 0 0 -19.73-7.42c-5.43.36-10.39 2.39-13.15 7.28-3.65 6.44-2.42 12.82 1.73 18.73 5.17 7.37 15.77 12 23.48 10 6.91-1.78 12.09-5.54 13.35-13.15.42-2.54.15-5.23 1.66-7.54 5.69-1.71 5.84 3.56 7.22 6.32 7.13 14.26 14.61 28.24 24 41.23a250.58 250.58 0 0 0 33.42 37.6c12.46 11.47 26.81 21.1 41 30.59 3.29 2.19 7.35 3.82 8.15 8.48 0 4.29-2.09 7.86-4.2 11.27-11.67 18.89-17.49 40.34-26.26 60.48-4.53 10.38-2 22.28.15 33.45 2 18.35 8.68 35.69 11.72 53.82a271.12 271.12 0 0 1 10 50.44c.56 5.89 4.85 8 8.78 10.68z" fill="#9987b9"/><path d="m1404 650c-4.39-10.78-3.07-23-8.71-33.49-1.49-12.27-3.39-24.36-7.43-36.21-5.36-15.75-4.74-32.37-4.84-48.8-4.25-15.37 1.81-39.54 11.79-47 10.07 3.7 20.77 4.63 31.11 7.13 18.16 4.4 32.29 13.6 39.49 31.69 4.78 12 11 23.54 12 36.78 2.72 36.15-17.94 57.85-46.37 74.68-8.98 5.22-18.04 10.22-27.04 15.22z" fill="#fdfae2"/><path d="m1302.91 395.56c-8-2.59-16-5.41-23.18-10 2.4-2.74 5.82-2 8.86-2.65 10.94-2.28 20.14-7.46 28.36-16.34-6.75-2.95-13.85.19-18.17-5.48-16.25-5.56-22.91-18.71-27.29-33.88-4.13-14.31-.33-27.72 4-41.14.24-.16.55-.49.73-.43 11.61 3.82 23.2.52 34.84.34 21.81-.33 43.91 17.77 43.27 36a10 10 0 0 1 -.7 4.24c-4 14.4-11.54 26.29-24.92 33.72a5.36 5.36 0 0 0 -2.88 6.4c1.81 8.67 3.44 17.54 12 22.73-.39 4.37-4 5.44-7.19 6.43-9.21 2.84-18.49 4.92-27.73.06z" fill="#e19054"/><path d="m34.55 597.73c-3.22 9.47-2.85 19.28-3.33 29.09-1.26 25.63-6.15 51-5.52 76.81.52 21.3 7.2 39.5 22.79 54.11 5 4.71 11.67 6.28 18.34 7.15 11.58 1.52 19.24 8.76 26 17.41 1.68 2.18 2.38 4.94.86 7.33s-4.22 1.72-6.44 1.39c-5.92-.86-10.55-4.54-15.52-7.48-7.39-4.37-13.78-10.69-22.9-11.68h-1a5.7 5.7 0 0 1 -1.83-.86l-.59-.81c0-.28 0-.7-.13-.84-4.9-4.23-10.45-11.35-16.4-8.35-6.23 3.08-.4 10.95-.22 16.66.16 5 2.94 9.88 2.87 15.15-10.32-6.23-13.31-17.4-16.94-27.42-7.94-21.99-13.46-44.32-13.3-68.29s1.37-47.21 9.56-69.67c4.49-12.33 11.73-23.04 23.7-29.7z" fill="#fdfae2"/><path d="m1353.62 326.2c-2.85-8.5-2.72-17.87-10.79-24.6-12.43-10.35-25.72-16.93-41.85-11.89-9.58 3-17.32-.4-25.51-3.63-8.91-9.24-10.52-20.89-8.88-32.6 1.25-8.9 5-17.47 10.87-26 9.18 10.31 18.64 19.91 31.35 24 13.4 4.33 25.09 11.34 36.66 18.89 8.63 5.64 12.43 14.11 13.23 23.9a136.13 136.13 0 0 1 -.14 20c-.29 4.38.23 9.44-4.94 11.93z" fill="#030303"/><path d="m172.31 940.7c6.66 16.88 8.65 35 14.06 52.23-21.82 5-43.15 12.09-65.58 14.38-3 .3-5.7 2.54-8.55 3.88-9.49-4.39-13.91-13-18.13-21.77 17.18-14.68 36.52-25.89 56.76-35.8 7.47-3.62 14.31-8.62 21.44-12.92z" fill="#fee501"/><path d="m1394.76 484.5c-10.12 14.13-9.55 30.93-11.79 47-5.37-.86-3.59-5.7-3.86-8.42-1.94-18.95-8.11-37.61-1.81-57.1 6-18.4 18-27.87 36.48-32.36 20.59-5 41.79-3.83 62.34-8.19a4.28 4.28 0 0 1 4.65 1.61c-10.55 8.12-23 11.9-35.5 15.66a140.77 140.77 0 0 0 -28.77 12.09c-11.64 6.61-19.3 16.3-21.74 29.71z" fill="#bcb3c7"/><path d="m1324.05 1007.07c12.37 3.57 24.93 5.29 37.81 3.65q.26 16.38.5 32.74c-2.32 4.18-5.66 5.64-10.61 5.55-17.86-.35-35.73-.18-53.59-.24-3.3 0-7 1-8.28-3.77s2-6.39 4.91-8.9 7.16-2 9.93-4.58c6.59-8.04 14.96-14.66 19.33-24.45z" fill="#030303"/><path d="m1213.86 420.13c-13.62 19.9-22.75 42-31 64.43.31-26.37-5.61-51-18.9-74.07-5-8.62-8-18.38-11.85-27.62 8.22-.55 12.23 6.52 17.72 10.42 14.05 10.02 28.28 19.62 44.03 26.84z" fill="#fdfae1"/><path d="m1302.91 395.56c12.08.22 24.37 1.63 34.88-6.51 17.32-1.36 34 2.31 50.48 6.86a206.64 206.64 0 0 0 -40.89 15.62c-4.67 2.37-9.07 1.2-13.45-.1-11.3-3.36-21.5-8.97-31.02-15.87z" fill="#bcb3c7"/><path d="m94.11 989.42c6.55 6.83 10.82 15.56 18.13 21.77-2.08 5-.67 9.73 1.4 14.16 3.11 6.66 1.75 12.41-4.45 15.43s-9.13-2.46-11.61-7.14c-3.73-7-7.56-14-11.08-21.15-5.01-10.16-2.14-18.58 7.61-23.07z" fill="#030303"/><path d="m564.25 181.06-38.32 16c-6-7.7-4.78-15.53-.35-23.13 4.55-7.79 11.8-11.19 20.64-9.55s14.83 7.01 18.03 16.68z" fill="#fee501"/><path d="m1065.08 52.46 33.92 21.73c-12.55 14.45-24 16.45-34.83 6.45-7.4-6.85-7.24-19.37.91-28.18z" fill="#f80362"/><path d="m1400.91 306.91c-1.4 6.53-6.36 12-5.6 19.21-4.86-.49-9.54-2.22-14.57-1.83a8.81 8.81 0 0 1 -8.69-4.75c-2.8-5.19-4.85-11.07-2.2-16.56 2.51-5.23 8.31-2.86 12.67-2.87 6.84-.03 12.81 3.04 18.39 6.8z" fill="#e19054"/><path d="m1408.4 799.47c4.31-10.7 8-20 11.85-29.44 7.76-1.19 12.09 3.86 14.5 9.6 2.92 6.92.65 13.81-5 18.84-6.32 5.65-13.29 2.98-21.35 1z" fill="#f80362"/><path d="m279.25 143.83-31.1 15.3a18 18 0 0 1 0-19.48 17 17 0 0 1 16-8.17c6.56.74 13.37 3.57 15.1 12.35z" fill="#f80362"/><path d="m275.34 417.45c-5.75 10.48-12.81 19.3-20.5 27.72-9.42-8.31-11.53-17.51-6.25-25.09 5.41-7.78 14-8.75 26.75-2.63z" fill="#f80362"/><path d="m1298.78 361.1c6.56 3.06 13.81.43 20.52 2.26-.92 11.17-19.26 21.37-39.57 22.21l-1.07-1.81c7.5-4.46 14.56-9.38 19.36-17a6.1 6.1 0 0 0 .76-5.66z" fill="#c6804c"/><path d="m179.15 1063.93c1 1 1.93 2 2.89 3.07-11.8 7.74-25.65 9.22-38.93 12.6 11.89-5.5 23.28-12.21 36.04-15.67z" fill="#b7abce"/><path d="m31.47 792.68c1.41.81 1.61 2.08 1.37 3.53a3.59 3.59 0 0 1 -1.37-3.53z" fill="#fdfae2"/><path d="m1152 382.56-1.35-2.11c1.22.21 1.76.86 1.35 2.11z" fill="#fdfae1"/><path d="m1150.82 380.6-1.83-2.06z" fill="#fdfae1"/><path d="m529.83 479.62c22.54 24.13 23.21 53.65 20.64 83.92-.78 9.19.55 17.62 6.42 25.2 7.49 9.68 7.28 12.77-.32 22.83-2.82 5.84-8.65 6.1-13.88 7.48-13.08 3.46-26 7.54-39.35 9.9-8.69 0-10.85-2.19-10.17-10.42.27-3.16 1.59-6.12 1.68-9.3 4-14.62 5.44-29.81 8.57-43.55-2.79 6.61-8.05 13.17-12.23 20.31-8.1 13.83-7.22 28.81-2.84 43.76.79 3.41.29 6.93.81 10.31 2.71 17.65-4.79 28.73-21.46 34.17-6.57 2.79-13.5 2.77-20.44 2.58-19.29 3.21-38.11.62-56.76-4.42-20.58-5.56-35.35-18-44.84-37-1.38-2.77-2-5.39-.92-8.31q-.37-3.33-.77-6.66c22-13.86 42-29.84 54.94-53a33.53 33.53 0 0 0 3.47-8.87c3.84-16.7 11.08-31.53 23.19-43.91 2.95-3 5.12-6.78 8.27-10.64-13.49 4.93-21.82 14.88-30.15 24.85-5.31 6.36-9.15 14-16.53 18.56-2.59-.4-4.51 1.26-6.06 2.69-5.54 5.08-10.13 3.46-14.55-1.41a40 40 0 0 1 -7.26-20.09c-.69-11.48-3.49-22.26-7.18-33-.84-2.45-1.74-5-.46-7.58-2.55-14 3.09-20.08 17.24-21.24 22-1.81 43.7-4.83 64-15.11 14.56-7.39 30.38-10.32 46.72-5.26 4.48 1.93 5.65 6.37 7.68 10.14 2.33 4.33 4.4 8.78 7.38 12.77 5.82 7.81 12.82 11.55 22.58 7.71 4.66-1.82 9.07-1.64 12.58 2.59z" fill="#f80160"/><path d="m1313.43 641.58c-1.68 23.58-7.26 46.55-10.9 69.83-4.67 29.85-14.68 58.61-18.46 88.63-2.12 16.81 2.37 33.24 3.67 49.85 1.67 21.56 9.71 41.36 15 61.93 2.08 21.84-4.21 42.71-7.85 63.84-1 6.06-.12 12.78-4.25 18.19-9.81 3.4-19.83 1.75-29.79 1.24-4.65-1.13-6-5.21-7.58-8.87-13.63-30.86-25.13-62.39-30.76-95.82-1.25-7.41-2.32-14.91-5.16-22-1.77-5.79-5.21-11.45-1.62-17.73-2.74-16.53-.79-33.33-3.17-50-2-14.35 1.51-28.68 3.16-43 2.18-18.87 4.92-37.69 6.37-56.62 2.16-28.11 6.82-56 7.75-84.2 10.18 13.38 23.41 18.82 40.42 18.11 14.54-.51 28.45 6.28 43.17 6.62z" fill="#fee501"/><path d="m344.74 627.11c9.66 26 28.87 40.32 55.68 45.52 15.3 3 30.63 4 46.12 2.08 3.23 4.66-.24 8.33-2.11 12-6 11.58-13 22.62-19.78 33.68-9.67 15.74-16.32 32.54-22.19 49.82-17.74 30.86-33.59 62.79-51.1 93.79-1.28 2.27-1.93 4.83-2.9 7.26-6.92 14.34-15.66 27.64-23.95 41.19-1.33 2.17-2.51 4.71-5.7 4.72a4.65 4.65 0 0 1 -3.18-2.73c-5.35-11.8-10.85-23.53-16.18-34.88 2.05-3.19 4.51-2.37 6.74-2.3 13.39.46 21.86-4.81 27.14-17a38.23 38.23 0 0 0 1.37-26.37c-3.76-13-16.83-18-28.39-11-12.28 7.44-15.82 19.32-15.81 32.73 0 3.38 1.56 6.85-2.18 11.76-7.18-10.63-21.72-11.84-26.95-24.54 8.58-31.14 22.79-60.35 31.81-91.28 6.1-20.93 10-42.5 14.92-63.76 5.63-24.17 19.18-43.62 36.64-60.69z" fill="#fee501"/><path d="m774.34 1010.53a10.39 10.39 0 0 0 -.24 1.58c-8.49 2.8-17.09 5.2-25.67 7.73-4.65-3.83-5.56-9.6-7.66-14.75-7.19-18.92-8.51-39-12.11-58.68-.18-12.23-3.59-24-5.37-36-2.42-16.34-.86-32.77-1.63-49.16-.8-16.94-4.92-31.94-14.94-46.09-12.85-18.14-22.1-38.5-31.64-58.59-1-4.09-.05-8 1-12 8.88-33.54 19.77-66.57 25.57-100.9 1.4-8.29 5.27-15.94 6.86-24.2 2.83-5.52 6.44-10.15 13.2-11 2 23.85 4.77 47.72 13.11 70.22 5.38 14.5 13.28 28 17.61 43.1 5.44 19 7.2 38.44 9.73 57.82q3.09 23.55 6 47.12a93.68 93.68 0 0 1 1 11.19c.1 39 .07 78.1.17 117.16 0 3.38-.92 7 1.48 10.08.76.85 1.77 1.76 1.83 2.84.66 14.22 2.5 28.32 1.7 42.53z" fill="#bf2c64"/><path d="m926.05 521.19c4.57-27.36-5.87-48.61-26.14-66.43-14.06-12.35-30-22.76-41.13-38.27a57.47 57.47 0 0 1 -10.86-32.21c-.36-11.47-.61-23 1.09-34.57 4.37-29.8 32.58-38.43 57.66-24.31 22.78 12.82 35.82 33.86 45.94 57 16.1 36.8 16.2 75.78 15.4 114.86 0 1.76-.11 3.49-1.65 4.71-14.36 4.37-27.49 11.53-40.31 19.22z" fill="#be2b64"/><path d="m261.37 842.85c3.34 5 9 7.2 13.58 10.6 4.82 3.56 10.28 6.26 13.85 11.8 0-7.66-1.74-15 .58-22.51 2.11-6.8 5-13 10.08-17.85 6.63-6.28 14.25-10.07 23.62-6.65 9.85 3.59 14.24 11.4 15.3 21.28.93 8.76 0 17.25-4.5 25.16-7.65 13.33-17.78 17.78-33.22 13.92a393.91 393.91 0 0 1 18.4 38.76c6.71 7.52 7.52 17.37 10 26.41 6.25 22.58 11 45.54 15.85 68.47-5.78 2.38-11.55 4.81-18 4.87-5.44-4.41-4.53-10.8-4.74-16.58-.32-9.27-2.62-18.06-4.67-27.25-20.22 16-43.62 9.91-55.91-14-2.87-7.68-3.24-15.34 1.14-22.57 4.27-7 11.05-9.51 19-10.32s15.09 3.19 22.53 3.81c2.26-4.56-.39-7.41-1.7-10.47-10.86-25.48-26.33-47.5-48.68-64.31-6.85-8.31-17.18-11.33-25.87-16.83-5.1-3.23-10.42-6.06-14.58-10.55-10.47-6.34-19.13-15.21-30.24-20.8-4.45-2.24-9.81-4.8-11.24-11.19-.84-3.73-5.68-1.57-8.83-4.73-24.71-24.82-45.66-52-59.74-84.25-.84-1.91-1.81-3.6-4-4.21v-.35c-2.53-14.4-9.05-27.7-11.57-42.14-1.41-8.11-4-16-6-24 .26-7.45-3.1-14.63-1.48-23.11 5.06 10 4.62 21 9.94 32.37.73-9-.33-16 3.4-22.55 6.42-11.27 17.46-18 27.34-15.61 12 2.9 18.55 12.5 18.32 26.82 0 1.16-.07 2.31-.1 3.47-.25 13.9-9 21-20.65 25.83-8.37 1.89-16 .7-22.74-6.11 4.33 26.86 15.9 49.76 30.58 71.33a213.23 213.23 0 0 0 34.44 43.3c2.07 2 4.38 3.85 4.93 6.94l6.71 5.07c5.06-.12 7.19 4.38 10.59 6.82 9.57 6.87 18.66 14.42 29.33 19.72 3 1.47 6.4 3 7.12 6.94 13.22 9.66 27.77 17.06 41.83 25.25z" fill="#f80362"/><path d="m721.71 608.54c-4.52 2.61-7 7.71-11.94 9.79-6.34 5-12.18 1.65-17.5-1.66a79.76 79.76 0 0 1 -22.59-21.37c-6.71-9.32-14.18-17.46-25-21.92-2.14-5.14-.64-9.67 2.31-14 20-11.82 37.18-26.17 45.5-49 2.25-6.15 3.76-12.05 2.1-18.49a86.59 86.59 0 0 1 .85-11c1.08-9.3-1.06-16.77-10.27-20.9 6.07-4.78 12.19 1.66 18.28-.08a5 5 0 0 1 3.52-.77c3.21.72 6.46 1.34 9.15 3.43 10.92 8.13 17.31 21 29.5 27.87 4 2.26 7.31 5.69 11.43 7.87 5.7 10.51 9 21.42 5.47 33.43 1 5.84.42 11.54-3.06 16.4-9.16 12.79-17.39 26.3-28.73 37.42a88.11 88.11 0 0 0 -9.02 22.98z" fill="#fee501"/><path d="m699.57 399.23c1.07-13.4 11.5-22.26 17.78-33.61-16.2-4-29.54-2.83-42.15 7.84-9.19 7.77-18.08 16.27-28.9 22.07-17.56 9.41-45.2 3.8-48.92-21.91-1.58-11-4.4-21.89-2.8-33.33 2.26-16.14 16.38-32.76 38.33-27.62 15.53 3.64 16.85 2.77 25.41-9.77 15.2-22.3 39.25-23.09 59.25-9.55 17.7 12 22.3 28.79 15.66 49.3-3.6 11.09-2.78 12.41 8.54 17.39 13 5.71 22.8 14.52 26.74 28.7-2.1 2-4.2 1-6.37.08-20.8-9-39.82-5.79-57.22 8.37-1.57 1.28-3.03 2.75-5.35 2.04z" fill="#030303"/><path d="m351.65 488c9.27 19.16 9.13 40.62 14.9 60.64-10.19 7.13-20 14.94-30.67 21.21-13.75 8.07-21.25 19.25-23.63 35-3.18 21.08-8.9 41.67-15.16 62-3.28 10.66-.83 22-5.19 32.37-4 9.66-14.67 12.75-21.27 5.27-4.72-5.35-4-13.74-1.2-18.08 8.16-12.86 7.18-27.25 9.15-41q5.91-41.09 15-81.49a84.82 84.82 0 0 0 1.42-8.42c2.27-18.67 11.57-32.66 27.06-43.4 10.44-7.22 19.77-15.99 29.59-24.1z" fill="#ec985a"/><path d="m685.12 460c9.59.87 12.29 3.55 12.5 12.7.16 6.9.51 13.83-1.51 20.58-.85 11.24-8.39 18.08-16.47 24.33-7.17 5.54-15.68 8.77-23.95 12.32-9 5.32-17.56 11.21-26.43 16.66-11.16 6.86-17.37 17.8-22.1 29.36-7.92 19.32-13.57 39.31-15.71 60.22-.89 8.61-2.23 17.25-5.58 25.36-2.34 5.66-5.62 10.29-12.93 9.07-7.66-4.68-10.85-14.84-7.68-24.39 6.29-18.38 13.86-36.1 12.57-56.6-.83-13.89 3.17-27.97 10.17-40.61.42-.39.8-1 1.31-1.09 17.42-5 19.91-18.53 19.24-33.82 14.77-21.84 32.73-40.17 57-51.62 6.26-3.02 12.97-2.14 19.57-2.47z" fill="#f9ab72"/><path d="m529.83 479.62c-3.29-.86-6.41-2.82-10-1-15.32 7.72-24.07-2.25-31.67-15.2-3.21-5.46-5.73-11.32-8.56-17 18.31-.8 24.53-9.87 20.1-29.6-4.58-20.41-.24-38.7 12.61-55.11a22.94 22.94 0 0 1 7-6.3c4.23-2.64 7.75-1 11.05 1.86a82.38 82.38 0 0 1 8.42 8.8c4.36 5.06 8.81 8.05 16.56 6.14 8-2 16 2.31 21.08 8.07 4.38 5 8.38 10 14 13.73 1.72 1.13 2.46 3.18 2.94 5.21-2 24.26-21 44.95-45 48.9-4 .66-8 1.18-11.94 1.76-5.23 2.55-9.41-.1-13.69-2.64-3.38-2-5.86-5.51-10.59-6.34-1.54 9.84-1.39 18.93 5.5 26.87 1.79 2.07 3.27 3.17 5.65 1.14z" fill="#ec985a"/><path d="m565.26 646.23c2.48 7.86-.55 17.82 8.87 23 8.78 3.82 16.48 9.91 26 12.21 7.58 2.08 14.22.63 20.22-4.61a25.31 25.31 0 0 1 12.43-5.83c6.93-1.19 13.12.62 16.51 6.82 3.6 6.61-.69 11.72-5.51 15.74-11.25 9.4-25.31 10.73-39 12.76a43.32 43.32 0 0 1 -7.81.07c-21.19.43-40.18-7.29-58.8-16.13-8.5-4-13-12.19-18.09-19.48-7.38-10.49-12-22.36-16.47-34.29-1.14-3.05-2-6.1.33-9 1.3-2.69 3.58-3.66 6.41-3.46 14.32 1 26.26-8.19 40.11-9.28 2.12-.17 4.1-2 6.15-3.1 4.34 8.58 4.65 18.17 6.69 27.32.52 2.42.18 5.1 1.96 7.26z" fill="#ec985a"/><path d="m1152.88 1003.44c3.48-4.61 3.34-10.19 4.09-15.51 1.53-10.85 5.53-20.86 9.52-31 5.74-14.6.65-28.09-6.24-41-1.48-2.79-3.13-5.49-4.7-8.23-3-10.75-6.18-21.16-6.53-32.77-.57-18.84 22.23-42.42 43.35-43.56 9-.48 14.8 6.78 20 13.44a43.71 43.71 0 0 1 3.32 5.92c.5 5.64 1.24 11.23 3.63 16.46-3.49 13.19-10.18 25.34-19.93 34-15.68 14-19.12 31.86-21.26 50.66a67.06 67.06 0 0 1 -5.37 20.85c-3.49 7.63-6.87 15.33-9 23.52-.86 3.33-1.83 6.78-5.11 8.79-3.19 4.21-4.09-.12-5.77-1.57z" fill="#f80362"/><path d="m219.62 817.57c-16.63-9.83-33.43-19.42-47-33.48 3.21-19.91 13.34-37.85 16-58 1.79-13.53 15.72-19 27-11.44 9.76 6.5 17.79 15 24.75 24.24 6.72 8.87 6.68 20 3.17 29.87-6.07 17.08-12.66 34.14-23.92 48.81z" fill="#9987b9"/><path d="m118.15 662.3c10.77-5 17.64-13.34 21.16-24.57 24.84 8.78 32.13 30.42 38.47 52.62a47.09 47.09 0 0 1 .55 23c-1.22 5.81-.41 12 .19 18.08a54.55 54.55 0 0 1 -5.38 29.23c-2.82 5.92-4.87 12.2-7.27 18.32-16.34-14.15-30.39-30.2-40.77-49.27-3.37-6.87-4.35-14.16-3.87-21.73.73-11.29-1.24-22.28-3.6-33.26-.89-4.09-2.36-8.38.52-12.42z" fill="#9987b9"/><path d="m699.57 399.23c12.58-15.47 29.87-17.48 48.23-17.57 8.07 0 13.6 5.42 20.72 7.08-.13 22.89-4.14 43.84-26.7 56.24-8.21 4.51-9.52 15.3-3.79 25.74-4.13 3.11-7.66.23-11.19-1.31a116.65 116.65 0 0 1 -11.53-5.73l-9-3.33c2.43-3 6.35-2.24 9.38-3.79a66 66 0 0 0 9.63-5.81c-6.2-2.66-12.41-4.59-16.63-9.62-2.48-9.39-9.1-17.14-9.77-27.43-.3-4.98.62-9.65.65-14.47z" fill="#ed9a5f"/><path d="m730.68 585.59c4.67-11.59 14.44-19.63 21-30 4.87-7.61 9.6-14.81 10.75-23.88 5.54 15.37 8.7 30.84 5.3 47.37-4.51 22 3.38 40.12 18.66 55.75a101 101 0 0 1 9.72 12.22c3.51 4.92 7.33 7.9 13.88 5.52 5-1.8 8.29 1.55 10.77 5.21 2.74 4 5.57 8.38 3.48 13.68-1.17 3-4 3-6.67 2.93a33 33 0 0 1 -20-7.35c-10.45-8.67-20.74-17.51-32-25.18a4.1 4.1 0 0 0 -1.78-2.29l-.08.21c-4-5.57-7.73-11.24-10.08-17.85-2.47-7-8-11.62-14.27-15.36-4.21-6.41-6.15-13.81-8.68-20.98z" fill="#f9ab72"/><path d="m387.16 547.4c9-12.73 18.26-25.28 29.79-36 6-5.59 13.33-8.51 23.08-12.12-6.35 8.24-10.71 15-16.17 20.7-7.82 8.16-13.52 17.49-16.12 28.24-7.12 29.44-26.27 49.4-50.67 65.18-4.05 2.63-5.55 10.8-13.1 7 1.37-14.15 10.12-24.28 19.4-33.71 11.15-11.27 19.39-24.04 23.79-39.29z" fill="#e30159"/><path d="m593.33 399.23c-5.1-6.54-15.62-7.13-17.65-17.63-.88-4.56-18.56-8.91-23.2-6.55-3.59 1.82-5.91.63-8.62-1.26-5.31-3.7-8.94-9-13.24-13.65-3.18-3.46-6.64-5.32-11.33-4.72 3.64-10.83 13.34-12.13 22.43-13.5 18.85-2.82 33.61 4.75 45.41 19.14 9.06 11.04 12.12 29.22 6.2 38.17z" fill="#030303"/><path d="m1236.49 476.08c-4.36-9.09 1.71-16.84 3.69-24.94 2-7.95 5.83-15.47 9.2-23a7.8 7.8 0 0 1 6.67-5 166.82 166.82 0 0 0 -1.73 44.85c2.93 32-8 60.8-18.83 89.71-.77 2.07-.5 7.82-6.11 5 9.16-20.44 7.16-42.15 7.25-63.62.03-7.66 2.03-15.35-.14-23z" fill="#bcb3c7"/><path d="m894.8 636c-5.09.35-9 4.83-14.74 3.54-10.86-2.43-16.89-15.31-12.48-27.76 3.35-9.45 10.55-14 19.15-12.21 7.67 1.63 13.55 11.81 12.13 21.29-.6 4-1.59 7.84-2.41 11.76v1a4.35 4.35 0 0 1 -.83 1.78z" fill="#9d8dc0"/><path d="m1094.09 805.64a93.77 93.77 0 0 1 30.57-17.85 61.19 61.19 0 0 1 34.94-2.28c8.51 1.88 17.14-1.5 25.76-2.19 2.85-.23 5.57-1.52 8.36.11-8.76 9-20.61 11.06-32 12.64-12.71 1.77-25.72 1.21-38.58 2.06-10.14.67-19.34 5.13-29.05 7.51z" fill="#bf2c64"/><path d="m523.31 468.92c-.18 2-.35 3.93-.61 6.74-14.11-10.35-14.87-24-12.69-39.45 9.56 3.82 15.46 13.9 26.43 13.68-4.79 6.11-13.7 9.29-13.13 19.03z" fill="#c6804c"/><path d="m715.31 463.68c8.36-.2 14.5 6.77 22.72 7 13.18 4.51 15.2 16.67 19 27.62-5 .91-7.82-3-11.33-5.17-12.23-7.63-20.58-19.3-30.39-29.45z" fill="#c8b102"/><path d="m963.79 275.72c7.37-5.5 14.4-7.1 21.49-2.11 6 4.2 6.32 10.81 5 17.25-1 5.07-3.8 8.27-8.86 3.37-5.93-5.78-13.16-10.38-17.63-18.51z" fill="#fee501"/><path d="m608.54 514.05c6.28 2.83 2 7.77 1.68 11.32-1.22 15.63-6.75 21.02-22.22 23.63 5.92-12.21 11.06-24.85 20.54-34.95z" fill="#ed9a5f"/><path d="m739.4 606.62c6.41-3.38 7.59 3.38 10.21 5.93 7.6 7.4 9.92 17.9 14.14 27.27-6-.08-9.38-4.13-12.08-8.53-4.81-7.84-9.26-15.92-12.27-24.67z" fill="#ed9a5f"/><path d="m708.71 441.13c7.55 1.2 12.54 9.14 21.44 7.63-7.13 6.38-14 12.13-23.82 11.59l-2.94-.41c1.77-3.12 5.17-5.14 6-8.88a8.2 8.2 0 0 1 -.12-4.42z" fill="#c6804c"/><path d="m1154.84 625.63h8.68c-1.92 7.45-5.21 13.9-12.71 17.26 1.19-5.78 1.61-11.75 4.03-17.26z" fill="#e19054"/><path d="m896.45 632.65 3.39-2 .62.63a7.36 7.36 0 0 1 -3.46 5.26 1.24 1.24 0 0 1 -1.27-1.22 3.67 3.67 0 0 1 .83-2.85z" fill="#9d8dc0"/><path d="m709.28 446.64a4 4 0 0 1 .11 4.43 4.11 4.11 0 0 1 -.11-4.43z" fill="#ed9a5f"/><path d="m1199.86 777c0-1.85-.08-3.73 1.69-5 .34 2 .55 3.91-1.69 5z" fill="#bf2c64"/><path d="m1195.7 781.4c-.65-2.33 1-2.45 2.54-2.6a3.3 3.3 0 0 1 -2.54 2.6z" fill="#bf2c64"/><g fill="#9d8dc0"><path d="m903.41 625.56a2.86 2.86 0 0 1 -1.6 3.63l-.21-.21a3 3 0 0 1 1.93-3.29z"/><path d="m893.23 641.5a3.49 3.49 0 0 1 -1.68 3.56l-.7-.7c.2-1.38.57-2.65 2.08-3.16z"/><path d="m901.81 629.19c-.45.7-.91 1.4-1.36 2.12l-.61-.63 1.76-1.7z"/><path d="m897 636.57c-1.16 1.57-1.82 1.11-2.2-.54l-.07.1c.44-.74 1-.82 1.6-.23z"/></g><path d="m763.83 639.62 1.78 2.29c-.61-.76-1.19-1.53-1.78-2.29z" fill="#ed9a5f"/><path d="m892.93 641.2.83-1.3c1 .92.37 1.3-.53 1.59z" fill="#9d8dc0"/><path d="m889.36 646.33 1.49-2 .69.69c-.5.66-1 1.32-1.49 2z" fill="#9d8dc0"/><path d="m1091.65 806.69 2.43-1.17z" fill="#bf2c64"/><path d="m903.53 625.69a3 3 0 0 1 .35-.66c.08-.09.32 0 .49-.06l-1 .59z" fill="#9d8dc0"/><path d="m1194 783c-.52-1.47.06-1.89 1.47-1.52z" fill="#bf2c64"/><path d="m1198.2 778.85 1.65-1.83z" fill="#bf2c64"/><path d="m1013.39 400.25-4.73-9.07c19.43-15.37 41.09-22.77 65.09-19.47 18.72 2.57 32 14.09 42.63 29.89 13.16 19.6 14.67 60.78 1.27 76.65-8.14 9.65-17.3 18.25-28.82 23.27-40 17.41-50.45 56.93-41.13 91.65 8.81 32.8 18 65.49 27.3 98.16 1.18 4.14 2 7.27-3.91 8.65-8.46-13.54-13-28.76-18.76-43.45-9.51-24.47-19.1-49.07-23.95-74.87-4.45-23.67-5.9-47.75 9.45-69.13 6.28-8.75 15.06-14.29 24.35-19.16 11.72-6.17 23.56-11.71 32.35-22.53 16.27-20 18.49-47.84 1.84-67-13.14-15.16-30.4-22-51.52-16.29a145.64 145.64 0 0 0 -31.46 12.7z" fill="#fd79a6"/><path d="m1087 719.65c9 .08 18.4 9.25 18.69 18.24.33 10.09-9.88 20.43-19.81 20.07-11-.4-19.46-8.12-18.13-18.54 1.43-11.34 5.17-20.51 19.25-19.77z" fill="#fd79a6"/><path d="m804.09 1031.07c5.28-2.71 10.95-3.09 16.77-3.26 30-.83 60-2.85 89.64-8.25 4.79-.87 10.08-1.25 14.74-.16 12.59 2.93 24.6.32 36.9-1.73 20.1-3.36 40.33-2.74 60.59-.6 11.23 1.19 22.72 1.3 33.72-1.57s21.23-.9 31.6 1.9c19.53 5.29 39.28 9.12 59.63 9.42-20.52 3.2-40.9 6.7-61.82 3-11.56-2-22.89 2.52-34.37 3.7-9.37 1-18.35 3.29-28.2 1.72-12.11-1.93-23.8 2.58-35.54 6.09-28.44 8.52-56.69 18.21-87 18-12.19-.08-24 2.9-35.79 6a119 119 0 0 1 -33.42 4.38c-20.88-.48-41.65 2.46-62.58 1.86-13.62-.39-27.14-1-40.56-3.43-6.56-1.16-13.24-.08-19.75.11-31.18.87-60.77-6.9-90.38-14.85a369 369 0 0 0 -74.27-11.81c-17.59-1-34.61-6.22-51.73-10.28-5.86-6.3-5.68-13.77-4.15-21.5 10.71-7 23.26-5.12 35-6.91 6.18-.94 12.62-.51 18.91.13 5 .71 8.19 4.13 11.34 7.5 6.77 7.24 14.68 13.09 22.69 18.81 3.11 2.21 6.68 4.45 10.28 1.43s1.88-6.77.53-10.38c-1.63-4.39-5.93-8.32-2.56-13.67 17.24-2 34.35-2.63 51.67.31 27.17 4.6 53.56 13 81.11 15.73 10.33 1 20.85 1 30.9 4.18.2.18.57.36.6.59 1.82 14.14 11.76 14.35 22.74 13.69 8.92-.54 17.89 0 26.84-.16 3.37 0 7 .53 9.64-2.62.69-3.44-3.58-4.39-3.72-7.37z" fill="#b7abce"/><path d="m1290.58 992.85c2.51 11.44 4.86 22.87-3.42 33.21-5.89 2.08-12.05 3.63-17.63 6.36-13.41 6.56-27.81 10.08-42.24 14.63-3.73-4.27-4.18-8.14.11-12.67 5.11-5.41 9.68-11.35 14.48-17.05 9.91-5 14.54-13.85 17.38-24z" fill="#030303"/><path d="m488.63 1010.49 3.63 20.82c-4.71 10.63-9.36 2.09-14-.06-7.53-4.32-11.2-11.43-13.95-19.21-1.72-4.44-5.21-7.48-8.33-10.86-4.85-5.25-6.35-10.89-.58-16.64 4.56-4.54 9.17-9 13.67-13.65 2-2 3.5-4.62 6.94-4.08 8.33 3.62 13.35 10.43 17.51 18.08-.64 8.72-4.38 16.85-4.89 25.6z" fill="#030303"/><path d="m804.09 1031.07a11.85 11.85 0 0 0 3 1.69c2.92.66 6.15 1.22 5.6 5.09s-3.71 5.58-7.5 5.65c-6.35.1-12.71 0-19.06 0h-35.77c-.72-5.58-1.37-10.63-2-15.69-2.1-3-3.14-5.81.84-8.16 6.92-7.08 15.62-8.3 24.92-7.58 11.07 4.62 19.02 14.19 29.97 19z" fill="#030303"/><path d="m464.29 1012c5.77 5.59 8.93 13.07 13.95 19.21-47.65.63-95.33-1.7-143 2.14 6.58-5.62 14.72-5.31 22.17-6.79 35.31-6.97 71.81-5.51 106.88-14.56z" fill="#b7abce"/><path d="m1190.1 1009.53c6.23-10.49 6.51-22.51 8.73-34 .75-3.93-1.46-6.89-4-10-8.56-10.43-14.61-21.72-8.35-35.71 2.19-4.88 5.24-9 10.54-10.91 8.85-3.28 15.33-.22 17.19 9.07 1.59 7.93 1.83 16.33-4.5 22.53-4.34 4.25-5.59 9.29-4.37 14.23 3.37 13.63-1.56 25.44-6.66 37.38-1.13 2.65-2 5.39-3.07 8.08-1.45 1.1-1.68 4.17-4.45 3.07-1.6-.64-1.39-2.27-1.06-3.74z" fill="#f80362"/><path d="m873.92 684.93-.92 1.07c-.91-.88-.28-1.22.53-1.5-.01.02.39.43.39.43z" fill="#fdfae2"/><path d="m857.74 946.41c-.67-.45-1.2-.93-.28-1.61a12 12 0 0 1 .91 1z" fill="#fdfae2"/><path d="m263 957.62c-11.59 2.71-21.65 9.1-32.5 13.58-12.46 5.14-24.51 11.26-36.73 17-4.24-17.95-10.15-35.53-12.09-54 2.42-4.71 7.83-5.78 11.27-9.15 11.7-11.5 24.17-22.14 35.69-33.87a115.68 115.68 0 0 0 22.17-32.58c.94-2 1.76-4.38 4.57-4.68 24.57 17.67 39.88 42.2 51.46 69.45 1.18 2.78 3.4 5.82.62 8.84-3.29 3.58-6.37.64-9.4-.68-16.5-7.18-31-2.7-35.6 10.9-1.72 5.18-.66 10.15.54 15.19z" fill="#fee501"/><path d="m255.42 853.88c-15.51 35-42.56 59.53-73.7 80.28-2.65-8.4-2-17.07-2.08-25.68 0-5.28 1.66-9.9 4-14.68 4-8.25 7.12-16.92 10.31-25.53 5.21-14.07 12.69-27 19.6-40.26 14.17 8.27 29.75 14.29 41.87 25.87z" fill="#fdfae1"/><path d="m41.66 605.11c1.75.67 3.74.79 4.29 1.74 7.16 12.42 18.09 22.49 22.77 36.44 4.58 13.63-4.72 30.71-17.88 32.71-12.66 2-19.84-6-16.84-18.54 2.39-10 7.61-19.37 6.24-30.17-.43-3.41-.35-6.82-1.34-10.24-1.14-3.9-1.03-8.05 2.76-11.94z" fill="#fdfae2"/><path d="m99.51 702.48v.36c5 15.1-5.81 27.57-21.21 24.63-8.77-1.67-15.73-5.94-20.18-13.56-3.92-6.72-4.06-14 .77-20.34 5.56-7.23 13.74-8.44 22-6.43s15.37 6.66 18.62 15.34z" fill="#f80160"/><path d="m48.78 771.86c4 4.76 9 8.94 6.65 16.43-2.78 8.71-9.54 10.47-16.43 4.58-5.84-5-6.74-11.3-5.57-18 1.3-7.51 7.71-3.78 12-4.65l-.1-.07c1 1.11 2.62.78 3.61 1.81z" fill="#fdfae2"/><path d="m200.84 833.88c-1.93 16.76-14 29.45-17.5 45.44-3.81-6.93.41-13.64.19-20.42-.19-5.86 1.74-12 3.59-17.67 1.77-5.46 4.88-10.23 13.72-7.35z" fill="#fdfae1"/><path d="m65.46 787.61c4 .91 5.9 3.77 6 8 .1 3.92-2 6.24-5.83 5.71-4.19-.58-6.42-3.33-6.37-7.84.05-4.06 2.01-5.79 6.2-5.87z" fill="#fdfae1"/><path d="m48.9 771.94c-1.45-.11-3.09.15-3.61-1.81 1.76-.5 3.04-.06 3.61 1.81z" fill="#9987b9"/><path d="m544.47 880.65c-6.87-8.79-16.12-14.86-24.72-21.68-11.83-4.51-18.58-15.28-27.86-22.92-25.89-21.35-53.89-39.74-81.78-58.29-3.35-2.22-7-4.06-8.93-7.92a140.39 140.39 0 0 1 16.37-41.49c8.54-14.67 17.15-29.29 25.63-44 1.72-3 3.65-6 3.36-9.65 7.1-.32 14.31.2 21-2.94 3.38.72 3.46 3.59 3.73 6.11.81 7.6 4.87 13.19 9.91 18.74 17.12 18.87 34.94 37 53.31 54.67 8.75 8.4 17.65 16.66 26.56 24.89 12.59 11.61 23.63 24.63 34.31 38 7.84 10.35 10.09 22.73 11.68 35s3.38 24.65 2.22 37.14a20.65 20.65 0 0 1 -.32 2.94c-2 8.59-.93 17.33-1.24 26-.86 23.44-6.38 45.8-15.61 67.3-4.2 4.9-4.55 12-9.36 16.56-12.77 1-22-6.81-32.07-12.74-1.42-3.1 1-5.19 2-7.68 5.22-14.72 4.59-30.1 5.12-45.34a16.27 16.27 0 0 1 .52-2.68c.3-1.3.6-2.61.79-3.93 1.78-16.6-.84-31.78-13.93-43.65a3 3 0 0 1 -.69-2.44z" fill="#d9c501"/><path d="m592.71 813c-13.33-14.9-27-29.43-41.65-43.08-18.24-17-35.66-34.85-53.27-52.5-7.77-7.79-15-16.09-22.72-24-6-6.12-4.51-14.65-7.52-21.71 2.3-1.16 4.55-2.43 6.9-3.46 8.83-3.87 13.52-10 12.41-20.17-.67-6.26-.09-12.65-.07-19-.8-5.93 1.16-11.25 3.94-16.27 1.29-2.33 2.39-5.44 6.24-4.38 1.06 6.19-3.75 12-1.24 18.35 2.6 2.23 5.5-.1 8.17.56 7.09 25.21 15.44 50.43 40.39 63.34 15.88 8.21 33.46 14.09 52.17 13.4 2.46 2.54 2.53 5.71 2.35 9-1.64 29.51-2.22 59-3.08 88.58-.11 4 .58 8.28-3.02 11.34z" fill="#fdfae1"/><path d="m497 608.51c-7.85 4.69-6.1 14.1-10.18 20.65-7-12.73-4.8-36.55 4.48-47.32 5.48-6.35 8-14.51 13.73-21-1.51 16.16-3.03 32.21-8.03 47.67z" fill="#e30159"/><path d="m401.18 769.84c42 26.4 83.26 53.84 118.57 89.13-25.58-5.78-51.56-6-77.54-5.15-30.66.94-60.77 5.32-89.66 16.24-1.82.69-3.93.61-5.9.89 1.82-9 7.69-16.13 11.76-24 12.15-23.6 25-46.86 37.64-70.2 1.35-2.52 3.41-4.63 5.13-6.91z" fill="#fdfae1"/><path d="m592.71 813 3.75-108.87c15.78-.19 31-2.79 44.6-11.29 5-3.14 10.38-8.07 6.81-14.11-3.2-5.43-9.64-7.91-16.79-5.28-3.88 1.43-7.78 3.09-10.45 6-6.65 7.16-14.14 6.54-22.21 3.63-2.6-8.51-1.48-17.22.56-25.36 4.77-19 10.12-37.92 19.61-55.4 5.47-10.09 13.44-18 20.63-26.65 1.47-1.76 3.44-3.14 6-2.82 10.23 1 16.45 7.88 21.84 15.53a130.65 130.65 0 0 0 21.15 22.92c6.23 5.47 13.22 8.1 21.52 7 3.12 3.16.15 6.07-.74 8.74-6.29 18.68-8.79 38.22-13.36 57.27-4.92 20.49-11.4 40.6-17.32 60.84-1 3.36-2.11 6.62-1.69 10.18-3.1 10.28-8.44 19.63-12.8 29.35-9.69 21.63-18.08 43.79-27.75 65.41-5.29 11.83-11.23 23.54-21.05 32.57-2.25 2.07-4.14 5.07-8 4.2-.65-17.12-1.48-34.15-4.94-51.1-1.68-8.45-6.36-15.12-9.37-22.76z" fill="#f80160"/><path d="m607.07 886.89c12-9.17 19.82-21.68 25.83-35 11.43-25.35 21.59-51.26 32.71-76.75 3-6.88 5-14.49 11-19.78 8.5 15 15.6 30.74 24 45.85 5.19 9.39 12.81 17.07 17 27.06 4.61 10.87 6 22 6.35 33.73.69 24.37-.63 48.93 6.24 72.82 1 3.49.27 7.47.34 11.23-3.15 2.2-5.48-.26-7.91-1.52-35.56-18.31-71.94-34.9-108.36-51.38-2.63-1.19-5.54-1.89-7.2-4.57a2.79 2.79 0 0 1 0-1.69z" fill="#fdfae2"/><path d="m589.82 982.47q63.07 7.57 125.59 18.89c9.05 1.65 18.24 2.51 27.36 3.74q3.21 7.29 6.4 14.59a16.3 16.3 0 0 1 -.83 8.16 425.26 425.26 0 0 1 -85.25-12.76c-16.72-4.2-33.74-7.63-51.07-8-9.24-.17-18.49 1-27.74 1.6-5.36-2.33-4.11-5.64-1.36-9.17a30 30 0 0 1 6.9-17.05z" fill="#9d8dc0"/><path d="m118.15 662.3c5.55 22.15 5.77 44.86 6.95 67.46a188.69 188.69 0 0 1 -32.9-80.16c7.21 11.08 15.9 13.68 25.95 12.7z" fill="#e9e2d9"/><path d="m645.26 572.84c-19.11 17.77-31.14 39.47-38.49 64.51-4.43 15.09-6.81 30.25-8.35 45.72-8.89-3.23-17.78-6.44-24.29-13.84 6 .47 8-3.9 9.69-8.25 3.35-8.64 4.46-17.83 5.64-26.93 3.17-24.44 9.48-47.87 21-69.82a52.12 52.12 0 0 1 19-20.82c8.55-5.25 17.34-10.09 26-15.11 2 11.29-1 21.51-6.8 31.1-2.41 4.15-2.86 8.81-3.4 13.44z" fill="#fdfae1"/><path d="m648.68 559.4q3.41-15.55 6.8-31.1c4.88-2.4 9.73-4.87 14.66-7.18 12.42-5.8 20.19-15.87 26-27.82 2.91 3 2.22 6.86 1.23 9.85-7.1 21.44-18.51 39.85-39.11 50.85-3.26 1.69-4.56 7-9.58 5.4z" fill="#c8b102"/><path d="m725.58 358.36c-6.55-5.92-12.18-10.89-17.68-16-8.2-7.63-18.63-7.39-27.32-.21-9.79 8.09-20 15.67-30.3 23.12-7 5.08-15 6.94-23.85 6.22-11.3-.94-18.13-10.36-14.91-21.33 4.85-16.47 16.77-23.64 34.22-20.79 8.33 1.37 15-.71 20.48-8a34.12 34.12 0 0 1 52.67-2.84c4.46 4.88 7 10.44 6.75 17.28-.28 7.38-.06 14.81-.06 22.55z" fill="#232322"/><path d="m214.54 728.45c-.22 6.48-6.23 11-12.93 10.81-6.29-.16-6.48-4.31-6.31-8.93.23-6.19 5.8-13 10.73-12.23 6.21.9 7.72 5.95 8.51 10.35z" fill="#fdfae2"/><path d="m175.44 708.37c-.47 4.52-.57 9.16-1.5 13.63-1.72 8.25-7 10.41-14.71 6.48-7.58-3.83-11-12.16-9-22.32q2.2-11.38 4.55-22.75c1.26-6.06-.28-11.32-4.13-16.07-1.85-2.29-3.89-5-.77-7.51s6.25-.28 8.36 1.89c9.6 9.86 13.62 22.4 16.09 35.52.67 3.65.77 7.42 1.11 11.13z" fill="#fdfae2"/><path d="m896.33 635.9a12.33 12.33 0 0 0 -1.6.23c-.34-1.69.62-2.72 1.83-3.63-.07 1.14-.15 2.27-.23 3.4z" fill="#fdfae2"/><path d="m544.47 880.65c12.7 8.34 17.47 20.54 17.17 35.21-.09 4.29-.21 8.58-.32 12.87a17.46 17.46 0 0 1 -1.51 1.7l.15-.15c-7.44 12.56-20.17 19.83-30.21 29.77a136.21 136.21 0 0 1 -29.38 21.62c-2.38 1.4-4.58 3.31-7.65 2.88l-16.72-17.74c4.44-16.4 15.73-28.34 26.79-40.29 14.03-15.17 26.02-32.19 41.68-45.87z" fill="#f80160"/><path d="m492.72 984.55 6.17-3.89c16.78-4.82 33.87-2.1 50.84-2a5.77 5.77 0 0 1 4.49 2.35c-.49 1.76-3 2.51-2.45 4.8-1.63 6.59-5.74 12.31-6.83 19.1-18.91.42-37.85.63-56.31 5.62-4.81-9.66 2.37-17.39 4.09-25.98z" fill="#9d8dc0"/><path d="m544.94 1004.87c-2.43-8 1.26-13.91 6.83-19.1 10.49 4.34 19.93 11.05 31.14 13.8.74 3-2 6.55 1.37 9.17 1.74 4.19 3.16 8.54 5.29 12.52 2.39 4.44 1.8 8.66-1.38 11.72-3.75 3.61-8.18 1.49-11.91-1a170.42 170.42 0 0 1 -31.34-27.11z" fill="#030303"/><path d="m559.81 930.43 1.51-1.7c-.15.88.38 2.36-1.51 1.7z" fill="#fefcfc"/></g></svg>