<svg viewBox="0 0 843.75 1500" xmlns="http://www.w3.org/2000/svg"><g transform="translate(-369)"><g fill="#3b1e7c"><path d="m1212.75 604.69v895.31h-104.88c-12.7-4.86-23-13.63-33.91-21.29a560.4 560.4 0 0 1 -51.08-40.86c-8.61-7.66-17.22-15.34-25.53-23.35-14.49-14-29.23-27.64-43.67-41.66-12.4-12-24.84-24.09-37.59-35.76-17.8-16.31-35.62-32.59-54.49-47.72a623.06 623.06 0 0 0 -77.26-53.36c-27.16-15.74-55.31-29.63-86-37.19a298.83 298.83 0 0 0 -44.71-7.12c-32.86-3-64.62 2.3-95.92 11.64a559 559 0 0 0 -91.2 36.17c-20.84 10.46-40 23.67-59 37-10.22 7.16-20.1 14.76-29.89 22.49a17.53 17.53 0 0 1 -4.31 2.78c-2 .77-3.81.77-3.8-2.19v-939.52c.46-3.27 2.14-6.11 3.74-8.86a661 661 0 0 1 66.31-94.5c9.48-11.18 18.63-22.66 29-33 21.84-21.88 44.18-43.18 72.1-57.41 17.24-8.78 35.09-16.24 52.82-23.93 12.59-5.46 25.25-10.76 38.22-15.3 13.83-4.85 27.87-9.05 41.81-13.56q22.5-7.26 44.45-16c13.9-5.55 28-10.76 41.63-16.85q37-16.47 72.71-35.51c22.7-12.14 45.23-24.49 67.16-37.98 4.64-2.85 9.15-5.92 14.54-7.16h298.73v207.19c-3.18 7-10 10.54-15.2 15.6-3.55 3.47-7.4 6.69-10.84 10.3-11.51 12.09-24.13 23-35.89 34.88-16.24 16.33-24.16 36.25-26.85 58.81-3.07 25.86 2 50.54 9.34 75.09 9 30.13 21.29 59 33 88 9.65 23.86 19.75 47.53 29.74 71.25 3.75 8.91 7.48 17.83 11.34 26.69a99.84 99.84 0 0 1 5.38 16.88z"/><path d="m460.78 1500h-90.84c-.9-1.78-.44-3.68-.44-5.52q0-90.56 0-181.1c.07-3.41 2.66-5.11 4.91-7 15.34-12.55 31.41-24.1 47.63-35.46 14.45-10.12 29.2-19.77 45-27.58a578.42 578.42 0 0 1 55.67-24.34 484.8 484.8 0 0 1 65.81-19.6 225.5 225.5 0 0 1 62.8-4.13 252.05 252.05 0 0 1 88.39 22.14 539.79 539.79 0 0 1 99.4 59.35 682.13 682.13 0 0 1 52.63 43.43q21.21 19.42 42 39.31c14.76 14.12 29.34 28.44 44.27 42.37 17 15.84 33.74 31.92 51.47 46.94a665.93 665.93 0 0 0 58.87 44.59c2.22 1.49 5.84 2.45 4.56 6.57h-513.2c-1.81-1.37-2-3.36-2.2-5.42-1.89-18-8.94-33.25-23.79-44.36-21.43-16-52.92-13.55-72.11 5.08-10.5 10.21-16 22.36-18 36.54-.43 2.84-.13 6.09-2.83 8.19z"/><path d="m519.78 0h378.32c1.14 3.06-1.16 4.19-3.12 5.43-11.48 7.23-23.39 13.72-35.19 20.41-23.47 13.32-47.63 25.33-71.79 37.39-26 13-53 23.55-80 34-19.07 7.37-38.5 13.63-58 19.65-27.18 8.39-53.2 19.71-79.17 31.13-19.29 8.49-38.4 17.27-55.79 29.37a220.36 220.36 0 0 0 -27.42 22.54c-4 3.9-8.4 7.44-12.44 11.33-13.4 12.89-25.28 27.15-37.32 41.26a674.33 674.33 0 0 0 -43.4 57.49c-6.25 9.14-11.83 18.73-17.67 28.14-1 1.59-1.82 3.36-3.24 4.55-1.7 1.43-3.69 2.41-4.07-1.24q0-168 0-335.88c0-1.84-.46-3.74.44-5.52h30.91c2 1.49 2.76 3.47 3.23 5.93 5.55 28.72 29.42 49.02 57.21 48.02 25.44-1 48-18.36 54.55-45.44.74-3.08.45-6.73 3.96-8.56z"/><path d="m1212.75 217.5v365.63c-3.61.84-4.08-2.23-5-4.32-4.62-10.41-8.94-20.95-13.4-31.42q-20.56-48.22-39.93-96.93c-10-24.94-19.17-50.2-24.42-76.62-4.71-23.71-4.65-47.47 3.08-70.72a79.82 79.82 0 0 1 19.55-31.57c18-17.94 36.59-35.26 55.19-52.56 1.39-1.3 2.8-2.61 4.93-1.49z"/></g><path d="m1092.88 1500c-6-4.42-11.92-9-18-13.23a601.72 601.72 0 0 1 -65.7-53.25q-22.89-21.39-45.67-42.91c-13.59-12.87-27-25.89-40.62-38.76-35.14-33.24-71.15-65.42-111.7-92.09-31.79-20.91-64.84-39.36-101.11-51.34-17.22-5.69-35.06-8.54-53.11-10.39-36.55-3.75-71.72 2.62-106.33 13.69-31.27 10-61.86 21.87-90.39 38.09-19.47 11.07-37.8 24.18-56.32 36.84-9.77 6.68-18.84 14.36-28.27 21.52a63.75 63.75 0 0 1 -5.54 3.41 18.64 18.64 0 0 1 0-10.34c7.73-5.75 15.41-11.57 23.19-17.24 26.38-19.19 53-38 82.76-51.76 36.63-16.89 74.13-31.28 113.84-39.21a221.57 221.57 0 0 1 57.65-4.13c34.17 2.19 66.92 10 98.21 24.6a541.47 541.47 0 0 1 100.08 60.91c18.78 14.36 36.73 29.87 54.43 45.58 16.89 15 33 30.92 49.38 46.42 21.32 20.1 42.43 40.42 64 60.22 24.25 22.24 49.71 43 77.23 61.16 5.82 3.83 11.34 8.13 17 12.21z" fill="#4c3187"/><path d="m370.08 343.11a23.29 23.29 0 0 0 3-3.37c16.75-28.22 35.25-55.29 56.31-80.42 15.2-18.14 31.11-35.77 47.69-52.63 13.09-13.31 26.93-26.21 43.37-35.38s33.15-18.12 50.44-25.54c25.77-11.07 51.77-21.83 78.35-30.69 33.34-11.08 66.7-22.08 98.76-36.32 29.48-13.09 58.41-27.52 87.13-42.23 20-10.22 39.19-21.91 58.7-33a31.93 31.93 0 0 0 4.27-3.53h15.9c-8.63 5.55-17 11.63-25.95 16.54-30 16.35-60.1 32.36-90.25 48.35-31.62 16.78-65 29.54-98.47 41.91-20 7.39-40.65 13-60.77 20.13-15 5.27-29.79 11.17-44.34 17.55-19.68 8.63-39.31 17.45-58.45 27.19-15.44 7.87-28.81 18.89-41.72 30.57-37.05 33.59-68.05 72.32-96.12 113.55-8.59 12.62-16.22 25.89-24.38 38.81a23.77 23.77 0 0 1 -3.42 3.54 37.29 37.29 0 0 1 -.05-15.03z" fill="#4c3187"/><path d="m569.41 1500h-98.33c-2-1.52-2.17-3.67-2-5.91 1.78-21.6 18.24-43.25 41.5-47.76a51.12 51.12 0 0 1 60.81 45.9c.24 2.77.67 5.7-1.98 7.77z" fill="#3b1e7c"/><path d="m1212.75 217.5c-3.3 2.84-6.74 5.55-9.89 8.55-15.57 14.86-31.2 29.65-46.55 44.74-17.93 17.64-25.65 39.6-27 64.42-1.41 25.8 4.08 50.42 12.85 74.22 12.83 34.84 26.65 69.32 40.43 103.8 8.46 21.15 17.59 42 26.49 63 1 2.39 2.44 4.61 3.67 6.91v21.56c-4.19-9.38-8.61-18.67-12.55-28.16-18.6-44.81-37.42-89.54-55.46-134.58-9.93-24.77-18.57-50.15-22.29-76.72s-2.19-52.75 10.69-77a83.26 83.26 0 0 1 13.6-18.89c14.88-15.33 30.25-30.19 45.71-44.94 6.4-6.11 13.51-11.48 20.3-17.19z" fill="#4c3187"/><path d="m411.15 0h97.39c2.33 1.84 2.31 4.36 1.72 6.85-8.26 35.15-46.99 52.68-77.26 33.3a49.85 49.85 0 0 1 -22.45-31.69c-.63-2.79-1.79-5.8.6-8.46z" fill="#3b1e7c"/><path d="m569.41 1500c.49-14.44-3.95-27.34-13.92-37.61-17.34-17.87-43.57-20-63.06-5.55-14.32 10.62-21.27 25.29-21.35 43.16h-10.3c0-32.54 21.62-57.7 53.69-62.61 24.12-3.7 52.44 13.26 60.42 37 2.73 8.14 3.28 17 4.82 25.56z" fill="#472c83"/><path d="m411.15 0c2 6.51 3.05 13.52 6.18 19.43 9.2 17.4 23.94 26.7 43.87 26.44 24.69-.31 47.23-22.37 47.34-45.87h11.24c-1.91 11.84-5.54 22.9-12.93 32.65-14.06 18.57-38.49 27.41-61.1 21.72-22.75-5.74-40.59-25.37-43.94-48.37-.29-2-.64-4-1-6z" fill="#472c83"/><path d="m370.08 343.11.05 15c-.06 2.19-.18 4.37-.18 6.56q0 465.69 0 931.39c0 1.71.08 3.43.13 5.15v10.34c-.05 5.15-.15 10.3-.15 15.46q0 86.48 0 173c-.31-.16-.88-.3-.89-.47-.08-1.25 0-2.5 0-3.75q0-745.78 0-1491.56a20.49 20.49 0 0 1 .9-4.23q0 168.75 0 337.49c.06 1.88.06 3.75.14 5.62z" fill="#fefefe"/><path d="m1018.9 1258.75c.21-35.27 28.07-61.5 60.46-61.55 32.19 0 58.49 27.3 58.47 60.64 0 33.17-27.5 61.23-60 61.22-32.24-.01-58.94-27.32-58.93-60.31z" fill="#472c83"/><path d="m449.16 1144.69c-20.5 0-36.15-15.86-36.14-36.67 0-21.19 16.13-37.43 37.16-37.39 20.1 0 35.44 16 35.51 36.48.08 23.75-18.32 38.13-36.53 37.58z" fill="#462c83"/><path d="m1136.22 162.19c-19.81 0-35.93-16.53-35.84-36.71.1-20.75 16.61-37.56 37-37.31 21.21.25 35.86 16.25 35.69 37.21-.14 22.62-18.34 37.62-36.85 36.81z" fill="#462c83"/><path d="m1078.8 1207.5c26.77 0 48.71 22.31 48.73 49.53 0 28.6-22.3 51.69-50 51.72-26.25 0-48.33-22.86-48.34-50.09 0-27.97 22.48-51.15 49.61-51.16z" fill="#3b1e7c"/><path d="m448.63 1138.13c-14.35 1.95-29.63-14.06-29.35-30.85.25-14.43 14.05-30.74 30.48-30.39 16.63.35 29.54 14.49 29.71 30.49.16 15.62-14 32.53-30.84 30.75z" fill="#3b1e7c"/><path d="m1136.26 155.63c-17 0-29.29-13-29.35-30.74-.05-14.88 13-31.11 30.73-30.35 16.23.69 29.37 13.58 29.19 30.26-.19 17.52-13.9 31.99-30.57 30.83z" fill="#3b1e7c"/></g></svg>