<svg viewBox="0 0 843.75 1500" xmlns="http://www.w3.org/2000/svg"><g transform="translate(-392 3)"><path d="m392.05 1299.31v-941.59c2.79-12.21 10.84-21.61 17.11-31.94a545.55 545.55 0 0 1 46-64.21q14-16.9 28.69-33.26c12.36-13.72 26.08-25.94 39.68-38.28a162.2 162.2 0 0 1 35.47-24.17 876.11 876.11 0 0 1 99.07-42.86c14.21-5.15 28.86-9 43.16-14 32.58-11.25 64.77-23.37 96.06-38 33.05-15.5 65.33-32.47 97.15-50.35 12.91-7.27 25.15-15.65 38.41-22.26a5.84 5.84 0 0 1 3.06-.91h299.09v206.78c-.27 3.23-2.48 5.3-4.71 7.15-9.35 7.78-18.06 16.25-26.86 24.62-8.13 7.72-15.9 15.82-24.26 23.32-19.68 17.65-30.21 39.92-33.34 66.08-2.18 18.26-.16 36.05 4.18 53.73 7.3 29.76 18 58.35 29.61 86.65 16.63 40.69 33.45 81.3 50.88 121.65a119.59 119.59 0 0 1 4.5 13.68q0 445.17 0 890.34c0 1.83.46 3.74-.45 5.52h-104.82c-13.26-4.45-23.64-13.66-34.86-21.41-10.89-7.52-21.23-15.84-31.47-24.24-9.63-7.9-18.88-16.26-28.08-24.66-15.76-14.38-31.53-28.77-46.86-43.61q-17.78-17.2-35.68-34.28c-24.28-23.28-48.89-46.16-75.57-66.79a685 685 0 0 0 -65.32-45.19c-24.22-14.59-49.5-27.13-76.37-36.13-16.91-5.67-34.42-8.65-52.1-10.75a239.61 239.61 0 0 0 -24.2-1.72c-25.14-.41-49.59 4.31-73.69 11-31.17 8.65-61.13 20.49-90.32 34.45-22.6 10.82-43.3 24.64-63.7 39q-17.4 12.25-34 25.57c-1.67 1.36-3.31 2.44-5.46 1.07z" fill="#f70061"/><path d="m1115.68 1497h-513.94c-1.61-1.26-2-3-2.16-5-1.4-16.5-7.34-31-20.18-41.79-12.29-10.36-26.59-15.18-42.84-13.31-17.52 2-31.06 10.8-40.91 25a61.51 61.51 0 0 0 -10.54 29.65c-.19 2.06-.45 4-2.26 5.4h-90.8v-188.27c2.39-5.51 7.67-8.11 12-11.52 24.55-19.27 49.77-37.62 77.14-52.74a463.06 463.06 0 0 1 60-27.27c23.64-9 47.64-16.88 72.57-21.53a225.27 225.27 0 0 1 37.16-3.55 265.49 265.49 0 0 1 73.59 8.52c16.49 4.41 32.15 11.12 47.49 18.41 38.63 18.41 74 42 107.35 68.68q20.85 16.63 40.38 34.77c10.76 10 21.35 20.06 32 30.15 13.9 13.21 27.69 26.54 41.6 39.74 13.12 12.43 26.26 24.85 39.68 37a692.68 692.68 0 0 0 77.86 61.23c2.22 1.48 5.84 2.33 4.81 6.43z" fill="#f70061"/><path d="m392.05 342.73v-344.73c9.83-1.06 19.69-.19 29.52-.47 3.36.31 4.1 2.76 4.57 5.53a60 60 0 0 0 9.74 24.53c8.91 12.8 21.12 20.5 36.26 23.41 29.2 5.59 60-14.44 66.51-47.51.57-2.87 1.13-5.54 4.68-6h374.85c2.52-.15 3.05 1.18 2.15 3.21-.65 1.46-2 2.3-3.39 3.13-18.32 11.28-37.35 21.3-56.1 31.83-14.69 8.24-30 15.39-45 23-29.91 15.17-61.1 27.34-92.42 39.34-21.44 8.18-43.51 14.36-65.21 21.71-21.43 7.25-42.09 16.42-62.81 25.43a472.79 472.79 0 0 0 -44.52 21.71c-12.56 7.1-23.8 16-34.69 25.3-10 8.53-19.16 17.86-28.25 27.29-19.7 20.44-37.5 42.48-54.56 65.17-13.05 17.35-24.45 35.76-35.92 54.14-1.25 1.99-2.05 4.77-5.41 3.98z" fill="#f70061"/><path d="m1115.68 1497c-5.39-5-11.89-8.49-17.83-12.73a666.71 666.71 0 0 1 -61.25-49q-30.78-28-60.7-56.88c-13.19-12.81-26.54-25.46-39.89-38.1-33.31-31.52-68.14-61.17-106.7-86.22-31.37-20.38-64.06-38-99.76-49.65-15.19-4.94-30.91-7.36-46.71-9-35.36-3.74-69.92.44-103.79 11.1-31.29 9.85-61.73 21.77-90.92 36.8-22.67 11.67-43.3 26.51-64 41.24-10.91 7.77-20.71 17-32.07 24.16v-9.37c8.3-6.3 16.52-12.73 24.93-18.89 22.78-16.69 45.69-33.32 71.09-45.82 42.26-20.79 86-37.55 132.7-45.59 13.36-2.29 26.9-3.67 40.47-3 35 1.72 68.87 8 101.08 22.56 36.72 16.59 70.76 37.47 103 61.57a760.74 760.74 0 0 1 61 50.78c18 16.71 35.64 33.89 53.51 50.8 22.73 21.5 45.45 43 68.72 64a559.61 559.61 0 0 0 77.62 58.36c1.3.81 2.74 1.53 3.55 3z" fill="#f81a78"/><path d="m392.05 342.73q10.56-16.56 21.11-33.12c11.31-17.78 24.11-34.51 37.31-50.88a640.64 640.64 0 0 1 52.22-57.32 261.58 261.58 0 0 1 79.72-53c21.9-9.43 43.54-19.5 66-27.6 13.19-4.75 26.61-8.91 40-13.24a963.13 963.13 0 0 0 111.3-43.71c39.85-18.67 78.43-39.68 116.29-62.08 1.59-.93 3.38-1.71 4-3.71a32.51 32.51 0 0 1 14.09.08c-.49 2.3-2.55 3.06-4.23 4.09a1317.83 1317.83 0 0 1 -126.68 68.55c-44.33 21-90.4 37.54-137.28 51.95-21.48 6.6-42 15.84-62.59 24.77-14.46 6.26-28.86 12.65-42.77 20.06a189 189 0 0 0 -39.34 27.55c-9.41 8.65-19.22 16.9-27.92 26.27a783.63 783.63 0 0 0 -56.62 67.75c-16.22 22-30.27 45.38-44.61 68.58z" fill="#f81a78"/><path d="m591.45 1497h-98.3c-2.34-1.82-2.12-4.3-1.79-6.83 3.06-23.38 15.91-39 38.19-46 15.34-4.83 30-1.6 42.89 8a51 51 0 0 1 20.77 35.19c.46 3.35 1.36 6.91-1.76 9.64z" fill="#f70061"/><path d="m934.1-1.85-14.1-.08c-1.24 0-2.49-.12-3.73-.12h-370.71c-1.25 0-2.49.1-3.73.15-3.4 3.24-7.56 1.62-11.43 1.81-28.74.64-57.47.11-86.21.28-3.26 0-6.52 0-9.77-.28-3.92 0-8 1.12-11.48-1.81l-30.89-.1c.2-.29-.48-1 .47-1h3.74 839.25v10.15q0 742.82-.06 1485.64c0 1.37 1.08 3.17-.88 4.21q0-444.78 0-889.57c0-2.65-.13-5.3-.19-7.95-2.64-5.8-1.68-12.08-2.41-18.13a16.91 16.91 0 0 0 .62-8.73 43.28 43.28 0 0 1 -.26-7.47q0-168.91 0-337.83c0-3.59.49-7.15.19-10.74s-.46-7.42 1.89-10.67c.07-1.09.19-2.18.19-3.27q0-100.45 0-200.9v-3.09c-1.65-1.16-3.25-.68-4.74-.68q-145.53 0-291.06 0c-1.58.03-3.14.11-4.7.18z" fill="#fefefe"/><path d="m591.45 1497c.57-14.27-3.9-26.88-13.66-37.14-12-12.58-30.1-19.44-49.57-12.92-13 4.35-22.44 12.79-29 24.36-4.43 7.82-5.84 16.71-6.06 25.7h-10.3c-.37-27.92 18.21-54.09 45.44-60.85 20.2-5 38.33-.33 53.76 13.59 13.94 12.56 19.94 28.67 19.68 47.26z" fill="#f90071"/><path d="m1159.68 1254.64c0 33.69-27.18 61.55-60 61.54-32.33 0-58.83-27.17-58.84-60.33 0-34 27.09-61.49 60.52-61.47 31.87.01 58.32 27.31 58.32 60.26z" fill="#f90071"/><path d="m1234.38 205.91q0 5.18.07 10.35c-2.34 3.77-5.68 6.63-8.86 9.6q-24.45 22.81-48.13 46.44c-15.37 15.24-21.73 34.44-24.08 55.49-2.63 23.52 2.41 45.85 9 68.11 11.81 39.75 28.92 77.43 44.38 115.76 8 20 16.8 39.65 25 59.54 1.38 3.34 1.42 7 2.61 10.4q0 8.94 0 17.88c-4.26-4.2-5.48-10-7.66-15.19-18.2-43.26-36.46-86.5-54.16-130-11.36-27.89-21.6-56.27-27.16-86-5.71-30.55-3.29-60.27 13-87.67 6.53-11 15.52-19.88 25-28.27 3.85-3.43 7.49-7 11.15-10.65 11.87-11.7 23.8-23.33 36.68-33.94a7.12 7.12 0 0 1 3.16-1.85z" fill="#f81a78"/><path d="m1158 160c-18 1-35.86-15.48-35.81-36.57s18-38.14 37.28-37.58c19.5.57 36 16.77 35.67 37-.31 21.56-17.87 37.98-37.14 37.15z" fill="#f90070"/><path d="m471.7 1067.89c20.53-.32 36.22 16 36.16 36.69s-16.09 37.23-37.32 37.51c-19.88.26-35.67-17.9-35.48-36.91.22-21.18 15.94-37.29 36.64-37.29z" fill="#f90070"/><path d="m530.6-1.9h11.23c-2.44 18.27-10.25 33.56-25.42 44.45-17.15 12.31-35.94 15.45-55.66 7.45-21.52-8.74-33.73-25.18-37-48.25-.17-1.23-.55-2.43-.84-3.64h11.23c2.55 1.7 2.4 4.62 2.95 7.11 2.68 12.2 9.51 21.52 19.63 28.5a44.85 44.85 0 0 0 53.81-2.42 47.87 47.87 0 0 0 17.1-27.07c.52-2.23.78-4.67 2.97-6.13z" fill="#f90071"/><g fill="#f70061"><path d="m1234.42 581.6c-5.53-9.46-9-19.85-13.23-29.89q-21.51-51.06-42.39-102.39c-9.8-24.14-18.37-48.74-24.33-74.15-6.07-25.88-5.9-51.62 3.37-76.8 4.88-13.26 13.59-24 23.84-33.58 9.67-9 19.09-18.36 28.64-27.52 6.41-6.15 12.86-12.24 19.29-18.36a9 9 0 0 1 4.84-2.65c0 1.25.12 2.5.12 3.74v357.4c0 1.4-.1 2.8-.15 4.2z"/><path d="m530.6-1.9c-.39 19.59-15.93 38.18-36.94 44.16-28.21 8.05-59.29-15-59.49-44.16z"/><path d="m1101.38 1204.69c26 0 48 22.83 48 49.76 0 27.9-22.71 51.57-49.43 51.39s-48.73-21.51-48.69-50.12c.04-28.94 22.74-51.09 50.12-51.03z"/><path d="m1158.22 153.48c-14.91 1.77-29.77-13.88-29.52-30.24.24-16.17 13.82-30.92 30.36-30.95s29.58 15 29.63 30.49c.06 16.83-15.75 32.59-30.47 30.7z"/><path d="m471.41 1074.45c14.87-1.53 30.19 12.13 30.08 30.1-.11 18.13-15.67 30.82-30.31 31.15-16.27.38-30.1-16.56-29.84-30.26.32-16.94 15.08-32.44 30.07-30.99z"/></g></g></svg>