<svg viewBox="0 0 1062.21 1354.45" xmlns="http://www.w3.org/2000/svg"><g transform="translate(-246.06 -92.74)"><path d="m1239 1273.18c-.23 4.5-4.74 5.07-7.08 7.64-7.14 7.83-15.33 14.64-21.86 23.11-8.47 11-20.87 17.23-31.89 25-15.94 11.32-30.35 24.38-44.56 37.67-15 14-31.74 25.24-49.25 35.56-16.24 9.57-32.92 18.46-51 24.07-15.07 4.7-30.19 9.23-46.22 10.52-23.35 1.89-46.7.09-70 1.25-12 .6-23.9 2.53-35.75 4.47-24.77 4-49.73 5.72-74.68 4-16.93-1.15-32.15-9-46.68-17.44-26-15.18-53-27.63-83.07-31.8-16.11-2.24-32.34-3.57-47.82-9-23.65-8.29-44.76-20.94-64.22-36.68a326.8 326.8 0 0 0 -43.92-30.09c-19-10.79-35.79-24.91-54.46-36.15s-34.75-26.15-51.57-39.83c-10-8.14-17.5-19.45-25.68-29.69-2.3-2.87-6.25-4.72-6.6-9.06 6.4-3.56 13.4-2.12 19.95-1.55 22 1.94 43.83 5.56 64.89 12.76 6.27 2.14 12 5.53 18.16 7.79a70.37 70.37 0 0 0 26.83 4.69c10.75-.4 21.14 1.4 31.42 4.4s20.55 5.38 31.23 6.11a56.73 56.73 0 0 1 12.6 1.86c15.32 4.65 31 4.6 46.76 4.23a107.93 107.93 0 0 1 22.16 2c19.17 3.53 38.59 2.2 57.85 1.31 12.07-.55 24.18-.55 36.25-1.78 7.58-.77 15.26-1.1 22.82-2.12a252.49 252.49 0 0 1 64.82-.13c6.78.84 13.61.15 20.33 1.38a280.63 280.63 0 0 1 72.33 24c5.23 2.54 11.6 3.4 15.07 9 1 2.75-.47 4.85-1.7 7.11-2.51 4.59-1.86 6.92 2.93 9.09 6.89 3.13 14.16 4.64 21.73 3.36 17.78-3 35.75-4.67 53.56-7.57a246.93 246.93 0 0 1 28.4-2.83c15.47-.68 30.73-3.46 46.3-3.4 16.3.07 32.56-2.1 48.85-3.08 13.75-.83 27.51-2 41.25-2.43 14.69-.42 28.38-4.72 42.38-8 3-.74 6.14-2.24 9.14.25z" fill="#fefce9"/><path d="m1013.08 343.74c1.9 0 3.12 1.16 4.3 2.41 10.88 11.57 24.36 20.34 34.4 32.91 8.57 10.73 20 18.19 32.19 24.49s22.2 16.15 33.14 24.45c9.1 6.92 18.18 13.92 27.79 20.06 11.69 7.46 20.77 17.11 28.39 28.57 10.4 15.64 19.52 31.85 23.77 50.28 1.84 8 2.34 16.27 3.63 24.38.75 4.67-1.64 8.56-2.56 12.82-2.63 12.24-1.92 24.84-3.85 37.16-2.78 17.76-1.61 35.6.26 53.27a117.71 117.71 0 0 0 7.41 30.08c7.36 19 10.1 39.34 16.43 58.68a141.47 141.47 0 0 0 7.23 19c9.62 19.47 16 40.19 23.83 60.32 5.72 14.6 13.2 28.54 18.46 43.29 6.33 17.73 8.3 36.67 13.17 54.85a137.79 137.79 0 0 0 7.52 21.6 139.54 139.54 0 0 1 13 58.4c0 18.41 2.91 36.6 5.75 54.77 1.38 8.83 1.41 17.93-1.22 26.5-3 9.87-3 20-1.79 29.69a128.87 128.87 0 0 1 -4.84 54.57c-1.87 6.06-3.26 12.24-7 17.55-3.58-.63-2.57-3.41-2.27-5.48a139.9 139.9 0 0 0 -.1-37.91c-1.11-8.47-.25-17-1.47-25.43-.66-4.61 2.89-7.73 5.31-11-.65-3.06-3.1-3.71-5.23-4.39-5.36-1.7-7.08-5.46-7-10.73.1-6.8.35-13.62-1.15-20.33-4.55-20.38-15.88-34.83-36.86-39.4-22.41-4.9-45.2-7.54-68.07-9.68-18.59-1.74-37.19-3.44-55.74-5.67-13.06-1.57-26.1-3.38-39.07-5.66a64 64 0 0 1 -8.72-1.84c-7.07-2.29-7.79-4.94-3-10.87a15.39 15.39 0 0 1 10.47-.46c3.85 4.69 6.81 2.14 9.68-1.22 5.87-1.32 11.76-1 17.65-.31 2.14.18 4.13 5.08 6.44.18 1.77-1.6 3.82-1.68 6-1.11 2 1.49 3.66.65 5.17-.92 10.16-2.46 19.9-.72 29.45 2.87 1.11.62 1.36 2 2.44 2.74a2.1 2.1 0 0 0 -.17-1.3c-9.61-8.34-21-12.07-33.4-11.95a344.22 344.22 0 0 1 -37.47-1.56c-14.88-1.47-29-6.29-42.64-12.22a6.84 6.84 0 0 1 -4-4.67 5.08 5.08 0 0 1 .9-4.18c5-2.6 10.37-1.56 15.59-1.08a252.83 252.83 0 0 1 28.94 4.33c9 1.9 18 1.72 27.21.69 11.74-1.31 23.38-3.54 35.25-3.71-15.47-2.16-31.12-2-46.39-5.54a150.63 150.63 0 0 1 -15.25-4.47c-9-3.14-18-6.48-27.6-7.33a9.34 9.34 0 0 1 -6.34-2.61 4.24 4.24 0 0 1 -.3-4.15c2.23-2.87 5.49-3.1 8.67-3.05a217.12 217.12 0 0 1 36.68 3.9c14.86 2.79 29.79 5.77 44.83 2.26 8.73-2 17.74-3.93 26-10.16-6.79.74-12.41 3.26-18.36 1.9-2-.83-3.91-2.24-6-.22-3.45 1.58-6.91 2.24-10.38.09-2-2.25-4-.56-6 .12-8.34 0-16.34-1.93-24.37-3.87-12.74-3.07-25.22-7.37-38.62-7.19a79.87 79.87 0 0 0 -30.9 6.44c-3.47 1.5-6.86 3.47-10.85 3.32a4.81 4.81 0 0 1 -1.95-.73c-2.13-4.81.59-8.52 2.79-12.35 1.23-1.18 2.35-2.47 3.66-3.56 18.23-7.12 36.84-11.42 56.49-7.14 13.31 2.9 26.83 4.25 40.36 5.13 10.95.71 21-3.34 31-7.72-17.13 4.92-32.85-1-48.28-6.71-20.21-7.49-40-8.64-60 .19-4.21 1.86-8.28 4.43-13.13 4.59a5 5 0 0 1 -3.5-2.2c-2.42-9.26 1.16-17.81 6.39-24.23 4.8-5.9 13.69-6 21.44-5.55 9.42.56 18.31 3.42 27 7.06 11.76 5 23.71 9.39 36.38 11.34 14.74 2.27 28.16-1.61 40.6-9.8-20 5.14-39.22 2.23-57.93-5.47-8.61-3.55-16.67-8.37-25.79-10.82-3.49-.94-7-1.6-10.53-2.34-2.34-1.52-4.67-2.21-6.94.18a36.37 36.37 0 0 1 -16 2.28 3.77 3.77 0 0 1 -1.69-1.23c-.81-10.46 4.65-16.53 14.6-17 15.37-.77 29.84 3.16 44.28 7.67 12.34 3.85 24.59 7.76 37.85 7.86 12.29.09 30.49-5.15 43.68-10.53-1.72-1.63-3.49-.32-5 0a112.6 112.6 0 0 1 -55.4-1.42c-7.36-2.06-14.49-4.84-21.65-7.49-12.62-4.67-25.35-6.88-38.66-3.53a17 17 0 0 1 -6.31.58 5.1 5.1 0 0 1 -2.9-1.34c-.85-7.06.82-10.2 7-12.22a58.05 58.05 0 0 1 33.88-.71c9 2.43 17.92 5.3 26.7 8.54 17.79 6.57 34.68 3.44 52.09-5.3-18.42 3-35.06-1.73-51.81-5.29-18.08-3.85-36.12-5.36-54.2-.09-1.85.54-3.7 1-5.59.12a5.37 5.37 0 0 1 -2.26-3.77c1.51-6.27 4.58-8.93 12.09-9.82 6.31-.74 12.82-1.13 19-.05 10.55 1.84 21 1.43 31.57 1a31.62 31.62 0 0 1 6.94.39c3.57.56 7.06 3.79 10.74.27 6.73-2.88 14.28-1.76 21.1-4.34 2.56-1 5.37-1.25 8-2.63-9.81.39-19.49-1.22-29.25-1.55-2.73-.1-5.57.3-8-1.49a4.11 4.11 0 0 1 -.52-3.93c3.14-4.16 8.08-4.62 12.5-5.25 9.14-1.32 17.51-4.56 25.7-8.33-15.68 3.06-31.58 3.92-47.56 3.62-1.91 0-3.83-.16-5.44-1.41a4.57 4.57 0 0 1 -.79-4c1.34-3.3 4.38-3.91 7.32-4.16 7.41-.64 14.69-2.13 22.06-3.1 15.47-2 29.23-8.32 41.88-18.2-10.48 5.83-21.56 8.37-32.76 10.06-14 2.12-28.39 1.53-42.28 5a7.13 7.13 0 0 1 -4.39-.33 3.17 3.17 0 0 1 -1.81-3.46c2.28-4.34 6.72-4.8 10.76-5.69 13-2.87 26.28-4.44 39.48-6.3 9.26-1.31 17.6-5.28 25.53-10.25a255.64 255.64 0 0 1 -41.63 2.29c-2.53-.08-5.1.23-7.49-1-1.23-1.26-.62-2.47.09-3.68 9.22-6 19.51-10 29.17-15.13 2.22-1.18 4.63-2.06 7.65-3.72-6.83 1.21-12.63 3.07-18.51 4.47-11.93 2.84-24.4 2-36.18 6.21-5.39 1.92-9.55 6.43-15.54 6.73a5.08 5.08 0 0 1 -3.25-2.18c0-7.74 3.16-12 10.3-13.89a101 101 0 0 1 14.44-2.41c18.79-2.22 35.17-10.43 50.53-20.37-18.51 3.56-37.81 5.4-55.39 14.15a7.06 7.06 0 0 1 -3.72.71 4.73 4.73 0 0 1 -3.32-1.94c-1.56-5.12.76-7.55 5.68-8.34a50.52 50.52 0 0 0 22-9.45c7.89-5.78 16.33-10.68 24.61-16-8.16 1.74-15.73 5.13-23.4 8.23-2.15.87-4.17 2.18-6.64 1.94a4.51 4.51 0 0 1 -3.08-1.93c-1.19-2.79.52-4.87 1.75-7.07 4.35-7.77 8.3-15.75 12.86-24.87-8.38 5.27-13 12.28-17.69 19.24-1.76 2.62-2.91 5.75-6.21 7a5.28 5.28 0 0 1 -4.62-.73c-2.83-6.11-.87-12.31-.53-18.53.16-3 2.52-7.34-3-8.63a9.8 9.8 0 0 1 -2.81-.15c-12.08-6-21.91-1.2-26.9 13.49-3 8.73-3 17.51 1.76 25.91 3.13 5.55 5.71 11.37 9.8 16.37 6.59 8 6.34 11.21-.94 19.14a5.92 5.92 0 0 1 -3.86.46c-.82-.24-1.81-.46-2.21-1.17-6.25-11.22-17.25-19.35-20.74-32.45-1.29-4.85-2-9.46-1-14.38.52-2.42 1.13-4.89.41-7.94a11.79 11.79 0 0 0 -7.51 9.24c-1.26 7-1.08 13.81 3.17 20.18a75.37 75.37 0 0 0 15.22 17 49.42 49.42 0 0 1 9.63 10.95c4.21 6.21 3.53 10.51-2.09 16.3a8.22 8.22 0 0 1 -4.86.18c-5.27-2.37-6.51-8.15-10-12-7.08-7.87-14.25-15.72-18.78-25.55-1.73-3.75-3.13-7.39-2.9-11.54.7-1.77 2.23-3.53 0-5.24-4.21 1.82-3.46 5.9-3.79 9.12-1.43 13.85 4.6 24.74 14.48 33.74 6.6 6 13.47 11.76 17.65 19.88 3.27 6.35 2.65 10.39-2.12 15.5a5.65 5.65 0 0 1 -4.69 0 7 7 0 0 1 -2.41-2.89 96.26 96.26 0 0 0 -17.73-23.11c-10.45-9.74-18.85-25.94-22.32-40.08-2.37 3.69-2.69 6.79-.41 15.18 3.44 12.69 9.05 24.25 18.64 33.58 5.79 5.63 11.44 11.4 17.14 17.12a46.93 46.93 0 0 1 3.92 4.18c3.36 4.3 4 9.6 1.2 11.51-4.11 2.76-6.77-.82-9.38-3-6.41-5.31-11.64-11.79-16.51-18.5a232.18 232.18 0 0 0 -15.62-19.3c-4.48-5-9.86-8.66-18.19-8.22 15.8 7.62 17.29 23.51 24.06 36-.33 2-1.63 2.85-3.52 3a4.69 4.69 0 0 1 -3-.75c-11.09-8.9-23.95-11.29-37.75-10.34a4.58 4.58 0 0 1 -1.35-1.9c-1-3.11-.75-6.32-.76-9.5 0-111.8-.21-223.6.23-335.4.06-15.45-1.61-31 .43-46.4a5.76 5.76 0 0 1 2.8-3.38c12.88-3.5 21.92-11.1 25.75-24.26a3.12 3.12 0 0 1 2.07-2z" fill="#fefce9"/><path d="m984 371.83c.07 36.07.22 72.13.18 108.2q-.13 137.34-.4 274.68c0 3.82.15 7.64.23 11.46a4.51 4.51 0 0 1 -.17 5.53 2.82 2.82 0 0 1 -2.51.66c-.64.18-.73-1.37-1.62-.54a2.59 2.59 0 0 1 1.3.72 13.54 13.54 0 0 1 4.27 8.2c.12 6.48 1.08 13-.68 19.39-1.14 1.82-2.93 1.82-4.47 1-5.66-2.82-11.51-5.46-14.5-11.64-.7-14.67-.06-29.34-.34-44-.2-10.39.56-20.78-1.06-31.17-1.66-10.66 1.87-21.07 2.63-31.64 1-13.35 2-26.67 2.22-40.08.3-22.28-.34-44.58 1.21-66.82.49-7-2.68-12.53-5.89-18.18-2.67-3.55-.85-8-2.29-11.77a18.4 18.4 0 0 1 -.13-7.5c.6-2.17.12-4.28-.34-6.41-.88-25.32-.26-50.63-.35-76-.2-38.07.55-76.15-.3-114.2q-.85-38.58-1.13-77.15c0-8.52-2.11-10.61-10.58-10.69-20.2-.21-40.39-.07-60.59-.08h-213c-2.34 0-4.68.05-7-.17-14.51.23-29 .27-43.51 0-24.65.34-49.3.05-73.94.15-9.4 0-9.54.18-9.57 9.67-.1 34.66.18 69.31-.13 104a24.45 24.45 0 0 1 -.73 4.57 6 6 0 0 1 -1.09 1.88c-2 1.91-3 4.63-5.06 6.51-2.78 2.51-3.42 5.58-2.86 9.26 1.5 9.78 4.43 19.86 1.24 29.45-3.63 10.89-3.66 22-2 32.57 2.41 15-4.26 28.84-3.09 43.75.74 9.41.63 18.4 5.42 26.78a5.59 5.59 0 0 1 .88 3.68c-1.93 8.89 1.38 16.63 4.89 24.44 1.6 3.55 1.38 7.67.83 11.35-.83 5.53 0 10.92.1 16.36.11 6-1.28 11.61-2.32 17.43-2 11.15-3.33 22.68-2.9 34 .27 7.26 1 14.13-1.09 21.28-2.33 8.1 3.77 14.48 5.64 21.75.42 1.64 1.76 2.9 2.47 4.46a8.83 8.83 0 0 1 .59 2.14c.21 8.32 1.18 16.66-.59 24.92-4 .71-4.23.33-3.62-5.09-1.39 3-.28 5.84.88 8.53a13.82 13.82 0 0 1 .06 11c-2.3 6-2 12.42-3.09 18.63-.61 3.64-.19 7.67-3.42 10.48-.41.1-1 .28-1.23 0-6.39-6.13-11-3.23-16.24 2.22-5.67 5.87-12.84 9.7-21.59 9.36-2.73-.11-5.45.79-8.16 1.26-4.52.78-7 3-5.36 8 1.37 4.17 0 7.13-4.09 8.59-3 1.07-3.89 3.3-4.58 6.22a47.13 47.13 0 0 0 -.86 19.56c.41 2.34-.74 5.84 3.13 5.78 3.4-.06 6.76-1.23 7.83-5.25a7.22 7.22 0 0 0 .24-2.53c-1.46-15 17.94-26 31-17.14.83.57 1.7 1.34 3.21.9.43-8.24 3.72-15 11.52-18.92 4.12-2 8.48-3 12.84-.7 2.62 1.4 5.35.95 8.07 1a3.79 3.79 0 0 1 1.18 1.45c1 2.61.45 5.46 1.44 8.1 3.52 9.4.68 17.18-6.78 23.23-7 5.69-14.44 4.69-21.65-.2-3.4 18.27-16.71 25-32.83 16.86-4.56-2.3-7.08-2.23-13.14.35 4.37 11.28 4.37 11.28-1.41 14.67 2.26 5.7 3.32 11.84 11.19 13.6 4.55 1 8 4.8 10.37 8.93 1.84 3.19 2 6.17-2.63 7.24a4.86 4.86 0 0 1 -1.86-.13 117 117 0 0 1 -26.11-12.29c-7.21-4.48-11.81-11.33-17.95-16.71a86.06 86.06 0 0 1 -21.37-32.87c-1.18-4.77-3-9.37-3.66-14.29a40.69 40.69 0 0 1 .12-8.11c2.17-13.46 5.73-26.39 14.29-37.42a98.88 98.88 0 0 1 11.44-11.44 44.69 44.69 0 0 1 18.74-7.19 49 49 0 0 0 24.48-11.25c2.28-1.89 4.53-3.84 7.45-4.74 5.3-1.25 10.39-3.51 16-3 3.51.31 4.15-2.06 4.17-4.89.05-7.79 0-15.58 0-23.38-.29-6.68-.1-13.34 0-20-.66-25.08.77-50.19-1.3-75.25-.43-13.8-.17-27.6-.18-41.4q-.06-80.91 0-161.81c0-3.76-.69-7.7 1.76-11.1.35-33.88.61-67.77-.93-101.63-2.13-2.5-1.88-5.55-1.89-8.51 0-13.19-.08-26.38 0-39.58.21-32.91 14.33-54.86 45-67.2 17.19-6.92 35-6 52.84-5.46 1.27 0 2.39.86 3.57 1.32 46.12.49 92.23 1.3 138.35 1.37 52.72.09 105.42.71 158.13 1.3 8 .09 15.75-1.85 23.92 0 10.75 2.4 18.85 8.72 26 16.09 11.53 11.87 17.66 26 17.57 43.23-.19 34.44.74 68.88 1.2 103.33 1.55 1.7 1.72 3.84 1.74 6 .09 17.8.16 35.6 0 53.4a9.78 9.78 0 0 1 -.57 3.12 10.36 10.36 0 0 1 -1.1 2.16z" fill="#010102"/><path d="m520.21 362.87q.18 57.63.38 115.27c.15 31.84.44 63.68.63 95.53a29.91 29.91 0 0 1 -.43 3.75c-9 1.78-11.66 8.42-13.27 16.44-1.85 9.17-3.56 18.38-5.18 27.57a118.43 118.43 0 0 1 -10.93 31.85 18.68 18.68 0 0 1 -2.27 3.83c-1.72 2.08-3.74 3.71-6.59 2.48-2.53-1.09-3-3.42-2.77-5.91a31.67 31.67 0 0 1 1-5.65c4.16-15.16 7.13-30.62 11.86-45.64 2.77-8.79 3.17-18 2.94-27.12-.24-9.68-2.7-12.08-11.86-14.88-10.83-3.31-10.54-3-11.4 8.05-1.31 16.7-1.17 33.57-5 50-.84 3.63-1.44 7.7-6.18 8.88-3.08-2.49-2.14-5.76-1.74-8.83 1.85-14.33 4.28-28.59 4.53-43.09a55.82 55.82 0 0 0 -.9-10.79c-1.68-9.48-6.67-13.94-16.93-14.88-2.45 2.33-1.53 5.14-.71 7.69 2.15 6.66 1.53 13.48 1.42 20.26 0 2.06 0 4.74-2.66 5.17-2.91.47-4-2.07-4.68-4.32-2-6.52-3.86-13.06-6.25-19.44-4.64-12.36-9.28-14.28-21.41-9.17-7.61 3.21-15.41 5.77-21.29 12.31-7.54 8.38-8.43 17.53-1 26.16 4.57 5.31 9 10.76 14 15.72 6.49 6.48 11.61 14.09 17.06 21.41 1.43 1.93 3.77 4.39 1.49 6.8s-5.2.94-7.64-.42a62.43 62.43 0 0 1 -17.49-14.68c-5.3-6.32-11.71-10.47-20.57-8.77a9.06 9.06 0 0 0 -5.53 2.76c-11.31 12.69-11.46 30.64-.89 43.78a59.65 59.65 0 0 0 18.53 15.28c1.87 1 3.81 2 4.94 3.9.89 4.45-1.44 6.57-5.41 7.49-5.56-.65-9.17-5.12-14-7.22-2.53-1.09-4.93-2.48-7.42-3.68-3.88-1.86-6.24-.91-6.35 3.62-.2 7.85-.66 15.73 2 23.35.91 2.6 1.89 5.23 1.07 8.08-2.66 6-7.91 9.85-12.15 14.55-14.33 15.9-28.75 31.73-38.29 51.25-3.84 7.88-6.14 16.23-8.41 24.62-.8 1.6-2.29 2.44-3.69 3.4-8.77 6-11.39 14-7.87 24.15.9 2.6 2.12 5.12 1.52 8a11.07 11.07 0 0 0 -.34 6.32c5.11 16.08 1.67 32.93 4.59 49.21.77 4.25.44 8.49-2.44 12.14-1.4 1.77-1.51 3.69-1 6 6.08 27.3 16.34 53.15 27.12 78.84 7.18 17.12 12.61 34.76 14.25 53.41.28 3.24.63 6.35-1.3 9.21-8.19 7.94-8.13 9.31 1 21.33-.76 9.54-3.65 18.56-7.08 27.39-1 2.6-2.5 5.69-6.51 3.93-6.6-16-11.33-32.53-15.73-49.32-4.22-16.1-4.34-32.7-8.62-48.53-6.45-23.88-10.13-48.4-17.68-72-8.11-25.4-16.06-50.85-23.42-76.46-3.89-13.54-7.46-27.23-8.57-41.43-1-12.43-2.95-24.77-2.56-37.32.86-27.74 7.82-54.14 15.5-80.66 7.45-25.76 19.15-49.84 27-75.34 4.24-13.87 11.55-26.44 15.68-40.21 5.53-18.39 14.09-35.41 22-52.77 5.38-11.84 13.31-22.06 20.42-32.83 11.4-17.25 25.92-31.79 39.62-47.07 5.57-6.21 12.47-10.92 19.37-15.33 16.78-10.69 33.7-21.22 51.09-30.85 20.35-11.26 40.11-23.45 59.89-35.63.92-.63 2.3-.64 3.51-.94z" fill="#fdfce9"/><path d="m304.89 1202.68c-1.68 4.6-4.88 5.92-9.73 5.56-6.73-.49-13.53 0-20.48-2.07-1.39-5.54 1.31-10.6 3.72-14.75 8.5-14.61 17.39-29.08 32.06-38.73 8.57-5.64 18.18-8.79 27.55-12.54 2-2.18 4.7-2.62 7.38-3.24 17.68-4.09 35.69-6.12 53.6-8.72.7-.16 1.4-.27 2.11-.4a18.66 18.66 0 0 1 2.11-.39c9.94-.55 19.66-3.5 29.71-2.81 17.14-1 34.06-4.08 51.17-5.51 6.09-.51 6.94-3.1 3.81-8.66-5.14-9.13-12.73-16.4-18.92-24.73-2-2.72-4.2-5.33-6.28-8a118.84 118.84 0 0 0 -18.25-22.69c-12.36-18.25-25.14-36.21-36.32-55.26-15-25.54-27.63-52-34.82-80.92-.46-1.86-1.09-3.69 0-5.55 2.7-2 5.05-.33 6.9 1.2 7.12 5.86 15.52 9.48 23.41 14 13.83 8 25.15 19.27 37.55 29.15 7.51 23.31 18.28 45 30.11 66.47 12.22 22.13 24.91 43.89 38.76 65 3.74 5.7 8 11 12.14 16.34 3.3 4.23 8.46 4.53 12.9 6.39 14.21 4.09 28.75 2.58 43.11 2 16.33-.63 32.65-1.68 49-2.19 2.55-.09 5.11.11 7.58-.68 13.17.12 26.15 2.27 39.21 3.58 23 2.32 46.11 3.91 68.92 7.6 36.22 5.87 72.71 9.81 108.56 18.37 33.48 8 66.16 18.78 99.63 26.65a16.17 16.17 0 0 1 4.7 1.9c8.91 4.53 18.39 7.65 27.78 11 20.41 7.23 40.64 14.9 60.06 24.55a25.14 25.14 0 0 1 4.88 3c1.12 1 2.37 2.18 2.29 3.61-.43 7 .06 14.15-4.1 20.37-4.62 2.22-9 .8-13.44-.78-11.68-4.19-23.39-8.31-35-12.68-4.45-1.23-8.74-3.21-14.17-3.1-4.67 25.69-3.56 51.53-3.44 77.32-.33 4.21-2.83 3.64-5.15 2-4.13-2.94-8.72-4.92-13.24-7.07a18.12 18.12 0 0 1 -3.5-2.18 7.55 7.55 0 0 1 -1.35-1.69c-3.25-8.12-2.59-16.88-2.63-25.14 0-13.15 0-26.35.3-39.52.07-3.42.61-6.77 1-10.14-.63-3.29-3.59-3.35-5.88-4-41.58-12-82.95-24.36-125.93-31.23-34.35-5.49-68.91-9.39-103.23-15.15-18.89-3.17-37.9-7-57.37-6-6 .3-12.17-1.53-18.35-1.14a113.89 113.89 0 0 0 -19.35-1.14c-18.47.14-36.94.51-55.4.13-14.88-.31-29.7.63-44.54 1.12-9.75.32-19.55-.33-29.24 1.24-4.15 0-8.3-.09-12.44.06-2.91.42-5.76 1.3-8.75 1.18-6.94-.38-13.81.39-20.67 1.27-1.42 0-2.84.14-4.25 0-3.15-.08-6.1 1.37-9.26 1.19-1.74.13-3.48.11-5.22.11-7.64 1.38-15.48 1.32-23 3.31-19.25 3.69-38.64 6.43-58 9.31q-28.82 5.11-45.81 29a14.44 14.44 0 0 1 -1 1.39c-.49.66-1 1.28-1.58 1.9a7.83 7.83 0 0 1 -1.92 1.53z" fill="#fe0160"/><path d="m957.92 1207.9a438.59 438.59 0 0 0 -.74 56c.29 6.89-1.28 14.25 2.16 20.9-5.85 2.91-9.89-.46-13.9-4a351 351 0 0 0 -53.76-22.94c-32.56-11-66.16-12.29-99.93-11.41-16.06.42-32 3.63-48.1 4.39-25.86 1.23-51.93 4.2-77.57 1.22-19.06-2.22-38-2.72-57-3.31-10.58-.32-20.53-5.1-31.15-5.58-17.07-.77-33-6.92-49.63-10.06-5.54-1-11-.82-16.48-.77a74.19 74.19 0 0 1 -33.13-7.63c-18.36-8.8-38.05-12.52-58-15.57a225.31 225.31 0 0 0 -38-2.47l-3.81-1.27c-5.61-4.29-9.36-10.17-13.41-15.78-1.44-2-2.21-4.17.34-6a55.81 55.81 0 0 1 24.31-4.1c19.45.91 37.92-4.43 56.41-8.65 19.15-4.37 38.18-4.1 57.49-3.87 20.42.24 40.37 5.26 60.83 4.77 12.17-.29 23.88 3.6 35.86 5.22 9.72 1.39 19.61 1.53 29.21 3.89a38.73 38.73 0 0 0 11.4.88c15.78-.74 31.33 1.5 46.94 3.2 12 1.31 24.16 1.61 36.21 1.73 21.2.23 42.46-.5 63.63-.46 24.69 0 49.68-.87 74.19 4.25 4.37.92 8.9.23 13.33.62 21.85 4.09 44 6.58 65.74 11.16 5.69 1.2 11.7 1.82 16.56 5.64z" fill="#aeaca0"/><path d="m373.94 912.81c3.35 18.61 10 36.14 18.07 53.08 14.54 30.49 32.54 58.92 52.67 86a13.45 13.45 0 0 1 1.24 2.87c-.54 5.59-4.63 9.42-7.39 13.73-11.74 18.34-23.43 36.69-32.95 56.31a9 9 0 0 1 -3.83 4.09l.09-.09a15 15 0 0 1 -1.25 1.27c-20.18 2.37-40.34 4.92-60.09 9.92a12.83 12.83 0 0 1 -2.49.14c-1.91-7.62-5.88-14.39-8.93-21.54-2.63-6.17-6.27-12-6.39-19 3.29-.32 4.39-2.6 5.44-5.4 3.19-8.56 4.9-17.52 7.34-26.28 8.64-4.8 8.58-4.75 2.17-13.6-1.51-2.08-4-3.81-3.47-7 2-11.3-.88-22.1-3.55-32.88-5.64-22.71-16.12-43.62-24.41-65.34-4.6-12.07-8.5-24.33-10.37-37.17a10 10 0 0 0 -1.78-4.68c-2.62-3.28-2.59-6.12.65-8.82 3.79-3.16 2.62-7.46 2.3-11.3-.86-10.24-2.82-20.34-1.27-30.75.74-5-2.14-9.83-3-14.81-.61-3.45-1.93-7 .94-10.19 3.33.57 3.13 3.57 4 5.82 5.94 14.85 13.41 28.34 29 35.43 18 8.18 32 21.48 45.12 35.79 1.12 1.23 2.36 2.47 2.14 4.4z" fill="#f6f8e8"/><path d="m945.44 1280.86c4.7 1.11 8.66 4.79 13.9 4v-.06c.76.64 1.85.43 2.64 1 5.27 2.39 11.05 3.88 15.22 8.29 1 1.1 1.79.53 2.52-.36 2.66-3 6.56-3.39 10.05-4.42 3.32-1 6.15-2.3 8-5.27 20.09-2.88 38.74-10.63 57.82-16.94 6-2 11.72-5 17.62-7.34 11.25-4.53 23-5.29 34.87-6.33 18.29-1.59 35.63 1.86 53.2 6.69 14.86 4.08 30 7.62 45.15 10.57 6.22 1.21 12.17-1.1 18.2-2.07a9.6 9.6 0 0 1 1.84-.49c4.09-.27 8.18-.6 11.3-3.82a8.83 8.83 0 0 1 1.45-1 7.15 7.15 0 0 0 4.34-4.39c1.13-2.86 1-5.85 1-8.81.07-16.52-.41-33 1.3-49.53a39.64 39.64 0 0 1 1.81-9.32c6.79-8 15.78-11.59 25.86-12.84 3.72-.46 8.41.48 9.67-4.1 1.43-5.19 4.78-10.82-.39-16-11.58-8.17-25.14-12.09-37.88-17.77-14.72-6.57-30.41-10.67-44.86-17.88a11 11 0 0 1 -3.73-2.38c-.56-.94-1.07-2.27-.47-3 4.81-5.55 8.73-12.27 17-13.58 16.15.8 32.3.54 48.44.17 8.84-.19 9.87-1.92 10.24-10.82.34-7.89-.4-15.67-1-23.52-1.23-15.23-15.61-29.36-30.59-31.17-17.46-2.11-34.7-6.11-52.27-7.86-11.4-1.14-22.87-1.55-34.23-3.19-3-.43-5.89-.94-8.27-3-1.83-2.4-4.43-2.43-7-1.91-13.74 2.8-27.17-.14-40.43-2.84a419.74 419.74 0 0 1 -45.39-12.43c-11.81-3.82-21.27-11.21-29.88-19.87a4.17 4.17 0 0 1 .45-4c3.56-1.57 5.9 1.56 8.8 2.41 10.53 3.11 20.76 7.3 31.93 7.84a6.65 6.65 0 0 1 5.5 2.73c-.71 1.72-1.42 3.44-2.27 5.48 3.16 3.58 7.89 3.72 12 4.42q21.49 3.69 43.14 6.4c10.26 1.29 20.66 1.44 30.9 2.85 18 2.47 36.12 3 54.07 5.87 11.44 1.83 22.87 3.94 34.36 5.39 21.74 2.73 38.76 23.61 41.18 42.54a149.79 149.79 0 0 1 .87 20.91c0 4.36 1.24 6.78 5.54 7.75a16.74 16.74 0 0 1 5.83 2.42c2.94 2 4.22 4.43-.16 6.54-4.12 2-5.06 5.79-4.32 9.64 1.85 9.63.54 19.39 2 29.09 1.73 11.77 2.23 23.76-1 35.53a2.59 2.59 0 0 0 1.19 2.76c-9.13 31-27.56 56.8-46.2 82.45-1.95 2.68-4.91 4.63-7.39 6.91a87.68 87.68 0 0 0 -24 5.56c-10.7 3.92-21.72 3.3-32.55 4.34-7.52.73-15.14 1.46-22.76 1.68-17.73.49-35.43 1.65-53.07 3.62-3.36.37-6.79.07-10.19.13-20.72.33-41.2 3.45-61.8 5.15-16.73 1.38-33.14 4.78-49.8 6.37-4.82.46-9.61 1.25-14.38 2.11-9.16 1.64-17.76-.57-25.95-4.2-4.92-2.18-5.44-6.84-1.82-11 1.61-1.83 3.2-3.46 2.85-6.1z" fill="#fef9e7"/><path d="m618.77 141.81c-8.07.06-16.14.36-24.21.15-18.91-.5-35.89 5.63-50.94 16.3-13.29 9.42-20.52 23.2-23.13 39.38-2.7 16.72-.48 33.49-.92 50.23-.12 4.46-.19 8.91-.29 13.37-29.22-4.88-55.78-31.55-61.3-61.56-7.94-43.19 14.78-85 55.58-101 40.58-15.92 87.24.69 105.21 43.13z" fill="#fe0160"/><path d="m984 370.61-.09-63.51c19.07 1.64 30.39 17.5 29.14 36.64-3.81 14.13-11.67 24.22-26.85 27.05a1.71 1.71 0 0 1 -2.2-.18z" fill="#fee900"/><path d="m442 331.49-39.3 33.73c-14-15.16-9-31.13 1.26-40.39 10.87-9.83 26.68-7.1 38.04 6.66z" fill="#fee900"/><path d="m364.82 1185.15c2.48 5.84 6.89 10.31 10.76 15.16 1.29 1.61 3.27 2.74 3.29 5.15-23.32.91-46.56-2.29-69.88-1.29a7.19 7.19 0 0 1 -4.1-1.48 2.14 2.14 0 0 1 1.36-2.27c.32-.52.81-.88 1.16-1.37l-.1.06c8.68-6.13 18.66-8.76 28.92-10.45 8.94-1.47 17.71-3.92 26.8-4.58a3.32 3.32 0 0 1 1.79 1.07z" fill="#b2b0bb"/><path d="m1023.23 987c10.63 9 21.8 17.32 35.44 20.72 26.46 6.61 52.32 17.36 80.61 13.11 2-.3 5.25-1.86 6.39 1.94-3.28 4.44-8.41 4.84-13.12 5.45-22.93 3-45.66 2.63-68-4.46-15.75-5-31.93-8.77-46.48-17-3.57-1.71-7.16-3.44-10.58-5.43-2.21-1.28-4.19-1.63-6.39-.29-7 1.18-12.14-3.61-18.11-5.75-.48-3.15-2.63-3.83-5.4-3.86-3.1 0-6.25.29-9.28-.77-7.61-3.83-16.11-5.53-23.57-9.66-3-1.67-7-2.86-6.11-7.73 1.16-1.38 2.85-1.49 4.44-1.84l2.86-.69a19.78 19.78 0 0 1 3-.55c5.08-.8 10.14-2.18 15.3-.52 5.92 2.69 12.56 2.59 18.61 4.75 2.57.76 5 2 8 1.9-1.47-4-4.89-5.16-8.68-5.81-5.72-1.25-11.62 0-17.33-1.2a121.19 121.19 0 0 0 -16.53-2.48c-6.39-1.12-12.93-1.34-19.17-3.34-10.84-3.86-21.22-8.56-28.79-17.68a37.43 37.43 0 0 1 -7.15-14.06c-.57-4.57-1.28-9.16 1.22-14 6 2.77 5.21 9.33 8.64 13 2.91 5.85 8.08 9.31 13.7 11.75a63.91 63.91 0 0 0 13.84 4.5c6 0 11.92.55 17.81-.76a88.91 88.91 0 0 1 15.56-.36c6.19 1 12.53 1.1 18.6 2.84 4.56 1.43 9 3.34 13.65 4.73-2.68-5.72-8.26-6.28-13.54-7.35-6.1-.45-12.11-1.59-18.22-1.81-5.28-.51-10.53-1.25-15.81-1.69q-10.8-2.85-21.7-5.31a39 39 0 0 1 -6.74-4.29c-6.2-4.58-11.92-9.51-14.52-17.19a13.66 13.66 0 0 1 .39-10.51c1.72-3.72 4.26-3.83 6.51-.44a11.18 11.18 0 0 1 1.13 2.27c3.37 8.67 10 13.39 18.72 15.66a105.64 105.64 0 0 0 16.28 2.75c5.08 1.07 10.29 1 15.41 1.6 6.12 1.66 12.49 2 18.59 3.76 5.75 2.06 11.78 3.54 16.76 7.44-3.61-6.39-9.87-9.1-16.27-11.61a115.22 115.22 0 0 0 -18.64-6.14c-5.35-2.05-10.95-3.29-16.41-5-9.69-4.15-19.63-8-25.79-17.35-5.79-6.19-7.45-13.2-4.2-21.17.5-2.33 1-4.9 3.86-5.18s2.9 2.59 3.8 4.36c.67 1.32 1.86 2.49 2 3.93 1.45 11.27 8.69 15.75 19.14 16.57 5.72 1.36 11.56 2.12 17.24 3.65 6.6 1.52 12.76 4.32 19.14 6.45 9.29 4 16.91 10.19 23.43 18 5.26-12.91 4-16.94-6.92-24-5.21-3.39-11.11-5.08-16.85-7.21-5.77-2.58-12-3.61-18.08-4.88a45.49 45.49 0 0 1 -17.36-9.5 57.28 57.28 0 0 1 -9.79-18 37.6 37.6 0 0 1 -1.32-4.55c-.22-2.12-.44-4.24 1.49-6.27 3.44.16 4.52 3.15 5.92 5.59 4.94 8.59 11.48 15.21 21.35 17.89 5.81 2.89 12.42.76 18.33 3 11.83 2.41 22.43 7.29 31.07 16.64 3.05-4.69 3.88-9.23 4.22-13.83.31-4.23-2.67-6.37-6-8.22-9.06-5.11-19.22-6.38-29.14-8.51-6.1-3.23-13.06-4.27-19.19-7.41-11.41-5.92-21.82-13.1-29.52-23.66a13.73 13.73 0 0 1 -1.11-2.24c-.54-1.55-1.45-3.24.08-4.62s3.11-.31 4.56.49a19.44 19.44 0 0 1 2.53 1.81c7.76 4.75 14.77 10.87 23.84 13.29 6.14 2.32 12.5 3.88 18.81 5.62 13.83 4.11 27.26 9.08 38.57 18.28 4.58-4.81 4.67-6.78 1-11-7.26-8.35-17.46-11.56-27.26-15.64-4.12-1.7-8.43-2.89-12.7-4.18-5.88-2.5-12.21-3.3-18.31-5-5.79-2.55-11.45-5.35-16.34-9.48a76.6 76.6 0 0 1 -11.38-16 26.43 26.43 0 0 1 -3.34-9.55c-.19-1.7-.17-3.56 1.51-4.55 1.9-1.12 3.17.38 4.32 1.6 2.75 3 5.63 5.76 8.43 8.65 1 1.09 2.09 2.2 3.17 3.27a54.64 54.64 0 0 0 14.29 11.37 62.57 62.57 0 0 0 17.91 6.17c9.11 2.64 18.3 5 26.86 9.34a71.39 71.39 0 0 1 15.87 10.35c1.63 1.47 3.21 3.46 5.93 3.3 2-1.81 2.13-3.55-.18-5.16a10.42 10.42 0 0 0 -2.87-1.33c-16.78-5.31-30.31-16.62-45.64-24.59-7-4.23-14-8.58-20-14.21-4.27-4.62-8.14-9.44-8.67-16.27 5.45-1.42 7.09 2.82 9.85 5 1.12 1.08 1.37 2.71 2.4 3.86 5 4.22 9.94 8.57 16.57 10.14 13.59.2 24.65 6.44 35 14.52 4.68 3.66 8.89 7.87 13.67 11.38 5.71 4.2 6.83 3.9 10-2.32.85-1.66 2.1-3.23 1.78-6.07-8.27-2.69-17.1-4.76-25.36-8.5-12.62-5.72-22.82-14.45-31.88-24.71-1.47-1.66-1.81-3.81-2.92-5.6-.49-3.08-4.52-4.39-4-8l-.08.08 3.65 1.15c12.72 6.25 25.63 12.15 36.74 21.19a102.56 102.56 0 0 0 25.47 15.51c-11.13-8.51-19.87-19.61-31-28.08a59.72 59.72 0 0 0 -19.23-9.67c-3.8-1.14-7.91-1.9-10.68-5.24 5.26-3.14 10.77-1.51 16.13-.64 8.7 1.4 15.84 6.26 23 11.08 5.59 1.43 8.49 6.1 11.9 10.09 4.92 5.76 9.08 12.24 15.62 16.71 3.48-2.19 4.2-5.4 5-9.58a67.5 67.5 0 0 1 -21.1-10c-3.81-2.63-6.87-5.63-8.11-10.19a129.13 129.13 0 0 1 -8.46-17.08c-3-7.49-7.54-13.79-15.82-16.32a2.55 2.55 0 0 1 -2.1-2.69c5.79-2.23 11-.3 15.85 2.79 6.17 3.94 10.74 9.61 15.12 15.36 6.69 8.78 13.07 17.82 21.11 25.48 2.75 2.62 5.54 5.22 9.15 6.64 4.31-3.43 2.69-6.68.14-9.91-6.49-8.2-14.93-14.46-22-22.07-11.81-12.7-19.14-27.41-20-45a13.24 13.24 0 0 1 3.84-10.57c2.18 22.25 15.32 37.22 29.43 51.7 5.38 5.53 8.93 12.38 12.2 19.33a9.37 9.37 0 0 1 2.16 2.36c1.41-.2 1.61-1.77 2.67-2.35 5.31-5.73 3.15-11.2-.64-16.55-4.81-6.79-10.84-12.4-17.13-17.78-13.74-11.76-18-32.14-9.94-47.21 1.83.59 1 2.61 2 3.66 1.57 1.65 1.48 3.36.17 5.11 1.07 11.54 7.72 20.41 14.79 28.68 5.48 6.41 11.27 12.47 15.18 20 2 1.12 4 2.39 5.86-.15 5-9.31 5-10.71-2-18.41-3.54-3.91-7.7-7.25-11.45-11-8.4-8.36-16-17.22-15-30.19.59-7.41 3.91-13.19 11.35-16.16 1.56 2.69.44 5.1 0 7.5-2.44 12.72.38 23.86 9.69 33.19 5 5 7.77 11.58 11.69 17.35 1.53.78 3.05 1.37 4.47-.22 5.94-10.42 5.38-10-1.33-19.39-13.89-19.44-16.51-31.59-7.45-48.57a22.54 22.54 0 0 1 9.3-9.23c6.25-3.48 10.56-2.93 15.87 2 2.16 2.45 0 3.8-1.43 5.23s-3.15 2.12-4.67 3.27c-10.2 7.64-13.66 17.54-9.8 29.72 1.92 6.05 3.3 12.57 8.37 17.39 4.32-2.92 2.75-6.46 2.08-9.55-3.27-15.28.66-29.41 6.57-43.25.47-1.1.77-2.5 2.35-2.7.55-.84 1.09-1.69 2.49-3.88 3.39 11.4-.94 21.72.75 31.76 2.62 3.59-1.1 6.91-.46 10.6.31-4.44 1.65-8.16 5.43-10.6 6.39-10.55 13.33-20.6 24.38-27.26-3.47 12.12-9.94 22.75-16.5 33.33 1.11 2.33-1.27 2.54-2.38 3.88a16.3 16.3 0 0 1 6.75-2c11.11-4.95 22.18-10 34.75-11-6.86 4.41-13.75 8.79-20.59 13.25-10.41 6.8-20.31 14.62-33.44 15.72-3.32.28-3.15 3.46-3.74 5.83a3.51 3.51 0 0 1 -.71 3.58c1.43-.9 2.84-1.86 4.59-1.8 19.36-10.07 40.64-12.46 61.71-15.65l.78 1.46c-8.52 4.7-16.9 9.7-25.6 14-11.35 5.65-23.81 7.45-36.22 8.87-8.92 1-15.33 4.34-17 13.89.16 2 1.86 1.67 3.11 2 11.3-8.52 24.48-10.82 38.15-11.95 10.37-.86 20.36-4 30.51-6.13a18.88 18.88 0 0 1 5.8-.59c-13.21 7.15-26.14 14.78-40.21 20.19-5.61 4.25-12.41 3.65-18.84 4.5-2.72.36-5.52-.09-8.26.4-8.71 1.54-15.55 5.3-18.47 14.46-1.21 3.81-3.13 7.42-4.91 12.87 9.32-13 20.08-21.79 33.86-26.42 5-1.67 10-3.63 15.39-1.76 18.06-1.55 36.36-.06 54.44-5.06.21 3.76-2.23 4.24-4.11 5.4-14.9 9.24-31.85 10.7-48.59 13-9.39 1.32-18.82 2.59-27.54 6.72-4.32 5.09-11 6.83-15.8 11.31-3.83 4-8.51 6.65-13.27 9.22a52.33 52.33 0 0 0 13.63-9.43c5.32-3.87 10.69-7.61 17.67-7.67 19-4.55 38.73-3.62 57.74-8.09 8.47-2 16.37-5.35 24.44-8.66a42.5 42.5 0 0 1 -14.43 12c-13 6.4-26.53 10.92-41.19 11.83-6.28.38-12.49 2-18.73 3.11-.42 2.65-2.7 2.26-4.42 2.58-8.65 1.64-17.21 3.59-22.58 5.9 4.67-2.36 12.73-3.45 20.72-4.8 2.31-.39 4.62-.78 6.6 1a284.73 284.73 0 0 0 58.5-3.84c-13 9.56-28.65 10.59-43.22 15-4.76 4.07-10.66 2-15.75 2-13.38.08-26.59 1.48-39.84 2.84-2.27.24-4.54.35-6.5 2.93 12.68-4.37 25.19-5.53 37.85-5.4 5.51.06 11-.29 16.48-.59a11.14 11.14 0 0 1 7.8 2.17l44 2.17c-6.44 4.21-12.39 5.25-18.13 6.52-6 1.31-12.11 1.93-18.17 2.86-3.13 3.2-6.09.12-9.13-.25-16 1.81-32 .24-48-1.1a39.33 39.33 0 0 0 -13.84 1c-4.53 1.23-7.54 3.53-8.75 8.08.51 1.21.5 2.73 2 3.37 18.77-6.58 37.75-6.63 57-2.2 19.61 4.51 39.23 9.2 59.71 5.75-18.27 11.24-37.3 15.47-58.29 8.37-11.78-4-23.29-9.56-36-9.82-6.47-.14-13-.44-19.56.93-7 1.45-10.26 5-11.16 11.55 1.15 1.67 2.55.3 3.84.31 18.73-5.19 36.35-1.18 53.79 6 22.59 9.27 45.89 11.37 69.76 5.56 2.61-.64 5.29-.94 8.12-1.43.1 3.38-2.43 4-4.1 4.59-17.32 6.5-34.84 12.43-53.76 10.31-13.34-1.49-25.85-6.44-38.6-10.31a118.66 118.66 0 0 0 -35.61-5.5c-5.6.05-9.6 2.2-10.79 8.33-.52 2.64-2 5.11-3 7.65.71 1.62 1.86.2 2.78.41l15.81-2.82a3.8 3.8 0 0 1 5.1 0c10.08-.05 19.17 3.79 27.83 8.11 22.34 11.13 45.15 17 69.91 9.4a7.38 7.38 0 0 1 2.57.24c-7.86 8.74-28.93 15.73-41.42 14-14.57-2-28.37-6.58-42-12.17-13-5.37-26.37-9.48-40.76-5-4.46 1.37-7.6 3.41-8.36 8.34-1 6.07-4.36 11.52-4.65 17.78 1 .87.42 1.72 0 2.55v.44l.44-.29a11.46 11.46 0 0 1 3.91-.83c6-2.15 11.64-5 17.53-7.36 18.79-7.49 37-4.83 55.22 1.68 7.38 2.64 14.78 5.33 22.37 7.24 7.41 1.87 15 2.54 22.58-.08a26.37 26.37 0 0 1 9.1-1.2c-7.66 7.06-17.41 9-27 11-12.49 2.5-25.22.53-37.14-2.37-24-5.85-47-3.72-69.78 4.78a29.67 29.67 0 0 1 -2.62 2.64c-1.37 3.77-3 7.44-3.49 11.49.47.92 1.18 0 1.75.23 7-2.48 13.83-5.36 20.94-7.34 13.95-3.89 27.88-3.55 42.06-.13s28.3 9.13 43.45 8.46a2.76 2.76 0 0 1 3.83.09c3.83 1.63 7.66 1.18 11.48 0a2.77 2.77 0 0 1 3.83 0c8.29 1.56 15.94-2.36 25.28-3.8-4.21 6.44-9.71 7.93-14.8 10.17-20.67 9.11-41.62 6.77-62.85 2.38-14.25-2.94-28.69-5.36-43.34-2.37a5.69 5.69 0 0 1 -2.47 1.48 41.21 41.21 0 0 1 -6.53 1.09c-7.4 1.65-14.86 3.1-22.19 5.08 7.2-1.51 14.34-3.26 21.5-4.94 2.38 0 4.71-.83 7.1-.28a4.13 4.13 0 0 1 2.59 1.74c19.72 1.34 37.27 11.19 56.55 14.38 14.86 2.45 29.86 2.86 45 3.6-.24 3-2.13 3-4 3.22-15.14 1.74-30.25 4-45.44 5.15-9.51.73-19-1.76-28.38-3.2-11.68-1.78-23.33-3.9-35.24-3.44-1.3 2.33-3.43 1.92-5.54 1.71 1.75 1.13 4.62.49 5.33 3.29 8.34 5.75 18.14 7.84 27.54 11 16.46 5.49 33.51 4.53 50.47 4.87 11.27.23 22.58 1.16 32.52 7.34 3.14 2 6.92 3.45 8.22 7.51-1.59 2.35-2.57.51-3.67-.52-9.83-5.13-20.39-4-30.86-3.6-.69 2.37-2.17 1.49-3.59.86-2.22-.12-4.47-.51-6.54.73-1.46 2.12-3.16 1.67-4.94.47-6.81-.24-13.64-1-20.4.59-2.48 1.14-4.94 2.48-7.67.66a36.9 36.9 0 0 0 -11.49.11c-13.4-1.47-26.24-5.29-39.12-9.08-2.74-.81-4.08-3.5-6.88-3.78-4.1.64-7.2-2.62-10.89-2.8 3.82 1.23 8.18 2.24 10.87 6.16z" fill="#fd0865"/><path d="m1109.44 654.19c-3.67 11.45-8.55 22.57-8.5 35 0 4.29.3 8.62 1.8 12.48 2.17 5.62-.62 8.59-4.76 12.09-7.84-11.69-13.2-23.7-10.26-37.69 1.71-8.15 8.12-13.13 14.82-17.45 1.72-1.11 4.14-1.58 3.43-4.5z" fill="#fef9e7"/><path d="m984.77 766.33c20.2 4.06 35.77 15.78 49.49 30.32 4.91 5.2 10.79 9.23 16.37 14.21-2.64 2.48-4.7.68-6.54-.15a105.63 105.63 0 0 1 -24.74-15.45c-7.9-6.65-16.78-11.36-26-15.8a33.39 33.39 0 0 1 -9.88-6.83l.54-6.46a.55.55 0 0 1 .76.16z" fill="#e4c4aa"/><path d="m1114.28 558.23c8.55 0 12.43 3.73 12.36 11.73-.07 9-7.41 16.46-16.08 16.36-6.07-.08-12.16-7.67-12-14.89.25-7.62 6.94-13.25 15.72-13.2z" fill="#fefefe"/><path d="m1130.58 745.74c-20.44 2.32-36 12.66-48 29-1.07 1.47-2.14 2.66-4.37 1.27 2.39-5.77 5.17-11.43 7.07-17.36 3-9.38 10.24-13 18.85-13.46 9.37-.5 18.5-2.13 27.7-3.5z" fill="#fef9e7"/><path d="m1027.21 773.75a53.15 53.15 0 0 0 31.92 19c-1.68 5.21-3 10.19-7.13 14.49-10.72-9.13-18-21.11-28.14-30.42 1.87-.21 3.19-1 3.35-3.07z" fill="#fef9e7"/><path d="m1036.45 560c8.09-5.38 11.56-5.7 16.23-1.43 5.07 4.62 4.91 7-1.41 17.54z" fill="#fee900"/><path d="m1183.54 976.8c2.49-6.43 7-11.7 10.21-17.71 7.91 5.33 10.07 10.25 6.94 15.43-3.38 5.61-10 6.55-17.15 2.28z" fill="#fee900"/><g fill="#fef9e7"><path d="m1130.48 799.23c-13.34-.57-26.64-1.58-40 .17a79.92 79.92 0 0 0 -25.51 7.84c1.09-8 2.25-9 9.61-9.25 18.63-.76 37.29-.78 55.86-2.73.02 1.32.03 2.65.04 3.97z"/><path d="m1104.7 531.35c4.23.12 7.59 2.14 7.49 6.11-.09 3.8-2.75 7.56-7 7.76-4.06.19-6.3-2.87-6.59-7-.31-4.36 1.79-6.67 6.1-6.87z"/><path d="m1115.16 784.15a184.54 184.54 0 0 0 -34 6.68c10.25-7 21.89-9.35 33.63-11.35.21 1.52.26 3.12.37 4.67z"/><path d="m1088.28 776.64c4.77-4.72 10-8.79 16.5-10.79a3.81 3.81 0 0 0 2.22 3.42l-17.34 8.73c-1.18.27-1.53-.28-1.38-1.36z"/><path d="m1117.65 682.07c-1.88 4.07-3.77 8.13-6.21 13.42-1.09-5.62.38-9.49 1.24-13.42z"/><path d="m1080.71 996.12a13.15 13.15 0 0 1 7.67-.66c.06 2.47-.09 4.57-3.52 4.56-2.86-.02-4.43-.82-4.15-3.9z"/><path d="m1039.63 966.25-12.07-3.07c4.66-2.6 8.64-1.23 12.28-1.93z"/><path d="m1129.9 690a34.55 34.55 0 0 1 -10.72 4.94c1.74-3.22 4.24-4.84 6.35-6.82z"/><path d="m1110.76 715.55c-2 2.19-4.63 3.54-7.79 5.08.11-3.31 2.77-4.68 3.91-6.86z"/><path d="m1129 810.53a25 25 0 0 1 9.13.25c-3.2 5.71-6.13 1.22-9.13-.25z"/><path d="m1070.53 771.44c-.57 2-1.13 3.93-1.77 6.14-2.57-1.61-2.54-4-3.06-6.15z"/><path d="m1080.83 747.23c-.35 2-.76 4-2.66 5.43-2-1.31-2.34-3.45-3.2-5.28z"/><path d="m1108.78 994.87 4.94-.47c.12 2.06-.42 3.88-2.75 4-2.51.16-2.04-1.98-2.19-3.53z"/><path d="m1097.56 740.17a3.83 3.83 0 0 1 -5.18 1.62c-.45-2 1.09-2.66 2.07-3.63a3.22 3.22 0 0 1 3.11 2.01z"/><path d="m1026.75 903.89 1.8-3.79 4.37 1.87-5 3.12q-1.31.09-1.17-1.2z"/><path d="m1154.71 996.41 3.67.52c-.07 1.36.72 3-1.14 3.81-2.57-.47-2.44-2.46-2.53-4.33z"/><path d="m1065.39 859.46h-5.1q2.51-5.33 5.1 0z"/><path d="m1045 698.67c-.06-1.71-.11-3.41-.17-5.11 1.76.1 2.69 1 2.61 2.79-.07 1.58-1.06 2.15-2.44 2.32z"/><path d="m1089.58 729.31a5.81 5.81 0 0 1 -2.44 3.86c-1.66-.89-1.46-2.48-2-3.64z"/><path d="m1060.43 821.84c-.85.47-1.9 1.29-2.66.39-1.11-1.32.11-2.56.69-3.76 1.48.64 1.85 1.93 1.97 3.37z"/><path d="m1131.75 931.06-3.83-.09c.18-1 .33-2.13 1.65-2.26 1.71-.18 2.01 1.06 2.18 2.35z"/><path d="m1120.26 993.67 3.59-.86c.08 1.23.27 2.64-1.3 3s-2.08-.81-2.29-2.14z"/><path d="m1147.06 931h-3.83c.18-1.3.5-2.51 2.2-2.32 1.32.18 1.46 1.32 1.63 2.32z"/><path d="m1048.8 937.43 2.55-.06v4.17h-2.55a3.09 3.09 0 0 1 0-4.11z"/><path d="m1023.21 918.26c-.18-1.93.53-3 2.62-2.64a2.38 2.38 0 0 1 -2.62 2.64z"/><path d="m1055.93 836.73c-1.35.66-2.81 2.85-3.84-.31z"/><path d="m984 370.61 2.2.18-2.19 1c-.01-.36-.01-.79-.01-1.18z"/><path d="m1044.48 862.32a2.35 2.35 0 0 1 -2.65 1.06c-.19-.06-.09-1-.13-1.47z"/><path d="m1021.47 930c-.68.64-1.39 1.57-1.75-.23z"/></g><path d="m668.43 252c16.14-.11 32.29-.29 48.44-.3q116.7-.06 233.41 0c10 0 11.75 1.8 11.82 11.86q.66 92.52 1.34 185c0 2.54-.22 5.08-.33 7.63-6.27 11.11-15.94 18.67-26.49 25.35-38.39 1.7-76.78.41-115.16.79-3.39 0-6.81.06-10-1.42-5.88-3.85-8-10.29-10.78-16.2a453.63 453.63 0 0 0 -21.32-41.36c-4.68-7.86-11-13.52-18.66-18.68-16-10.79-34.17-16.14-51.63-23.24-10.86-4.41-19.41-11.33-26.8-19.94-4.45-5.17-9.17-10.05-13.88-14.95a40.64 40.64 0 0 1 -10.69-21.3c-3.42-18.12-1.32-35.49 5.52-52.46 2.07-5.14 3.93-10.34 3.71-16a6.23 6.23 0 0 1 1.5-4.78z" fill="#ada2c8"/><path d="m373.94 912.81c-7.63-7.66-14.94-15.67-23-22.88-7.7-6.9-16.86-11.81-26.15-16.34-8.19-4-13.83-10.17-19.17-17.7-5.48-7.73-8-16.36-12-24.53-1-6.27-4.32-11.63-3.52-18.87 1.06-9.5 6.7-12.87 13.62-16.27 2.7-3.66 6.89-2.87 9.88-1.86 9.16 3.1 18.71 3.42 28.08 4.78 17 2.45 32.08 9.57 46.12 18.85 10.58 7 21.21 13 34.38 12.63a31 31 0 0 1 9.82 13.88c2.91 8.58 9.21 10.2 16.75 10.73 14.47 1 29.13.07 43.32 4.14a1.49 1.49 0 0 1 1.22 0c4.59-.4 8.49.86 12.5 3.42 7.57 4.82 16.28 5.44 24.6 2.65a144.9 144.9 0 0 0 28.43-12.78c5.35-3.19 7.76-7.47 7.23-13.69a163.25 163.25 0 0 0 -5.67-32.56c-.84-2.85-2.13-5.61-1.34-8.7 1.79-4.34 6.23-5.45 9.59-7.88 5.52-2.39 10.51-5.85 16.14-8a19.36 19.36 0 0 0 4.59-2.36 35.71 35.71 0 0 1 6.35-2.9c2.5-.45 4-2.44 5.84-3.89 10.6-4.13 20-11.16 31.52-13.08 8.62-1.43 15.27 2.48 18.26 10.65 5 13.73 5.64 28.12 7 42.41 0 4.94-.24 9.86-2 14.56-2.13 1.43-2.51-.45-3-1.72-.87-2.21-.25-4.65-.84-6.84-.36-.47-.84-.49-1 0-4.75 13.64-9.69 27.27-12.6 41.44-2.52 12.27 1.35 22.57 11.9 30.35-3.89-16.94-1-33.48.91-50 .27-2.45.57-6.38 5-3.25 2 6.91.69 14 1 20.95-1.28 14-1.56 27.87 5.63 40.78 4.45 8 10 15.22 15.4 22.5 1.49 2 3.75 3.58 3.25 6.55-11.49 10.61-22.56 21.75-36.5 29.31a137.92 137.92 0 0 1 -21.7 9c-7.7 2.6-14.12 6.6-17.29 14.74a46.65 46.65 0 0 1 19.82-13.39c4.88-1.68 10-1.4 15-2.68 15.53-4 27.38-14 40.07-22.81 2.41-1.67 4.51-3.94 7.72-4.15 2.79 1 4.29 2.88 4 6a198.87 198.87 0 0 1 -39.76 26.29c-11.43 5.63-23.42 10-35 15.47-5.55 2.61-9.81 6.68-14.18 10.65-1.85 1.68-3.23 4-1.86 6.78 1.61.4 2.58-.55 3.39-1.49 13.1-15.17 31.19-20.85 49.55-25.73 12.13-3.22 24.14-6.8 36.1-10.57 6.21-2 11.21-5.91 16.39-9.62 5.89.07 11.77.19 17.65.44 7.4.31 11.22 3.71 13.24 11.1-.58 4.22-4.19 5.59-7.19 7.47-10.27 6.44-22 8.74-33.45 11.86-19.44 5.27-39.09 10-56.94 20-13.35 7.5-23.61 18.29-31.69 30.78-5.76 8.9-7.91 19.29-.68 29.28a18.47 18.47 0 0 1 2.2 18.75c-6.27 9.35-12.47 10.3-21 3.18-2.13-1.76-4-3.82-6-5.69a53.27 53.27 0 0 1 -11.58-12.56c-7.1-10.38-16.74-17.19-28.15-22.93-21.62-10.88-40.52-25.8-53.67-46.68a78 78 0 0 0 -24.47-24.59c-8.84-5.72-17.3-12.19-25.83-18.45-12.44-7.65-22.26-18.78-34.74-26.36-10.43-6.32-21-12.38-31.49-18.57z" fill="#fee900"/><path d="m541.08 678.31-.43-1.34a29.51 29.51 0 0 1 -1.83-11.25c0-22.75-.54-45.51.22-68.24.47-14 1-27.93.44-41.83-1.17-29.33.57-58.69-.88-88-1.37-27.63-.57-55.24-1-82.85-.07-4-.17-8.09 1.81-11.82l.29-.15.21.25c1.65-1.68 3.81-1.73 5.93-1.77 14.66-.31 29.31-.16 43.89 1.51 16 1.84 32.19 2.39 48.1 5 14.62 2.39 29.3 4.76 42.4 12.78 17.58 10.77 30.55 24.95 35.24 45.48 2.78 12.33 7.53 23.92 11.53 35.79 1.07 3.13 3 6.39-.41 9.37-3 1.41-6.24 1.09-9.4 1.09-40.93 0-81.86.15-122.78-.07-11.62-.06-23.25-2.15-34.74 1.13-1 .35-2.14-1.13-3 .29a10.68 10.68 0 0 1 -2 1.18c-4.13 3.9-5.55 8.68-5.54 14.33q.15 62.55.06 125.1c0 14.44 5.16 19.69 19.91 20.1 5.1.15 10.2 0 15.31 0 43.8 0 87.61-.06 131.41.1 4.67 0 9.23-1.56 13.9-.59 1.32.62 1.95 1.52 1.17 3a9.47 9.47 0 0 1 -4.16 3.82c-14.64 7.68-29.28 15.47-46.32 16.31-4.88.25-9.61 1.54-14.48 1.73a28.57 28.57 0 0 1 -4 1.88c-3.13.81-6.32.62-9.5.62q-36.88 0-73.76 0a57.55 57.55 0 0 0 -16.34 1.87c-.62.17-1.27.29-1.9.4s-1.13.25-1.69.37a5.75 5.75 0 0 0 -2.65 1.44c-.31.37-.64.73-1 1.09a11.36 11.36 0 0 1 -1 1.05c-.35.37-.72.7-1.08 1-1.38 1.19-1.79 3.28-3.68 4a12.51 12.51 0 0 1 -8.25-4.17z" fill="#ada2c8"/><path d="m392.88 674.47c-9.62-4.65-18.09-10.49-25-19.05-7.87-9.74-10.28-24.6-4.15-35.49.93-1.67 1.87-3.33 2.75-5 5-9.51 13.91-11.89 23-6.07 3.55 2.26 6.9 4.56 9.52 8.18 4.39 6.07 10.62 10.3 17.06 14.08 1.66 1 3.43 1.78 5.81.29-3.58-8.43-10.45-14.58-15.64-21.82-4.18-5.81-9.38-11-14.52-16-16.48-16.13-9.72-30 6.87-40 5.39-3.26 11.56-5.28 17.51-7.51 6.87-2.58 12.64-.17 16 6.37 3.69 7.22 5.76 15 8.09 22.73.73 2.42.51 5.56 4.9 7.39-.08-7.92.93-15.11-.79-22.35-.24-1-.64-2-.9-3.05-.84-3.3-2.16-7.07.86-9.51 2.65-2.13 5.52.72 8.26 1.49 10.63 3 12.69 11.53 13.05 20.81.48 12.74-1.18 25.33-3.05 37.9-.9 6-1.52 12.07-2.31 18.53 4.54-1 4.4-4.56 5.21-7.13 3.54-11.24 2.59-23 4-34.56a190.73 190.73 0 0 0 1.5-23.44c0-4.37 2.5-6.77 7.26-4.41a10.18 10.18 0 0 0 3 1.18c16.78 2.21 17.08 11.56 15.88 26.69-1.85 23.32-11.26 45-15.39 67.79-.43 2.41-1.36 5 1.4 6.08 3.12 1.27 4.48-1.47 5.75-3.69 7.74-13.63 11.25-28.6 13.92-43.85 1.38-7.9 2.56-15.82 4.83-23.56 2.55-8.71 4.06-10.14 13.3-10.07 1.28 25.08 1 50.18.74 75.27-3.95 7-7.56 14.17-9.1 22.15 4.23 1.24 5.69-3.87 9-1.76v30.6c-8-3.93-15 1.1-22.49 1.79a243.63 243.63 0 0 1 -63.89-34c-8.79-6.53-18.21-8.62-28.73-4-4.22 1.87-7.87 4.1-10.36 8-1.57 1.17-2.34.03-3.15-1z" fill="#e1ddeb"/><path d="m727.22 480.35c-.42-7.15-3.87-13.37-6.27-19.87a201.92 201.92 0 0 1 -7.54-24.89c-3.32-14.44-11.28-25.71-22.43-35.27-16.05-13.77-35.36-18.51-55.51-20.83-31.75-3.66-63.5-7.53-95.58-6.37l-.09-3.71c2.58-2.52 5.9-2.07 9-2.08 15.29-.06 30.58 0 45.88 0 20-.08 28.14-8 28.37-28.46.29-25.71 0-51.43.11-77.15 0-3.34-.59-6.88 2-9.7h43.18c.91 8-1.22 15.43-4.26 22.82-7.08 17.5-8.08 35.65-4.08 54.05a34.13 34.13 0 0 0 8.49 15.47c5.41 6 11.45 11.42 16.44 17.71 12.14 15.29 30.11 19.88 47 26.38 15.32 5.9 30 13 41.82 24.52 7.79 7.6 11.91 18 17.13 27.41 7 12.59 11.46 26.43 19.38 38.56-1.45 4.48-5.37 3.33-8.43 3.36-18.62.18-37.24.08-55.86.09-4.23 0-8.46 0-12.69.21-2.28.14-4.74.4-6.06-2.25z" fill="#f9f9fa"/><path d="m625.25 252c0 29.36-.12 58.71 0 88.06a37.44 37.44 0 0 1 -2.07 12.43c-3.88 11.18-12 16.73-24 16.8-19.77.1-39.54.1-59.31.14q-.12-55.76-.26-111.51c0-3.91.52-6.23 5.45-6.18 26.68.26 53.43.19 80.19.26z" fill="#3c1f7c"/><path d="m422.17 831.58c-3.18-.06-6.36-.28-9.53-.15a21 21 0 0 1 -14-4.42 176.07 176.07 0 0 0 -40.72-22.24 55.72 55.72 0 0 0 -20.12-4.26c-11.61 0-22.23-6.69-34-4.29.83-12.58 6.24-23.56 12.47-34.09 10-17 23.06-31.6 36.65-45.76 3.19-3.33 6.32-6.7 9.48-10 3.06-.12 4.21 2.55 6 4.2 10 9.22 21.07 13.68 35.29 12.58 12.77-1 25.77-3.63 38.67-.59 3.11.74 7 1 6.87 5.82l-9.93 10.1a10.06 10.06 0 0 1 -5.42 1.53c-11.86 0-23.73.12-35.59-.08-3.53-.06-6.43-1.94-9.57-3.16-4.78-1.85-10.6-4-14.29.1-3.39 3.8 1 8.29 2.94 12.11 4.35 8.67 10.85 15.78 18.3 21.74 5.85 4.69 13.31 4.85 20.61 4.12 2.86-.29 5.8-1.88 8.51.48 0 3-.07 5.94-.11 8.91-1.25 1.68-3.92 1.58-4.94 4.25 1.65 4.08 6.36 6 8.62 9.84a111.28 111.28 0 0 0 20.74 32c0 1.93-1.48 2.59-2.9 2.67-8.08.37-16.2 1.92-24.03-1.41z" fill="#f6f8e8"/><path d="m964.58 814.77c-5.45-2.76-10.67-5.81-14.29-11a27.7 27.7 0 0 1 -1.57-10c.07-11-.21-22.07.08-33.1.7-26.73-1.4-53.41-1.46-80.09a5.92 5.92 0 0 0 -.65-1.82 21.13 21.13 0 0 0 -1.84-1.95 18.19 18.19 0 0 1 -1.81-1.81c-.43-.37-.87-.74-1.35-1.08-.28-.12-.53-.27-.81-.4-1-.34-1.91-.61-2.88-.89-6.6-2.61-13.43-1.43-20.21-1.4-24.46.09-48.91 0-73.37 0q-34.77 0-69.53 0c-3.18 0-6.4.3-9.47-.86a2.89 2.89 0 0 1 -1.53-1.56c.4-2.5 2.55-3.29 4.42-4.13 12.59-5.66 25.25-11.07 38.88-14 11.49-2.44 22.5-.63 33.16 3.23a54.73 54.73 0 0 0 35.6.78c9.73-3 19.69-5.35 28.54-10.69a10.19 10.19 0 0 1 3.22-.73c8.47-.19 16.94 0 25.42-.11 10.47-.14 16.76-6.24 16.79-16.53 0-14.4.22-28.81-.13-43.22a10 10 0 0 1 1-5.24c4.57-8.61 6.39-18.13 9.11-27.35.62-2.12-.06-5.32 3.61-5.54 1.87 3.72.19 7.76 1 11.58 2.7 4.2 2.1 9 2.1 13.54 0 38.65 1.09 77.33-.39 115.93-1.2 31.41.59 62.77-.4 94.15-.08 2.46.73 5.16-1.41 7.24l-7.78-6.32c.36 7.19 5 11.32 8.21 16.15 2.26 5.84 2.8 11.56-.26 17.22z" fill="#ada2c8"/><path d="m449.19 728.33c-6.59-6.74-14.86-5.72-23-4.78a224.18 224.18 0 0 1 -32.19 1.45c-13.14-.39-23.73-8-31.68-18.68-2.32-10.29-4.79-20.51-4-31.26.6-8.28 1.74-9.19 9-5.82 7.13 3.3 13.66 7.61 20.4 11.58 3.6 1 6 3.95 9 5.93 13.09 8.73 27.82 13.51 42.6 18.2a11 11 0 0 0 5 .58c3.29-.54 6.37-1.65 7.2-5.3s-1.4-6-4.39-7.65a23.36 23.36 0 0 0 -8.43-2.58c-11-1.52-21.63-4.44-32.21-7.56-4.13-1.22-8.72-2.33-11-6.78-.31-2.92 1.27-4.66 3.51-6.25 12-8.53 25.67-8 38.11 1.3 17.52 13.11 36.33 23.87 57.16 30.88 2 .68 4 1.58 4.75 3.87-8.75 6.79-17.46 14-28.79 15.6-7.64 1.09-14.65 3.08-21.04 7.27z" fill="#d9dceb"/><path d="m560 796.94c1.47 6.77 2.61 13.63 4.51 20.28 2.35 8.25 2.26 16.66 2.88 25.06.37 5-1.68 8.13-5.59 10.42-10.22 6-20.77 11.45-32.17 14.66-9.85 2.77-19.65 2-27.69-5.33-2.7-2.45-6.49.4-8.72-2.61.75-1.86 2.47-1.06 3.91-1-1.13-6.18-5.29-9.54-9.71-12.73-1-.74-2-2-3.3-1.06-3.24 2.48-4.46-.66-5.22-2.29-2.21-4.75-5.4-9.08-6.48-14.4 2.3-.95 5 .38 7.6-1.39-2.37-4.16-4.71-8.28-7.06-12.43 1.92-.45 3.71-1 5.53-1.28 4.63-.81 8.83-1.55 13.38 1.87 5.82 4.38 12.72 3.88 19.13.27 7.79-4.39 10.27-11.37 9.31-20.49 3.72 2.6 6.4 6 10.92 6.41 13.57 1.35 23.28-11.56 18.16-24.93a14.16 14.16 0 0 1 -.53-8.3 1.33 1.33 0 0 1 1.63.17 9.51 9.51 0 0 1 1.91 3.15c1.79 6.76 3.35 13.58 6.82 19.78a8.82 8.82 0 0 1 .78 6.17z" fill="#e4c4aa"/><path d="m539.39 373c.13 19.75.3 39.5.39 59.25q.59 119.81 1.11 239.62c0 1.69-.15 3.38-.24 5.08-6-9.94-12.23-19.84-7.13-32.23a13.4 13.4 0 0 0 .52-9.34c-1.48-4.72-2.12-9.33-.84-14.26 1.63-6.3 2.67-12.71 1.38-19.28a11.29 11.29 0 0 1 1.35-7.42c4.29-8 2.8-16.47 1.62-24.73-.59-4.08 1.32-7.56 1.08-11.58-.32-5.29-1.38-10.17-4.15-14.43-2.42-3.71-3.29-7.68-2.31-11.52 1.5-5.95-.37-10.85-3.2-15.63-3.07-5.19-4.24-10.37-2.37-16.4a17.35 17.35 0 0 0 -.19-8.81c-1.44-5.86-1.12-11.27 1.92-16.57a13.75 13.75 0 0 0 1.18-12.17 18 18 0 0 1 -.43-11.82c.95-3.17.58-6.69-.23-10.08-1.29-5.48.34-10.65 1.19-16.08 1.2-7.65 4.47-15.27 1.51-23.7-3.49-9.94-2.61-19.88 6-27.65.35-.32 1.2-.15 1.84-.25z" fill="#190c32"/><path d="m548.47 766.34-3.37 2.94c-5.64-4.34-11.68-5.65-18.17-1.86-8.3 4.86-9.74 12.66-8.79 22.33-6.66-6.56-13.67-9.53-22.23-6.7-7 2.32-12.09 8.5-12.43 15.26-.49 9.88-2.4 11.75-13.51 12.68a69.11 69.11 0 0 1 1-34c1-.33 2.55-1 4.16-1.34 3.82-.94 5.29-2.53 3.46-6.78-2.56-5.94-1-8.78 5.27-9.78 4.35-.71 8.64-1.84 13.17-1.77 8.39.15 13.75-5.8 19.62-10.57 2.43-2 3.89-5.06 7.06-6.31 3.43 1.5 5.67 4.38 8.3 6.78 4.15 1.84 6.7 5.46 9.64 8.65 1.54 3.96 7.19 5.28 6.82 10.47z" fill="#e4c4aa"/><path d="m447.72 774.17c.12-12.33 2.29-22.53 9.27-31.58 4.27-5.53 10.71-6.91 16.23-9.47 9.92-4.6 16.48-14.08 27.08-17.36 2-.62 3.78-1.74 6-1.8 3.83-.09 7.32.67 9.5 4 2 3.13.64 6.35-1.22 8.92-6.9 9.57-15 18.12-26.33 22.15-12.19 4.34-20.1 13.14-26.22 23.69-2.45 4.21-2.9 9.63-4 14.55-.53 2.33.84 6-2.69 6.16s-5.61-2.66-6.16-6.11c-.77-4.79-2.11-9.55-1.46-13.15z" fill="#28221c"/><path d="m424.75 775.27c-8.09 1.67-16.15 2.23-24.3.11-1.88-.48-3.62-.72-5.11-2.11-9.21-8.6-17.62-17.75-22.71-29.54-3.39-7.87-1.8-10.54 6.61-10.63 4.54-.05 8.87.37 12.65 3.24 2.52 1.91 5.49 1.93 8.51 1.93 13 0 25.91.1 38.86.16-8.04 11.01-11.87 23.69-14.51 36.84z" fill="#d9dceb"/><path d="m963.49 545.38q-3.16 10.71-6.31 21.44c-1.24 4.21-2.42 8.44-5.36 11.88-2.52-2.64-1.84-6-1.85-9.09-.07-23.4 0-46.79 0-70.19 0-8-2.05-14.72-10.14-18.13l-.72-.92c.37-3.46 3.71-4.36 5.76-6.18 6.39-5.71 12.39-11.78 18.27-18q.23 38.78.44 77.57a6.53 6.53 0 0 1 0 4.34c-.04 2.43-.07 4.9-.09 7.28z" fill="#f9f9fa"/><path d="m752.64 208.37c-11.69 0-23.37-.08-35 0-5.46.06-9.15-1.76-9.52-7.68-.29-4.6 3.95-8.65 9.51-8.84 6.58-.22 13.17 0 19.76 0q24.52 0 49.07 0a25 25 0 0 1 5.68.39c4.28 1 8.67 2.7 7.88 8.1-.74 5.09-4.3 8.09-9.74 8.1-12.53 0-25.06 0-37.59 0z" fill="#f7f4e6"/><path d="m964.42 787.82q0-85.79.1-171.58 0-29.64 0-59.28l4.15.22c1.33 2.19-.74 3.45-.6 5.63 3.44.71 4.19 3.26 4.26 6.81.19 10.63-1.51 21.24-1.12 31.76.7 18.87-.26 37.7-.47 56.53a254.48 254.48 0 0 1 -4.1 41.6 55.83 55.83 0 0 0 -.14 18.33 46.22 46.22 0 0 1 .6 6.94q.06 32.88 0 65.75a5 5 0 0 1 -2.68-2.71z" fill="#190c32"/><path d="m422.17 831.58c7-.05 13.94-.05 20.91-.18 2 0 4.28.7 6-1.16 6.78 5.62 11.71 13.16 19.83 17.52 6.5 3.5 12.69 7.49 19.94 9.29 1.44.35 3.06.26 3.19 2.32-6 2.61-11.42-1.33-17.24-1.3-8.54 0-17.08-.73-25.62-1.07a33.41 33.41 0 0 1 -7.47-1.07c-5.38-1.46-8.93-3.73-10.76-9.75-1.62-5.27-5.76-9.76-8.78-14.6z" fill="#e4c4aa"/><path d="m983.94 779.37c10.89 13.3 23.27 24.61 39.75 30.74 7.54 2.81 15.09 5.45 23.57 6.1-1.9 6.06-4.85 11.08-8.28 16.21-6-3.08-11-7.17-15.9-11.48-10.43-9.14-21.48-17.28-36-18.68-1.17-.12-2.27-1-3.4-1.59q.14-10.67.26-21.3z" fill="#f7f4e6"/><path d="m695.34 201.23a13.37 13.37 0 1 1 -26.74.45 14.07 14.07 0 0 1 13.7-13.77c7.35-.01 12.99 5.75 13.04 13.32z" fill="#f7f4e6"/><path d="m548.47 766.34c-1.62-4-6.64-5.41-7.57-9.94-1.93-3.24-2-6.81-2-10.44 0-12.22-.24-24.45 1-36.63 1.08-3.27 2.78-1.84 3.9-.25 2.63 3.73 5.72 7.19 7.47 11.51.78 14 .28 28 .29 42.06 0 1.91-.16 3.86-2 5.07a2 2 0 0 1 -.64-.07z" fill="#ada2c8"/><path d="m549.6 718.9c-4.47-2.58-5.35-7.83-8.49-11.39a1.75 1.75 0 0 1 -.4-2.51q.18-13.35.37-26.69c3.22.53 5.8 2.46 8.59 3.93a3.64 3.64 0 0 1 1.59 2.61 252.24 252.24 0 0 1 0 31.47 3.54 3.54 0 0 1 -1.66 2.58z" fill="#f6f8e8"/><path d="m540.71 705c.13.84.26 1.67.4 2.51l-.21 48.89c-4.11-1.95-5.91-6.12-8.84-9.21 3.1-6.39 2.33-13.5 3.57-20.24.61-3.3.78-6.57 2.2-9.74.87-2 2.25-4.12.74-6.58-2.56-4.19-2.54-8.67-.87-13.81 1.1 3.02.65 6.18 3.01 8.18z" fill="#190c32"/><path d="m521.47 673.08c-2.63.2-3.77 2.52-5.54 3.94-2.76 2.23-4.32.81-5.07-1.87-1-3.61 7.08-20.28 10.67-22.46z" fill="#fdfce9"/><path d="m428.32 798.27c-4.33-1.15-6.19-5.6-10-7.49-1.18-.59-1.3-2.14-.67-3.42 1.47-2.92 4.09-3.39 7-3.18q1.84 7.04 3.67 14.09z" fill="#d9dceb"/><path d="m963.56 538.11a4.81 4.81 0 0 1 0-4.34 3.5 3.5 0 0 1 0 4.34z" fill="#ada2c8"/><path d="m979.94 771.39-.82-.27.29-.44.45.79z" fill="#fd0865"/><path d="m460.53 448.56c-1.39 18.32-13.68 32.66-34.89 27.15-13.78-3.57-20.57-11.54-19.93-23.38.9-16.53 9.09-27.11 23.34-29.45 22.24-3.66 31.95 11.01 31.48 25.68z" fill="#fefefe"/><path d="m395.45 675.67c14 7.61 29.4 10.2 44.82 12.76 4.71.79 9.22 2.27 12.11 6.07a6.88 6.88 0 0 1 .38 8.32c-2.42 3.61-6.34 5.5-9.81 4.55-19.4-5.28-38.64-11.14-54.13-25a7.66 7.66 0 0 1 -1.06-1.58c2.91-1.15 4.9-3 5.12-6.35z" fill="#f6f8e8"/><path d="m460.55 411.85c.13-5.4 4.58-10.61 9-10.58 4.82 0 10.87 5 11 8.92s-6.14 11-10 11.05c-5.34.08-10.11-4.38-10-9.39z" fill="#fefefe"/><path d="m334.17 1047.3c3.85 5.26 7.71 10.51 11.47 15.64-2 5.12-6.24 4.66-10.17 4.94-8.77-5.91-10.54-14.27-4.24-19.79a3.54 3.54 0 0 1 2.94-.79z" fill="#fee900"/><path d="m609.69 1084.84c2.53-8-.67-14.42-4.66-21.28-5.62-9.68-2.39-19.58 3.26-28 15.45-23.06 37.6-36.45 64.17-43.53 14.24-3.79 28.43-7.75 42.69-11.46a49.67 49.67 0 0 0 22.38-12.62c6.16-3.19 12.12-.47 17.82 1.18 13.07 3.79 25.28 9.85 37.46 15.8a155.72 155.72 0 0 0 64.28 15.91c6.76.21 13.49 1.17 20.23 1.78 8.33 2.39 16.41 5.47 24.54 8.46 11.19 4.11 23.26 3.22 35.22 2.19 17.43-1.5 33.57.64 47.75 13.58 13.4 12.22 28.14 23.3 45.32 30.28 1.2.56 2.38 1.17 3.61 1.68.64.22 1.26.49 1.88.77 14.12 8.38 29.56 10.16 45.66 10.38 11.5.16 23.17 1.59 33.19 8.46 1.08 3-.23 5.52-1.8 7.73-3.44 4.83-6.09 10.16-9.51 14.95a76.12 76.12 0 0 0 -14.51 39.27c-.19 2.57-.53 5.09-2.78 6.82-2.86 1.57-5.32.55-7.69-1.16-16.74-12-33.63-23.87-51-34.92-14.45-9.2-27.05-20.56-40.6-30.79-8.71-6.57-19.54-9.53-28.33-15.89-16-11.62-34.89-15.94-53.59-19.16a295.87 295.87 0 0 0 -39.63-4.47c-22.13-.8-44.05 2.2-66.05 1.79-6.32-.11-12.56 2.26-17.55 1 8.86.88 19.11 2 29.49 2 30.79 0 61.55 1.12 92.22 3.93 7.87.72 15.37 3.54 22.41 7 20.36 10.14 41.21 19.36 61 30.62 17.14 9.78 33.45 21 50 31.85 13.47 8.84 27.14 17.42 40.52 26.43 2.91 2 5.82 3.65 9.43 1.78 6.4-1.54 13-1.87 19.44-2.91a51.27 51.27 0 0 0 20.08-7.49 31.29 31.29 0 0 1 2.74-1.62c4.48-2.27 9.38-6.16 14-1.83 4.34 4.08 2.88 10 .93 15-3.1 7.92-6.86 15.58-6.21 24.43a32.89 32.89 0 0 0 .36 5.07c1.92 7.93-.19 15.11-4 22-4.22 4.92-9.63 4.06-14.71 2.38-15.13-5-30.52-9-46-12.59a277.93 277.93 0 0 0 -31.92-5.53c-13.23-1.47-26.45-3.31-39.66-5.12a15.16 15.16 0 0 0 -3.12-.59c-14.11 1.27-27-4.39-40.56-6.71-.86-.14-1.65-.22-2.08-1.09-16.41-4.52-32.92-8.68-49.2-13.63-35.48-10.8-71.51-19.6-108.13-24.86-27.32-3.93-54.61-8.38-82.13-11.33-19.67-2.11-39.64-2.2-59.09-6.71-7-1.61-14.38.44-21.37-1.85-1.79-.55-3.84-.23-5.38-1.54-8.71-7.29-16.21-15.4-20.82-25.84z" fill="#e1ddeb"/><path d="m955.65 1170.59c17 2.61 34 6.36 51.15 7.47 12.94.84 25.46 3.94 38.39 4.59 15.62.79 30.49 6.12 45.73 9.28 10.37 2.14 20 6.48 30.22 9.2 4.32 1.15 8.37 1.15 11.85-2.16 5.54-.7 10.85.93 16.08 2.14 6.6 1.52 11.67 0 15.77-5.23 4.69-6 7.89-12.27 7.44-20.35a49.7 49.7 0 0 1 12.43-36.4c3.54-4.1 5.17-9.22 7.51-14 1-2.13 1.19-5.18 4.61-5.31 21.56 8.42 43.27 16.45 64.58 25.45 7.84 3.31 16.08 6.25 23 11.6a3 3 0 0 1 -1.44 1.22c-18.53 4.59-33.43 16.43-49.87 25.16-16.65 8.84-34.24 14.76-52.42 19.37a341.36 341.36 0 0 1 -43.11 8.46c-24 2.9-48.15 4.74-72.4 3.82-6.68-.25-12.21-3.28-17.58-6.81-28.67-14.29-59-24.36-88.93-35.5-1.21-.41-2.55-.53-3.01-2z" fill="#bd014c"/><path d="m1226.56 1270c-14.14 5.66-27.83 1-41.49-2.1-18.92-4.29-37.27-11.53-56.76-12.66-21.17-1.24-42.18 0-62 9.23-18.47 8.59-38.09 14-57.59 19.64-3.37 1-7.16.45-10.75.62-2.6-2.28-2.16-5.42-2.16-8.33 0-18.27-.44-36.55.88-54.8.14-2 .28-3.82 2-5.1 11.55 4.14 23.15 8.15 34.62 12.49a26.33 26.33 0 0 0 12.88 2c11.38-1.32 22.84-.8 34.25-1.5 13.31-.81 26.63-2 40-2.08 20.44 4.55 41 8.23 61.73 11.5 8.75 1.39 16.9 5.27 24.85 9.29.38 10.54 8.73 14.08 16.18 18.45 1.38.74 3.11 1.35 3.36 3.35z" fill="#aeaca0"/><path d="m440.15 957.74c7.29 2.94 14 6.76 19.69 12.33a1.88 1.88 0 0 0 .5.39c18.33 9 28.22 26 40.38 41.15 13 16.18 29.72 28.14 48.81 36.61a49.07 49.07 0 0 1 19.37 15.1c4.85 6.37 9.16 13.16 15.38 18.37-.67 2.32-2.75 3.09-4.61 4-14.21 7-27.35 15.77-40.26 24.91-1.84 1.3-3.58 3.17-6.22 1.82-11.9-.67-16.22-10.62-21.76-18.51-19.77-28.14-35.72-58.56-52.27-88.64-7.84-14.23-12.65-29.52-18.63-44.41a11.93 11.93 0 0 1 -.38-3.12z" fill="#b82e65"/><path d="m876.54 1192.75a181.68 181.68 0 0 1 -37.22-3.52 37 37 0 0 0 -7-.31c-34.39 0-68.79.7-103.16-.05-21.15-.46-42.36-1.15-63.4-4.53-8.72-1.4-17.82-.41-26.75-.45a28.65 28.65 0 0 1 -10-1.47c-1.59-2.62.67-3.44 2.23-4.13 5-2.18 4.89-5.6 2.92-9.8a111.72 111.72 0 0 0 -7-12.69c-1.46-2.29-3.07-4.72-.73-7.45 6.41-.28 12.84-.77 19.13 1.07 5.14 2.47 10.89 1.8 16.18 2.14 16.75 1.06 33.25 3.91 49.85 5.61 19.54 2 38.58 6 57.65 9.93 27.67 5.74 55.51 10.61 83.1 16.72 6.43 1.42 12.75 3.24 19.28 4.28 2.25.36 6.22.04 4.92 4.65z" fill="#fef9e7"/><path d="m1121.77 1228.85c-12.59.86-25.15 2.19-37.8 2.27-10.13.06-20.2 1.78-30.37 1.14-2.54-.16-5.09 0-7.39-1.34.7-7.59 5.34-14.94 1.36-22.8 17.13 8 35.43 5.46 53.17 4.67 14-.62 28.1-2.43 42.1-4.39a368 368 0 0 0 56.06-12.79c17.76-5.37 34.07-13.74 49.87-23.35 9-5.46 17.78-11.34 28.14-14.12a24.83 24.83 0 0 1 7.47-1.24c2.31 1.15 3.49 2.87 3.08 5.56-.59 3.94-.71 8-1.75 11.81-.65 2.4-1.56 5.94-5.06 5.58-12.12-1.24-21.74 4.76-31.55 10.35-3.75 5.74-10.57 6.66-15.84 10-1.75 1.11-3.89 1.66-5.77 2.64-6.87 2.88-14.11 4.78-20.84 8-23.07 8.52-46.36 16.11-71 18.64-4.72.52-9.26-.26-13.88-.63z" fill="#b82e65"/><path d="m364.82 1185.15-1.31-.27c-4.39-5.22-9.1-10.25-10.15-17.42l59.72-9.74c7.84 0 15.66 0 23.21-2.51l5.09-.51c3.26 2.16 6.11.62 8.95-1l3.81-.3c7.33 1.11 14.51-.23 21.71-1.31l7.64-1.19a17.34 17.34 0 0 0 12.77-.11c9.71-2.1 19.55-1.22 29.35-1.26 3.51 2 7.49 1.17 11.21 1.58a218.76 218.76 0 0 1 45.29 10.37 35.94 35.94 0 0 1 16.86 11c1.41 1.71 3.6 3.31 1.92 6.06-9.22.32-17.75-3.84-26.9-4.12-17.16-.52-34.18-2.84-51.25-4.29-14.53-1.23-29.19-2.24-43.89-1.86s-28.54 3.61-42.5 7c-19 4.57-38.4 6-57.83 7.33-4.6.32-9.14 1.68-13.7 2.55z" fill="#fef9e7"/><path d="m533.19 1112.43c6.48-4.19 13.07-8.2 19.4-12.6a222 222 0 0 1 31.69-18.14c1.72 1.55 3.47 3 5.14 4.65 8.14 7.76 13.73 7.35 20.27-1.5 4.08 5.29 8.22 10.54 12.23 15.88 3.7 4.94 8.6 8.38 13.81 11.49a28.84 28.84 0 0 1 -5.51 1.32c-13.11.54-26.27.47-39.35 1.49-14.2 1.11-28.39 1.17-42.59 1.07-5.28-.04-10.55-.43-15.09-3.66z" fill="#bd014c"/><path d="m401.75 1128.91c12.64-26 27.91-50.33 44.17-74.13a69.09 69.09 0 0 1 17.29 21.9 3.77 3.77 0 0 1 -1 3.5c-11.05 14.22-19 30.34-28.07 45.75-10.91-.13-21.48 3.27-32.39 2.98z" fill="#bd014c"/><path d="m876.54 1192.75c-.17-1.84-1.33-2.25-3-2.59-26.22-5.39-52.35-11.26-78.65-16.22-22.81-4.31-45.35-10.11-68.26-13.58-11.82-1.79-23.8-3.3-35.74-4.56-14.06-1.48-28.07-3.61-42.24-3.91-1.72 0-2.85-.65-3.09-2.47 16.3 1.23 32.69.38 49 3.17 19.12 3.27 38.43 5.38 57.6 8.32 23.71 3.62 47.52 6.42 71.16 10.76 22.11 4.06 44.34 7.38 66 13.47s43.49 12.7 65.27 18.92c2.27.65 4.25.76 3.37 3.84-25.14-6.66-51-9.36-76.52-13.91-1.68-.29-3.28-.82-4.9-1.24z" fill="#f7f4e6"/><path d="m600.89 1178.6c-3.76-8-10.55-12.37-18.5-15.19a232.61 232.61 0 0 0 -52.33-11.49c-1.84-.21-4 .39-4.45-2.36 33.58-2.62 67.21-1 100.82-1.21-.69 4 2.24 6.53 4 9.55 1.47 2.54 2.83 5.15 4.13 7.77 4.71 9.5 4.68 9.49-4.42 14.68-.59.33-.78 1.36-1.15 2.07z" fill="#f7f4e6"/><path d="m434.13 1125.93c-.79-3.29 1.42-5.71 2.84-8.1 8.33-14 15.44-28.75 26.24-41.15 9.33 10.92 19.13 21.48 26.66 33.79 4.18 6.84 3.1 9.42-4.86 10.45-13.14 1.69-26.36 2.82-39.56 4.14-3.76.38-7.55.59-11.32.87z" fill="#f7f4e6"/><path d="m998.71 1216.47c-.88 22.74-1.2 45.48-.75 68.23-.13 1.44-.25 2.87-.41 4.64-6.2.29-11.63 3.68-17.78 4.38-1.71-1.76-1.09-4-1.1-6 0-13.54-.43-27.1.08-40.63.44-11.5 1.92-23 3-35.18 6.06.72 11.52 2.6 16.96 4.56z" fill="#bd014c"/><path d="m436.29 1155.21a3.62 3.62 0 0 1 -3.28 2.62c-5.81.69-11.65 1.16-17.48 1.61a2.67 2.67 0 0 1 -2.45-1.72 150.87 150.87 0 0 1 23.21-2.51z" fill="#f7f4e6"/><path d="m475.85 1152.12c-.23 1.08-.72 2.18-1.88 2.18a97.34 97.34 0 0 0 -16.7 1.38 2.47 2.47 0 0 1 -3.13-2.25c7.22-.68 14.37-2.53 21.71-1.31z" fill="#f7f4e6"/><path d="m496.26 1150.82c-4.22 3.78-8.48 3.59-12.77.11z" fill="#f7f4e6"/><path d="m450.33 1153.73c-2.52 4.56-5.48 5-8.95 1z" fill="#f7f4e6"/><path d="m962 1285.79c-1.06.13-2.11.23-2.64-1 1.06-.06 2.1-.14 2.64 1z" fill="#aeaca0"/><path d="m307.41 1199.05c-.39.45-.77.91-1.16 1.37.39-.42.75-.92 1.16-1.37z" fill="#f9f9fa"/><path d="m400.59 1130.09c.42-.42.83-.85 1.24-1.27-.41.42-.83.85-1.24 1.27z" fill="#bd014c"/><path d="m1017.09 1004.74c22.75 10 46.06 18.44 70.79 21.8 19.41 2.65 38.82 1.91 57.79-3.82 4.23 4.22 10.11 3.3 15 3.68 14.51 1.1 29 2.47 43.43 4.22 10.66 1.28 21.15 3.65 31.74 5.35 8.67 1.39 17.13 2.76 23.86 8.9a38.7 38.7 0 0 1 12.51 22.81c1.72 10.07 1 20.13 1.25 30.21.09 4.16-1.29 6.21-5.5 6.91a53.82 53.82 0 0 1 -9.39 1.17c-13.38-.08-26.75 0-40.13-.07-2.21 0-4.76.86-6.43-1.58.56-6.06 5.28-9.6 8.81-13.61 7-8 9.83-17.23 10-27.53.19-10.83-3.28-14.89-14.12-15.38a98.13 98.13 0 0 0 -30.26 3.54c-12.89 3.5-24.1 10.5-35.69 16.74-2.41 1.29-4.48 3.33-7.51 3.13-19.3-12.33-41.37-16.13-63.26-20.37-6.44-1.24-13-1.95-19.51-3-14.83-2.33-27.69-9.38-40.83-15.84-5.71-2.81-11.21-6.07-17.39-7.9-2.61-.77-5.79-1.62-4.47-5.52 1.48-4.38 4.7-2.58 7.39-1.59 9.61 3.52 18.45 8.7 27.72 13 15.68 7.21 32.68 9.08 45.93 12.64-13.91-4.38-31.62-8-46.13-19.19-6.46-5-12.71-10.4-17.65-17.06.22-1.13.76-1.85 2.05-1.64z" fill="#f7f4e6"/><path d="m1143 1070.45c9.11-4.83 18.41-9.33 27.27-14.57 7.81-4.62 16.37-7 25-8.22 9.25-1.36 18.69-3.49 28.22-.52 6.14 1.92 9 5.7 9.16 12 .46 13.24-2.69 25.06-12.35 34.74-3.11 3.12-5.51 7-8.24 10.45-5.78 2.54-8.81 8.48-14.22 11.49-1.69 1-.8 2.66-1 4-4.55 14.19-16.48 24.37-20.86 38.72a48.26 48.26 0 0 0 -2 18.15c.88 11.06-5.45 18.28-12.78 24.91-2.52 2.28-7.07 3.43-9.43 2.13-6-3.31-13.08-1.22-18.77-4.79 2.83-7.13 4.73-14.13 3-22.14-2.09-9.44 1.15-18.45 5.26-26.92a21.59 21.59 0 0 0 2.34-8.43c.44-8.33-2.34-10.39-10-7.22a18 18 0 0 0 -3.81 2.23c-13 9.82-28.41 10.86-43.86 11.54a.88.88 0 0 1 -.5-.78c0-.34 0-.51.14-.51.5-1.37 1.43-2.73 1.43-4.11.08-16.44 6.91-30.14 15.62-43.7 4-6.27 10-11.77 11.36-19.71 1.43-3.33 4.68-3.46 7.5-3.88a113.54 113.54 0 0 0 17.84-4.46c1.14-.49 2.42-.22 3.68-.4z" fill="#060403"/><path d="m1227.45 1201.67 21.65-11.47c-2.89 22.06-2.52 44.24-2.28 66.41 0 2.59-1.23 3.8-3 5-1.14 1.69-3.42 1.47-4.75 2.84-4.1 1.55-7.43 6.76-12.73 2.68a8.45 8.45 0 0 1 -1-3 305.53 305.53 0 0 1 -.06-57.22 9 9 0 0 1 2.17-5.24z" fill="#bd014c"/><path d="m1227.45 1201.67c-1.92 15.83-.91 31.73-1.29 47.6-.15 6.4 1 12.63 1.38 19 .36.33.47.64.32.94s-.27.43-.4.43a5.92 5.92 0 0 1 -.9.38c-5.46-3.09-10.9-6.23-16.39-9.26-5.19-2.86-2.16-8-3.43-11.93-2.89-8-2.15-16.33-2-24.47.1-4.9-1-10.31 2.19-14.87 6.37-3.9 13.53-5.65 20.52-7.82z" fill="#fe0160"/><path d="m1023.23 987c-5.3-2.56-10.32-5.76-16.19-7.29 6.11-1.71 11.07 1.37 16.18 3.71.01 1.15.01 2.34.01 3.58z" fill="#e1ddeb"/><path d="m1227.46 1269.59c0-.46 0-.91.08-1.37 4.29.06 7.17-4.14 11.55-3.8-2.7 4.38-7.03 5.09-11.63 5.17z" fill="#aeaca0"/><path d="m1239.07 1264.43c1-2 2.74-2.6 4.75-2.84-.69 2.46-2.45 3.09-4.75 2.84z" fill="#aeaca0"/><path d="m560 796.94c-3.5-8.76-8.21-17.11-8.95-26.79-1.17-12.67-.41-25.36-.52-38-.14-15.05 0-30.11-.08-45.16 0-3.77.58-7.16 3.3-9.94h-.06a6.85 6.85 0 0 1 1.35-1.34l-.07.08a6.07 6.07 0 0 1 2.62-2.64l-.11.09a3.6 3.6 0 0 1 1.92-1.35c21-5.12 42.44-1.6 63.65-2.55 13.31-.6 26.66-.29 40-.38 5.58-1.55 11.34-1.35 17-1.39 25-.15 50-.09 75.07 0 3.13 0 6.43-.57 9.15 1.73 51.76 0 103.52 0 155.27-.31 7.42 0 14.59-.32 21.42 2.94a3.63 3.63 0 0 1 1.9 1.34l-.08-.08a4.35 4.35 0 0 1 1.33 1.7l.81.88a3.8 3.8 0 0 1 1.76 1.33h-.09a6.06 6.06 0 0 1 1.34 4.14c1.52 38.46 1.43 76.93 1.28 115.41 0 1.68.11 3.45-1.45 4.68-4.82-2.76-7.59-7.74-12.3-11.84.29 12.43 8.45 20.14 13.94 29.12 0 7.66-1.95 10-8.91 10.64l-5.85-3.76 1.92 6.12a5.22 5.22 0 0 1 -3.42 1.59c-45.17.35-90.36.08-135.54.14-29.7 0-59.39 0-89.09 0-12.44-.22-24.88.3-37.31-.28-5.22-1.84-10.52-.39-15.79-.31a4.13 4.13 0 0 1 0-5.14q.52-7.47 1.06-14.93c2.63-3 6.24-2.34 9.53-2.3 24 .34 48 .47 72 .89 58.42 1 116.87.36 175.31.31 10.46 0 14.94-3.93 15.24-14.45.37-12.74 1.3-25.47.79-38.23-.46-11.57-5.26-15.82-16.94-15.58-96.88 1.92-193.77.39-290.66.8-.84 0-1.69-.1-2.54-.12-11.62.26-23.26 0-34.89.14-8.68.14-11.78 2.79-12.88 11.49s-.29 17.33-.47 26c-.07 3.38.14 6.8-1.78 9.84q-4.59 2.69-9.18 5.47z" fill="#fcfdfd"/><path d="m681.43 928.4c-5.54-7.84-11.18-15.61-16.6-23.54a61.64 61.64 0 0 1 -10-27.79c-.69-5.72.74-11.69 1.22-17.55 2.19-2.19 5-2 7.75-1.94 14.8.34 29.6.06 44.4.13q109.51.07 219 0c4.16 0 8.63-.83 11.79 3.12 2.9 5.87 5.51 11.89 9.61 17.08 1.36 7.14 3.84 14.36-1.8 20.89-2.84-.78-5.63-1.89-8.52-2.27-8-1-10.93-7.72-12.42-13.61-.86-3.4-5-6-1.77-10.38-3.81.42-3.43 2.91-4.46 4.29-1.28 2.51-4 3.87-4.38 7.26-.78 7.87 0 9.55 8.29 13.59 6.24 8.42 16.06 11.51 24.58 16.54 2.44 4.32 2.6 8.61-.15 12.87a59.54 59.54 0 0 1 -24.6-5.57c-7.53-3.59-10.71-11-13.47-18.66-4.68 6.37-4.59 12.46.52 18.49 3.25 3.83 7.08 7.16 10.65 10.72-6.21 3.64-12.52 2.75-18.86.38-4.59-3.27-3.77-9.41-7.26-14.24-1.66 5.2-.36 9.67-.48 14.07-2 2-4.62 2-7.15 2-65.69 0-131.39.19-197.08-.07a17.23 17.23 0 0 1 -1.9-.2c-3.28-.6-6.07-1.91-6.91-5.61z" fill="#fafcfd"/><path d="m685.7 932.6q61.75-.12 123.49-.24 42.66-.06 85.31 0c6.07 16.21 19.42 24 34.47 29.82 2.4 3.15 1.73 6.59.95 10-2 3.29-4.79 1.88-7.35 1.14-11.69-3.36-19.92-11.24-27.2-20.89 4.86 14.51 15.54 23.1 28.29 29.74 2.22 1.16 4.89 1.65 6.14 4.23a7 7 0 0 1 -.21 5.57c-3.32 3.09-6.67 1.41-10 0-10.82-4.58-21.11-10-28.42-19.75 1.22 5.46 6.36 9 6.2 15 8.31 1.62 13.89 7.85 20.82 11.74 1.39.78 2.94 2.08 1.22 4.08-9.68 2.75-19.53 1-29.29 1.13-6.4-1.35-10.85-5.89-15.65-9.64.7 3.15 5.53 5 3.13 9.34-25.93-.08-51.43-3-75.66-12.78-11.92-4.8-23.34-10.82-35.11-16-9.31-4.11-19-7.07-29.31-7.17-2.28-7.48-5.74-10.1-13.17-10.09-5.86 0-11.76.44-17.54-1.06-7.86-.89-11.58-6.21-13.87-13l-4-5c-1.94-1.66-3.74-3.3-3.24-6.17z" fill="#3b237f"/><path d="m933.84 831.62 2.75-.11c7.78 9.63 17.82 16.46 28.19 22.9 2.77 7 3 13.94-.14 20.87-13.49-2.66-19.54-13.5-26-24.59-1.62 2.63.05 4.69-.52 6.59-2.32 1.58-5 .9-7.44.94-31.84.55-63.68 0-95.52 0q-59.26 0-118.55 0c-2.74 0-5.53.43-8.2-.62-4.13-7.86-2.34-16-1.24-24.14a2.61 2.61 0 0 1 2-1.33q108.83-.13 217.75-.05c2.3 0 4.67.45 6.92-.46z" fill="#ada2c8"/><path d="m920.05 1001.86c-7.82-3.87-13.8-11.24-23.5-13.39.58-6.87-7.4-11.55-8.49-20.58 12.27 11.74 24.32 22 40.65 24.9 5.14-.59 10.33 1.5 16.33-.43-5.89-2.14-11.81-2.15-16.16-6-13.11-5.53-24.79-12.82-31.89-25.78-2-3.73-3.12-7.72-3.8-13.83a75.23 75.23 0 0 0 17.13 18.95c5.45 4.35 11.43 7.11 18.54 6.92 3.5-1.67 6.92-2 10.2.55.19 3.27 2.64 4.52 5.11 5.77a133.91 133.91 0 0 0 18.59 7.48c2.27.76 5.14.94 5.82 4.08a2.6 2.6 0 0 1 -1.88 1.64c5.79.18 11.74-1.49 16.89 2.39 6.51.85 11.6 6.58 18.69 5.47a24.49 24.49 0 0 1 13.19 6.44c6.23 3.81 10.62 9.73 16.22 14.26 14.33 11.59 31.85 15.65 48.88 20.86 1.82.56 3.72.86 5.56 1.38a15.84 15.84 0 0 1 2.63 1.78c-8.63.71-15.53-2-22.6-3.09-18.1-2.69-34.61-9.83-50.68-18.21a133.52 133.52 0 0 0 -12.25-5.36c-3.1-1.24-3.15-1.11-5.05 3.13 15.17 3.82 27.87 13 42 19.14 10.52 4.59 21.6 6.1 32.65 7.88 19.1 3.07 38.1 6.38 56.17 13.59a41.45 41.45 0 0 1 14 8.68c-.4 1-1.25 1-2.12 1-7.68-.15-15.14-2.1-22.38-4.09-14.42-4-29-3.41-43.49-2.53-14.29.87-28.09.34-41.47-5l.13.11a12.71 12.71 0 0 0 -2.64-.85c-18.6-6.92-33.57-19.52-48.62-31.8-8.81-7.19-17.64-11.55-29.52-12.43-12.57-.92-24.8 2.3-37.27.65-7.16-1-14.24-1.44-20.49-5.59a19.28 19.28 0 0 0 -11.36-3.45 7.92 7.92 0 0 1 -6.14-2.51c-.19-5.21-6.31-7.87-6-14.36 5.4 5.23 10.48 9.62 16.32 13 19.18 7.73 39.27 8 59.45 7 11.12-.54 22 0 33.15 4.71-4.37-3.2-7-4.28-12.16-4.64-10.78-.77-21.55-1.59-32.29-2.82-5.61-.75-11.44-.96-16.05-5.02z" fill="#f40567"/><path d="m983.83 861.35c10.45 2.46 21.26 3.43 30.78 9.34 5.12 3.18 8 6.23 5.65 12.6-1.51 4.12-2.16 8.56-4.66 13.36-8.39-10.33-19.5-15.47-31.84-18.33-3.08-5.67-3.16-11.32.07-16.97z" fill="#f7f4e6"/><path d="m983.87 832.84c13.44 3.32 26.44 7.7 37.28 16.72 9 7.51 8.91 7.63 2.39 19.14-10.54-12.44-25.91-15.53-39.78-21.53-2.76-4.8-2.88-9.58.11-14.33z" fill="#f7f4e6"/><path d="m708.28 857.08c53.75 0 107.53-.84 161.26.39 22.9.52 45.72-2.09 68.57-.2.31 1.21.61 2.4.91 3.6-3.39-1.42-6.93-1.4-10.54-1.39q-108.26.07-216.5 0c-1.27 0-2.54-.14-3.81-.22a1.23 1.23 0 0 1 -.71-1.12 1.48 1.48 0 0 1 .82-1.06z" fill="#837c96"/><path d="m983.86 892.92a40.75 40.75 0 0 1 18.52 7.8c11 8.08 11.91 12.9 5 27.15-6.38-8.58-14.59-14.67-23.71-19.63-2.67-5.13-3.09-10.24.19-15.32z" fill="#f7f4e6"/><path d="m983.91 811.25c4.51 2.3 9.45 4 13.46 7 11.68 8.68 24.59 14.75 38.39 19.29.59 3.58-1.4 6.19-2.66 10.08-10.4-10.89-22.88-17.2-36.17-22.26-4.35-1.66-9.31-1.16-13.22-4.06-2.25-3.4-2.71-6.76.2-10.05z" fill="#f7f4e6"/><path d="m983.83 861.35q0 8.49-.07 17c-6.32-1.35-13-.32-19.12-3q.08-10.42.14-20.87z" fill="#060403"/><path d="m983.86 892.92q-.09 7.67-.17 15.32l-19-6.58c-2.81-4.74-3.17-9.45.09-14.15 6.6.86 13.16 2.02 19.08 5.41z" fill="#060403"/><path d="m947.79 801.23c.23-41.42.09-82.83-1.18-124.23 2.85.06 2.66 2.16 2.7 4.07.94 40.91 1.81 81.82 1 122.74z" fill="#837c96"/><path d="m983.87 832.84q-.06 7.17-.11 14.33c-6.61-1.07-13.11-2.5-19.15-5.51-2.73-4.77-3.13-9.51.14-14.21 6.55 1.17 13.08 2.41 19.12 5.39z" fill="#060403"/><path d="m964.75 827.45q-.07 7.09-.14 14.21c-5.47-.44-9.85-3.34-14.24-6.25-3.24-2.15-6.57-4.18-9.85-6.26 6.22-.82 6.56-6.57 8.91-10.64z" fill="#ada2c8"/><path d="m964.75 887.51-.09 14.15-17.84-2.82c2.74-6.78.08-14 1.81-20.88 4.56 4.55 10.44 6.88 16.12 9.55z" fill="#ada2c8"/><path d="m983.91 811.25q-.1 5-.2 10c-7-.35-13.14-3.22-19.13-6.53l.27-17.12z" fill="#060403"/><path d="m902.24 932.49 18.86-.38c1.78 1.37 4.36 1.65 5.39 4 4.65 3.11 5.14 7.06 2.38 11.68-10.48-2.29-20.46-5.49-26.63-15.3z" fill="#3c1f7c"/><path d="m928.87 947.81c-.15-4 1.18-8.35-2.38-11.68 7.49.38 14.48 2.91 21.58 5 1.6 2.19 1.66 4.35-.11 6.49a61.42 61.42 0 0 1 -19.09.19z" fill="#f9f9fa"/><path d="m948 927.13.15-12.87c5.54 1.78 11.54 2.12 16.61 5.32 2 3 2.19 6-.12 9-5.58-.15-11.18.05-16.64-1.45z" fill="#ada2c8"/><path d="m939.06 973.13-10.2-.55c0-3.48.07-7 .11-10.44l19.17 2.94c1.3 2.19 1.84 4.35-.24 6.42l-2.49.57c-.64.44-1.23 1-2.11.83z" fill="#f7f4e6"/><path d="m964.64 928.57.12-9a65.78 65.78 0 0 1 19.11 6.27c1.46 2.16 1.77 4.3-.17 6.37z" fill="#060403"/><path d="m983.7 932.23c0-2.12.11-4.25.17-6.37 8.48 2.64 15.37 7.21 18.89 16.13-5.68-4.76-12.56-6.87-19.06-9.76z" fill="#f7f4e6"/><path d="m964.68 968.06a63.64 63.64 0 0 1 19.09 1.94c1.48 1.7 1.51 3.36-.16 5a51.42 51.42 0 0 1 -19.09-3.77 2.26 2.26 0 0 1 .16-3.17z" fill="#060403"/><path d="m964.73 942.89c6.39.43 12.85.21 19.06 2.18 1.19 1.68 1.46 3.34-.1 5l-19-2.89c-1.48-1.45-1.43-2.87.04-4.29z" fill="#060403"/><path d="m923.57 897.72c-5.44 1.44-8.55-1.05-9.87-6.11-1.83-7 .28-12 6-14.74-2.52 7.66-2.39 14.83 3.87 20.85z" fill="#28221c"/><path d="m983.69 950 .1-5c10.22 1.16 14.59 4.32 14.74 11.66z" fill="#f7f4e6"/><path d="m1041.5 942.25-25.63 6.13c-1-3.24-.34-5 3-5.63 7.87-1.35 15.72-2.87 23.57-4.32 1.05 1.62-1.3 2.37-.94 3.82z" fill="#fef9e7"/><path d="m964.73 942.89v4.26l-16.77.46q0-3.25.11-6.49c5.66-.37 11.15.82 16.66 1.77z" fill="#ada2c8"/><path d="m983.59 994.49c-7.08-1.52-14.3-1.3-22.23-1.24 2.21-3.42 5.3-1.38 7.22-2.79 4-.29 8-.76 12-.79 3.24-.02 5.94.82 3.01 4.82z" fill="#28221c"/><path d="m964.68 968.06c0 1-.11 2.07-.16 3.11-5.57-1.18-11.09-.09-16.62.33l.24-6.41c5.56.73 11.26.71 16.54 2.97z" fill="#ada2c8"/><path d="m983.61 974.94c0-1.65.1-3.31.16-5a6.64 6.64 0 0 1 2.44 0c3 1.3 6.31 2.5 7.39 6.1.29 1-.66 2.6-1.43 2.41-3-.69-6.38-.75-8.56-3.51z" fill="#e1ddeb"/><path d="m1088.28 776.64 1.38 1.35a70.6 70.6 0 0 1 -16.73 11.66l-1.28-1.77z" fill="#e4c4aa"/><path d="m1015.47 1006.4-13.2-6.44c.29-2.13 1-3.09 3.27-1.7 3.78 2.29 7.69 4.34 11.55 6.48z" fill="#e4c4aa"/><path d="m1041.5 942.25c.32-1.28.65-2.55 1-3.82a10.13 10.13 0 0 1 6.33-1v4.15a17.18 17.18 0 0 1 -7.33.67z" fill="#fefce9"/><path d="m1027.92 905.09c-.51.45-.93 1.55-1.71.78-.57-.56-.19-1.46.54-2z" fill="#fef9e7"/><path d="m943.3 972.9a1.81 1.81 0 0 1 2.11-.83z" fill="#f40567"/><path d="m727.22 480.35c3.49 2 7-.15 10.48-.11 22 .24 44 .14 66 .08 2.21 0 4.72.85 6.51-1.38a24.09 24.09 0 0 0 9.38 1.33q51.95 0 103.88 0c5.19 0 10.39-1.77 15.56.11l-.08-.05c8.27 3.44 10.84 10.37 10.83 18.51 0 28.26.42 56.51-.25 84.76.65 14.23.44 28.47.17 42.7-.19 10-8.28 17.34-18.25 17.45-8.28.1-16.57 0-24.86 0a120 120 0 0 1 -12.72.53q-79.39 0-158.79 0c-5.93-1.18-11.84.11-17.76.11q-71.32 0-142.66 0a36.43 36.43 0 0 1 -6.36-.13c-15.09-2.63-19.38-7.43-19.26-20.89.38-41.2.17-82.41.1-123.62 0-6.72 1.6-12.54 7.14-16.8l-.07.05a.84.84 0 0 1 1.14-.28c9-4 18.33-4 27.82-2.84a51.73 51.73 0 0 0 5.71.25z" fill="#fefefe"/><path d="m923.61 319.28c4.77-3 13.5 2.68 14.13-7.12.19-2.94.69-6.92-3-7.45-4.45-.64-9.77-2.57-13.56 3 6.43 3.4 2.85 6.39-.49 10-2.88-3.14-9.37-3.18-2.59-10.26 4.81-5 8.5-8.25 15.2-7.15 4.63.75 7.57 3.53 8.28 8.3.86 5.78-1.62 10.29-6.64 12.52-3.47 1.6-7.94 2.58-11.33-1.84z" fill="#3b237f"/><path d="m932.23 305.46c.69 3.4 0 6.85 4.39 9.37-5.59.93-7.35-1.5-8.23-4.58-.66-2.35-.3-4.69 3.84-4.79z" fill="#3b237f"/><path d="m618.77 742.38c18.07-.11 36.13-.27 54.2-.29q115.14-.15 230.27-.2c5.69 0 11.32-1.36 17.09 0 6 1.45 9.88 4.29 10.34 10.94.91 13.12.41 26.23-.13 39.33-.11 2.5 1 4.71.29 7.42-2.86 11.7-5.29 13.84-17.3 13.81q-89-.21-177.95-.42c-26.36-.07-52.72-.25-79.09-.38-1.27-9.85-.6-20-3.38-29.56-2.24-7.72-1.67-17.15-11.4-21.14-7-2.85-13 .43-19 2.59-7.67 2.77-14.33 8.09-22.54 9.79-1.36-.78-1.42-1.88-.82-3.16 5.89-4.25 12.75-6.68 19-10.2s6.66-5.49 2.75-11.57c-1.26-2.05-4.75-3.55-2.33-6.96z" fill="#3c1f7c"/><path d="m502.55 979.13c-5-4.15-9.35-7.66-13.57-11.37-23-20.27-44.46-42.37-68.3-61.74-8.71-7.08-19.08-11.68-29.47-15.77-9.2-3.63-17.28-8.91-25-14.79-1.42-1.07-3.15-2.41-1.83-5.36 8.2 2 16.48 4.16 24.82 6 20.58 4.56 40.84 10.42 61.62 14.25 8.07 1.48 16.58 2.2 24.17 6.75 6.38 3.82 9.69 9.3 9.88 16.8.39 15.07.33 30.43 8.4 44 2.36 4 5.63 7.37 8.39 11.11 1.9 2.66 3.1 5.5.89 10.12z" fill="#f4dc00"/><path d="m618.77 742.38c-.08 4.26 4.16 5.89 5.74 9.34 1.93 4.22 1.41 7-2.27 8.87-7.66 3.91-15 8.52-23.31 11.08-1.34.08-2.41-.68-3.6-1.11-4.26-1.51-6.79-.1-7.88 4.34-.65 2.62.3 5.6-1.78 7.91l-16.49 8.58c0-11.69-.11-23.39.16-35.07.22-9.17 4.92-15.3 15-14.38 11.41 1.06 22.95.36 34.43.44z" fill="#3b237f"/><path d="m693 943.74c4 5 7.71 10.34 13.87 13-2.93 5.8-8.73 7.87-14.13 9.71-12.19 4.15-24.6 7.63-37.09 10.92-18.45 4.84-36.68 10.7-49.73 26.11-1.36 1.61-2.79 4-5.11 2.21-2.11-1.59-1.6-4.48-.61-6.48 3.34-6.72 9.4-11 15.73-14.16 15.37-7.53 31.56-13.44 46.6-21.54 8.6-4.62 17.33-9.84 24.35-17 1.68-1.78 3.49-3.04 6.12-2.77z" fill="#f4dc00"/><path d="m685.7 932.6c1 2.06 2.95 3.64 3.22 6.09-8.73 6.66-17.79 12.91-26.76 19.2a58.84 58.84 0 0 1 -27.16 9.91c-10.88 1.15-19.35 5.49-26.08 13.75-1.21 1.49-1.91 3.42-4.37 2.72-.79-6.17 5.18-14.44 12.78-17.28 10.26-3.84 20.77-7.08 30.24-12.76a126.58 126.58 0 0 0 26.81-21.91 11.8 11.8 0 0 1 7.06-3.92z" fill="#f4dc00"/><path d="m655.43 827.54c.05 1.78.11 3.56.16 5.34 1.29 1.24 1.22 2.46 0 3.68-4.7 2.65-2.5 7.64-3.25 11.34-1.5 7.37-1.14 15.1-1.66 22.68a48.72 48.72 0 0 0 4.32 24.87c-14.11-7.45-21.45-21.77-18.09-35.66a377 377 0 0 1 13.54-43.52c.36-1 .47-2.1 2.34-2.46 3.97 3.84-.13 9.59 2.64 13.73z" fill="#f4dc00"/><path d="m655.56 836.56c0-1.23 0-2.45 0-3.68 4.37-3.94 9.3-2.84 14.25-1.56a13.15 13.15 0 0 1 1.19 1.88c2.16 7.47-2.17 14.55-1.66 22.63 8 1.09 15.86.17 23.63.6 5 .27 10.24-1.38 14.93 1.66a5.09 5.09 0 0 1 .24 1.21l-52.12.22q-.21-11.52-.46-22.96z" fill="#ada2c8"/><path d="m568.93 853.6c1-3.74.92-7 2.49-8.71 7.8-8.62 9.57-21 18.55-28.9 3-2.64 3.45-7.11 5-10.79 2.2-5.34 5.21-7 11-5.8-3.08 4.19-4.6 8.86-6.2 13.59a42.41 42.41 0 0 1 -11.91 18.23c-6.48 5.8-12.36 12.14-15.74 20.39-.28.58-1.31.84-3.19 1.99z" fill="#f4dc00"/><path d="m585.67 782.81c0-2.11-.25-4.23-.08-6.32.31-3.5 1.42-6.61 5.18-7.92 3.58-1.25 6.05.47 8.16 3.1.43.87.85 1.75 1.27 2.62.08 2.9-1.42 3.83-4.1 3.31-1.71-.4-1.62-3.07-3.84-3-1.83 1.63-1.11 4.42-2.65 6.21-1.14 1.03-2.25 2.08-3.94 2z" fill="#e1ddeb"/><path d="m589.61 780.83a18.76 18.76 0 0 1 -.3-3.06c.17-2.66 0-6.09 3.72-5.94 3.23.13 3.15 3.23 3.07 5.77z" fill="#3b237f"/><path d="m904.52 645.11c-.68.78-1.21 2-2.06 2.29-20.73 8-41.19 17.18-64.21 7.82-20.82-8.47-40.24-1.4-59.37 6.74-4.88 2.04-9.75 4.04-14.63 6.04-1.78 1.05-3.74.58-5.62.58-29.33 0-58.66.07-88-.07-1.89 0-4.69 1.69-5.78-1.66 24.27-.61 46.5-7.54 66.54-21.35 1-1.85 2.73-1.63 4.38-1.75q80.73-.06 161.46 0c2.48.06 5.16-.66 7.29 1.36z" fill="#f9f9fa"/><path d="m734.69 644.71-3.29.82c-4.69-1.34-9.19.8-13.86.79q-73.62-.23-147.24 0c-6.18 0-11.74-2.06-17.1-4.39-4.64-2-6-6.62-6-11.75.13-33.16.09-66.31.11-99.47 0-11.48-.08-23 0-34.44.07-6.63 4-12.27 9-13.31-5 7.14-5.29 15.19-5.27 23.59.13 37.65-.14 75.3-.26 113v1.28c-.65 15.69 2.31 21.49 22.63 21.66 53.78.45 107.57.21 161.36.24.85.66.88 1.34-.08 1.98z" fill="#837c96"/><path d="m664.87 666.89c2 2 4.42 1.08 6.65 1.08q46.37.1 92.73.07a4.89 4.89 0 0 0 0 1.21l-101.18-.25c.29-1 .61-1.95 1.8-2.11z" fill="#e1ddeb"/><path d="m553.77 677c-5.39 14.13-2 28.8-2.45 43.21-.56 16.62-.21 33.28-.25 49.93-1.25-.35-1.25-1.48-1.55-2.43q0-24.4.08-48.82 0-18.33.07-36.66c.81-2.17.8-4.99 4.1-5.23z" fill="#837c96"/><path d="m557.61 673.14-2.61 2.64c-.16-1.9.92-2.57 2.61-2.64z" fill="#837c96"/><path d="m559.42 671.88-1.92 1.35z" fill="#837c96"/><path d="m555.06 675.7c-.13.77-.47 1.32-1.34 1.34a1.35 1.35 0 0 1 1.34-1.34z" fill="#837c96"/><path d="m557.4 482.72a2.1 2.1 0 0 1 -1.14.28c.2-.8.49-1.26 1.14-.28z" fill="#837c96"/><path d="m396.27 583.7c-3.71.55-5.4-1.13-6.45-4.55-3-9.73 2.51-20 11.37-20.91 6.51-.63 9.79 3.06 8 9.23-1 3.52-2.66 6.66-3.12 10.58-.56 4.42-5.07 6.48-9.8 5.65z" fill="#fefce9"/><path d="m488.62 579.93c-5.32-.07-10.29-4.41-9.65-9.09.4-2.88.22-7.35 5.13-7.37 4.64 0 10.61 6.19 10.42 11-.14 3.63-2.14 5.86-5.9 5.46z" fill="#fdfce9"/><path d="m565.54 304.92c-.3 3.07-.47 4.9-.65 6.72-2.59.31-3.6-1.66-5.07-2.69a55.05 55.05 0 0 1 -4.76-4.25l9.6-8.82c-.34 7.87 4.61 7 9.2 7 6.15 0 12.3.17 18.44.32.24 0 .47.54 1.45 1.74z" fill="#e1ddeb"/><path d="m734.69 644.71.09-2q85.34-.07 170.67-.13a11.3 11.3 0 0 1 1.88.3 1.42 1.42 0 0 1 -.33 2.24h-2.48q-82.39 0-164.79 0c-1.68.04-3.36-.26-5.04-.41z" fill="#b2b0bb"/><path d="m948.36 583.94c-.13-27.35-.49-54.71-.26-82.06.08-8.82-2.2-16-9.1-21.56 9 1.94 12.67 7.11 12.7 18.25.07 23.75 0 47.49 0 71.23 0 3 .07 5.93.11 8.9l-1.26 3.74c.39 2.14-.79 1.99-2.19 1.5z" fill="#b2b0bb"/><path d="m948.36 583.94a2.38 2.38 0 0 0 2.2-1.5c2 1.92 1.17 4.41 1.18 6.65.08 12.76 0 25.53 0 38.29 0 10.57-7 17.69-17.33 17.74-9.14 0-18.28 0-27.43 0l.33-2.25c7.41-.13 14.82-.32 22.24-.38 11.54-.08 18.26-6.9 18.31-18.42.07-13.4.33-26.77.5-40.13z" fill="#837c96"/><path d="m944.14 674.84-1.33-1.7z" fill="#837c96"/><path d="m942.89 673.22-1.89-1.34a2 2 0 0 1 1.89 1.34z" fill="#837c96"/><path d="m946.71 677.05-1.71-1.33a1.78 1.78 0 0 1 1.71 1.33z" fill="#837c96"/><path d="m529.43 804.64c8.67 3.73 11.1 6.83 10.15 13-.61 3.92-1.77 4.87-6.65 5.48 4.56-5.68 4.19-9.34-1.52-14.66a5 5 0 0 1 -2-3.79z" fill="#aeaca0"/><path d="m529.45 804.62-3.11-.22c1.51-1.52 2.31-.71 3.09.24z" fill="#aeaca0"/><path d="m395.69 758.66c-6.64.13-18.93-10.73-19.28-16-.22-3.38 1.8-4.85 4.74-4.35 7 1.18 13.73 3.33 21.12 1.76 3-.65 4.54 3.06 5.44 6.07 1.15 3.86-.48 6.69-3.19 9s-6.52 2.86-8.83 3.52z" fill="#f6f8e8"/><path d="m793.35 200c-3.74 2.55-71.46 3.06-77.28.58 3.33-3.14 72.06-3.66 77.28-.58z" fill="#010102"/><path d="m1085.52 1146.74.36 1.29c-4.87 3.41-8.43-.3-12-2.54-10-6.36-19.21-13.81-29.58-19.67-18.48-10.44-35.2-23.69-53.61-34.3-19.1-11-39.32-19.76-58.82-30-7.24-3.8-14.68-7.25-22.77-8.92-10.26-2.12-20.67-2.6-31.11-3.32-10.94-.76-21.95.39-32.73-1.07-12.32-1.66-24.58-.79-36.85-1a172.56 172.56 0 0 1 -28.37-2.53c-2.32-.42-4.52-.94-6.05-3.07 22.2.81 44.16-1.68 66.17-2.49a306.83 306.83 0 0 1 39.57.66 281.21 281.21 0 0 1 55.1 10.94c8.36 2.52 15.39 7 22.58 11.4 11.19 6.88 23.93 11.06 34.15 19.6 4.88 4.08 9.41 8.63 14.59 12.28 24.55 17.28 49.28 34.3 73.89 51.5 1.82 1.31 3.6 1.19 5.48 1.24z" fill="#b2b0bb"/><path d="m1033.52 1059.76c6.87 1 13.75 2 20.61 3.11 15.37 2.38 30.72-1.54 46.12 0 13.88 1.36 27.5 3.7 40.61 8.56-8.26 5.07-18.25 4.22-26.93 7.83a74.75 74.75 0 0 0 -34.14-7.58c-9.62.13-19-1.22-28.29-3-6.72-1.29-12.16-5.6-17.98-8.92z" fill="#f7f4e6"/><path d="m1031 1059 2.64.85z" fill="#f7f4e6"/><path d="m1207 1209.44-.21 39.34c-18.86-8.16-39.12-10.3-59-14-8.71-1.61-17.28-4-25.92-6 28.73-1.25 56-9.16 82.76-18.86a19.32 19.32 0 0 1 2.37-.48z" fill="#f7f4e6"/><path d="m1097.32 1124.41c3.35-12.32 9-26.26 20.67-37a11.27 11.27 0 0 1 6.26-3c16.55-1.06 29-11.08 42.44-18.94s27.7-13.6 43.9-12c7 .67 10.49 8 8.71 16.6-3.66 17.75-16 26.84-31.26 33.88-22.09 10.21-45.43 17.7-66.26 30.58-4.11 2.54-8.67 3.37-13.19 4.29-6.21 1.32-11.33-4.17-11.27-14.41z" fill="#28221c"/><path d="m933.84 831.62c-1.41 1.92-3.49 1.21-5.29 1.21q-108.63 0-217.25 0c-1 0-2.11-.11-3.17-.18-.34-.25-.47-.52-.37-.79s.2-.42.31-.42q77.49 0 155-.08c23.58.01 47.18.17 70.77.26z" fill="#837c96"/><path d="m919.81 697.58c.75-3.6 7-1.74 4.94-5.89-3-5.92-5.46 2.51-9 .69-.14-3.07 1.48-4.74 4.39-5.67a6.81 6.81 0 0 1 7.08 1.45 5 5 0 0 1 .92 6.89c-.57.93-1.72 1.38-.5 3 3.22 4.22 1.78 8-2.85 9.44s-8.79.23-9.79-5.59c3.71-2.67 7 7.46 10.12.33 1.56-3.69-3.78-2.79-5.31-4.65z" fill="#28221c"/><path d="m708.07 831.44a4.1 4.1 0 0 0 .06 1.21l-.36.46c-1.74 1.46-3.87 1.54-6 1.57q-12.91.17-25.85 0c-2.1 0-4.22-.14-6-1.59 0-.59-.09-1.18-.14-1.77z" fill="#aeaca0"/><path d="m920.05 1001.86c14.76 4.44 30 4.63 45.23 5.73 5.49.4 11 1.31 15.86 4.17 1.79 1 3.94 1.86 3.66 4.61-1.5 1.59-2.73.11-3.92-.4-10.77-4.61-22-5.74-33.6-5-18.67 1.27-37.36 2-55.1-5.94-1.53-.68-3.29-.91-4.23-2.54 10.69-.43 21.42.8 32.1-.63z" fill="#190c32"/><path d="m928.88 986.32c6.36 1.33 12.31 4.25 19.07 4.21-1.57 4.88-10.7 5.65-19.24 2.26.06-2.16.11-4.32.17-6.47z" fill="#e1ddeb"/><path d="m670 833.09h37.79q.24 12 .5 24a5.5 5.5 0 0 0 -.35 1h-41.76c1.44-8.82 4.08-16.71 3.82-25z" fill="#f9f9fa"/><path d="m747.53 551.82q77.49 0 155 0a104 104 0 0 0 12.7-.6c9-1.12 14.9 4.41 14.9 13.66 0 15.31-.14 30.62-.21 45.93 0 7.27-5.5 12.05-12.83 11.31a44.19 44.19 0 0 0 -4.46 0l-323.36-.12c-2.77 0-5.53.17-8.29.15a11.75 11.75 0 0 1 -11.98-11.52q-.27-22.33 0-44.66c.12-9 5.91-14.13 15.23-14.14z" fill="#3c1f7c"/><path d="m923 514.48c-3.17-.74-6 .49-8.56-.93 1.47-7.37 8.05-15.16 12.73-15.17 2 4.25-1.77 9.42 2.3 13.64.61.63-1.38 5.49-3.15 6.35-3.32 1.63-1.68-2.91-3.32-3.89z" fill="#28221c"/><path d="m723.22 753.52c13 0 24.18 10.87 24.32 23.61s-11.29 23.87-24.2 23.67-24-11.6-23.87-24.17a23.64 23.64 0 0 1 23.75-23.11z" fill="#fee900"/><path d="m914.4 771c-1.42 4.6-8.11-.91-8.63 5.51 5.11.14 9.6 1.18 9.36 7.53-.14 3.6-1.81 6.14-5.56 6.67-4.18.6-7.45-.46-8.41-5.21 3.63-2.48 6.18 5.39 9.6.55a3.69 3.69 0 0 0 -.18-4.74c-2.76-3.16-5.41 1.18-8.62.18a30.65 30.65 0 0 1 1.28-11.32c3.76-.3 7.54-1.48 11.16.83z" fill="#e1ddeb"/><path d="m851.22 588c.14 13.71-9.31 22.76-23.83 23.14-10.63.28-22.49-9.36-23.33-24.68-.58-10.65 11.77-22.7 22.43-22.88 14.67-.23 24.58 9.56 24.73 24.42z" fill="#fee900"/><path d="m900.63 581.11c5 .23 9.63 1.15 9.46 7.43-.09 3.52-1.7 6.17-5.41 6.77-4.12.67-7.5-.26-8.64-5 3.05-3 9.91 7.67 9.9-2.24 0-6.87-6-.48-9.26-2a36 36 0 0 1 1.57-11.35c3.74.1 7.54-1.41 11.07 1.08-1.57 4.33-8.06-.99-8.69 5.31z" fill="#e1ddeb"/><path d="m581.66 582.3a11.78 11.78 0 0 1 1.19-5.29c1.68-3.19 4.11-4.88 7.74-3.87 5.56 1.55 5.85 6.37 5.81 10.78 0 4.22-.58 8.81-5.87 10.08-3.54.86-6.13-.66-7.74-4-.96-2-1.14-4-1.13-7.7z" fill="#e1ddeb"/><path d="m735.21 781.1c-1.49 5.59-5.76 7.89-10.34 7.65-4.37-.23-9.75-.69-12.19-8.52 8.37 8.27 15.38 5.67 22.53.87z" fill="#3b237f"/><path d="m824.33 582.6c-.71 2.33.59 5.94-3.58 6.23a9.25 9.25 0 0 1 -9-4.73c-1.24-2.18.56-4.87 2.76-4.4 3.36.72 7-8.46 9.79.3a9.34 9.34 0 0 1 .03 2.6z" fill="#3c1f7c"/><path d="m837.09 592.76c-1.17 5.6-4.59 7.49-8.65 8.06-3.89.54-6.81-1.4-9.16-6.06z" fill="#3b237f"/><path d="m835.07 588.94c-3.53-3-4.94-7.3-2.68-10.33 3.55-4.77 7.46 1.72 12.16.37-1.55 5.86-4.96 8.41-9.48 9.96z" fill="#3c1f7c"/><path d="m585.34 583.42c.44-2.92-.36-7 3.74-6.91 3.87.08 3.65 4.14 3.66 6.91s.36 6.88-3.49 7c-4.62.16-3.39-4.27-3.91-7z" fill="#3b237f"/></g></svg>